G75*
%MOIN*%
%OFA0B0*%
%FSLAX25Y25*%
%IPPOS*%
%LPD*%
%AMOC8*
5,1,8,0,0,1.08239X$1,22.5*
%
%ADD10C,0.00000*%
%ADD11C,0.00200*%
%ADD12C,0.00300*%
%ADD13C,0.00060*%
%ADD14C,0.00600*%
%ADD15C,0.01200*%
%ADD16C,0.00500*%
%ADD17C,0.00800*%
%ADD18C,0.00100*%
%ADD19R,0.02400X0.03400*%
%ADD20C,0.01000*%
%ADD21C,0.01600*%
%ADD22R,0.01600X0.02300*%
%ADD23C,0.00400*%
%ADD24C,0.00700*%
%ADD25R,0.03500X0.05000*%
D10*
X0004541Y0018008D02*
X0201391Y0018008D01*
X0201391Y0214858D01*
X0004541Y0214858D01*
X0004541Y0018008D01*
X0067167Y0127000D02*
X0067169Y0127161D01*
X0067175Y0127321D01*
X0067185Y0127482D01*
X0067199Y0127642D01*
X0067217Y0127802D01*
X0067238Y0127961D01*
X0067264Y0128120D01*
X0067294Y0128278D01*
X0067327Y0128435D01*
X0067365Y0128592D01*
X0067406Y0128747D01*
X0067451Y0128901D01*
X0067500Y0129054D01*
X0067553Y0129206D01*
X0067609Y0129357D01*
X0067670Y0129506D01*
X0067733Y0129654D01*
X0067801Y0129800D01*
X0067872Y0129944D01*
X0067946Y0130086D01*
X0068024Y0130227D01*
X0068106Y0130365D01*
X0068191Y0130502D01*
X0068279Y0130636D01*
X0068371Y0130768D01*
X0068466Y0130898D01*
X0068564Y0131026D01*
X0068665Y0131151D01*
X0068769Y0131273D01*
X0068876Y0131393D01*
X0068986Y0131510D01*
X0069099Y0131625D01*
X0069215Y0131736D01*
X0069334Y0131845D01*
X0069455Y0131950D01*
X0069579Y0132053D01*
X0069705Y0132153D01*
X0069833Y0132249D01*
X0069964Y0132342D01*
X0070098Y0132432D01*
X0070233Y0132519D01*
X0070371Y0132602D01*
X0070510Y0132682D01*
X0070652Y0132758D01*
X0070795Y0132831D01*
X0070940Y0132900D01*
X0071087Y0132966D01*
X0071235Y0133028D01*
X0071385Y0133086D01*
X0071536Y0133141D01*
X0071689Y0133192D01*
X0071843Y0133239D01*
X0071998Y0133282D01*
X0072154Y0133321D01*
X0072310Y0133357D01*
X0072468Y0133388D01*
X0072626Y0133416D01*
X0072785Y0133440D01*
X0072945Y0133460D01*
X0073105Y0133476D01*
X0073265Y0133488D01*
X0073426Y0133496D01*
X0073587Y0133500D01*
X0073747Y0133500D01*
X0073908Y0133496D01*
X0074069Y0133488D01*
X0074229Y0133476D01*
X0074389Y0133460D01*
X0074549Y0133440D01*
X0074708Y0133416D01*
X0074866Y0133388D01*
X0075024Y0133357D01*
X0075180Y0133321D01*
X0075336Y0133282D01*
X0075491Y0133239D01*
X0075645Y0133192D01*
X0075798Y0133141D01*
X0075949Y0133086D01*
X0076099Y0133028D01*
X0076247Y0132966D01*
X0076394Y0132900D01*
X0076539Y0132831D01*
X0076682Y0132758D01*
X0076824Y0132682D01*
X0076963Y0132602D01*
X0077101Y0132519D01*
X0077236Y0132432D01*
X0077370Y0132342D01*
X0077501Y0132249D01*
X0077629Y0132153D01*
X0077755Y0132053D01*
X0077879Y0131950D01*
X0078000Y0131845D01*
X0078119Y0131736D01*
X0078235Y0131625D01*
X0078348Y0131510D01*
X0078458Y0131393D01*
X0078565Y0131273D01*
X0078669Y0131151D01*
X0078770Y0131026D01*
X0078868Y0130898D01*
X0078963Y0130768D01*
X0079055Y0130636D01*
X0079143Y0130502D01*
X0079228Y0130365D01*
X0079310Y0130227D01*
X0079388Y0130086D01*
X0079462Y0129944D01*
X0079533Y0129800D01*
X0079601Y0129654D01*
X0079664Y0129506D01*
X0079725Y0129357D01*
X0079781Y0129206D01*
X0079834Y0129054D01*
X0079883Y0128901D01*
X0079928Y0128747D01*
X0079969Y0128592D01*
X0080007Y0128435D01*
X0080040Y0128278D01*
X0080070Y0128120D01*
X0080096Y0127961D01*
X0080117Y0127802D01*
X0080135Y0127642D01*
X0080149Y0127482D01*
X0080159Y0127321D01*
X0080165Y0127161D01*
X0080167Y0127000D01*
X0080165Y0126839D01*
X0080159Y0126679D01*
X0080149Y0126518D01*
X0080135Y0126358D01*
X0080117Y0126198D01*
X0080096Y0126039D01*
X0080070Y0125880D01*
X0080040Y0125722D01*
X0080007Y0125565D01*
X0079969Y0125408D01*
X0079928Y0125253D01*
X0079883Y0125099D01*
X0079834Y0124946D01*
X0079781Y0124794D01*
X0079725Y0124643D01*
X0079664Y0124494D01*
X0079601Y0124346D01*
X0079533Y0124200D01*
X0079462Y0124056D01*
X0079388Y0123914D01*
X0079310Y0123773D01*
X0079228Y0123635D01*
X0079143Y0123498D01*
X0079055Y0123364D01*
X0078963Y0123232D01*
X0078868Y0123102D01*
X0078770Y0122974D01*
X0078669Y0122849D01*
X0078565Y0122727D01*
X0078458Y0122607D01*
X0078348Y0122490D01*
X0078235Y0122375D01*
X0078119Y0122264D01*
X0078000Y0122155D01*
X0077879Y0122050D01*
X0077755Y0121947D01*
X0077629Y0121847D01*
X0077501Y0121751D01*
X0077370Y0121658D01*
X0077236Y0121568D01*
X0077101Y0121481D01*
X0076963Y0121398D01*
X0076824Y0121318D01*
X0076682Y0121242D01*
X0076539Y0121169D01*
X0076394Y0121100D01*
X0076247Y0121034D01*
X0076099Y0120972D01*
X0075949Y0120914D01*
X0075798Y0120859D01*
X0075645Y0120808D01*
X0075491Y0120761D01*
X0075336Y0120718D01*
X0075180Y0120679D01*
X0075024Y0120643D01*
X0074866Y0120612D01*
X0074708Y0120584D01*
X0074549Y0120560D01*
X0074389Y0120540D01*
X0074229Y0120524D01*
X0074069Y0120512D01*
X0073908Y0120504D01*
X0073747Y0120500D01*
X0073587Y0120500D01*
X0073426Y0120504D01*
X0073265Y0120512D01*
X0073105Y0120524D01*
X0072945Y0120540D01*
X0072785Y0120560D01*
X0072626Y0120584D01*
X0072468Y0120612D01*
X0072310Y0120643D01*
X0072154Y0120679D01*
X0071998Y0120718D01*
X0071843Y0120761D01*
X0071689Y0120808D01*
X0071536Y0120859D01*
X0071385Y0120914D01*
X0071235Y0120972D01*
X0071087Y0121034D01*
X0070940Y0121100D01*
X0070795Y0121169D01*
X0070652Y0121242D01*
X0070510Y0121318D01*
X0070371Y0121398D01*
X0070233Y0121481D01*
X0070098Y0121568D01*
X0069964Y0121658D01*
X0069833Y0121751D01*
X0069705Y0121847D01*
X0069579Y0121947D01*
X0069455Y0122050D01*
X0069334Y0122155D01*
X0069215Y0122264D01*
X0069099Y0122375D01*
X0068986Y0122490D01*
X0068876Y0122607D01*
X0068769Y0122727D01*
X0068665Y0122849D01*
X0068564Y0122974D01*
X0068466Y0123102D01*
X0068371Y0123232D01*
X0068279Y0123364D01*
X0068191Y0123498D01*
X0068106Y0123635D01*
X0068024Y0123773D01*
X0067946Y0123914D01*
X0067872Y0124056D01*
X0067801Y0124200D01*
X0067733Y0124346D01*
X0067670Y0124494D01*
X0067609Y0124643D01*
X0067553Y0124794D01*
X0067500Y0124946D01*
X0067451Y0125099D01*
X0067406Y0125253D01*
X0067365Y0125408D01*
X0067327Y0125565D01*
X0067294Y0125722D01*
X0067264Y0125880D01*
X0067238Y0126039D01*
X0067217Y0126198D01*
X0067199Y0126358D01*
X0067185Y0126518D01*
X0067175Y0126679D01*
X0067169Y0126839D01*
X0067167Y0127000D01*
X0114777Y0205016D02*
X0114779Y0205141D01*
X0114785Y0205266D01*
X0114795Y0205390D01*
X0114809Y0205514D01*
X0114826Y0205638D01*
X0114848Y0205761D01*
X0114874Y0205883D01*
X0114903Y0206005D01*
X0114936Y0206125D01*
X0114974Y0206244D01*
X0115014Y0206363D01*
X0115059Y0206479D01*
X0115107Y0206594D01*
X0115159Y0206708D01*
X0115215Y0206820D01*
X0115274Y0206930D01*
X0115336Y0207038D01*
X0115402Y0207145D01*
X0115471Y0207249D01*
X0115544Y0207350D01*
X0115619Y0207450D01*
X0115698Y0207547D01*
X0115780Y0207641D01*
X0115865Y0207733D01*
X0115952Y0207822D01*
X0116043Y0207908D01*
X0116136Y0207991D01*
X0116232Y0208072D01*
X0116330Y0208149D01*
X0116430Y0208223D01*
X0116533Y0208294D01*
X0116638Y0208361D01*
X0116746Y0208426D01*
X0116855Y0208486D01*
X0116966Y0208544D01*
X0117079Y0208597D01*
X0117193Y0208647D01*
X0117309Y0208694D01*
X0117426Y0208736D01*
X0117545Y0208775D01*
X0117665Y0208811D01*
X0117786Y0208842D01*
X0117908Y0208870D01*
X0118030Y0208893D01*
X0118154Y0208913D01*
X0118278Y0208929D01*
X0118402Y0208941D01*
X0118527Y0208949D01*
X0118652Y0208953D01*
X0118776Y0208953D01*
X0118901Y0208949D01*
X0119026Y0208941D01*
X0119150Y0208929D01*
X0119274Y0208913D01*
X0119398Y0208893D01*
X0119520Y0208870D01*
X0119642Y0208842D01*
X0119763Y0208811D01*
X0119883Y0208775D01*
X0120002Y0208736D01*
X0120119Y0208694D01*
X0120235Y0208647D01*
X0120349Y0208597D01*
X0120462Y0208544D01*
X0120573Y0208486D01*
X0120683Y0208426D01*
X0120790Y0208361D01*
X0120895Y0208294D01*
X0120998Y0208223D01*
X0121098Y0208149D01*
X0121196Y0208072D01*
X0121292Y0207991D01*
X0121385Y0207908D01*
X0121476Y0207822D01*
X0121563Y0207733D01*
X0121648Y0207641D01*
X0121730Y0207547D01*
X0121809Y0207450D01*
X0121884Y0207350D01*
X0121957Y0207249D01*
X0122026Y0207145D01*
X0122092Y0207038D01*
X0122154Y0206930D01*
X0122213Y0206820D01*
X0122269Y0206708D01*
X0122321Y0206594D01*
X0122369Y0206479D01*
X0122414Y0206363D01*
X0122454Y0206244D01*
X0122492Y0206125D01*
X0122525Y0206005D01*
X0122554Y0205883D01*
X0122580Y0205761D01*
X0122602Y0205638D01*
X0122619Y0205514D01*
X0122633Y0205390D01*
X0122643Y0205266D01*
X0122649Y0205141D01*
X0122651Y0205016D01*
X0122649Y0204891D01*
X0122643Y0204766D01*
X0122633Y0204642D01*
X0122619Y0204518D01*
X0122602Y0204394D01*
X0122580Y0204271D01*
X0122554Y0204149D01*
X0122525Y0204027D01*
X0122492Y0203907D01*
X0122454Y0203788D01*
X0122414Y0203669D01*
X0122369Y0203553D01*
X0122321Y0203438D01*
X0122269Y0203324D01*
X0122213Y0203212D01*
X0122154Y0203102D01*
X0122092Y0202994D01*
X0122026Y0202887D01*
X0121957Y0202783D01*
X0121884Y0202682D01*
X0121809Y0202582D01*
X0121730Y0202485D01*
X0121648Y0202391D01*
X0121563Y0202299D01*
X0121476Y0202210D01*
X0121385Y0202124D01*
X0121292Y0202041D01*
X0121196Y0201960D01*
X0121098Y0201883D01*
X0120998Y0201809D01*
X0120895Y0201738D01*
X0120790Y0201671D01*
X0120682Y0201606D01*
X0120573Y0201546D01*
X0120462Y0201488D01*
X0120349Y0201435D01*
X0120235Y0201385D01*
X0120119Y0201338D01*
X0120002Y0201296D01*
X0119883Y0201257D01*
X0119763Y0201221D01*
X0119642Y0201190D01*
X0119520Y0201162D01*
X0119398Y0201139D01*
X0119274Y0201119D01*
X0119150Y0201103D01*
X0119026Y0201091D01*
X0118901Y0201083D01*
X0118776Y0201079D01*
X0118652Y0201079D01*
X0118527Y0201083D01*
X0118402Y0201091D01*
X0118278Y0201103D01*
X0118154Y0201119D01*
X0118030Y0201139D01*
X0117908Y0201162D01*
X0117786Y0201190D01*
X0117665Y0201221D01*
X0117545Y0201257D01*
X0117426Y0201296D01*
X0117309Y0201338D01*
X0117193Y0201385D01*
X0117079Y0201435D01*
X0116966Y0201488D01*
X0116855Y0201546D01*
X0116745Y0201606D01*
X0116638Y0201671D01*
X0116533Y0201738D01*
X0116430Y0201809D01*
X0116330Y0201883D01*
X0116232Y0201960D01*
X0116136Y0202041D01*
X0116043Y0202124D01*
X0115952Y0202210D01*
X0115865Y0202299D01*
X0115780Y0202391D01*
X0115698Y0202485D01*
X0115619Y0202582D01*
X0115544Y0202682D01*
X0115471Y0202783D01*
X0115402Y0202887D01*
X0115336Y0202994D01*
X0115274Y0203102D01*
X0115215Y0203212D01*
X0115159Y0203324D01*
X0115107Y0203438D01*
X0115059Y0203553D01*
X0115014Y0203669D01*
X0114974Y0203788D01*
X0114936Y0203907D01*
X0114903Y0204027D01*
X0114874Y0204149D01*
X0114848Y0204271D01*
X0114826Y0204394D01*
X0114809Y0204518D01*
X0114795Y0204642D01*
X0114785Y0204766D01*
X0114779Y0204891D01*
X0114777Y0205016D01*
X0114777Y0027850D02*
X0114779Y0027975D01*
X0114785Y0028100D01*
X0114795Y0028224D01*
X0114809Y0028348D01*
X0114826Y0028472D01*
X0114848Y0028595D01*
X0114874Y0028717D01*
X0114903Y0028839D01*
X0114936Y0028959D01*
X0114974Y0029078D01*
X0115014Y0029197D01*
X0115059Y0029313D01*
X0115107Y0029428D01*
X0115159Y0029542D01*
X0115215Y0029654D01*
X0115274Y0029764D01*
X0115336Y0029872D01*
X0115402Y0029979D01*
X0115471Y0030083D01*
X0115544Y0030184D01*
X0115619Y0030284D01*
X0115698Y0030381D01*
X0115780Y0030475D01*
X0115865Y0030567D01*
X0115952Y0030656D01*
X0116043Y0030742D01*
X0116136Y0030825D01*
X0116232Y0030906D01*
X0116330Y0030983D01*
X0116430Y0031057D01*
X0116533Y0031128D01*
X0116638Y0031195D01*
X0116746Y0031260D01*
X0116855Y0031320D01*
X0116966Y0031378D01*
X0117079Y0031431D01*
X0117193Y0031481D01*
X0117309Y0031528D01*
X0117426Y0031570D01*
X0117545Y0031609D01*
X0117665Y0031645D01*
X0117786Y0031676D01*
X0117908Y0031704D01*
X0118030Y0031727D01*
X0118154Y0031747D01*
X0118278Y0031763D01*
X0118402Y0031775D01*
X0118527Y0031783D01*
X0118652Y0031787D01*
X0118776Y0031787D01*
X0118901Y0031783D01*
X0119026Y0031775D01*
X0119150Y0031763D01*
X0119274Y0031747D01*
X0119398Y0031727D01*
X0119520Y0031704D01*
X0119642Y0031676D01*
X0119763Y0031645D01*
X0119883Y0031609D01*
X0120002Y0031570D01*
X0120119Y0031528D01*
X0120235Y0031481D01*
X0120349Y0031431D01*
X0120462Y0031378D01*
X0120573Y0031320D01*
X0120683Y0031260D01*
X0120790Y0031195D01*
X0120895Y0031128D01*
X0120998Y0031057D01*
X0121098Y0030983D01*
X0121196Y0030906D01*
X0121292Y0030825D01*
X0121385Y0030742D01*
X0121476Y0030656D01*
X0121563Y0030567D01*
X0121648Y0030475D01*
X0121730Y0030381D01*
X0121809Y0030284D01*
X0121884Y0030184D01*
X0121957Y0030083D01*
X0122026Y0029979D01*
X0122092Y0029872D01*
X0122154Y0029764D01*
X0122213Y0029654D01*
X0122269Y0029542D01*
X0122321Y0029428D01*
X0122369Y0029313D01*
X0122414Y0029197D01*
X0122454Y0029078D01*
X0122492Y0028959D01*
X0122525Y0028839D01*
X0122554Y0028717D01*
X0122580Y0028595D01*
X0122602Y0028472D01*
X0122619Y0028348D01*
X0122633Y0028224D01*
X0122643Y0028100D01*
X0122649Y0027975D01*
X0122651Y0027850D01*
X0122649Y0027725D01*
X0122643Y0027600D01*
X0122633Y0027476D01*
X0122619Y0027352D01*
X0122602Y0027228D01*
X0122580Y0027105D01*
X0122554Y0026983D01*
X0122525Y0026861D01*
X0122492Y0026741D01*
X0122454Y0026622D01*
X0122414Y0026503D01*
X0122369Y0026387D01*
X0122321Y0026272D01*
X0122269Y0026158D01*
X0122213Y0026046D01*
X0122154Y0025936D01*
X0122092Y0025828D01*
X0122026Y0025721D01*
X0121957Y0025617D01*
X0121884Y0025516D01*
X0121809Y0025416D01*
X0121730Y0025319D01*
X0121648Y0025225D01*
X0121563Y0025133D01*
X0121476Y0025044D01*
X0121385Y0024958D01*
X0121292Y0024875D01*
X0121196Y0024794D01*
X0121098Y0024717D01*
X0120998Y0024643D01*
X0120895Y0024572D01*
X0120790Y0024505D01*
X0120682Y0024440D01*
X0120573Y0024380D01*
X0120462Y0024322D01*
X0120349Y0024269D01*
X0120235Y0024219D01*
X0120119Y0024172D01*
X0120002Y0024130D01*
X0119883Y0024091D01*
X0119763Y0024055D01*
X0119642Y0024024D01*
X0119520Y0023996D01*
X0119398Y0023973D01*
X0119274Y0023953D01*
X0119150Y0023937D01*
X0119026Y0023925D01*
X0118901Y0023917D01*
X0118776Y0023913D01*
X0118652Y0023913D01*
X0118527Y0023917D01*
X0118402Y0023925D01*
X0118278Y0023937D01*
X0118154Y0023953D01*
X0118030Y0023973D01*
X0117908Y0023996D01*
X0117786Y0024024D01*
X0117665Y0024055D01*
X0117545Y0024091D01*
X0117426Y0024130D01*
X0117309Y0024172D01*
X0117193Y0024219D01*
X0117079Y0024269D01*
X0116966Y0024322D01*
X0116855Y0024380D01*
X0116745Y0024440D01*
X0116638Y0024505D01*
X0116533Y0024572D01*
X0116430Y0024643D01*
X0116330Y0024717D01*
X0116232Y0024794D01*
X0116136Y0024875D01*
X0116043Y0024958D01*
X0115952Y0025044D01*
X0115865Y0025133D01*
X0115780Y0025225D01*
X0115698Y0025319D01*
X0115619Y0025416D01*
X0115544Y0025516D01*
X0115471Y0025617D01*
X0115402Y0025721D01*
X0115336Y0025828D01*
X0115274Y0025936D01*
X0115215Y0026046D01*
X0115159Y0026158D01*
X0115107Y0026272D01*
X0115059Y0026387D01*
X0115014Y0026503D01*
X0114974Y0026622D01*
X0114936Y0026741D01*
X0114903Y0026861D01*
X0114874Y0026983D01*
X0114848Y0027105D01*
X0114826Y0027228D01*
X0114809Y0027352D01*
X0114795Y0027476D01*
X0114785Y0027600D01*
X0114779Y0027725D01*
X0114777Y0027850D01*
X0185730Y0027850D02*
X0185732Y0027975D01*
X0185738Y0028100D01*
X0185748Y0028224D01*
X0185762Y0028348D01*
X0185779Y0028472D01*
X0185801Y0028595D01*
X0185827Y0028717D01*
X0185856Y0028839D01*
X0185889Y0028959D01*
X0185927Y0029078D01*
X0185967Y0029197D01*
X0186012Y0029313D01*
X0186060Y0029428D01*
X0186112Y0029542D01*
X0186168Y0029654D01*
X0186227Y0029764D01*
X0186289Y0029872D01*
X0186355Y0029979D01*
X0186424Y0030083D01*
X0186497Y0030184D01*
X0186572Y0030284D01*
X0186651Y0030381D01*
X0186733Y0030475D01*
X0186818Y0030567D01*
X0186905Y0030656D01*
X0186996Y0030742D01*
X0187089Y0030825D01*
X0187185Y0030906D01*
X0187283Y0030983D01*
X0187383Y0031057D01*
X0187486Y0031128D01*
X0187591Y0031195D01*
X0187699Y0031260D01*
X0187808Y0031320D01*
X0187919Y0031378D01*
X0188032Y0031431D01*
X0188146Y0031481D01*
X0188262Y0031528D01*
X0188379Y0031570D01*
X0188498Y0031609D01*
X0188618Y0031645D01*
X0188739Y0031676D01*
X0188861Y0031704D01*
X0188983Y0031727D01*
X0189107Y0031747D01*
X0189231Y0031763D01*
X0189355Y0031775D01*
X0189480Y0031783D01*
X0189605Y0031787D01*
X0189729Y0031787D01*
X0189854Y0031783D01*
X0189979Y0031775D01*
X0190103Y0031763D01*
X0190227Y0031747D01*
X0190351Y0031727D01*
X0190473Y0031704D01*
X0190595Y0031676D01*
X0190716Y0031645D01*
X0190836Y0031609D01*
X0190955Y0031570D01*
X0191072Y0031528D01*
X0191188Y0031481D01*
X0191302Y0031431D01*
X0191415Y0031378D01*
X0191526Y0031320D01*
X0191636Y0031260D01*
X0191743Y0031195D01*
X0191848Y0031128D01*
X0191951Y0031057D01*
X0192051Y0030983D01*
X0192149Y0030906D01*
X0192245Y0030825D01*
X0192338Y0030742D01*
X0192429Y0030656D01*
X0192516Y0030567D01*
X0192601Y0030475D01*
X0192683Y0030381D01*
X0192762Y0030284D01*
X0192837Y0030184D01*
X0192910Y0030083D01*
X0192979Y0029979D01*
X0193045Y0029872D01*
X0193107Y0029764D01*
X0193166Y0029654D01*
X0193222Y0029542D01*
X0193274Y0029428D01*
X0193322Y0029313D01*
X0193367Y0029197D01*
X0193407Y0029078D01*
X0193445Y0028959D01*
X0193478Y0028839D01*
X0193507Y0028717D01*
X0193533Y0028595D01*
X0193555Y0028472D01*
X0193572Y0028348D01*
X0193586Y0028224D01*
X0193596Y0028100D01*
X0193602Y0027975D01*
X0193604Y0027850D01*
X0193602Y0027725D01*
X0193596Y0027600D01*
X0193586Y0027476D01*
X0193572Y0027352D01*
X0193555Y0027228D01*
X0193533Y0027105D01*
X0193507Y0026983D01*
X0193478Y0026861D01*
X0193445Y0026741D01*
X0193407Y0026622D01*
X0193367Y0026503D01*
X0193322Y0026387D01*
X0193274Y0026272D01*
X0193222Y0026158D01*
X0193166Y0026046D01*
X0193107Y0025936D01*
X0193045Y0025828D01*
X0192979Y0025721D01*
X0192910Y0025617D01*
X0192837Y0025516D01*
X0192762Y0025416D01*
X0192683Y0025319D01*
X0192601Y0025225D01*
X0192516Y0025133D01*
X0192429Y0025044D01*
X0192338Y0024958D01*
X0192245Y0024875D01*
X0192149Y0024794D01*
X0192051Y0024717D01*
X0191951Y0024643D01*
X0191848Y0024572D01*
X0191743Y0024505D01*
X0191635Y0024440D01*
X0191526Y0024380D01*
X0191415Y0024322D01*
X0191302Y0024269D01*
X0191188Y0024219D01*
X0191072Y0024172D01*
X0190955Y0024130D01*
X0190836Y0024091D01*
X0190716Y0024055D01*
X0190595Y0024024D01*
X0190473Y0023996D01*
X0190351Y0023973D01*
X0190227Y0023953D01*
X0190103Y0023937D01*
X0189979Y0023925D01*
X0189854Y0023917D01*
X0189729Y0023913D01*
X0189605Y0023913D01*
X0189480Y0023917D01*
X0189355Y0023925D01*
X0189231Y0023937D01*
X0189107Y0023953D01*
X0188983Y0023973D01*
X0188861Y0023996D01*
X0188739Y0024024D01*
X0188618Y0024055D01*
X0188498Y0024091D01*
X0188379Y0024130D01*
X0188262Y0024172D01*
X0188146Y0024219D01*
X0188032Y0024269D01*
X0187919Y0024322D01*
X0187808Y0024380D01*
X0187698Y0024440D01*
X0187591Y0024505D01*
X0187486Y0024572D01*
X0187383Y0024643D01*
X0187283Y0024717D01*
X0187185Y0024794D01*
X0187089Y0024875D01*
X0186996Y0024958D01*
X0186905Y0025044D01*
X0186818Y0025133D01*
X0186733Y0025225D01*
X0186651Y0025319D01*
X0186572Y0025416D01*
X0186497Y0025516D01*
X0186424Y0025617D01*
X0186355Y0025721D01*
X0186289Y0025828D01*
X0186227Y0025936D01*
X0186168Y0026046D01*
X0186112Y0026158D01*
X0186060Y0026272D01*
X0186012Y0026387D01*
X0185967Y0026503D01*
X0185927Y0026622D01*
X0185889Y0026741D01*
X0185856Y0026861D01*
X0185827Y0026983D01*
X0185801Y0027105D01*
X0185779Y0027228D01*
X0185762Y0027352D01*
X0185748Y0027476D01*
X0185738Y0027600D01*
X0185732Y0027725D01*
X0185730Y0027850D01*
D11*
X0184287Y0086100D02*
X0184654Y0086467D01*
X0184287Y0086100D02*
X0183553Y0086100D01*
X0183186Y0086467D01*
X0183186Y0087935D01*
X0183553Y0088302D01*
X0184287Y0088302D01*
X0184654Y0087935D01*
X0182444Y0087935D02*
X0182077Y0088302D01*
X0181344Y0088302D01*
X0180977Y0087935D01*
X0180977Y0086467D01*
X0181344Y0086100D01*
X0182077Y0086100D01*
X0182444Y0086467D01*
X0180235Y0086834D02*
X0180235Y0088302D01*
X0180235Y0086834D02*
X0179501Y0086100D01*
X0178767Y0086834D01*
X0178767Y0088302D01*
X0179134Y0096100D02*
X0179868Y0096100D01*
X0180235Y0096467D01*
X0180235Y0097201D01*
X0179501Y0097201D01*
X0180235Y0097935D02*
X0179868Y0098302D01*
X0179134Y0098302D01*
X0178767Y0097935D01*
X0178767Y0096467D01*
X0179134Y0096100D01*
X0180977Y0096100D02*
X0180977Y0098302D01*
X0182444Y0096100D01*
X0182444Y0098302D01*
X0183186Y0098302D02*
X0183186Y0096100D01*
X0184287Y0096100D01*
X0184654Y0096467D01*
X0184654Y0097935D01*
X0184287Y0098302D01*
X0183186Y0098302D01*
X0183553Y0106100D02*
X0183186Y0106467D01*
X0183553Y0106100D02*
X0184287Y0106100D01*
X0184654Y0106467D01*
X0184654Y0106834D01*
X0184287Y0107201D01*
X0183553Y0107201D01*
X0183186Y0107568D01*
X0183186Y0107935D01*
X0183553Y0108302D01*
X0184287Y0108302D01*
X0184654Y0107935D01*
X0185396Y0108302D02*
X0186130Y0108302D01*
X0185763Y0108302D02*
X0185763Y0106100D01*
X0185396Y0106100D02*
X0186130Y0106100D01*
X0182444Y0106467D02*
X0182077Y0106100D01*
X0181344Y0106100D01*
X0180977Y0106467D01*
X0180977Y0107935D01*
X0181344Y0108302D01*
X0182077Y0108302D01*
X0182444Y0107935D01*
X0182444Y0106467D01*
X0180235Y0106100D02*
X0180235Y0108302D01*
X0179501Y0107568D01*
X0178767Y0108302D01*
X0178767Y0106100D01*
X0179444Y0116100D02*
X0177977Y0116100D01*
X0177977Y0118302D01*
X0179444Y0118302D01*
X0180186Y0117935D02*
X0180186Y0117568D01*
X0180553Y0117201D01*
X0181287Y0117201D01*
X0181654Y0116834D01*
X0181654Y0116467D01*
X0181287Y0116100D01*
X0180553Y0116100D01*
X0180186Y0116467D01*
X0180186Y0117935D02*
X0180553Y0118302D01*
X0181287Y0118302D01*
X0181654Y0117935D01*
X0182396Y0118302D02*
X0182396Y0116100D01*
X0183864Y0116100D01*
X0183130Y0117201D02*
X0182396Y0117201D01*
X0182396Y0118302D02*
X0183864Y0118302D01*
X0184606Y0118302D02*
X0186074Y0118302D01*
X0185340Y0118302D02*
X0185340Y0116100D01*
X0178710Y0117201D02*
X0177977Y0117201D01*
X0177235Y0117201D02*
X0176868Y0116834D01*
X0175767Y0116834D01*
X0176501Y0116834D02*
X0177235Y0116100D01*
X0177235Y0117201D02*
X0177235Y0117935D01*
X0176868Y0118302D01*
X0175767Y0118302D01*
X0175767Y0116100D01*
X0179134Y0126100D02*
X0178767Y0126467D01*
X0179134Y0126100D02*
X0179868Y0126100D01*
X0180235Y0126467D01*
X0180235Y0126834D01*
X0179868Y0127201D01*
X0179134Y0127201D01*
X0178767Y0127568D01*
X0178767Y0127935D01*
X0179134Y0128302D01*
X0179868Y0128302D01*
X0180235Y0127935D01*
X0180977Y0127935D02*
X0180977Y0126467D01*
X0181344Y0126100D01*
X0182077Y0126100D01*
X0182444Y0126467D01*
X0183186Y0126834D02*
X0184654Y0128302D01*
X0183186Y0128302D02*
X0183186Y0126100D01*
X0183553Y0127201D02*
X0184654Y0126100D01*
X0182444Y0127935D02*
X0182077Y0128302D01*
X0181344Y0128302D01*
X0180977Y0127935D01*
X0180977Y0136100D02*
X0181710Y0136100D01*
X0181344Y0136100D02*
X0181344Y0138302D01*
X0181710Y0138302D02*
X0180977Y0138302D01*
X0180235Y0138302D02*
X0180235Y0136100D01*
X0178767Y0136100D02*
X0178767Y0138302D01*
X0179501Y0137568D01*
X0180235Y0138302D01*
X0182450Y0137935D02*
X0182450Y0137568D01*
X0182817Y0137201D01*
X0183551Y0137201D01*
X0183918Y0136834D01*
X0183918Y0136467D01*
X0183551Y0136100D01*
X0182817Y0136100D01*
X0182450Y0136467D01*
X0182450Y0137935D02*
X0182817Y0138302D01*
X0183551Y0138302D01*
X0183918Y0137935D01*
X0184660Y0137935D02*
X0184660Y0136467D01*
X0185027Y0136100D01*
X0185761Y0136100D01*
X0186128Y0136467D01*
X0186128Y0137935D01*
X0185761Y0138302D01*
X0185027Y0138302D01*
X0184660Y0137935D01*
X0184186Y0152100D02*
X0184186Y0154302D01*
X0185654Y0152100D01*
X0185654Y0154302D01*
X0183444Y0154302D02*
X0181977Y0154302D01*
X0182710Y0154302D02*
X0182710Y0152100D01*
X0181235Y0152467D02*
X0180868Y0152100D01*
X0179767Y0152100D01*
X0179767Y0154302D01*
X0180868Y0154302D01*
X0181235Y0153935D01*
X0181235Y0153568D01*
X0180868Y0153201D01*
X0179767Y0153201D01*
X0180868Y0153201D02*
X0181235Y0152834D01*
X0181235Y0152467D01*
X0180868Y0162100D02*
X0180134Y0162100D01*
X0179767Y0162467D01*
X0180134Y0163201D02*
X0180868Y0163201D01*
X0181235Y0162834D01*
X0181235Y0162467D01*
X0180868Y0162100D01*
X0181977Y0162100D02*
X0183444Y0162100D01*
X0184186Y0162100D02*
X0184186Y0164302D01*
X0185287Y0164302D01*
X0185654Y0163935D01*
X0185654Y0163201D01*
X0185287Y0162834D01*
X0184186Y0162834D01*
X0184920Y0162834D02*
X0185654Y0162100D01*
X0183444Y0164302D02*
X0181977Y0164302D01*
X0181977Y0162100D01*
X0181977Y0163201D02*
X0182710Y0163201D01*
X0181235Y0163935D02*
X0180868Y0164302D01*
X0180134Y0164302D01*
X0179767Y0163935D01*
X0179767Y0163568D01*
X0180134Y0163201D01*
X0180134Y0171100D02*
X0179767Y0171467D01*
X0180134Y0171100D02*
X0180868Y0171100D01*
X0181235Y0171467D01*
X0181235Y0171834D01*
X0180868Y0172201D01*
X0180134Y0172201D01*
X0179767Y0172568D01*
X0179767Y0172935D01*
X0180134Y0173302D01*
X0180868Y0173302D01*
X0181235Y0172935D01*
X0181977Y0172935D02*
X0181977Y0171467D01*
X0182344Y0171100D01*
X0183077Y0171100D01*
X0183444Y0171467D01*
X0184186Y0171100D02*
X0184186Y0173302D01*
X0183444Y0172935D02*
X0183077Y0173302D01*
X0182344Y0173302D01*
X0181977Y0172935D01*
X0184186Y0171100D02*
X0185654Y0171100D01*
X0185654Y0182100D02*
X0185654Y0183568D01*
X0184920Y0184302D01*
X0184186Y0183568D01*
X0184186Y0182100D01*
X0183444Y0182467D02*
X0183077Y0182100D01*
X0181977Y0182100D01*
X0181977Y0184302D01*
X0183077Y0184302D01*
X0183444Y0183935D01*
X0183444Y0182467D01*
X0184186Y0183201D02*
X0185654Y0183201D01*
X0181235Y0182834D02*
X0181235Y0182467D01*
X0180868Y0182100D01*
X0180134Y0182100D01*
X0179767Y0182467D01*
X0180134Y0183201D02*
X0180868Y0183201D01*
X0181235Y0182834D01*
X0181235Y0183935D02*
X0180868Y0184302D01*
X0180134Y0184302D01*
X0179767Y0183935D01*
X0179767Y0183568D01*
X0180134Y0183201D01*
X0180134Y0192100D02*
X0180868Y0192100D01*
X0181235Y0192467D01*
X0181235Y0193201D01*
X0180501Y0193201D01*
X0181235Y0193935D02*
X0180868Y0194302D01*
X0180134Y0194302D01*
X0179767Y0193935D01*
X0179767Y0192467D01*
X0180134Y0192100D01*
X0181977Y0192100D02*
X0181977Y0194302D01*
X0183444Y0192100D01*
X0183444Y0194302D01*
X0184186Y0194302D02*
X0185287Y0194302D01*
X0185654Y0193935D01*
X0185654Y0192467D01*
X0185287Y0192100D01*
X0184186Y0192100D01*
X0184186Y0194302D01*
X0184553Y0202100D02*
X0185287Y0202100D01*
X0185654Y0202467D01*
X0184553Y0202100D02*
X0184186Y0202467D01*
X0184186Y0203935D01*
X0184553Y0204302D01*
X0185287Y0204302D01*
X0185654Y0203935D01*
X0183444Y0203935D02*
X0183077Y0204302D01*
X0182344Y0204302D01*
X0181977Y0203935D01*
X0181977Y0202467D01*
X0182344Y0202100D01*
X0183077Y0202100D01*
X0183444Y0202467D01*
X0181235Y0202834D02*
X0181235Y0204302D01*
X0181235Y0202834D02*
X0180501Y0202100D01*
X0179767Y0202834D01*
X0179767Y0204302D01*
X0059667Y0145000D02*
X0059667Y0109000D01*
X0027167Y0109000D01*
X0027167Y0145000D01*
X0059667Y0145000D01*
D12*
X0047559Y0159691D02*
X0047559Y0161626D01*
X0047559Y0160659D02*
X0044657Y0160659D01*
X0045624Y0159691D01*
X0044657Y0162638D02*
X0047559Y0164573D01*
X0044657Y0164573D01*
X0046108Y0165584D02*
X0046108Y0167519D01*
X0045624Y0168531D02*
X0044657Y0169498D01*
X0047559Y0169498D01*
X0047559Y0168531D02*
X0047559Y0170466D01*
X0046108Y0171477D02*
X0044657Y0172929D01*
X0047559Y0172929D01*
X0046108Y0173412D02*
X0046108Y0171477D01*
X0046592Y0174424D02*
X0046108Y0174908D01*
X0046108Y0175875D01*
X0046592Y0176359D01*
X0047075Y0176359D01*
X0047559Y0175875D01*
X0047559Y0174908D01*
X0047075Y0174424D01*
X0046592Y0174424D01*
X0046108Y0174908D02*
X0045624Y0174424D01*
X0045140Y0174424D01*
X0044657Y0174908D01*
X0044657Y0175875D01*
X0045140Y0176359D01*
X0045624Y0176359D01*
X0046108Y0175875D01*
X0047559Y0167036D02*
X0044657Y0167036D01*
X0046108Y0165584D01*
X0047559Y0162638D02*
X0044657Y0162638D01*
X0033602Y0162236D02*
X0032985Y0162853D01*
X0031751Y0162853D01*
X0031134Y0162236D01*
X0029919Y0162236D02*
X0029302Y0162853D01*
X0028068Y0162853D01*
X0027450Y0162236D01*
X0027450Y0159767D01*
X0028068Y0159150D01*
X0029302Y0159150D01*
X0029919Y0159767D01*
X0031134Y0159150D02*
X0033602Y0161619D01*
X0033602Y0162236D01*
X0033602Y0159150D02*
X0031134Y0159150D01*
X0030602Y0181150D02*
X0028134Y0181150D01*
X0029368Y0181150D02*
X0029368Y0184853D01*
X0028134Y0183619D01*
X0026919Y0184236D02*
X0026302Y0184853D01*
X0025068Y0184853D01*
X0024450Y0184236D01*
X0024450Y0181767D01*
X0025068Y0181150D01*
X0026302Y0181150D01*
X0026919Y0181767D01*
X0026734Y0190150D02*
X0025500Y0190150D01*
X0026117Y0190150D02*
X0026117Y0193853D01*
X0025500Y0193853D02*
X0026734Y0193853D01*
X0027955Y0193853D02*
X0030424Y0190150D01*
X0030424Y0193853D01*
X0027955Y0193853D02*
X0027955Y0190150D01*
X0024285Y0191384D02*
X0024285Y0193853D01*
X0021817Y0193853D02*
X0021817Y0191384D01*
X0023051Y0190150D01*
X0024285Y0191384D01*
X0023668Y0200150D02*
X0022434Y0200150D01*
X0021817Y0200767D01*
X0021817Y0203236D01*
X0022434Y0203853D01*
X0023668Y0203853D01*
X0024285Y0203236D01*
X0024285Y0202002D02*
X0023051Y0202002D01*
X0024285Y0202002D02*
X0024285Y0200767D01*
X0023668Y0200150D01*
X0025500Y0200150D02*
X0025500Y0203853D01*
X0027969Y0200150D01*
X0027969Y0203853D01*
X0029183Y0203853D02*
X0031035Y0203853D01*
X0031652Y0203236D01*
X0031652Y0200767D01*
X0031035Y0200150D01*
X0029183Y0200150D01*
X0029183Y0203853D01*
X0054813Y0184068D02*
X0058517Y0184068D01*
X0058517Y0185302D02*
X0058517Y0182833D01*
X0058517Y0181619D02*
X0057282Y0180384D01*
X0057282Y0181002D02*
X0057282Y0179150D01*
X0058517Y0179150D02*
X0054813Y0179150D01*
X0054813Y0181002D01*
X0055431Y0181619D01*
X0056665Y0181619D01*
X0057282Y0181002D01*
X0056048Y0182833D02*
X0054813Y0184068D01*
X0067813Y0192150D02*
X0067813Y0194002D01*
X0068431Y0194619D01*
X0069665Y0194619D01*
X0070282Y0194002D01*
X0070282Y0192150D01*
X0070282Y0193384D02*
X0071517Y0194619D01*
X0071517Y0195833D02*
X0069048Y0198302D01*
X0068431Y0198302D01*
X0067813Y0197685D01*
X0067813Y0196450D01*
X0068431Y0195833D01*
X0071517Y0195833D02*
X0071517Y0198302D01*
X0071517Y0192150D02*
X0067813Y0192150D01*
X0081813Y0192150D02*
X0081813Y0194002D01*
X0082431Y0194619D01*
X0083665Y0194619D01*
X0084282Y0194002D01*
X0084282Y0192150D01*
X0084282Y0193384D02*
X0085517Y0194619D01*
X0084899Y0195833D02*
X0085517Y0196450D01*
X0085517Y0197685D01*
X0084899Y0198302D01*
X0084282Y0198302D01*
X0083665Y0197685D01*
X0083665Y0197068D01*
X0083665Y0197685D02*
X0083048Y0198302D01*
X0082431Y0198302D01*
X0081813Y0197685D01*
X0081813Y0196450D01*
X0082431Y0195833D01*
X0081813Y0192150D02*
X0085517Y0192150D01*
X0094813Y0192150D02*
X0094813Y0194002D01*
X0095431Y0194619D01*
X0096665Y0194619D01*
X0097282Y0194002D01*
X0097282Y0192150D01*
X0097282Y0193384D02*
X0098517Y0194619D01*
X0096665Y0195833D02*
X0096665Y0198302D01*
X0094813Y0197685D02*
X0096665Y0195833D01*
X0098517Y0197685D02*
X0094813Y0197685D01*
X0094813Y0192150D02*
X0098517Y0192150D01*
X0105813Y0192150D02*
X0105813Y0194002D01*
X0106431Y0194619D01*
X0107665Y0194619D01*
X0108282Y0194002D01*
X0108282Y0192150D01*
X0108282Y0193384D02*
X0109517Y0194619D01*
X0108899Y0195833D02*
X0109517Y0196450D01*
X0109517Y0197685D01*
X0108899Y0198302D01*
X0107665Y0198302D01*
X0107048Y0197685D01*
X0107048Y0197068D01*
X0107665Y0195833D01*
X0105813Y0195833D01*
X0105813Y0198302D01*
X0105813Y0192150D02*
X0109517Y0192150D01*
X0124434Y0174853D02*
X0123817Y0174236D01*
X0123817Y0171767D01*
X0124434Y0171150D01*
X0125668Y0171150D01*
X0126285Y0171767D01*
X0127500Y0171767D02*
X0128117Y0171150D01*
X0129351Y0171150D01*
X0129969Y0171767D01*
X0129969Y0172384D01*
X0129351Y0173002D01*
X0128734Y0173002D01*
X0129351Y0173002D02*
X0129969Y0173619D01*
X0129969Y0174236D01*
X0129351Y0174853D01*
X0128117Y0174853D01*
X0127500Y0174236D01*
X0126285Y0174236D02*
X0125668Y0174853D01*
X0124434Y0174853D01*
X0151051Y0187150D02*
X0151051Y0190853D01*
X0149817Y0190853D02*
X0152285Y0190853D01*
X0153500Y0190853D02*
X0154734Y0190853D01*
X0154117Y0190853D02*
X0154117Y0187150D01*
X0153500Y0187150D02*
X0154734Y0187150D01*
X0155955Y0187150D02*
X0155955Y0190853D01*
X0158424Y0187150D01*
X0158424Y0190853D01*
X0159638Y0190853D02*
X0159638Y0190236D01*
X0160873Y0189002D01*
X0160873Y0187150D01*
X0160873Y0189002D02*
X0162107Y0190236D01*
X0162107Y0190853D01*
X0163322Y0189002D02*
X0165790Y0189002D01*
X0167005Y0189619D02*
X0167005Y0190236D01*
X0167622Y0190853D01*
X0168856Y0190853D01*
X0169473Y0190236D01*
X0169473Y0189619D01*
X0168856Y0189002D01*
X0167622Y0189002D01*
X0167005Y0189619D01*
X0167622Y0189002D02*
X0167005Y0188384D01*
X0167005Y0187767D01*
X0167622Y0187150D01*
X0168856Y0187150D01*
X0169473Y0187767D01*
X0169473Y0188384D01*
X0168856Y0189002D01*
X0170688Y0189002D02*
X0170688Y0190853D01*
X0173157Y0190853D01*
X0172539Y0189619D02*
X0171922Y0189619D01*
X0170688Y0189002D01*
X0170688Y0187767D02*
X0171305Y0187150D01*
X0172539Y0187150D01*
X0173157Y0187767D01*
X0173157Y0189002D01*
X0172539Y0189619D01*
X0170701Y0146853D02*
X0168232Y0146853D01*
X0167018Y0146236D02*
X0167018Y0143767D01*
X0166401Y0143150D01*
X0165166Y0143150D01*
X0164549Y0143767D01*
X0167018Y0146236D01*
X0166401Y0146853D01*
X0165166Y0146853D01*
X0164549Y0146236D01*
X0164549Y0143767D01*
X0163335Y0143767D02*
X0162718Y0143150D01*
X0161483Y0143150D01*
X0160866Y0143767D01*
X0159652Y0143150D02*
X0157183Y0143150D01*
X0158417Y0143150D02*
X0158417Y0146853D01*
X0157183Y0145619D01*
X0155969Y0146236D02*
X0155351Y0146853D01*
X0154117Y0146853D01*
X0153500Y0146236D01*
X0153500Y0145619D01*
X0154117Y0145002D01*
X0155351Y0145002D01*
X0155969Y0144384D01*
X0155969Y0143767D01*
X0155351Y0143150D01*
X0154117Y0143150D01*
X0153500Y0143767D01*
X0152285Y0143767D02*
X0152285Y0146236D01*
X0151668Y0146853D01*
X0149817Y0146853D01*
X0149817Y0143150D01*
X0151668Y0143150D01*
X0152285Y0143767D01*
X0160866Y0146236D02*
X0161483Y0146853D01*
X0162718Y0146853D01*
X0163335Y0146236D01*
X0163335Y0145619D01*
X0162718Y0145002D01*
X0163335Y0144384D01*
X0163335Y0143767D01*
X0162718Y0145002D02*
X0162100Y0145002D01*
X0168232Y0143767D02*
X0168232Y0143150D01*
X0168232Y0143767D02*
X0170701Y0146236D01*
X0170701Y0146853D01*
X0109517Y0142685D02*
X0108899Y0143302D01*
X0108282Y0143302D01*
X0107665Y0142685D01*
X0107665Y0140833D01*
X0108899Y0140833D01*
X0109517Y0141450D01*
X0109517Y0142685D01*
X0107665Y0140833D02*
X0106431Y0142068D01*
X0105813Y0143302D01*
X0106431Y0139619D02*
X0105813Y0139002D01*
X0105813Y0137150D01*
X0109517Y0137150D01*
X0108282Y0137150D02*
X0108282Y0139002D01*
X0107665Y0139619D01*
X0106431Y0139619D01*
X0108282Y0138384D02*
X0109517Y0139619D01*
D13*
X0122850Y0181920D02*
X0123390Y0181920D01*
X0123389Y0181919D02*
X0123393Y0181839D01*
X0123400Y0181758D01*
X0123410Y0181679D01*
X0123425Y0181599D01*
X0123443Y0181521D01*
X0123465Y0181443D01*
X0123490Y0181367D01*
X0123519Y0181292D01*
X0123551Y0181218D01*
X0123587Y0181146D01*
X0123626Y0181075D01*
X0123668Y0181007D01*
X0123713Y0180940D01*
X0123762Y0180876D01*
X0123813Y0180814D01*
X0123868Y0180755D01*
X0123925Y0180698D01*
X0123984Y0180643D01*
X0124046Y0180592D01*
X0124110Y0180543D01*
X0124177Y0180498D01*
X0124245Y0180456D01*
X0124316Y0180417D01*
X0124388Y0180381D01*
X0124462Y0180349D01*
X0124537Y0180320D01*
X0124613Y0180295D01*
X0124691Y0180273D01*
X0124769Y0180255D01*
X0124849Y0180240D01*
X0124928Y0180230D01*
X0125009Y0180223D01*
X0125089Y0180219D01*
X0125090Y0179680D01*
X0125089Y0179679D01*
X0124994Y0179682D01*
X0124900Y0179690D01*
X0124806Y0179701D01*
X0124712Y0179716D01*
X0124619Y0179735D01*
X0124527Y0179757D01*
X0124436Y0179784D01*
X0124347Y0179814D01*
X0124258Y0179848D01*
X0124171Y0179886D01*
X0124086Y0179928D01*
X0124003Y0179972D01*
X0123921Y0180021D01*
X0123842Y0180072D01*
X0123765Y0180127D01*
X0123690Y0180185D01*
X0123617Y0180247D01*
X0123548Y0180311D01*
X0123481Y0180378D01*
X0123417Y0180447D01*
X0123355Y0180520D01*
X0123297Y0180595D01*
X0123242Y0180672D01*
X0123191Y0180751D01*
X0123142Y0180833D01*
X0123098Y0180916D01*
X0123056Y0181001D01*
X0123018Y0181088D01*
X0122984Y0181177D01*
X0122954Y0181266D01*
X0122927Y0181357D01*
X0122905Y0181449D01*
X0122886Y0181542D01*
X0122871Y0181636D01*
X0122860Y0181730D01*
X0122852Y0181824D01*
X0122849Y0181919D01*
X0122905Y0181919D01*
X0122908Y0181827D01*
X0122915Y0181735D01*
X0122926Y0181643D01*
X0122941Y0181552D01*
X0122959Y0181461D01*
X0122982Y0181372D01*
X0123008Y0181283D01*
X0123037Y0181195D01*
X0123070Y0181109D01*
X0123107Y0181025D01*
X0123148Y0180941D01*
X0123191Y0180860D01*
X0123238Y0180781D01*
X0123289Y0180703D01*
X0123342Y0180628D01*
X0123399Y0180555D01*
X0123459Y0180484D01*
X0123521Y0180416D01*
X0123586Y0180351D01*
X0123654Y0180289D01*
X0123725Y0180229D01*
X0123798Y0180172D01*
X0123873Y0180119D01*
X0123951Y0180068D01*
X0124030Y0180021D01*
X0124111Y0179978D01*
X0124195Y0179937D01*
X0124279Y0179900D01*
X0124365Y0179867D01*
X0124453Y0179838D01*
X0124542Y0179812D01*
X0124631Y0179789D01*
X0124722Y0179771D01*
X0124813Y0179756D01*
X0124905Y0179745D01*
X0124997Y0179738D01*
X0125089Y0179735D01*
X0125089Y0179791D01*
X0124997Y0179794D01*
X0124904Y0179802D01*
X0124813Y0179813D01*
X0124721Y0179828D01*
X0124631Y0179847D01*
X0124541Y0179870D01*
X0124453Y0179896D01*
X0124365Y0179927D01*
X0124279Y0179961D01*
X0124195Y0179999D01*
X0124112Y0180040D01*
X0124031Y0180085D01*
X0123952Y0180133D01*
X0123876Y0180185D01*
X0123801Y0180240D01*
X0123729Y0180298D01*
X0123660Y0180359D01*
X0123593Y0180423D01*
X0123529Y0180490D01*
X0123468Y0180559D01*
X0123410Y0180631D01*
X0123355Y0180706D01*
X0123303Y0180782D01*
X0123255Y0180861D01*
X0123210Y0180942D01*
X0123169Y0181025D01*
X0123131Y0181109D01*
X0123097Y0181195D01*
X0123066Y0181283D01*
X0123040Y0181371D01*
X0123017Y0181461D01*
X0122998Y0181551D01*
X0122983Y0181643D01*
X0122972Y0181734D01*
X0122964Y0181827D01*
X0122961Y0181919D01*
X0123017Y0181919D01*
X0123020Y0181829D01*
X0123027Y0181739D01*
X0123038Y0181650D01*
X0123053Y0181561D01*
X0123072Y0181473D01*
X0123094Y0181386D01*
X0123120Y0181299D01*
X0123150Y0181214D01*
X0123183Y0181131D01*
X0123220Y0181049D01*
X0123260Y0180968D01*
X0123304Y0180889D01*
X0123351Y0180813D01*
X0123401Y0180738D01*
X0123454Y0180665D01*
X0123511Y0180595D01*
X0123570Y0180528D01*
X0123633Y0180463D01*
X0123698Y0180400D01*
X0123765Y0180341D01*
X0123835Y0180284D01*
X0123908Y0180231D01*
X0123983Y0180181D01*
X0124059Y0180134D01*
X0124138Y0180090D01*
X0124219Y0180050D01*
X0124301Y0180013D01*
X0124384Y0179980D01*
X0124469Y0179950D01*
X0124556Y0179924D01*
X0124643Y0179902D01*
X0124731Y0179883D01*
X0124820Y0179868D01*
X0124909Y0179857D01*
X0124999Y0179850D01*
X0125089Y0179847D01*
X0125089Y0179903D01*
X0125001Y0179906D01*
X0124914Y0179913D01*
X0124827Y0179924D01*
X0124741Y0179938D01*
X0124655Y0179956D01*
X0124570Y0179978D01*
X0124486Y0180003D01*
X0124404Y0180032D01*
X0124322Y0180065D01*
X0124242Y0180100D01*
X0124164Y0180140D01*
X0124087Y0180182D01*
X0124013Y0180228D01*
X0123940Y0180277D01*
X0123870Y0180329D01*
X0123801Y0180384D01*
X0123736Y0180442D01*
X0123672Y0180502D01*
X0123612Y0180566D01*
X0123554Y0180631D01*
X0123499Y0180700D01*
X0123447Y0180770D01*
X0123398Y0180843D01*
X0123352Y0180917D01*
X0123310Y0180994D01*
X0123270Y0181072D01*
X0123235Y0181152D01*
X0123202Y0181234D01*
X0123173Y0181316D01*
X0123148Y0181400D01*
X0123126Y0181485D01*
X0123108Y0181571D01*
X0123094Y0181657D01*
X0123083Y0181744D01*
X0123076Y0181831D01*
X0123073Y0181919D01*
X0123129Y0181919D01*
X0123132Y0181831D01*
X0123140Y0181744D01*
X0123151Y0181657D01*
X0123165Y0181571D01*
X0123184Y0181485D01*
X0123206Y0181401D01*
X0123232Y0181317D01*
X0123262Y0181235D01*
X0123295Y0181154D01*
X0123332Y0181074D01*
X0123372Y0180996D01*
X0123416Y0180920D01*
X0123462Y0180846D01*
X0123513Y0180774D01*
X0123566Y0180705D01*
X0123622Y0180638D01*
X0123681Y0180573D01*
X0123743Y0180511D01*
X0123808Y0180452D01*
X0123875Y0180396D01*
X0123944Y0180343D01*
X0124016Y0180292D01*
X0124090Y0180246D01*
X0124166Y0180202D01*
X0124244Y0180162D01*
X0124324Y0180125D01*
X0124405Y0180092D01*
X0124487Y0180062D01*
X0124571Y0180036D01*
X0124655Y0180014D01*
X0124741Y0179995D01*
X0124827Y0179981D01*
X0124914Y0179970D01*
X0125001Y0179962D01*
X0125089Y0179959D01*
X0125089Y0180015D01*
X0125004Y0180018D01*
X0124919Y0180025D01*
X0124835Y0180036D01*
X0124751Y0180050D01*
X0124668Y0180068D01*
X0124586Y0180090D01*
X0124504Y0180115D01*
X0124424Y0180144D01*
X0124346Y0180176D01*
X0124268Y0180212D01*
X0124193Y0180251D01*
X0124119Y0180294D01*
X0124047Y0180339D01*
X0123977Y0180388D01*
X0123910Y0180440D01*
X0123845Y0180494D01*
X0123782Y0180552D01*
X0123722Y0180612D01*
X0123664Y0180675D01*
X0123610Y0180740D01*
X0123558Y0180807D01*
X0123509Y0180877D01*
X0123464Y0180949D01*
X0123421Y0181023D01*
X0123382Y0181098D01*
X0123346Y0181176D01*
X0123314Y0181254D01*
X0123285Y0181334D01*
X0123260Y0181416D01*
X0123238Y0181498D01*
X0123220Y0181581D01*
X0123206Y0181665D01*
X0123195Y0181749D01*
X0123188Y0181834D01*
X0123185Y0181919D01*
X0123241Y0181919D01*
X0123245Y0181834D01*
X0123252Y0181749D01*
X0123263Y0181665D01*
X0123277Y0181581D01*
X0123296Y0181498D01*
X0123318Y0181416D01*
X0123344Y0181335D01*
X0123374Y0181256D01*
X0123407Y0181178D01*
X0123443Y0181101D01*
X0123484Y0181026D01*
X0123527Y0180953D01*
X0123574Y0180882D01*
X0123624Y0180813D01*
X0123676Y0180747D01*
X0123732Y0180682D01*
X0123791Y0180621D01*
X0123852Y0180562D01*
X0123917Y0180506D01*
X0123983Y0180454D01*
X0124052Y0180404D01*
X0124123Y0180357D01*
X0124196Y0180314D01*
X0124271Y0180273D01*
X0124348Y0180237D01*
X0124426Y0180204D01*
X0124505Y0180174D01*
X0124586Y0180148D01*
X0124668Y0180126D01*
X0124751Y0180107D01*
X0124835Y0180093D01*
X0124919Y0180082D01*
X0125004Y0180075D01*
X0125089Y0180071D01*
X0125089Y0180127D01*
X0125007Y0180130D01*
X0124925Y0180137D01*
X0124843Y0180148D01*
X0124762Y0180162D01*
X0124681Y0180180D01*
X0124602Y0180202D01*
X0124523Y0180227D01*
X0124446Y0180256D01*
X0124370Y0180288D01*
X0124296Y0180324D01*
X0124223Y0180362D01*
X0124152Y0180405D01*
X0124084Y0180450D01*
X0124017Y0180498D01*
X0123952Y0180550D01*
X0123890Y0180604D01*
X0123831Y0180661D01*
X0123774Y0180720D01*
X0123720Y0180782D01*
X0123668Y0180847D01*
X0123620Y0180914D01*
X0123575Y0180982D01*
X0123532Y0181053D01*
X0123494Y0181126D01*
X0123458Y0181200D01*
X0123426Y0181276D01*
X0123397Y0181353D01*
X0123372Y0181432D01*
X0123350Y0181511D01*
X0123332Y0181592D01*
X0123318Y0181673D01*
X0123307Y0181755D01*
X0123300Y0181837D01*
X0123297Y0181919D01*
X0123353Y0181919D01*
X0123357Y0181837D01*
X0123364Y0181755D01*
X0123375Y0181673D01*
X0123389Y0181592D01*
X0123408Y0181512D01*
X0123430Y0181433D01*
X0123456Y0181355D01*
X0123485Y0181278D01*
X0123518Y0181203D01*
X0123555Y0181129D01*
X0123595Y0181057D01*
X0123638Y0180987D01*
X0123684Y0180919D01*
X0123734Y0180854D01*
X0123786Y0180790D01*
X0123842Y0180730D01*
X0123900Y0180672D01*
X0123960Y0180616D01*
X0124024Y0180564D01*
X0124089Y0180514D01*
X0124157Y0180468D01*
X0124227Y0180425D01*
X0124299Y0180385D01*
X0124373Y0180348D01*
X0124448Y0180315D01*
X0124525Y0180286D01*
X0124603Y0180260D01*
X0124682Y0180238D01*
X0124762Y0180219D01*
X0124843Y0180205D01*
X0124925Y0180194D01*
X0125007Y0180187D01*
X0125089Y0180183D01*
X0130148Y0179680D02*
X0130148Y0180220D01*
X0130149Y0180219D02*
X0130229Y0180223D01*
X0130310Y0180230D01*
X0130389Y0180240D01*
X0130469Y0180255D01*
X0130547Y0180273D01*
X0130625Y0180295D01*
X0130701Y0180320D01*
X0130776Y0180349D01*
X0130850Y0180381D01*
X0130922Y0180417D01*
X0130993Y0180456D01*
X0131061Y0180498D01*
X0131128Y0180543D01*
X0131192Y0180592D01*
X0131254Y0180643D01*
X0131313Y0180698D01*
X0131370Y0180755D01*
X0131425Y0180814D01*
X0131476Y0180876D01*
X0131525Y0180940D01*
X0131570Y0181007D01*
X0131612Y0181075D01*
X0131651Y0181146D01*
X0131687Y0181218D01*
X0131719Y0181292D01*
X0131748Y0181367D01*
X0131773Y0181443D01*
X0131795Y0181521D01*
X0131813Y0181599D01*
X0131828Y0181679D01*
X0131838Y0181758D01*
X0131845Y0181839D01*
X0131849Y0181919D01*
X0132388Y0181920D01*
X0132389Y0181919D01*
X0132386Y0181824D01*
X0132378Y0181730D01*
X0132367Y0181636D01*
X0132352Y0181542D01*
X0132333Y0181449D01*
X0132311Y0181357D01*
X0132284Y0181266D01*
X0132254Y0181177D01*
X0132220Y0181088D01*
X0132182Y0181001D01*
X0132140Y0180916D01*
X0132096Y0180833D01*
X0132047Y0180751D01*
X0131996Y0180672D01*
X0131941Y0180595D01*
X0131883Y0180520D01*
X0131821Y0180447D01*
X0131757Y0180378D01*
X0131690Y0180311D01*
X0131621Y0180247D01*
X0131548Y0180185D01*
X0131473Y0180127D01*
X0131396Y0180072D01*
X0131317Y0180021D01*
X0131235Y0179972D01*
X0131152Y0179928D01*
X0131067Y0179886D01*
X0130980Y0179848D01*
X0130891Y0179814D01*
X0130802Y0179784D01*
X0130711Y0179757D01*
X0130619Y0179735D01*
X0130526Y0179716D01*
X0130432Y0179701D01*
X0130338Y0179690D01*
X0130244Y0179682D01*
X0130149Y0179679D01*
X0130149Y0179735D01*
X0130241Y0179738D01*
X0130333Y0179745D01*
X0130425Y0179756D01*
X0130516Y0179771D01*
X0130607Y0179789D01*
X0130696Y0179812D01*
X0130785Y0179838D01*
X0130873Y0179867D01*
X0130959Y0179900D01*
X0131043Y0179937D01*
X0131127Y0179978D01*
X0131208Y0180021D01*
X0131287Y0180068D01*
X0131365Y0180119D01*
X0131440Y0180172D01*
X0131513Y0180229D01*
X0131584Y0180289D01*
X0131652Y0180351D01*
X0131717Y0180416D01*
X0131779Y0180484D01*
X0131839Y0180555D01*
X0131896Y0180628D01*
X0131949Y0180703D01*
X0132000Y0180781D01*
X0132047Y0180860D01*
X0132090Y0180941D01*
X0132131Y0181025D01*
X0132168Y0181109D01*
X0132201Y0181195D01*
X0132230Y0181283D01*
X0132256Y0181372D01*
X0132279Y0181461D01*
X0132297Y0181552D01*
X0132312Y0181643D01*
X0132323Y0181735D01*
X0132330Y0181827D01*
X0132333Y0181919D01*
X0132277Y0181919D01*
X0132274Y0181827D01*
X0132266Y0181734D01*
X0132255Y0181643D01*
X0132240Y0181551D01*
X0132221Y0181461D01*
X0132198Y0181371D01*
X0132172Y0181283D01*
X0132141Y0181195D01*
X0132107Y0181109D01*
X0132069Y0181025D01*
X0132028Y0180942D01*
X0131983Y0180861D01*
X0131935Y0180782D01*
X0131883Y0180706D01*
X0131828Y0180631D01*
X0131770Y0180559D01*
X0131709Y0180490D01*
X0131645Y0180423D01*
X0131578Y0180359D01*
X0131509Y0180298D01*
X0131437Y0180240D01*
X0131362Y0180185D01*
X0131286Y0180133D01*
X0131207Y0180085D01*
X0131126Y0180040D01*
X0131043Y0179999D01*
X0130959Y0179961D01*
X0130873Y0179927D01*
X0130785Y0179896D01*
X0130697Y0179870D01*
X0130607Y0179847D01*
X0130517Y0179828D01*
X0130425Y0179813D01*
X0130334Y0179802D01*
X0130241Y0179794D01*
X0130149Y0179791D01*
X0130149Y0179847D01*
X0130239Y0179850D01*
X0130329Y0179857D01*
X0130418Y0179868D01*
X0130507Y0179883D01*
X0130595Y0179902D01*
X0130682Y0179924D01*
X0130769Y0179950D01*
X0130854Y0179980D01*
X0130937Y0180013D01*
X0131019Y0180050D01*
X0131100Y0180090D01*
X0131179Y0180134D01*
X0131255Y0180181D01*
X0131330Y0180231D01*
X0131403Y0180284D01*
X0131473Y0180341D01*
X0131540Y0180400D01*
X0131605Y0180463D01*
X0131668Y0180528D01*
X0131727Y0180595D01*
X0131784Y0180665D01*
X0131837Y0180738D01*
X0131887Y0180813D01*
X0131934Y0180889D01*
X0131978Y0180968D01*
X0132018Y0181049D01*
X0132055Y0181131D01*
X0132088Y0181214D01*
X0132118Y0181299D01*
X0132144Y0181386D01*
X0132166Y0181473D01*
X0132185Y0181561D01*
X0132200Y0181650D01*
X0132211Y0181739D01*
X0132218Y0181829D01*
X0132221Y0181919D01*
X0132165Y0181919D01*
X0132162Y0181831D01*
X0132155Y0181744D01*
X0132144Y0181657D01*
X0132130Y0181571D01*
X0132112Y0181485D01*
X0132090Y0181400D01*
X0132065Y0181316D01*
X0132036Y0181234D01*
X0132003Y0181152D01*
X0131968Y0181072D01*
X0131928Y0180994D01*
X0131886Y0180917D01*
X0131840Y0180843D01*
X0131791Y0180770D01*
X0131739Y0180700D01*
X0131684Y0180631D01*
X0131626Y0180566D01*
X0131566Y0180502D01*
X0131502Y0180442D01*
X0131437Y0180384D01*
X0131368Y0180329D01*
X0131298Y0180277D01*
X0131225Y0180228D01*
X0131151Y0180182D01*
X0131074Y0180140D01*
X0130996Y0180100D01*
X0130916Y0180065D01*
X0130834Y0180032D01*
X0130752Y0180003D01*
X0130668Y0179978D01*
X0130583Y0179956D01*
X0130497Y0179938D01*
X0130411Y0179924D01*
X0130324Y0179913D01*
X0130237Y0179906D01*
X0130149Y0179903D01*
X0130149Y0179959D01*
X0130237Y0179962D01*
X0130324Y0179970D01*
X0130411Y0179981D01*
X0130497Y0179995D01*
X0130583Y0180014D01*
X0130667Y0180036D01*
X0130751Y0180062D01*
X0130833Y0180092D01*
X0130914Y0180125D01*
X0130994Y0180162D01*
X0131072Y0180202D01*
X0131148Y0180246D01*
X0131222Y0180292D01*
X0131294Y0180343D01*
X0131363Y0180396D01*
X0131430Y0180452D01*
X0131495Y0180511D01*
X0131557Y0180573D01*
X0131616Y0180638D01*
X0131672Y0180705D01*
X0131725Y0180774D01*
X0131776Y0180846D01*
X0131822Y0180920D01*
X0131866Y0180996D01*
X0131906Y0181074D01*
X0131943Y0181154D01*
X0131976Y0181235D01*
X0132006Y0181317D01*
X0132032Y0181401D01*
X0132054Y0181485D01*
X0132073Y0181571D01*
X0132087Y0181657D01*
X0132098Y0181744D01*
X0132106Y0181831D01*
X0132109Y0181919D01*
X0132053Y0181919D01*
X0132050Y0181834D01*
X0132043Y0181749D01*
X0132032Y0181665D01*
X0132018Y0181581D01*
X0132000Y0181498D01*
X0131978Y0181416D01*
X0131953Y0181334D01*
X0131924Y0181254D01*
X0131892Y0181176D01*
X0131856Y0181098D01*
X0131817Y0181023D01*
X0131774Y0180949D01*
X0131729Y0180877D01*
X0131680Y0180807D01*
X0131628Y0180740D01*
X0131574Y0180675D01*
X0131516Y0180612D01*
X0131456Y0180552D01*
X0131393Y0180494D01*
X0131328Y0180440D01*
X0131261Y0180388D01*
X0131191Y0180339D01*
X0131119Y0180294D01*
X0131045Y0180251D01*
X0130970Y0180212D01*
X0130892Y0180176D01*
X0130814Y0180144D01*
X0130734Y0180115D01*
X0130652Y0180090D01*
X0130570Y0180068D01*
X0130487Y0180050D01*
X0130403Y0180036D01*
X0130319Y0180025D01*
X0130234Y0180018D01*
X0130149Y0180015D01*
X0130149Y0180071D01*
X0130234Y0180075D01*
X0130319Y0180082D01*
X0130403Y0180093D01*
X0130487Y0180107D01*
X0130570Y0180126D01*
X0130652Y0180148D01*
X0130733Y0180174D01*
X0130812Y0180204D01*
X0130890Y0180237D01*
X0130967Y0180273D01*
X0131042Y0180314D01*
X0131115Y0180357D01*
X0131186Y0180404D01*
X0131255Y0180454D01*
X0131321Y0180506D01*
X0131386Y0180562D01*
X0131447Y0180621D01*
X0131506Y0180682D01*
X0131562Y0180747D01*
X0131614Y0180813D01*
X0131664Y0180882D01*
X0131711Y0180953D01*
X0131754Y0181026D01*
X0131795Y0181101D01*
X0131831Y0181178D01*
X0131864Y0181256D01*
X0131894Y0181335D01*
X0131920Y0181416D01*
X0131942Y0181498D01*
X0131961Y0181581D01*
X0131975Y0181665D01*
X0131986Y0181749D01*
X0131993Y0181834D01*
X0131997Y0181919D01*
X0131941Y0181919D01*
X0131938Y0181837D01*
X0131931Y0181755D01*
X0131920Y0181673D01*
X0131906Y0181592D01*
X0131888Y0181511D01*
X0131866Y0181432D01*
X0131841Y0181353D01*
X0131812Y0181276D01*
X0131780Y0181200D01*
X0131744Y0181126D01*
X0131706Y0181053D01*
X0131663Y0180982D01*
X0131618Y0180914D01*
X0131570Y0180847D01*
X0131518Y0180782D01*
X0131464Y0180720D01*
X0131407Y0180661D01*
X0131348Y0180604D01*
X0131286Y0180550D01*
X0131221Y0180498D01*
X0131154Y0180450D01*
X0131086Y0180405D01*
X0131015Y0180362D01*
X0130942Y0180324D01*
X0130868Y0180288D01*
X0130792Y0180256D01*
X0130715Y0180227D01*
X0130636Y0180202D01*
X0130557Y0180180D01*
X0130476Y0180162D01*
X0130395Y0180148D01*
X0130313Y0180137D01*
X0130231Y0180130D01*
X0130149Y0180127D01*
X0130149Y0180183D01*
X0130231Y0180187D01*
X0130313Y0180194D01*
X0130395Y0180205D01*
X0130476Y0180219D01*
X0130556Y0180238D01*
X0130635Y0180260D01*
X0130713Y0180286D01*
X0130790Y0180315D01*
X0130865Y0180348D01*
X0130939Y0180385D01*
X0131011Y0180425D01*
X0131081Y0180468D01*
X0131149Y0180514D01*
X0131214Y0180564D01*
X0131278Y0180616D01*
X0131338Y0180672D01*
X0131396Y0180730D01*
X0131452Y0180790D01*
X0131504Y0180854D01*
X0131554Y0180919D01*
X0131600Y0180987D01*
X0131643Y0181057D01*
X0131683Y0181129D01*
X0131720Y0181203D01*
X0131753Y0181278D01*
X0131782Y0181355D01*
X0131808Y0181433D01*
X0131830Y0181512D01*
X0131849Y0181592D01*
X0131863Y0181673D01*
X0131874Y0181755D01*
X0131881Y0181837D01*
X0131885Y0181919D01*
X0132388Y0194978D02*
X0131848Y0194978D01*
X0131849Y0194979D02*
X0131845Y0195059D01*
X0131838Y0195140D01*
X0131828Y0195219D01*
X0131813Y0195299D01*
X0131795Y0195377D01*
X0131773Y0195455D01*
X0131748Y0195531D01*
X0131719Y0195606D01*
X0131687Y0195680D01*
X0131651Y0195752D01*
X0131612Y0195823D01*
X0131570Y0195891D01*
X0131525Y0195958D01*
X0131476Y0196022D01*
X0131425Y0196084D01*
X0131370Y0196143D01*
X0131313Y0196200D01*
X0131254Y0196255D01*
X0131192Y0196306D01*
X0131128Y0196355D01*
X0131061Y0196400D01*
X0130993Y0196442D01*
X0130922Y0196481D01*
X0130850Y0196517D01*
X0130776Y0196549D01*
X0130701Y0196578D01*
X0130625Y0196603D01*
X0130547Y0196625D01*
X0130469Y0196643D01*
X0130389Y0196658D01*
X0130310Y0196668D01*
X0130229Y0196675D01*
X0130149Y0196679D01*
X0130148Y0197218D01*
X0130149Y0197219D01*
X0130244Y0197216D01*
X0130338Y0197208D01*
X0130432Y0197197D01*
X0130526Y0197182D01*
X0130619Y0197163D01*
X0130711Y0197141D01*
X0130802Y0197114D01*
X0130891Y0197084D01*
X0130980Y0197050D01*
X0131067Y0197012D01*
X0131152Y0196970D01*
X0131235Y0196926D01*
X0131317Y0196877D01*
X0131396Y0196826D01*
X0131473Y0196771D01*
X0131548Y0196713D01*
X0131621Y0196651D01*
X0131690Y0196587D01*
X0131757Y0196520D01*
X0131821Y0196451D01*
X0131883Y0196378D01*
X0131941Y0196303D01*
X0131996Y0196226D01*
X0132047Y0196147D01*
X0132096Y0196065D01*
X0132140Y0195982D01*
X0132182Y0195897D01*
X0132220Y0195810D01*
X0132254Y0195721D01*
X0132284Y0195632D01*
X0132311Y0195541D01*
X0132333Y0195449D01*
X0132352Y0195356D01*
X0132367Y0195262D01*
X0132378Y0195168D01*
X0132386Y0195074D01*
X0132389Y0194979D01*
X0132333Y0194979D01*
X0132330Y0195071D01*
X0132323Y0195163D01*
X0132312Y0195255D01*
X0132297Y0195346D01*
X0132279Y0195437D01*
X0132256Y0195526D01*
X0132230Y0195615D01*
X0132201Y0195703D01*
X0132168Y0195789D01*
X0132131Y0195873D01*
X0132090Y0195957D01*
X0132047Y0196038D01*
X0132000Y0196117D01*
X0131949Y0196195D01*
X0131896Y0196270D01*
X0131839Y0196343D01*
X0131779Y0196414D01*
X0131717Y0196482D01*
X0131652Y0196547D01*
X0131584Y0196609D01*
X0131513Y0196669D01*
X0131440Y0196726D01*
X0131365Y0196779D01*
X0131287Y0196830D01*
X0131208Y0196877D01*
X0131127Y0196920D01*
X0131043Y0196961D01*
X0130959Y0196998D01*
X0130873Y0197031D01*
X0130785Y0197060D01*
X0130696Y0197086D01*
X0130607Y0197109D01*
X0130516Y0197127D01*
X0130425Y0197142D01*
X0130333Y0197153D01*
X0130241Y0197160D01*
X0130149Y0197163D01*
X0130149Y0197107D01*
X0130241Y0197104D01*
X0130334Y0197096D01*
X0130425Y0197085D01*
X0130517Y0197070D01*
X0130607Y0197051D01*
X0130697Y0197028D01*
X0130785Y0197002D01*
X0130873Y0196971D01*
X0130959Y0196937D01*
X0131043Y0196899D01*
X0131126Y0196858D01*
X0131207Y0196813D01*
X0131286Y0196765D01*
X0131362Y0196713D01*
X0131437Y0196658D01*
X0131509Y0196600D01*
X0131578Y0196539D01*
X0131645Y0196475D01*
X0131709Y0196408D01*
X0131770Y0196339D01*
X0131828Y0196267D01*
X0131883Y0196192D01*
X0131935Y0196116D01*
X0131983Y0196037D01*
X0132028Y0195956D01*
X0132069Y0195873D01*
X0132107Y0195789D01*
X0132141Y0195703D01*
X0132172Y0195615D01*
X0132198Y0195527D01*
X0132221Y0195437D01*
X0132240Y0195347D01*
X0132255Y0195255D01*
X0132266Y0195164D01*
X0132274Y0195071D01*
X0132277Y0194979D01*
X0132221Y0194979D01*
X0132218Y0195069D01*
X0132211Y0195159D01*
X0132200Y0195248D01*
X0132185Y0195337D01*
X0132166Y0195425D01*
X0132144Y0195512D01*
X0132118Y0195599D01*
X0132088Y0195684D01*
X0132055Y0195767D01*
X0132018Y0195849D01*
X0131978Y0195930D01*
X0131934Y0196009D01*
X0131887Y0196085D01*
X0131837Y0196160D01*
X0131784Y0196233D01*
X0131727Y0196303D01*
X0131668Y0196370D01*
X0131605Y0196435D01*
X0131540Y0196498D01*
X0131473Y0196557D01*
X0131403Y0196614D01*
X0131330Y0196667D01*
X0131255Y0196717D01*
X0131179Y0196764D01*
X0131100Y0196808D01*
X0131019Y0196848D01*
X0130937Y0196885D01*
X0130854Y0196918D01*
X0130769Y0196948D01*
X0130682Y0196974D01*
X0130595Y0196996D01*
X0130507Y0197015D01*
X0130418Y0197030D01*
X0130329Y0197041D01*
X0130239Y0197048D01*
X0130149Y0197051D01*
X0130149Y0196995D01*
X0130237Y0196992D01*
X0130324Y0196985D01*
X0130411Y0196974D01*
X0130497Y0196960D01*
X0130583Y0196942D01*
X0130668Y0196920D01*
X0130752Y0196895D01*
X0130834Y0196866D01*
X0130916Y0196833D01*
X0130996Y0196798D01*
X0131074Y0196758D01*
X0131151Y0196716D01*
X0131225Y0196670D01*
X0131298Y0196621D01*
X0131368Y0196569D01*
X0131437Y0196514D01*
X0131502Y0196456D01*
X0131566Y0196396D01*
X0131626Y0196332D01*
X0131684Y0196267D01*
X0131739Y0196198D01*
X0131791Y0196128D01*
X0131840Y0196055D01*
X0131886Y0195981D01*
X0131928Y0195904D01*
X0131968Y0195826D01*
X0132003Y0195746D01*
X0132036Y0195664D01*
X0132065Y0195582D01*
X0132090Y0195498D01*
X0132112Y0195413D01*
X0132130Y0195327D01*
X0132144Y0195241D01*
X0132155Y0195154D01*
X0132162Y0195067D01*
X0132165Y0194979D01*
X0132109Y0194979D01*
X0132106Y0195067D01*
X0132098Y0195154D01*
X0132087Y0195241D01*
X0132073Y0195327D01*
X0132054Y0195413D01*
X0132032Y0195497D01*
X0132006Y0195581D01*
X0131976Y0195663D01*
X0131943Y0195744D01*
X0131906Y0195824D01*
X0131866Y0195902D01*
X0131822Y0195978D01*
X0131776Y0196052D01*
X0131725Y0196124D01*
X0131672Y0196193D01*
X0131616Y0196260D01*
X0131557Y0196325D01*
X0131495Y0196387D01*
X0131430Y0196446D01*
X0131363Y0196502D01*
X0131294Y0196555D01*
X0131222Y0196606D01*
X0131148Y0196652D01*
X0131072Y0196696D01*
X0130994Y0196736D01*
X0130914Y0196773D01*
X0130833Y0196806D01*
X0130751Y0196836D01*
X0130667Y0196862D01*
X0130583Y0196884D01*
X0130497Y0196903D01*
X0130411Y0196917D01*
X0130324Y0196928D01*
X0130237Y0196936D01*
X0130149Y0196939D01*
X0130149Y0196883D01*
X0130234Y0196880D01*
X0130319Y0196873D01*
X0130403Y0196862D01*
X0130487Y0196848D01*
X0130570Y0196830D01*
X0130652Y0196808D01*
X0130734Y0196783D01*
X0130814Y0196754D01*
X0130892Y0196722D01*
X0130970Y0196686D01*
X0131045Y0196647D01*
X0131119Y0196604D01*
X0131191Y0196559D01*
X0131261Y0196510D01*
X0131328Y0196458D01*
X0131393Y0196404D01*
X0131456Y0196346D01*
X0131516Y0196286D01*
X0131574Y0196223D01*
X0131628Y0196158D01*
X0131680Y0196091D01*
X0131729Y0196021D01*
X0131774Y0195949D01*
X0131817Y0195875D01*
X0131856Y0195800D01*
X0131892Y0195722D01*
X0131924Y0195644D01*
X0131953Y0195564D01*
X0131978Y0195482D01*
X0132000Y0195400D01*
X0132018Y0195317D01*
X0132032Y0195233D01*
X0132043Y0195149D01*
X0132050Y0195064D01*
X0132053Y0194979D01*
X0131997Y0194979D01*
X0131993Y0195064D01*
X0131986Y0195149D01*
X0131975Y0195233D01*
X0131961Y0195317D01*
X0131942Y0195400D01*
X0131920Y0195482D01*
X0131894Y0195563D01*
X0131864Y0195642D01*
X0131831Y0195720D01*
X0131795Y0195797D01*
X0131754Y0195872D01*
X0131711Y0195945D01*
X0131664Y0196016D01*
X0131614Y0196085D01*
X0131562Y0196151D01*
X0131506Y0196216D01*
X0131447Y0196277D01*
X0131386Y0196336D01*
X0131321Y0196392D01*
X0131255Y0196444D01*
X0131186Y0196494D01*
X0131115Y0196541D01*
X0131042Y0196584D01*
X0130967Y0196625D01*
X0130890Y0196661D01*
X0130812Y0196694D01*
X0130733Y0196724D01*
X0130652Y0196750D01*
X0130570Y0196772D01*
X0130487Y0196791D01*
X0130403Y0196805D01*
X0130319Y0196816D01*
X0130234Y0196823D01*
X0130149Y0196827D01*
X0130149Y0196771D01*
X0130231Y0196768D01*
X0130313Y0196761D01*
X0130395Y0196750D01*
X0130476Y0196736D01*
X0130557Y0196718D01*
X0130636Y0196696D01*
X0130715Y0196671D01*
X0130792Y0196642D01*
X0130868Y0196610D01*
X0130942Y0196574D01*
X0131015Y0196536D01*
X0131086Y0196493D01*
X0131154Y0196448D01*
X0131221Y0196400D01*
X0131286Y0196348D01*
X0131348Y0196294D01*
X0131407Y0196237D01*
X0131464Y0196178D01*
X0131518Y0196116D01*
X0131570Y0196051D01*
X0131618Y0195984D01*
X0131663Y0195916D01*
X0131706Y0195845D01*
X0131744Y0195772D01*
X0131780Y0195698D01*
X0131812Y0195622D01*
X0131841Y0195545D01*
X0131866Y0195466D01*
X0131888Y0195387D01*
X0131906Y0195306D01*
X0131920Y0195225D01*
X0131931Y0195143D01*
X0131938Y0195061D01*
X0131941Y0194979D01*
X0131885Y0194979D01*
X0131881Y0195061D01*
X0131874Y0195143D01*
X0131863Y0195225D01*
X0131849Y0195306D01*
X0131830Y0195386D01*
X0131808Y0195465D01*
X0131782Y0195543D01*
X0131753Y0195620D01*
X0131720Y0195695D01*
X0131683Y0195769D01*
X0131643Y0195841D01*
X0131600Y0195911D01*
X0131554Y0195979D01*
X0131504Y0196044D01*
X0131452Y0196108D01*
X0131396Y0196168D01*
X0131338Y0196226D01*
X0131278Y0196282D01*
X0131214Y0196334D01*
X0131149Y0196384D01*
X0131081Y0196430D01*
X0131011Y0196473D01*
X0130939Y0196513D01*
X0130865Y0196550D01*
X0130790Y0196583D01*
X0130713Y0196612D01*
X0130635Y0196638D01*
X0130556Y0196660D01*
X0130476Y0196679D01*
X0130395Y0196693D01*
X0130313Y0196704D01*
X0130231Y0196711D01*
X0130149Y0196715D01*
X0125090Y0197218D02*
X0125090Y0196678D01*
X0125089Y0196679D02*
X0125009Y0196675D01*
X0124928Y0196668D01*
X0124849Y0196658D01*
X0124769Y0196643D01*
X0124691Y0196625D01*
X0124613Y0196603D01*
X0124537Y0196578D01*
X0124462Y0196549D01*
X0124388Y0196517D01*
X0124316Y0196481D01*
X0124245Y0196442D01*
X0124177Y0196400D01*
X0124110Y0196355D01*
X0124046Y0196306D01*
X0123984Y0196255D01*
X0123925Y0196200D01*
X0123868Y0196143D01*
X0123813Y0196084D01*
X0123762Y0196022D01*
X0123713Y0195958D01*
X0123668Y0195891D01*
X0123626Y0195823D01*
X0123587Y0195752D01*
X0123551Y0195680D01*
X0123519Y0195606D01*
X0123490Y0195531D01*
X0123465Y0195455D01*
X0123443Y0195377D01*
X0123425Y0195299D01*
X0123410Y0195219D01*
X0123400Y0195140D01*
X0123393Y0195059D01*
X0123389Y0194979D01*
X0122850Y0194978D01*
X0122849Y0194979D01*
X0122852Y0195074D01*
X0122860Y0195168D01*
X0122871Y0195262D01*
X0122886Y0195356D01*
X0122905Y0195449D01*
X0122927Y0195541D01*
X0122954Y0195632D01*
X0122984Y0195721D01*
X0123018Y0195810D01*
X0123056Y0195897D01*
X0123098Y0195982D01*
X0123142Y0196065D01*
X0123191Y0196147D01*
X0123242Y0196226D01*
X0123297Y0196303D01*
X0123355Y0196378D01*
X0123417Y0196451D01*
X0123481Y0196520D01*
X0123548Y0196587D01*
X0123617Y0196651D01*
X0123690Y0196713D01*
X0123765Y0196771D01*
X0123842Y0196826D01*
X0123921Y0196877D01*
X0124003Y0196926D01*
X0124086Y0196970D01*
X0124171Y0197012D01*
X0124258Y0197050D01*
X0124347Y0197084D01*
X0124436Y0197114D01*
X0124527Y0197141D01*
X0124619Y0197163D01*
X0124712Y0197182D01*
X0124806Y0197197D01*
X0124900Y0197208D01*
X0124994Y0197216D01*
X0125089Y0197219D01*
X0125089Y0197163D01*
X0124997Y0197160D01*
X0124905Y0197153D01*
X0124813Y0197142D01*
X0124722Y0197127D01*
X0124631Y0197109D01*
X0124542Y0197086D01*
X0124453Y0197060D01*
X0124365Y0197031D01*
X0124279Y0196998D01*
X0124195Y0196961D01*
X0124111Y0196920D01*
X0124030Y0196877D01*
X0123951Y0196830D01*
X0123873Y0196779D01*
X0123798Y0196726D01*
X0123725Y0196669D01*
X0123654Y0196609D01*
X0123586Y0196547D01*
X0123521Y0196482D01*
X0123459Y0196414D01*
X0123399Y0196343D01*
X0123342Y0196270D01*
X0123289Y0196195D01*
X0123238Y0196117D01*
X0123191Y0196038D01*
X0123148Y0195957D01*
X0123107Y0195873D01*
X0123070Y0195789D01*
X0123037Y0195703D01*
X0123008Y0195615D01*
X0122982Y0195526D01*
X0122959Y0195437D01*
X0122941Y0195346D01*
X0122926Y0195255D01*
X0122915Y0195163D01*
X0122908Y0195071D01*
X0122905Y0194979D01*
X0122961Y0194979D01*
X0122964Y0195071D01*
X0122972Y0195164D01*
X0122983Y0195255D01*
X0122998Y0195347D01*
X0123017Y0195437D01*
X0123040Y0195527D01*
X0123066Y0195615D01*
X0123097Y0195703D01*
X0123131Y0195789D01*
X0123169Y0195873D01*
X0123210Y0195956D01*
X0123255Y0196037D01*
X0123303Y0196116D01*
X0123355Y0196192D01*
X0123410Y0196267D01*
X0123468Y0196339D01*
X0123529Y0196408D01*
X0123593Y0196475D01*
X0123660Y0196539D01*
X0123729Y0196600D01*
X0123801Y0196658D01*
X0123876Y0196713D01*
X0123952Y0196765D01*
X0124031Y0196813D01*
X0124112Y0196858D01*
X0124195Y0196899D01*
X0124279Y0196937D01*
X0124365Y0196971D01*
X0124453Y0197002D01*
X0124541Y0197028D01*
X0124631Y0197051D01*
X0124721Y0197070D01*
X0124813Y0197085D01*
X0124904Y0197096D01*
X0124997Y0197104D01*
X0125089Y0197107D01*
X0125089Y0197051D01*
X0124999Y0197048D01*
X0124909Y0197041D01*
X0124820Y0197030D01*
X0124731Y0197015D01*
X0124643Y0196996D01*
X0124556Y0196974D01*
X0124469Y0196948D01*
X0124384Y0196918D01*
X0124301Y0196885D01*
X0124219Y0196848D01*
X0124138Y0196808D01*
X0124059Y0196764D01*
X0123983Y0196717D01*
X0123908Y0196667D01*
X0123835Y0196614D01*
X0123765Y0196557D01*
X0123698Y0196498D01*
X0123633Y0196435D01*
X0123570Y0196370D01*
X0123511Y0196303D01*
X0123454Y0196233D01*
X0123401Y0196160D01*
X0123351Y0196085D01*
X0123304Y0196009D01*
X0123260Y0195930D01*
X0123220Y0195849D01*
X0123183Y0195767D01*
X0123150Y0195684D01*
X0123120Y0195599D01*
X0123094Y0195512D01*
X0123072Y0195425D01*
X0123053Y0195337D01*
X0123038Y0195248D01*
X0123027Y0195159D01*
X0123020Y0195069D01*
X0123017Y0194979D01*
X0123073Y0194979D01*
X0123076Y0195067D01*
X0123083Y0195154D01*
X0123094Y0195241D01*
X0123108Y0195327D01*
X0123126Y0195413D01*
X0123148Y0195498D01*
X0123173Y0195582D01*
X0123202Y0195664D01*
X0123235Y0195746D01*
X0123270Y0195826D01*
X0123310Y0195904D01*
X0123352Y0195981D01*
X0123398Y0196055D01*
X0123447Y0196128D01*
X0123499Y0196198D01*
X0123554Y0196267D01*
X0123612Y0196332D01*
X0123672Y0196396D01*
X0123736Y0196456D01*
X0123801Y0196514D01*
X0123870Y0196569D01*
X0123940Y0196621D01*
X0124013Y0196670D01*
X0124087Y0196716D01*
X0124164Y0196758D01*
X0124242Y0196798D01*
X0124322Y0196833D01*
X0124404Y0196866D01*
X0124486Y0196895D01*
X0124570Y0196920D01*
X0124655Y0196942D01*
X0124741Y0196960D01*
X0124827Y0196974D01*
X0124914Y0196985D01*
X0125001Y0196992D01*
X0125089Y0196995D01*
X0125089Y0196939D01*
X0125001Y0196936D01*
X0124914Y0196928D01*
X0124827Y0196917D01*
X0124741Y0196903D01*
X0124655Y0196884D01*
X0124571Y0196862D01*
X0124487Y0196836D01*
X0124405Y0196806D01*
X0124324Y0196773D01*
X0124244Y0196736D01*
X0124166Y0196696D01*
X0124090Y0196652D01*
X0124016Y0196606D01*
X0123944Y0196555D01*
X0123875Y0196502D01*
X0123808Y0196446D01*
X0123743Y0196387D01*
X0123681Y0196325D01*
X0123622Y0196260D01*
X0123566Y0196193D01*
X0123513Y0196124D01*
X0123462Y0196052D01*
X0123416Y0195978D01*
X0123372Y0195902D01*
X0123332Y0195824D01*
X0123295Y0195744D01*
X0123262Y0195663D01*
X0123232Y0195581D01*
X0123206Y0195497D01*
X0123184Y0195413D01*
X0123165Y0195327D01*
X0123151Y0195241D01*
X0123140Y0195154D01*
X0123132Y0195067D01*
X0123129Y0194979D01*
X0123185Y0194979D01*
X0123188Y0195064D01*
X0123195Y0195149D01*
X0123206Y0195233D01*
X0123220Y0195317D01*
X0123238Y0195400D01*
X0123260Y0195482D01*
X0123285Y0195564D01*
X0123314Y0195644D01*
X0123346Y0195722D01*
X0123382Y0195800D01*
X0123421Y0195875D01*
X0123464Y0195949D01*
X0123509Y0196021D01*
X0123558Y0196091D01*
X0123610Y0196158D01*
X0123664Y0196223D01*
X0123722Y0196286D01*
X0123782Y0196346D01*
X0123845Y0196404D01*
X0123910Y0196458D01*
X0123977Y0196510D01*
X0124047Y0196559D01*
X0124119Y0196604D01*
X0124193Y0196647D01*
X0124268Y0196686D01*
X0124346Y0196722D01*
X0124424Y0196754D01*
X0124504Y0196783D01*
X0124586Y0196808D01*
X0124668Y0196830D01*
X0124751Y0196848D01*
X0124835Y0196862D01*
X0124919Y0196873D01*
X0125004Y0196880D01*
X0125089Y0196883D01*
X0125089Y0196827D01*
X0125004Y0196823D01*
X0124919Y0196816D01*
X0124835Y0196805D01*
X0124751Y0196791D01*
X0124668Y0196772D01*
X0124586Y0196750D01*
X0124505Y0196724D01*
X0124426Y0196694D01*
X0124348Y0196661D01*
X0124271Y0196625D01*
X0124196Y0196584D01*
X0124123Y0196541D01*
X0124052Y0196494D01*
X0123983Y0196444D01*
X0123917Y0196392D01*
X0123852Y0196336D01*
X0123791Y0196277D01*
X0123732Y0196216D01*
X0123676Y0196151D01*
X0123624Y0196085D01*
X0123574Y0196016D01*
X0123527Y0195945D01*
X0123484Y0195872D01*
X0123443Y0195797D01*
X0123407Y0195720D01*
X0123374Y0195642D01*
X0123344Y0195563D01*
X0123318Y0195482D01*
X0123296Y0195400D01*
X0123277Y0195317D01*
X0123263Y0195233D01*
X0123252Y0195149D01*
X0123245Y0195064D01*
X0123241Y0194979D01*
X0123297Y0194979D01*
X0123300Y0195061D01*
X0123307Y0195143D01*
X0123318Y0195225D01*
X0123332Y0195306D01*
X0123350Y0195387D01*
X0123372Y0195466D01*
X0123397Y0195545D01*
X0123426Y0195622D01*
X0123458Y0195698D01*
X0123494Y0195772D01*
X0123532Y0195845D01*
X0123575Y0195916D01*
X0123620Y0195984D01*
X0123668Y0196051D01*
X0123720Y0196116D01*
X0123774Y0196178D01*
X0123831Y0196237D01*
X0123890Y0196294D01*
X0123952Y0196348D01*
X0124017Y0196400D01*
X0124084Y0196448D01*
X0124152Y0196493D01*
X0124223Y0196536D01*
X0124296Y0196574D01*
X0124370Y0196610D01*
X0124446Y0196642D01*
X0124523Y0196671D01*
X0124602Y0196696D01*
X0124681Y0196718D01*
X0124762Y0196736D01*
X0124843Y0196750D01*
X0124925Y0196761D01*
X0125007Y0196768D01*
X0125089Y0196771D01*
X0125089Y0196715D01*
X0125007Y0196711D01*
X0124925Y0196704D01*
X0124843Y0196693D01*
X0124762Y0196679D01*
X0124682Y0196660D01*
X0124603Y0196638D01*
X0124525Y0196612D01*
X0124448Y0196583D01*
X0124373Y0196550D01*
X0124299Y0196513D01*
X0124227Y0196473D01*
X0124157Y0196430D01*
X0124089Y0196384D01*
X0124024Y0196334D01*
X0123960Y0196282D01*
X0123900Y0196226D01*
X0123842Y0196168D01*
X0123786Y0196108D01*
X0123734Y0196044D01*
X0123684Y0195979D01*
X0123638Y0195911D01*
X0123595Y0195841D01*
X0123555Y0195769D01*
X0123518Y0195695D01*
X0123485Y0195620D01*
X0123456Y0195543D01*
X0123430Y0195465D01*
X0123408Y0195386D01*
X0123389Y0195306D01*
X0123375Y0195225D01*
X0123364Y0195143D01*
X0123357Y0195061D01*
X0123353Y0194979D01*
X0033436Y0156529D02*
X0032896Y0156529D01*
X0032897Y0156530D02*
X0032893Y0156610D01*
X0032886Y0156691D01*
X0032876Y0156770D01*
X0032861Y0156850D01*
X0032843Y0156928D01*
X0032821Y0157006D01*
X0032796Y0157082D01*
X0032767Y0157157D01*
X0032735Y0157231D01*
X0032699Y0157303D01*
X0032660Y0157374D01*
X0032618Y0157442D01*
X0032573Y0157509D01*
X0032524Y0157573D01*
X0032473Y0157635D01*
X0032418Y0157694D01*
X0032361Y0157751D01*
X0032302Y0157806D01*
X0032240Y0157857D01*
X0032176Y0157906D01*
X0032109Y0157951D01*
X0032041Y0157993D01*
X0031970Y0158032D01*
X0031898Y0158068D01*
X0031824Y0158100D01*
X0031749Y0158129D01*
X0031673Y0158154D01*
X0031595Y0158176D01*
X0031517Y0158194D01*
X0031437Y0158209D01*
X0031358Y0158219D01*
X0031277Y0158226D01*
X0031197Y0158230D01*
X0031196Y0158769D01*
X0031197Y0158770D01*
X0031292Y0158767D01*
X0031386Y0158759D01*
X0031480Y0158748D01*
X0031574Y0158733D01*
X0031667Y0158714D01*
X0031759Y0158692D01*
X0031850Y0158665D01*
X0031939Y0158635D01*
X0032028Y0158601D01*
X0032115Y0158563D01*
X0032200Y0158521D01*
X0032283Y0158477D01*
X0032365Y0158428D01*
X0032444Y0158377D01*
X0032521Y0158322D01*
X0032596Y0158264D01*
X0032669Y0158202D01*
X0032738Y0158138D01*
X0032805Y0158071D01*
X0032869Y0158002D01*
X0032931Y0157929D01*
X0032989Y0157854D01*
X0033044Y0157777D01*
X0033095Y0157698D01*
X0033144Y0157616D01*
X0033188Y0157533D01*
X0033230Y0157448D01*
X0033268Y0157361D01*
X0033302Y0157272D01*
X0033332Y0157183D01*
X0033359Y0157092D01*
X0033381Y0157000D01*
X0033400Y0156907D01*
X0033415Y0156813D01*
X0033426Y0156719D01*
X0033434Y0156625D01*
X0033437Y0156530D01*
X0033381Y0156530D01*
X0033378Y0156622D01*
X0033371Y0156714D01*
X0033360Y0156806D01*
X0033345Y0156897D01*
X0033327Y0156988D01*
X0033304Y0157077D01*
X0033278Y0157166D01*
X0033249Y0157254D01*
X0033216Y0157340D01*
X0033179Y0157424D01*
X0033138Y0157508D01*
X0033095Y0157589D01*
X0033048Y0157668D01*
X0032997Y0157746D01*
X0032944Y0157821D01*
X0032887Y0157894D01*
X0032827Y0157965D01*
X0032765Y0158033D01*
X0032700Y0158098D01*
X0032632Y0158160D01*
X0032561Y0158220D01*
X0032488Y0158277D01*
X0032413Y0158330D01*
X0032335Y0158381D01*
X0032256Y0158428D01*
X0032175Y0158471D01*
X0032091Y0158512D01*
X0032007Y0158549D01*
X0031921Y0158582D01*
X0031833Y0158611D01*
X0031744Y0158637D01*
X0031655Y0158660D01*
X0031564Y0158678D01*
X0031473Y0158693D01*
X0031381Y0158704D01*
X0031289Y0158711D01*
X0031197Y0158714D01*
X0031197Y0158658D01*
X0031289Y0158655D01*
X0031382Y0158647D01*
X0031473Y0158636D01*
X0031565Y0158621D01*
X0031655Y0158602D01*
X0031745Y0158579D01*
X0031833Y0158553D01*
X0031921Y0158522D01*
X0032007Y0158488D01*
X0032091Y0158450D01*
X0032174Y0158409D01*
X0032255Y0158364D01*
X0032334Y0158316D01*
X0032410Y0158264D01*
X0032485Y0158209D01*
X0032557Y0158151D01*
X0032626Y0158090D01*
X0032693Y0158026D01*
X0032757Y0157959D01*
X0032818Y0157890D01*
X0032876Y0157818D01*
X0032931Y0157743D01*
X0032983Y0157667D01*
X0033031Y0157588D01*
X0033076Y0157507D01*
X0033117Y0157424D01*
X0033155Y0157340D01*
X0033189Y0157254D01*
X0033220Y0157166D01*
X0033246Y0157078D01*
X0033269Y0156988D01*
X0033288Y0156898D01*
X0033303Y0156806D01*
X0033314Y0156715D01*
X0033322Y0156622D01*
X0033325Y0156530D01*
X0033269Y0156530D01*
X0033266Y0156620D01*
X0033259Y0156710D01*
X0033248Y0156799D01*
X0033233Y0156888D01*
X0033214Y0156976D01*
X0033192Y0157063D01*
X0033166Y0157150D01*
X0033136Y0157235D01*
X0033103Y0157318D01*
X0033066Y0157400D01*
X0033026Y0157481D01*
X0032982Y0157560D01*
X0032935Y0157636D01*
X0032885Y0157711D01*
X0032832Y0157784D01*
X0032775Y0157854D01*
X0032716Y0157921D01*
X0032653Y0157986D01*
X0032588Y0158049D01*
X0032521Y0158108D01*
X0032451Y0158165D01*
X0032378Y0158218D01*
X0032303Y0158268D01*
X0032227Y0158315D01*
X0032148Y0158359D01*
X0032067Y0158399D01*
X0031985Y0158436D01*
X0031902Y0158469D01*
X0031817Y0158499D01*
X0031730Y0158525D01*
X0031643Y0158547D01*
X0031555Y0158566D01*
X0031466Y0158581D01*
X0031377Y0158592D01*
X0031287Y0158599D01*
X0031197Y0158602D01*
X0031197Y0158546D01*
X0031285Y0158543D01*
X0031372Y0158536D01*
X0031459Y0158525D01*
X0031545Y0158511D01*
X0031631Y0158493D01*
X0031716Y0158471D01*
X0031800Y0158446D01*
X0031882Y0158417D01*
X0031964Y0158384D01*
X0032044Y0158349D01*
X0032122Y0158309D01*
X0032199Y0158267D01*
X0032273Y0158221D01*
X0032346Y0158172D01*
X0032416Y0158120D01*
X0032485Y0158065D01*
X0032550Y0158007D01*
X0032614Y0157947D01*
X0032674Y0157883D01*
X0032732Y0157818D01*
X0032787Y0157749D01*
X0032839Y0157679D01*
X0032888Y0157606D01*
X0032934Y0157532D01*
X0032976Y0157455D01*
X0033016Y0157377D01*
X0033051Y0157297D01*
X0033084Y0157215D01*
X0033113Y0157133D01*
X0033138Y0157049D01*
X0033160Y0156964D01*
X0033178Y0156878D01*
X0033192Y0156792D01*
X0033203Y0156705D01*
X0033210Y0156618D01*
X0033213Y0156530D01*
X0033157Y0156530D01*
X0033154Y0156618D01*
X0033146Y0156705D01*
X0033135Y0156792D01*
X0033121Y0156878D01*
X0033102Y0156964D01*
X0033080Y0157048D01*
X0033054Y0157132D01*
X0033024Y0157214D01*
X0032991Y0157295D01*
X0032954Y0157375D01*
X0032914Y0157453D01*
X0032870Y0157529D01*
X0032824Y0157603D01*
X0032773Y0157675D01*
X0032720Y0157744D01*
X0032664Y0157811D01*
X0032605Y0157876D01*
X0032543Y0157938D01*
X0032478Y0157997D01*
X0032411Y0158053D01*
X0032342Y0158106D01*
X0032270Y0158157D01*
X0032196Y0158203D01*
X0032120Y0158247D01*
X0032042Y0158287D01*
X0031962Y0158324D01*
X0031881Y0158357D01*
X0031799Y0158387D01*
X0031715Y0158413D01*
X0031631Y0158435D01*
X0031545Y0158454D01*
X0031459Y0158468D01*
X0031372Y0158479D01*
X0031285Y0158487D01*
X0031197Y0158490D01*
X0031197Y0158434D01*
X0031282Y0158431D01*
X0031367Y0158424D01*
X0031451Y0158413D01*
X0031535Y0158399D01*
X0031618Y0158381D01*
X0031700Y0158359D01*
X0031782Y0158334D01*
X0031862Y0158305D01*
X0031940Y0158273D01*
X0032018Y0158237D01*
X0032093Y0158198D01*
X0032167Y0158155D01*
X0032239Y0158110D01*
X0032309Y0158061D01*
X0032376Y0158009D01*
X0032441Y0157955D01*
X0032504Y0157897D01*
X0032564Y0157837D01*
X0032622Y0157774D01*
X0032676Y0157709D01*
X0032728Y0157642D01*
X0032777Y0157572D01*
X0032822Y0157500D01*
X0032865Y0157426D01*
X0032904Y0157351D01*
X0032940Y0157273D01*
X0032972Y0157195D01*
X0033001Y0157115D01*
X0033026Y0157033D01*
X0033048Y0156951D01*
X0033066Y0156868D01*
X0033080Y0156784D01*
X0033091Y0156700D01*
X0033098Y0156615D01*
X0033101Y0156530D01*
X0033045Y0156530D01*
X0033041Y0156615D01*
X0033034Y0156700D01*
X0033023Y0156784D01*
X0033009Y0156868D01*
X0032990Y0156951D01*
X0032968Y0157033D01*
X0032942Y0157114D01*
X0032912Y0157193D01*
X0032879Y0157271D01*
X0032843Y0157348D01*
X0032802Y0157423D01*
X0032759Y0157496D01*
X0032712Y0157567D01*
X0032662Y0157636D01*
X0032610Y0157702D01*
X0032554Y0157767D01*
X0032495Y0157828D01*
X0032434Y0157887D01*
X0032369Y0157943D01*
X0032303Y0157995D01*
X0032234Y0158045D01*
X0032163Y0158092D01*
X0032090Y0158135D01*
X0032015Y0158176D01*
X0031938Y0158212D01*
X0031860Y0158245D01*
X0031781Y0158275D01*
X0031700Y0158301D01*
X0031618Y0158323D01*
X0031535Y0158342D01*
X0031451Y0158356D01*
X0031367Y0158367D01*
X0031282Y0158374D01*
X0031197Y0158378D01*
X0031197Y0158322D01*
X0031279Y0158319D01*
X0031361Y0158312D01*
X0031443Y0158301D01*
X0031524Y0158287D01*
X0031605Y0158269D01*
X0031684Y0158247D01*
X0031763Y0158222D01*
X0031840Y0158193D01*
X0031916Y0158161D01*
X0031990Y0158125D01*
X0032063Y0158087D01*
X0032134Y0158044D01*
X0032202Y0157999D01*
X0032269Y0157951D01*
X0032334Y0157899D01*
X0032396Y0157845D01*
X0032455Y0157788D01*
X0032512Y0157729D01*
X0032566Y0157667D01*
X0032618Y0157602D01*
X0032666Y0157535D01*
X0032711Y0157467D01*
X0032754Y0157396D01*
X0032792Y0157323D01*
X0032828Y0157249D01*
X0032860Y0157173D01*
X0032889Y0157096D01*
X0032914Y0157017D01*
X0032936Y0156938D01*
X0032954Y0156857D01*
X0032968Y0156776D01*
X0032979Y0156694D01*
X0032986Y0156612D01*
X0032989Y0156530D01*
X0032933Y0156530D01*
X0032929Y0156612D01*
X0032922Y0156694D01*
X0032911Y0156776D01*
X0032897Y0156857D01*
X0032878Y0156937D01*
X0032856Y0157016D01*
X0032830Y0157094D01*
X0032801Y0157171D01*
X0032768Y0157246D01*
X0032731Y0157320D01*
X0032691Y0157392D01*
X0032648Y0157462D01*
X0032602Y0157530D01*
X0032552Y0157595D01*
X0032500Y0157659D01*
X0032444Y0157719D01*
X0032386Y0157777D01*
X0032326Y0157833D01*
X0032262Y0157885D01*
X0032197Y0157935D01*
X0032129Y0157981D01*
X0032059Y0158024D01*
X0031987Y0158064D01*
X0031913Y0158101D01*
X0031838Y0158134D01*
X0031761Y0158163D01*
X0031683Y0158189D01*
X0031604Y0158211D01*
X0031524Y0158230D01*
X0031443Y0158244D01*
X0031361Y0158255D01*
X0031279Y0158262D01*
X0031197Y0158266D01*
X0031196Y0149231D02*
X0031196Y0149771D01*
X0031197Y0149770D02*
X0031277Y0149774D01*
X0031358Y0149781D01*
X0031437Y0149791D01*
X0031517Y0149806D01*
X0031595Y0149824D01*
X0031673Y0149846D01*
X0031749Y0149871D01*
X0031824Y0149900D01*
X0031898Y0149932D01*
X0031970Y0149968D01*
X0032041Y0150007D01*
X0032109Y0150049D01*
X0032176Y0150094D01*
X0032240Y0150143D01*
X0032302Y0150194D01*
X0032361Y0150249D01*
X0032418Y0150306D01*
X0032473Y0150365D01*
X0032524Y0150427D01*
X0032573Y0150491D01*
X0032618Y0150558D01*
X0032660Y0150626D01*
X0032699Y0150697D01*
X0032735Y0150769D01*
X0032767Y0150843D01*
X0032796Y0150918D01*
X0032821Y0150994D01*
X0032843Y0151072D01*
X0032861Y0151150D01*
X0032876Y0151230D01*
X0032886Y0151309D01*
X0032893Y0151390D01*
X0032897Y0151470D01*
X0033436Y0151471D01*
X0033437Y0151470D01*
X0033434Y0151375D01*
X0033426Y0151281D01*
X0033415Y0151187D01*
X0033400Y0151093D01*
X0033381Y0151000D01*
X0033359Y0150908D01*
X0033332Y0150817D01*
X0033302Y0150728D01*
X0033268Y0150639D01*
X0033230Y0150552D01*
X0033188Y0150467D01*
X0033144Y0150384D01*
X0033095Y0150302D01*
X0033044Y0150223D01*
X0032989Y0150146D01*
X0032931Y0150071D01*
X0032869Y0149998D01*
X0032805Y0149929D01*
X0032738Y0149862D01*
X0032669Y0149798D01*
X0032596Y0149736D01*
X0032521Y0149678D01*
X0032444Y0149623D01*
X0032365Y0149572D01*
X0032283Y0149523D01*
X0032200Y0149479D01*
X0032115Y0149437D01*
X0032028Y0149399D01*
X0031939Y0149365D01*
X0031850Y0149335D01*
X0031759Y0149308D01*
X0031667Y0149286D01*
X0031574Y0149267D01*
X0031480Y0149252D01*
X0031386Y0149241D01*
X0031292Y0149233D01*
X0031197Y0149230D01*
X0031197Y0149286D01*
X0031289Y0149289D01*
X0031381Y0149296D01*
X0031473Y0149307D01*
X0031564Y0149322D01*
X0031655Y0149340D01*
X0031744Y0149363D01*
X0031833Y0149389D01*
X0031921Y0149418D01*
X0032007Y0149451D01*
X0032091Y0149488D01*
X0032175Y0149529D01*
X0032256Y0149572D01*
X0032335Y0149619D01*
X0032413Y0149670D01*
X0032488Y0149723D01*
X0032561Y0149780D01*
X0032632Y0149840D01*
X0032700Y0149902D01*
X0032765Y0149967D01*
X0032827Y0150035D01*
X0032887Y0150106D01*
X0032944Y0150179D01*
X0032997Y0150254D01*
X0033048Y0150332D01*
X0033095Y0150411D01*
X0033138Y0150492D01*
X0033179Y0150576D01*
X0033216Y0150660D01*
X0033249Y0150746D01*
X0033278Y0150834D01*
X0033304Y0150923D01*
X0033327Y0151012D01*
X0033345Y0151103D01*
X0033360Y0151194D01*
X0033371Y0151286D01*
X0033378Y0151378D01*
X0033381Y0151470D01*
X0033325Y0151470D01*
X0033322Y0151378D01*
X0033314Y0151285D01*
X0033303Y0151194D01*
X0033288Y0151102D01*
X0033269Y0151012D01*
X0033246Y0150922D01*
X0033220Y0150834D01*
X0033189Y0150746D01*
X0033155Y0150660D01*
X0033117Y0150576D01*
X0033076Y0150493D01*
X0033031Y0150412D01*
X0032983Y0150333D01*
X0032931Y0150257D01*
X0032876Y0150182D01*
X0032818Y0150110D01*
X0032757Y0150041D01*
X0032693Y0149974D01*
X0032626Y0149910D01*
X0032557Y0149849D01*
X0032485Y0149791D01*
X0032410Y0149736D01*
X0032334Y0149684D01*
X0032255Y0149636D01*
X0032174Y0149591D01*
X0032091Y0149550D01*
X0032007Y0149512D01*
X0031921Y0149478D01*
X0031833Y0149447D01*
X0031745Y0149421D01*
X0031655Y0149398D01*
X0031565Y0149379D01*
X0031473Y0149364D01*
X0031382Y0149353D01*
X0031289Y0149345D01*
X0031197Y0149342D01*
X0031197Y0149398D01*
X0031287Y0149401D01*
X0031377Y0149408D01*
X0031466Y0149419D01*
X0031555Y0149434D01*
X0031643Y0149453D01*
X0031730Y0149475D01*
X0031817Y0149501D01*
X0031902Y0149531D01*
X0031985Y0149564D01*
X0032067Y0149601D01*
X0032148Y0149641D01*
X0032227Y0149685D01*
X0032303Y0149732D01*
X0032378Y0149782D01*
X0032451Y0149835D01*
X0032521Y0149892D01*
X0032588Y0149951D01*
X0032653Y0150014D01*
X0032716Y0150079D01*
X0032775Y0150146D01*
X0032832Y0150216D01*
X0032885Y0150289D01*
X0032935Y0150364D01*
X0032982Y0150440D01*
X0033026Y0150519D01*
X0033066Y0150600D01*
X0033103Y0150682D01*
X0033136Y0150765D01*
X0033166Y0150850D01*
X0033192Y0150937D01*
X0033214Y0151024D01*
X0033233Y0151112D01*
X0033248Y0151201D01*
X0033259Y0151290D01*
X0033266Y0151380D01*
X0033269Y0151470D01*
X0033213Y0151470D01*
X0033210Y0151382D01*
X0033203Y0151295D01*
X0033192Y0151208D01*
X0033178Y0151122D01*
X0033160Y0151036D01*
X0033138Y0150951D01*
X0033113Y0150867D01*
X0033084Y0150785D01*
X0033051Y0150703D01*
X0033016Y0150623D01*
X0032976Y0150545D01*
X0032934Y0150468D01*
X0032888Y0150394D01*
X0032839Y0150321D01*
X0032787Y0150251D01*
X0032732Y0150182D01*
X0032674Y0150117D01*
X0032614Y0150053D01*
X0032550Y0149993D01*
X0032485Y0149935D01*
X0032416Y0149880D01*
X0032346Y0149828D01*
X0032273Y0149779D01*
X0032199Y0149733D01*
X0032122Y0149691D01*
X0032044Y0149651D01*
X0031964Y0149616D01*
X0031882Y0149583D01*
X0031800Y0149554D01*
X0031716Y0149529D01*
X0031631Y0149507D01*
X0031545Y0149489D01*
X0031459Y0149475D01*
X0031372Y0149464D01*
X0031285Y0149457D01*
X0031197Y0149454D01*
X0031197Y0149510D01*
X0031285Y0149513D01*
X0031372Y0149521D01*
X0031459Y0149532D01*
X0031545Y0149546D01*
X0031631Y0149565D01*
X0031715Y0149587D01*
X0031799Y0149613D01*
X0031881Y0149643D01*
X0031962Y0149676D01*
X0032042Y0149713D01*
X0032120Y0149753D01*
X0032196Y0149797D01*
X0032270Y0149843D01*
X0032342Y0149894D01*
X0032411Y0149947D01*
X0032478Y0150003D01*
X0032543Y0150062D01*
X0032605Y0150124D01*
X0032664Y0150189D01*
X0032720Y0150256D01*
X0032773Y0150325D01*
X0032824Y0150397D01*
X0032870Y0150471D01*
X0032914Y0150547D01*
X0032954Y0150625D01*
X0032991Y0150705D01*
X0033024Y0150786D01*
X0033054Y0150868D01*
X0033080Y0150952D01*
X0033102Y0151036D01*
X0033121Y0151122D01*
X0033135Y0151208D01*
X0033146Y0151295D01*
X0033154Y0151382D01*
X0033157Y0151470D01*
X0033101Y0151470D01*
X0033098Y0151385D01*
X0033091Y0151300D01*
X0033080Y0151216D01*
X0033066Y0151132D01*
X0033048Y0151049D01*
X0033026Y0150967D01*
X0033001Y0150885D01*
X0032972Y0150805D01*
X0032940Y0150727D01*
X0032904Y0150649D01*
X0032865Y0150574D01*
X0032822Y0150500D01*
X0032777Y0150428D01*
X0032728Y0150358D01*
X0032676Y0150291D01*
X0032622Y0150226D01*
X0032564Y0150163D01*
X0032504Y0150103D01*
X0032441Y0150045D01*
X0032376Y0149991D01*
X0032309Y0149939D01*
X0032239Y0149890D01*
X0032167Y0149845D01*
X0032093Y0149802D01*
X0032018Y0149763D01*
X0031940Y0149727D01*
X0031862Y0149695D01*
X0031782Y0149666D01*
X0031700Y0149641D01*
X0031618Y0149619D01*
X0031535Y0149601D01*
X0031451Y0149587D01*
X0031367Y0149576D01*
X0031282Y0149569D01*
X0031197Y0149566D01*
X0031197Y0149622D01*
X0031282Y0149626D01*
X0031367Y0149633D01*
X0031451Y0149644D01*
X0031535Y0149658D01*
X0031618Y0149677D01*
X0031700Y0149699D01*
X0031781Y0149725D01*
X0031860Y0149755D01*
X0031938Y0149788D01*
X0032015Y0149824D01*
X0032090Y0149865D01*
X0032163Y0149908D01*
X0032234Y0149955D01*
X0032303Y0150005D01*
X0032369Y0150057D01*
X0032434Y0150113D01*
X0032495Y0150172D01*
X0032554Y0150233D01*
X0032610Y0150298D01*
X0032662Y0150364D01*
X0032712Y0150433D01*
X0032759Y0150504D01*
X0032802Y0150577D01*
X0032843Y0150652D01*
X0032879Y0150729D01*
X0032912Y0150807D01*
X0032942Y0150886D01*
X0032968Y0150967D01*
X0032990Y0151049D01*
X0033009Y0151132D01*
X0033023Y0151216D01*
X0033034Y0151300D01*
X0033041Y0151385D01*
X0033045Y0151470D01*
X0032989Y0151470D01*
X0032986Y0151388D01*
X0032979Y0151306D01*
X0032968Y0151224D01*
X0032954Y0151143D01*
X0032936Y0151062D01*
X0032914Y0150983D01*
X0032889Y0150904D01*
X0032860Y0150827D01*
X0032828Y0150751D01*
X0032792Y0150677D01*
X0032754Y0150604D01*
X0032711Y0150533D01*
X0032666Y0150465D01*
X0032618Y0150398D01*
X0032566Y0150333D01*
X0032512Y0150271D01*
X0032455Y0150212D01*
X0032396Y0150155D01*
X0032334Y0150101D01*
X0032269Y0150049D01*
X0032202Y0150001D01*
X0032134Y0149956D01*
X0032063Y0149913D01*
X0031990Y0149875D01*
X0031916Y0149839D01*
X0031840Y0149807D01*
X0031763Y0149778D01*
X0031684Y0149753D01*
X0031605Y0149731D01*
X0031524Y0149713D01*
X0031443Y0149699D01*
X0031361Y0149688D01*
X0031279Y0149681D01*
X0031197Y0149678D01*
X0031197Y0149734D01*
X0031279Y0149738D01*
X0031361Y0149745D01*
X0031443Y0149756D01*
X0031524Y0149770D01*
X0031604Y0149789D01*
X0031683Y0149811D01*
X0031761Y0149837D01*
X0031838Y0149866D01*
X0031913Y0149899D01*
X0031987Y0149936D01*
X0032059Y0149976D01*
X0032129Y0150019D01*
X0032197Y0150065D01*
X0032262Y0150115D01*
X0032326Y0150167D01*
X0032386Y0150223D01*
X0032444Y0150281D01*
X0032500Y0150341D01*
X0032552Y0150405D01*
X0032602Y0150470D01*
X0032648Y0150538D01*
X0032691Y0150608D01*
X0032731Y0150680D01*
X0032768Y0150754D01*
X0032801Y0150829D01*
X0032830Y0150906D01*
X0032856Y0150984D01*
X0032878Y0151063D01*
X0032897Y0151143D01*
X0032911Y0151224D01*
X0032922Y0151306D01*
X0032929Y0151388D01*
X0032933Y0151470D01*
X0015898Y0151471D02*
X0016438Y0151471D01*
X0016437Y0151470D02*
X0016441Y0151390D01*
X0016448Y0151309D01*
X0016458Y0151230D01*
X0016473Y0151150D01*
X0016491Y0151072D01*
X0016513Y0150994D01*
X0016538Y0150918D01*
X0016567Y0150843D01*
X0016599Y0150769D01*
X0016635Y0150697D01*
X0016674Y0150626D01*
X0016716Y0150558D01*
X0016761Y0150491D01*
X0016810Y0150427D01*
X0016861Y0150365D01*
X0016916Y0150306D01*
X0016973Y0150249D01*
X0017032Y0150194D01*
X0017094Y0150143D01*
X0017158Y0150094D01*
X0017225Y0150049D01*
X0017293Y0150007D01*
X0017364Y0149968D01*
X0017436Y0149932D01*
X0017510Y0149900D01*
X0017585Y0149871D01*
X0017661Y0149846D01*
X0017739Y0149824D01*
X0017817Y0149806D01*
X0017897Y0149791D01*
X0017976Y0149781D01*
X0018057Y0149774D01*
X0018137Y0149770D01*
X0018138Y0149231D01*
X0018137Y0149230D01*
X0018042Y0149233D01*
X0017948Y0149241D01*
X0017854Y0149252D01*
X0017760Y0149267D01*
X0017667Y0149286D01*
X0017575Y0149308D01*
X0017484Y0149335D01*
X0017395Y0149365D01*
X0017306Y0149399D01*
X0017219Y0149437D01*
X0017134Y0149479D01*
X0017051Y0149523D01*
X0016969Y0149572D01*
X0016890Y0149623D01*
X0016813Y0149678D01*
X0016738Y0149736D01*
X0016665Y0149798D01*
X0016596Y0149862D01*
X0016529Y0149929D01*
X0016465Y0149998D01*
X0016403Y0150071D01*
X0016345Y0150146D01*
X0016290Y0150223D01*
X0016239Y0150302D01*
X0016190Y0150384D01*
X0016146Y0150467D01*
X0016104Y0150552D01*
X0016066Y0150639D01*
X0016032Y0150728D01*
X0016002Y0150817D01*
X0015975Y0150908D01*
X0015953Y0151000D01*
X0015934Y0151093D01*
X0015919Y0151187D01*
X0015908Y0151281D01*
X0015900Y0151375D01*
X0015897Y0151470D01*
X0015953Y0151470D01*
X0015956Y0151378D01*
X0015963Y0151286D01*
X0015974Y0151194D01*
X0015989Y0151103D01*
X0016007Y0151012D01*
X0016030Y0150923D01*
X0016056Y0150834D01*
X0016085Y0150746D01*
X0016118Y0150660D01*
X0016155Y0150576D01*
X0016196Y0150492D01*
X0016239Y0150411D01*
X0016286Y0150332D01*
X0016337Y0150254D01*
X0016390Y0150179D01*
X0016447Y0150106D01*
X0016507Y0150035D01*
X0016569Y0149967D01*
X0016634Y0149902D01*
X0016702Y0149840D01*
X0016773Y0149780D01*
X0016846Y0149723D01*
X0016921Y0149670D01*
X0016999Y0149619D01*
X0017078Y0149572D01*
X0017159Y0149529D01*
X0017243Y0149488D01*
X0017327Y0149451D01*
X0017413Y0149418D01*
X0017501Y0149389D01*
X0017590Y0149363D01*
X0017679Y0149340D01*
X0017770Y0149322D01*
X0017861Y0149307D01*
X0017953Y0149296D01*
X0018045Y0149289D01*
X0018137Y0149286D01*
X0018137Y0149342D01*
X0018045Y0149345D01*
X0017952Y0149353D01*
X0017861Y0149364D01*
X0017769Y0149379D01*
X0017679Y0149398D01*
X0017589Y0149421D01*
X0017501Y0149447D01*
X0017413Y0149478D01*
X0017327Y0149512D01*
X0017243Y0149550D01*
X0017160Y0149591D01*
X0017079Y0149636D01*
X0017000Y0149684D01*
X0016924Y0149736D01*
X0016849Y0149791D01*
X0016777Y0149849D01*
X0016708Y0149910D01*
X0016641Y0149974D01*
X0016577Y0150041D01*
X0016516Y0150110D01*
X0016458Y0150182D01*
X0016403Y0150257D01*
X0016351Y0150333D01*
X0016303Y0150412D01*
X0016258Y0150493D01*
X0016217Y0150576D01*
X0016179Y0150660D01*
X0016145Y0150746D01*
X0016114Y0150834D01*
X0016088Y0150922D01*
X0016065Y0151012D01*
X0016046Y0151102D01*
X0016031Y0151194D01*
X0016020Y0151285D01*
X0016012Y0151378D01*
X0016009Y0151470D01*
X0016065Y0151470D01*
X0016068Y0151380D01*
X0016075Y0151290D01*
X0016086Y0151201D01*
X0016101Y0151112D01*
X0016120Y0151024D01*
X0016142Y0150937D01*
X0016168Y0150850D01*
X0016198Y0150765D01*
X0016231Y0150682D01*
X0016268Y0150600D01*
X0016308Y0150519D01*
X0016352Y0150440D01*
X0016399Y0150364D01*
X0016449Y0150289D01*
X0016502Y0150216D01*
X0016559Y0150146D01*
X0016618Y0150079D01*
X0016681Y0150014D01*
X0016746Y0149951D01*
X0016813Y0149892D01*
X0016883Y0149835D01*
X0016956Y0149782D01*
X0017031Y0149732D01*
X0017107Y0149685D01*
X0017186Y0149641D01*
X0017267Y0149601D01*
X0017349Y0149564D01*
X0017432Y0149531D01*
X0017517Y0149501D01*
X0017604Y0149475D01*
X0017691Y0149453D01*
X0017779Y0149434D01*
X0017868Y0149419D01*
X0017957Y0149408D01*
X0018047Y0149401D01*
X0018137Y0149398D01*
X0018137Y0149454D01*
X0018049Y0149457D01*
X0017962Y0149464D01*
X0017875Y0149475D01*
X0017789Y0149489D01*
X0017703Y0149507D01*
X0017618Y0149529D01*
X0017534Y0149554D01*
X0017452Y0149583D01*
X0017370Y0149616D01*
X0017290Y0149651D01*
X0017212Y0149691D01*
X0017135Y0149733D01*
X0017061Y0149779D01*
X0016988Y0149828D01*
X0016918Y0149880D01*
X0016849Y0149935D01*
X0016784Y0149993D01*
X0016720Y0150053D01*
X0016660Y0150117D01*
X0016602Y0150182D01*
X0016547Y0150251D01*
X0016495Y0150321D01*
X0016446Y0150394D01*
X0016400Y0150468D01*
X0016358Y0150545D01*
X0016318Y0150623D01*
X0016283Y0150703D01*
X0016250Y0150785D01*
X0016221Y0150867D01*
X0016196Y0150951D01*
X0016174Y0151036D01*
X0016156Y0151122D01*
X0016142Y0151208D01*
X0016131Y0151295D01*
X0016124Y0151382D01*
X0016121Y0151470D01*
X0016177Y0151470D01*
X0016180Y0151382D01*
X0016188Y0151295D01*
X0016199Y0151208D01*
X0016213Y0151122D01*
X0016232Y0151036D01*
X0016254Y0150952D01*
X0016280Y0150868D01*
X0016310Y0150786D01*
X0016343Y0150705D01*
X0016380Y0150625D01*
X0016420Y0150547D01*
X0016464Y0150471D01*
X0016510Y0150397D01*
X0016561Y0150325D01*
X0016614Y0150256D01*
X0016670Y0150189D01*
X0016729Y0150124D01*
X0016791Y0150062D01*
X0016856Y0150003D01*
X0016923Y0149947D01*
X0016992Y0149894D01*
X0017064Y0149843D01*
X0017138Y0149797D01*
X0017214Y0149753D01*
X0017292Y0149713D01*
X0017372Y0149676D01*
X0017453Y0149643D01*
X0017535Y0149613D01*
X0017619Y0149587D01*
X0017703Y0149565D01*
X0017789Y0149546D01*
X0017875Y0149532D01*
X0017962Y0149521D01*
X0018049Y0149513D01*
X0018137Y0149510D01*
X0018137Y0149566D01*
X0018052Y0149569D01*
X0017967Y0149576D01*
X0017883Y0149587D01*
X0017799Y0149601D01*
X0017716Y0149619D01*
X0017634Y0149641D01*
X0017552Y0149666D01*
X0017472Y0149695D01*
X0017394Y0149727D01*
X0017316Y0149763D01*
X0017241Y0149802D01*
X0017167Y0149845D01*
X0017095Y0149890D01*
X0017025Y0149939D01*
X0016958Y0149991D01*
X0016893Y0150045D01*
X0016830Y0150103D01*
X0016770Y0150163D01*
X0016712Y0150226D01*
X0016658Y0150291D01*
X0016606Y0150358D01*
X0016557Y0150428D01*
X0016512Y0150500D01*
X0016469Y0150574D01*
X0016430Y0150649D01*
X0016394Y0150727D01*
X0016362Y0150805D01*
X0016333Y0150885D01*
X0016308Y0150967D01*
X0016286Y0151049D01*
X0016268Y0151132D01*
X0016254Y0151216D01*
X0016243Y0151300D01*
X0016236Y0151385D01*
X0016233Y0151470D01*
X0016289Y0151470D01*
X0016293Y0151385D01*
X0016300Y0151300D01*
X0016311Y0151216D01*
X0016325Y0151132D01*
X0016344Y0151049D01*
X0016366Y0150967D01*
X0016392Y0150886D01*
X0016422Y0150807D01*
X0016455Y0150729D01*
X0016491Y0150652D01*
X0016532Y0150577D01*
X0016575Y0150504D01*
X0016622Y0150433D01*
X0016672Y0150364D01*
X0016724Y0150298D01*
X0016780Y0150233D01*
X0016839Y0150172D01*
X0016900Y0150113D01*
X0016965Y0150057D01*
X0017031Y0150005D01*
X0017100Y0149955D01*
X0017171Y0149908D01*
X0017244Y0149865D01*
X0017319Y0149824D01*
X0017396Y0149788D01*
X0017474Y0149755D01*
X0017553Y0149725D01*
X0017634Y0149699D01*
X0017716Y0149677D01*
X0017799Y0149658D01*
X0017883Y0149644D01*
X0017967Y0149633D01*
X0018052Y0149626D01*
X0018137Y0149622D01*
X0018137Y0149678D01*
X0018055Y0149681D01*
X0017973Y0149688D01*
X0017891Y0149699D01*
X0017810Y0149713D01*
X0017729Y0149731D01*
X0017650Y0149753D01*
X0017571Y0149778D01*
X0017494Y0149807D01*
X0017418Y0149839D01*
X0017344Y0149875D01*
X0017271Y0149913D01*
X0017200Y0149956D01*
X0017132Y0150001D01*
X0017065Y0150049D01*
X0017000Y0150101D01*
X0016938Y0150155D01*
X0016879Y0150212D01*
X0016822Y0150271D01*
X0016768Y0150333D01*
X0016716Y0150398D01*
X0016668Y0150465D01*
X0016623Y0150533D01*
X0016580Y0150604D01*
X0016542Y0150677D01*
X0016506Y0150751D01*
X0016474Y0150827D01*
X0016445Y0150904D01*
X0016420Y0150983D01*
X0016398Y0151062D01*
X0016380Y0151143D01*
X0016366Y0151224D01*
X0016355Y0151306D01*
X0016348Y0151388D01*
X0016345Y0151470D01*
X0016401Y0151470D01*
X0016405Y0151388D01*
X0016412Y0151306D01*
X0016423Y0151224D01*
X0016437Y0151143D01*
X0016456Y0151063D01*
X0016478Y0150984D01*
X0016504Y0150906D01*
X0016533Y0150829D01*
X0016566Y0150754D01*
X0016603Y0150680D01*
X0016643Y0150608D01*
X0016686Y0150538D01*
X0016732Y0150470D01*
X0016782Y0150405D01*
X0016834Y0150341D01*
X0016890Y0150281D01*
X0016948Y0150223D01*
X0017008Y0150167D01*
X0017072Y0150115D01*
X0017137Y0150065D01*
X0017205Y0150019D01*
X0017275Y0149976D01*
X0017347Y0149936D01*
X0017421Y0149899D01*
X0017496Y0149866D01*
X0017573Y0149837D01*
X0017651Y0149811D01*
X0017730Y0149789D01*
X0017810Y0149770D01*
X0017891Y0149756D01*
X0017973Y0149745D01*
X0018055Y0149738D01*
X0018137Y0149734D01*
X0018138Y0158769D02*
X0018138Y0158229D01*
X0018137Y0158230D02*
X0018057Y0158226D01*
X0017976Y0158219D01*
X0017897Y0158209D01*
X0017817Y0158194D01*
X0017739Y0158176D01*
X0017661Y0158154D01*
X0017585Y0158129D01*
X0017510Y0158100D01*
X0017436Y0158068D01*
X0017364Y0158032D01*
X0017293Y0157993D01*
X0017225Y0157951D01*
X0017158Y0157906D01*
X0017094Y0157857D01*
X0017032Y0157806D01*
X0016973Y0157751D01*
X0016916Y0157694D01*
X0016861Y0157635D01*
X0016810Y0157573D01*
X0016761Y0157509D01*
X0016716Y0157442D01*
X0016674Y0157374D01*
X0016635Y0157303D01*
X0016599Y0157231D01*
X0016567Y0157157D01*
X0016538Y0157082D01*
X0016513Y0157006D01*
X0016491Y0156928D01*
X0016473Y0156850D01*
X0016458Y0156770D01*
X0016448Y0156691D01*
X0016441Y0156610D01*
X0016437Y0156530D01*
X0015898Y0156529D01*
X0015897Y0156530D01*
X0015900Y0156625D01*
X0015908Y0156719D01*
X0015919Y0156813D01*
X0015934Y0156907D01*
X0015953Y0157000D01*
X0015975Y0157092D01*
X0016002Y0157183D01*
X0016032Y0157272D01*
X0016066Y0157361D01*
X0016104Y0157448D01*
X0016146Y0157533D01*
X0016190Y0157616D01*
X0016239Y0157698D01*
X0016290Y0157777D01*
X0016345Y0157854D01*
X0016403Y0157929D01*
X0016465Y0158002D01*
X0016529Y0158071D01*
X0016596Y0158138D01*
X0016665Y0158202D01*
X0016738Y0158264D01*
X0016813Y0158322D01*
X0016890Y0158377D01*
X0016969Y0158428D01*
X0017051Y0158477D01*
X0017134Y0158521D01*
X0017219Y0158563D01*
X0017306Y0158601D01*
X0017395Y0158635D01*
X0017484Y0158665D01*
X0017575Y0158692D01*
X0017667Y0158714D01*
X0017760Y0158733D01*
X0017854Y0158748D01*
X0017948Y0158759D01*
X0018042Y0158767D01*
X0018137Y0158770D01*
X0018137Y0158714D01*
X0018045Y0158711D01*
X0017953Y0158704D01*
X0017861Y0158693D01*
X0017770Y0158678D01*
X0017679Y0158660D01*
X0017590Y0158637D01*
X0017501Y0158611D01*
X0017413Y0158582D01*
X0017327Y0158549D01*
X0017243Y0158512D01*
X0017159Y0158471D01*
X0017078Y0158428D01*
X0016999Y0158381D01*
X0016921Y0158330D01*
X0016846Y0158277D01*
X0016773Y0158220D01*
X0016702Y0158160D01*
X0016634Y0158098D01*
X0016569Y0158033D01*
X0016507Y0157965D01*
X0016447Y0157894D01*
X0016390Y0157821D01*
X0016337Y0157746D01*
X0016286Y0157668D01*
X0016239Y0157589D01*
X0016196Y0157508D01*
X0016155Y0157424D01*
X0016118Y0157340D01*
X0016085Y0157254D01*
X0016056Y0157166D01*
X0016030Y0157077D01*
X0016007Y0156988D01*
X0015989Y0156897D01*
X0015974Y0156806D01*
X0015963Y0156714D01*
X0015956Y0156622D01*
X0015953Y0156530D01*
X0016009Y0156530D01*
X0016012Y0156622D01*
X0016020Y0156715D01*
X0016031Y0156806D01*
X0016046Y0156898D01*
X0016065Y0156988D01*
X0016088Y0157078D01*
X0016114Y0157166D01*
X0016145Y0157254D01*
X0016179Y0157340D01*
X0016217Y0157424D01*
X0016258Y0157507D01*
X0016303Y0157588D01*
X0016351Y0157667D01*
X0016403Y0157743D01*
X0016458Y0157818D01*
X0016516Y0157890D01*
X0016577Y0157959D01*
X0016641Y0158026D01*
X0016708Y0158090D01*
X0016777Y0158151D01*
X0016849Y0158209D01*
X0016924Y0158264D01*
X0017000Y0158316D01*
X0017079Y0158364D01*
X0017160Y0158409D01*
X0017243Y0158450D01*
X0017327Y0158488D01*
X0017413Y0158522D01*
X0017501Y0158553D01*
X0017589Y0158579D01*
X0017679Y0158602D01*
X0017769Y0158621D01*
X0017861Y0158636D01*
X0017952Y0158647D01*
X0018045Y0158655D01*
X0018137Y0158658D01*
X0018137Y0158602D01*
X0018047Y0158599D01*
X0017957Y0158592D01*
X0017868Y0158581D01*
X0017779Y0158566D01*
X0017691Y0158547D01*
X0017604Y0158525D01*
X0017517Y0158499D01*
X0017432Y0158469D01*
X0017349Y0158436D01*
X0017267Y0158399D01*
X0017186Y0158359D01*
X0017107Y0158315D01*
X0017031Y0158268D01*
X0016956Y0158218D01*
X0016883Y0158165D01*
X0016813Y0158108D01*
X0016746Y0158049D01*
X0016681Y0157986D01*
X0016618Y0157921D01*
X0016559Y0157854D01*
X0016502Y0157784D01*
X0016449Y0157711D01*
X0016399Y0157636D01*
X0016352Y0157560D01*
X0016308Y0157481D01*
X0016268Y0157400D01*
X0016231Y0157318D01*
X0016198Y0157235D01*
X0016168Y0157150D01*
X0016142Y0157063D01*
X0016120Y0156976D01*
X0016101Y0156888D01*
X0016086Y0156799D01*
X0016075Y0156710D01*
X0016068Y0156620D01*
X0016065Y0156530D01*
X0016121Y0156530D01*
X0016124Y0156618D01*
X0016131Y0156705D01*
X0016142Y0156792D01*
X0016156Y0156878D01*
X0016174Y0156964D01*
X0016196Y0157049D01*
X0016221Y0157133D01*
X0016250Y0157215D01*
X0016283Y0157297D01*
X0016318Y0157377D01*
X0016358Y0157455D01*
X0016400Y0157532D01*
X0016446Y0157606D01*
X0016495Y0157679D01*
X0016547Y0157749D01*
X0016602Y0157818D01*
X0016660Y0157883D01*
X0016720Y0157947D01*
X0016784Y0158007D01*
X0016849Y0158065D01*
X0016918Y0158120D01*
X0016988Y0158172D01*
X0017061Y0158221D01*
X0017135Y0158267D01*
X0017212Y0158309D01*
X0017290Y0158349D01*
X0017370Y0158384D01*
X0017452Y0158417D01*
X0017534Y0158446D01*
X0017618Y0158471D01*
X0017703Y0158493D01*
X0017789Y0158511D01*
X0017875Y0158525D01*
X0017962Y0158536D01*
X0018049Y0158543D01*
X0018137Y0158546D01*
X0018137Y0158490D01*
X0018049Y0158487D01*
X0017962Y0158479D01*
X0017875Y0158468D01*
X0017789Y0158454D01*
X0017703Y0158435D01*
X0017619Y0158413D01*
X0017535Y0158387D01*
X0017453Y0158357D01*
X0017372Y0158324D01*
X0017292Y0158287D01*
X0017214Y0158247D01*
X0017138Y0158203D01*
X0017064Y0158157D01*
X0016992Y0158106D01*
X0016923Y0158053D01*
X0016856Y0157997D01*
X0016791Y0157938D01*
X0016729Y0157876D01*
X0016670Y0157811D01*
X0016614Y0157744D01*
X0016561Y0157675D01*
X0016510Y0157603D01*
X0016464Y0157529D01*
X0016420Y0157453D01*
X0016380Y0157375D01*
X0016343Y0157295D01*
X0016310Y0157214D01*
X0016280Y0157132D01*
X0016254Y0157048D01*
X0016232Y0156964D01*
X0016213Y0156878D01*
X0016199Y0156792D01*
X0016188Y0156705D01*
X0016180Y0156618D01*
X0016177Y0156530D01*
X0016233Y0156530D01*
X0016236Y0156615D01*
X0016243Y0156700D01*
X0016254Y0156784D01*
X0016268Y0156868D01*
X0016286Y0156951D01*
X0016308Y0157033D01*
X0016333Y0157115D01*
X0016362Y0157195D01*
X0016394Y0157273D01*
X0016430Y0157351D01*
X0016469Y0157426D01*
X0016512Y0157500D01*
X0016557Y0157572D01*
X0016606Y0157642D01*
X0016658Y0157709D01*
X0016712Y0157774D01*
X0016770Y0157837D01*
X0016830Y0157897D01*
X0016893Y0157955D01*
X0016958Y0158009D01*
X0017025Y0158061D01*
X0017095Y0158110D01*
X0017167Y0158155D01*
X0017241Y0158198D01*
X0017316Y0158237D01*
X0017394Y0158273D01*
X0017472Y0158305D01*
X0017552Y0158334D01*
X0017634Y0158359D01*
X0017716Y0158381D01*
X0017799Y0158399D01*
X0017883Y0158413D01*
X0017967Y0158424D01*
X0018052Y0158431D01*
X0018137Y0158434D01*
X0018137Y0158378D01*
X0018052Y0158374D01*
X0017967Y0158367D01*
X0017883Y0158356D01*
X0017799Y0158342D01*
X0017716Y0158323D01*
X0017634Y0158301D01*
X0017553Y0158275D01*
X0017474Y0158245D01*
X0017396Y0158212D01*
X0017319Y0158176D01*
X0017244Y0158135D01*
X0017171Y0158092D01*
X0017100Y0158045D01*
X0017031Y0157995D01*
X0016965Y0157943D01*
X0016900Y0157887D01*
X0016839Y0157828D01*
X0016780Y0157767D01*
X0016724Y0157702D01*
X0016672Y0157636D01*
X0016622Y0157567D01*
X0016575Y0157496D01*
X0016532Y0157423D01*
X0016491Y0157348D01*
X0016455Y0157271D01*
X0016422Y0157193D01*
X0016392Y0157114D01*
X0016366Y0157033D01*
X0016344Y0156951D01*
X0016325Y0156868D01*
X0016311Y0156784D01*
X0016300Y0156700D01*
X0016293Y0156615D01*
X0016289Y0156530D01*
X0016345Y0156530D01*
X0016348Y0156612D01*
X0016355Y0156694D01*
X0016366Y0156776D01*
X0016380Y0156857D01*
X0016398Y0156938D01*
X0016420Y0157017D01*
X0016445Y0157096D01*
X0016474Y0157173D01*
X0016506Y0157249D01*
X0016542Y0157323D01*
X0016580Y0157396D01*
X0016623Y0157467D01*
X0016668Y0157535D01*
X0016716Y0157602D01*
X0016768Y0157667D01*
X0016822Y0157729D01*
X0016879Y0157788D01*
X0016938Y0157845D01*
X0017000Y0157899D01*
X0017065Y0157951D01*
X0017132Y0157999D01*
X0017200Y0158044D01*
X0017271Y0158087D01*
X0017344Y0158125D01*
X0017418Y0158161D01*
X0017494Y0158193D01*
X0017571Y0158222D01*
X0017650Y0158247D01*
X0017729Y0158269D01*
X0017810Y0158287D01*
X0017891Y0158301D01*
X0017973Y0158312D01*
X0018055Y0158319D01*
X0018137Y0158322D01*
X0018137Y0158266D01*
X0018055Y0158262D01*
X0017973Y0158255D01*
X0017891Y0158244D01*
X0017810Y0158230D01*
X0017730Y0158211D01*
X0017651Y0158189D01*
X0017573Y0158163D01*
X0017496Y0158134D01*
X0017421Y0158101D01*
X0017347Y0158064D01*
X0017275Y0158024D01*
X0017205Y0157981D01*
X0017137Y0157935D01*
X0017072Y0157885D01*
X0017008Y0157833D01*
X0016948Y0157777D01*
X0016890Y0157719D01*
X0016834Y0157659D01*
X0016782Y0157595D01*
X0016732Y0157530D01*
X0016686Y0157462D01*
X0016643Y0157392D01*
X0016603Y0157320D01*
X0016566Y0157246D01*
X0016533Y0157171D01*
X0016504Y0157094D01*
X0016478Y0157016D01*
X0016456Y0156937D01*
X0016437Y0156857D01*
X0016423Y0156776D01*
X0016412Y0156694D01*
X0016405Y0156612D01*
X0016401Y0156530D01*
D14*
X0018167Y0158500D02*
X0031167Y0158500D01*
X0029667Y0154000D02*
X0025967Y0154000D01*
X0023467Y0154000D02*
X0019667Y0154000D01*
X0018167Y0149500D02*
X0031167Y0149500D01*
X0024667Y0147500D02*
X0073667Y0147500D01*
X0073667Y0144000D01*
X0079667Y0144000D01*
X0079667Y0147500D01*
X0087167Y0147500D01*
X0087167Y0106500D01*
X0079667Y0106500D01*
X0079667Y0110000D01*
X0073667Y0110000D01*
X0073667Y0106500D01*
X0024667Y0106500D01*
X0024667Y0147500D01*
X0053009Y0176406D02*
X0060009Y0176406D01*
X0060069Y0176408D01*
X0060130Y0176413D01*
X0060189Y0176422D01*
X0060248Y0176435D01*
X0060307Y0176451D01*
X0060364Y0176471D01*
X0060419Y0176494D01*
X0060474Y0176521D01*
X0060526Y0176550D01*
X0060577Y0176583D01*
X0060626Y0176619D01*
X0060672Y0176657D01*
X0060716Y0176699D01*
X0060758Y0176743D01*
X0060796Y0176789D01*
X0060832Y0176838D01*
X0060865Y0176889D01*
X0060894Y0176941D01*
X0060921Y0176996D01*
X0060944Y0177051D01*
X0060964Y0177108D01*
X0060980Y0177167D01*
X0060993Y0177226D01*
X0061002Y0177285D01*
X0061007Y0177346D01*
X0061009Y0177406D01*
X0061009Y0178906D01*
X0060509Y0179406D01*
X0060509Y0198406D01*
X0061009Y0198906D01*
X0061009Y0200406D01*
X0061007Y0200466D01*
X0061002Y0200527D01*
X0060993Y0200586D01*
X0060980Y0200645D01*
X0060964Y0200704D01*
X0060944Y0200761D01*
X0060921Y0200816D01*
X0060894Y0200871D01*
X0060865Y0200923D01*
X0060832Y0200974D01*
X0060796Y0201023D01*
X0060758Y0201069D01*
X0060716Y0201113D01*
X0060672Y0201155D01*
X0060626Y0201193D01*
X0060577Y0201229D01*
X0060526Y0201262D01*
X0060474Y0201291D01*
X0060419Y0201318D01*
X0060364Y0201341D01*
X0060307Y0201361D01*
X0060248Y0201377D01*
X0060189Y0201390D01*
X0060130Y0201399D01*
X0060069Y0201404D01*
X0060009Y0201406D01*
X0053009Y0201406D01*
X0052949Y0201404D01*
X0052888Y0201399D01*
X0052829Y0201390D01*
X0052770Y0201377D01*
X0052711Y0201361D01*
X0052654Y0201341D01*
X0052599Y0201318D01*
X0052544Y0201291D01*
X0052492Y0201262D01*
X0052441Y0201229D01*
X0052392Y0201193D01*
X0052346Y0201155D01*
X0052302Y0201113D01*
X0052260Y0201069D01*
X0052222Y0201023D01*
X0052186Y0200974D01*
X0052153Y0200923D01*
X0052124Y0200871D01*
X0052097Y0200816D01*
X0052074Y0200761D01*
X0052054Y0200704D01*
X0052038Y0200645D01*
X0052025Y0200586D01*
X0052016Y0200527D01*
X0052011Y0200466D01*
X0052009Y0200406D01*
X0052009Y0198906D01*
X0052509Y0198406D01*
X0052509Y0179406D01*
X0052009Y0178906D01*
X0052009Y0177406D01*
X0052011Y0177346D01*
X0052016Y0177285D01*
X0052025Y0177226D01*
X0052038Y0177167D01*
X0052054Y0177108D01*
X0052074Y0177051D01*
X0052097Y0176996D01*
X0052124Y0176941D01*
X0052153Y0176889D01*
X0052186Y0176838D01*
X0052222Y0176789D01*
X0052260Y0176743D01*
X0052302Y0176699D01*
X0052346Y0176657D01*
X0052392Y0176619D01*
X0052441Y0176583D01*
X0052492Y0176550D01*
X0052544Y0176521D01*
X0052599Y0176494D01*
X0052654Y0176471D01*
X0052711Y0176451D01*
X0052770Y0176435D01*
X0052829Y0176422D01*
X0052888Y0176413D01*
X0052949Y0176408D01*
X0053009Y0176406D01*
X0063509Y0170406D02*
X0063509Y0167906D01*
X0063511Y0167846D01*
X0063516Y0167785D01*
X0063525Y0167726D01*
X0063538Y0167667D01*
X0063554Y0167608D01*
X0063574Y0167551D01*
X0063597Y0167496D01*
X0063624Y0167441D01*
X0063653Y0167389D01*
X0063686Y0167338D01*
X0063722Y0167289D01*
X0063760Y0167243D01*
X0063802Y0167199D01*
X0063846Y0167157D01*
X0063892Y0167119D01*
X0063941Y0167083D01*
X0063992Y0167050D01*
X0064044Y0167021D01*
X0064099Y0166994D01*
X0064154Y0166971D01*
X0064211Y0166951D01*
X0064270Y0166935D01*
X0064329Y0166922D01*
X0064388Y0166913D01*
X0064449Y0166908D01*
X0064509Y0166906D01*
X0074509Y0166906D01*
X0074569Y0166908D01*
X0074630Y0166913D01*
X0074689Y0166922D01*
X0074748Y0166935D01*
X0074807Y0166951D01*
X0074864Y0166971D01*
X0074919Y0166994D01*
X0074974Y0167021D01*
X0075026Y0167050D01*
X0075077Y0167083D01*
X0075126Y0167119D01*
X0075172Y0167157D01*
X0075216Y0167199D01*
X0075258Y0167243D01*
X0075296Y0167289D01*
X0075332Y0167338D01*
X0075365Y0167389D01*
X0075394Y0167441D01*
X0075421Y0167496D01*
X0075444Y0167551D01*
X0075464Y0167608D01*
X0075480Y0167667D01*
X0075493Y0167726D01*
X0075502Y0167785D01*
X0075507Y0167846D01*
X0075509Y0167906D01*
X0075509Y0170406D01*
X0075009Y0170906D01*
X0075009Y0196906D01*
X0075509Y0197406D01*
X0075509Y0199906D01*
X0075507Y0199966D01*
X0075502Y0200027D01*
X0075493Y0200086D01*
X0075480Y0200145D01*
X0075464Y0200204D01*
X0075444Y0200261D01*
X0075421Y0200316D01*
X0075394Y0200371D01*
X0075365Y0200423D01*
X0075332Y0200474D01*
X0075296Y0200523D01*
X0075258Y0200569D01*
X0075216Y0200613D01*
X0075172Y0200655D01*
X0075126Y0200693D01*
X0075077Y0200729D01*
X0075026Y0200762D01*
X0074974Y0200791D01*
X0074919Y0200818D01*
X0074864Y0200841D01*
X0074807Y0200861D01*
X0074748Y0200877D01*
X0074689Y0200890D01*
X0074630Y0200899D01*
X0074569Y0200904D01*
X0074509Y0200906D01*
X0064509Y0200906D01*
X0064449Y0200904D01*
X0064388Y0200899D01*
X0064329Y0200890D01*
X0064270Y0200877D01*
X0064211Y0200861D01*
X0064154Y0200841D01*
X0064099Y0200818D01*
X0064044Y0200791D01*
X0063992Y0200762D01*
X0063941Y0200729D01*
X0063892Y0200693D01*
X0063846Y0200655D01*
X0063802Y0200613D01*
X0063760Y0200569D01*
X0063722Y0200523D01*
X0063686Y0200474D01*
X0063653Y0200423D01*
X0063624Y0200371D01*
X0063597Y0200316D01*
X0063574Y0200261D01*
X0063554Y0200204D01*
X0063538Y0200145D01*
X0063525Y0200086D01*
X0063516Y0200027D01*
X0063511Y0199966D01*
X0063509Y0199906D01*
X0063509Y0197406D01*
X0064009Y0196906D01*
X0064009Y0170906D01*
X0063509Y0170406D01*
X0077698Y0170500D02*
X0077698Y0168000D01*
X0077700Y0167940D01*
X0077705Y0167879D01*
X0077714Y0167820D01*
X0077727Y0167761D01*
X0077743Y0167702D01*
X0077763Y0167645D01*
X0077786Y0167590D01*
X0077813Y0167535D01*
X0077842Y0167483D01*
X0077875Y0167432D01*
X0077911Y0167383D01*
X0077949Y0167337D01*
X0077991Y0167293D01*
X0078035Y0167251D01*
X0078081Y0167213D01*
X0078130Y0167177D01*
X0078181Y0167144D01*
X0078233Y0167115D01*
X0078288Y0167088D01*
X0078343Y0167065D01*
X0078400Y0167045D01*
X0078459Y0167029D01*
X0078518Y0167016D01*
X0078577Y0167007D01*
X0078638Y0167002D01*
X0078698Y0167000D01*
X0088698Y0167000D01*
X0088758Y0167002D01*
X0088819Y0167007D01*
X0088878Y0167016D01*
X0088937Y0167029D01*
X0088996Y0167045D01*
X0089053Y0167065D01*
X0089108Y0167088D01*
X0089163Y0167115D01*
X0089215Y0167144D01*
X0089266Y0167177D01*
X0089315Y0167213D01*
X0089361Y0167251D01*
X0089405Y0167293D01*
X0089447Y0167337D01*
X0089485Y0167383D01*
X0089521Y0167432D01*
X0089554Y0167483D01*
X0089583Y0167535D01*
X0089610Y0167590D01*
X0089633Y0167645D01*
X0089653Y0167702D01*
X0089669Y0167761D01*
X0089682Y0167820D01*
X0089691Y0167879D01*
X0089696Y0167940D01*
X0089698Y0168000D01*
X0089698Y0170500D01*
X0089198Y0171000D01*
X0089198Y0197000D01*
X0089698Y0197500D01*
X0089698Y0200000D01*
X0089696Y0200060D01*
X0089691Y0200121D01*
X0089682Y0200180D01*
X0089669Y0200239D01*
X0089653Y0200298D01*
X0089633Y0200355D01*
X0089610Y0200410D01*
X0089583Y0200465D01*
X0089554Y0200517D01*
X0089521Y0200568D01*
X0089485Y0200617D01*
X0089447Y0200663D01*
X0089405Y0200707D01*
X0089361Y0200749D01*
X0089315Y0200787D01*
X0089266Y0200823D01*
X0089215Y0200856D01*
X0089163Y0200885D01*
X0089108Y0200912D01*
X0089053Y0200935D01*
X0088996Y0200955D01*
X0088937Y0200971D01*
X0088878Y0200984D01*
X0088819Y0200993D01*
X0088758Y0200998D01*
X0088698Y0201000D01*
X0078698Y0201000D01*
X0078638Y0200998D01*
X0078577Y0200993D01*
X0078518Y0200984D01*
X0078459Y0200971D01*
X0078400Y0200955D01*
X0078343Y0200935D01*
X0078288Y0200912D01*
X0078233Y0200885D01*
X0078181Y0200856D01*
X0078130Y0200823D01*
X0078081Y0200787D01*
X0078035Y0200749D01*
X0077991Y0200707D01*
X0077949Y0200663D01*
X0077911Y0200617D01*
X0077875Y0200568D01*
X0077842Y0200517D01*
X0077813Y0200465D01*
X0077786Y0200410D01*
X0077763Y0200355D01*
X0077743Y0200298D01*
X0077727Y0200239D01*
X0077714Y0200180D01*
X0077705Y0200121D01*
X0077700Y0200060D01*
X0077698Y0200000D01*
X0077698Y0197500D01*
X0078198Y0197000D01*
X0078198Y0171000D01*
X0077698Y0170500D01*
X0092167Y0176500D02*
X0092167Y0178000D01*
X0092667Y0178500D01*
X0092667Y0197500D01*
X0092167Y0198000D01*
X0092167Y0199500D01*
X0092169Y0199560D01*
X0092174Y0199621D01*
X0092183Y0199680D01*
X0092196Y0199739D01*
X0092212Y0199798D01*
X0092232Y0199855D01*
X0092255Y0199910D01*
X0092282Y0199965D01*
X0092311Y0200017D01*
X0092344Y0200068D01*
X0092380Y0200117D01*
X0092418Y0200163D01*
X0092460Y0200207D01*
X0092504Y0200249D01*
X0092550Y0200287D01*
X0092599Y0200323D01*
X0092650Y0200356D01*
X0092702Y0200385D01*
X0092757Y0200412D01*
X0092812Y0200435D01*
X0092869Y0200455D01*
X0092928Y0200471D01*
X0092987Y0200484D01*
X0093046Y0200493D01*
X0093107Y0200498D01*
X0093167Y0200500D01*
X0100167Y0200500D01*
X0100227Y0200498D01*
X0100288Y0200493D01*
X0100347Y0200484D01*
X0100406Y0200471D01*
X0100465Y0200455D01*
X0100522Y0200435D01*
X0100577Y0200412D01*
X0100632Y0200385D01*
X0100684Y0200356D01*
X0100735Y0200323D01*
X0100784Y0200287D01*
X0100830Y0200249D01*
X0100874Y0200207D01*
X0100916Y0200163D01*
X0100954Y0200117D01*
X0100990Y0200068D01*
X0101023Y0200017D01*
X0101052Y0199965D01*
X0101079Y0199910D01*
X0101102Y0199855D01*
X0101122Y0199798D01*
X0101138Y0199739D01*
X0101151Y0199680D01*
X0101160Y0199621D01*
X0101165Y0199560D01*
X0101167Y0199500D01*
X0101167Y0198000D01*
X0100667Y0197500D01*
X0100667Y0178500D01*
X0101167Y0178000D01*
X0101167Y0176500D01*
X0101165Y0176440D01*
X0101160Y0176379D01*
X0101151Y0176320D01*
X0101138Y0176261D01*
X0101122Y0176202D01*
X0101102Y0176145D01*
X0101079Y0176090D01*
X0101052Y0176035D01*
X0101023Y0175983D01*
X0100990Y0175932D01*
X0100954Y0175883D01*
X0100916Y0175837D01*
X0100874Y0175793D01*
X0100830Y0175751D01*
X0100784Y0175713D01*
X0100735Y0175677D01*
X0100684Y0175644D01*
X0100632Y0175615D01*
X0100577Y0175588D01*
X0100522Y0175565D01*
X0100465Y0175545D01*
X0100406Y0175529D01*
X0100347Y0175516D01*
X0100288Y0175507D01*
X0100227Y0175502D01*
X0100167Y0175500D01*
X0093167Y0175500D01*
X0093107Y0175502D01*
X0093046Y0175507D01*
X0092987Y0175516D01*
X0092928Y0175529D01*
X0092869Y0175545D01*
X0092812Y0175565D01*
X0092757Y0175588D01*
X0092702Y0175615D01*
X0092650Y0175644D01*
X0092599Y0175677D01*
X0092550Y0175713D01*
X0092504Y0175751D01*
X0092460Y0175793D01*
X0092418Y0175837D01*
X0092380Y0175883D01*
X0092344Y0175932D01*
X0092311Y0175983D01*
X0092282Y0176035D01*
X0092255Y0176090D01*
X0092232Y0176145D01*
X0092212Y0176202D01*
X0092196Y0176261D01*
X0092183Y0176320D01*
X0092174Y0176379D01*
X0092169Y0176440D01*
X0092167Y0176500D01*
X0103167Y0176500D02*
X0103167Y0178000D01*
X0103667Y0178500D01*
X0103667Y0197500D01*
X0103167Y0198000D01*
X0103167Y0199500D01*
X0103169Y0199560D01*
X0103174Y0199621D01*
X0103183Y0199680D01*
X0103196Y0199739D01*
X0103212Y0199798D01*
X0103232Y0199855D01*
X0103255Y0199910D01*
X0103282Y0199965D01*
X0103311Y0200017D01*
X0103344Y0200068D01*
X0103380Y0200117D01*
X0103418Y0200163D01*
X0103460Y0200207D01*
X0103504Y0200249D01*
X0103550Y0200287D01*
X0103599Y0200323D01*
X0103650Y0200356D01*
X0103702Y0200385D01*
X0103757Y0200412D01*
X0103812Y0200435D01*
X0103869Y0200455D01*
X0103928Y0200471D01*
X0103987Y0200484D01*
X0104046Y0200493D01*
X0104107Y0200498D01*
X0104167Y0200500D01*
X0111167Y0200500D01*
X0111227Y0200498D01*
X0111288Y0200493D01*
X0111347Y0200484D01*
X0111406Y0200471D01*
X0111465Y0200455D01*
X0111522Y0200435D01*
X0111577Y0200412D01*
X0111632Y0200385D01*
X0111684Y0200356D01*
X0111735Y0200323D01*
X0111784Y0200287D01*
X0111830Y0200249D01*
X0111874Y0200207D01*
X0111916Y0200163D01*
X0111954Y0200117D01*
X0111990Y0200068D01*
X0112023Y0200017D01*
X0112052Y0199965D01*
X0112079Y0199910D01*
X0112102Y0199855D01*
X0112122Y0199798D01*
X0112138Y0199739D01*
X0112151Y0199680D01*
X0112160Y0199621D01*
X0112165Y0199560D01*
X0112167Y0199500D01*
X0112167Y0198000D01*
X0111667Y0197500D01*
X0111667Y0178500D01*
X0112167Y0178000D01*
X0112167Y0176500D01*
X0112165Y0176440D01*
X0112160Y0176379D01*
X0112151Y0176320D01*
X0112138Y0176261D01*
X0112122Y0176202D01*
X0112102Y0176145D01*
X0112079Y0176090D01*
X0112052Y0176035D01*
X0112023Y0175983D01*
X0111990Y0175932D01*
X0111954Y0175883D01*
X0111916Y0175837D01*
X0111874Y0175793D01*
X0111830Y0175751D01*
X0111784Y0175713D01*
X0111735Y0175677D01*
X0111684Y0175644D01*
X0111632Y0175615D01*
X0111577Y0175588D01*
X0111522Y0175565D01*
X0111465Y0175545D01*
X0111406Y0175529D01*
X0111347Y0175516D01*
X0111288Y0175507D01*
X0111227Y0175502D01*
X0111167Y0175500D01*
X0104167Y0175500D01*
X0104107Y0175502D01*
X0104046Y0175507D01*
X0103987Y0175516D01*
X0103928Y0175529D01*
X0103869Y0175545D01*
X0103812Y0175565D01*
X0103757Y0175588D01*
X0103702Y0175615D01*
X0103650Y0175644D01*
X0103599Y0175677D01*
X0103550Y0175713D01*
X0103504Y0175751D01*
X0103460Y0175793D01*
X0103418Y0175837D01*
X0103380Y0175883D01*
X0103344Y0175932D01*
X0103311Y0175983D01*
X0103282Y0176035D01*
X0103255Y0176090D01*
X0103232Y0176145D01*
X0103212Y0176202D01*
X0103196Y0176261D01*
X0103183Y0176320D01*
X0103174Y0176379D01*
X0103169Y0176440D01*
X0103167Y0176500D01*
X0118667Y0163000D02*
X0118667Y0133000D01*
X0119167Y0133000D01*
X0130167Y0133000D01*
X0130667Y0133000D01*
X0130667Y0163000D01*
X0130665Y0163060D01*
X0130660Y0163121D01*
X0130651Y0163180D01*
X0130638Y0163239D01*
X0130622Y0163298D01*
X0130602Y0163355D01*
X0130579Y0163410D01*
X0130552Y0163465D01*
X0130523Y0163517D01*
X0130490Y0163568D01*
X0130454Y0163617D01*
X0130416Y0163663D01*
X0130374Y0163707D01*
X0130330Y0163749D01*
X0130284Y0163787D01*
X0130235Y0163823D01*
X0130184Y0163856D01*
X0130132Y0163885D01*
X0130077Y0163912D01*
X0130022Y0163935D01*
X0129965Y0163955D01*
X0129906Y0163971D01*
X0129847Y0163984D01*
X0129788Y0163993D01*
X0129727Y0163998D01*
X0129667Y0164000D01*
X0119667Y0164000D01*
X0119607Y0163998D01*
X0119546Y0163993D01*
X0119487Y0163984D01*
X0119428Y0163971D01*
X0119369Y0163955D01*
X0119312Y0163935D01*
X0119257Y0163912D01*
X0119202Y0163885D01*
X0119150Y0163856D01*
X0119099Y0163823D01*
X0119050Y0163787D01*
X0119004Y0163749D01*
X0118960Y0163707D01*
X0118918Y0163663D01*
X0118880Y0163617D01*
X0118844Y0163568D01*
X0118811Y0163517D01*
X0118782Y0163465D01*
X0118755Y0163410D01*
X0118732Y0163355D01*
X0118712Y0163298D01*
X0118696Y0163239D01*
X0118683Y0163180D01*
X0118674Y0163121D01*
X0118669Y0163060D01*
X0118667Y0163000D01*
X0111167Y0152500D02*
X0104167Y0152500D01*
X0104107Y0152498D01*
X0104046Y0152493D01*
X0103987Y0152484D01*
X0103928Y0152471D01*
X0103869Y0152455D01*
X0103812Y0152435D01*
X0103757Y0152412D01*
X0103702Y0152385D01*
X0103650Y0152356D01*
X0103599Y0152323D01*
X0103550Y0152287D01*
X0103504Y0152249D01*
X0103460Y0152207D01*
X0103418Y0152163D01*
X0103380Y0152117D01*
X0103344Y0152068D01*
X0103311Y0152017D01*
X0103282Y0151965D01*
X0103255Y0151910D01*
X0103232Y0151855D01*
X0103212Y0151798D01*
X0103196Y0151739D01*
X0103183Y0151680D01*
X0103174Y0151621D01*
X0103169Y0151560D01*
X0103167Y0151500D01*
X0103167Y0150000D01*
X0103667Y0149500D01*
X0103667Y0130500D01*
X0103167Y0130000D01*
X0103167Y0128500D01*
X0103169Y0128440D01*
X0103174Y0128379D01*
X0103183Y0128320D01*
X0103196Y0128261D01*
X0103212Y0128202D01*
X0103232Y0128145D01*
X0103255Y0128090D01*
X0103282Y0128035D01*
X0103311Y0127983D01*
X0103344Y0127932D01*
X0103380Y0127883D01*
X0103418Y0127837D01*
X0103460Y0127793D01*
X0103504Y0127751D01*
X0103550Y0127713D01*
X0103599Y0127677D01*
X0103650Y0127644D01*
X0103702Y0127615D01*
X0103757Y0127588D01*
X0103812Y0127565D01*
X0103869Y0127545D01*
X0103928Y0127529D01*
X0103987Y0127516D01*
X0104046Y0127507D01*
X0104107Y0127502D01*
X0104167Y0127500D01*
X0111167Y0127500D01*
X0111227Y0127502D01*
X0111288Y0127507D01*
X0111347Y0127516D01*
X0111406Y0127529D01*
X0111465Y0127545D01*
X0111522Y0127565D01*
X0111577Y0127588D01*
X0111632Y0127615D01*
X0111684Y0127644D01*
X0111735Y0127677D01*
X0111784Y0127713D01*
X0111830Y0127751D01*
X0111874Y0127793D01*
X0111916Y0127837D01*
X0111954Y0127883D01*
X0111990Y0127932D01*
X0112023Y0127983D01*
X0112052Y0128035D01*
X0112079Y0128090D01*
X0112102Y0128145D01*
X0112122Y0128202D01*
X0112138Y0128261D01*
X0112151Y0128320D01*
X0112160Y0128379D01*
X0112165Y0128440D01*
X0112167Y0128500D01*
X0112167Y0130000D01*
X0111667Y0130500D01*
X0111667Y0149500D01*
X0112167Y0150000D01*
X0112167Y0151500D01*
X0112165Y0151560D01*
X0112160Y0151621D01*
X0112151Y0151680D01*
X0112138Y0151739D01*
X0112122Y0151798D01*
X0112102Y0151855D01*
X0112079Y0151910D01*
X0112052Y0151965D01*
X0112023Y0152017D01*
X0111990Y0152068D01*
X0111954Y0152117D01*
X0111916Y0152163D01*
X0111874Y0152207D01*
X0111830Y0152249D01*
X0111784Y0152287D01*
X0111735Y0152323D01*
X0111684Y0152356D01*
X0111632Y0152385D01*
X0111577Y0152412D01*
X0111522Y0152435D01*
X0111465Y0152455D01*
X0111406Y0152471D01*
X0111347Y0152484D01*
X0111288Y0152493D01*
X0111227Y0152498D01*
X0111167Y0152500D01*
X0121667Y0148500D02*
X0124667Y0148500D01*
X0127667Y0148500D01*
X0127667Y0147000D02*
X0121667Y0147000D01*
X0121667Y0145500D01*
X0127667Y0145500D01*
X0127667Y0147000D01*
X0127667Y0144000D02*
X0124667Y0144000D01*
X0124667Y0142000D01*
X0124667Y0144000D02*
X0121667Y0144000D01*
X0124667Y0148500D02*
X0124667Y0150500D01*
X0135667Y0148500D02*
X0135667Y0157000D01*
X0175667Y0157000D01*
X0175667Y0135000D01*
X0135667Y0135000D01*
X0135667Y0143500D01*
X0135765Y0143502D01*
X0135863Y0143508D01*
X0135961Y0143517D01*
X0136058Y0143531D01*
X0136155Y0143548D01*
X0136251Y0143569D01*
X0136346Y0143594D01*
X0136440Y0143622D01*
X0136532Y0143655D01*
X0136624Y0143690D01*
X0136714Y0143730D01*
X0136802Y0143772D01*
X0136889Y0143819D01*
X0136973Y0143868D01*
X0137056Y0143921D01*
X0137136Y0143977D01*
X0137215Y0144037D01*
X0137291Y0144099D01*
X0137364Y0144164D01*
X0137435Y0144232D01*
X0137503Y0144303D01*
X0137568Y0144376D01*
X0137630Y0144452D01*
X0137690Y0144531D01*
X0137746Y0144611D01*
X0137799Y0144694D01*
X0137848Y0144778D01*
X0137895Y0144865D01*
X0137937Y0144953D01*
X0137977Y0145043D01*
X0138012Y0145135D01*
X0138045Y0145227D01*
X0138073Y0145321D01*
X0138098Y0145416D01*
X0138119Y0145512D01*
X0138136Y0145609D01*
X0138150Y0145706D01*
X0138159Y0145804D01*
X0138165Y0145902D01*
X0138167Y0146000D01*
X0138165Y0146098D01*
X0138159Y0146196D01*
X0138150Y0146294D01*
X0138136Y0146391D01*
X0138119Y0146488D01*
X0138098Y0146584D01*
X0138073Y0146679D01*
X0138045Y0146773D01*
X0138012Y0146865D01*
X0137977Y0146957D01*
X0137937Y0147047D01*
X0137895Y0147135D01*
X0137848Y0147222D01*
X0137799Y0147306D01*
X0137746Y0147389D01*
X0137690Y0147469D01*
X0137630Y0147548D01*
X0137568Y0147624D01*
X0137503Y0147697D01*
X0137435Y0147768D01*
X0137364Y0147836D01*
X0137291Y0147901D01*
X0137215Y0147963D01*
X0137136Y0148023D01*
X0137056Y0148079D01*
X0136973Y0148132D01*
X0136889Y0148181D01*
X0136802Y0148228D01*
X0136714Y0148270D01*
X0136624Y0148310D01*
X0136532Y0148345D01*
X0136440Y0148378D01*
X0136346Y0148406D01*
X0136251Y0148431D01*
X0136155Y0148452D01*
X0136058Y0148469D01*
X0135961Y0148483D01*
X0135863Y0148492D01*
X0135765Y0148498D01*
X0135667Y0148500D01*
X0130167Y0133000D02*
X0130167Y0131500D01*
X0119167Y0131500D01*
X0119167Y0133000D01*
X0066567Y0127000D02*
X0066569Y0127174D01*
X0066576Y0127348D01*
X0066586Y0127522D01*
X0066601Y0127696D01*
X0066620Y0127869D01*
X0066644Y0128042D01*
X0066672Y0128214D01*
X0066703Y0128385D01*
X0066740Y0128556D01*
X0066780Y0128725D01*
X0066824Y0128894D01*
X0066873Y0129061D01*
X0066925Y0129227D01*
X0066982Y0129392D01*
X0067043Y0129555D01*
X0067107Y0129717D01*
X0067176Y0129877D01*
X0067249Y0130036D01*
X0067325Y0130192D01*
X0067405Y0130347D01*
X0067489Y0130500D01*
X0067577Y0130650D01*
X0067669Y0130798D01*
X0067764Y0130945D01*
X0067862Y0131088D01*
X0067964Y0131229D01*
X0068070Y0131368D01*
X0068179Y0131504D01*
X0068291Y0131638D01*
X0068406Y0131768D01*
X0068525Y0131896D01*
X0068647Y0132020D01*
X0068771Y0132142D01*
X0068899Y0132261D01*
X0069029Y0132376D01*
X0069163Y0132488D01*
X0069299Y0132597D01*
X0069438Y0132703D01*
X0069579Y0132805D01*
X0069722Y0132903D01*
X0069869Y0132998D01*
X0070017Y0133090D01*
X0070167Y0133178D01*
X0070320Y0133262D01*
X0070475Y0133342D01*
X0070631Y0133418D01*
X0070790Y0133491D01*
X0070950Y0133560D01*
X0071112Y0133624D01*
X0071275Y0133685D01*
X0071440Y0133742D01*
X0071606Y0133794D01*
X0071773Y0133843D01*
X0071942Y0133887D01*
X0072111Y0133927D01*
X0072282Y0133964D01*
X0072453Y0133995D01*
X0072625Y0134023D01*
X0072798Y0134047D01*
X0072971Y0134066D01*
X0073145Y0134081D01*
X0073319Y0134091D01*
X0073493Y0134098D01*
X0073667Y0134100D01*
X0073841Y0134098D01*
X0074015Y0134091D01*
X0074189Y0134081D01*
X0074363Y0134066D01*
X0074536Y0134047D01*
X0074709Y0134023D01*
X0074881Y0133995D01*
X0075052Y0133964D01*
X0075223Y0133927D01*
X0075392Y0133887D01*
X0075561Y0133843D01*
X0075728Y0133794D01*
X0075894Y0133742D01*
X0076059Y0133685D01*
X0076222Y0133624D01*
X0076384Y0133560D01*
X0076544Y0133491D01*
X0076703Y0133418D01*
X0076859Y0133342D01*
X0077014Y0133262D01*
X0077167Y0133178D01*
X0077317Y0133090D01*
X0077465Y0132998D01*
X0077612Y0132903D01*
X0077755Y0132805D01*
X0077896Y0132703D01*
X0078035Y0132597D01*
X0078171Y0132488D01*
X0078305Y0132376D01*
X0078435Y0132261D01*
X0078563Y0132142D01*
X0078687Y0132020D01*
X0078809Y0131896D01*
X0078928Y0131768D01*
X0079043Y0131638D01*
X0079155Y0131504D01*
X0079264Y0131368D01*
X0079370Y0131229D01*
X0079472Y0131088D01*
X0079570Y0130945D01*
X0079665Y0130798D01*
X0079757Y0130650D01*
X0079845Y0130500D01*
X0079929Y0130347D01*
X0080009Y0130192D01*
X0080085Y0130036D01*
X0080158Y0129877D01*
X0080227Y0129717D01*
X0080291Y0129555D01*
X0080352Y0129392D01*
X0080409Y0129227D01*
X0080461Y0129061D01*
X0080510Y0128894D01*
X0080554Y0128725D01*
X0080594Y0128556D01*
X0080631Y0128385D01*
X0080662Y0128214D01*
X0080690Y0128042D01*
X0080714Y0127869D01*
X0080733Y0127696D01*
X0080748Y0127522D01*
X0080758Y0127348D01*
X0080765Y0127174D01*
X0080767Y0127000D01*
X0080765Y0126826D01*
X0080758Y0126652D01*
X0080748Y0126478D01*
X0080733Y0126304D01*
X0080714Y0126131D01*
X0080690Y0125958D01*
X0080662Y0125786D01*
X0080631Y0125615D01*
X0080594Y0125444D01*
X0080554Y0125275D01*
X0080510Y0125106D01*
X0080461Y0124939D01*
X0080409Y0124773D01*
X0080352Y0124608D01*
X0080291Y0124445D01*
X0080227Y0124283D01*
X0080158Y0124123D01*
X0080085Y0123964D01*
X0080009Y0123808D01*
X0079929Y0123653D01*
X0079845Y0123500D01*
X0079757Y0123350D01*
X0079665Y0123202D01*
X0079570Y0123055D01*
X0079472Y0122912D01*
X0079370Y0122771D01*
X0079264Y0122632D01*
X0079155Y0122496D01*
X0079043Y0122362D01*
X0078928Y0122232D01*
X0078809Y0122104D01*
X0078687Y0121980D01*
X0078563Y0121858D01*
X0078435Y0121739D01*
X0078305Y0121624D01*
X0078171Y0121512D01*
X0078035Y0121403D01*
X0077896Y0121297D01*
X0077755Y0121195D01*
X0077612Y0121097D01*
X0077465Y0121002D01*
X0077317Y0120910D01*
X0077167Y0120822D01*
X0077014Y0120738D01*
X0076859Y0120658D01*
X0076703Y0120582D01*
X0076544Y0120509D01*
X0076384Y0120440D01*
X0076222Y0120376D01*
X0076059Y0120315D01*
X0075894Y0120258D01*
X0075728Y0120206D01*
X0075561Y0120157D01*
X0075392Y0120113D01*
X0075223Y0120073D01*
X0075052Y0120036D01*
X0074881Y0120005D01*
X0074709Y0119977D01*
X0074536Y0119953D01*
X0074363Y0119934D01*
X0074189Y0119919D01*
X0074015Y0119909D01*
X0073841Y0119902D01*
X0073667Y0119900D01*
X0073493Y0119902D01*
X0073319Y0119909D01*
X0073145Y0119919D01*
X0072971Y0119934D01*
X0072798Y0119953D01*
X0072625Y0119977D01*
X0072453Y0120005D01*
X0072282Y0120036D01*
X0072111Y0120073D01*
X0071942Y0120113D01*
X0071773Y0120157D01*
X0071606Y0120206D01*
X0071440Y0120258D01*
X0071275Y0120315D01*
X0071112Y0120376D01*
X0070950Y0120440D01*
X0070790Y0120509D01*
X0070631Y0120582D01*
X0070475Y0120658D01*
X0070320Y0120738D01*
X0070167Y0120822D01*
X0070017Y0120910D01*
X0069869Y0121002D01*
X0069722Y0121097D01*
X0069579Y0121195D01*
X0069438Y0121297D01*
X0069299Y0121403D01*
X0069163Y0121512D01*
X0069029Y0121624D01*
X0068899Y0121739D01*
X0068771Y0121858D01*
X0068647Y0121980D01*
X0068525Y0122104D01*
X0068406Y0122232D01*
X0068291Y0122362D01*
X0068179Y0122496D01*
X0068070Y0122632D01*
X0067964Y0122771D01*
X0067862Y0122912D01*
X0067764Y0123055D01*
X0067669Y0123202D01*
X0067577Y0123350D01*
X0067489Y0123500D01*
X0067405Y0123653D01*
X0067325Y0123808D01*
X0067249Y0123964D01*
X0067176Y0124123D01*
X0067107Y0124283D01*
X0067043Y0124445D01*
X0066982Y0124608D01*
X0066925Y0124773D01*
X0066873Y0124939D01*
X0066824Y0125106D01*
X0066780Y0125275D01*
X0066740Y0125444D01*
X0066703Y0125615D01*
X0066672Y0125786D01*
X0066644Y0125958D01*
X0066620Y0126131D01*
X0066601Y0126304D01*
X0066586Y0126478D01*
X0066576Y0126652D01*
X0066569Y0126826D01*
X0066567Y0127000D01*
X0123119Y0181949D02*
X0123119Y0194949D01*
X0127619Y0193449D02*
X0127619Y0189649D01*
X0127619Y0187149D02*
X0127619Y0183449D01*
X0132119Y0181949D02*
X0132119Y0194949D01*
X0187667Y0195500D02*
X0187667Y0190500D01*
X0190167Y0188000D01*
X0195167Y0188000D01*
X0197667Y0190500D01*
X0197667Y0195500D01*
X0195167Y0198000D01*
X0197667Y0200500D01*
X0197667Y0205500D01*
X0195167Y0208000D01*
X0190167Y0208000D01*
X0187667Y0205500D01*
X0187667Y0200500D01*
X0190167Y0198000D01*
X0195167Y0198000D01*
X0190167Y0198000D02*
X0187667Y0195500D01*
X0190167Y0188000D02*
X0187667Y0185500D01*
X0187667Y0180500D01*
X0190167Y0178000D01*
X0195167Y0178000D01*
X0197667Y0180500D01*
X0197667Y0185500D01*
X0195167Y0188000D01*
X0195167Y0178000D02*
X0197667Y0175500D01*
X0197667Y0170500D01*
X0195167Y0168000D01*
X0197667Y0165500D01*
X0197667Y0160500D01*
X0195167Y0158000D01*
X0197667Y0155500D01*
X0197667Y0150500D01*
X0195167Y0148000D01*
X0190167Y0148000D01*
X0187667Y0150500D01*
X0187667Y0155500D01*
X0190167Y0158000D01*
X0187667Y0160500D01*
X0187667Y0165500D01*
X0190167Y0168000D01*
X0195167Y0168000D01*
X0190167Y0168000D02*
X0187667Y0170500D01*
X0187667Y0175500D01*
X0190167Y0178000D01*
X0190167Y0158000D02*
X0195167Y0158000D01*
X0195167Y0142000D02*
X0190167Y0142000D01*
X0187667Y0139500D01*
X0187667Y0134500D01*
X0190167Y0132000D01*
X0187667Y0129500D01*
X0187667Y0124500D01*
X0190167Y0122000D01*
X0195167Y0122000D01*
X0197667Y0124500D01*
X0197667Y0129500D01*
X0195167Y0132000D01*
X0190167Y0132000D01*
X0195167Y0132000D02*
X0197667Y0134500D01*
X0197667Y0139500D01*
X0195167Y0142000D01*
X0195167Y0122000D02*
X0197667Y0119500D01*
X0197667Y0114500D01*
X0195167Y0112000D01*
X0197667Y0109500D01*
X0197667Y0104500D01*
X0195167Y0102000D01*
X0197667Y0099500D01*
X0197667Y0094500D01*
X0195167Y0092000D01*
X0197667Y0089500D01*
X0197667Y0084500D01*
X0195167Y0082000D01*
X0190167Y0082000D01*
X0187667Y0084500D01*
X0187667Y0089500D01*
X0190167Y0092000D01*
X0187667Y0094500D01*
X0187667Y0099500D01*
X0190167Y0102000D01*
X0187667Y0104500D01*
X0187667Y0109500D01*
X0190167Y0112000D01*
X0187667Y0114500D01*
X0187667Y0119500D01*
X0190167Y0122000D01*
X0190167Y0112000D02*
X0195167Y0112000D01*
X0195167Y0102000D02*
X0190167Y0102000D01*
X0190167Y0092000D02*
X0195167Y0092000D01*
X0058324Y0047701D02*
X0058324Y0046902D01*
X0058324Y0020902D01*
X0058324Y0011500D01*
X0019025Y0011500D01*
X0019025Y0020902D01*
X0019025Y0046902D01*
X0019025Y0047701D01*
X0058324Y0047701D01*
X0058324Y0046902D02*
X0019025Y0046902D01*
X0026824Y0041700D02*
X0026826Y0041789D01*
X0026832Y0041878D01*
X0026842Y0041967D01*
X0026856Y0042055D01*
X0026873Y0042142D01*
X0026895Y0042228D01*
X0026921Y0042314D01*
X0026950Y0042398D01*
X0026983Y0042481D01*
X0027019Y0042562D01*
X0027060Y0042642D01*
X0027103Y0042719D01*
X0027150Y0042795D01*
X0027201Y0042868D01*
X0027254Y0042939D01*
X0027311Y0043008D01*
X0027371Y0043074D01*
X0027434Y0043138D01*
X0027499Y0043198D01*
X0027567Y0043256D01*
X0027638Y0043310D01*
X0027711Y0043361D01*
X0027786Y0043409D01*
X0027863Y0043454D01*
X0027942Y0043495D01*
X0028023Y0043532D01*
X0028105Y0043566D01*
X0028189Y0043597D01*
X0028274Y0043623D01*
X0028360Y0043646D01*
X0028447Y0043664D01*
X0028535Y0043679D01*
X0028624Y0043690D01*
X0028713Y0043697D01*
X0028802Y0043700D01*
X0028891Y0043699D01*
X0028980Y0043694D01*
X0029068Y0043685D01*
X0029157Y0043672D01*
X0029244Y0043655D01*
X0029331Y0043635D01*
X0029417Y0043610D01*
X0029501Y0043582D01*
X0029584Y0043550D01*
X0029666Y0043514D01*
X0029746Y0043475D01*
X0029824Y0043432D01*
X0029900Y0043386D01*
X0029974Y0043336D01*
X0030046Y0043283D01*
X0030115Y0043227D01*
X0030182Y0043168D01*
X0030246Y0043106D01*
X0030307Y0043042D01*
X0030366Y0042974D01*
X0030421Y0042904D01*
X0030473Y0042832D01*
X0030522Y0042757D01*
X0030567Y0042681D01*
X0030609Y0042602D01*
X0030647Y0042522D01*
X0030682Y0042440D01*
X0030713Y0042356D01*
X0030741Y0042271D01*
X0030764Y0042185D01*
X0030784Y0042098D01*
X0030800Y0042011D01*
X0030812Y0041922D01*
X0030820Y0041834D01*
X0030824Y0041745D01*
X0030824Y0041655D01*
X0030820Y0041566D01*
X0030812Y0041478D01*
X0030800Y0041389D01*
X0030784Y0041302D01*
X0030764Y0041215D01*
X0030741Y0041129D01*
X0030713Y0041044D01*
X0030682Y0040960D01*
X0030647Y0040878D01*
X0030609Y0040798D01*
X0030567Y0040719D01*
X0030522Y0040643D01*
X0030473Y0040568D01*
X0030421Y0040496D01*
X0030366Y0040426D01*
X0030307Y0040358D01*
X0030246Y0040294D01*
X0030182Y0040232D01*
X0030115Y0040173D01*
X0030046Y0040117D01*
X0029974Y0040064D01*
X0029900Y0040014D01*
X0029824Y0039968D01*
X0029746Y0039925D01*
X0029666Y0039886D01*
X0029584Y0039850D01*
X0029501Y0039818D01*
X0029417Y0039790D01*
X0029331Y0039765D01*
X0029244Y0039745D01*
X0029157Y0039728D01*
X0029068Y0039715D01*
X0028980Y0039706D01*
X0028891Y0039701D01*
X0028802Y0039700D01*
X0028713Y0039703D01*
X0028624Y0039710D01*
X0028535Y0039721D01*
X0028447Y0039736D01*
X0028360Y0039754D01*
X0028274Y0039777D01*
X0028189Y0039803D01*
X0028105Y0039834D01*
X0028023Y0039868D01*
X0027942Y0039905D01*
X0027863Y0039946D01*
X0027786Y0039991D01*
X0027711Y0040039D01*
X0027638Y0040090D01*
X0027567Y0040144D01*
X0027499Y0040202D01*
X0027434Y0040262D01*
X0027371Y0040326D01*
X0027311Y0040392D01*
X0027254Y0040461D01*
X0027201Y0040532D01*
X0027150Y0040605D01*
X0027103Y0040681D01*
X0027060Y0040758D01*
X0027019Y0040838D01*
X0026983Y0040919D01*
X0026950Y0041002D01*
X0026921Y0041086D01*
X0026895Y0041172D01*
X0026873Y0041258D01*
X0026856Y0041345D01*
X0026842Y0041433D01*
X0026832Y0041522D01*
X0026826Y0041611D01*
X0026824Y0041700D01*
X0025324Y0020902D02*
X0019025Y0020902D01*
X0032324Y0020902D02*
X0045025Y0020902D01*
X0052025Y0020902D02*
X0058324Y0020902D01*
X0046524Y0041700D02*
X0046526Y0041789D01*
X0046532Y0041878D01*
X0046542Y0041967D01*
X0046556Y0042055D01*
X0046573Y0042142D01*
X0046595Y0042228D01*
X0046621Y0042314D01*
X0046650Y0042398D01*
X0046683Y0042481D01*
X0046719Y0042562D01*
X0046760Y0042642D01*
X0046803Y0042719D01*
X0046850Y0042795D01*
X0046901Y0042868D01*
X0046954Y0042939D01*
X0047011Y0043008D01*
X0047071Y0043074D01*
X0047134Y0043138D01*
X0047199Y0043198D01*
X0047267Y0043256D01*
X0047338Y0043310D01*
X0047411Y0043361D01*
X0047486Y0043409D01*
X0047563Y0043454D01*
X0047642Y0043495D01*
X0047723Y0043532D01*
X0047805Y0043566D01*
X0047889Y0043597D01*
X0047974Y0043623D01*
X0048060Y0043646D01*
X0048147Y0043664D01*
X0048235Y0043679D01*
X0048324Y0043690D01*
X0048413Y0043697D01*
X0048502Y0043700D01*
X0048591Y0043699D01*
X0048680Y0043694D01*
X0048768Y0043685D01*
X0048857Y0043672D01*
X0048944Y0043655D01*
X0049031Y0043635D01*
X0049117Y0043610D01*
X0049201Y0043582D01*
X0049284Y0043550D01*
X0049366Y0043514D01*
X0049446Y0043475D01*
X0049524Y0043432D01*
X0049600Y0043386D01*
X0049674Y0043336D01*
X0049746Y0043283D01*
X0049815Y0043227D01*
X0049882Y0043168D01*
X0049946Y0043106D01*
X0050007Y0043042D01*
X0050066Y0042974D01*
X0050121Y0042904D01*
X0050173Y0042832D01*
X0050222Y0042757D01*
X0050267Y0042681D01*
X0050309Y0042602D01*
X0050347Y0042522D01*
X0050382Y0042440D01*
X0050413Y0042356D01*
X0050441Y0042271D01*
X0050464Y0042185D01*
X0050484Y0042098D01*
X0050500Y0042011D01*
X0050512Y0041922D01*
X0050520Y0041834D01*
X0050524Y0041745D01*
X0050524Y0041655D01*
X0050520Y0041566D01*
X0050512Y0041478D01*
X0050500Y0041389D01*
X0050484Y0041302D01*
X0050464Y0041215D01*
X0050441Y0041129D01*
X0050413Y0041044D01*
X0050382Y0040960D01*
X0050347Y0040878D01*
X0050309Y0040798D01*
X0050267Y0040719D01*
X0050222Y0040643D01*
X0050173Y0040568D01*
X0050121Y0040496D01*
X0050066Y0040426D01*
X0050007Y0040358D01*
X0049946Y0040294D01*
X0049882Y0040232D01*
X0049815Y0040173D01*
X0049746Y0040117D01*
X0049674Y0040064D01*
X0049600Y0040014D01*
X0049524Y0039968D01*
X0049446Y0039925D01*
X0049366Y0039886D01*
X0049284Y0039850D01*
X0049201Y0039818D01*
X0049117Y0039790D01*
X0049031Y0039765D01*
X0048944Y0039745D01*
X0048857Y0039728D01*
X0048768Y0039715D01*
X0048680Y0039706D01*
X0048591Y0039701D01*
X0048502Y0039700D01*
X0048413Y0039703D01*
X0048324Y0039710D01*
X0048235Y0039721D01*
X0048147Y0039736D01*
X0048060Y0039754D01*
X0047974Y0039777D01*
X0047889Y0039803D01*
X0047805Y0039834D01*
X0047723Y0039868D01*
X0047642Y0039905D01*
X0047563Y0039946D01*
X0047486Y0039991D01*
X0047411Y0040039D01*
X0047338Y0040090D01*
X0047267Y0040144D01*
X0047199Y0040202D01*
X0047134Y0040262D01*
X0047071Y0040326D01*
X0047011Y0040392D01*
X0046954Y0040461D01*
X0046901Y0040532D01*
X0046850Y0040605D01*
X0046803Y0040681D01*
X0046760Y0040758D01*
X0046719Y0040838D01*
X0046683Y0040919D01*
X0046650Y0041002D01*
X0046621Y0041086D01*
X0046595Y0041172D01*
X0046573Y0041258D01*
X0046556Y0041345D01*
X0046542Y0041433D01*
X0046532Y0041522D01*
X0046526Y0041611D01*
X0046524Y0041700D01*
X0010336Y0186921D02*
X0010336Y0207079D01*
D15*
X0023467Y0157000D02*
X0023467Y0154000D01*
X0023467Y0151000D01*
X0025967Y0151000D02*
X0025967Y0154000D01*
X0025967Y0157000D01*
X0124619Y0187149D02*
X0127619Y0187149D01*
X0130619Y0187149D01*
X0130619Y0189649D02*
X0127619Y0189649D01*
X0124619Y0189649D01*
D16*
X0118417Y0191042D02*
X0113913Y0191042D01*
X0113913Y0193294D01*
X0114663Y0194045D01*
X0116165Y0194045D01*
X0116915Y0193294D01*
X0116915Y0191042D01*
X0116915Y0192543D02*
X0118417Y0194045D01*
X0117666Y0195646D02*
X0118417Y0196397D01*
X0118417Y0197898D01*
X0117666Y0198649D01*
X0116165Y0198649D01*
X0115414Y0197898D01*
X0115414Y0197147D01*
X0116165Y0195646D01*
X0113913Y0195646D01*
X0113913Y0198649D01*
X0095948Y0198398D02*
X0095948Y0196897D01*
X0095198Y0196146D01*
X0095948Y0194545D02*
X0094447Y0193043D01*
X0094447Y0193794D02*
X0094447Y0191542D01*
X0095948Y0191542D02*
X0091444Y0191542D01*
X0091444Y0193794D01*
X0092195Y0194545D01*
X0093696Y0194545D01*
X0094447Y0193794D01*
X0092195Y0196146D02*
X0091444Y0196897D01*
X0091444Y0198398D01*
X0092195Y0199149D01*
X0092946Y0199149D01*
X0093696Y0198398D01*
X0094447Y0199149D01*
X0095198Y0199149D01*
X0095948Y0198398D01*
X0093696Y0198398D02*
X0093696Y0197647D01*
X0088165Y0183856D02*
X0088165Y0180854D01*
X0085913Y0183106D01*
X0090417Y0183106D01*
X0090417Y0179253D02*
X0088915Y0177751D01*
X0088915Y0178502D02*
X0088915Y0176250D01*
X0090417Y0176250D02*
X0085913Y0176250D01*
X0085913Y0178502D01*
X0086663Y0179253D01*
X0088165Y0179253D01*
X0088915Y0178502D01*
X0067259Y0191948D02*
X0062755Y0191948D01*
X0062755Y0194200D01*
X0063506Y0194950D01*
X0065007Y0194950D01*
X0065758Y0194200D01*
X0065758Y0191948D01*
X0065758Y0193449D02*
X0067259Y0194950D01*
X0067259Y0196552D02*
X0067259Y0199554D01*
X0067259Y0198053D02*
X0062755Y0198053D01*
X0064257Y0196552D01*
X0054700Y0200887D02*
X0053949Y0200137D01*
X0050947Y0200137D01*
X0050196Y0200887D01*
X0050196Y0202389D01*
X0050947Y0203139D01*
X0053949Y0203139D01*
X0054700Y0202389D01*
X0054700Y0200887D01*
X0053199Y0201638D02*
X0054700Y0203139D01*
X0054700Y0204741D02*
X0054700Y0207743D01*
X0054700Y0206242D02*
X0050196Y0206242D01*
X0051698Y0204741D01*
X0037450Y0204622D02*
X0037450Y0203567D01*
X0033479Y0208596D02*
X0033264Y0208492D01*
X0033051Y0208383D01*
X0032841Y0208269D01*
X0032634Y0208150D01*
X0032429Y0208027D01*
X0032227Y0207899D01*
X0032028Y0207766D01*
X0031833Y0207629D01*
X0031640Y0207488D01*
X0031451Y0207342D01*
X0031450Y0207343D02*
X0031450Y0190846D01*
X0037450Y0193567D02*
X0037450Y0194622D01*
X0033573Y0189549D02*
X0033348Y0189656D01*
X0033125Y0189768D01*
X0032905Y0189885D01*
X0032688Y0190007D01*
X0032473Y0190135D01*
X0032262Y0190268D01*
X0032054Y0190405D01*
X0031850Y0190548D01*
X0031648Y0190695D01*
X0031451Y0190847D01*
X0042422Y0189594D02*
X0042652Y0189706D01*
X0042879Y0189823D01*
X0043103Y0189945D01*
X0043324Y0190073D01*
X0043541Y0190207D01*
X0043756Y0190345D01*
X0043967Y0190489D01*
X0044174Y0190638D01*
X0044378Y0190792D01*
X0044578Y0190950D01*
X0044774Y0191114D01*
X0044966Y0191282D01*
X0045154Y0191455D01*
X0045338Y0191633D01*
X0045517Y0191814D01*
X0045692Y0192001D01*
X0045862Y0192191D01*
X0046027Y0192385D01*
X0046188Y0192584D01*
X0046344Y0192786D01*
X0046495Y0192992D01*
X0046641Y0193202D01*
X0046781Y0193415D01*
X0046917Y0193631D01*
X0047047Y0193851D01*
X0047172Y0194074D01*
X0047291Y0194299D01*
X0047405Y0194528D01*
X0047513Y0194759D01*
X0047616Y0194993D01*
X0047713Y0195229D01*
X0047804Y0195468D01*
X0047889Y0195708D01*
X0047969Y0195951D01*
X0048042Y0196196D01*
X0048110Y0196442D01*
X0048171Y0196690D01*
X0048226Y0196939D01*
X0048276Y0197189D01*
X0048319Y0197441D01*
X0048356Y0197694D01*
X0048387Y0197947D01*
X0048412Y0198201D01*
X0048431Y0198456D01*
X0048443Y0198711D01*
X0048449Y0198966D01*
X0048449Y0199222D01*
X0048443Y0199477D01*
X0048431Y0199732D01*
X0048412Y0199987D01*
X0048387Y0200241D01*
X0048356Y0200494D01*
X0048319Y0200747D01*
X0048276Y0200999D01*
X0048226Y0201249D01*
X0048171Y0201498D01*
X0048110Y0201746D01*
X0048042Y0201992D01*
X0047969Y0202237D01*
X0047889Y0202480D01*
X0047804Y0202720D01*
X0047713Y0202959D01*
X0047616Y0203195D01*
X0047513Y0203429D01*
X0047405Y0203660D01*
X0047291Y0203889D01*
X0047172Y0204114D01*
X0047047Y0204337D01*
X0046917Y0204557D01*
X0046781Y0204773D01*
X0046641Y0204986D01*
X0046495Y0205196D01*
X0046344Y0205402D01*
X0046188Y0205604D01*
X0046027Y0205803D01*
X0045862Y0205997D01*
X0045692Y0206187D01*
X0045517Y0206374D01*
X0045338Y0206555D01*
X0045154Y0206733D01*
X0044966Y0206906D01*
X0044774Y0207074D01*
X0044578Y0207238D01*
X0044378Y0207396D01*
X0044174Y0207550D01*
X0043967Y0207699D01*
X0043756Y0207843D01*
X0043541Y0207981D01*
X0043324Y0208115D01*
X0043103Y0208243D01*
X0042879Y0208365D01*
X0042652Y0208482D01*
X0042422Y0208594D01*
X0058006Y0175262D02*
X0057255Y0174511D01*
X0057255Y0173010D01*
X0058006Y0172259D01*
X0058006Y0170658D02*
X0059507Y0170658D01*
X0060258Y0169907D01*
X0060258Y0167656D01*
X0060258Y0169157D02*
X0061759Y0170658D01*
X0061759Y0172259D02*
X0058757Y0175262D01*
X0058006Y0175262D01*
X0061759Y0175262D02*
X0061759Y0172259D01*
X0058006Y0170658D02*
X0057255Y0169907D01*
X0057255Y0167656D01*
X0061759Y0167656D01*
X0024023Y0163503D02*
X0023273Y0164254D01*
X0021771Y0164254D01*
X0021021Y0163503D01*
X0019419Y0163503D02*
X0018669Y0164254D01*
X0017167Y0164254D01*
X0016417Y0163503D01*
X0016417Y0160501D01*
X0017167Y0159750D01*
X0018669Y0159750D01*
X0019419Y0160501D01*
X0021021Y0159750D02*
X0024023Y0162753D01*
X0024023Y0163503D01*
X0024023Y0159750D02*
X0021021Y0159750D01*
X0011139Y0099685D02*
X0011139Y0060315D01*
X0070194Y0060315D01*
X0070194Y0099685D01*
X0011139Y0099685D01*
X0015667Y0088750D02*
X0015667Y0085000D01*
X0019417Y0085000D01*
X0019417Y0087500D01*
X0021917Y0087500D01*
X0021917Y0085000D01*
X0025667Y0085000D01*
X0025667Y0088750D01*
X0021917Y0085000D02*
X0021917Y0082500D01*
X0019417Y0082500D01*
X0019417Y0085000D01*
X0015667Y0080000D02*
X0015667Y0071250D01*
X0015667Y0080000D02*
X0044417Y0080000D01*
X0044417Y0078750D01*
X0046917Y0077500D01*
X0065667Y0077500D01*
X0065667Y0088750D01*
X0079643Y0088795D02*
X0079643Y0063205D01*
X0079643Y0063008D02*
X0097753Y0063008D01*
X0111267Y0065820D02*
X0112018Y0065069D01*
X0115020Y0065069D01*
X0115771Y0065820D01*
X0115771Y0067321D01*
X0115020Y0068071D01*
X0113519Y0068071D01*
X0113519Y0066570D01*
X0112018Y0068071D02*
X0111267Y0067321D01*
X0111267Y0065820D01*
X0112768Y0069673D02*
X0111267Y0071174D01*
X0115771Y0071174D01*
X0115771Y0069673D02*
X0115771Y0072675D01*
X0127212Y0075726D02*
X0131716Y0075726D01*
X0131716Y0078728D01*
X0131716Y0080329D02*
X0131716Y0082581D01*
X0130965Y0083332D01*
X0130215Y0083332D01*
X0129464Y0082581D01*
X0129464Y0080329D01*
X0131716Y0080329D02*
X0127212Y0080329D01*
X0127212Y0082581D01*
X0127963Y0083332D01*
X0128713Y0083332D01*
X0129464Y0082581D01*
X0131716Y0084933D02*
X0127212Y0084933D01*
X0128713Y0086435D01*
X0127212Y0087936D01*
X0131716Y0087936D01*
X0127212Y0078728D02*
X0127212Y0075726D01*
X0129464Y0075726D02*
X0129464Y0077227D01*
X0132467Y0074124D02*
X0132467Y0071122D01*
X0131716Y0069520D02*
X0131716Y0066518D01*
X0128713Y0069520D01*
X0127963Y0069520D01*
X0127212Y0068770D01*
X0127212Y0067268D01*
X0127963Y0066518D01*
X0127963Y0064916D02*
X0128713Y0064916D01*
X0129464Y0064166D01*
X0130215Y0064916D01*
X0130965Y0064916D01*
X0131716Y0064166D01*
X0131716Y0062664D01*
X0130965Y0061914D01*
X0130965Y0060312D02*
X0131716Y0059562D01*
X0131716Y0058060D01*
X0130965Y0057310D01*
X0127963Y0060312D01*
X0130965Y0060312D01*
X0130965Y0057310D02*
X0127963Y0057310D01*
X0127212Y0058060D01*
X0127212Y0059562D01*
X0127963Y0060312D01*
X0127963Y0061914D02*
X0127212Y0062664D01*
X0127212Y0064166D01*
X0127963Y0064916D01*
X0129464Y0064166D02*
X0129464Y0063415D01*
X0128713Y0055708D02*
X0127963Y0055708D01*
X0127212Y0054958D01*
X0127212Y0053457D01*
X0127963Y0052706D01*
X0127963Y0051105D02*
X0129464Y0051105D01*
X0130215Y0050354D01*
X0130215Y0048102D01*
X0131716Y0048102D02*
X0127212Y0048102D01*
X0127212Y0050354D01*
X0127963Y0051105D01*
X0130215Y0049603D02*
X0131716Y0051105D01*
X0131716Y0052706D02*
X0128713Y0055708D01*
X0131716Y0055708D02*
X0131716Y0052706D01*
X0130965Y0046501D02*
X0131716Y0045750D01*
X0131716Y0044249D01*
X0130965Y0043498D01*
X0127963Y0043498D01*
X0127212Y0044249D01*
X0127212Y0045750D01*
X0127963Y0046501D01*
X0149495Y0065144D02*
X0153999Y0065144D01*
X0153999Y0068146D01*
X0153999Y0069748D02*
X0153999Y0071249D01*
X0153999Y0070498D02*
X0150997Y0070498D01*
X0150997Y0069748D01*
X0149495Y0070498D02*
X0148745Y0070498D01*
X0150997Y0072817D02*
X0150997Y0074318D01*
X0150246Y0073568D02*
X0153249Y0073568D01*
X0153999Y0074318D01*
X0153999Y0075886D02*
X0153249Y0075886D01*
X0153249Y0076637D01*
X0153999Y0076637D01*
X0153999Y0075886D01*
X0153249Y0078188D02*
X0153999Y0078939D01*
X0153999Y0080440D01*
X0153249Y0081191D01*
X0152498Y0081191D01*
X0151747Y0080440D01*
X0151747Y0079689D01*
X0151747Y0080440D02*
X0150997Y0081191D01*
X0150246Y0081191D01*
X0149495Y0080440D01*
X0149495Y0078939D01*
X0150246Y0078188D01*
X0149495Y0082792D02*
X0152498Y0082792D01*
X0153999Y0084293D01*
X0152498Y0085795D01*
X0149495Y0085795D01*
X0095785Y0076000D02*
X0095799Y0077101D01*
X0095839Y0078202D01*
X0095907Y0079302D01*
X0096001Y0080399D01*
X0096123Y0081494D01*
X0096271Y0082586D01*
X0096446Y0083673D01*
X0096647Y0084756D01*
X0096876Y0085834D01*
X0097130Y0086905D01*
X0097411Y0087971D01*
X0097718Y0089029D01*
X0098050Y0090079D01*
X0098409Y0091120D01*
X0098792Y0092153D01*
X0099201Y0093176D01*
X0099635Y0094188D01*
X0100094Y0095190D01*
X0100577Y0096179D01*
X0101085Y0097157D01*
X0101616Y0098122D01*
X0102170Y0099074D01*
X0102748Y0100012D01*
X0103349Y0100935D01*
X0103972Y0101843D01*
X0104617Y0102736D01*
X0105284Y0103613D01*
X0105973Y0104473D01*
X0106682Y0105316D01*
X0107412Y0106141D01*
X0108161Y0106948D01*
X0108931Y0107736D01*
X0109719Y0108506D01*
X0110526Y0109255D01*
X0111351Y0109985D01*
X0112194Y0110694D01*
X0113054Y0111383D01*
X0113931Y0112050D01*
X0114824Y0112695D01*
X0115732Y0113318D01*
X0116655Y0113919D01*
X0117593Y0114497D01*
X0118545Y0115051D01*
X0119510Y0115582D01*
X0120488Y0116090D01*
X0121477Y0116573D01*
X0122479Y0117032D01*
X0123491Y0117466D01*
X0124514Y0117875D01*
X0125547Y0118258D01*
X0126588Y0118617D01*
X0127638Y0118949D01*
X0128696Y0119256D01*
X0129762Y0119537D01*
X0130833Y0119791D01*
X0131911Y0120020D01*
X0132994Y0120221D01*
X0134081Y0120396D01*
X0135173Y0120544D01*
X0136268Y0120666D01*
X0137365Y0120760D01*
X0138465Y0120828D01*
X0139566Y0120868D01*
X0140667Y0120882D01*
X0141768Y0120868D01*
X0142869Y0120828D01*
X0143969Y0120760D01*
X0145066Y0120666D01*
X0146161Y0120544D01*
X0147253Y0120396D01*
X0148340Y0120221D01*
X0149423Y0120020D01*
X0150501Y0119791D01*
X0151572Y0119537D01*
X0152638Y0119256D01*
X0153696Y0118949D01*
X0154746Y0118617D01*
X0155787Y0118258D01*
X0156820Y0117875D01*
X0157843Y0117466D01*
X0158855Y0117032D01*
X0159857Y0116573D01*
X0160846Y0116090D01*
X0161824Y0115582D01*
X0162789Y0115051D01*
X0163741Y0114497D01*
X0164679Y0113919D01*
X0165602Y0113318D01*
X0166510Y0112695D01*
X0167403Y0112050D01*
X0168280Y0111383D01*
X0169140Y0110694D01*
X0169983Y0109985D01*
X0170808Y0109255D01*
X0171615Y0108506D01*
X0172403Y0107736D01*
X0173173Y0106948D01*
X0173922Y0106141D01*
X0174652Y0105316D01*
X0175361Y0104473D01*
X0176050Y0103613D01*
X0176717Y0102736D01*
X0177362Y0101843D01*
X0177985Y0100935D01*
X0178586Y0100012D01*
X0179164Y0099074D01*
X0179718Y0098122D01*
X0180249Y0097157D01*
X0180757Y0096179D01*
X0181240Y0095190D01*
X0181699Y0094188D01*
X0182133Y0093176D01*
X0182542Y0092153D01*
X0182925Y0091120D01*
X0183284Y0090079D01*
X0183616Y0089029D01*
X0183923Y0087971D01*
X0184204Y0086905D01*
X0184458Y0085834D01*
X0184687Y0084756D01*
X0184888Y0083673D01*
X0185063Y0082586D01*
X0185211Y0081494D01*
X0185333Y0080399D01*
X0185427Y0079302D01*
X0185495Y0078202D01*
X0185535Y0077101D01*
X0185549Y0076000D01*
X0185535Y0074899D01*
X0185495Y0073798D01*
X0185427Y0072698D01*
X0185333Y0071601D01*
X0185211Y0070506D01*
X0185063Y0069414D01*
X0184888Y0068327D01*
X0184687Y0067244D01*
X0184458Y0066166D01*
X0184204Y0065095D01*
X0183923Y0064029D01*
X0183616Y0062971D01*
X0183284Y0061921D01*
X0182925Y0060880D01*
X0182542Y0059847D01*
X0182133Y0058824D01*
X0181699Y0057812D01*
X0181240Y0056810D01*
X0180757Y0055821D01*
X0180249Y0054843D01*
X0179718Y0053878D01*
X0179164Y0052926D01*
X0178586Y0051988D01*
X0177985Y0051065D01*
X0177362Y0050157D01*
X0176717Y0049264D01*
X0176050Y0048387D01*
X0175361Y0047527D01*
X0174652Y0046684D01*
X0173922Y0045859D01*
X0173173Y0045052D01*
X0172403Y0044264D01*
X0171615Y0043494D01*
X0170808Y0042745D01*
X0169983Y0042015D01*
X0169140Y0041306D01*
X0168280Y0040617D01*
X0167403Y0039950D01*
X0166510Y0039305D01*
X0165602Y0038682D01*
X0164679Y0038081D01*
X0163741Y0037503D01*
X0162789Y0036949D01*
X0161824Y0036418D01*
X0160846Y0035910D01*
X0159857Y0035427D01*
X0158855Y0034968D01*
X0157843Y0034534D01*
X0156820Y0034125D01*
X0155787Y0033742D01*
X0154746Y0033383D01*
X0153696Y0033051D01*
X0152638Y0032744D01*
X0151572Y0032463D01*
X0150501Y0032209D01*
X0149423Y0031980D01*
X0148340Y0031779D01*
X0147253Y0031604D01*
X0146161Y0031456D01*
X0145066Y0031334D01*
X0143969Y0031240D01*
X0142869Y0031172D01*
X0141768Y0031132D01*
X0140667Y0031118D01*
X0139566Y0031132D01*
X0138465Y0031172D01*
X0137365Y0031240D01*
X0136268Y0031334D01*
X0135173Y0031456D01*
X0134081Y0031604D01*
X0132994Y0031779D01*
X0131911Y0031980D01*
X0130833Y0032209D01*
X0129762Y0032463D01*
X0128696Y0032744D01*
X0127638Y0033051D01*
X0126588Y0033383D01*
X0125547Y0033742D01*
X0124514Y0034125D01*
X0123491Y0034534D01*
X0122479Y0034968D01*
X0121477Y0035427D01*
X0120488Y0035910D01*
X0119510Y0036418D01*
X0118545Y0036949D01*
X0117593Y0037503D01*
X0116655Y0038081D01*
X0115732Y0038682D01*
X0114824Y0039305D01*
X0113931Y0039950D01*
X0113054Y0040617D01*
X0112194Y0041306D01*
X0111351Y0042015D01*
X0110526Y0042745D01*
X0109719Y0043494D01*
X0108931Y0044264D01*
X0108161Y0045052D01*
X0107412Y0045859D01*
X0106682Y0046684D01*
X0105973Y0047527D01*
X0105284Y0048387D01*
X0104617Y0049264D01*
X0103972Y0050157D01*
X0103349Y0051065D01*
X0102748Y0051988D01*
X0102170Y0052926D01*
X0101616Y0053878D01*
X0101085Y0054843D01*
X0100577Y0055821D01*
X0100094Y0056810D01*
X0099635Y0057812D01*
X0099201Y0058824D01*
X0098792Y0059847D01*
X0098409Y0060880D01*
X0098050Y0061921D01*
X0097718Y0062971D01*
X0097411Y0064029D01*
X0097130Y0065095D01*
X0096876Y0066166D01*
X0096647Y0067244D01*
X0096446Y0068327D01*
X0096271Y0069414D01*
X0096123Y0070506D01*
X0096001Y0071601D01*
X0095907Y0072698D01*
X0095839Y0073798D01*
X0095799Y0074899D01*
X0095785Y0076000D01*
X0097753Y0088992D02*
X0079643Y0088992D01*
X0044417Y0076250D02*
X0044417Y0075000D01*
X0025667Y0075000D01*
X0025667Y0071250D01*
X0022575Y0040254D02*
X0022575Y0035750D01*
X0021074Y0035750D02*
X0024077Y0035750D01*
X0021074Y0038753D02*
X0022575Y0040254D01*
X0040574Y0039503D02*
X0041325Y0040254D01*
X0042826Y0040254D01*
X0043577Y0039503D01*
X0043577Y0038753D01*
X0040574Y0035750D01*
X0043577Y0035750D01*
X0030630Y0018054D02*
X0028378Y0018054D01*
X0028378Y0013550D01*
X0028378Y0015051D02*
X0030630Y0015051D01*
X0031381Y0015802D01*
X0031381Y0017303D01*
X0030630Y0018054D01*
X0026777Y0017303D02*
X0026777Y0015802D01*
X0026026Y0015051D01*
X0023774Y0015051D01*
X0023774Y0013550D02*
X0023774Y0018054D01*
X0026026Y0018054D01*
X0026777Y0017303D01*
X0113163Y0133250D02*
X0112413Y0134001D01*
X0112413Y0135502D01*
X0113163Y0136253D01*
X0116166Y0136253D01*
X0116917Y0135502D01*
X0116917Y0134001D01*
X0116166Y0133250D01*
X0113163Y0133250D01*
X0115415Y0134751D02*
X0116917Y0136253D01*
X0116917Y0137854D02*
X0113914Y0140856D01*
X0113163Y0140856D01*
X0112413Y0140106D01*
X0112413Y0138605D01*
X0113163Y0137854D01*
X0116917Y0137854D02*
X0116917Y0140856D01*
X0116915Y0143042D02*
X0116915Y0145294D01*
X0116165Y0146045D01*
X0114663Y0146045D01*
X0113913Y0145294D01*
X0113913Y0143042D01*
X0118417Y0143042D01*
X0116915Y0144543D02*
X0118417Y0146045D01*
X0117666Y0147646D02*
X0118417Y0148397D01*
X0118417Y0149898D01*
X0117666Y0150649D01*
X0116915Y0150649D01*
X0116165Y0149898D01*
X0116165Y0147646D01*
X0117666Y0147646D01*
X0116165Y0147646D02*
X0114663Y0149147D01*
X0113913Y0150649D01*
X0129813Y0146175D02*
X0129813Y0144674D01*
X0130563Y0143923D01*
X0130563Y0142322D02*
X0129813Y0141571D01*
X0129813Y0140070D01*
X0130563Y0139319D01*
X0133566Y0139319D01*
X0134317Y0140070D01*
X0134317Y0141571D01*
X0133566Y0142322D01*
X0134317Y0143923D02*
X0131314Y0146926D01*
X0130563Y0146926D01*
X0129813Y0146175D01*
X0134317Y0146926D02*
X0134317Y0143923D01*
X0134317Y0137751D02*
X0134317Y0136250D01*
X0134317Y0137001D02*
X0129813Y0137001D01*
X0129813Y0137751D02*
X0129813Y0136250D01*
X0128413Y0174250D02*
X0132166Y0174250D01*
X0132917Y0175001D01*
X0132917Y0176502D01*
X0132166Y0177253D01*
X0128413Y0177253D01*
X0129914Y0178854D02*
X0128413Y0180355D01*
X0132917Y0180355D01*
X0132917Y0178854D02*
X0132917Y0181856D01*
X0134116Y0187991D02*
X0137119Y0187991D01*
X0137869Y0188742D01*
X0137869Y0190243D01*
X0137119Y0190994D01*
X0137119Y0192595D02*
X0137869Y0193346D01*
X0137869Y0194847D01*
X0137119Y0195597D01*
X0136368Y0195597D01*
X0135617Y0194847D01*
X0135617Y0194096D01*
X0135617Y0194847D02*
X0134867Y0195597D01*
X0134116Y0195597D01*
X0133366Y0194847D01*
X0133366Y0193346D01*
X0134116Y0192595D01*
X0134116Y0190994D02*
X0133366Y0190243D01*
X0133366Y0188742D01*
X0134116Y0187991D01*
X0180713Y0158659D02*
X0182214Y0157158D01*
X0181463Y0155556D02*
X0182965Y0155556D01*
X0183715Y0154806D01*
X0183715Y0152554D01*
X0185217Y0152554D02*
X0180713Y0152554D01*
X0180713Y0154806D01*
X0181463Y0155556D01*
X0180713Y0158659D02*
X0185217Y0158659D01*
X0185217Y0157158D02*
X0185217Y0160160D01*
X0184466Y0150202D02*
X0180713Y0150202D01*
X0180713Y0149451D02*
X0180713Y0150953D01*
X0184466Y0150202D02*
X0185217Y0149451D01*
X0185217Y0148701D01*
X0184466Y0147950D01*
X0200113Y0140198D02*
X0200113Y0138697D01*
X0200863Y0137946D01*
X0200863Y0136345D02*
X0202365Y0136345D01*
X0203115Y0135594D01*
X0203115Y0133342D01*
X0204617Y0133342D02*
X0200113Y0133342D01*
X0200113Y0135594D01*
X0200863Y0136345D01*
X0200113Y0140198D02*
X0200863Y0140949D01*
X0201614Y0140949D01*
X0204617Y0137946D01*
X0204617Y0140949D01*
X0203866Y0130990D02*
X0200113Y0130990D01*
X0200113Y0130239D02*
X0200113Y0131741D01*
X0203866Y0130990D02*
X0204617Y0130239D01*
X0204617Y0129489D01*
X0203866Y0128738D01*
D17*
X0175667Y0179000D02*
X0135667Y0179000D01*
X0135667Y0183000D01*
X0135667Y0185000D01*
X0135667Y0183000D02*
X0135667Y0199000D01*
X0175667Y0199000D01*
X0175667Y0179000D01*
X0049509Y0179220D02*
X0049509Y0159220D01*
X0046509Y0159220D01*
X0046509Y0158220D01*
X0046509Y0159220D02*
X0043509Y0159220D01*
X0043509Y0179220D01*
X0046509Y0179220D01*
X0046509Y0180220D01*
X0046509Y0179220D02*
X0049509Y0179220D01*
X0049009Y0161720D02*
X0044009Y0161720D01*
X0026667Y0166500D02*
X0022667Y0166500D01*
X0009824Y0172000D02*
X0009827Y0172242D01*
X0009836Y0172483D01*
X0009851Y0172724D01*
X0009871Y0172965D01*
X0009898Y0173205D01*
X0009931Y0173444D01*
X0009969Y0173683D01*
X0010013Y0173920D01*
X0010063Y0174157D01*
X0010119Y0174392D01*
X0010181Y0174625D01*
X0010248Y0174857D01*
X0010321Y0175088D01*
X0010399Y0175316D01*
X0010484Y0175542D01*
X0010573Y0175767D01*
X0010668Y0175989D01*
X0010769Y0176208D01*
X0010875Y0176426D01*
X0010986Y0176640D01*
X0011103Y0176852D01*
X0011224Y0177060D01*
X0011351Y0177266D01*
X0011483Y0177468D01*
X0011620Y0177668D01*
X0011761Y0177863D01*
X0011907Y0178056D01*
X0012058Y0178244D01*
X0012214Y0178429D01*
X0012374Y0178610D01*
X0012538Y0178787D01*
X0012707Y0178960D01*
X0012880Y0179129D01*
X0013057Y0179293D01*
X0013238Y0179453D01*
X0013423Y0179609D01*
X0013611Y0179760D01*
X0013804Y0179906D01*
X0013999Y0180047D01*
X0014199Y0180184D01*
X0014401Y0180316D01*
X0014607Y0180443D01*
X0014815Y0180564D01*
X0015027Y0180681D01*
X0015241Y0180792D01*
X0015459Y0180898D01*
X0015678Y0180999D01*
X0015900Y0181094D01*
X0016125Y0181183D01*
X0016351Y0181268D01*
X0016579Y0181346D01*
X0016810Y0181419D01*
X0017042Y0181486D01*
X0017275Y0181548D01*
X0017510Y0181604D01*
X0017747Y0181654D01*
X0017984Y0181698D01*
X0018223Y0181736D01*
X0018462Y0181769D01*
X0018702Y0181796D01*
X0018943Y0181816D01*
X0019184Y0181831D01*
X0019425Y0181840D01*
X0019667Y0181843D01*
X0019909Y0181840D01*
X0020150Y0181831D01*
X0020391Y0181816D01*
X0020632Y0181796D01*
X0020872Y0181769D01*
X0021111Y0181736D01*
X0021350Y0181698D01*
X0021587Y0181654D01*
X0021824Y0181604D01*
X0022059Y0181548D01*
X0022292Y0181486D01*
X0022524Y0181419D01*
X0022755Y0181346D01*
X0022983Y0181268D01*
X0023209Y0181183D01*
X0023434Y0181094D01*
X0023656Y0180999D01*
X0023875Y0180898D01*
X0024093Y0180792D01*
X0024307Y0180681D01*
X0024519Y0180564D01*
X0024727Y0180443D01*
X0024933Y0180316D01*
X0025135Y0180184D01*
X0025335Y0180047D01*
X0025530Y0179906D01*
X0025723Y0179760D01*
X0025911Y0179609D01*
X0026096Y0179453D01*
X0026277Y0179293D01*
X0026454Y0179129D01*
X0026627Y0178960D01*
X0026796Y0178787D01*
X0026960Y0178610D01*
X0027120Y0178429D01*
X0027276Y0178244D01*
X0027427Y0178056D01*
X0027573Y0177863D01*
X0027714Y0177668D01*
X0027851Y0177468D01*
X0027983Y0177266D01*
X0028110Y0177060D01*
X0028231Y0176852D01*
X0028348Y0176640D01*
X0028459Y0176426D01*
X0028565Y0176208D01*
X0028666Y0175989D01*
X0028761Y0175767D01*
X0028850Y0175542D01*
X0028935Y0175316D01*
X0029013Y0175088D01*
X0029086Y0174857D01*
X0029153Y0174625D01*
X0029215Y0174392D01*
X0029271Y0174157D01*
X0029321Y0173920D01*
X0029365Y0173683D01*
X0029403Y0173444D01*
X0029436Y0173205D01*
X0029463Y0172965D01*
X0029483Y0172724D01*
X0029498Y0172483D01*
X0029507Y0172242D01*
X0029510Y0172000D01*
X0029507Y0171758D01*
X0029498Y0171517D01*
X0029483Y0171276D01*
X0029463Y0171035D01*
X0029436Y0170795D01*
X0029403Y0170556D01*
X0029365Y0170317D01*
X0029321Y0170080D01*
X0029271Y0169843D01*
X0029215Y0169608D01*
X0029153Y0169375D01*
X0029086Y0169143D01*
X0029013Y0168912D01*
X0028935Y0168684D01*
X0028850Y0168458D01*
X0028761Y0168233D01*
X0028666Y0168011D01*
X0028565Y0167792D01*
X0028459Y0167574D01*
X0028348Y0167360D01*
X0028231Y0167148D01*
X0028110Y0166940D01*
X0027983Y0166734D01*
X0027851Y0166532D01*
X0027714Y0166332D01*
X0027573Y0166137D01*
X0027427Y0165944D01*
X0027276Y0165756D01*
X0027120Y0165571D01*
X0026960Y0165390D01*
X0026796Y0165213D01*
X0026627Y0165040D01*
X0026454Y0164871D01*
X0026277Y0164707D01*
X0026096Y0164547D01*
X0025911Y0164391D01*
X0025723Y0164240D01*
X0025530Y0164094D01*
X0025335Y0163953D01*
X0025135Y0163816D01*
X0024933Y0163684D01*
X0024727Y0163557D01*
X0024519Y0163436D01*
X0024307Y0163319D01*
X0024093Y0163208D01*
X0023875Y0163102D01*
X0023656Y0163001D01*
X0023434Y0162906D01*
X0023209Y0162817D01*
X0022983Y0162732D01*
X0022755Y0162654D01*
X0022524Y0162581D01*
X0022292Y0162514D01*
X0022059Y0162452D01*
X0021824Y0162396D01*
X0021587Y0162346D01*
X0021350Y0162302D01*
X0021111Y0162264D01*
X0020872Y0162231D01*
X0020632Y0162204D01*
X0020391Y0162184D01*
X0020150Y0162169D01*
X0019909Y0162160D01*
X0019667Y0162157D01*
X0019425Y0162160D01*
X0019184Y0162169D01*
X0018943Y0162184D01*
X0018702Y0162204D01*
X0018462Y0162231D01*
X0018223Y0162264D01*
X0017984Y0162302D01*
X0017747Y0162346D01*
X0017510Y0162396D01*
X0017275Y0162452D01*
X0017042Y0162514D01*
X0016810Y0162581D01*
X0016579Y0162654D01*
X0016351Y0162732D01*
X0016125Y0162817D01*
X0015900Y0162906D01*
X0015678Y0163001D01*
X0015459Y0163102D01*
X0015241Y0163208D01*
X0015027Y0163319D01*
X0014815Y0163436D01*
X0014607Y0163557D01*
X0014401Y0163684D01*
X0014199Y0163816D01*
X0013999Y0163953D01*
X0013804Y0164094D01*
X0013611Y0164240D01*
X0013423Y0164391D01*
X0013238Y0164547D01*
X0013057Y0164707D01*
X0012880Y0164871D01*
X0012707Y0165040D01*
X0012538Y0165213D01*
X0012374Y0165390D01*
X0012214Y0165571D01*
X0012058Y0165756D01*
X0011907Y0165944D01*
X0011761Y0166137D01*
X0011620Y0166332D01*
X0011483Y0166532D01*
X0011351Y0166734D01*
X0011224Y0166940D01*
X0011103Y0167148D01*
X0010986Y0167360D01*
X0010875Y0167574D01*
X0010769Y0167792D01*
X0010668Y0168011D01*
X0010573Y0168233D01*
X0010484Y0168458D01*
X0010399Y0168684D01*
X0010321Y0168912D01*
X0010248Y0169143D01*
X0010181Y0169375D01*
X0010119Y0169608D01*
X0010063Y0169843D01*
X0010013Y0170080D01*
X0009969Y0170317D01*
X0009931Y0170556D01*
X0009898Y0170795D01*
X0009871Y0171035D01*
X0009851Y0171276D01*
X0009836Y0171517D01*
X0009827Y0171758D01*
X0009824Y0172000D01*
D18*
X0020270Y0165701D02*
X0020270Y0164700D01*
X0020520Y0164450D01*
X0021021Y0164450D01*
X0021271Y0164700D01*
X0021743Y0164450D02*
X0022744Y0164450D01*
X0022244Y0164450D02*
X0022244Y0165951D01*
X0021743Y0165451D01*
X0021271Y0165701D02*
X0021021Y0165951D01*
X0020520Y0165951D01*
X0020270Y0165701D01*
X0051558Y0176324D02*
X0051558Y0177075D01*
X0051808Y0177325D01*
X0052809Y0177325D01*
X0053059Y0177075D01*
X0053059Y0176324D01*
X0051558Y0176324D01*
X0052058Y0177797D02*
X0051558Y0178298D01*
X0053059Y0178298D01*
X0053059Y0178798D02*
X0053059Y0177797D01*
D19*
X0056509Y0174706D03*
X0069509Y0165206D03*
X0083698Y0165300D03*
X0096667Y0173800D03*
X0107667Y0173800D03*
X0107667Y0154200D03*
X0107667Y0125800D03*
X0107667Y0202200D03*
X0096667Y0202200D03*
X0083698Y0202700D03*
X0069509Y0202606D03*
X0056509Y0203106D03*
D20*
X0020375Y0207512D02*
X0020375Y0186488D01*
X0008958Y0186488D01*
X0008958Y0207512D01*
X0020375Y0207512D01*
X0137839Y0184000D02*
X0137841Y0184106D01*
X0137847Y0184211D01*
X0137857Y0184317D01*
X0137871Y0184421D01*
X0137888Y0184526D01*
X0137910Y0184629D01*
X0137935Y0184732D01*
X0137965Y0184834D01*
X0137998Y0184934D01*
X0138034Y0185033D01*
X0138075Y0185131D01*
X0138119Y0185227D01*
X0138167Y0185321D01*
X0138218Y0185414D01*
X0138272Y0185505D01*
X0138330Y0185593D01*
X0138392Y0185679D01*
X0138456Y0185763D01*
X0138523Y0185845D01*
X0138594Y0185924D01*
X0138667Y0186000D01*
X0138743Y0186073D01*
X0138822Y0186144D01*
X0138904Y0186211D01*
X0138988Y0186275D01*
X0139074Y0186337D01*
X0139162Y0186395D01*
X0139253Y0186449D01*
X0139346Y0186500D01*
X0139440Y0186548D01*
X0139536Y0186592D01*
X0139634Y0186633D01*
X0139733Y0186669D01*
X0139833Y0186702D01*
X0139935Y0186732D01*
X0140038Y0186757D01*
X0140141Y0186779D01*
X0140246Y0186796D01*
X0140350Y0186810D01*
X0140456Y0186820D01*
X0140561Y0186826D01*
X0140667Y0186828D01*
X0140773Y0186826D01*
X0140878Y0186820D01*
X0140984Y0186810D01*
X0141088Y0186796D01*
X0141193Y0186779D01*
X0141296Y0186757D01*
X0141399Y0186732D01*
X0141501Y0186702D01*
X0141601Y0186669D01*
X0141700Y0186633D01*
X0141798Y0186592D01*
X0141894Y0186548D01*
X0141988Y0186500D01*
X0142081Y0186449D01*
X0142172Y0186395D01*
X0142260Y0186337D01*
X0142346Y0186275D01*
X0142430Y0186211D01*
X0142512Y0186144D01*
X0142591Y0186073D01*
X0142667Y0186000D01*
X0142740Y0185924D01*
X0142811Y0185845D01*
X0142878Y0185763D01*
X0142942Y0185679D01*
X0143004Y0185593D01*
X0143062Y0185505D01*
X0143116Y0185414D01*
X0143167Y0185321D01*
X0143215Y0185227D01*
X0143259Y0185131D01*
X0143300Y0185033D01*
X0143336Y0184934D01*
X0143369Y0184834D01*
X0143399Y0184732D01*
X0143424Y0184629D01*
X0143446Y0184526D01*
X0143463Y0184421D01*
X0143477Y0184317D01*
X0143487Y0184211D01*
X0143493Y0184106D01*
X0143495Y0184000D01*
X0143493Y0183894D01*
X0143487Y0183789D01*
X0143477Y0183683D01*
X0143463Y0183579D01*
X0143446Y0183474D01*
X0143424Y0183371D01*
X0143399Y0183268D01*
X0143369Y0183166D01*
X0143336Y0183066D01*
X0143300Y0182967D01*
X0143259Y0182869D01*
X0143215Y0182773D01*
X0143167Y0182679D01*
X0143116Y0182586D01*
X0143062Y0182495D01*
X0143004Y0182407D01*
X0142942Y0182321D01*
X0142878Y0182237D01*
X0142811Y0182155D01*
X0142740Y0182076D01*
X0142667Y0182000D01*
X0142591Y0181927D01*
X0142512Y0181856D01*
X0142430Y0181789D01*
X0142346Y0181725D01*
X0142260Y0181663D01*
X0142172Y0181605D01*
X0142081Y0181551D01*
X0141988Y0181500D01*
X0141894Y0181452D01*
X0141798Y0181408D01*
X0141700Y0181367D01*
X0141601Y0181331D01*
X0141501Y0181298D01*
X0141399Y0181268D01*
X0141296Y0181243D01*
X0141193Y0181221D01*
X0141088Y0181204D01*
X0140984Y0181190D01*
X0140878Y0181180D01*
X0140773Y0181174D01*
X0140667Y0181172D01*
X0140561Y0181174D01*
X0140456Y0181180D01*
X0140350Y0181190D01*
X0140246Y0181204D01*
X0140141Y0181221D01*
X0140038Y0181243D01*
X0139935Y0181268D01*
X0139833Y0181298D01*
X0139733Y0181331D01*
X0139634Y0181367D01*
X0139536Y0181408D01*
X0139440Y0181452D01*
X0139346Y0181500D01*
X0139253Y0181551D01*
X0139162Y0181605D01*
X0139074Y0181663D01*
X0138988Y0181725D01*
X0138904Y0181789D01*
X0138822Y0181856D01*
X0138743Y0181927D01*
X0138667Y0182000D01*
X0138594Y0182076D01*
X0138523Y0182155D01*
X0138456Y0182237D01*
X0138392Y0182321D01*
X0138330Y0182407D01*
X0138272Y0182495D01*
X0138218Y0182586D01*
X0138167Y0182679D01*
X0138119Y0182773D01*
X0138075Y0182869D01*
X0138034Y0182967D01*
X0137998Y0183066D01*
X0137965Y0183166D01*
X0137935Y0183268D01*
X0137910Y0183371D01*
X0137888Y0183474D01*
X0137871Y0183579D01*
X0137857Y0183683D01*
X0137847Y0183789D01*
X0137841Y0183894D01*
X0137839Y0184000D01*
X0170430Y0078106D02*
X0170430Y0073894D01*
X0094801Y0076000D02*
X0090588Y0076000D01*
X0092694Y0073894D02*
X0092694Y0078106D01*
D21*
X0122467Y0127800D02*
X0122667Y0128000D01*
X0122667Y0129000D01*
X0126667Y0129500D02*
X0126667Y0128000D01*
X0126867Y0127800D01*
D22*
X0126667Y0130150D03*
X0122667Y0130150D03*
D23*
X0065534Y0131533D02*
X0064367Y0132700D01*
X0064367Y0132117D01*
X0063783Y0132117D01*
X0063783Y0132700D01*
X0064367Y0132700D01*
X0064367Y0133927D02*
X0062031Y0136262D01*
X0061448Y0136262D01*
X0060864Y0135678D01*
X0060864Y0134511D01*
X0061448Y0133927D01*
X0060864Y0130277D02*
X0060864Y0127942D01*
X0062615Y0127942D01*
X0062031Y0129109D01*
X0062031Y0129693D01*
X0062615Y0130277D01*
X0063783Y0130277D01*
X0064367Y0129693D01*
X0064367Y0128526D01*
X0063783Y0127942D01*
X0064367Y0126686D02*
X0064367Y0124351D01*
X0064367Y0125518D02*
X0060864Y0125518D01*
X0062031Y0124351D01*
X0062031Y0123095D02*
X0064367Y0123095D01*
X0062615Y0123095D02*
X0062615Y0120760D01*
X0062031Y0120760D02*
X0060864Y0121927D01*
X0062031Y0123095D01*
X0062031Y0120760D02*
X0064367Y0120760D01*
X0064367Y0133927D02*
X0064367Y0136262D01*
X0064367Y0137518D02*
X0062031Y0137518D01*
X0062031Y0138102D01*
X0062615Y0138686D01*
X0062031Y0139269D01*
X0062615Y0139853D01*
X0064367Y0139853D01*
X0064367Y0138686D02*
X0062615Y0138686D01*
X0062031Y0141109D02*
X0062031Y0141693D01*
X0062615Y0142277D01*
X0062031Y0142860D01*
X0062615Y0143444D01*
X0064367Y0143444D01*
X0064367Y0142277D02*
X0062615Y0142277D01*
X0062031Y0141109D02*
X0064367Y0141109D01*
X0023144Y0106450D02*
X0020075Y0106450D01*
X0021609Y0106450D02*
X0021609Y0111054D01*
X0020075Y0109519D01*
X0018540Y0111054D02*
X0015471Y0111054D01*
X0015471Y0106450D01*
X0018540Y0106450D01*
X0017005Y0108752D02*
X0015471Y0108752D01*
X0013936Y0108752D02*
X0013169Y0107985D01*
X0010867Y0107985D01*
X0012401Y0107985D02*
X0013936Y0106450D01*
X0013936Y0108752D02*
X0013936Y0110287D01*
X0013169Y0111054D01*
X0010867Y0111054D01*
X0010867Y0106450D01*
X0007467Y0186200D02*
X0002863Y0189269D01*
X0004397Y0190804D02*
X0002863Y0192339D01*
X0007467Y0192339D01*
X0007467Y0193873D02*
X0007467Y0190804D01*
X0007467Y0189269D02*
X0002863Y0186200D01*
D24*
X0050011Y0138006D02*
X0056317Y0138006D01*
X0056317Y0135904D02*
X0056317Y0140108D01*
X0052113Y0135904D02*
X0050011Y0138006D01*
X0051062Y0133663D02*
X0050011Y0132612D01*
X0050011Y0130510D01*
X0051062Y0129459D01*
X0055266Y0129459D01*
X0056317Y0130510D01*
X0056317Y0132612D01*
X0055266Y0133663D01*
X0056317Y0127264D02*
X0056317Y0125162D01*
X0056317Y0126213D02*
X0050011Y0126213D01*
X0050011Y0125162D02*
X0050011Y0127264D01*
D25*
X0022917Y0127000D03*
X0022917Y0117000D03*
X0022917Y0137000D03*
M02*
