%
M48
M72
T01C0.01500
T02C0.02756
T03C0.03150
T04C0.03200
T05C0.03543
T06C0.04000
T07C0.04700
T08C0.04724
T09C0.07874
T10C0.13000
%
T01
X75367Y176000
X147417Y187550
X155117Y197450
X183167Y174900
X182067Y166650
T02
X24667Y172000
X14667Y172000
T03
X65667Y95000
X25667Y95000
X15667Y95000
X15667Y65000
X25667Y65000
T04
X107667Y120000
X119667Y125000
X129667Y125000
X140667Y131000
X150667Y131000
X160667Y131000
X170667Y131000
X170667Y161000
X160667Y161000
X150667Y161000
X140667Y161000
X140667Y174000
X150667Y174000
X160667Y174000
X170667Y174000
X170667Y204000
X160667Y204000
X150667Y204000
X140667Y204000
X127619Y198449
X107667Y208000
X96667Y208000
X83698Y209000
X69509Y208906
X56509Y208906
X37950Y209094
X37950Y199094
X37950Y189094
X56509Y168906
X69509Y158906
X83698Y159000
X96667Y168000
X107667Y168000
X107667Y160000
X127619Y178449
X34667Y154000
X14667Y154000
T05
X85549Y76000
X46509Y154220
X46509Y184220
X164289Y76000
T06
X192667Y87000
X192667Y97000
X192667Y107000
X192667Y117000
X192667Y127000
X192667Y137000
X192667Y153000
X192667Y163000
X192667Y173000
X192667Y183000
X192667Y193000
X192667Y203000
X14667Y127000
X14667Y117000
X14667Y137000
T07
X48509Y28000
X28824Y28000
T08
X14667Y192000
X14667Y202000
T09
X189667Y27850
X118714Y27850
X118714Y205016
T10
X73667Y127000
M30
