G04 EAGLE Gerber RS-274X export*
G75*
%MOMM*%
%FSLAX34Y34*%
%LPD*%
%INTop Solder Mask*%
%IPPOS*%
%AMOC8*
5,1,8,0,0,1.08239X$1,22.5*%
G01*
%ADD10C,2.101600*%
%ADD11C,1.509600*%
%ADD12C,1.422400*%
%ADD13P,1.539592X8X202.500000*%
%ADD14C,1.892300*%
%ADD15C,1.409600*%
%ADD16C,1.625600*%
%ADD17C,3.403600*%
%ADD18P,1.539592X8X22.500000*%
%ADD19C,1.901600*%
%ADD20R,1.752600X1.752600*%
%ADD21C,1.752600*%
%ADD22R,2.032000X2.032000*%
%ADD23P,2.199416X8X22.500000*%
%ADD24R,0.635000X2.082800*%
%ADD25R,1.904600X1.701600*%
%ADD26R,1.601600X1.601600*%
%ADD27C,1.981200*%
%ADD28R,1.701600X2.401600*%
%ADD29P,1.539592X8X292.500000*%


D10*
X419680Y90020D03*
X79680Y410020D03*
D11*
X27780Y222180D03*
X103980Y222180D03*
D12*
X122880Y455136D02*
X122880Y468344D01*
X72080Y468344D02*
X72080Y455136D01*
X97480Y455136D02*
X97480Y468344D01*
D13*
X401080Y277260D03*
X299480Y277260D03*
X426960Y319640D03*
X299960Y319640D03*
D14*
X58820Y52134D02*
X58820Y34227D01*
X108820Y34227D02*
X108820Y52134D01*
D15*
X27940Y112840D02*
X27940Y125920D01*
X53340Y125920D02*
X53340Y112840D01*
X154940Y189040D02*
X154940Y202120D01*
X27940Y202120D02*
X27940Y189040D01*
X53340Y189040D02*
X53340Y202120D01*
D16*
X182880Y262320D02*
X198120Y262320D01*
X198120Y287720D02*
X182880Y287720D01*
X182880Y313120D02*
X198120Y313120D01*
D17*
X40640Y287720D03*
D18*
X17400Y359520D03*
X68200Y359520D03*
D19*
X34400Y449480D02*
X16400Y449480D01*
X16400Y474880D02*
X34400Y474880D01*
D20*
X17880Y400700D03*
D21*
X43280Y400700D03*
D16*
X469900Y309880D02*
X485140Y309880D01*
X485140Y335280D02*
X469900Y335280D01*
X469900Y360680D02*
X485140Y360680D01*
X485140Y386080D02*
X469900Y386080D01*
X469900Y411480D02*
X485140Y411480D01*
X485140Y436880D02*
X469900Y436880D01*
D22*
X287020Y236520D03*
D23*
X287020Y36520D03*
D24*
X336550Y377317D03*
X349250Y377317D03*
X361950Y377317D03*
X374650Y377317D03*
X387350Y377317D03*
X400050Y377317D03*
X412750Y377317D03*
X425450Y377317D03*
X425450Y471043D03*
X412750Y471043D03*
X400050Y471043D03*
X387350Y471043D03*
X374650Y471043D03*
X361950Y471043D03*
X349250Y471043D03*
X336550Y471043D03*
D25*
X254000Y308860D03*
X254000Y280420D03*
D26*
X446760Y33020D03*
X411760Y33020D03*
D27*
X467360Y203200D03*
X441960Y203200D03*
X467360Y228600D03*
X441960Y228600D03*
X467360Y254000D03*
X441960Y254000D03*
D28*
X469900Y148340D03*
X469900Y85340D03*
D25*
X421640Y128020D03*
X421640Y156460D03*
D29*
X302260Y449580D03*
X302260Y398780D03*
M02*
