G75*
%MOIN*%
%OFA0B0*%
%FSLAX25Y25*%
%IPPOS*%
%LPD*%
%AMOC8*
5,1,8,0,0,1.08239X$1,22.5*
%
%ADD10C,0.00000*%
%ADD11C,0.00394*%
%ADD12OC8,0.05200*%
%ADD13C,0.05543*%
%ADD14C,0.05200*%
%ADD15C,0.07050*%
%ADD16OC8,0.06800*%
%ADD17C,0.05200*%
%ADD18R,0.07600X0.07600*%
%ADD19OC8,0.07600*%
%ADD20C,0.05150*%
%ADD21C,0.06000*%
%ADD22C,0.07087*%
%ADD23R,0.06500X0.06500*%
%ADD24C,0.06500*%
%ADD25C,0.01500*%
%ADD26C,0.01600*%
%ADD27C,0.01200*%
%ADD28C,0.02700*%
%ADD29C,0.03200*%
D10*
X0004541Y0011008D02*
X0201391Y0011008D01*
X0201391Y0207858D01*
X0004541Y0207858D01*
X0004541Y0011008D01*
X0067167Y0124724D02*
X0067169Y0124885D01*
X0067175Y0125045D01*
X0067185Y0125206D01*
X0067199Y0125366D01*
X0067217Y0125526D01*
X0067238Y0125685D01*
X0067264Y0125844D01*
X0067294Y0126002D01*
X0067327Y0126159D01*
X0067365Y0126316D01*
X0067406Y0126471D01*
X0067451Y0126625D01*
X0067500Y0126778D01*
X0067553Y0126930D01*
X0067609Y0127081D01*
X0067670Y0127230D01*
X0067733Y0127378D01*
X0067801Y0127524D01*
X0067872Y0127668D01*
X0067946Y0127810D01*
X0068024Y0127951D01*
X0068106Y0128089D01*
X0068191Y0128226D01*
X0068279Y0128360D01*
X0068371Y0128492D01*
X0068466Y0128622D01*
X0068564Y0128750D01*
X0068665Y0128875D01*
X0068769Y0128997D01*
X0068876Y0129117D01*
X0068986Y0129234D01*
X0069099Y0129349D01*
X0069215Y0129460D01*
X0069334Y0129569D01*
X0069455Y0129674D01*
X0069579Y0129777D01*
X0069705Y0129877D01*
X0069833Y0129973D01*
X0069964Y0130066D01*
X0070098Y0130156D01*
X0070233Y0130243D01*
X0070371Y0130326D01*
X0070510Y0130406D01*
X0070652Y0130482D01*
X0070795Y0130555D01*
X0070940Y0130624D01*
X0071087Y0130690D01*
X0071235Y0130752D01*
X0071385Y0130810D01*
X0071536Y0130865D01*
X0071689Y0130916D01*
X0071843Y0130963D01*
X0071998Y0131006D01*
X0072154Y0131045D01*
X0072310Y0131081D01*
X0072468Y0131112D01*
X0072626Y0131140D01*
X0072785Y0131164D01*
X0072945Y0131184D01*
X0073105Y0131200D01*
X0073265Y0131212D01*
X0073426Y0131220D01*
X0073587Y0131224D01*
X0073747Y0131224D01*
X0073908Y0131220D01*
X0074069Y0131212D01*
X0074229Y0131200D01*
X0074389Y0131184D01*
X0074549Y0131164D01*
X0074708Y0131140D01*
X0074866Y0131112D01*
X0075024Y0131081D01*
X0075180Y0131045D01*
X0075336Y0131006D01*
X0075491Y0130963D01*
X0075645Y0130916D01*
X0075798Y0130865D01*
X0075949Y0130810D01*
X0076099Y0130752D01*
X0076247Y0130690D01*
X0076394Y0130624D01*
X0076539Y0130555D01*
X0076682Y0130482D01*
X0076824Y0130406D01*
X0076963Y0130326D01*
X0077101Y0130243D01*
X0077236Y0130156D01*
X0077370Y0130066D01*
X0077501Y0129973D01*
X0077629Y0129877D01*
X0077755Y0129777D01*
X0077879Y0129674D01*
X0078000Y0129569D01*
X0078119Y0129460D01*
X0078235Y0129349D01*
X0078348Y0129234D01*
X0078458Y0129117D01*
X0078565Y0128997D01*
X0078669Y0128875D01*
X0078770Y0128750D01*
X0078868Y0128622D01*
X0078963Y0128492D01*
X0079055Y0128360D01*
X0079143Y0128226D01*
X0079228Y0128089D01*
X0079310Y0127951D01*
X0079388Y0127810D01*
X0079462Y0127668D01*
X0079533Y0127524D01*
X0079601Y0127378D01*
X0079664Y0127230D01*
X0079725Y0127081D01*
X0079781Y0126930D01*
X0079834Y0126778D01*
X0079883Y0126625D01*
X0079928Y0126471D01*
X0079969Y0126316D01*
X0080007Y0126159D01*
X0080040Y0126002D01*
X0080070Y0125844D01*
X0080096Y0125685D01*
X0080117Y0125526D01*
X0080135Y0125366D01*
X0080149Y0125206D01*
X0080159Y0125045D01*
X0080165Y0124885D01*
X0080167Y0124724D01*
X0080165Y0124563D01*
X0080159Y0124403D01*
X0080149Y0124242D01*
X0080135Y0124082D01*
X0080117Y0123922D01*
X0080096Y0123763D01*
X0080070Y0123604D01*
X0080040Y0123446D01*
X0080007Y0123289D01*
X0079969Y0123132D01*
X0079928Y0122977D01*
X0079883Y0122823D01*
X0079834Y0122670D01*
X0079781Y0122518D01*
X0079725Y0122367D01*
X0079664Y0122218D01*
X0079601Y0122070D01*
X0079533Y0121924D01*
X0079462Y0121780D01*
X0079388Y0121638D01*
X0079310Y0121497D01*
X0079228Y0121359D01*
X0079143Y0121222D01*
X0079055Y0121088D01*
X0078963Y0120956D01*
X0078868Y0120826D01*
X0078770Y0120698D01*
X0078669Y0120573D01*
X0078565Y0120451D01*
X0078458Y0120331D01*
X0078348Y0120214D01*
X0078235Y0120099D01*
X0078119Y0119988D01*
X0078000Y0119879D01*
X0077879Y0119774D01*
X0077755Y0119671D01*
X0077629Y0119571D01*
X0077501Y0119475D01*
X0077370Y0119382D01*
X0077236Y0119292D01*
X0077101Y0119205D01*
X0076963Y0119122D01*
X0076824Y0119042D01*
X0076682Y0118966D01*
X0076539Y0118893D01*
X0076394Y0118824D01*
X0076247Y0118758D01*
X0076099Y0118696D01*
X0075949Y0118638D01*
X0075798Y0118583D01*
X0075645Y0118532D01*
X0075491Y0118485D01*
X0075336Y0118442D01*
X0075180Y0118403D01*
X0075024Y0118367D01*
X0074866Y0118336D01*
X0074708Y0118308D01*
X0074549Y0118284D01*
X0074389Y0118264D01*
X0074229Y0118248D01*
X0074069Y0118236D01*
X0073908Y0118228D01*
X0073747Y0118224D01*
X0073587Y0118224D01*
X0073426Y0118228D01*
X0073265Y0118236D01*
X0073105Y0118248D01*
X0072945Y0118264D01*
X0072785Y0118284D01*
X0072626Y0118308D01*
X0072468Y0118336D01*
X0072310Y0118367D01*
X0072154Y0118403D01*
X0071998Y0118442D01*
X0071843Y0118485D01*
X0071689Y0118532D01*
X0071536Y0118583D01*
X0071385Y0118638D01*
X0071235Y0118696D01*
X0071087Y0118758D01*
X0070940Y0118824D01*
X0070795Y0118893D01*
X0070652Y0118966D01*
X0070510Y0119042D01*
X0070371Y0119122D01*
X0070233Y0119205D01*
X0070098Y0119292D01*
X0069964Y0119382D01*
X0069833Y0119475D01*
X0069705Y0119571D01*
X0069579Y0119671D01*
X0069455Y0119774D01*
X0069334Y0119879D01*
X0069215Y0119988D01*
X0069099Y0120099D01*
X0068986Y0120214D01*
X0068876Y0120331D01*
X0068769Y0120451D01*
X0068665Y0120573D01*
X0068564Y0120698D01*
X0068466Y0120826D01*
X0068371Y0120956D01*
X0068279Y0121088D01*
X0068191Y0121222D01*
X0068106Y0121359D01*
X0068024Y0121497D01*
X0067946Y0121638D01*
X0067872Y0121780D01*
X0067801Y0121924D01*
X0067733Y0122070D01*
X0067670Y0122218D01*
X0067609Y0122367D01*
X0067553Y0122518D01*
X0067500Y0122670D01*
X0067451Y0122823D01*
X0067406Y0122977D01*
X0067365Y0123132D01*
X0067327Y0123289D01*
X0067294Y0123446D01*
X0067264Y0123604D01*
X0067238Y0123763D01*
X0067217Y0123922D01*
X0067199Y0124082D01*
X0067185Y0124242D01*
X0067175Y0124403D01*
X0067169Y0124563D01*
X0067167Y0124724D01*
X0032100Y0172425D02*
X0032102Y0172550D01*
X0032108Y0172675D01*
X0032118Y0172799D01*
X0032132Y0172923D01*
X0032149Y0173047D01*
X0032171Y0173170D01*
X0032197Y0173292D01*
X0032226Y0173414D01*
X0032259Y0173534D01*
X0032297Y0173653D01*
X0032337Y0173772D01*
X0032382Y0173888D01*
X0032430Y0174003D01*
X0032482Y0174117D01*
X0032538Y0174229D01*
X0032597Y0174339D01*
X0032659Y0174447D01*
X0032725Y0174554D01*
X0032794Y0174658D01*
X0032867Y0174759D01*
X0032942Y0174859D01*
X0033021Y0174956D01*
X0033103Y0175050D01*
X0033188Y0175142D01*
X0033275Y0175231D01*
X0033366Y0175317D01*
X0033459Y0175400D01*
X0033555Y0175481D01*
X0033653Y0175558D01*
X0033753Y0175632D01*
X0033856Y0175703D01*
X0033961Y0175770D01*
X0034069Y0175835D01*
X0034178Y0175895D01*
X0034289Y0175953D01*
X0034402Y0176006D01*
X0034516Y0176056D01*
X0034632Y0176103D01*
X0034749Y0176145D01*
X0034868Y0176184D01*
X0034988Y0176220D01*
X0035109Y0176251D01*
X0035231Y0176279D01*
X0035353Y0176302D01*
X0035477Y0176322D01*
X0035601Y0176338D01*
X0035725Y0176350D01*
X0035850Y0176358D01*
X0035975Y0176362D01*
X0036099Y0176362D01*
X0036224Y0176358D01*
X0036349Y0176350D01*
X0036473Y0176338D01*
X0036597Y0176322D01*
X0036721Y0176302D01*
X0036843Y0176279D01*
X0036965Y0176251D01*
X0037086Y0176220D01*
X0037206Y0176184D01*
X0037325Y0176145D01*
X0037442Y0176103D01*
X0037558Y0176056D01*
X0037672Y0176006D01*
X0037785Y0175953D01*
X0037896Y0175895D01*
X0038006Y0175835D01*
X0038113Y0175770D01*
X0038218Y0175703D01*
X0038321Y0175632D01*
X0038421Y0175558D01*
X0038519Y0175481D01*
X0038615Y0175400D01*
X0038708Y0175317D01*
X0038799Y0175231D01*
X0038886Y0175142D01*
X0038971Y0175050D01*
X0039053Y0174956D01*
X0039132Y0174859D01*
X0039207Y0174759D01*
X0039280Y0174658D01*
X0039349Y0174554D01*
X0039415Y0174447D01*
X0039477Y0174339D01*
X0039536Y0174229D01*
X0039592Y0174117D01*
X0039644Y0174003D01*
X0039692Y0173888D01*
X0039737Y0173772D01*
X0039777Y0173653D01*
X0039815Y0173534D01*
X0039848Y0173414D01*
X0039877Y0173292D01*
X0039903Y0173170D01*
X0039925Y0173047D01*
X0039942Y0172923D01*
X0039956Y0172799D01*
X0039966Y0172675D01*
X0039972Y0172550D01*
X0039974Y0172425D01*
X0039972Y0172300D01*
X0039966Y0172175D01*
X0039956Y0172051D01*
X0039942Y0171927D01*
X0039925Y0171803D01*
X0039903Y0171680D01*
X0039877Y0171558D01*
X0039848Y0171436D01*
X0039815Y0171316D01*
X0039777Y0171197D01*
X0039737Y0171078D01*
X0039692Y0170962D01*
X0039644Y0170847D01*
X0039592Y0170733D01*
X0039536Y0170621D01*
X0039477Y0170511D01*
X0039415Y0170403D01*
X0039349Y0170296D01*
X0039280Y0170192D01*
X0039207Y0170091D01*
X0039132Y0169991D01*
X0039053Y0169894D01*
X0038971Y0169800D01*
X0038886Y0169708D01*
X0038799Y0169619D01*
X0038708Y0169533D01*
X0038615Y0169450D01*
X0038519Y0169369D01*
X0038421Y0169292D01*
X0038321Y0169218D01*
X0038218Y0169147D01*
X0038113Y0169080D01*
X0038005Y0169015D01*
X0037896Y0168955D01*
X0037785Y0168897D01*
X0037672Y0168844D01*
X0037558Y0168794D01*
X0037442Y0168747D01*
X0037325Y0168705D01*
X0037206Y0168666D01*
X0037086Y0168630D01*
X0036965Y0168599D01*
X0036843Y0168571D01*
X0036721Y0168548D01*
X0036597Y0168528D01*
X0036473Y0168512D01*
X0036349Y0168500D01*
X0036224Y0168492D01*
X0036099Y0168488D01*
X0035975Y0168488D01*
X0035850Y0168492D01*
X0035725Y0168500D01*
X0035601Y0168512D01*
X0035477Y0168528D01*
X0035353Y0168548D01*
X0035231Y0168571D01*
X0035109Y0168599D01*
X0034988Y0168630D01*
X0034868Y0168666D01*
X0034749Y0168705D01*
X0034632Y0168747D01*
X0034516Y0168794D01*
X0034402Y0168844D01*
X0034289Y0168897D01*
X0034178Y0168955D01*
X0034068Y0169015D01*
X0033961Y0169080D01*
X0033856Y0169147D01*
X0033753Y0169218D01*
X0033653Y0169292D01*
X0033555Y0169369D01*
X0033459Y0169450D01*
X0033366Y0169533D01*
X0033275Y0169619D01*
X0033188Y0169708D01*
X0033103Y0169800D01*
X0033021Y0169894D01*
X0032942Y0169991D01*
X0032867Y0170091D01*
X0032794Y0170192D01*
X0032725Y0170296D01*
X0032659Y0170403D01*
X0032597Y0170511D01*
X0032538Y0170621D01*
X0032482Y0170733D01*
X0032430Y0170847D01*
X0032382Y0170962D01*
X0032337Y0171078D01*
X0032297Y0171197D01*
X0032259Y0171316D01*
X0032226Y0171436D01*
X0032197Y0171558D01*
X0032171Y0171680D01*
X0032149Y0171803D01*
X0032132Y0171927D01*
X0032118Y0172051D01*
X0032108Y0172175D01*
X0032102Y0172300D01*
X0032100Y0172425D01*
X0165958Y0046441D02*
X0165960Y0046566D01*
X0165966Y0046691D01*
X0165976Y0046815D01*
X0165990Y0046939D01*
X0166007Y0047063D01*
X0166029Y0047186D01*
X0166055Y0047308D01*
X0166084Y0047430D01*
X0166117Y0047550D01*
X0166155Y0047669D01*
X0166195Y0047788D01*
X0166240Y0047904D01*
X0166288Y0048019D01*
X0166340Y0048133D01*
X0166396Y0048245D01*
X0166455Y0048355D01*
X0166517Y0048463D01*
X0166583Y0048570D01*
X0166652Y0048674D01*
X0166725Y0048775D01*
X0166800Y0048875D01*
X0166879Y0048972D01*
X0166961Y0049066D01*
X0167046Y0049158D01*
X0167133Y0049247D01*
X0167224Y0049333D01*
X0167317Y0049416D01*
X0167413Y0049497D01*
X0167511Y0049574D01*
X0167611Y0049648D01*
X0167714Y0049719D01*
X0167819Y0049786D01*
X0167927Y0049851D01*
X0168036Y0049911D01*
X0168147Y0049969D01*
X0168260Y0050022D01*
X0168374Y0050072D01*
X0168490Y0050119D01*
X0168607Y0050161D01*
X0168726Y0050200D01*
X0168846Y0050236D01*
X0168967Y0050267D01*
X0169089Y0050295D01*
X0169211Y0050318D01*
X0169335Y0050338D01*
X0169459Y0050354D01*
X0169583Y0050366D01*
X0169708Y0050374D01*
X0169833Y0050378D01*
X0169957Y0050378D01*
X0170082Y0050374D01*
X0170207Y0050366D01*
X0170331Y0050354D01*
X0170455Y0050338D01*
X0170579Y0050318D01*
X0170701Y0050295D01*
X0170823Y0050267D01*
X0170944Y0050236D01*
X0171064Y0050200D01*
X0171183Y0050161D01*
X0171300Y0050119D01*
X0171416Y0050072D01*
X0171530Y0050022D01*
X0171643Y0049969D01*
X0171754Y0049911D01*
X0171864Y0049851D01*
X0171971Y0049786D01*
X0172076Y0049719D01*
X0172179Y0049648D01*
X0172279Y0049574D01*
X0172377Y0049497D01*
X0172473Y0049416D01*
X0172566Y0049333D01*
X0172657Y0049247D01*
X0172744Y0049158D01*
X0172829Y0049066D01*
X0172911Y0048972D01*
X0172990Y0048875D01*
X0173065Y0048775D01*
X0173138Y0048674D01*
X0173207Y0048570D01*
X0173273Y0048463D01*
X0173335Y0048355D01*
X0173394Y0048245D01*
X0173450Y0048133D01*
X0173502Y0048019D01*
X0173550Y0047904D01*
X0173595Y0047788D01*
X0173635Y0047669D01*
X0173673Y0047550D01*
X0173706Y0047430D01*
X0173735Y0047308D01*
X0173761Y0047186D01*
X0173783Y0047063D01*
X0173800Y0046939D01*
X0173814Y0046815D01*
X0173824Y0046691D01*
X0173830Y0046566D01*
X0173832Y0046441D01*
X0173830Y0046316D01*
X0173824Y0046191D01*
X0173814Y0046067D01*
X0173800Y0045943D01*
X0173783Y0045819D01*
X0173761Y0045696D01*
X0173735Y0045574D01*
X0173706Y0045452D01*
X0173673Y0045332D01*
X0173635Y0045213D01*
X0173595Y0045094D01*
X0173550Y0044978D01*
X0173502Y0044863D01*
X0173450Y0044749D01*
X0173394Y0044637D01*
X0173335Y0044527D01*
X0173273Y0044419D01*
X0173207Y0044312D01*
X0173138Y0044208D01*
X0173065Y0044107D01*
X0172990Y0044007D01*
X0172911Y0043910D01*
X0172829Y0043816D01*
X0172744Y0043724D01*
X0172657Y0043635D01*
X0172566Y0043549D01*
X0172473Y0043466D01*
X0172377Y0043385D01*
X0172279Y0043308D01*
X0172179Y0043234D01*
X0172076Y0043163D01*
X0171971Y0043096D01*
X0171863Y0043031D01*
X0171754Y0042971D01*
X0171643Y0042913D01*
X0171530Y0042860D01*
X0171416Y0042810D01*
X0171300Y0042763D01*
X0171183Y0042721D01*
X0171064Y0042682D01*
X0170944Y0042646D01*
X0170823Y0042615D01*
X0170701Y0042587D01*
X0170579Y0042564D01*
X0170455Y0042544D01*
X0170331Y0042528D01*
X0170207Y0042516D01*
X0170082Y0042508D01*
X0169957Y0042504D01*
X0169833Y0042504D01*
X0169708Y0042508D01*
X0169583Y0042516D01*
X0169459Y0042528D01*
X0169335Y0042544D01*
X0169211Y0042564D01*
X0169089Y0042587D01*
X0168967Y0042615D01*
X0168846Y0042646D01*
X0168726Y0042682D01*
X0168607Y0042721D01*
X0168490Y0042763D01*
X0168374Y0042810D01*
X0168260Y0042860D01*
X0168147Y0042913D01*
X0168036Y0042971D01*
X0167926Y0043031D01*
X0167819Y0043096D01*
X0167714Y0043163D01*
X0167611Y0043234D01*
X0167511Y0043308D01*
X0167413Y0043385D01*
X0167317Y0043466D01*
X0167224Y0043549D01*
X0167133Y0043635D01*
X0167046Y0043724D01*
X0166961Y0043816D01*
X0166879Y0043910D01*
X0166800Y0044007D01*
X0166725Y0044107D01*
X0166652Y0044208D01*
X0166583Y0044312D01*
X0166517Y0044419D01*
X0166455Y0044527D01*
X0166396Y0044637D01*
X0166340Y0044749D01*
X0166288Y0044863D01*
X0166240Y0044978D01*
X0166195Y0045094D01*
X0166155Y0045213D01*
X0166117Y0045332D01*
X0166084Y0045452D01*
X0166055Y0045574D01*
X0166029Y0045696D01*
X0166007Y0045819D01*
X0165990Y0045943D01*
X0165976Y0046067D01*
X0165966Y0046191D01*
X0165960Y0046316D01*
X0165958Y0046441D01*
D11*
X0162344Y0046591D02*
X0162346Y0046784D01*
X0162353Y0046977D01*
X0162365Y0047170D01*
X0162382Y0047363D01*
X0162403Y0047555D01*
X0162429Y0047746D01*
X0162460Y0047937D01*
X0162495Y0048127D01*
X0162535Y0048316D01*
X0162580Y0048504D01*
X0162629Y0048691D01*
X0162683Y0048877D01*
X0162741Y0049061D01*
X0162804Y0049244D01*
X0162872Y0049425D01*
X0162943Y0049604D01*
X0163020Y0049782D01*
X0163100Y0049958D01*
X0163185Y0050131D01*
X0163274Y0050303D01*
X0163367Y0050472D01*
X0163464Y0050639D01*
X0163566Y0050804D01*
X0163671Y0050966D01*
X0163780Y0051125D01*
X0163894Y0051282D01*
X0164011Y0051435D01*
X0164131Y0051586D01*
X0164256Y0051734D01*
X0164384Y0051879D01*
X0164515Y0052020D01*
X0164650Y0052159D01*
X0164789Y0052294D01*
X0164930Y0052425D01*
X0165075Y0052553D01*
X0165223Y0052678D01*
X0165374Y0052798D01*
X0165527Y0052915D01*
X0165684Y0053029D01*
X0165843Y0053138D01*
X0166005Y0053243D01*
X0166170Y0053345D01*
X0166337Y0053442D01*
X0166506Y0053535D01*
X0166678Y0053624D01*
X0166851Y0053709D01*
X0167027Y0053789D01*
X0167205Y0053866D01*
X0167384Y0053937D01*
X0167565Y0054005D01*
X0167748Y0054068D01*
X0167932Y0054126D01*
X0168118Y0054180D01*
X0168305Y0054229D01*
X0168493Y0054274D01*
X0168682Y0054314D01*
X0168872Y0054349D01*
X0169063Y0054380D01*
X0169254Y0054406D01*
X0169446Y0054427D01*
X0169639Y0054444D01*
X0169832Y0054456D01*
X0170025Y0054463D01*
X0170218Y0054465D01*
X0170411Y0054463D01*
X0170604Y0054456D01*
X0170797Y0054444D01*
X0170990Y0054427D01*
X0171182Y0054406D01*
X0171373Y0054380D01*
X0171564Y0054349D01*
X0171754Y0054314D01*
X0171943Y0054274D01*
X0172131Y0054229D01*
X0172318Y0054180D01*
X0172504Y0054126D01*
X0172688Y0054068D01*
X0172871Y0054005D01*
X0173052Y0053937D01*
X0173231Y0053866D01*
X0173409Y0053789D01*
X0173585Y0053709D01*
X0173758Y0053624D01*
X0173930Y0053535D01*
X0174099Y0053442D01*
X0174266Y0053345D01*
X0174431Y0053243D01*
X0174593Y0053138D01*
X0174752Y0053029D01*
X0174909Y0052915D01*
X0175062Y0052798D01*
X0175213Y0052678D01*
X0175361Y0052553D01*
X0175506Y0052425D01*
X0175647Y0052294D01*
X0175786Y0052159D01*
X0175921Y0052020D01*
X0176052Y0051879D01*
X0176180Y0051734D01*
X0176305Y0051586D01*
X0176425Y0051435D01*
X0176542Y0051282D01*
X0176656Y0051125D01*
X0176765Y0050966D01*
X0176870Y0050804D01*
X0176972Y0050639D01*
X0177069Y0050472D01*
X0177162Y0050303D01*
X0177251Y0050131D01*
X0177336Y0049958D01*
X0177416Y0049782D01*
X0177493Y0049604D01*
X0177564Y0049425D01*
X0177632Y0049244D01*
X0177695Y0049061D01*
X0177753Y0048877D01*
X0177807Y0048691D01*
X0177856Y0048504D01*
X0177901Y0048316D01*
X0177941Y0048127D01*
X0177976Y0047937D01*
X0178007Y0047746D01*
X0178033Y0047555D01*
X0178054Y0047363D01*
X0178071Y0047170D01*
X0178083Y0046977D01*
X0178090Y0046784D01*
X0178092Y0046591D01*
X0178090Y0046398D01*
X0178083Y0046205D01*
X0178071Y0046012D01*
X0178054Y0045819D01*
X0178033Y0045627D01*
X0178007Y0045436D01*
X0177976Y0045245D01*
X0177941Y0045055D01*
X0177901Y0044866D01*
X0177856Y0044678D01*
X0177807Y0044491D01*
X0177753Y0044305D01*
X0177695Y0044121D01*
X0177632Y0043938D01*
X0177564Y0043757D01*
X0177493Y0043578D01*
X0177416Y0043400D01*
X0177336Y0043224D01*
X0177251Y0043051D01*
X0177162Y0042879D01*
X0177069Y0042710D01*
X0176972Y0042543D01*
X0176870Y0042378D01*
X0176765Y0042216D01*
X0176656Y0042057D01*
X0176542Y0041900D01*
X0176425Y0041747D01*
X0176305Y0041596D01*
X0176180Y0041448D01*
X0176052Y0041303D01*
X0175921Y0041162D01*
X0175786Y0041023D01*
X0175647Y0040888D01*
X0175506Y0040757D01*
X0175361Y0040629D01*
X0175213Y0040504D01*
X0175062Y0040384D01*
X0174909Y0040267D01*
X0174752Y0040153D01*
X0174593Y0040044D01*
X0174431Y0039939D01*
X0174266Y0039837D01*
X0174099Y0039740D01*
X0173930Y0039647D01*
X0173758Y0039558D01*
X0173585Y0039473D01*
X0173409Y0039393D01*
X0173231Y0039316D01*
X0173052Y0039245D01*
X0172871Y0039177D01*
X0172688Y0039114D01*
X0172504Y0039056D01*
X0172318Y0039002D01*
X0172131Y0038953D01*
X0171943Y0038908D01*
X0171754Y0038868D01*
X0171564Y0038833D01*
X0171373Y0038802D01*
X0171182Y0038776D01*
X0170990Y0038755D01*
X0170797Y0038738D01*
X0170604Y0038726D01*
X0170411Y0038719D01*
X0170218Y0038717D01*
X0170025Y0038719D01*
X0169832Y0038726D01*
X0169639Y0038738D01*
X0169446Y0038755D01*
X0169254Y0038776D01*
X0169063Y0038802D01*
X0168872Y0038833D01*
X0168682Y0038868D01*
X0168493Y0038908D01*
X0168305Y0038953D01*
X0168118Y0039002D01*
X0167932Y0039056D01*
X0167748Y0039114D01*
X0167565Y0039177D01*
X0167384Y0039245D01*
X0167205Y0039316D01*
X0167027Y0039393D01*
X0166851Y0039473D01*
X0166678Y0039558D01*
X0166506Y0039647D01*
X0166337Y0039740D01*
X0166170Y0039837D01*
X0166005Y0039939D01*
X0165843Y0040044D01*
X0165684Y0040153D01*
X0165527Y0040267D01*
X0165374Y0040384D01*
X0165223Y0040504D01*
X0165075Y0040629D01*
X0164930Y0040757D01*
X0164789Y0040888D01*
X0164650Y0041023D01*
X0164515Y0041162D01*
X0164384Y0041303D01*
X0164256Y0041448D01*
X0164131Y0041596D01*
X0164011Y0041747D01*
X0163894Y0041900D01*
X0163780Y0042057D01*
X0163671Y0042216D01*
X0163566Y0042378D01*
X0163464Y0042543D01*
X0163367Y0042710D01*
X0163274Y0042879D01*
X0163185Y0043051D01*
X0163100Y0043224D01*
X0163020Y0043400D01*
X0162943Y0043578D01*
X0162872Y0043757D01*
X0162804Y0043938D01*
X0162741Y0044121D01*
X0162683Y0044305D01*
X0162629Y0044491D01*
X0162580Y0044678D01*
X0162535Y0044866D01*
X0162495Y0045055D01*
X0162460Y0045245D01*
X0162429Y0045436D01*
X0162403Y0045627D01*
X0162382Y0045819D01*
X0162365Y0046012D01*
X0162353Y0046205D01*
X0162346Y0046398D01*
X0162344Y0046591D01*
X0028092Y0172575D02*
X0028094Y0172768D01*
X0028101Y0172961D01*
X0028113Y0173154D01*
X0028130Y0173347D01*
X0028151Y0173539D01*
X0028177Y0173730D01*
X0028208Y0173921D01*
X0028243Y0174111D01*
X0028283Y0174300D01*
X0028328Y0174488D01*
X0028377Y0174675D01*
X0028431Y0174861D01*
X0028489Y0175045D01*
X0028552Y0175228D01*
X0028620Y0175409D01*
X0028691Y0175588D01*
X0028768Y0175766D01*
X0028848Y0175942D01*
X0028933Y0176115D01*
X0029022Y0176287D01*
X0029115Y0176456D01*
X0029212Y0176623D01*
X0029314Y0176788D01*
X0029419Y0176950D01*
X0029528Y0177109D01*
X0029642Y0177266D01*
X0029759Y0177419D01*
X0029879Y0177570D01*
X0030004Y0177718D01*
X0030132Y0177863D01*
X0030263Y0178004D01*
X0030398Y0178143D01*
X0030537Y0178278D01*
X0030678Y0178409D01*
X0030823Y0178537D01*
X0030971Y0178662D01*
X0031122Y0178782D01*
X0031275Y0178899D01*
X0031432Y0179013D01*
X0031591Y0179122D01*
X0031753Y0179227D01*
X0031918Y0179329D01*
X0032085Y0179426D01*
X0032254Y0179519D01*
X0032426Y0179608D01*
X0032599Y0179693D01*
X0032775Y0179773D01*
X0032953Y0179850D01*
X0033132Y0179921D01*
X0033313Y0179989D01*
X0033496Y0180052D01*
X0033680Y0180110D01*
X0033866Y0180164D01*
X0034053Y0180213D01*
X0034241Y0180258D01*
X0034430Y0180298D01*
X0034620Y0180333D01*
X0034811Y0180364D01*
X0035002Y0180390D01*
X0035194Y0180411D01*
X0035387Y0180428D01*
X0035580Y0180440D01*
X0035773Y0180447D01*
X0035966Y0180449D01*
X0036159Y0180447D01*
X0036352Y0180440D01*
X0036545Y0180428D01*
X0036738Y0180411D01*
X0036930Y0180390D01*
X0037121Y0180364D01*
X0037312Y0180333D01*
X0037502Y0180298D01*
X0037691Y0180258D01*
X0037879Y0180213D01*
X0038066Y0180164D01*
X0038252Y0180110D01*
X0038436Y0180052D01*
X0038619Y0179989D01*
X0038800Y0179921D01*
X0038979Y0179850D01*
X0039157Y0179773D01*
X0039333Y0179693D01*
X0039506Y0179608D01*
X0039678Y0179519D01*
X0039847Y0179426D01*
X0040014Y0179329D01*
X0040179Y0179227D01*
X0040341Y0179122D01*
X0040500Y0179013D01*
X0040657Y0178899D01*
X0040810Y0178782D01*
X0040961Y0178662D01*
X0041109Y0178537D01*
X0041254Y0178409D01*
X0041395Y0178278D01*
X0041534Y0178143D01*
X0041669Y0178004D01*
X0041800Y0177863D01*
X0041928Y0177718D01*
X0042053Y0177570D01*
X0042173Y0177419D01*
X0042290Y0177266D01*
X0042404Y0177109D01*
X0042513Y0176950D01*
X0042618Y0176788D01*
X0042720Y0176623D01*
X0042817Y0176456D01*
X0042910Y0176287D01*
X0042999Y0176115D01*
X0043084Y0175942D01*
X0043164Y0175766D01*
X0043241Y0175588D01*
X0043312Y0175409D01*
X0043380Y0175228D01*
X0043443Y0175045D01*
X0043501Y0174861D01*
X0043555Y0174675D01*
X0043604Y0174488D01*
X0043649Y0174300D01*
X0043689Y0174111D01*
X0043724Y0173921D01*
X0043755Y0173730D01*
X0043781Y0173539D01*
X0043802Y0173347D01*
X0043819Y0173154D01*
X0043831Y0172961D01*
X0043838Y0172768D01*
X0043840Y0172575D01*
X0043838Y0172382D01*
X0043831Y0172189D01*
X0043819Y0171996D01*
X0043802Y0171803D01*
X0043781Y0171611D01*
X0043755Y0171420D01*
X0043724Y0171229D01*
X0043689Y0171039D01*
X0043649Y0170850D01*
X0043604Y0170662D01*
X0043555Y0170475D01*
X0043501Y0170289D01*
X0043443Y0170105D01*
X0043380Y0169922D01*
X0043312Y0169741D01*
X0043241Y0169562D01*
X0043164Y0169384D01*
X0043084Y0169208D01*
X0042999Y0169035D01*
X0042910Y0168863D01*
X0042817Y0168694D01*
X0042720Y0168527D01*
X0042618Y0168362D01*
X0042513Y0168200D01*
X0042404Y0168041D01*
X0042290Y0167884D01*
X0042173Y0167731D01*
X0042053Y0167580D01*
X0041928Y0167432D01*
X0041800Y0167287D01*
X0041669Y0167146D01*
X0041534Y0167007D01*
X0041395Y0166872D01*
X0041254Y0166741D01*
X0041109Y0166613D01*
X0040961Y0166488D01*
X0040810Y0166368D01*
X0040657Y0166251D01*
X0040500Y0166137D01*
X0040341Y0166028D01*
X0040179Y0165923D01*
X0040014Y0165821D01*
X0039847Y0165724D01*
X0039678Y0165631D01*
X0039506Y0165542D01*
X0039333Y0165457D01*
X0039157Y0165377D01*
X0038979Y0165300D01*
X0038800Y0165229D01*
X0038619Y0165161D01*
X0038436Y0165098D01*
X0038252Y0165040D01*
X0038066Y0164986D01*
X0037879Y0164937D01*
X0037691Y0164892D01*
X0037502Y0164852D01*
X0037312Y0164817D01*
X0037121Y0164786D01*
X0036930Y0164760D01*
X0036738Y0164739D01*
X0036545Y0164722D01*
X0036352Y0164710D01*
X0036159Y0164703D01*
X0035966Y0164701D01*
X0035773Y0164703D01*
X0035580Y0164710D01*
X0035387Y0164722D01*
X0035194Y0164739D01*
X0035002Y0164760D01*
X0034811Y0164786D01*
X0034620Y0164817D01*
X0034430Y0164852D01*
X0034241Y0164892D01*
X0034053Y0164937D01*
X0033866Y0164986D01*
X0033680Y0165040D01*
X0033496Y0165098D01*
X0033313Y0165161D01*
X0033132Y0165229D01*
X0032953Y0165300D01*
X0032775Y0165377D01*
X0032599Y0165457D01*
X0032426Y0165542D01*
X0032254Y0165631D01*
X0032085Y0165724D01*
X0031918Y0165821D01*
X0031753Y0165923D01*
X0031591Y0166028D01*
X0031432Y0166137D01*
X0031275Y0166251D01*
X0031122Y0166368D01*
X0030971Y0166488D01*
X0030823Y0166613D01*
X0030678Y0166741D01*
X0030537Y0166872D01*
X0030398Y0167007D01*
X0030263Y0167146D01*
X0030132Y0167287D01*
X0030004Y0167432D01*
X0029879Y0167580D01*
X0029759Y0167731D01*
X0029642Y0167884D01*
X0029528Y0168041D01*
X0029419Y0168200D01*
X0029314Y0168362D01*
X0029212Y0168527D01*
X0029115Y0168694D01*
X0029022Y0168863D01*
X0028933Y0169035D01*
X0028848Y0169208D01*
X0028768Y0169384D01*
X0028691Y0169562D01*
X0028620Y0169741D01*
X0028552Y0169922D01*
X0028489Y0170105D01*
X0028431Y0170289D01*
X0028377Y0170475D01*
X0028328Y0170662D01*
X0028283Y0170850D01*
X0028243Y0171039D01*
X0028208Y0171229D01*
X0028177Y0171420D01*
X0028151Y0171611D01*
X0028130Y0171803D01*
X0028113Y0171996D01*
X0028101Y0172189D01*
X0028094Y0172382D01*
X0028092Y0172575D01*
D12*
X0031517Y0152543D03*
X0011517Y0152543D03*
X0056509Y0161906D03*
X0069509Y0151906D03*
X0083698Y0152000D03*
X0092667Y0140000D03*
X0096667Y0161000D03*
X0107667Y0161000D03*
X0112667Y0152000D03*
X0132667Y0152000D03*
X0132667Y0140000D03*
X0128619Y0171449D03*
X0128619Y0191449D03*
X0107667Y0201000D03*
X0096667Y0201000D03*
X0083698Y0202000D03*
X0069509Y0201906D03*
X0056509Y0201906D03*
D13*
X0045604Y0098472D03*
X0015604Y0098472D03*
D14*
X0027045Y0191187D02*
X0027045Y0196387D01*
X0037045Y0196387D02*
X0037045Y0191187D01*
X0047045Y0191187D02*
X0047045Y0196387D01*
X0142667Y0156600D02*
X0142667Y0151400D01*
X0152667Y0151400D02*
X0152667Y0156600D01*
X0162667Y0156600D02*
X0162667Y0151400D01*
X0172667Y0151400D02*
X0172667Y0156600D01*
X0172667Y0126600D02*
X0172667Y0121400D01*
X0162667Y0121400D02*
X0162667Y0126600D01*
X0152667Y0126600D02*
X0152667Y0121400D01*
X0142667Y0121400D02*
X0142667Y0126600D01*
D15*
X0047509Y0031525D02*
X0047509Y0024475D01*
X0027824Y0024475D02*
X0027824Y0031525D01*
D16*
X0142667Y0167000D03*
X0152667Y0167000D03*
X0162667Y0167000D03*
X0172667Y0167000D03*
X0172667Y0197000D03*
X0162667Y0197000D03*
X0152667Y0197000D03*
X0142667Y0197000D03*
D17*
X0132667Y0131000D03*
X0132667Y0121000D03*
D18*
X0174029Y0070606D03*
D19*
X0095289Y0070606D03*
D20*
X0065667Y0085425D02*
X0065667Y0090575D01*
X0025667Y0090575D02*
X0025667Y0085425D01*
X0015667Y0085425D02*
X0015667Y0090575D01*
X0015667Y0060575D02*
X0015667Y0055425D01*
X0025667Y0055425D02*
X0025667Y0060575D01*
D21*
X0017667Y0114724D02*
X0011667Y0114724D01*
X0011667Y0124724D02*
X0017667Y0124724D01*
X0017667Y0134724D02*
X0011667Y0134724D01*
X0189667Y0133000D02*
X0195667Y0133000D01*
X0195667Y0143000D02*
X0189667Y0143000D01*
X0189667Y0153000D02*
X0195667Y0153000D01*
X0195667Y0163000D02*
X0189667Y0163000D01*
X0189667Y0173000D02*
X0195667Y0173000D01*
X0195667Y0183000D02*
X0189667Y0183000D01*
X0189667Y0113457D02*
X0195667Y0113457D01*
X0195667Y0103457D02*
X0189667Y0103457D01*
X0189667Y0093457D02*
X0195667Y0093457D01*
X0195667Y0083457D02*
X0189667Y0083457D01*
X0189667Y0073457D02*
X0195667Y0073457D01*
X0195667Y0063457D02*
X0189667Y0063457D01*
D22*
X0018210Y0187961D02*
X0011123Y0187961D01*
X0011123Y0197961D02*
X0018210Y0197961D01*
D23*
X0011706Y0168756D03*
D24*
X0021706Y0168756D03*
D25*
X0022017Y0169000D01*
X0024767Y0171750D01*
X0024767Y0193750D01*
X0027045Y0193787D01*
X0026967Y0194300D01*
X0018167Y0194300D01*
X0014867Y0197600D01*
X0014667Y0197961D01*
X0014667Y0187961D02*
X0014317Y0187700D01*
X0014317Y0171200D01*
X0012117Y0169000D01*
X0011706Y0168756D01*
X0011567Y0168450D01*
X0011567Y0153050D01*
X0011517Y0152543D01*
X0011567Y0151950D01*
X0014317Y0149200D01*
X0014317Y0134900D01*
X0014667Y0134724D01*
X0014867Y0125000D02*
X0014667Y0124724D01*
X0014867Y0125000D02*
X0016517Y0125000D01*
X0032467Y0140950D01*
X0032467Y0151400D01*
X0031517Y0152543D01*
X0031367Y0153050D01*
X0022017Y0162400D01*
X0022017Y0168450D01*
X0021706Y0168756D01*
X0031517Y0152543D02*
X0031917Y0152500D01*
X0032467Y0151950D01*
X0069317Y0151950D01*
X0069509Y0151906D01*
X0092967Y0157450D02*
X0092967Y0140400D01*
X0092667Y0140000D01*
X0092417Y0139300D01*
X0092417Y0131600D01*
X0059417Y0098600D01*
X0046217Y0098600D01*
X0045604Y0098472D01*
X0045117Y0098050D01*
X0035217Y0088150D01*
X0025867Y0088150D01*
X0025667Y0088000D01*
X0025867Y0088700D01*
X0025867Y0096400D01*
X0014867Y0107400D01*
X0014867Y0114550D01*
X0014667Y0114724D01*
X0092967Y0157450D02*
X0096267Y0160750D01*
X0096667Y0161000D01*
X0097367Y0160750D01*
X0107267Y0160750D01*
X0107667Y0161000D01*
X0108367Y0160750D01*
X0111667Y0160750D01*
X0126517Y0145900D01*
X0127067Y0145900D01*
X0132567Y0151400D01*
X0132667Y0152000D01*
X0133117Y0152500D01*
X0141367Y0152500D01*
X0142467Y0153600D01*
X0142667Y0154000D01*
X0127067Y0145900D02*
X0127067Y0105750D01*
X0168867Y0063950D01*
X0192517Y0063950D01*
X0192667Y0063457D01*
X0192667Y0073457D02*
X0192517Y0073850D01*
X0190867Y0073850D01*
X0172717Y0092000D01*
X0172717Y0123900D01*
X0172667Y0124000D01*
X0162817Y0123900D02*
X0162667Y0124000D01*
X0162817Y0123900D02*
X0162817Y0082100D01*
X0173817Y0071100D01*
X0174029Y0070606D01*
X0112217Y0146450D02*
X0112217Y0151950D01*
X0112667Y0152000D01*
X0112217Y0146450D02*
X0095717Y0129950D01*
X0095717Y0071100D01*
X0095289Y0070606D01*
X0172667Y0167000D02*
X0172717Y0167350D01*
X0178217Y0172850D01*
X0192517Y0172850D01*
X0192667Y0173000D01*
X0192667Y0183000D02*
X0192517Y0183300D01*
X0155667Y0183300D01*
X0143017Y0195950D01*
X0142667Y0197000D01*
X0142467Y0196500D01*
X0137517Y0191550D01*
X0128717Y0191550D01*
X0128619Y0191449D01*
D26*
X0123219Y0191595D02*
X0052445Y0191595D01*
X0052445Y0190113D02*
X0052445Y0197462D01*
X0052201Y0198050D01*
X0052728Y0198050D01*
X0054272Y0196506D01*
X0058746Y0196506D01*
X0060840Y0198600D01*
X0065178Y0198600D01*
X0067272Y0196506D01*
X0071746Y0196506D01*
X0074909Y0199669D01*
X0074909Y0204142D01*
X0073193Y0205858D01*
X0079920Y0205858D01*
X0078298Y0204237D01*
X0078298Y0199763D01*
X0081461Y0196600D01*
X0085935Y0196600D01*
X0089098Y0199763D01*
X0089098Y0204237D01*
X0087477Y0205858D01*
X0093888Y0205858D01*
X0091267Y0203237D01*
X0091267Y0198763D01*
X0094430Y0195600D01*
X0098903Y0195600D01*
X0102067Y0198763D01*
X0102067Y0203237D01*
X0099445Y0205858D01*
X0104888Y0205858D01*
X0102267Y0203237D01*
X0102267Y0198763D01*
X0105430Y0195600D01*
X0109903Y0195600D01*
X0112353Y0198050D01*
X0136467Y0198050D01*
X0136467Y0195520D01*
X0136046Y0195100D01*
X0132605Y0195100D01*
X0130856Y0196849D01*
X0126383Y0196849D01*
X0123219Y0193686D01*
X0123219Y0189212D01*
X0126383Y0186049D01*
X0130856Y0186049D01*
X0132807Y0188000D01*
X0138223Y0188000D01*
X0139528Y0188540D01*
X0141787Y0190800D01*
X0143146Y0190800D01*
X0153656Y0180290D01*
X0154961Y0179750D01*
X0184735Y0179750D01*
X0184750Y0179715D01*
X0186381Y0178083D01*
X0187874Y0177465D01*
X0187824Y0177448D01*
X0187151Y0177105D01*
X0186540Y0176661D01*
X0186005Y0176127D01*
X0185561Y0175516D01*
X0185218Y0174843D01*
X0184985Y0174124D01*
X0184867Y0173378D01*
X0184867Y0173200D01*
X0192467Y0173200D01*
X0192467Y0172800D01*
X0184867Y0172800D01*
X0184867Y0172622D01*
X0184985Y0171876D01*
X0185218Y0171157D01*
X0185561Y0170484D01*
X0186005Y0169873D01*
X0186540Y0169339D01*
X0187151Y0168895D01*
X0187824Y0168552D01*
X0187874Y0168535D01*
X0187079Y0168206D01*
X0186617Y0168668D01*
X0185092Y0169300D01*
X0183441Y0169300D01*
X0181916Y0168668D01*
X0180748Y0167501D01*
X0180117Y0165975D01*
X0180117Y0164325D01*
X0180748Y0162799D01*
X0180867Y0162681D01*
X0180867Y0161072D01*
X0179592Y0161600D01*
X0177941Y0161600D01*
X0176416Y0160968D01*
X0176176Y0160728D01*
X0175726Y0161178D01*
X0174224Y0161800D01*
X0174821Y0161800D01*
X0177867Y0164846D01*
X0177867Y0167000D01*
X0177867Y0169154D01*
X0174821Y0172200D01*
X0172667Y0172200D01*
X0172667Y0167000D01*
X0177867Y0167000D01*
X0172667Y0167000D01*
X0172667Y0167000D01*
X0172667Y0167000D01*
X0172667Y0172200D01*
X0170513Y0172200D01*
X0168374Y0170061D01*
X0165235Y0173200D01*
X0161225Y0173200D01*
X0159243Y0175182D01*
X0157993Y0175700D01*
X0140140Y0175700D01*
X0138891Y0175182D01*
X0137934Y0174226D01*
X0132808Y0169100D01*
X0132493Y0169100D01*
X0133019Y0169626D01*
X0133019Y0171449D01*
X0133019Y0173271D01*
X0130442Y0175849D01*
X0128619Y0175849D01*
X0126797Y0175849D01*
X0124219Y0173271D01*
X0124219Y0171449D01*
X0128619Y0171449D01*
X0128619Y0171449D01*
X0128619Y0175849D01*
X0128619Y0171449D01*
X0128619Y0171449D01*
X0124219Y0171449D01*
X0124219Y0169650D01*
X0093390Y0169650D01*
X0092141Y0169132D01*
X0091184Y0168176D01*
X0088808Y0165800D01*
X0060251Y0165800D01*
X0058746Y0167305D01*
X0054272Y0167305D01*
X0051109Y0164142D01*
X0051109Y0159669D01*
X0054272Y0156506D01*
X0058746Y0156506D01*
X0061240Y0159000D01*
X0089766Y0159000D01*
X0089417Y0158156D01*
X0089417Y0144387D01*
X0087267Y0142237D01*
X0087267Y0137763D01*
X0088867Y0136163D01*
X0088867Y0133070D01*
X0082167Y0126370D01*
X0082167Y0126415D01*
X0080873Y0129539D01*
X0078482Y0131930D01*
X0075357Y0133224D01*
X0071976Y0133224D01*
X0068852Y0131930D01*
X0066461Y0129539D01*
X0065167Y0126415D01*
X0065167Y0123034D01*
X0066461Y0119910D01*
X0068852Y0117518D01*
X0071976Y0116224D01*
X0072021Y0116224D01*
X0057946Y0102150D01*
X0049806Y0102150D01*
X0048760Y0103196D01*
X0046712Y0104044D01*
X0044495Y0104044D01*
X0042448Y0103196D01*
X0040880Y0101629D01*
X0040032Y0099581D01*
X0040032Y0097986D01*
X0037046Y0095000D01*
X0029417Y0095000D01*
X0029417Y0097106D01*
X0028876Y0098411D01*
X0027878Y0099410D01*
X0018417Y0108870D01*
X0018417Y0108924D01*
X0018820Y0108924D01*
X0020952Y0109807D01*
X0022584Y0111439D01*
X0023467Y0113571D01*
X0023467Y0115878D01*
X0022584Y0118010D01*
X0020952Y0119641D01*
X0019459Y0120260D01*
X0019509Y0120276D01*
X0020182Y0120619D01*
X0020794Y0121063D01*
X0021328Y0121597D01*
X0021772Y0122209D01*
X0022115Y0122882D01*
X0022348Y0123600D01*
X0022467Y0124347D01*
X0022467Y0124524D01*
X0014867Y0124524D01*
X0014867Y0124924D01*
X0022467Y0124924D01*
X0022467Y0125102D01*
X0022348Y0125848D01*
X0022115Y0126567D01*
X0021772Y0127240D01*
X0021328Y0127851D01*
X0020794Y0128386D01*
X0020182Y0128830D01*
X0019509Y0129173D01*
X0019459Y0129189D01*
X0020952Y0129807D01*
X0022584Y0131439D01*
X0023467Y0133571D01*
X0023467Y0135878D01*
X0022584Y0138010D01*
X0020952Y0139641D01*
X0018820Y0140524D01*
X0017867Y0140524D01*
X0017867Y0149906D01*
X0017326Y0151211D01*
X0016917Y0151620D01*
X0016917Y0154780D01*
X0015117Y0156580D01*
X0015117Y0162706D01*
X0015513Y0162706D01*
X0016542Y0163132D01*
X0017330Y0163920D01*
X0017756Y0164949D01*
X0017756Y0165601D01*
X0017854Y0165466D01*
X0018416Y0164904D01*
X0019059Y0164437D01*
X0019767Y0164076D01*
X0020523Y0163830D01*
X0021309Y0163706D01*
X0021706Y0163706D01*
X0021706Y0168756D01*
X0021706Y0173806D01*
X0021309Y0173806D01*
X0020523Y0173682D01*
X0019767Y0173436D01*
X0019059Y0173075D01*
X0018416Y0172608D01*
X0017867Y0172058D01*
X0017867Y0181617D01*
X0019472Y0181617D01*
X0021803Y0182583D01*
X0023588Y0184367D01*
X0024553Y0186699D01*
X0024553Y0187559D01*
X0024739Y0187424D01*
X0025356Y0187110D01*
X0026014Y0186896D01*
X0026698Y0186787D01*
X0027045Y0186787D01*
X0027391Y0186787D01*
X0028075Y0186896D01*
X0028734Y0187110D01*
X0029351Y0187424D01*
X0029911Y0187831D01*
X0030401Y0188321D01*
X0030808Y0188881D01*
X0031122Y0189498D01*
X0031336Y0190157D01*
X0031445Y0190841D01*
X0031445Y0193787D01*
X0027045Y0193787D01*
X0027045Y0193787D01*
X0027045Y0186787D01*
X0027045Y0193787D01*
X0027045Y0193787D01*
X0031445Y0193787D01*
X0031445Y0196734D01*
X0031336Y0197418D01*
X0031122Y0198076D01*
X0030808Y0198693D01*
X0030401Y0199254D01*
X0029911Y0199744D01*
X0029351Y0200151D01*
X0028734Y0200465D01*
X0028075Y0200679D01*
X0027391Y0200787D01*
X0027045Y0200787D01*
X0027045Y0193788D01*
X0027045Y0193788D01*
X0027045Y0200787D01*
X0026698Y0200787D01*
X0026014Y0200679D01*
X0025356Y0200465D01*
X0024739Y0200151D01*
X0024178Y0199744D01*
X0023688Y0199254D01*
X0023464Y0198945D01*
X0023422Y0199212D01*
X0023162Y0200012D01*
X0022780Y0200761D01*
X0022286Y0201442D01*
X0021691Y0202036D01*
X0021010Y0202531D01*
X0020261Y0202912D01*
X0019461Y0203172D01*
X0018630Y0203304D01*
X0015048Y0203304D01*
X0015048Y0198342D01*
X0014286Y0198342D01*
X0014286Y0203304D01*
X0010703Y0203304D01*
X0009872Y0203172D01*
X0009072Y0202912D01*
X0008323Y0202531D01*
X0007642Y0202036D01*
X0007048Y0201442D01*
X0006553Y0200761D01*
X0006541Y0200736D01*
X0006541Y0205858D01*
X0052825Y0205858D01*
X0051817Y0204850D01*
X0044990Y0204850D01*
X0043741Y0204332D01*
X0042784Y0203376D01*
X0040239Y0200830D01*
X0040103Y0200965D01*
X0038119Y0201787D01*
X0035970Y0201787D01*
X0033986Y0200965D01*
X0032467Y0199446D01*
X0031645Y0197462D01*
X0031645Y0190113D01*
X0032467Y0188129D01*
X0033986Y0186609D01*
X0035970Y0185787D01*
X0038119Y0185787D01*
X0040103Y0186609D01*
X0041623Y0188129D01*
X0042045Y0189148D01*
X0042467Y0188129D01*
X0043986Y0186609D01*
X0045970Y0185787D01*
X0048119Y0185787D01*
X0050103Y0186609D01*
X0051623Y0188129D01*
X0052445Y0190113D01*
X0052396Y0189996D02*
X0123219Y0189996D01*
X0124034Y0188398D02*
X0051734Y0188398D01*
X0050293Y0186799D02*
X0125632Y0186799D01*
X0131606Y0186799D02*
X0147147Y0186799D01*
X0145549Y0188398D02*
X0139183Y0188398D01*
X0140983Y0189996D02*
X0143950Y0189996D01*
X0148746Y0185201D02*
X0023933Y0185201D01*
X0024553Y0186799D02*
X0026625Y0186799D01*
X0027045Y0186799D02*
X0027045Y0186799D01*
X0027464Y0186799D02*
X0033796Y0186799D01*
X0032355Y0188398D02*
X0030456Y0188398D01*
X0031284Y0189996D02*
X0031693Y0189996D01*
X0031645Y0191595D02*
X0031445Y0191595D01*
X0031445Y0193193D02*
X0031645Y0193193D01*
X0031645Y0194792D02*
X0031445Y0194792D01*
X0031445Y0196390D02*
X0031645Y0196390D01*
X0031863Y0197989D02*
X0031151Y0197989D01*
X0030067Y0199587D02*
X0032608Y0199587D01*
X0034518Y0201186D02*
X0022472Y0201186D01*
X0023300Y0199587D02*
X0024022Y0199587D01*
X0027045Y0199587D02*
X0027045Y0199587D01*
X0027045Y0197989D02*
X0027045Y0197989D01*
X0027045Y0196390D02*
X0027045Y0196390D01*
X0027045Y0194792D02*
X0027045Y0194792D01*
X0027044Y0193787D02*
X0027044Y0193787D01*
X0022645Y0193787D01*
X0022645Y0192497D01*
X0021803Y0193338D01*
X0021252Y0193566D01*
X0021691Y0193885D01*
X0022286Y0194480D01*
X0022645Y0194974D01*
X0022645Y0193787D01*
X0027044Y0193787D01*
X0027045Y0193193D02*
X0027045Y0193193D01*
X0027045Y0191595D02*
X0027045Y0191595D01*
X0027045Y0189996D02*
X0027045Y0189996D01*
X0027045Y0188398D02*
X0027045Y0188398D01*
X0022822Y0183602D02*
X0150344Y0183602D01*
X0151943Y0182003D02*
X0039001Y0182003D01*
X0040455Y0181590D02*
X0036895Y0182603D01*
X0033210Y0182261D01*
X0033210Y0182261D01*
X0029897Y0180612D01*
X0027403Y0177876D01*
X0026066Y0174425D01*
X0026066Y0171322D01*
X0026025Y0171403D01*
X0025558Y0172046D01*
X0024996Y0172608D01*
X0024353Y0173075D01*
X0023645Y0173436D01*
X0022889Y0173682D01*
X0022103Y0173806D01*
X0021706Y0173806D01*
X0021706Y0168756D01*
X0021706Y0168756D01*
X0026756Y0168756D01*
X0026756Y0168944D01*
X0027403Y0167273D01*
X0029897Y0164538D01*
X0033210Y0162888D01*
X0036895Y0162547D01*
X0040455Y0163560D01*
X0043408Y0165790D01*
X0045357Y0168937D01*
X0046037Y0172575D01*
X0045357Y0176213D01*
X0043408Y0179359D01*
X0043408Y0179359D01*
X0040455Y0181590D01*
X0040455Y0181590D01*
X0042024Y0180405D02*
X0153541Y0180405D01*
X0158212Y0175609D02*
X0185629Y0175609D01*
X0184967Y0174011D02*
X0160414Y0174011D01*
X0166022Y0172412D02*
X0184900Y0172412D01*
X0185393Y0170814D02*
X0176207Y0170814D01*
X0177805Y0169215D02*
X0183237Y0169215D01*
X0185296Y0169215D02*
X0186709Y0169215D01*
X0180865Y0167617D02*
X0177867Y0167617D01*
X0177867Y0166018D02*
X0180134Y0166018D01*
X0180117Y0164420D02*
X0177440Y0164420D01*
X0175842Y0162821D02*
X0180739Y0162821D01*
X0180867Y0161223D02*
X0180503Y0161223D01*
X0177031Y0161223D02*
X0175617Y0161223D01*
X0172667Y0167617D02*
X0172667Y0167617D01*
X0172667Y0169215D02*
X0172667Y0169215D01*
X0172667Y0170814D02*
X0172667Y0170814D01*
X0169127Y0170814D02*
X0167621Y0170814D01*
X0185658Y0178806D02*
X0043751Y0178806D01*
X0043408Y0179359D02*
X0043408Y0179359D01*
X0044741Y0177208D02*
X0187352Y0177208D01*
X0157667Y0149360D02*
X0158089Y0148341D01*
X0159608Y0146822D01*
X0161593Y0146000D01*
X0163741Y0146000D01*
X0165726Y0146822D01*
X0166081Y0147177D01*
X0170767Y0142492D01*
X0170767Y0142325D01*
X0171398Y0140799D01*
X0172566Y0139632D01*
X0174091Y0139000D01*
X0174817Y0139000D01*
X0174817Y0130443D01*
X0174356Y0130678D01*
X0173697Y0130892D01*
X0173013Y0131000D01*
X0172667Y0131000D01*
X0172667Y0124000D01*
X0172667Y0117000D01*
X0173013Y0117000D01*
X0173697Y0117108D01*
X0174356Y0117322D01*
X0174817Y0117557D01*
X0174817Y0097374D01*
X0175334Y0096124D01*
X0176291Y0095168D01*
X0184740Y0086718D01*
X0183867Y0084610D01*
X0183867Y0082303D01*
X0184750Y0080171D01*
X0186381Y0078540D01*
X0187874Y0077921D01*
X0187824Y0077905D01*
X0187151Y0077562D01*
X0186540Y0077118D01*
X0186005Y0076584D01*
X0185561Y0075972D01*
X0185218Y0075299D01*
X0184985Y0074581D01*
X0184867Y0073834D01*
X0184867Y0073657D01*
X0192467Y0073657D01*
X0192467Y0077657D01*
X0192867Y0077657D01*
X0192867Y0073657D01*
X0192467Y0073657D01*
X0192467Y0073257D01*
X0184867Y0073257D01*
X0184867Y0073079D01*
X0184985Y0072333D01*
X0185218Y0071614D01*
X0185561Y0070941D01*
X0186005Y0070330D01*
X0186540Y0069795D01*
X0187151Y0069351D01*
X0187824Y0069008D01*
X0187874Y0068992D01*
X0186381Y0068374D01*
X0185508Y0067500D01*
X0180629Y0067500D01*
X0180629Y0074963D01*
X0180203Y0075992D01*
X0179415Y0076780D01*
X0178386Y0077206D01*
X0172731Y0077206D01*
X0166367Y0083570D01*
X0166367Y0117463D01*
X0167245Y0118341D01*
X0168067Y0120326D01*
X0168067Y0127674D01*
X0167245Y0129659D01*
X0165726Y0131178D01*
X0163741Y0132000D01*
X0161593Y0132000D01*
X0159608Y0131178D01*
X0158089Y0129659D01*
X0157667Y0128640D01*
X0157245Y0129659D01*
X0155726Y0131178D01*
X0153741Y0132000D01*
X0151593Y0132000D01*
X0149608Y0131178D01*
X0148089Y0129659D01*
X0147667Y0128640D01*
X0147245Y0129659D01*
X0145726Y0131178D01*
X0143741Y0132000D01*
X0141593Y0132000D01*
X0139608Y0131178D01*
X0138427Y0129998D01*
X0138067Y0130358D01*
X0138067Y0132074D01*
X0137245Y0134059D01*
X0135803Y0135500D01*
X0137303Y0137000D01*
X0139843Y0137000D01*
X0141093Y0137518D01*
X0150166Y0146591D01*
X0151593Y0146000D01*
X0153741Y0146000D01*
X0155726Y0146822D01*
X0157245Y0148341D01*
X0157667Y0149360D01*
X0157283Y0148435D02*
X0158050Y0148435D01*
X0159594Y0146836D02*
X0155740Y0146836D01*
X0148813Y0145238D02*
X0168021Y0145238D01*
X0169619Y0143639D02*
X0147214Y0143639D01*
X0145616Y0142041D02*
X0170884Y0142041D01*
X0171755Y0140442D02*
X0144017Y0140442D01*
X0142419Y0138844D02*
X0174817Y0138844D01*
X0174817Y0137245D02*
X0140435Y0137245D01*
X0137249Y0134048D02*
X0174817Y0134048D01*
X0174817Y0132450D02*
X0137911Y0132450D01*
X0138067Y0130851D02*
X0139281Y0130851D01*
X0135950Y0135647D02*
X0174817Y0135647D01*
X0174817Y0130851D02*
X0173822Y0130851D01*
X0172667Y0130851D02*
X0172667Y0130851D01*
X0172667Y0131000D02*
X0172320Y0131000D01*
X0171636Y0130892D01*
X0170978Y0130678D01*
X0170361Y0130363D01*
X0169800Y0129956D01*
X0169311Y0129466D01*
X0168903Y0128906D01*
X0168589Y0128289D01*
X0168375Y0127630D01*
X0168267Y0126946D01*
X0168267Y0124000D01*
X0168267Y0121054D01*
X0168375Y0120370D01*
X0168589Y0119711D01*
X0168903Y0119094D01*
X0169311Y0118534D01*
X0169800Y0118044D01*
X0170361Y0117637D01*
X0170978Y0117322D01*
X0171636Y0117108D01*
X0172320Y0117000D01*
X0172667Y0117000D01*
X0172667Y0124000D01*
X0172667Y0124000D01*
X0172667Y0124000D01*
X0172667Y0131000D01*
X0171512Y0130851D02*
X0166052Y0130851D01*
X0167413Y0129253D02*
X0169155Y0129253D01*
X0168383Y0127654D02*
X0168067Y0127654D01*
X0168067Y0126056D02*
X0168267Y0126056D01*
X0168267Y0124457D02*
X0168067Y0124457D01*
X0168267Y0124000D02*
X0172667Y0124000D01*
X0168267Y0124000D01*
X0168267Y0122859D02*
X0168067Y0122859D01*
X0168067Y0121260D02*
X0168267Y0121260D01*
X0168614Y0119662D02*
X0167791Y0119662D01*
X0166966Y0118063D02*
X0169781Y0118063D01*
X0166367Y0116465D02*
X0174817Y0116465D01*
X0174817Y0114866D02*
X0166367Y0114866D01*
X0166367Y0113268D02*
X0174817Y0113268D01*
X0174817Y0111669D02*
X0166367Y0111669D01*
X0166367Y0110070D02*
X0174817Y0110070D01*
X0174817Y0108472D02*
X0166367Y0108472D01*
X0166367Y0106873D02*
X0174817Y0106873D01*
X0174817Y0105275D02*
X0166367Y0105275D01*
X0166367Y0103676D02*
X0174817Y0103676D01*
X0174817Y0102078D02*
X0166367Y0102078D01*
X0166367Y0100479D02*
X0174817Y0100479D01*
X0174817Y0098881D02*
X0166367Y0098881D01*
X0166367Y0097282D02*
X0174854Y0097282D01*
X0175774Y0095684D02*
X0166367Y0095684D01*
X0166367Y0094085D02*
X0177373Y0094085D01*
X0176291Y0095168D02*
X0176291Y0095168D01*
X0178971Y0092487D02*
X0166367Y0092487D01*
X0166367Y0090888D02*
X0180570Y0090888D01*
X0182169Y0089290D02*
X0166367Y0089290D01*
X0166367Y0087691D02*
X0183767Y0087691D01*
X0184481Y0086093D02*
X0166367Y0086093D01*
X0166367Y0084494D02*
X0183867Y0084494D01*
X0183867Y0082896D02*
X0167041Y0082896D01*
X0168640Y0081297D02*
X0184283Y0081297D01*
X0185222Y0079699D02*
X0170238Y0079699D01*
X0171837Y0078100D02*
X0187442Y0078100D01*
X0185946Y0076502D02*
X0179693Y0076502D01*
X0180629Y0074903D02*
X0185090Y0074903D01*
X0185188Y0071706D02*
X0180629Y0071706D01*
X0180629Y0070108D02*
X0186227Y0070108D01*
X0186708Y0068509D02*
X0180629Y0068509D01*
X0180629Y0073305D02*
X0192467Y0073305D01*
X0192467Y0074903D02*
X0192867Y0074903D01*
X0192867Y0076502D02*
X0192467Y0076502D01*
X0184655Y0060400D02*
X0184750Y0060171D01*
X0186381Y0058540D01*
X0187684Y0058000D01*
X0094667Y0058000D01*
X0077667Y0073000D01*
X0077667Y0095000D01*
X0068843Y0095000D01*
X0068711Y0095131D01*
X0066736Y0095950D01*
X0064598Y0095950D01*
X0062622Y0095131D01*
X0062491Y0095000D01*
X0050011Y0095000D01*
X0050061Y0095050D01*
X0060123Y0095050D01*
X0061428Y0095590D01*
X0094428Y0128590D01*
X0095426Y0129589D01*
X0095967Y0130894D01*
X0095967Y0135663D01*
X0098067Y0137763D01*
X0098067Y0142237D01*
X0096517Y0143787D01*
X0096517Y0155600D01*
X0098903Y0155600D01*
X0100503Y0157200D01*
X0103830Y0157200D01*
X0105430Y0155600D01*
X0109903Y0155600D01*
X0110850Y0156546D01*
X0110996Y0156400D01*
X0110844Y0156400D01*
X0108267Y0153823D01*
X0108267Y0152000D01*
X0108267Y0150177D01*
X0110844Y0147600D01*
X0112667Y0147600D01*
X0114489Y0147600D01*
X0117067Y0150177D01*
X0117067Y0150330D01*
X0123507Y0143889D01*
X0123517Y0143880D01*
X0123517Y0105044D01*
X0124057Y0103739D01*
X0125056Y0102740D01*
X0166856Y0060940D01*
X0168161Y0060400D01*
X0184655Y0060400D01*
X0186003Y0058918D02*
X0093626Y0058918D01*
X0091814Y0060517D02*
X0167879Y0060517D01*
X0165681Y0062115D02*
X0090003Y0062115D01*
X0088191Y0063714D02*
X0164083Y0063714D01*
X0162484Y0065312D02*
X0097914Y0065312D01*
X0097608Y0065006D02*
X0100889Y0068287D01*
X0100889Y0070520D01*
X0095375Y0070520D01*
X0095375Y0070692D01*
X0100889Y0070692D01*
X0100889Y0072926D01*
X0097608Y0076206D01*
X0095375Y0076206D01*
X0095375Y0070692D01*
X0095203Y0070692D01*
X0095203Y0070520D01*
X0095375Y0070520D01*
X0095375Y0065006D01*
X0097608Y0065006D01*
X0099513Y0066911D02*
X0160886Y0066911D01*
X0159287Y0068509D02*
X0100889Y0068509D01*
X0100889Y0070108D02*
X0157688Y0070108D01*
X0156090Y0071706D02*
X0100889Y0071706D01*
X0100510Y0073305D02*
X0154491Y0073305D01*
X0152893Y0074903D02*
X0098911Y0074903D01*
X0095375Y0074903D02*
X0095203Y0074903D01*
X0095203Y0076206D02*
X0092969Y0076206D01*
X0089689Y0072926D01*
X0089689Y0070692D01*
X0095203Y0070692D01*
X0095203Y0076206D01*
X0095203Y0073305D02*
X0095375Y0073305D01*
X0095375Y0071706D02*
X0095203Y0071706D01*
X0095203Y0070520D02*
X0089689Y0070520D01*
X0089689Y0068287D01*
X0092969Y0065006D01*
X0095203Y0065006D01*
X0095203Y0070520D01*
X0095203Y0070108D02*
X0095375Y0070108D01*
X0095375Y0068509D02*
X0095203Y0068509D01*
X0095203Y0066911D02*
X0095375Y0066911D01*
X0095375Y0065312D02*
X0095203Y0065312D01*
X0092663Y0065312D02*
X0086380Y0065312D01*
X0084568Y0066911D02*
X0091065Y0066911D01*
X0089689Y0068509D02*
X0082756Y0068509D01*
X0080945Y0070108D02*
X0089689Y0070108D01*
X0089689Y0071706D02*
X0079133Y0071706D01*
X0077667Y0073305D02*
X0090068Y0073305D01*
X0091666Y0074903D02*
X0077667Y0074903D01*
X0077667Y0076502D02*
X0151294Y0076502D01*
X0149696Y0078100D02*
X0077667Y0078100D01*
X0077667Y0079699D02*
X0148097Y0079699D01*
X0146499Y0081297D02*
X0077667Y0081297D01*
X0077667Y0082896D02*
X0144900Y0082896D01*
X0143302Y0084494D02*
X0077667Y0084494D01*
X0077667Y0086093D02*
X0141703Y0086093D01*
X0140105Y0087691D02*
X0077667Y0087691D01*
X0077667Y0089290D02*
X0138506Y0089290D01*
X0136908Y0090888D02*
X0077667Y0090888D01*
X0077667Y0092487D02*
X0135309Y0092487D01*
X0133711Y0094085D02*
X0077667Y0094085D01*
X0069514Y0103676D02*
X0124120Y0103676D01*
X0123517Y0105275D02*
X0071112Y0105275D01*
X0072711Y0106873D02*
X0123517Y0106873D01*
X0123517Y0108472D02*
X0074309Y0108472D01*
X0075908Y0110070D02*
X0123517Y0110070D01*
X0123517Y0111669D02*
X0077506Y0111669D01*
X0079105Y0113268D02*
X0123517Y0113268D01*
X0123517Y0114866D02*
X0080703Y0114866D01*
X0082302Y0116465D02*
X0123517Y0116465D01*
X0123517Y0118063D02*
X0083900Y0118063D01*
X0085499Y0119662D02*
X0123517Y0119662D01*
X0123517Y0121260D02*
X0087097Y0121260D01*
X0088696Y0122859D02*
X0123517Y0122859D01*
X0123517Y0124457D02*
X0090294Y0124457D01*
X0091893Y0126056D02*
X0123517Y0126056D01*
X0123517Y0127654D02*
X0093491Y0127654D01*
X0095090Y0129253D02*
X0123517Y0129253D01*
X0123517Y0130851D02*
X0095949Y0130851D01*
X0095967Y0132450D02*
X0123517Y0132450D01*
X0123517Y0134048D02*
X0095967Y0134048D01*
X0095967Y0135647D02*
X0123517Y0135647D01*
X0123517Y0137245D02*
X0097549Y0137245D01*
X0098067Y0138844D02*
X0123517Y0138844D01*
X0123517Y0140442D02*
X0098067Y0140442D01*
X0098067Y0142041D02*
X0123517Y0142041D01*
X0123517Y0143639D02*
X0096664Y0143639D01*
X0096517Y0145238D02*
X0122158Y0145238D01*
X0120560Y0146836D02*
X0096517Y0146836D01*
X0096517Y0148435D02*
X0110009Y0148435D01*
X0108411Y0150033D02*
X0096517Y0150033D01*
X0096517Y0151632D02*
X0108267Y0151632D01*
X0108267Y0152000D02*
X0112667Y0152000D01*
X0112667Y0147600D01*
X0112667Y0152000D01*
X0112667Y0152000D01*
X0112667Y0152000D01*
X0108267Y0152000D01*
X0108267Y0153230D02*
X0096517Y0153230D01*
X0096517Y0154829D02*
X0109273Y0154829D01*
X0110731Y0156427D02*
X0110969Y0156427D01*
X0112667Y0151632D02*
X0112667Y0151632D01*
X0112667Y0150033D02*
X0112667Y0150033D01*
X0112667Y0148435D02*
X0112667Y0148435D01*
X0115324Y0148435D02*
X0118961Y0148435D01*
X0117363Y0150033D02*
X0116922Y0150033D01*
X0104603Y0156427D02*
X0099731Y0156427D01*
X0089417Y0156427D02*
X0086908Y0156427D01*
X0085935Y0157400D02*
X0081461Y0157400D01*
X0078298Y0154237D01*
X0078298Y0149763D01*
X0081461Y0146600D01*
X0085935Y0146600D01*
X0089098Y0149763D01*
X0089098Y0154237D01*
X0085935Y0157400D01*
X0088506Y0154829D02*
X0089417Y0154829D01*
X0089417Y0153230D02*
X0089098Y0153230D01*
X0089098Y0151632D02*
X0089417Y0151632D01*
X0089417Y0150033D02*
X0089098Y0150033D01*
X0089417Y0148435D02*
X0087770Y0148435D01*
X0086171Y0146836D02*
X0089417Y0146836D01*
X0089417Y0145238D02*
X0017867Y0145238D01*
X0017867Y0146836D02*
X0081225Y0146836D01*
X0079627Y0148435D02*
X0072261Y0148435D01*
X0071332Y0147506D02*
X0073909Y0150083D01*
X0073909Y0151905D01*
X0069509Y0151905D01*
X0069509Y0151905D01*
X0069509Y0147505D01*
X0067687Y0147506D01*
X0065109Y0150083D01*
X0065109Y0151905D01*
X0069509Y0151905D01*
X0069509Y0147506D01*
X0071332Y0147506D01*
X0069509Y0148435D02*
X0069509Y0148435D01*
X0069509Y0150033D02*
X0069509Y0150033D01*
X0069509Y0151632D02*
X0069509Y0151632D01*
X0069509Y0151905D02*
X0069509Y0151906D01*
X0069509Y0156305D01*
X0067687Y0156305D01*
X0065109Y0153728D01*
X0065109Y0151906D01*
X0069509Y0151906D01*
X0069509Y0151906D01*
X0069509Y0156305D01*
X0071332Y0156305D01*
X0073909Y0153728D01*
X0073909Y0151906D01*
X0069509Y0151906D01*
X0069509Y0151905D01*
X0069509Y0153230D02*
X0069509Y0153230D01*
X0069509Y0154829D02*
X0069509Y0154829D01*
X0066210Y0154829D02*
X0035454Y0154829D01*
X0035917Y0154366D02*
X0033340Y0156943D01*
X0031517Y0156943D01*
X0029695Y0156943D01*
X0027117Y0154366D01*
X0027117Y0152543D01*
X0027117Y0150721D01*
X0029695Y0148143D01*
X0031517Y0148143D01*
X0031517Y0152543D01*
X0031517Y0152543D01*
X0031517Y0148143D01*
X0033340Y0148143D01*
X0035917Y0150721D01*
X0035917Y0152543D01*
X0031517Y0152543D01*
X0027117Y0152543D01*
X0031517Y0152543D01*
X0031517Y0152543D01*
X0031517Y0152543D01*
X0035917Y0152543D01*
X0035917Y0154366D01*
X0035917Y0153230D02*
X0065109Y0153230D01*
X0065109Y0151632D02*
X0035917Y0151632D01*
X0035230Y0150033D02*
X0065159Y0150033D01*
X0066757Y0148435D02*
X0033631Y0148435D01*
X0031517Y0148435D02*
X0031517Y0148435D01*
X0031517Y0150033D02*
X0031517Y0150033D01*
X0031517Y0151632D02*
X0031517Y0151632D01*
X0031517Y0152543D02*
X0031517Y0156943D01*
X0031517Y0152543D01*
X0031517Y0152543D01*
X0031517Y0153230D02*
X0031517Y0153230D01*
X0031517Y0154829D02*
X0031517Y0154829D01*
X0031517Y0156427D02*
X0031517Y0156427D01*
X0029179Y0156427D02*
X0015270Y0156427D01*
X0015117Y0158026D02*
X0052752Y0158026D01*
X0051154Y0159624D02*
X0015117Y0159624D01*
X0015117Y0161223D02*
X0051109Y0161223D01*
X0051109Y0162821D02*
X0037860Y0162821D01*
X0036895Y0162547D02*
X0036895Y0162547D01*
X0033933Y0162821D02*
X0015792Y0162821D01*
X0017537Y0164420D02*
X0019092Y0164420D01*
X0021706Y0164420D02*
X0021706Y0164420D01*
X0021706Y0163706D02*
X0022103Y0163706D01*
X0022889Y0163830D01*
X0023645Y0164076D01*
X0024353Y0164437D01*
X0024996Y0164904D01*
X0025558Y0165466D01*
X0026025Y0166109D01*
X0026386Y0166817D01*
X0026632Y0167573D01*
X0026756Y0168358D01*
X0026756Y0168756D01*
X0021706Y0168756D01*
X0021706Y0168756D01*
X0021706Y0163706D01*
X0021706Y0166018D02*
X0021706Y0166018D01*
X0021706Y0167617D02*
X0021706Y0167617D01*
X0021706Y0168756D02*
X0021706Y0168756D01*
X0021706Y0169215D02*
X0021706Y0169215D01*
X0021706Y0170814D02*
X0021706Y0170814D01*
X0021706Y0172412D02*
X0021706Y0172412D01*
X0018221Y0172412D02*
X0017867Y0172412D01*
X0017867Y0174011D02*
X0026066Y0174011D01*
X0026066Y0172412D02*
X0025191Y0172412D01*
X0026525Y0175609D02*
X0017867Y0175609D01*
X0017867Y0177208D02*
X0027144Y0177208D01*
X0027403Y0177876D02*
X0027403Y0177876D01*
X0028251Y0178806D02*
X0017867Y0178806D01*
X0017867Y0180405D02*
X0029709Y0180405D01*
X0029897Y0180612D02*
X0029897Y0180612D01*
X0032692Y0182003D02*
X0020404Y0182003D01*
X0021948Y0193193D02*
X0022645Y0193193D01*
X0022645Y0194792D02*
X0022512Y0194792D01*
X0015048Y0199587D02*
X0014286Y0199587D01*
X0014286Y0201186D02*
X0015048Y0201186D01*
X0015048Y0202784D02*
X0014286Y0202784D01*
X0008820Y0202784D02*
X0006541Y0202784D01*
X0006541Y0201186D02*
X0006862Y0201186D01*
X0006541Y0204383D02*
X0043862Y0204383D01*
X0042192Y0202784D02*
X0020513Y0202784D01*
X0039572Y0201186D02*
X0040594Y0201186D01*
X0052226Y0197989D02*
X0052789Y0197989D01*
X0052445Y0196390D02*
X0093640Y0196390D01*
X0092041Y0197989D02*
X0087323Y0197989D01*
X0088922Y0199587D02*
X0091267Y0199587D01*
X0091267Y0201186D02*
X0089098Y0201186D01*
X0089098Y0202784D02*
X0091267Y0202784D01*
X0092413Y0204383D02*
X0088952Y0204383D01*
X0080073Y0197989D02*
X0073229Y0197989D01*
X0074828Y0199587D02*
X0078474Y0199587D01*
X0078298Y0201186D02*
X0074909Y0201186D01*
X0074909Y0202784D02*
X0078298Y0202784D01*
X0078444Y0204383D02*
X0074669Y0204383D01*
X0065789Y0197989D02*
X0060229Y0197989D01*
X0052445Y0194792D02*
X0124325Y0194792D01*
X0123219Y0193193D02*
X0052445Y0193193D01*
X0043796Y0186799D02*
X0040293Y0186799D01*
X0041734Y0188398D02*
X0042355Y0188398D01*
X0036895Y0182603D02*
X0036895Y0182603D01*
X0045357Y0176213D02*
X0045357Y0176213D01*
X0045469Y0175609D02*
X0126558Y0175609D01*
X0128619Y0175609D02*
X0128619Y0175609D01*
X0128619Y0174011D02*
X0128619Y0174011D01*
X0128619Y0172412D02*
X0128619Y0172412D01*
X0128620Y0171449D02*
X0133019Y0171449D01*
X0128620Y0171449D01*
X0128620Y0171449D01*
X0124959Y0174011D02*
X0045768Y0174011D01*
X0046006Y0172412D02*
X0124219Y0172412D01*
X0124219Y0170814D02*
X0045708Y0170814D01*
X0045409Y0169215D02*
X0092341Y0169215D01*
X0090625Y0167617D02*
X0044539Y0167617D01*
X0045357Y0168937D02*
X0045357Y0168937D01*
X0043550Y0166018D02*
X0052985Y0166018D01*
X0051387Y0164420D02*
X0041594Y0164420D01*
X0040455Y0163560D02*
X0040455Y0163560D01*
X0043408Y0165790D02*
X0043408Y0165790D01*
X0033210Y0162888D02*
X0033210Y0162888D01*
X0030134Y0164420D02*
X0024320Y0164420D01*
X0025959Y0166018D02*
X0028547Y0166018D01*
X0027403Y0167273D02*
X0027403Y0167273D01*
X0027270Y0167617D02*
X0026639Y0167617D01*
X0029897Y0164538D02*
X0029897Y0164538D01*
X0033856Y0156427D02*
X0080489Y0156427D01*
X0078890Y0154829D02*
X0072808Y0154829D01*
X0073909Y0153230D02*
X0078298Y0153230D01*
X0078298Y0151632D02*
X0073909Y0151632D01*
X0073859Y0150033D02*
X0078298Y0150033D01*
X0087267Y0142041D02*
X0017867Y0142041D01*
X0017867Y0143639D02*
X0088669Y0143639D01*
X0087267Y0140442D02*
X0019019Y0140442D01*
X0021750Y0138844D02*
X0087267Y0138844D01*
X0087785Y0137245D02*
X0022900Y0137245D01*
X0023467Y0135647D02*
X0088867Y0135647D01*
X0088867Y0134048D02*
X0023467Y0134048D01*
X0023002Y0132450D02*
X0070105Y0132450D01*
X0067773Y0130851D02*
X0021996Y0130851D01*
X0019613Y0129253D02*
X0066342Y0129253D01*
X0065680Y0127654D02*
X0021471Y0127654D01*
X0022281Y0126056D02*
X0065167Y0126056D01*
X0065167Y0124457D02*
X0022467Y0124457D01*
X0022103Y0122859D02*
X0065239Y0122859D01*
X0065901Y0121260D02*
X0020991Y0121260D01*
X0020903Y0119662D02*
X0066709Y0119662D01*
X0068307Y0118063D02*
X0022530Y0118063D01*
X0023224Y0116465D02*
X0071396Y0116465D01*
X0070662Y0114866D02*
X0023467Y0114866D01*
X0023341Y0113268D02*
X0069064Y0113268D01*
X0067465Y0111669D02*
X0022679Y0111669D01*
X0021215Y0110070D02*
X0065867Y0110070D01*
X0064268Y0108472D02*
X0018815Y0108472D01*
X0020414Y0106873D02*
X0062670Y0106873D01*
X0061071Y0105275D02*
X0022012Y0105275D01*
X0023611Y0103676D02*
X0043608Y0103676D01*
X0047600Y0103676D02*
X0059473Y0103676D01*
X0064718Y0098881D02*
X0128915Y0098881D01*
X0127317Y0100479D02*
X0066317Y0100479D01*
X0067915Y0102078D02*
X0125718Y0102078D01*
X0130514Y0097282D02*
X0063120Y0097282D01*
X0063956Y0095684D02*
X0061521Y0095684D01*
X0067377Y0095684D02*
X0132112Y0095684D01*
X0147413Y0129253D02*
X0147920Y0129253D01*
X0149281Y0130851D02*
X0146052Y0130851D01*
X0156052Y0130851D02*
X0159281Y0130851D01*
X0157920Y0129253D02*
X0157413Y0129253D01*
X0172667Y0129253D02*
X0172667Y0129253D01*
X0172667Y0127654D02*
X0172667Y0127654D01*
X0172667Y0126056D02*
X0172667Y0126056D01*
X0172667Y0124457D02*
X0172667Y0124457D01*
X0172667Y0124000D02*
X0172667Y0124000D01*
X0172667Y0122859D02*
X0172667Y0122859D01*
X0172667Y0121260D02*
X0172667Y0121260D01*
X0172667Y0119662D02*
X0172667Y0119662D01*
X0172667Y0118063D02*
X0172667Y0118063D01*
X0166422Y0146836D02*
X0165740Y0146836D01*
X0137719Y0174011D02*
X0132280Y0174011D01*
X0133019Y0172412D02*
X0136121Y0172412D01*
X0134522Y0170814D02*
X0133019Y0170814D01*
X0132924Y0169215D02*
X0132609Y0169215D01*
X0130681Y0175609D02*
X0139922Y0175609D01*
X0136467Y0196390D02*
X0131315Y0196390D01*
X0136467Y0197989D02*
X0112292Y0197989D01*
X0110693Y0196390D02*
X0125924Y0196390D01*
X0104640Y0196390D02*
X0099693Y0196390D01*
X0101292Y0197989D02*
X0103041Y0197989D01*
X0102267Y0199587D02*
X0102067Y0199587D01*
X0102067Y0201186D02*
X0102267Y0201186D01*
X0102267Y0202784D02*
X0102067Y0202784D01*
X0100921Y0204383D02*
X0103413Y0204383D01*
X0089027Y0166018D02*
X0060033Y0166018D01*
X0060266Y0158026D02*
X0089417Y0158026D01*
X0088246Y0132450D02*
X0077228Y0132450D01*
X0079561Y0130851D02*
X0086647Y0130851D01*
X0085049Y0129253D02*
X0080991Y0129253D01*
X0081653Y0127654D02*
X0083450Y0127654D01*
X0041330Y0102078D02*
X0025209Y0102078D01*
X0026808Y0100479D02*
X0040404Y0100479D01*
X0040032Y0098881D02*
X0028406Y0098881D01*
X0029344Y0097282D02*
X0039329Y0097282D01*
X0037730Y0095684D02*
X0029417Y0095684D01*
X0006541Y0117505D02*
X0006541Y0131944D01*
X0006750Y0131439D01*
X0008381Y0129807D01*
X0009874Y0129189D01*
X0009824Y0129173D01*
X0009151Y0128830D01*
X0008540Y0128386D01*
X0008005Y0127851D01*
X0007561Y0127240D01*
X0007218Y0126567D01*
X0006985Y0125848D01*
X0006867Y0125102D01*
X0006867Y0124924D01*
X0014467Y0124924D01*
X0014467Y0124524D01*
X0006867Y0124524D01*
X0006867Y0124347D01*
X0006985Y0123600D01*
X0007218Y0122882D01*
X0007561Y0122209D01*
X0008005Y0121597D01*
X0008540Y0121063D01*
X0009151Y0120619D01*
X0009824Y0120276D01*
X0009874Y0120260D01*
X0008381Y0119641D01*
X0006750Y0118010D01*
X0006541Y0117505D01*
X0006541Y0118063D02*
X0006803Y0118063D01*
X0006541Y0119662D02*
X0008430Y0119662D01*
X0008343Y0121260D02*
X0006541Y0121260D01*
X0006541Y0122859D02*
X0007230Y0122859D01*
X0006867Y0124457D02*
X0006541Y0124457D01*
X0006541Y0126056D02*
X0007052Y0126056D01*
X0006541Y0127654D02*
X0007862Y0127654D01*
X0006541Y0129253D02*
X0009721Y0129253D01*
X0007337Y0130851D02*
X0006541Y0130851D01*
X0014467Y0128924D02*
X0014467Y0124924D01*
X0014867Y0124924D01*
X0014867Y0128924D01*
X0014467Y0128924D01*
X0014467Y0127654D02*
X0014867Y0127654D01*
X0014867Y0126056D02*
X0014467Y0126056D01*
X0017867Y0148435D02*
X0029403Y0148435D01*
X0027805Y0150033D02*
X0017814Y0150033D01*
X0016917Y0151632D02*
X0027117Y0151632D01*
X0027117Y0153230D02*
X0016917Y0153230D01*
X0016868Y0154829D02*
X0027580Y0154829D01*
D27*
X0056509Y0161906D02*
X0056667Y0162400D01*
X0090217Y0162400D01*
X0094067Y0166250D01*
X0126517Y0166250D01*
X0127067Y0165700D01*
X0134217Y0165700D01*
X0140817Y0172300D01*
X0157317Y0172300D01*
X0162267Y0167350D01*
X0162667Y0167000D01*
X0163367Y0161850D02*
X0157867Y0161850D01*
X0152917Y0166800D01*
X0152667Y0167000D01*
X0163367Y0161850D02*
X0167217Y0158000D01*
X0167217Y0150850D01*
X0174917Y0143150D01*
X0178217Y0148100D02*
X0172717Y0153600D01*
X0172667Y0154000D01*
X0178767Y0150850D02*
X0184817Y0144800D01*
X0184817Y0140950D01*
X0192517Y0133250D01*
X0192667Y0133000D01*
X0193067Y0132700D01*
X0193067Y0114000D01*
X0192667Y0113457D01*
X0178217Y0098050D02*
X0178217Y0148100D01*
X0178767Y0150850D02*
X0178767Y0157450D01*
X0184267Y0161300D02*
X0192517Y0153050D01*
X0192667Y0153000D01*
X0184267Y0161300D02*
X0184267Y0165150D01*
X0152667Y0154000D02*
X0152367Y0153600D01*
X0139167Y0140400D01*
X0133117Y0140400D01*
X0132667Y0140000D01*
X0132667Y0131000D02*
X0133117Y0130500D01*
X0139167Y0124450D01*
X0142467Y0124450D01*
X0142667Y0124000D01*
X0137517Y0120600D02*
X0141367Y0116750D01*
X0145217Y0116750D01*
X0152367Y0123900D01*
X0152667Y0124000D01*
X0137517Y0120600D02*
X0133117Y0120600D01*
X0132667Y0121000D01*
X0178217Y0098050D02*
X0192517Y0083750D01*
X0192667Y0083457D01*
X0172667Y0197000D02*
X0172167Y0197050D01*
X0166117Y0203100D01*
X0140267Y0203100D01*
X0138617Y0201450D01*
X0107817Y0201450D01*
X0107667Y0201000D01*
X0069509Y0201906D02*
X0069317Y0202000D01*
X0056667Y0202000D01*
X0056509Y0201906D01*
X0056117Y0201450D01*
X0045667Y0201450D01*
X0038517Y0194300D01*
X0037417Y0194300D01*
X0037045Y0193787D01*
X0015604Y0098472D02*
X0015967Y0098050D01*
X0015967Y0088150D01*
X0015667Y0088000D01*
X0025667Y0058000D02*
X0025867Y0057900D01*
X0065467Y0087600D02*
X0065667Y0088000D01*
D28*
X0174917Y0143150D03*
X0178767Y0157450D03*
X0184267Y0165150D03*
D29*
X0065467Y0087600D02*
X0065467Y0044550D01*
X0063967Y0043050D01*
X0047509Y0028000D01*
X0027824Y0028000D02*
X0026617Y0030050D01*
X0025867Y0032800D01*
X0025867Y0057900D01*
M02*
