G04 EAGLE Gerber RS-274X export*
G75*
%MOMM*%
%FSLAX34Y34*%
%LPD*%
%INBottom Silkscreen*%
%IPPOS*%
%AMOC8*
5,1,8,0,0,1.08239X$1,22.5*%
G01*
%ADD10C,0.076200*%
%ADD11C,0.101600*%
%ADD12C,0.152400*%
%ADD13C,0.203200*%


D10*
X386629Y350901D02*
X386629Y360307D01*
X381926Y360307D01*
X380359Y358739D01*
X380359Y355604D01*
X381926Y354036D01*
X386629Y354036D01*
X383494Y354036D02*
X380359Y350901D01*
X377274Y358739D02*
X375707Y360307D01*
X372571Y360307D01*
X371004Y358739D01*
X371004Y357172D01*
X372571Y355604D01*
X374139Y355604D01*
X372571Y355604D02*
X371004Y354036D01*
X371004Y352469D01*
X372571Y350901D01*
X375707Y350901D01*
X377274Y352469D01*
X386629Y273947D02*
X386629Y264541D01*
X386629Y273947D02*
X381926Y273947D01*
X380359Y272379D01*
X380359Y269244D01*
X381926Y267676D01*
X386629Y267676D01*
X383494Y267676D02*
X380359Y264541D01*
X372571Y264541D02*
X372571Y273947D01*
X377274Y269244D01*
X371004Y269244D01*
X355227Y416941D02*
X345821Y416941D01*
X355227Y416941D02*
X355227Y421644D01*
X353659Y423212D01*
X350524Y423212D01*
X348956Y421644D01*
X348956Y416941D01*
X348956Y420076D02*
X345821Y423212D01*
X355227Y426296D02*
X355227Y432567D01*
X355227Y426296D02*
X350524Y426296D01*
X352092Y429432D01*
X352092Y430999D01*
X350524Y432567D01*
X347389Y432567D01*
X345821Y430999D01*
X345821Y427864D01*
X347389Y426296D01*
X279949Y332367D02*
X279949Y322961D01*
X279949Y332367D02*
X275246Y332367D01*
X273679Y330799D01*
X273679Y327664D01*
X275246Y326096D01*
X279949Y326096D01*
X276814Y326096D02*
X273679Y322961D01*
X267459Y330799D02*
X264324Y332367D01*
X267459Y330799D02*
X270594Y327664D01*
X270594Y324529D01*
X269027Y322961D01*
X265891Y322961D01*
X264324Y324529D01*
X264324Y326096D01*
X265891Y327664D01*
X270594Y327664D01*
X139327Y443574D02*
X137759Y445141D01*
X139327Y443574D02*
X139327Y440438D01*
X137759Y438871D01*
X131489Y438871D01*
X129921Y440438D01*
X129921Y443574D01*
X131489Y445141D01*
X129921Y452929D02*
X139327Y452929D01*
X134624Y448226D01*
X134624Y454497D01*
X173319Y372412D02*
X174887Y370844D01*
X174887Y367709D01*
X173319Y366141D01*
X167049Y366141D01*
X165481Y367709D01*
X165481Y370844D01*
X167049Y372412D01*
X174887Y375496D02*
X174887Y381767D01*
X174887Y375496D02*
X170184Y375496D01*
X171752Y378632D01*
X171752Y380199D01*
X170184Y381767D01*
X167049Y381767D01*
X165481Y380199D01*
X165481Y377064D01*
X167049Y375496D01*
D11*
X388640Y286522D02*
X388640Y274828D01*
X388640Y286522D02*
X382793Y286522D01*
X380844Y284573D01*
X380844Y280675D01*
X382793Y278726D01*
X388640Y278726D01*
X384742Y278726D02*
X380844Y274828D01*
X371099Y274828D02*
X371099Y286522D01*
X376946Y280675D01*
X369150Y280675D01*
X319542Y414000D02*
X307848Y414000D01*
X319542Y414000D02*
X319542Y419847D01*
X317593Y421796D01*
X313695Y421796D01*
X311746Y419847D01*
X311746Y414000D01*
X311746Y417898D02*
X307848Y421796D01*
X319542Y425694D02*
X319542Y433490D01*
X319542Y425694D02*
X313695Y425694D01*
X315644Y429592D01*
X315644Y431541D01*
X313695Y433490D01*
X309797Y433490D01*
X307848Y431541D01*
X307848Y427643D01*
X309797Y425694D01*
X388640Y327162D02*
X388640Y315468D01*
X388640Y327162D02*
X382793Y327162D01*
X380844Y325213D01*
X380844Y321315D01*
X382793Y319366D01*
X388640Y319366D01*
X384742Y319366D02*
X380844Y315468D01*
X376946Y325213D02*
X374997Y327162D01*
X371099Y327162D01*
X369150Y325213D01*
X369150Y323264D01*
X371099Y321315D01*
X373048Y321315D01*
X371099Y321315D02*
X369150Y319366D01*
X369150Y317417D01*
X371099Y315468D01*
X374997Y315468D01*
X376946Y317417D01*
X281432Y353568D02*
X281432Y365262D01*
X275585Y365262D01*
X273636Y363313D01*
X273636Y359415D01*
X275585Y357466D01*
X281432Y357466D01*
X277534Y357466D02*
X273636Y353568D01*
X265840Y363313D02*
X261942Y365262D01*
X265840Y363313D02*
X269738Y359415D01*
X269738Y355517D01*
X267789Y353568D01*
X263891Y353568D01*
X261942Y355517D01*
X261942Y357466D01*
X263891Y359415D01*
X269738Y359415D01*
D12*
X268730Y461770D02*
X198630Y461770D01*
X198630Y391670D01*
X265180Y391670D01*
X268730Y395220D02*
X268730Y461770D01*
X268730Y395220D02*
X265180Y391670D01*
X268950Y387858D02*
X268952Y387977D01*
X268958Y388097D01*
X268968Y388216D01*
X268982Y388334D01*
X269000Y388452D01*
X269021Y388570D01*
X269047Y388686D01*
X269076Y388802D01*
X269110Y388917D01*
X269147Y389030D01*
X269188Y389142D01*
X269232Y389253D01*
X269280Y389363D01*
X269332Y389470D01*
X269387Y389576D01*
X269446Y389680D01*
X269509Y389782D01*
X269574Y389881D01*
X269643Y389979D01*
X269715Y390074D01*
X269790Y390167D01*
X269869Y390257D01*
X269950Y390345D01*
X270034Y390429D01*
X270121Y390511D01*
X270210Y390590D01*
X270302Y390666D01*
X270397Y390739D01*
X270494Y390809D01*
X270593Y390875D01*
X270695Y390938D01*
X270798Y390998D01*
X270903Y391054D01*
X271010Y391107D01*
X271119Y391156D01*
X271230Y391202D01*
X271342Y391243D01*
X271455Y391281D01*
X271569Y391316D01*
X271685Y391346D01*
X271801Y391373D01*
X271918Y391395D01*
X272036Y391414D01*
X272155Y391429D01*
X272274Y391440D01*
X272393Y391447D01*
X272512Y391450D01*
X272632Y391449D01*
X272751Y391444D01*
X272870Y391435D01*
X272989Y391422D01*
X273107Y391405D01*
X273224Y391385D01*
X273341Y391360D01*
X273457Y391331D01*
X273572Y391299D01*
X273686Y391263D01*
X273799Y391223D01*
X273910Y391179D01*
X274019Y391132D01*
X274127Y391081D01*
X274234Y391027D01*
X274338Y390969D01*
X274440Y390907D01*
X274541Y390843D01*
X274639Y390774D01*
X274735Y390703D01*
X274828Y390629D01*
X274919Y390551D01*
X275007Y390471D01*
X275092Y390387D01*
X275175Y390301D01*
X275255Y390212D01*
X275332Y390121D01*
X275405Y390027D01*
X275476Y389930D01*
X275543Y389832D01*
X275607Y389731D01*
X275668Y389628D01*
X275725Y389523D01*
X275778Y389417D01*
X275828Y389308D01*
X275875Y389198D01*
X275917Y389087D01*
X275956Y388974D01*
X275992Y388860D01*
X276023Y388744D01*
X276050Y388628D01*
X276074Y388511D01*
X276094Y388393D01*
X276110Y388275D01*
X276122Y388156D01*
X276130Y388037D01*
X276134Y387918D01*
X276134Y387798D01*
X276130Y387679D01*
X276122Y387560D01*
X276110Y387441D01*
X276094Y387323D01*
X276074Y387205D01*
X276050Y387088D01*
X276023Y386972D01*
X275992Y386856D01*
X275956Y386742D01*
X275917Y386629D01*
X275875Y386518D01*
X275828Y386408D01*
X275778Y386299D01*
X275725Y386193D01*
X275668Y386088D01*
X275607Y385985D01*
X275543Y385884D01*
X275476Y385786D01*
X275405Y385689D01*
X275332Y385595D01*
X275255Y385504D01*
X275175Y385415D01*
X275092Y385329D01*
X275007Y385245D01*
X274919Y385165D01*
X274828Y385087D01*
X274735Y385013D01*
X274639Y384942D01*
X274541Y384873D01*
X274440Y384809D01*
X274338Y384747D01*
X274234Y384689D01*
X274127Y384635D01*
X274019Y384584D01*
X273910Y384537D01*
X273799Y384493D01*
X273686Y384453D01*
X273572Y384417D01*
X273457Y384385D01*
X273341Y384356D01*
X273224Y384331D01*
X273107Y384311D01*
X272989Y384294D01*
X272870Y384281D01*
X272751Y384272D01*
X272632Y384267D01*
X272512Y384266D01*
X272393Y384269D01*
X272274Y384276D01*
X272155Y384287D01*
X272036Y384302D01*
X271918Y384321D01*
X271801Y384343D01*
X271685Y384370D01*
X271569Y384400D01*
X271455Y384435D01*
X271342Y384473D01*
X271230Y384514D01*
X271119Y384560D01*
X271010Y384609D01*
X270903Y384662D01*
X270798Y384718D01*
X270695Y384778D01*
X270593Y384841D01*
X270494Y384907D01*
X270397Y384977D01*
X270302Y385050D01*
X270210Y385126D01*
X270121Y385205D01*
X270034Y385287D01*
X269950Y385371D01*
X269869Y385459D01*
X269790Y385549D01*
X269715Y385642D01*
X269643Y385737D01*
X269574Y385835D01*
X269509Y385934D01*
X269446Y386036D01*
X269387Y386140D01*
X269332Y386246D01*
X269280Y386353D01*
X269232Y386463D01*
X269188Y386574D01*
X269147Y386686D01*
X269110Y386799D01*
X269076Y386914D01*
X269047Y387030D01*
X269021Y387146D01*
X269000Y387264D01*
X268982Y387382D01*
X268968Y387500D01*
X268958Y387619D01*
X268952Y387739D01*
X268950Y387858D01*
D10*
X286090Y405511D02*
X292233Y405511D01*
X286090Y405511D02*
X284861Y406740D01*
X284861Y409197D01*
X286090Y410426D01*
X292233Y410426D01*
X292233Y416681D02*
X284861Y416681D01*
X288547Y412995D02*
X292233Y416681D01*
X288547Y417910D02*
X288547Y412995D01*
D11*
X177302Y440695D02*
X175353Y442644D01*
X177302Y440695D02*
X177302Y436797D01*
X175353Y434848D01*
X167557Y434848D01*
X165608Y436797D01*
X165608Y440695D01*
X167557Y442644D01*
X165608Y452389D02*
X177302Y452389D01*
X171455Y446542D01*
X171455Y454338D01*
X137253Y368456D02*
X139202Y366507D01*
X139202Y362609D01*
X137253Y360660D01*
X129457Y360660D01*
X127508Y362609D01*
X127508Y366507D01*
X129457Y368456D01*
X139202Y372354D02*
X139202Y380150D01*
X139202Y372354D02*
X133355Y372354D01*
X135304Y376252D01*
X135304Y378201D01*
X133355Y380150D01*
X129457Y380150D01*
X127508Y378201D01*
X127508Y374303D01*
X129457Y372354D01*
D13*
X483410Y209550D02*
X483410Y196850D01*
M02*
