%
M48
M72
T01C0.01500
T02C0.02756
T03C0.03150
T04C0.03200
T05C0.03543
T06C0.04000
T07C0.04700
T08C0.04724
T09C0.07874
T10C0.13000
%
T01
X174917Y143150
X178767Y157450
X184267Y165150
T02
X21706Y168756
X11706Y168756
T03
X15667Y58000
X25667Y58000
X25667Y88000
X15667Y88000
X65667Y88000
T04
X132667Y121000
X132667Y131000
X132667Y140000
X132667Y152000
X142667Y154000
X152667Y154000
X162667Y154000
X172667Y154000
X172667Y167000
X162667Y167000
X152667Y167000
X142667Y167000
X128619Y171449
X128619Y191449
X142667Y197000
X152667Y197000
X162667Y197000
X172667Y197000
X112667Y152000
X107667Y161000
X96667Y161000
X83698Y152000
X92667Y140000
X69509Y151906
X56509Y161906
X31517Y152543
X11517Y152543
X27045Y193787
X37045Y193787
X47045Y193787
X56509Y201906
X69509Y201906
X83698Y202000
X96667Y201000
X107667Y201000
X142667Y124000
X152667Y124000
X162667Y124000
X172667Y124000
T05
X174029Y70606
X95289Y70606
X45604Y98472
X15604Y98472
T06
X14667Y114724
X14667Y124724
X14667Y134724
X192667Y63457
X192667Y73457
X192667Y83457
X192667Y93457
X192667Y103457
X192667Y113457
X192667Y133000
X192667Y143000
X192667Y153000
X192667Y163000
X192667Y173000
X192667Y183000
T07
X27824Y28000
X47509Y28000
T08
X14667Y187961
X14667Y197961
T09
X169895Y46441
X36037Y172425
T10
X73667Y124724
M30
