G04 EAGLE Gerber RS-274X export*
G75*
%MOMM*%
%FSLAX34Y34*%
%LPD*%
%INTop Copper*%
%IPPOS*%
%AMOC8*
5,1,8,0,0,1.08239X$1,22.5*%
G01*
%ADD10C,1.408000*%
%ADD11C,1.320800*%
%ADD12P,1.429621X8X202.500000*%
%ADD13C,1.790700*%
%ADD14C,1.308000*%
%ADD15C,1.524000*%
%ADD16P,1.429621X8X22.500000*%
%ADD17C,1.800000*%
%ADD18R,1.651000X1.651000*%
%ADD19C,1.651000*%
%ADD20R,1.930400X1.930400*%
%ADD21P,2.089446X8X22.500000*%
%ADD22R,0.533400X1.981200*%
%ADD23R,1.803000X1.600000*%
%ADD24R,1.500000X1.500000*%
%ADD25C,1.879600*%
%ADD26R,1.600000X2.300000*%
%ADD27P,1.429621X8X292.500000*%
%ADD28C,0.304800*%
%ADD29C,0.685800*%
%ADD30C,0.635000*%

G36*
X440161Y2562D02*
X440161Y2562D01*
X440170Y2561D01*
X495126Y3047D01*
X495135Y3048D01*
X495144Y3047D01*
X495336Y3070D01*
X495526Y3091D01*
X495535Y3093D01*
X495543Y3094D01*
X495727Y3154D01*
X495910Y3212D01*
X495918Y3216D01*
X495926Y3219D01*
X496094Y3314D01*
X496262Y3407D01*
X496269Y3413D01*
X496277Y3417D01*
X496421Y3542D01*
X496569Y3667D01*
X496575Y3674D01*
X496582Y3680D01*
X496699Y3832D01*
X496819Y3983D01*
X496823Y3991D01*
X496828Y3998D01*
X496914Y4171D01*
X497001Y4342D01*
X497004Y4351D01*
X497008Y4359D01*
X497058Y4546D01*
X497109Y4730D01*
X497110Y4739D01*
X497112Y4748D01*
X497139Y5078D01*
X497139Y302606D01*
X497138Y302615D01*
X497139Y302624D01*
X497119Y302813D01*
X497099Y303007D01*
X497097Y303015D01*
X497096Y303024D01*
X497038Y303206D01*
X496981Y303392D01*
X496977Y303399D01*
X496974Y303408D01*
X496881Y303576D01*
X496789Y303746D01*
X496784Y303752D01*
X496779Y303760D01*
X496655Y303907D01*
X496532Y304055D01*
X496525Y304060D01*
X496519Y304067D01*
X496368Y304186D01*
X496218Y304307D01*
X496210Y304311D01*
X496203Y304317D01*
X496030Y304405D01*
X495861Y304493D01*
X495852Y304495D01*
X495844Y304499D01*
X495658Y304551D01*
X495474Y304604D01*
X495465Y304605D01*
X495456Y304607D01*
X495263Y304621D01*
X495072Y304637D01*
X495064Y304636D01*
X495055Y304637D01*
X494862Y304612D01*
X494673Y304590D01*
X494664Y304587D01*
X494655Y304586D01*
X494472Y304525D01*
X494290Y304465D01*
X494282Y304461D01*
X494274Y304458D01*
X494107Y304362D01*
X493939Y304267D01*
X493932Y304261D01*
X493925Y304257D01*
X493672Y304042D01*
X490896Y301266D01*
X487161Y299719D01*
X467879Y299719D01*
X464144Y301266D01*
X461286Y304124D01*
X459739Y307859D01*
X459739Y309387D01*
X459738Y309396D01*
X459739Y309405D01*
X459718Y309598D01*
X459699Y309788D01*
X459697Y309796D01*
X459696Y309805D01*
X459637Y309990D01*
X459581Y310173D01*
X459577Y310180D01*
X459574Y310189D01*
X459481Y310357D01*
X459389Y310527D01*
X459384Y310533D01*
X459379Y310541D01*
X459255Y310688D01*
X459132Y310836D01*
X459125Y310841D01*
X459119Y310848D01*
X458967Y310968D01*
X458818Y311088D01*
X458810Y311092D01*
X458803Y311098D01*
X458630Y311186D01*
X458461Y311274D01*
X458452Y311276D01*
X458444Y311280D01*
X458258Y311332D01*
X458074Y311385D01*
X458065Y311386D01*
X458056Y311388D01*
X457863Y311402D01*
X457672Y311418D01*
X457664Y311417D01*
X457655Y311418D01*
X457462Y311393D01*
X457273Y311371D01*
X457264Y311368D01*
X457255Y311367D01*
X457073Y311306D01*
X456890Y311246D01*
X456882Y311242D01*
X456874Y311239D01*
X456707Y311143D01*
X456539Y311048D01*
X456532Y311043D01*
X456525Y311038D01*
X456272Y310823D01*
X454240Y308791D01*
X454223Y308771D01*
X454202Y308753D01*
X454095Y308615D01*
X453985Y308480D01*
X453972Y308456D01*
X453956Y308435D01*
X453878Y308278D01*
X453796Y308124D01*
X453788Y308099D01*
X453776Y308074D01*
X453731Y307905D01*
X453681Y307738D01*
X453679Y307712D01*
X453672Y307686D01*
X453645Y307355D01*
X453645Y306787D01*
X452736Y304593D01*
X451057Y302914D01*
X448863Y302005D01*
X446487Y302005D01*
X444293Y302914D01*
X442614Y304593D01*
X441705Y306787D01*
X441705Y309163D01*
X442614Y311357D01*
X444293Y313036D01*
X446487Y313945D01*
X447055Y313945D01*
X447082Y313947D01*
X447108Y313945D01*
X447282Y313967D01*
X447456Y313985D01*
X447481Y313992D01*
X447508Y313996D01*
X447674Y314052D01*
X447841Y314103D01*
X447864Y314116D01*
X447889Y314124D01*
X448041Y314211D01*
X448195Y314295D01*
X448215Y314312D01*
X448238Y314325D01*
X448491Y314540D01*
X452540Y318589D01*
X452557Y318609D01*
X452578Y318627D01*
X452684Y318764D01*
X452795Y318900D01*
X452808Y318924D01*
X452824Y318945D01*
X452902Y319101D01*
X452984Y319256D01*
X452992Y319282D01*
X453004Y319306D01*
X453049Y319474D01*
X453099Y319642D01*
X453101Y319668D01*
X453108Y319694D01*
X453135Y320025D01*
X453135Y342121D01*
X453754Y343615D01*
X457889Y347750D01*
X457895Y347757D01*
X457902Y347763D01*
X458022Y347912D01*
X458144Y348062D01*
X458149Y348070D01*
X458154Y348077D01*
X458243Y348247D01*
X458333Y348417D01*
X458336Y348426D01*
X458340Y348434D01*
X458393Y348619D01*
X458448Y348803D01*
X458449Y348812D01*
X458451Y348821D01*
X458467Y349012D01*
X458484Y349204D01*
X458483Y349213D01*
X458484Y349222D01*
X458462Y349411D01*
X458441Y349605D01*
X458438Y349613D01*
X458437Y349622D01*
X458378Y349804D01*
X458319Y349988D01*
X458315Y349996D01*
X458312Y350005D01*
X458217Y350173D01*
X458124Y350341D01*
X458119Y350347D01*
X458114Y350355D01*
X457988Y350501D01*
X457864Y350648D01*
X457857Y350653D01*
X457851Y350660D01*
X457700Y350777D01*
X457548Y350897D01*
X457540Y350901D01*
X457533Y350907D01*
X457361Y350992D01*
X457189Y351080D01*
X457181Y351082D01*
X457173Y351086D01*
X456987Y351136D01*
X456801Y351188D01*
X456792Y351188D01*
X456784Y351191D01*
X456453Y351218D01*
X454425Y351218D01*
X452231Y352127D01*
X450552Y353806D01*
X449643Y356000D01*
X449643Y358375D01*
X450552Y360569D01*
X450953Y360970D01*
X450970Y360991D01*
X450990Y361009D01*
X451097Y361146D01*
X451208Y361282D01*
X451220Y361305D01*
X451237Y361327D01*
X451315Y361484D01*
X451397Y361638D01*
X451404Y361663D01*
X451416Y361687D01*
X451462Y361857D01*
X451511Y362023D01*
X451514Y362050D01*
X451521Y362076D01*
X451548Y362407D01*
X451548Y372125D01*
X451545Y372152D01*
X451547Y372178D01*
X451525Y372352D01*
X451508Y372526D01*
X451500Y372551D01*
X451497Y372578D01*
X451441Y372743D01*
X451390Y372910D01*
X451377Y372934D01*
X451368Y372959D01*
X451281Y373111D01*
X451198Y373265D01*
X451181Y373285D01*
X451168Y373308D01*
X450953Y373561D01*
X433436Y391078D01*
X433330Y391165D01*
X433229Y391259D01*
X433174Y391292D01*
X433125Y391333D01*
X433003Y391397D01*
X432886Y391469D01*
X432826Y391491D01*
X432769Y391522D01*
X432637Y391561D01*
X432508Y391608D01*
X432499Y391610D01*
X432495Y391620D01*
X432483Y391683D01*
X432431Y391810D01*
X432388Y391940D01*
X432355Y391996D01*
X432331Y392056D01*
X432255Y392170D01*
X432187Y392289D01*
X432139Y392346D01*
X432109Y392391D01*
X432052Y392448D01*
X431972Y392542D01*
X408804Y415710D01*
X408783Y415727D01*
X408766Y415748D01*
X408628Y415855D01*
X408492Y415965D01*
X408469Y415978D01*
X408447Y415994D01*
X408291Y416072D01*
X408137Y416154D01*
X408111Y416162D01*
X408087Y416174D01*
X407918Y416219D01*
X407751Y416269D01*
X407724Y416271D01*
X407698Y416278D01*
X407367Y416305D01*
X406800Y416305D01*
X404606Y417214D01*
X402927Y418893D01*
X402018Y421087D01*
X402018Y423463D01*
X402927Y425657D01*
X404606Y427336D01*
X406800Y428245D01*
X409175Y428245D01*
X411369Y427336D01*
X413048Y425657D01*
X413957Y423463D01*
X413957Y422895D01*
X413960Y422868D01*
X413958Y422842D01*
X413980Y422668D01*
X413997Y422494D01*
X414005Y422469D01*
X414008Y422442D01*
X414064Y422276D01*
X414115Y422110D01*
X414128Y422086D01*
X414137Y422061D01*
X414224Y421908D01*
X414307Y421755D01*
X414324Y421735D01*
X414337Y421712D01*
X414552Y421459D01*
X457629Y378382D01*
X458025Y377986D01*
X458028Y377983D01*
X458031Y377980D01*
X458184Y377856D01*
X458336Y377731D01*
X458340Y377729D01*
X458344Y377726D01*
X458521Y377633D01*
X458692Y377542D01*
X458696Y377541D01*
X458700Y377539D01*
X458894Y377482D01*
X459078Y377428D01*
X459082Y377427D01*
X459087Y377426D01*
X459281Y377409D01*
X459479Y377391D01*
X459484Y377392D01*
X459488Y377391D01*
X459679Y377413D01*
X459879Y377434D01*
X459884Y377436D01*
X459888Y377436D01*
X460075Y377496D01*
X460263Y377556D01*
X460267Y377558D01*
X460271Y377560D01*
X460443Y377655D01*
X460615Y377751D01*
X460619Y377754D01*
X460623Y377756D01*
X460772Y377883D01*
X460922Y378011D01*
X460925Y378015D01*
X460929Y378018D01*
X461050Y378172D01*
X461172Y378327D01*
X461174Y378331D01*
X461177Y378335D01*
X461264Y378509D01*
X461354Y378686D01*
X461356Y378691D01*
X461358Y378694D01*
X461409Y378884D01*
X461462Y379074D01*
X461463Y379078D01*
X461464Y379083D01*
X461478Y379281D01*
X461492Y379476D01*
X461491Y379480D01*
X461492Y379484D01*
X461466Y379683D01*
X461441Y379875D01*
X461440Y379879D01*
X461439Y379884D01*
X461338Y380200D01*
X459739Y384059D01*
X459739Y388101D01*
X461286Y391836D01*
X464144Y394694D01*
X467879Y396241D01*
X487161Y396241D01*
X490896Y394694D01*
X493672Y391918D01*
X493679Y391912D01*
X493684Y391905D01*
X493834Y391785D01*
X493983Y391663D01*
X493991Y391658D01*
X493998Y391653D01*
X494168Y391564D01*
X494339Y391474D01*
X494348Y391471D01*
X494355Y391467D01*
X494540Y391414D01*
X494725Y391359D01*
X494734Y391358D01*
X494742Y391356D01*
X494933Y391340D01*
X495126Y391323D01*
X495135Y391324D01*
X495144Y391323D01*
X495333Y391345D01*
X495526Y391366D01*
X495535Y391369D01*
X495543Y391370D01*
X495725Y391429D01*
X495910Y391488D01*
X495918Y391492D01*
X495926Y391495D01*
X496095Y391590D01*
X496262Y391683D01*
X496269Y391688D01*
X496277Y391693D01*
X496423Y391819D01*
X496569Y391943D01*
X496575Y391950D01*
X496582Y391956D01*
X496698Y392106D01*
X496819Y392259D01*
X496823Y392267D01*
X496828Y392274D01*
X496913Y392444D01*
X497001Y392618D01*
X497004Y392626D01*
X497008Y392635D01*
X497058Y392820D01*
X497109Y393006D01*
X497110Y393015D01*
X497112Y393023D01*
X497139Y393354D01*
X497139Y404458D01*
X497123Y404625D01*
X497111Y404793D01*
X497103Y404825D01*
X497099Y404858D01*
X497050Y405019D01*
X497006Y405182D01*
X496991Y405211D01*
X496981Y405243D01*
X496901Y405391D01*
X496826Y405542D01*
X496805Y405568D01*
X496789Y405597D01*
X496682Y405726D01*
X496578Y405859D01*
X496553Y405881D01*
X496532Y405906D01*
X496401Y406012D01*
X496273Y406122D01*
X496244Y406138D01*
X496218Y406159D01*
X496069Y406236D01*
X495922Y406319D01*
X495890Y406329D01*
X495861Y406344D01*
X495699Y406391D01*
X495539Y406443D01*
X495506Y406446D01*
X495474Y406456D01*
X495306Y406469D01*
X495139Y406489D01*
X495106Y406486D01*
X495072Y406489D01*
X494905Y406469D01*
X494738Y406455D01*
X494706Y406446D01*
X494673Y406442D01*
X494513Y406389D01*
X494351Y406343D01*
X494321Y406327D01*
X494290Y406317D01*
X494143Y406234D01*
X493994Y406156D01*
X493968Y406135D01*
X493939Y406119D01*
X493812Y406009D01*
X493681Y405903D01*
X493657Y405875D01*
X493635Y405856D01*
X493582Y405787D01*
X493465Y405652D01*
X492890Y404861D01*
X491759Y403730D01*
X490465Y402790D01*
X489040Y402064D01*
X487519Y401569D01*
X485940Y401319D01*
X480059Y401319D01*
X480059Y410972D01*
X480057Y410990D01*
X480059Y411007D01*
X480038Y411190D01*
X480019Y411372D01*
X480014Y411389D01*
X480012Y411407D01*
X479987Y411485D01*
X480026Y411622D01*
X480028Y411640D01*
X480032Y411657D01*
X480059Y411988D01*
X480059Y421641D01*
X485940Y421641D01*
X487519Y421391D01*
X489040Y420896D01*
X490465Y420170D01*
X491759Y419230D01*
X492890Y418099D01*
X493465Y417308D01*
X493577Y417183D01*
X493684Y417054D01*
X493710Y417033D01*
X493732Y417008D01*
X493867Y416907D01*
X493998Y416801D01*
X494028Y416786D01*
X494054Y416766D01*
X494206Y416693D01*
X494355Y416616D01*
X494387Y416607D01*
X494417Y416592D01*
X494581Y416551D01*
X494742Y416504D01*
X494776Y416502D01*
X494808Y416493D01*
X494976Y416485D01*
X495144Y416471D01*
X495177Y416475D01*
X495210Y416474D01*
X495376Y416499D01*
X495543Y416518D01*
X495575Y416529D01*
X495608Y416534D01*
X495766Y416591D01*
X495926Y416643D01*
X495955Y416660D01*
X495987Y416671D01*
X496130Y416758D01*
X496277Y416841D01*
X496302Y416863D01*
X496330Y416880D01*
X496454Y416994D01*
X496582Y417104D01*
X496602Y417131D01*
X496626Y417153D01*
X496725Y417289D01*
X496828Y417422D01*
X496843Y417452D01*
X496863Y417479D01*
X496933Y417632D01*
X497008Y417783D01*
X497016Y417815D01*
X497030Y417845D01*
X497068Y418009D01*
X497112Y418172D01*
X497115Y418209D01*
X497122Y418237D01*
X497125Y418324D01*
X497139Y418502D01*
X497139Y429606D01*
X497138Y429615D01*
X497139Y429624D01*
X497118Y429816D01*
X497099Y430007D01*
X497097Y430015D01*
X497096Y430024D01*
X497038Y430206D01*
X496981Y430392D01*
X496977Y430399D01*
X496974Y430408D01*
X496881Y430576D01*
X496789Y430746D01*
X496784Y430752D01*
X496779Y430760D01*
X496655Y430907D01*
X496532Y431055D01*
X496525Y431060D01*
X496519Y431067D01*
X496368Y431186D01*
X496218Y431307D01*
X496210Y431311D01*
X496203Y431317D01*
X496030Y431405D01*
X495861Y431493D01*
X495852Y431495D01*
X495844Y431499D01*
X495658Y431551D01*
X495474Y431604D01*
X495465Y431605D01*
X495456Y431607D01*
X495263Y431621D01*
X495072Y431637D01*
X495064Y431636D01*
X495055Y431637D01*
X494862Y431612D01*
X494673Y431590D01*
X494664Y431587D01*
X494655Y431586D01*
X494472Y431525D01*
X494290Y431465D01*
X494282Y431461D01*
X494274Y431458D01*
X494107Y431362D01*
X493939Y431267D01*
X493932Y431261D01*
X493925Y431257D01*
X493672Y431042D01*
X490896Y428266D01*
X487161Y426719D01*
X467879Y426719D01*
X464144Y428266D01*
X461286Y431124D01*
X459739Y434859D01*
X459739Y438901D01*
X461286Y442636D01*
X464144Y445494D01*
X467879Y447041D01*
X487161Y447041D01*
X490896Y445494D01*
X493672Y442718D01*
X493679Y442712D01*
X493684Y442705D01*
X493834Y442585D01*
X493983Y442463D01*
X493991Y442458D01*
X493998Y442453D01*
X494168Y442364D01*
X494339Y442274D01*
X494348Y442271D01*
X494355Y442267D01*
X494540Y442214D01*
X494725Y442159D01*
X494734Y442158D01*
X494742Y442156D01*
X494933Y442140D01*
X495126Y442123D01*
X495135Y442124D01*
X495144Y442123D01*
X495333Y442145D01*
X495526Y442166D01*
X495535Y442169D01*
X495543Y442170D01*
X495725Y442229D01*
X495910Y442288D01*
X495918Y442292D01*
X495926Y442295D01*
X496095Y442390D01*
X496262Y442483D01*
X496269Y442488D01*
X496277Y442493D01*
X496423Y442619D01*
X496569Y442743D01*
X496575Y442750D01*
X496582Y442756D01*
X496699Y442907D01*
X496819Y443059D01*
X496823Y443067D01*
X496828Y443074D01*
X496914Y443246D01*
X497001Y443418D01*
X497004Y443426D01*
X497008Y443435D01*
X497058Y443620D01*
X497109Y443806D01*
X497110Y443815D01*
X497112Y443823D01*
X497139Y444154D01*
X497139Y495448D01*
X497137Y495466D01*
X497139Y495484D01*
X497118Y495666D01*
X497099Y495849D01*
X497094Y495866D01*
X497092Y495883D01*
X497035Y496058D01*
X496981Y496234D01*
X496973Y496249D01*
X496967Y496266D01*
X496877Y496426D01*
X496789Y496588D01*
X496778Y496601D01*
X496769Y496617D01*
X496649Y496756D01*
X496532Y496897D01*
X496518Y496908D01*
X496506Y496922D01*
X496361Y497034D01*
X496218Y497149D01*
X496202Y497157D01*
X496188Y497168D01*
X496023Y497250D01*
X495861Y497335D01*
X495844Y497340D01*
X495828Y497348D01*
X495649Y497395D01*
X495474Y497446D01*
X495456Y497448D01*
X495439Y497452D01*
X495108Y497479D01*
X5058Y497479D01*
X5050Y497478D01*
X5041Y497479D01*
X4849Y497458D01*
X4658Y497439D01*
X4650Y497437D01*
X4641Y497436D01*
X4457Y497378D01*
X4273Y497321D01*
X4265Y497317D01*
X4257Y497314D01*
X4088Y497221D01*
X3919Y497129D01*
X3912Y497124D01*
X3905Y497120D01*
X3756Y496994D01*
X3610Y496872D01*
X3604Y496865D01*
X3598Y496859D01*
X3478Y496708D01*
X3357Y496558D01*
X3353Y496550D01*
X3348Y496543D01*
X3260Y496370D01*
X3172Y496201D01*
X3169Y496192D01*
X3165Y496185D01*
X3113Y495998D01*
X3060Y495814D01*
X3060Y495805D01*
X3057Y495797D01*
X3027Y495466D01*
X2908Y482214D01*
X2924Y482037D01*
X2936Y481860D01*
X2942Y481837D01*
X2944Y481813D01*
X2995Y481642D01*
X3041Y481471D01*
X3052Y481450D01*
X3059Y481427D01*
X3142Y481270D01*
X3221Y481111D01*
X3236Y481092D01*
X3247Y481071D01*
X3360Y480933D01*
X3469Y480794D01*
X3487Y480778D01*
X3502Y480759D01*
X3640Y480647D01*
X3774Y480531D01*
X3795Y480520D01*
X3814Y480504D01*
X3970Y480421D01*
X4125Y480334D01*
X4148Y480327D01*
X4169Y480316D01*
X4340Y480265D01*
X4508Y480210D01*
X4532Y480208D01*
X4555Y480201D01*
X4733Y480185D01*
X4908Y480164D01*
X4932Y480166D01*
X4956Y480164D01*
X5133Y480183D01*
X5309Y480198D01*
X5333Y480205D01*
X5357Y480207D01*
X5525Y480261D01*
X5696Y480310D01*
X5717Y480322D01*
X5740Y480329D01*
X5896Y480415D01*
X6053Y480497D01*
X6072Y480512D01*
X6093Y480524D01*
X6228Y480639D01*
X6366Y480750D01*
X6384Y480770D01*
X6400Y480784D01*
X6450Y480848D01*
X6582Y481001D01*
X7597Y482398D01*
X8882Y483683D01*
X10351Y484751D01*
X11970Y485575D01*
X13697Y486137D01*
X15492Y486421D01*
X22401Y486421D01*
X22401Y475848D01*
X22402Y475830D01*
X22401Y475813D01*
X22422Y475630D01*
X22441Y475448D01*
X22446Y475431D01*
X22448Y475413D01*
X22505Y475238D01*
X22559Y475063D01*
X22567Y475047D01*
X22573Y475030D01*
X22663Y474870D01*
X22750Y474709D01*
X22762Y474695D01*
X22771Y474679D01*
X22891Y474540D01*
X23008Y474399D01*
X23022Y474388D01*
X23034Y474375D01*
X23179Y474262D01*
X23322Y474147D01*
X23338Y474139D01*
X23352Y474128D01*
X23517Y474046D01*
X23679Y473962D01*
X23696Y473957D01*
X23712Y473949D01*
X23891Y473901D01*
X24066Y473850D01*
X24084Y473849D01*
X24101Y473844D01*
X24343Y473824D01*
X24359Y473694D01*
X24377Y473511D01*
X24382Y473494D01*
X24384Y473477D01*
X24441Y473302D01*
X24495Y473126D01*
X24503Y473111D01*
X24509Y473094D01*
X24599Y472934D01*
X24687Y472772D01*
X24698Y472759D01*
X24707Y472743D01*
X24827Y472604D01*
X24945Y472463D01*
X24958Y472452D01*
X24970Y472438D01*
X25115Y472326D01*
X25258Y472211D01*
X25274Y472203D01*
X25288Y472192D01*
X25453Y472110D01*
X25616Y472025D01*
X25633Y472020D01*
X25649Y472012D01*
X25827Y471964D01*
X26002Y471914D01*
X26020Y471912D01*
X26037Y471908D01*
X26368Y471881D01*
X45560Y471881D01*
X45095Y470450D01*
X44271Y468831D01*
X43203Y467362D01*
X41918Y466077D01*
X40449Y465009D01*
X38830Y464185D01*
X38590Y464107D01*
X38508Y464071D01*
X38424Y464045D01*
X38325Y463990D01*
X38221Y463945D01*
X38148Y463894D01*
X38070Y463851D01*
X37984Y463779D01*
X37891Y463714D01*
X37830Y463649D01*
X37762Y463592D01*
X37692Y463504D01*
X37614Y463422D01*
X37567Y463347D01*
X37511Y463277D01*
X37460Y463177D01*
X37399Y463081D01*
X37368Y462998D01*
X37327Y462919D01*
X37297Y462811D01*
X37256Y462705D01*
X37242Y462617D01*
X37218Y462532D01*
X37209Y462419D01*
X37190Y462308D01*
X37193Y462219D01*
X37187Y462130D01*
X37200Y462018D01*
X37204Y461905D01*
X37224Y461819D01*
X37235Y461731D01*
X37271Y461624D01*
X37297Y461514D01*
X37334Y461433D01*
X37362Y461349D01*
X37418Y461250D01*
X37465Y461148D01*
X37517Y461076D01*
X37561Y460999D01*
X37635Y460914D01*
X37702Y460822D01*
X37767Y460762D01*
X37826Y460695D01*
X37915Y460626D01*
X37998Y460550D01*
X38074Y460504D01*
X38145Y460450D01*
X38270Y460385D01*
X38343Y460341D01*
X38386Y460326D01*
X38440Y460298D01*
X40937Y459264D01*
X44184Y456017D01*
X45941Y451776D01*
X45941Y447184D01*
X44184Y442943D01*
X40937Y439696D01*
X39550Y439121D01*
X36696Y437939D01*
X25146Y437939D01*
X25128Y437937D01*
X25110Y437939D01*
X24928Y437918D01*
X24745Y437899D01*
X24728Y437894D01*
X24711Y437892D01*
X24536Y437835D01*
X24360Y437781D01*
X24345Y437773D01*
X24328Y437767D01*
X24168Y437677D01*
X24006Y437589D01*
X23993Y437578D01*
X23977Y437569D01*
X23838Y437449D01*
X23697Y437332D01*
X23686Y437318D01*
X23672Y437306D01*
X23560Y437161D01*
X23445Y437018D01*
X23437Y437002D01*
X23426Y436988D01*
X23344Y436823D01*
X23259Y436661D01*
X23254Y436644D01*
X23246Y436628D01*
X23199Y436449D01*
X23148Y436274D01*
X23146Y436256D01*
X23142Y436239D01*
X23115Y435908D01*
X23115Y413527D01*
X23117Y413509D01*
X23115Y413491D01*
X23136Y413309D01*
X23155Y413126D01*
X23160Y413109D01*
X23162Y413092D01*
X23219Y412917D01*
X23273Y412741D01*
X23281Y412726D01*
X23287Y412709D01*
X23377Y412549D01*
X23465Y412387D01*
X23476Y412374D01*
X23485Y412358D01*
X23605Y412219D01*
X23722Y412078D01*
X23736Y412067D01*
X23748Y412053D01*
X23893Y411941D01*
X24036Y411826D01*
X24052Y411818D01*
X24066Y411807D01*
X24231Y411725D01*
X24393Y411640D01*
X24410Y411635D01*
X24426Y411627D01*
X24605Y411580D01*
X24780Y411529D01*
X24798Y411527D01*
X24815Y411523D01*
X25146Y411496D01*
X27187Y411496D01*
X28676Y410007D01*
X28676Y403313D01*
X28680Y403271D01*
X28677Y403228D01*
X28700Y403070D01*
X28716Y402912D01*
X28728Y402872D01*
X28734Y402830D01*
X28787Y402680D01*
X28834Y402527D01*
X28854Y402490D01*
X28868Y402450D01*
X28950Y402314D01*
X29026Y402173D01*
X29053Y402141D01*
X29074Y402104D01*
X29181Y401986D01*
X29283Y401864D01*
X29316Y401838D01*
X29345Y401806D01*
X29473Y401711D01*
X29597Y401612D01*
X29635Y401592D01*
X29669Y401567D01*
X29813Y401499D01*
X29954Y401426D01*
X29995Y401414D01*
X30033Y401397D01*
X30188Y401359D01*
X30341Y401315D01*
X30384Y401311D01*
X30425Y401301D01*
X30584Y401295D01*
X30743Y401282D01*
X30785Y401287D01*
X30827Y401285D01*
X30984Y401310D01*
X31142Y401329D01*
X31183Y401342D01*
X31224Y401349D01*
X31373Y401404D01*
X31525Y401454D01*
X31562Y401475D01*
X31602Y401489D01*
X31737Y401573D01*
X31876Y401652D01*
X31908Y401679D01*
X31944Y401702D01*
X32060Y401811D01*
X32180Y401915D01*
X32206Y401948D01*
X32237Y401977D01*
X32330Y402107D01*
X32427Y402233D01*
X32446Y402271D01*
X32471Y402305D01*
X32535Y402450D01*
X32607Y402593D01*
X32618Y402634D01*
X32635Y402673D01*
X32700Y402939D01*
X32711Y402982D01*
X32712Y402989D01*
X32713Y402995D01*
X32750Y403228D01*
X33275Y404844D01*
X34047Y406358D01*
X35045Y407733D01*
X36247Y408935D01*
X37622Y409933D01*
X39136Y410705D01*
X40752Y411230D01*
X41249Y411309D01*
X41249Y400700D01*
X41249Y390091D01*
X40752Y390170D01*
X39136Y390695D01*
X37622Y391467D01*
X36247Y392465D01*
X35045Y393667D01*
X34047Y395042D01*
X33275Y396556D01*
X32750Y398172D01*
X32713Y398405D01*
X32703Y398446D01*
X32698Y398488D01*
X32652Y398640D01*
X32611Y398794D01*
X32593Y398832D01*
X32580Y398873D01*
X32504Y399013D01*
X32434Y399156D01*
X32409Y399190D01*
X32388Y399227D01*
X32287Y399349D01*
X32190Y399476D01*
X32158Y399504D01*
X32131Y399536D01*
X32007Y399636D01*
X31887Y399741D01*
X31850Y399762D01*
X31817Y399788D01*
X31676Y399862D01*
X31537Y399941D01*
X31497Y399954D01*
X31460Y399974D01*
X31307Y400018D01*
X31155Y400068D01*
X31113Y400074D01*
X31073Y400085D01*
X30914Y400098D01*
X30756Y400118D01*
X30714Y400115D01*
X30671Y400118D01*
X30513Y400100D01*
X30354Y400088D01*
X30314Y400076D01*
X30272Y400071D01*
X30120Y400022D01*
X29967Y399979D01*
X29929Y399960D01*
X29889Y399946D01*
X29750Y399868D01*
X29608Y399796D01*
X29575Y399769D01*
X29538Y399748D01*
X29418Y399644D01*
X29293Y399545D01*
X29265Y399513D01*
X29233Y399485D01*
X29136Y399359D01*
X29033Y399238D01*
X29013Y399201D01*
X28987Y399167D01*
X28916Y399024D01*
X28839Y398885D01*
X28826Y398845D01*
X28807Y398807D01*
X28766Y398652D01*
X28718Y398501D01*
X28714Y398459D01*
X28703Y398418D01*
X28680Y398144D01*
X28676Y398100D01*
X28676Y398094D01*
X28676Y398087D01*
X28676Y391393D01*
X27187Y389904D01*
X23558Y389904D01*
X23541Y389902D01*
X23523Y389904D01*
X23341Y389883D01*
X23158Y389864D01*
X23141Y389859D01*
X23123Y389857D01*
X22949Y389800D01*
X22773Y389746D01*
X22757Y389738D01*
X22740Y389732D01*
X22580Y389642D01*
X22419Y389554D01*
X22405Y389543D01*
X22390Y389534D01*
X22250Y389414D01*
X22110Y389297D01*
X22098Y389283D01*
X22085Y389271D01*
X21972Y389126D01*
X21857Y388983D01*
X21849Y388967D01*
X21838Y388953D01*
X21756Y388787D01*
X21672Y388626D01*
X21667Y388609D01*
X21659Y388593D01*
X21611Y388414D01*
X21560Y388239D01*
X21559Y388221D01*
X21554Y388204D01*
X21527Y387873D01*
X21527Y369167D01*
X21530Y369140D01*
X21528Y369113D01*
X21550Y368940D01*
X21567Y368766D01*
X21575Y368741D01*
X21578Y368714D01*
X21634Y368548D01*
X21685Y368381D01*
X21698Y368358D01*
X21707Y368332D01*
X21794Y368181D01*
X21877Y368027D01*
X21894Y368007D01*
X21907Y367983D01*
X22122Y367730D01*
X26545Y363308D01*
X26545Y355732D01*
X21188Y350375D01*
X13612Y350375D01*
X8255Y355732D01*
X8255Y363308D01*
X12803Y367855D01*
X12820Y367876D01*
X12840Y367894D01*
X12947Y368032D01*
X13058Y368167D01*
X13070Y368191D01*
X13087Y368212D01*
X13165Y368369D01*
X13247Y368523D01*
X13254Y368548D01*
X13266Y368572D01*
X13312Y368742D01*
X13361Y368909D01*
X13364Y368935D01*
X13371Y368961D01*
X13398Y369292D01*
X13398Y387873D01*
X13396Y387891D01*
X13397Y387909D01*
X13376Y388091D01*
X13358Y388274D01*
X13353Y388291D01*
X13351Y388308D01*
X13294Y388483D01*
X13240Y388659D01*
X13231Y388674D01*
X13226Y388691D01*
X13136Y388851D01*
X13048Y389013D01*
X13037Y389026D01*
X13028Y389042D01*
X12908Y389181D01*
X12790Y389322D01*
X12776Y389333D01*
X12765Y389347D01*
X12620Y389459D01*
X12476Y389574D01*
X12461Y389582D01*
X12447Y389593D01*
X12282Y389675D01*
X12119Y389760D01*
X12102Y389765D01*
X12086Y389773D01*
X11908Y389820D01*
X11732Y389871D01*
X11714Y389873D01*
X11697Y389877D01*
X11367Y389904D01*
X8573Y389904D01*
X7084Y391393D01*
X7084Y410007D01*
X8573Y411496D01*
X12954Y411496D01*
X12972Y411498D01*
X12990Y411496D01*
X13172Y411517D01*
X13355Y411536D01*
X13372Y411541D01*
X13389Y411543D01*
X13564Y411600D01*
X13740Y411654D01*
X13755Y411662D01*
X13772Y411668D01*
X13932Y411758D01*
X14094Y411846D01*
X14107Y411857D01*
X14123Y411866D01*
X14262Y411986D01*
X14403Y412103D01*
X14414Y412117D01*
X14428Y412129D01*
X14540Y412274D01*
X14655Y412417D01*
X14663Y412433D01*
X14674Y412447D01*
X14756Y412612D01*
X14841Y412774D01*
X14846Y412791D01*
X14854Y412807D01*
X14901Y412986D01*
X14952Y413161D01*
X14954Y413179D01*
X14958Y413196D01*
X14985Y413527D01*
X14985Y436217D01*
X14983Y436239D01*
X14985Y436262D01*
X14963Y436439D01*
X14945Y436618D01*
X14939Y436639D01*
X14936Y436661D01*
X14880Y436831D01*
X14827Y437003D01*
X14817Y437022D01*
X14810Y437043D01*
X14721Y437199D01*
X14635Y437357D01*
X14621Y437374D01*
X14610Y437393D01*
X14492Y437529D01*
X14378Y437666D01*
X14360Y437680D01*
X14346Y437697D01*
X14204Y437806D01*
X14064Y437918D01*
X14044Y437929D01*
X14026Y437942D01*
X13731Y438094D01*
X9863Y439696D01*
X6616Y442943D01*
X6459Y443324D01*
X6368Y443492D01*
X6274Y443671D01*
X6271Y443674D01*
X6268Y443678D01*
X6145Y443828D01*
X6019Y443982D01*
X6015Y443985D01*
X6012Y443989D01*
X5858Y444113D01*
X5707Y444237D01*
X5703Y444240D01*
X5699Y444243D01*
X5524Y444334D01*
X5351Y444426D01*
X5347Y444427D01*
X5343Y444430D01*
X5154Y444485D01*
X4966Y444541D01*
X4961Y444541D01*
X4956Y444543D01*
X4763Y444559D01*
X4565Y444577D01*
X4560Y444577D01*
X4555Y444577D01*
X4361Y444555D01*
X4164Y444534D01*
X4160Y444533D01*
X4155Y444532D01*
X3968Y444472D01*
X3780Y444413D01*
X3776Y444410D01*
X3772Y444409D01*
X3602Y444314D01*
X3428Y444218D01*
X3424Y444215D01*
X3420Y444213D01*
X3273Y444087D01*
X3121Y443958D01*
X3118Y443954D01*
X3115Y443951D01*
X2993Y443795D01*
X2871Y443642D01*
X2869Y443638D01*
X2866Y443634D01*
X2779Y443459D01*
X2689Y443283D01*
X2688Y443278D01*
X2685Y443274D01*
X2634Y443085D01*
X2581Y442895D01*
X2580Y442890D01*
X2579Y442886D01*
X2577Y442852D01*
X2551Y442565D01*
X2221Y405947D01*
X2222Y405939D01*
X2221Y405929D01*
X2221Y215900D01*
X2223Y215882D01*
X2221Y215864D01*
X2242Y215682D01*
X2261Y215499D01*
X2266Y215482D01*
X2268Y215465D01*
X2325Y215290D01*
X2379Y215114D01*
X2387Y215099D01*
X2393Y215082D01*
X2483Y214922D01*
X2571Y214760D01*
X2582Y214747D01*
X2591Y214731D01*
X2711Y214592D01*
X2828Y214451D01*
X2842Y214440D01*
X2854Y214427D01*
X2999Y214314D01*
X3142Y214199D01*
X3158Y214191D01*
X3172Y214180D01*
X3337Y214098D01*
X3499Y214013D01*
X3516Y214008D01*
X3532Y214000D01*
X3711Y213953D01*
X3886Y213902D01*
X3904Y213900D01*
X3921Y213896D01*
X4252Y213869D01*
X17813Y213869D01*
X17826Y213870D01*
X17839Y213869D01*
X18025Y213890D01*
X18213Y213909D01*
X18226Y213913D01*
X18239Y213914D01*
X18418Y213972D01*
X18598Y214027D01*
X18610Y214033D01*
X18623Y214037D01*
X18787Y214129D01*
X18952Y214219D01*
X18962Y214227D01*
X18974Y214234D01*
X19117Y214356D01*
X19261Y214476D01*
X19270Y214487D01*
X19280Y214495D01*
X19396Y214643D01*
X19514Y214790D01*
X19520Y214802D01*
X19528Y214812D01*
X19613Y214981D01*
X19699Y215147D01*
X19703Y215160D01*
X19709Y215172D01*
X19759Y215353D01*
X19811Y215534D01*
X19812Y215548D01*
X19815Y215561D01*
X19828Y215749D01*
X19843Y215936D01*
X19842Y215949D01*
X19843Y215962D01*
X19818Y216150D01*
X19797Y216335D01*
X19792Y216348D01*
X19791Y216361D01*
X19689Y216677D01*
X18199Y220274D01*
X18199Y224086D01*
X19658Y227607D01*
X22353Y230302D01*
X25874Y231761D01*
X29686Y231761D01*
X30307Y231503D01*
X30328Y231497D01*
X30348Y231487D01*
X30520Y231439D01*
X30692Y231387D01*
X30714Y231385D01*
X30736Y231379D01*
X30915Y231366D01*
X31093Y231349D01*
X31115Y231351D01*
X31137Y231350D01*
X31316Y231372D01*
X31493Y231391D01*
X31515Y231397D01*
X31537Y231400D01*
X31707Y231457D01*
X31878Y231510D01*
X31897Y231521D01*
X31919Y231528D01*
X32074Y231618D01*
X32231Y231704D01*
X32248Y231718D01*
X32267Y231729D01*
X32520Y231944D01*
X100115Y299539D01*
X100132Y299559D01*
X100153Y299577D01*
X100260Y299715D01*
X100370Y299850D01*
X100383Y299874D01*
X100399Y299895D01*
X100477Y300052D01*
X100559Y300206D01*
X100567Y300231D01*
X100579Y300256D01*
X100624Y300425D01*
X100674Y300592D01*
X100676Y300618D01*
X100683Y300644D01*
X100710Y300975D01*
X100710Y394842D01*
X100710Y394849D01*
X100710Y394856D01*
X100689Y395051D01*
X100670Y395243D01*
X100668Y395249D01*
X100668Y395256D01*
X100609Y395441D01*
X100552Y395628D01*
X100549Y395634D01*
X100547Y395640D01*
X100454Y395809D01*
X100360Y395982D01*
X100356Y395987D01*
X100353Y395993D01*
X100227Y396142D01*
X100103Y396291D01*
X100098Y396295D01*
X100093Y396300D01*
X99941Y396421D01*
X99789Y396543D01*
X99783Y396546D01*
X99778Y396551D01*
X99604Y396639D01*
X99432Y396729D01*
X99425Y396731D01*
X99419Y396734D01*
X99233Y396786D01*
X99045Y396840D01*
X99038Y396841D01*
X99032Y396843D01*
X98839Y396857D01*
X98643Y396873D01*
X98637Y396872D01*
X98630Y396873D01*
X98437Y396849D01*
X98244Y396826D01*
X98237Y396824D01*
X98231Y396823D01*
X98046Y396762D01*
X97861Y396701D01*
X97855Y396698D01*
X97849Y396696D01*
X97680Y396599D01*
X97510Y396503D01*
X97505Y396499D01*
X97499Y396496D01*
X97354Y396368D01*
X97206Y396240D01*
X97201Y396235D01*
X97196Y396231D01*
X96990Y395971D01*
X95764Y394136D01*
X88302Y389150D01*
X79500Y387399D01*
X70698Y389150D01*
X63236Y394136D01*
X58250Y401598D01*
X57905Y403332D01*
X57858Y403487D01*
X57817Y403643D01*
X57799Y403679D01*
X57788Y403718D01*
X57734Y403816D01*
X57740Y403853D01*
X57736Y403935D01*
X57741Y404017D01*
X57724Y404169D01*
X57719Y404255D01*
X57708Y404301D01*
X57703Y404347D01*
X56499Y410400D01*
X58250Y419202D01*
X63236Y426664D01*
X70698Y431650D01*
X79500Y433401D01*
X88302Y431650D01*
X95764Y426664D01*
X96990Y424829D01*
X96994Y424824D01*
X96998Y424818D01*
X97123Y424668D01*
X97246Y424518D01*
X97251Y424514D01*
X97255Y424509D01*
X97408Y424387D01*
X97558Y424264D01*
X97564Y424261D01*
X97569Y424257D01*
X97741Y424167D01*
X97914Y424076D01*
X97921Y424074D01*
X97926Y424071D01*
X98112Y424018D01*
X98300Y423962D01*
X98307Y423962D01*
X98313Y423960D01*
X98507Y423944D01*
X98701Y423927D01*
X98708Y423927D01*
X98715Y423927D01*
X98908Y423950D01*
X99101Y423971D01*
X99108Y423973D01*
X99114Y423974D01*
X99301Y424035D01*
X99485Y424093D01*
X99491Y424097D01*
X99497Y424099D01*
X99669Y424195D01*
X99837Y424289D01*
X99842Y424293D01*
X99848Y424297D01*
X99996Y424424D01*
X100143Y424550D01*
X100147Y424555D01*
X100153Y424560D01*
X100272Y424714D01*
X100392Y424867D01*
X100395Y424872D01*
X100399Y424878D01*
X100486Y425053D01*
X100574Y425226D01*
X100576Y425232D01*
X100579Y425238D01*
X100629Y425427D01*
X100681Y425614D01*
X100681Y425621D01*
X100683Y425627D01*
X100710Y425958D01*
X100710Y443960D01*
X100708Y443978D01*
X100710Y443996D01*
X100689Y444178D01*
X100670Y444361D01*
X100665Y444378D01*
X100663Y444395D01*
X100606Y444570D01*
X100552Y444746D01*
X100544Y444761D01*
X100538Y444778D01*
X100448Y444938D01*
X100360Y445100D01*
X100349Y445113D01*
X100340Y445129D01*
X100220Y445268D01*
X100103Y445409D01*
X100089Y445420D01*
X100077Y445434D01*
X99932Y445546D01*
X99789Y445661D01*
X99773Y445669D01*
X99759Y445680D01*
X99594Y445762D01*
X99432Y445847D01*
X99415Y445852D01*
X99399Y445860D01*
X99220Y445907D01*
X99045Y445958D01*
X99027Y445960D01*
X99010Y445964D01*
X98679Y445991D01*
X95661Y445991D01*
X92300Y447383D01*
X89727Y449956D01*
X88335Y453317D01*
X88335Y470163D01*
X89727Y473524D01*
X92300Y476097D01*
X95661Y477489D01*
X99299Y477489D01*
X102660Y476097D01*
X105233Y473524D01*
X106625Y470163D01*
X106625Y455414D01*
X106626Y455406D01*
X106625Y455397D01*
X106646Y455205D01*
X106665Y455014D01*
X106667Y455005D01*
X106668Y454996D01*
X106726Y454814D01*
X106783Y454629D01*
X106787Y454621D01*
X106790Y454613D01*
X106883Y454444D01*
X106975Y454275D01*
X106980Y454268D01*
X106985Y454260D01*
X107109Y454113D01*
X107232Y453966D01*
X107239Y453960D01*
X107245Y453953D01*
X107396Y453834D01*
X107546Y453713D01*
X107554Y453709D01*
X107561Y453704D01*
X107734Y453616D01*
X107903Y453528D01*
X107912Y453525D01*
X107920Y453521D01*
X108106Y453469D01*
X108290Y453416D01*
X108299Y453416D01*
X108308Y453413D01*
X108501Y453399D01*
X108692Y453384D01*
X108700Y453385D01*
X108709Y453384D01*
X108902Y453408D01*
X109091Y453430D01*
X109100Y453433D01*
X109109Y453434D01*
X109292Y453496D01*
X109474Y453555D01*
X109482Y453560D01*
X109490Y453563D01*
X109657Y453659D01*
X109825Y453753D01*
X109832Y453759D01*
X109839Y453763D01*
X110092Y453978D01*
X113140Y457026D01*
X113157Y457047D01*
X113178Y457064D01*
X113284Y457202D01*
X113395Y457338D01*
X113408Y457361D01*
X113424Y457383D01*
X113502Y457539D01*
X113584Y457693D01*
X113592Y457719D01*
X113604Y457743D01*
X113649Y457912D01*
X113699Y458079D01*
X113701Y458106D01*
X113708Y458132D01*
X113735Y458463D01*
X113735Y470163D01*
X115127Y473524D01*
X117700Y476097D01*
X121061Y477489D01*
X124699Y477489D01*
X128060Y476097D01*
X130633Y473524D01*
X132025Y470163D01*
X132025Y453317D01*
X130633Y449956D01*
X128060Y447383D01*
X124699Y445991D01*
X121061Y445991D01*
X117666Y447397D01*
X117614Y447438D01*
X117472Y447555D01*
X117456Y447563D01*
X117442Y447574D01*
X117279Y447657D01*
X117116Y447744D01*
X117099Y447749D01*
X117083Y447757D01*
X116906Y447806D01*
X116730Y447858D01*
X116713Y447860D01*
X116695Y447865D01*
X116512Y447878D01*
X116330Y447895D01*
X116312Y447893D01*
X116294Y447894D01*
X116112Y447871D01*
X115929Y447851D01*
X115912Y447846D01*
X115894Y447844D01*
X115721Y447785D01*
X115545Y447730D01*
X115530Y447721D01*
X115513Y447716D01*
X115354Y447624D01*
X115193Y447535D01*
X115179Y447524D01*
X115164Y447515D01*
X114911Y447300D01*
X109435Y441824D01*
X109418Y441803D01*
X109397Y441786D01*
X109290Y441648D01*
X109180Y441512D01*
X109167Y441489D01*
X109151Y441467D01*
X109073Y441311D01*
X108991Y441157D01*
X108983Y441131D01*
X108971Y441107D01*
X108926Y440938D01*
X108876Y440771D01*
X108874Y440744D01*
X108867Y440718D01*
X108840Y440387D01*
X108840Y297641D01*
X108221Y296148D01*
X37956Y225882D01*
X37939Y225862D01*
X37918Y225844D01*
X37811Y225706D01*
X37701Y225571D01*
X37688Y225547D01*
X37672Y225526D01*
X37594Y225369D01*
X37512Y225215D01*
X37504Y225190D01*
X37492Y225165D01*
X37447Y224996D01*
X37397Y224829D01*
X37395Y224803D01*
X37388Y224777D01*
X37361Y224446D01*
X37361Y220274D01*
X35871Y216677D01*
X35867Y216664D01*
X35861Y216653D01*
X35809Y216473D01*
X35754Y216292D01*
X35753Y216279D01*
X35749Y216266D01*
X35734Y216078D01*
X35716Y215891D01*
X35718Y215878D01*
X35717Y215864D01*
X35739Y215677D01*
X35758Y215491D01*
X35762Y215478D01*
X35763Y215465D01*
X35822Y215285D01*
X35878Y215106D01*
X35884Y215095D01*
X35888Y215082D01*
X35981Y214917D01*
X36071Y214753D01*
X36080Y214743D01*
X36086Y214731D01*
X36209Y214589D01*
X36330Y214445D01*
X36341Y214437D01*
X36349Y214427D01*
X36498Y214311D01*
X36645Y214194D01*
X36657Y214188D01*
X36667Y214180D01*
X36836Y214096D01*
X37003Y214010D01*
X37016Y214006D01*
X37028Y214000D01*
X37211Y213951D01*
X37390Y213900D01*
X37404Y213899D01*
X37417Y213896D01*
X37747Y213869D01*
X94013Y213869D01*
X94026Y213870D01*
X94039Y213869D01*
X94225Y213890D01*
X94413Y213909D01*
X94426Y213913D01*
X94439Y213914D01*
X94618Y213972D01*
X94798Y214027D01*
X94810Y214033D01*
X94823Y214037D01*
X94987Y214129D01*
X95152Y214219D01*
X95162Y214227D01*
X95174Y214234D01*
X95317Y214356D01*
X95461Y214476D01*
X95470Y214487D01*
X95480Y214495D01*
X95596Y214643D01*
X95714Y214790D01*
X95720Y214802D01*
X95728Y214812D01*
X95813Y214981D01*
X95899Y215147D01*
X95903Y215160D01*
X95909Y215172D01*
X95959Y215353D01*
X96011Y215534D01*
X96012Y215548D01*
X96015Y215561D01*
X96028Y215749D01*
X96043Y215936D01*
X96042Y215949D01*
X96043Y215962D01*
X96018Y216150D01*
X95997Y216335D01*
X95992Y216348D01*
X95991Y216361D01*
X95889Y216677D01*
X94399Y220274D01*
X94399Y224086D01*
X95858Y227607D01*
X98553Y230302D01*
X102074Y231761D01*
X105886Y231761D01*
X106507Y231503D01*
X106528Y231497D01*
X106548Y231487D01*
X106720Y231439D01*
X106892Y231387D01*
X106914Y231385D01*
X106936Y231379D01*
X107115Y231366D01*
X107293Y231349D01*
X107315Y231351D01*
X107337Y231350D01*
X107516Y231372D01*
X107693Y231391D01*
X107715Y231397D01*
X107737Y231400D01*
X107907Y231457D01*
X108078Y231510D01*
X108097Y231521D01*
X108119Y231528D01*
X108274Y231618D01*
X108431Y231704D01*
X108448Y231718D01*
X108467Y231729D01*
X108720Y231944D01*
X165203Y288426D01*
X165220Y288447D01*
X165240Y288464D01*
X165347Y288602D01*
X165458Y288738D01*
X165470Y288761D01*
X165487Y288783D01*
X165565Y288939D01*
X165647Y289093D01*
X165654Y289119D01*
X165666Y289143D01*
X165712Y289312D01*
X165761Y289479D01*
X165764Y289506D01*
X165771Y289532D01*
X165798Y289863D01*
X165798Y292909D01*
X166417Y294402D01*
X175386Y303372D01*
X175397Y303386D01*
X175411Y303397D01*
X175525Y303541D01*
X175641Y303683D01*
X175650Y303699D01*
X175661Y303713D01*
X175744Y303877D01*
X175830Y304039D01*
X175835Y304056D01*
X175843Y304072D01*
X175892Y304249D01*
X175945Y304425D01*
X175946Y304443D01*
X175951Y304460D01*
X175964Y304643D01*
X175981Y304826D01*
X175979Y304844D01*
X175980Y304862D01*
X175957Y305044D01*
X175938Y305226D01*
X175932Y305243D01*
X175930Y305261D01*
X175872Y305435D01*
X175816Y305610D01*
X175807Y305626D01*
X175802Y305643D01*
X175710Y305802D01*
X175621Y305962D01*
X175610Y305976D01*
X175601Y305992D01*
X175386Y306245D01*
X174266Y307364D01*
X172719Y311099D01*
X172719Y315141D01*
X174266Y318876D01*
X177124Y321734D01*
X180859Y323281D01*
X184404Y323281D01*
X184422Y323283D01*
X184440Y323281D01*
X184622Y323302D01*
X184805Y323321D01*
X184822Y323326D01*
X184839Y323328D01*
X185014Y323385D01*
X185190Y323439D01*
X185205Y323447D01*
X185222Y323453D01*
X185382Y323543D01*
X185544Y323631D01*
X185557Y323642D01*
X185573Y323651D01*
X185712Y323771D01*
X185853Y323888D01*
X185864Y323902D01*
X185878Y323914D01*
X185990Y324059D01*
X186105Y324202D01*
X186113Y324218D01*
X186124Y324232D01*
X186206Y324397D01*
X186291Y324559D01*
X186296Y324576D01*
X186304Y324592D01*
X186351Y324771D01*
X186402Y324946D01*
X186404Y324964D01*
X186408Y324981D01*
X186435Y325312D01*
X186435Y367843D01*
X186433Y367870D01*
X186435Y367897D01*
X186413Y368071D01*
X186395Y368244D01*
X186388Y368269D01*
X186384Y368296D01*
X186329Y368462D01*
X186277Y368629D01*
X186264Y368652D01*
X186256Y368678D01*
X186169Y368829D01*
X186085Y368983D01*
X186068Y369003D01*
X186055Y369027D01*
X185840Y369280D01*
X185439Y369681D01*
X184530Y371875D01*
X184530Y374250D01*
X185439Y376444D01*
X187118Y378123D01*
X189312Y379032D01*
X191688Y379032D01*
X193882Y378123D01*
X195561Y376444D01*
X196470Y374250D01*
X196470Y371875D01*
X195561Y369681D01*
X195160Y369280D01*
X195143Y369259D01*
X195122Y369241D01*
X195015Y369104D01*
X194905Y368968D01*
X194892Y368945D01*
X194876Y368923D01*
X194798Y368766D01*
X194716Y368612D01*
X194708Y368587D01*
X194696Y368563D01*
X194651Y368393D01*
X194601Y368227D01*
X194599Y368200D01*
X194592Y368174D01*
X194565Y367843D01*
X194565Y325312D01*
X194567Y325294D01*
X194565Y325276D01*
X194586Y325094D01*
X194605Y324911D01*
X194610Y324894D01*
X194612Y324877D01*
X194669Y324702D01*
X194723Y324526D01*
X194731Y324511D01*
X194737Y324494D01*
X194827Y324334D01*
X194915Y324172D01*
X194926Y324159D01*
X194935Y324143D01*
X195055Y324004D01*
X195172Y323863D01*
X195186Y323852D01*
X195198Y323838D01*
X195343Y323726D01*
X195486Y323611D01*
X195502Y323603D01*
X195516Y323592D01*
X195681Y323510D01*
X195843Y323425D01*
X195860Y323420D01*
X195876Y323412D01*
X196055Y323365D01*
X196230Y323314D01*
X196248Y323312D01*
X196265Y323308D01*
X196596Y323281D01*
X200141Y323281D01*
X203876Y321734D01*
X206734Y318876D01*
X207927Y315994D01*
X207929Y315990D01*
X207931Y315986D01*
X208025Y315813D01*
X208118Y315639D01*
X208120Y315636D01*
X208123Y315632D01*
X208247Y315483D01*
X208374Y315329D01*
X208377Y315326D01*
X208380Y315323D01*
X208533Y315200D01*
X208687Y315075D01*
X208691Y315073D01*
X208694Y315070D01*
X208869Y314980D01*
X209043Y314888D01*
X209047Y314887D01*
X209051Y314885D01*
X209241Y314830D01*
X209430Y314775D01*
X209434Y314775D01*
X209438Y314773D01*
X209636Y314757D01*
X209831Y314740D01*
X209835Y314741D01*
X209840Y314740D01*
X210037Y314764D01*
X210231Y314786D01*
X210235Y314787D01*
X210239Y314787D01*
X210428Y314849D01*
X210614Y314909D01*
X210618Y314911D01*
X210622Y314912D01*
X210795Y315010D01*
X210966Y315105D01*
X210969Y315108D01*
X210973Y315110D01*
X211120Y315237D01*
X211271Y315367D01*
X211274Y315370D01*
X211278Y315373D01*
X211396Y315526D01*
X211520Y315684D01*
X211522Y315688D01*
X211524Y315691D01*
X211611Y315866D01*
X211700Y316044D01*
X211702Y316048D01*
X211704Y316052D01*
X211755Y316245D01*
X211807Y316432D01*
X211807Y316436D01*
X211808Y316441D01*
X211835Y316771D01*
X211835Y434518D01*
X211833Y434545D01*
X211835Y434572D01*
X211813Y434746D01*
X211795Y434919D01*
X211788Y434944D01*
X211784Y434971D01*
X211729Y435137D01*
X211677Y435304D01*
X211664Y435327D01*
X211656Y435353D01*
X211569Y435504D01*
X211485Y435658D01*
X211468Y435678D01*
X211455Y435702D01*
X211240Y435955D01*
X210839Y436356D01*
X209930Y438550D01*
X209930Y440925D01*
X210839Y443119D01*
X212572Y444852D01*
X212670Y444904D01*
X212681Y444913D01*
X212692Y444919D01*
X212835Y445041D01*
X212980Y445161D01*
X212989Y445171D01*
X212999Y445180D01*
X213116Y445327D01*
X213234Y445473D01*
X213241Y445485D01*
X213249Y445496D01*
X213334Y445663D01*
X213421Y445830D01*
X213425Y445843D01*
X213431Y445855D01*
X213482Y446036D01*
X213534Y446216D01*
X213536Y446230D01*
X213539Y446243D01*
X213553Y446431D01*
X213569Y446617D01*
X213568Y446631D01*
X213569Y446644D01*
X213545Y446832D01*
X213524Y447017D01*
X213520Y447030D01*
X213518Y447044D01*
X213459Y447221D01*
X213401Y447401D01*
X213394Y447413D01*
X213390Y447425D01*
X213296Y447588D01*
X213205Y447752D01*
X213196Y447763D01*
X213189Y447774D01*
X212974Y448027D01*
X197666Y463335D01*
X197646Y463352D01*
X197628Y463373D01*
X197490Y463480D01*
X197355Y463590D01*
X197331Y463603D01*
X197310Y463619D01*
X197153Y463697D01*
X196999Y463779D01*
X196974Y463787D01*
X196949Y463799D01*
X196780Y463844D01*
X196613Y463894D01*
X196587Y463896D01*
X196561Y463903D01*
X196230Y463930D01*
X195662Y463930D01*
X193468Y464839D01*
X191789Y466518D01*
X190880Y468712D01*
X190880Y471088D01*
X191789Y473282D01*
X193468Y474961D01*
X195662Y475870D01*
X198038Y475870D01*
X200232Y474961D01*
X201911Y473282D01*
X202820Y471088D01*
X202820Y470520D01*
X202822Y470493D01*
X202820Y470467D01*
X202842Y470293D01*
X202860Y470119D01*
X202867Y470094D01*
X202871Y470067D01*
X202926Y469902D01*
X202978Y469735D01*
X202991Y469711D01*
X202999Y469686D01*
X203086Y469534D01*
X203170Y469380D01*
X203187Y469360D01*
X203200Y469337D01*
X203415Y469084D01*
X243158Y429340D01*
X243777Y427846D01*
X243777Y409535D01*
X243779Y409522D01*
X243777Y409508D01*
X243799Y409321D01*
X243817Y409134D01*
X243821Y409122D01*
X243823Y409108D01*
X243880Y408929D01*
X243935Y408749D01*
X243942Y408738D01*
X243946Y408725D01*
X244038Y408560D01*
X244127Y408395D01*
X244136Y408385D01*
X244142Y408373D01*
X244265Y408230D01*
X244385Y408086D01*
X244395Y408078D01*
X244404Y408067D01*
X244553Y407951D01*
X244699Y407834D01*
X244710Y407828D01*
X244721Y407819D01*
X244890Y407734D01*
X245056Y407648D01*
X245069Y407645D01*
X245081Y407639D01*
X245262Y407589D01*
X245443Y407537D01*
X245456Y407536D01*
X245469Y407532D01*
X245656Y407519D01*
X245844Y407504D01*
X245857Y407506D01*
X245871Y407505D01*
X246057Y407529D01*
X246244Y407551D01*
X246257Y407555D01*
X246270Y407557D01*
X246427Y407607D01*
X248838Y407607D01*
X251032Y406698D01*
X252711Y405019D01*
X253620Y402825D01*
X253620Y402258D01*
X253622Y402231D01*
X253620Y402204D01*
X253642Y402030D01*
X253660Y401857D01*
X253667Y401831D01*
X253671Y401805D01*
X253727Y401639D01*
X253778Y401472D01*
X253791Y401448D01*
X253799Y401423D01*
X253886Y401271D01*
X253970Y401118D01*
X253987Y401098D01*
X254000Y401074D01*
X254215Y400821D01*
X257446Y397590D01*
X258065Y396096D01*
X258065Y321432D01*
X258067Y321414D01*
X258065Y321396D01*
X258086Y321214D01*
X258105Y321031D01*
X258110Y321014D01*
X258112Y320997D01*
X258169Y320822D01*
X258223Y320646D01*
X258231Y320631D01*
X258237Y320614D01*
X258327Y320454D01*
X258415Y320292D01*
X258426Y320279D01*
X258435Y320263D01*
X258555Y320124D01*
X258672Y319983D01*
X258686Y319972D01*
X258698Y319958D01*
X258843Y319846D01*
X258986Y319731D01*
X259002Y319723D01*
X259016Y319712D01*
X259181Y319630D01*
X259343Y319545D01*
X259360Y319540D01*
X259376Y319532D01*
X259555Y319485D01*
X259730Y319434D01*
X259748Y319432D01*
X259765Y319428D01*
X260096Y319401D01*
X264067Y319401D01*
X265556Y317912D01*
X265556Y299808D01*
X264067Y298319D01*
X245808Y298319D01*
X245791Y298317D01*
X245773Y298319D01*
X245591Y298298D01*
X245408Y298279D01*
X245391Y298274D01*
X245373Y298272D01*
X245199Y298215D01*
X245023Y298161D01*
X245007Y298153D01*
X244990Y298147D01*
X244830Y298057D01*
X244669Y297969D01*
X244655Y297958D01*
X244640Y297949D01*
X244500Y297829D01*
X244360Y297712D01*
X244348Y297698D01*
X244335Y297686D01*
X244222Y297541D01*
X244107Y297398D01*
X244099Y297382D01*
X244088Y297368D01*
X244006Y297203D01*
X243922Y297041D01*
X243917Y297024D01*
X243909Y297008D01*
X243861Y296829D01*
X243810Y296654D01*
X243809Y296636D01*
X243804Y296619D01*
X243777Y296288D01*
X243777Y292992D01*
X243779Y292974D01*
X243778Y292956D01*
X243799Y292774D01*
X243817Y292591D01*
X243822Y292574D01*
X243824Y292557D01*
X243881Y292382D01*
X243935Y292206D01*
X243944Y292191D01*
X243949Y292174D01*
X244040Y292014D01*
X244127Y291852D01*
X244138Y291839D01*
X244147Y291823D01*
X244267Y291684D01*
X244385Y291543D01*
X244399Y291532D01*
X244410Y291518D01*
X244555Y291406D01*
X244699Y291291D01*
X244714Y291283D01*
X244728Y291272D01*
X244893Y291190D01*
X245056Y291105D01*
X245073Y291100D01*
X245089Y291092D01*
X245267Y291045D01*
X245443Y290994D01*
X245461Y290992D01*
X245478Y290988D01*
X245808Y290961D01*
X264067Y290961D01*
X265556Y289472D01*
X265556Y271368D01*
X264067Y269879D01*
X260096Y269879D01*
X260078Y269877D01*
X260060Y269879D01*
X259878Y269858D01*
X259695Y269839D01*
X259678Y269834D01*
X259661Y269832D01*
X259486Y269775D01*
X259310Y269721D01*
X259295Y269713D01*
X259278Y269707D01*
X259118Y269617D01*
X258956Y269529D01*
X258943Y269518D01*
X258927Y269509D01*
X258788Y269389D01*
X258647Y269272D01*
X258636Y269258D01*
X258622Y269246D01*
X258510Y269101D01*
X258395Y268958D01*
X258387Y268942D01*
X258376Y268928D01*
X258294Y268763D01*
X258209Y268601D01*
X258204Y268584D01*
X258196Y268568D01*
X258149Y268389D01*
X258098Y268214D01*
X258096Y268196D01*
X258092Y268179D01*
X258065Y267848D01*
X258065Y193025D01*
X258067Y192998D01*
X258065Y192972D01*
X258087Y192798D01*
X258105Y192624D01*
X258112Y192599D01*
X258116Y192572D01*
X258171Y192407D01*
X258223Y192239D01*
X258236Y192216D01*
X258244Y192191D01*
X258331Y192039D01*
X258415Y191885D01*
X258432Y191865D01*
X258445Y191842D01*
X258660Y191589D01*
X406593Y43656D01*
X406613Y43639D01*
X406631Y43618D01*
X406769Y43511D01*
X406904Y43401D01*
X406928Y43388D01*
X406949Y43372D01*
X407106Y43294D01*
X407260Y43212D01*
X407285Y43204D01*
X407310Y43192D01*
X407479Y43147D01*
X407646Y43097D01*
X407672Y43095D01*
X407698Y43088D01*
X408029Y43061D01*
X420312Y43061D01*
X421801Y41572D01*
X421801Y24468D01*
X420312Y22979D01*
X403208Y22979D01*
X401719Y24468D01*
X401719Y36191D01*
X401717Y36218D01*
X401719Y36244D01*
X401697Y36418D01*
X401679Y36592D01*
X401672Y36617D01*
X401668Y36644D01*
X401613Y36809D01*
X401561Y36977D01*
X401548Y37000D01*
X401540Y37025D01*
X401453Y37177D01*
X401369Y37331D01*
X401352Y37351D01*
X401339Y37374D01*
X401124Y37627D01*
X251983Y186768D01*
X251983Y186769D01*
X250554Y188198D01*
X249935Y189691D01*
X249935Y267848D01*
X249933Y267866D01*
X249935Y267884D01*
X249914Y268066D01*
X249895Y268249D01*
X249890Y268266D01*
X249888Y268283D01*
X249831Y268458D01*
X249777Y268634D01*
X249769Y268649D01*
X249763Y268666D01*
X249673Y268826D01*
X249585Y268988D01*
X249574Y269001D01*
X249565Y269017D01*
X249445Y269156D01*
X249328Y269297D01*
X249314Y269308D01*
X249302Y269322D01*
X249157Y269434D01*
X249014Y269549D01*
X248998Y269557D01*
X248984Y269568D01*
X248819Y269650D01*
X248657Y269735D01*
X248640Y269740D01*
X248624Y269748D01*
X248445Y269795D01*
X248270Y269846D01*
X248252Y269848D01*
X248235Y269852D01*
X247904Y269879D01*
X245808Y269879D01*
X245791Y269877D01*
X245773Y269879D01*
X245591Y269858D01*
X245408Y269839D01*
X245391Y269834D01*
X245373Y269832D01*
X245199Y269775D01*
X245023Y269721D01*
X245007Y269713D01*
X244990Y269707D01*
X244830Y269617D01*
X244669Y269529D01*
X244655Y269518D01*
X244640Y269509D01*
X244500Y269389D01*
X244360Y269272D01*
X244348Y269258D01*
X244335Y269246D01*
X244222Y269101D01*
X244107Y268958D01*
X244099Y268942D01*
X244088Y268928D01*
X244006Y268763D01*
X243922Y268601D01*
X243917Y268584D01*
X243909Y268568D01*
X243861Y268389D01*
X243810Y268214D01*
X243809Y268196D01*
X243804Y268179D01*
X243777Y267848D01*
X243777Y252869D01*
X243780Y252843D01*
X243778Y252816D01*
X243800Y252642D01*
X243817Y252469D01*
X243825Y252443D01*
X243828Y252416D01*
X243884Y252251D01*
X243935Y252084D01*
X243948Y252060D01*
X243957Y252035D01*
X244044Y251883D01*
X244127Y251730D01*
X244144Y251709D01*
X244157Y251686D01*
X244372Y251433D01*
X244773Y251032D01*
X245682Y248838D01*
X245682Y246462D01*
X244773Y244268D01*
X243094Y242589D01*
X240900Y241680D01*
X238525Y241680D01*
X236331Y242589D01*
X234652Y244268D01*
X233743Y246462D01*
X233743Y248838D01*
X234652Y251032D01*
X235053Y251433D01*
X235070Y251454D01*
X235090Y251471D01*
X235197Y251609D01*
X235308Y251744D01*
X235320Y251768D01*
X235337Y251789D01*
X235415Y251946D01*
X235497Y252100D01*
X235504Y252126D01*
X235516Y252150D01*
X235562Y252319D01*
X235611Y252486D01*
X235614Y252513D01*
X235621Y252538D01*
X235648Y252869D01*
X235648Y258803D01*
X235646Y258816D01*
X235648Y258829D01*
X235627Y259016D01*
X235608Y259203D01*
X235604Y259216D01*
X235602Y259229D01*
X235545Y259409D01*
X235490Y259588D01*
X235483Y259600D01*
X235479Y259613D01*
X235388Y259777D01*
X235298Y259942D01*
X235289Y259952D01*
X235283Y259964D01*
X235160Y260108D01*
X235040Y260251D01*
X235030Y260260D01*
X235021Y260270D01*
X234872Y260387D01*
X234726Y260504D01*
X234715Y260510D01*
X234704Y260518D01*
X234535Y260603D01*
X234369Y260689D01*
X234356Y260693D01*
X234344Y260699D01*
X234163Y260749D01*
X233982Y260801D01*
X233969Y260802D01*
X233956Y260805D01*
X233769Y260818D01*
X233581Y260834D01*
X233568Y260832D01*
X233554Y260833D01*
X233368Y260809D01*
X233181Y260787D01*
X233168Y260782D01*
X233155Y260781D01*
X232998Y260730D01*
X230587Y260730D01*
X228393Y261639D01*
X226714Y263318D01*
X225805Y265512D01*
X225805Y266080D01*
X225803Y266107D01*
X225805Y266133D01*
X225783Y266307D01*
X225765Y266481D01*
X225758Y266506D01*
X225754Y266533D01*
X225699Y266698D01*
X225647Y266865D01*
X225634Y266889D01*
X225626Y266914D01*
X225539Y267066D01*
X225455Y267220D01*
X225438Y267240D01*
X225425Y267263D01*
X225210Y267516D01*
X212454Y280273D01*
X211835Y281766D01*
X211835Y284226D01*
X211827Y284310D01*
X211828Y284394D01*
X211807Y284510D01*
X211795Y284626D01*
X211771Y284707D01*
X211755Y284790D01*
X211712Y284899D01*
X211677Y285011D01*
X211637Y285085D01*
X211606Y285164D01*
X211541Y285262D01*
X211485Y285365D01*
X211431Y285430D01*
X211385Y285501D01*
X211303Y285584D01*
X211228Y285674D01*
X211162Y285727D01*
X211103Y285787D01*
X211006Y285853D01*
X210914Y285927D01*
X210839Y285966D01*
X210769Y286013D01*
X210661Y286058D01*
X210557Y286112D01*
X210476Y286136D01*
X210398Y286168D01*
X210283Y286191D01*
X210170Y286224D01*
X210086Y286231D01*
X210003Y286247D01*
X209885Y286247D01*
X209768Y286257D01*
X209685Y286247D01*
X209600Y286247D01*
X209485Y286223D01*
X209369Y286210D01*
X209288Y286184D01*
X209206Y286167D01*
X209098Y286121D01*
X208986Y286085D01*
X208912Y286043D01*
X208835Y286011D01*
X208737Y285945D01*
X208635Y285887D01*
X208571Y285832D01*
X208502Y285784D01*
X208419Y285700D01*
X208331Y285624D01*
X208279Y285557D01*
X208220Y285497D01*
X208156Y285398D01*
X208084Y285306D01*
X208046Y285230D01*
X208000Y285159D01*
X207943Y285022D01*
X207904Y284945D01*
X207893Y284904D01*
X207872Y284853D01*
X207536Y283820D01*
X206810Y282395D01*
X205870Y281101D01*
X204739Y279970D01*
X203445Y279030D01*
X202020Y278304D01*
X200499Y277809D01*
X198920Y277559D01*
X193039Y277559D01*
X193039Y287212D01*
X193037Y287230D01*
X193039Y287247D01*
X193018Y287430D01*
X192999Y287612D01*
X192994Y287629D01*
X192992Y287647D01*
X192967Y287725D01*
X193006Y287862D01*
X193008Y287880D01*
X193012Y287897D01*
X193039Y288228D01*
X193039Y297881D01*
X198920Y297881D01*
X200499Y297631D01*
X202020Y297136D01*
X203445Y296410D01*
X204739Y295470D01*
X205870Y294339D01*
X206810Y293045D01*
X207536Y291620D01*
X207872Y290587D01*
X207906Y290509D01*
X207931Y290429D01*
X207987Y290325D01*
X208034Y290218D01*
X208082Y290149D01*
X208123Y290075D01*
X208198Y289985D01*
X208265Y289888D01*
X208326Y289830D01*
X208380Y289766D01*
X208472Y289692D01*
X208557Y289611D01*
X208628Y289566D01*
X208694Y289513D01*
X208798Y289459D01*
X208898Y289396D01*
X208977Y289366D01*
X209051Y289328D01*
X209164Y289295D01*
X209274Y289253D01*
X209357Y289240D01*
X209438Y289216D01*
X209555Y289207D01*
X209671Y289187D01*
X209755Y289190D01*
X209840Y289183D01*
X209956Y289197D01*
X210074Y289201D01*
X210156Y289220D01*
X210239Y289230D01*
X210351Y289267D01*
X210465Y289294D01*
X210542Y289329D01*
X210622Y289355D01*
X210725Y289413D01*
X210831Y289462D01*
X210899Y289512D01*
X210973Y289553D01*
X211062Y289630D01*
X211157Y289699D01*
X211214Y289761D01*
X211278Y289816D01*
X211349Y289909D01*
X211429Y289995D01*
X211473Y290068D01*
X211524Y290134D01*
X211577Y290239D01*
X211637Y290340D01*
X211666Y290419D01*
X211704Y290495D01*
X211734Y290608D01*
X211774Y290719D01*
X211786Y290802D01*
X211808Y290884D01*
X211820Y291032D01*
X211833Y291117D01*
X211831Y291159D01*
X211835Y291214D01*
X211835Y309469D01*
X211835Y309473D01*
X211835Y309477D01*
X211815Y309671D01*
X211795Y309869D01*
X211794Y309874D01*
X211794Y309878D01*
X211736Y310064D01*
X211677Y310254D01*
X211675Y310258D01*
X211674Y310262D01*
X211580Y310434D01*
X211485Y310608D01*
X211483Y310612D01*
X211480Y310615D01*
X211353Y310767D01*
X211228Y310917D01*
X211224Y310920D01*
X211221Y310924D01*
X211068Y311046D01*
X210914Y311170D01*
X210910Y311172D01*
X210907Y311175D01*
X210732Y311264D01*
X210557Y311355D01*
X210552Y311356D01*
X210548Y311359D01*
X210361Y311412D01*
X210170Y311467D01*
X210165Y311467D01*
X210161Y311468D01*
X209968Y311483D01*
X209768Y311500D01*
X209764Y311499D01*
X209760Y311499D01*
X209567Y311476D01*
X209369Y311453D01*
X209364Y311451D01*
X209360Y311451D01*
X209177Y311390D01*
X208986Y311328D01*
X208982Y311326D01*
X208978Y311324D01*
X208809Y311228D01*
X208635Y311130D01*
X208632Y311127D01*
X208628Y311125D01*
X208479Y310995D01*
X208331Y310867D01*
X208328Y310863D01*
X208324Y310860D01*
X208204Y310703D01*
X208084Y310549D01*
X208082Y310545D01*
X208079Y310541D01*
X207927Y310246D01*
X206734Y307364D01*
X203876Y304506D01*
X200141Y302959D01*
X187312Y302959D01*
X187285Y302957D01*
X187258Y302959D01*
X187084Y302937D01*
X186911Y302919D01*
X186885Y302912D01*
X186859Y302908D01*
X186693Y302853D01*
X186526Y302801D01*
X186502Y302788D01*
X186477Y302780D01*
X186325Y302693D01*
X186172Y302609D01*
X186151Y302592D01*
X186128Y302579D01*
X185875Y302364D01*
X184859Y301348D01*
X184853Y301341D01*
X184847Y301336D01*
X184726Y301186D01*
X184604Y301037D01*
X184600Y301029D01*
X184594Y301022D01*
X184504Y300848D01*
X184415Y300681D01*
X184413Y300673D01*
X184409Y300665D01*
X184356Y300479D01*
X184301Y300295D01*
X184300Y300286D01*
X184297Y300278D01*
X184282Y300086D01*
X184264Y299894D01*
X184265Y299885D01*
X184265Y299876D01*
X184287Y299687D01*
X184308Y299494D01*
X184310Y299485D01*
X184311Y299477D01*
X184371Y299295D01*
X184429Y299110D01*
X184434Y299102D01*
X184436Y299094D01*
X184532Y298924D01*
X184624Y298758D01*
X184630Y298751D01*
X184634Y298743D01*
X184760Y298597D01*
X184885Y298451D01*
X184892Y298445D01*
X184897Y298438D01*
X185049Y298321D01*
X185200Y298201D01*
X185208Y298197D01*
X185215Y298192D01*
X185388Y298106D01*
X185559Y298019D01*
X185568Y298016D01*
X185576Y298012D01*
X185762Y297962D01*
X185947Y297911D01*
X185956Y297910D01*
X185965Y297908D01*
X186295Y297881D01*
X187961Y297881D01*
X187961Y288228D01*
X187962Y288210D01*
X187961Y288193D01*
X187982Y288010D01*
X188001Y287828D01*
X188006Y287811D01*
X188008Y287793D01*
X188033Y287715D01*
X187994Y287578D01*
X187992Y287560D01*
X187988Y287543D01*
X187961Y287212D01*
X187961Y277559D01*
X182080Y277559D01*
X180501Y277809D01*
X178980Y278304D01*
X177555Y279030D01*
X176261Y279970D01*
X175130Y281101D01*
X174106Y282510D01*
X173988Y282643D01*
X173873Y282778D01*
X173854Y282793D01*
X173838Y282811D01*
X173696Y282918D01*
X173557Y283027D01*
X173536Y283038D01*
X173516Y283053D01*
X173356Y283130D01*
X173198Y283210D01*
X173175Y283216D01*
X173153Y283227D01*
X172981Y283270D01*
X172811Y283318D01*
X172786Y283319D01*
X172763Y283325D01*
X172586Y283334D01*
X172409Y283347D01*
X172385Y283344D01*
X172360Y283345D01*
X172186Y283319D01*
X172010Y283297D01*
X171987Y283289D01*
X171962Y283285D01*
X171795Y283225D01*
X171628Y283168D01*
X171607Y283156D01*
X171584Y283148D01*
X171433Y283056D01*
X171279Y282967D01*
X171258Y282950D01*
X171240Y282939D01*
X171180Y282883D01*
X171026Y282753D01*
X114156Y225882D01*
X114139Y225862D01*
X114118Y225844D01*
X114011Y225706D01*
X113901Y225571D01*
X113888Y225547D01*
X113872Y225526D01*
X113794Y225369D01*
X113712Y225215D01*
X113704Y225190D01*
X113692Y225165D01*
X113647Y224996D01*
X113597Y224829D01*
X113595Y224803D01*
X113588Y224777D01*
X113561Y224446D01*
X113561Y220274D01*
X112071Y216677D01*
X112067Y216664D01*
X112061Y216653D01*
X112009Y216473D01*
X111954Y216292D01*
X111953Y216279D01*
X111949Y216266D01*
X111934Y216078D01*
X111916Y215891D01*
X111918Y215878D01*
X111917Y215864D01*
X111939Y215677D01*
X111958Y215491D01*
X111962Y215478D01*
X111963Y215465D01*
X112022Y215285D01*
X112078Y215106D01*
X112084Y215095D01*
X112088Y215082D01*
X112181Y214917D01*
X112271Y214753D01*
X112280Y214743D01*
X112286Y214731D01*
X112409Y214589D01*
X112530Y214445D01*
X112541Y214437D01*
X112549Y214427D01*
X112698Y214311D01*
X112845Y214194D01*
X112857Y214188D01*
X112867Y214180D01*
X113036Y214096D01*
X113203Y214010D01*
X113216Y214006D01*
X113228Y214000D01*
X113411Y213951D01*
X113590Y213900D01*
X113604Y213899D01*
X113617Y213896D01*
X113947Y213869D01*
X174158Y213869D01*
X174204Y213873D01*
X174267Y213872D01*
X178474Y214098D01*
X182526Y213735D01*
X186486Y212800D01*
X190272Y211311D01*
X193807Y209298D01*
X197021Y206802D01*
X199846Y203875D01*
X202226Y200575D01*
X204112Y196971D01*
X205465Y193134D01*
X206249Y189198D01*
X206249Y4592D01*
X206251Y4574D01*
X206249Y4556D01*
X206270Y4374D01*
X206289Y4191D01*
X206294Y4174D01*
X206296Y4157D01*
X206353Y3982D01*
X206407Y3806D01*
X206415Y3791D01*
X206421Y3774D01*
X206511Y3614D01*
X206599Y3452D01*
X206610Y3439D01*
X206619Y3423D01*
X206739Y3284D01*
X206856Y3143D01*
X206870Y3132D01*
X206882Y3118D01*
X207027Y3006D01*
X207170Y2891D01*
X207186Y2883D01*
X207200Y2872D01*
X207365Y2790D01*
X207527Y2705D01*
X207544Y2700D01*
X207561Y2692D01*
X207739Y2645D01*
X207914Y2594D01*
X207932Y2592D01*
X207949Y2588D01*
X208280Y2561D01*
X440153Y2561D01*
X440161Y2562D01*
G37*
%LPC*%
G36*
X460848Y71299D02*
X460848Y71299D01*
X459359Y72788D01*
X459359Y97892D01*
X460848Y99381D01*
X463804Y99381D01*
X463822Y99383D01*
X463840Y99381D01*
X464022Y99402D01*
X464205Y99421D01*
X464222Y99426D01*
X464239Y99428D01*
X464414Y99485D01*
X464590Y99539D01*
X464605Y99547D01*
X464622Y99553D01*
X464782Y99643D01*
X464944Y99731D01*
X464957Y99742D01*
X464973Y99751D01*
X465112Y99871D01*
X465253Y99988D01*
X465264Y100002D01*
X465278Y100014D01*
X465390Y100159D01*
X465505Y100302D01*
X465513Y100318D01*
X465524Y100332D01*
X465606Y100497D01*
X465691Y100659D01*
X465696Y100676D01*
X465704Y100692D01*
X465751Y100871D01*
X465802Y101046D01*
X465804Y101064D01*
X465808Y101081D01*
X465835Y101412D01*
X465835Y102408D01*
X465832Y102439D01*
X465834Y102478D01*
X465808Y103254D01*
X466105Y103972D01*
X466114Y104001D01*
X466130Y104036D01*
X466403Y104764D01*
X466952Y105313D01*
X466971Y105337D01*
X467000Y105363D01*
X482434Y121890D01*
X482552Y122045D01*
X482669Y122196D01*
X482673Y122203D01*
X482678Y122210D01*
X482763Y122384D01*
X482849Y122557D01*
X482851Y122565D01*
X482854Y122572D01*
X482903Y122758D01*
X482953Y122946D01*
X482954Y122954D01*
X482956Y122961D01*
X482959Y123011D01*
X482980Y123276D01*
X482980Y133423D01*
X482979Y133432D01*
X482980Y133441D01*
X482959Y133632D01*
X482940Y133824D01*
X482938Y133832D01*
X482937Y133841D01*
X482879Y134025D01*
X482822Y134209D01*
X482818Y134217D01*
X482815Y134225D01*
X482722Y134394D01*
X482630Y134563D01*
X482625Y134570D01*
X482620Y134578D01*
X482495Y134726D01*
X482373Y134872D01*
X482366Y134878D01*
X482360Y134885D01*
X482208Y135005D01*
X482059Y135124D01*
X482051Y135129D01*
X482044Y135134D01*
X481872Y135221D01*
X481702Y135310D01*
X481693Y135312D01*
X481685Y135316D01*
X481501Y135368D01*
X481315Y135421D01*
X481306Y135422D01*
X481297Y135424D01*
X481107Y135438D01*
X480913Y135454D01*
X480904Y135453D01*
X480896Y135454D01*
X480705Y135430D01*
X480514Y135407D01*
X480505Y135405D01*
X480496Y135403D01*
X480313Y135342D01*
X480131Y135282D01*
X480123Y135278D01*
X480114Y135275D01*
X479948Y135179D01*
X479780Y135085D01*
X479773Y135079D01*
X479766Y135074D01*
X479513Y134859D01*
X479460Y134807D01*
X478881Y134472D01*
X478235Y134299D01*
X473899Y134299D01*
X473899Y146372D01*
X473897Y146390D01*
X473899Y146407D01*
X473878Y146590D01*
X473859Y146772D01*
X473854Y146789D01*
X473852Y146807D01*
X473795Y146982D01*
X473741Y147157D01*
X473733Y147173D01*
X473727Y147190D01*
X473637Y147350D01*
X473549Y147511D01*
X473538Y147525D01*
X473529Y147541D01*
X473409Y147680D01*
X473292Y147821D01*
X473278Y147832D01*
X473266Y147845D01*
X473121Y147958D01*
X472978Y148073D01*
X472962Y148081D01*
X472948Y148092D01*
X472783Y148174D01*
X472621Y148258D01*
X472604Y148263D01*
X472588Y148271D01*
X472409Y148319D01*
X472234Y148370D01*
X472216Y148371D01*
X472199Y148376D01*
X471868Y148403D01*
X469963Y148403D01*
X469963Y150308D01*
X469961Y150326D01*
X469963Y150344D01*
X469941Y150526D01*
X469923Y150709D01*
X469918Y150726D01*
X469916Y150743D01*
X469859Y150918D01*
X469805Y151094D01*
X469797Y151109D01*
X469791Y151126D01*
X469701Y151286D01*
X469613Y151448D01*
X469602Y151461D01*
X469593Y151477D01*
X469473Y151616D01*
X469355Y151757D01*
X469342Y151768D01*
X469330Y151782D01*
X469185Y151894D01*
X469042Y152009D01*
X469026Y152017D01*
X469012Y152028D01*
X468847Y152110D01*
X468684Y152195D01*
X468667Y152200D01*
X468651Y152208D01*
X468473Y152255D01*
X468298Y152306D01*
X468280Y152308D01*
X468263Y152312D01*
X467932Y152339D01*
X459359Y152339D01*
X459359Y160175D01*
X459532Y160821D01*
X459867Y161400D01*
X460162Y161695D01*
X460168Y161702D01*
X460175Y161708D01*
X460296Y161859D01*
X460417Y162007D01*
X460421Y162015D01*
X460427Y162022D01*
X460515Y162192D01*
X460606Y162362D01*
X460608Y162371D01*
X460612Y162379D01*
X460666Y162564D01*
X460721Y162748D01*
X460721Y162757D01*
X460724Y162766D01*
X460740Y162958D01*
X460757Y163149D01*
X460756Y163158D01*
X460757Y163167D01*
X460734Y163357D01*
X460714Y163549D01*
X460711Y163558D01*
X460710Y163567D01*
X460650Y163750D01*
X460592Y163933D01*
X460588Y163941D01*
X460585Y163950D01*
X460490Y164118D01*
X460397Y164286D01*
X460391Y164293D01*
X460387Y164300D01*
X460261Y164446D01*
X460137Y164593D01*
X460130Y164598D01*
X460124Y164605D01*
X459973Y164722D01*
X459821Y164842D01*
X459813Y164846D01*
X459806Y164852D01*
X459634Y164937D01*
X459462Y165025D01*
X459453Y165027D01*
X459445Y165031D01*
X459257Y165082D01*
X459074Y165133D01*
X459065Y165133D01*
X459056Y165136D01*
X458726Y165163D01*
X453693Y165163D01*
X453666Y165160D01*
X453639Y165162D01*
X453465Y165140D01*
X453292Y165123D01*
X453266Y165115D01*
X453240Y165112D01*
X453074Y165056D01*
X452907Y165005D01*
X452883Y164992D01*
X452858Y164983D01*
X452706Y164896D01*
X452553Y164813D01*
X452533Y164796D01*
X452509Y164783D01*
X452256Y164568D01*
X446937Y159249D01*
X446920Y159228D01*
X446900Y159211D01*
X446793Y159073D01*
X446682Y158937D01*
X446670Y158914D01*
X446653Y158892D01*
X446575Y158736D01*
X446493Y158582D01*
X446486Y158556D01*
X446474Y158532D01*
X446428Y158363D01*
X446379Y158196D01*
X446376Y158169D01*
X446369Y158143D01*
X446342Y157812D01*
X446342Y137939D01*
X445723Y136445D01*
X433791Y124512D01*
X433774Y124492D01*
X433753Y124474D01*
X433646Y124336D01*
X433536Y124201D01*
X433523Y124177D01*
X433507Y124156D01*
X433429Y123999D01*
X433347Y123845D01*
X433339Y123820D01*
X433327Y123795D01*
X433282Y123626D01*
X433232Y123459D01*
X433230Y123433D01*
X433223Y123407D01*
X433196Y123076D01*
X433196Y118968D01*
X431707Y117479D01*
X420620Y117479D01*
X420618Y117479D01*
X420616Y117479D01*
X420511Y117469D01*
X420380Y117479D01*
X411573Y117479D01*
X410084Y118968D01*
X410084Y137363D01*
X410082Y137390D01*
X410084Y137417D01*
X410062Y137591D01*
X410044Y137764D01*
X410037Y137790D01*
X410033Y137816D01*
X409978Y137982D01*
X409926Y138149D01*
X409913Y138173D01*
X409905Y138198D01*
X409818Y138350D01*
X409734Y138503D01*
X409717Y138524D01*
X409704Y138547D01*
X409489Y138800D01*
X385492Y162798D01*
X384873Y164291D01*
X384873Y249278D01*
X384871Y249291D01*
X384873Y249304D01*
X384852Y249491D01*
X384833Y249678D01*
X384829Y249691D01*
X384827Y249704D01*
X384770Y249884D01*
X384715Y250063D01*
X384708Y250075D01*
X384704Y250088D01*
X384612Y250252D01*
X384523Y250417D01*
X384514Y250427D01*
X384508Y250439D01*
X384385Y250583D01*
X384265Y250726D01*
X384255Y250735D01*
X384246Y250745D01*
X384097Y250862D01*
X383951Y250979D01*
X383940Y250985D01*
X383929Y250993D01*
X383760Y251078D01*
X383594Y251164D01*
X383581Y251168D01*
X383569Y251174D01*
X383388Y251224D01*
X383207Y251276D01*
X383194Y251277D01*
X383181Y251280D01*
X382994Y251293D01*
X382806Y251309D01*
X382793Y251307D01*
X382779Y251308D01*
X382593Y251284D01*
X382406Y251262D01*
X382393Y251257D01*
X382380Y251256D01*
X382223Y251205D01*
X379812Y251205D01*
X377618Y252114D01*
X375939Y253793D01*
X375030Y255987D01*
X375030Y256555D01*
X375028Y256582D01*
X375030Y256608D01*
X375008Y256782D01*
X374990Y256956D01*
X374983Y256981D01*
X374979Y257008D01*
X374924Y257173D01*
X374872Y257340D01*
X374859Y257364D01*
X374851Y257389D01*
X374764Y257541D01*
X374680Y257695D01*
X374663Y257715D01*
X374650Y257738D01*
X374435Y257991D01*
X312572Y319854D01*
X312565Y319860D01*
X312560Y319867D01*
X312410Y319987D01*
X312261Y320109D01*
X312253Y320114D01*
X312246Y320119D01*
X312075Y320208D01*
X311905Y320298D01*
X311897Y320301D01*
X311889Y320305D01*
X311703Y320358D01*
X311519Y320413D01*
X311510Y320414D01*
X311502Y320416D01*
X311310Y320432D01*
X311118Y320449D01*
X311109Y320448D01*
X311100Y320449D01*
X310911Y320427D01*
X310718Y320406D01*
X310709Y320403D01*
X310701Y320402D01*
X310519Y320343D01*
X310334Y320284D01*
X310326Y320280D01*
X310318Y320277D01*
X310149Y320182D01*
X309982Y320089D01*
X309975Y320084D01*
X309967Y320079D01*
X309821Y319953D01*
X309675Y319829D01*
X309669Y319822D01*
X309662Y319816D01*
X309545Y319665D01*
X309425Y319513D01*
X309421Y319505D01*
X309416Y319498D01*
X309330Y319326D01*
X309243Y319154D01*
X309240Y319146D01*
X309236Y319138D01*
X309186Y318951D01*
X309135Y318766D01*
X309134Y318757D01*
X309132Y318749D01*
X309105Y318418D01*
X309105Y315852D01*
X303748Y310495D01*
X296172Y310495D01*
X291695Y314973D01*
X291688Y314978D01*
X291682Y314985D01*
X291533Y315105D01*
X291383Y315228D01*
X291375Y315232D01*
X291368Y315237D01*
X291198Y315326D01*
X291028Y315416D01*
X291019Y315419D01*
X291011Y315423D01*
X290826Y315476D01*
X290642Y315531D01*
X290633Y315532D01*
X290624Y315534D01*
X290433Y315550D01*
X290241Y315568D01*
X290232Y315567D01*
X290223Y315567D01*
X290034Y315545D01*
X289840Y315524D01*
X289832Y315521D01*
X289823Y315520D01*
X289641Y315461D01*
X289457Y315403D01*
X289449Y315398D01*
X289440Y315396D01*
X289272Y315300D01*
X289104Y315208D01*
X289098Y315202D01*
X289090Y315198D01*
X288944Y315072D01*
X288797Y314947D01*
X288792Y314940D01*
X288785Y314934D01*
X288668Y314783D01*
X288548Y314631D01*
X288544Y314623D01*
X288538Y314616D01*
X288453Y314444D01*
X288365Y314272D01*
X288363Y314264D01*
X288359Y314256D01*
X288309Y314070D01*
X288257Y313885D01*
X288257Y313876D01*
X288254Y313867D01*
X288227Y313536D01*
X288227Y283844D01*
X288228Y283835D01*
X288227Y283826D01*
X288248Y283634D01*
X288267Y283443D01*
X288270Y283434D01*
X288271Y283426D01*
X288328Y283243D01*
X288385Y283058D01*
X288390Y283050D01*
X288392Y283042D01*
X288485Y282873D01*
X288577Y282704D01*
X288583Y282697D01*
X288587Y282689D01*
X288712Y282542D01*
X288835Y282395D01*
X288842Y282389D01*
X288848Y282382D01*
X288998Y282263D01*
X289149Y282143D01*
X289156Y282138D01*
X289163Y282133D01*
X289336Y282045D01*
X289506Y281957D01*
X289514Y281955D01*
X289522Y281950D01*
X289709Y281899D01*
X289893Y281846D01*
X289902Y281845D01*
X289910Y281842D01*
X290103Y281828D01*
X290294Y281813D01*
X290303Y281814D01*
X290312Y281813D01*
X290504Y281837D01*
X290694Y281860D01*
X290702Y281862D01*
X290711Y281864D01*
X290894Y281925D01*
X291077Y281984D01*
X291085Y281989D01*
X291093Y281992D01*
X291260Y282088D01*
X291427Y282182D01*
X291434Y282188D01*
X291442Y282193D01*
X291695Y282407D01*
X295692Y286405D01*
X303268Y286405D01*
X308625Y281048D01*
X308625Y273472D01*
X303268Y268115D01*
X295692Y268115D01*
X291695Y272113D01*
X291688Y272118D01*
X291682Y272125D01*
X291533Y272245D01*
X291383Y272368D01*
X291375Y272372D01*
X291368Y272377D01*
X291198Y272466D01*
X291028Y272556D01*
X291019Y272559D01*
X291011Y272563D01*
X290826Y272616D01*
X290642Y272671D01*
X290633Y272672D01*
X290624Y272674D01*
X290433Y272690D01*
X290241Y272708D01*
X290232Y272707D01*
X290223Y272707D01*
X290034Y272685D01*
X289840Y272664D01*
X289832Y272661D01*
X289823Y272660D01*
X289641Y272601D01*
X289457Y272543D01*
X289449Y272538D01*
X289440Y272536D01*
X289272Y272440D01*
X289104Y272348D01*
X289098Y272342D01*
X289090Y272338D01*
X288944Y272212D01*
X288797Y272087D01*
X288792Y272080D01*
X288785Y272074D01*
X288668Y271923D01*
X288548Y271771D01*
X288544Y271763D01*
X288538Y271756D01*
X288453Y271584D01*
X288365Y271412D01*
X288363Y271404D01*
X288359Y271396D01*
X288309Y271210D01*
X288257Y271025D01*
X288257Y271016D01*
X288254Y271007D01*
X288227Y270676D01*
X288227Y250744D01*
X288229Y250726D01*
X288228Y250708D01*
X288249Y250526D01*
X288267Y250343D01*
X288272Y250326D01*
X288274Y250309D01*
X288331Y250134D01*
X288385Y249958D01*
X288394Y249943D01*
X288399Y249926D01*
X288490Y249766D01*
X288577Y249604D01*
X288588Y249591D01*
X288597Y249575D01*
X288717Y249436D01*
X288835Y249295D01*
X288849Y249284D01*
X288860Y249270D01*
X289005Y249158D01*
X289149Y249043D01*
X289164Y249035D01*
X289178Y249024D01*
X289343Y248942D01*
X289506Y248857D01*
X289523Y248852D01*
X289539Y248844D01*
X289717Y248797D01*
X289893Y248746D01*
X289911Y248744D01*
X289928Y248740D01*
X290258Y248713D01*
X297724Y248713D01*
X299213Y247224D01*
X299213Y225816D01*
X297724Y224327D01*
X276316Y224327D01*
X274827Y225816D01*
X274827Y247224D01*
X276316Y248713D01*
X278067Y248713D01*
X278084Y248715D01*
X278102Y248713D01*
X278284Y248734D01*
X278467Y248753D01*
X278484Y248758D01*
X278502Y248760D01*
X278676Y248817D01*
X278852Y248871D01*
X278868Y248879D01*
X278885Y248885D01*
X279045Y248975D01*
X279206Y249063D01*
X279220Y249074D01*
X279235Y249083D01*
X279375Y249203D01*
X279515Y249320D01*
X279527Y249334D01*
X279540Y249346D01*
X279653Y249491D01*
X279768Y249634D01*
X279776Y249650D01*
X279787Y249664D01*
X279869Y249829D01*
X279953Y249991D01*
X279958Y250008D01*
X279966Y250024D01*
X280014Y250203D01*
X280065Y250378D01*
X280066Y250396D01*
X280071Y250413D01*
X280098Y250744D01*
X280098Y408796D01*
X280717Y410290D01*
X282146Y411719D01*
X307394Y436968D01*
X307400Y436975D01*
X307407Y436980D01*
X307527Y437130D01*
X307649Y437279D01*
X307654Y437287D01*
X307659Y437294D01*
X307748Y437465D01*
X307838Y437635D01*
X307841Y437643D01*
X307845Y437651D01*
X307898Y437837D01*
X307953Y438021D01*
X307954Y438030D01*
X307956Y438038D01*
X307972Y438230D01*
X307989Y438422D01*
X307988Y438431D01*
X307989Y438440D01*
X307967Y438629D01*
X307946Y438822D01*
X307943Y438831D01*
X307942Y438839D01*
X307883Y439021D01*
X307824Y439206D01*
X307820Y439214D01*
X307817Y439222D01*
X307722Y439391D01*
X307629Y439558D01*
X307624Y439565D01*
X307619Y439573D01*
X307493Y439719D01*
X307369Y439865D01*
X307362Y439871D01*
X307356Y439878D01*
X307205Y439995D01*
X307053Y440115D01*
X307045Y440119D01*
X307038Y440124D01*
X306866Y440210D01*
X306694Y440297D01*
X306686Y440300D01*
X306678Y440304D01*
X306491Y440354D01*
X306306Y440405D01*
X306297Y440406D01*
X306289Y440408D01*
X305958Y440435D01*
X298472Y440435D01*
X293115Y445792D01*
X293115Y453368D01*
X298472Y458725D01*
X306048Y458725D01*
X306793Y457980D01*
X306800Y457974D01*
X306805Y457967D01*
X306956Y457846D01*
X307104Y457725D01*
X307112Y457721D01*
X307119Y457715D01*
X307290Y457626D01*
X307460Y457536D01*
X307469Y457534D01*
X307476Y457530D01*
X307661Y457476D01*
X307846Y457421D01*
X307855Y457421D01*
X307863Y457418D01*
X308054Y457402D01*
X308247Y457385D01*
X308256Y457386D01*
X308265Y457385D01*
X308454Y457407D01*
X308647Y457428D01*
X308656Y457431D01*
X308664Y457432D01*
X308846Y457492D01*
X309031Y457550D01*
X309039Y457554D01*
X309047Y457557D01*
X309214Y457651D01*
X309383Y457745D01*
X309390Y457751D01*
X309398Y457755D01*
X309543Y457880D01*
X309690Y458005D01*
X309696Y458012D01*
X309703Y458018D01*
X309819Y458168D01*
X309940Y458321D01*
X309944Y458329D01*
X309949Y458336D01*
X310034Y458507D01*
X310122Y458680D01*
X310125Y458689D01*
X310129Y458697D01*
X310178Y458882D01*
X310230Y459068D01*
X310231Y459077D01*
X310233Y459085D01*
X310260Y459416D01*
X310260Y486584D01*
X310879Y488077D01*
X312023Y489221D01*
X313516Y489840D01*
X354821Y489840D01*
X356315Y489221D01*
X360633Y484902D01*
X360699Y484744D01*
X360710Y484724D01*
X360717Y484703D01*
X360805Y484547D01*
X360889Y484389D01*
X360904Y484372D01*
X360915Y484352D01*
X361031Y484217D01*
X361146Y484078D01*
X361163Y484064D01*
X361178Y484047D01*
X361319Y483938D01*
X361458Y483825D01*
X361478Y483814D01*
X361496Y483801D01*
X361656Y483721D01*
X361815Y483638D01*
X361836Y483631D01*
X361856Y483621D01*
X362030Y483575D01*
X362201Y483525D01*
X362224Y483523D01*
X362245Y483517D01*
X362576Y483490D01*
X365669Y483490D01*
X366870Y482289D01*
X366934Y482236D01*
X366992Y482177D01*
X367090Y482109D01*
X367182Y482034D01*
X367255Y481995D01*
X367323Y481948D01*
X367433Y481901D01*
X367537Y481845D01*
X367617Y481822D01*
X367693Y481789D01*
X367809Y481764D01*
X367923Y481730D01*
X368006Y481723D01*
X368087Y481706D01*
X368206Y481705D01*
X368324Y481694D01*
X368407Y481703D01*
X368490Y481702D01*
X368606Y481725D01*
X368725Y481737D01*
X368804Y481762D01*
X368885Y481778D01*
X368995Y481823D01*
X369108Y481859D01*
X369181Y481899D01*
X369258Y481930D01*
X369357Y481996D01*
X369461Y482054D01*
X369524Y482107D01*
X369593Y482153D01*
X369677Y482237D01*
X369768Y482314D01*
X369816Y482375D01*
X370423Y482982D01*
X371002Y483317D01*
X371648Y483490D01*
X372619Y483490D01*
X372619Y471043D01*
X372619Y458596D01*
X371648Y458596D01*
X371002Y458769D01*
X370423Y459104D01*
X369850Y459677D01*
X369832Y459702D01*
X369771Y459759D01*
X369718Y459822D01*
X369624Y459896D01*
X369537Y459977D01*
X369467Y460020D01*
X369402Y460072D01*
X369296Y460126D01*
X369194Y460188D01*
X369117Y460216D01*
X369043Y460254D01*
X368928Y460286D01*
X368816Y460327D01*
X368735Y460340D01*
X368655Y460362D01*
X368536Y460371D01*
X368419Y460389D01*
X368336Y460385D01*
X368253Y460391D01*
X368135Y460376D01*
X368016Y460371D01*
X367936Y460351D01*
X367854Y460341D01*
X367741Y460303D01*
X367626Y460274D01*
X367551Y460239D01*
X367472Y460213D01*
X367369Y460153D01*
X367261Y460103D01*
X367195Y460053D01*
X367123Y460012D01*
X367008Y459914D01*
X366938Y459862D01*
X366911Y459832D01*
X366870Y459797D01*
X365669Y458596D01*
X358231Y458596D01*
X357036Y459791D01*
X357023Y459802D01*
X357011Y459815D01*
X356867Y459929D01*
X356725Y460046D01*
X356709Y460054D01*
X356695Y460065D01*
X356531Y460148D01*
X356369Y460234D01*
X356352Y460239D01*
X356336Y460247D01*
X356159Y460297D01*
X355983Y460349D01*
X355965Y460351D01*
X355948Y460355D01*
X355765Y460369D01*
X355582Y460385D01*
X355564Y460383D01*
X355547Y460385D01*
X355365Y460362D01*
X355182Y460342D01*
X355165Y460337D01*
X355147Y460334D01*
X354974Y460276D01*
X354798Y460221D01*
X354782Y460212D01*
X354766Y460206D01*
X354607Y460115D01*
X354446Y460026D01*
X354432Y460014D01*
X354417Y460005D01*
X354164Y459791D01*
X353910Y459537D01*
X353893Y459516D01*
X353872Y459498D01*
X353765Y459360D01*
X353655Y459225D01*
X353642Y459201D01*
X353626Y459180D01*
X353548Y459023D01*
X353466Y458869D01*
X353458Y458844D01*
X353446Y458820D01*
X353401Y458650D01*
X353351Y458483D01*
X353349Y458457D01*
X353342Y458431D01*
X353315Y458100D01*
X353315Y457979D01*
X352696Y456485D01*
X352466Y456255D01*
X352455Y456241D01*
X352441Y456230D01*
X352327Y456085D01*
X352211Y455944D01*
X352203Y455928D01*
X352191Y455914D01*
X352108Y455750D01*
X352022Y455588D01*
X352017Y455571D01*
X352009Y455555D01*
X351960Y455378D01*
X351907Y455202D01*
X351906Y455184D01*
X351901Y455167D01*
X351888Y454984D01*
X351871Y454801D01*
X351873Y454783D01*
X351872Y454765D01*
X351895Y454583D01*
X351914Y454401D01*
X351920Y454384D01*
X351922Y454366D01*
X351981Y454192D01*
X352036Y454017D01*
X352045Y454001D01*
X352050Y453984D01*
X352142Y453825D01*
X352231Y453665D01*
X352242Y453651D01*
X352251Y453635D01*
X352466Y453382D01*
X359204Y446644D01*
X360633Y445215D01*
X361252Y443721D01*
X361252Y414794D01*
X361255Y414768D01*
X361253Y414741D01*
X361275Y414567D01*
X361292Y414394D01*
X361300Y414368D01*
X361303Y414341D01*
X361359Y414176D01*
X361410Y414009D01*
X361423Y413985D01*
X361432Y413960D01*
X361519Y413808D01*
X361602Y413655D01*
X361619Y413634D01*
X361632Y413611D01*
X361847Y413358D01*
X362248Y412957D01*
X363157Y410763D01*
X363157Y408387D01*
X362248Y406193D01*
X360569Y404514D01*
X358375Y403605D01*
X355956Y403605D01*
X355917Y403616D01*
X355738Y403671D01*
X355725Y403672D01*
X355712Y403676D01*
X355523Y403691D01*
X355337Y403709D01*
X355324Y403707D01*
X355310Y403709D01*
X355124Y403687D01*
X354937Y403667D01*
X354924Y403663D01*
X354911Y403662D01*
X354732Y403603D01*
X354552Y403547D01*
X354541Y403541D01*
X354528Y403537D01*
X354363Y403444D01*
X354199Y403354D01*
X354189Y403345D01*
X354177Y403339D01*
X354034Y403216D01*
X353891Y403095D01*
X353883Y403084D01*
X353872Y403076D01*
X353758Y402928D01*
X353640Y402780D01*
X353634Y402768D01*
X353626Y402758D01*
X353542Y402590D01*
X353456Y402422D01*
X353452Y402409D01*
X353446Y402397D01*
X353398Y402215D01*
X353346Y402035D01*
X353345Y402021D01*
X353342Y402008D01*
X353315Y401678D01*
X353315Y398411D01*
X353316Y398402D01*
X353315Y398393D01*
X353336Y398201D01*
X353355Y398010D01*
X353357Y398002D01*
X353358Y397993D01*
X353416Y397811D01*
X353473Y397626D01*
X353477Y397618D01*
X353480Y397609D01*
X353573Y397441D01*
X353665Y397272D01*
X353670Y397265D01*
X353675Y397257D01*
X353800Y397109D01*
X353922Y396962D01*
X353929Y396957D01*
X353935Y396950D01*
X354087Y396830D01*
X354236Y396710D01*
X354244Y396706D01*
X354251Y396700D01*
X354423Y396613D01*
X354593Y396524D01*
X354602Y396522D01*
X354610Y396518D01*
X354796Y396466D01*
X354980Y396413D01*
X354989Y396412D01*
X354998Y396410D01*
X355190Y396396D01*
X355382Y396380D01*
X355390Y396381D01*
X355399Y396381D01*
X355592Y396405D01*
X355781Y396427D01*
X355790Y396430D01*
X355799Y396431D01*
X355982Y396492D01*
X356164Y396552D01*
X356172Y396556D01*
X356180Y396559D01*
X356346Y396655D01*
X356515Y396750D01*
X356522Y396756D01*
X356529Y396760D01*
X356782Y396975D01*
X358568Y398761D01*
X360762Y399670D01*
X363138Y399670D01*
X365332Y398761D01*
X367011Y397082D01*
X367920Y394888D01*
X367920Y392513D01*
X367755Y392115D01*
X367754Y392110D01*
X367752Y392106D01*
X367696Y391921D01*
X367638Y391729D01*
X367638Y391725D01*
X367637Y391720D01*
X367619Y391527D01*
X367600Y391328D01*
X367601Y391324D01*
X367600Y391319D01*
X367622Y391123D01*
X367642Y390928D01*
X367643Y390924D01*
X367644Y390919D01*
X367704Y390729D01*
X367762Y390544D01*
X367764Y390540D01*
X367765Y390535D01*
X367861Y390362D01*
X367955Y390190D01*
X367958Y390187D01*
X367960Y390183D01*
X368090Y390030D01*
X368214Y389882D01*
X368218Y389879D01*
X368221Y389876D01*
X368376Y389753D01*
X368529Y389631D01*
X368533Y389629D01*
X368537Y389626D01*
X368713Y389537D01*
X368887Y389447D01*
X368891Y389446D01*
X368896Y389444D01*
X369088Y389390D01*
X369275Y389338D01*
X369279Y389337D01*
X369283Y389336D01*
X369484Y389321D01*
X369676Y389307D01*
X369680Y389307D01*
X369685Y389307D01*
X369884Y389332D01*
X370076Y389355D01*
X370080Y389357D01*
X370084Y389357D01*
X370270Y389419D01*
X370458Y389482D01*
X370462Y389484D01*
X370466Y389485D01*
X370635Y389583D01*
X370808Y389681D01*
X370811Y389684D01*
X370815Y389686D01*
X370906Y389764D01*
X378369Y389764D01*
X379570Y388563D01*
X379634Y388510D01*
X379692Y388451D01*
X379790Y388383D01*
X379882Y388308D01*
X379955Y388269D01*
X380023Y388222D01*
X380133Y388175D01*
X380237Y388119D01*
X380317Y388096D01*
X380393Y388063D01*
X380509Y388038D01*
X380623Y388004D01*
X380706Y387997D01*
X380787Y387980D01*
X380906Y387979D01*
X381024Y387968D01*
X381107Y387977D01*
X381190Y387976D01*
X381306Y387999D01*
X381425Y388011D01*
X381504Y388036D01*
X381585Y388052D01*
X381695Y388097D01*
X381808Y388133D01*
X381881Y388173D01*
X381958Y388204D01*
X382057Y388270D01*
X382161Y388328D01*
X382224Y388381D01*
X382293Y388427D01*
X382377Y388511D01*
X382468Y388588D01*
X382516Y388649D01*
X383123Y389256D01*
X383702Y389591D01*
X384348Y389764D01*
X385319Y389764D01*
X385319Y377317D01*
X385319Y364870D01*
X384348Y364870D01*
X383702Y365043D01*
X383123Y365378D01*
X382550Y365951D01*
X382532Y365976D01*
X382471Y366033D01*
X382418Y366096D01*
X382324Y366170D01*
X382237Y366251D01*
X382167Y366294D01*
X382102Y366346D01*
X381996Y366400D01*
X381894Y366462D01*
X381817Y366490D01*
X381743Y366528D01*
X381628Y366560D01*
X381516Y366601D01*
X381435Y366614D01*
X381355Y366636D01*
X381236Y366645D01*
X381119Y366663D01*
X381036Y366659D01*
X380953Y366665D01*
X380835Y366650D01*
X380716Y366645D01*
X380636Y366625D01*
X380554Y366615D01*
X380441Y366577D01*
X380326Y366548D01*
X380251Y366513D01*
X380172Y366487D01*
X380069Y366427D01*
X379961Y366377D01*
X379895Y366327D01*
X379823Y366286D01*
X379708Y366188D01*
X379638Y366136D01*
X379611Y366106D01*
X379570Y366071D01*
X378825Y365326D01*
X378811Y365309D01*
X378794Y365294D01*
X378684Y365153D01*
X378570Y365015D01*
X378560Y364995D01*
X378546Y364977D01*
X378465Y364817D01*
X378382Y364659D01*
X378375Y364638D01*
X378365Y364618D01*
X378318Y364445D01*
X378267Y364273D01*
X378265Y364251D01*
X378259Y364229D01*
X378247Y364051D01*
X378230Y363872D01*
X378233Y363850D01*
X378231Y363828D01*
X378255Y363650D01*
X378274Y363472D01*
X378281Y363451D01*
X378283Y363428D01*
X378385Y363113D01*
X379032Y361550D01*
X379032Y359175D01*
X378123Y356981D01*
X376444Y355302D01*
X374250Y354393D01*
X371875Y354393D01*
X369681Y355302D01*
X368002Y356981D01*
X367093Y359175D01*
X367093Y359742D01*
X367090Y359769D01*
X367092Y359796D01*
X367070Y359970D01*
X367053Y360143D01*
X367045Y360169D01*
X367042Y360195D01*
X366986Y360361D01*
X366935Y360528D01*
X366922Y360552D01*
X366913Y360577D01*
X366826Y360729D01*
X366743Y360882D01*
X366726Y360902D01*
X366713Y360926D01*
X366498Y361179D01*
X363401Y364275D01*
X363381Y364292D01*
X363363Y364313D01*
X363225Y364420D01*
X363090Y364530D01*
X363066Y364543D01*
X363045Y364559D01*
X362888Y364637D01*
X362734Y364719D01*
X362709Y364727D01*
X362684Y364739D01*
X362515Y364784D01*
X362348Y364834D01*
X362322Y364836D01*
X362296Y364843D01*
X361965Y364870D01*
X360108Y364870D01*
X360091Y364868D01*
X360073Y364870D01*
X359891Y364849D01*
X359708Y364830D01*
X359691Y364825D01*
X359673Y364823D01*
X359499Y364766D01*
X359323Y364712D01*
X359307Y364704D01*
X359290Y364698D01*
X359130Y364608D01*
X358969Y364520D01*
X358955Y364509D01*
X358940Y364500D01*
X358800Y364380D01*
X358660Y364263D01*
X358648Y364249D01*
X358635Y364237D01*
X358522Y364092D01*
X358407Y363949D01*
X358399Y363933D01*
X358388Y363919D01*
X358306Y363754D01*
X358222Y363592D01*
X358217Y363575D01*
X358209Y363559D01*
X358161Y363380D01*
X358110Y363205D01*
X358109Y363187D01*
X358104Y363170D01*
X358077Y362839D01*
X358077Y343838D01*
X358080Y343811D01*
X358078Y343784D01*
X358100Y343610D01*
X358117Y343437D01*
X358125Y343411D01*
X358128Y343385D01*
X358184Y343219D01*
X358235Y343052D01*
X358248Y343028D01*
X358257Y343003D01*
X358344Y342851D01*
X358427Y342698D01*
X358444Y342678D01*
X358457Y342654D01*
X358672Y342401D01*
X370941Y330132D01*
X370958Y330118D01*
X370973Y330101D01*
X371114Y329991D01*
X371252Y329877D01*
X371272Y329867D01*
X371290Y329853D01*
X371451Y329772D01*
X371608Y329689D01*
X371629Y329682D01*
X371649Y329672D01*
X371823Y329625D01*
X371994Y329574D01*
X372016Y329572D01*
X372038Y329566D01*
X372217Y329554D01*
X372395Y329538D01*
X372417Y329540D01*
X372439Y329538D01*
X372617Y329562D01*
X372795Y329581D01*
X372817Y329588D01*
X372839Y329591D01*
X373155Y329692D01*
X373463Y329820D01*
X375838Y329820D01*
X378032Y328911D01*
X379711Y327232D01*
X380620Y325038D01*
X380620Y322663D01*
X380492Y322355D01*
X380486Y322333D01*
X380476Y322313D01*
X380428Y322141D01*
X380376Y321969D01*
X380374Y321947D01*
X380368Y321925D01*
X380355Y321746D01*
X380338Y321568D01*
X380340Y321546D01*
X380338Y321524D01*
X380361Y321346D01*
X380379Y321168D01*
X380386Y321147D01*
X380389Y321124D01*
X380446Y320955D01*
X380499Y320784D01*
X380510Y320764D01*
X380517Y320743D01*
X380606Y320588D01*
X380692Y320430D01*
X380707Y320413D01*
X380718Y320394D01*
X380932Y320141D01*
X430483Y270590D01*
X431102Y269096D01*
X431102Y264855D01*
X431107Y264804D01*
X431105Y264753D01*
X431127Y264604D01*
X431142Y264454D01*
X431157Y264405D01*
X431165Y264355D01*
X431216Y264214D01*
X431260Y264069D01*
X431285Y264024D01*
X431302Y263976D01*
X431380Y263848D01*
X431452Y263715D01*
X431485Y263676D01*
X431511Y263632D01*
X431613Y263522D01*
X431710Y263406D01*
X431750Y263374D01*
X431784Y263337D01*
X431906Y263248D01*
X432024Y263154D01*
X432069Y263130D01*
X432110Y263100D01*
X432247Y263038D01*
X432381Y262968D01*
X432430Y262954D01*
X432477Y262933D01*
X432623Y262899D01*
X432768Y262857D01*
X432819Y262853D01*
X432869Y262841D01*
X433019Y262836D01*
X433169Y262824D01*
X433220Y262830D01*
X433271Y262828D01*
X433419Y262853D01*
X433569Y262871D01*
X433618Y262887D01*
X433668Y262895D01*
X433808Y262949D01*
X433952Y262996D01*
X433996Y263021D01*
X434044Y263039D01*
X434241Y263159D01*
X434302Y263194D01*
X434313Y263203D01*
X434327Y263212D01*
X435703Y264211D01*
X437377Y265064D01*
X439164Y265645D01*
X439421Y265685D01*
X439421Y254508D01*
X439422Y254490D01*
X439421Y254473D01*
X439442Y254290D01*
X439461Y254108D01*
X439466Y254091D01*
X439468Y254073D01*
X439525Y253898D01*
X439579Y253723D01*
X439587Y253707D01*
X439593Y253690D01*
X439683Y253530D01*
X439770Y253369D01*
X439782Y253355D01*
X439791Y253339D01*
X439911Y253200D01*
X440028Y253059D01*
X440042Y253048D01*
X440054Y253035D01*
X440199Y252922D01*
X440342Y252807D01*
X440358Y252799D01*
X440372Y252788D01*
X440537Y252706D01*
X440699Y252622D01*
X440716Y252617D01*
X440732Y252609D01*
X440911Y252561D01*
X441086Y252510D01*
X441104Y252509D01*
X441121Y252504D01*
X441452Y252477D01*
X442468Y252477D01*
X442486Y252479D01*
X442504Y252477D01*
X442686Y252499D01*
X442869Y252517D01*
X442886Y252522D01*
X442903Y252524D01*
X443078Y252581D01*
X443254Y252635D01*
X443269Y252643D01*
X443286Y252649D01*
X443446Y252739D01*
X443608Y252827D01*
X443621Y252838D01*
X443637Y252847D01*
X443776Y252967D01*
X443917Y253085D01*
X443928Y253098D01*
X443942Y253110D01*
X444054Y253255D01*
X444169Y253398D01*
X444177Y253414D01*
X444188Y253428D01*
X444270Y253593D01*
X444355Y253756D01*
X444360Y253773D01*
X444368Y253789D01*
X444415Y253967D01*
X444466Y254142D01*
X444468Y254160D01*
X444472Y254177D01*
X444499Y254508D01*
X444499Y265685D01*
X444756Y265645D01*
X446543Y265064D01*
X448217Y264211D01*
X449738Y263106D01*
X451066Y261778D01*
X452171Y260257D01*
X452850Y258924D01*
X452921Y258813D01*
X452984Y258699D01*
X453030Y258644D01*
X453068Y258585D01*
X453159Y258491D01*
X453243Y258391D01*
X453299Y258346D01*
X453348Y258295D01*
X453456Y258221D01*
X453558Y258140D01*
X453621Y258107D01*
X453679Y258067D01*
X453800Y258015D01*
X453916Y257956D01*
X453984Y257936D01*
X454050Y257908D01*
X454178Y257882D01*
X454303Y257846D01*
X454374Y257841D01*
X454444Y257826D01*
X454575Y257825D01*
X454705Y257815D01*
X454775Y257823D01*
X454846Y257823D01*
X454975Y257848D01*
X455104Y257864D01*
X455172Y257886D01*
X455242Y257899D01*
X455363Y257949D01*
X455487Y257990D01*
X455548Y258025D01*
X455614Y258052D01*
X455723Y258125D01*
X455836Y258189D01*
X455890Y258236D01*
X455949Y258276D01*
X456041Y258368D01*
X456140Y258454D01*
X456183Y258510D01*
X456233Y258561D01*
X456306Y258670D01*
X456385Y258773D01*
X456423Y258846D01*
X456456Y258896D01*
X456485Y258967D01*
X456537Y259068D01*
X457239Y260763D01*
X460597Y264121D01*
X464985Y265939D01*
X469735Y265939D01*
X474123Y264121D01*
X477481Y260763D01*
X479299Y256375D01*
X479299Y251625D01*
X477481Y247237D01*
X474123Y243879D01*
X472427Y243177D01*
X472420Y243172D01*
X472411Y243170D01*
X472241Y243077D01*
X472073Y242986D01*
X472066Y242981D01*
X472058Y242976D01*
X471909Y242852D01*
X471762Y242730D01*
X471757Y242723D01*
X471750Y242717D01*
X471629Y242566D01*
X471508Y242417D01*
X471504Y242410D01*
X471499Y242402D01*
X471410Y242230D01*
X471321Y242061D01*
X471319Y242052D01*
X471315Y242044D01*
X471263Y241860D01*
X471208Y241674D01*
X471208Y241665D01*
X471205Y241657D01*
X471190Y241466D01*
X471174Y241273D01*
X471175Y241264D01*
X471174Y241256D01*
X471197Y241064D01*
X471219Y240873D01*
X471222Y240865D01*
X471223Y240856D01*
X471283Y240674D01*
X471342Y240490D01*
X471346Y240482D01*
X471349Y240474D01*
X471444Y240308D01*
X471538Y240138D01*
X471544Y240132D01*
X471549Y240124D01*
X471674Y239980D01*
X471800Y239833D01*
X471807Y239827D01*
X471813Y239820D01*
X471965Y239703D01*
X472117Y239584D01*
X472125Y239580D01*
X472132Y239575D01*
X472427Y239423D01*
X474123Y238721D01*
X477481Y235363D01*
X479299Y230975D01*
X479299Y226225D01*
X477481Y221837D01*
X474123Y218479D01*
X472427Y217777D01*
X472420Y217772D01*
X472411Y217770D01*
X472241Y217677D01*
X472073Y217586D01*
X472066Y217581D01*
X472058Y217576D01*
X471909Y217452D01*
X471762Y217330D01*
X471757Y217323D01*
X471750Y217317D01*
X471629Y217166D01*
X471508Y217017D01*
X471504Y217010D01*
X471499Y217002D01*
X471410Y216830D01*
X471321Y216661D01*
X471319Y216652D01*
X471315Y216644D01*
X471263Y216460D01*
X471208Y216274D01*
X471208Y216265D01*
X471205Y216257D01*
X471190Y216066D01*
X471174Y215873D01*
X471175Y215864D01*
X471174Y215856D01*
X471197Y215664D01*
X471219Y215473D01*
X471222Y215465D01*
X471223Y215456D01*
X471283Y215274D01*
X471342Y215090D01*
X471346Y215082D01*
X471349Y215074D01*
X471444Y214908D01*
X471538Y214738D01*
X471544Y214732D01*
X471549Y214724D01*
X471674Y214580D01*
X471800Y214433D01*
X471807Y214427D01*
X471813Y214420D01*
X471965Y214303D01*
X472117Y214184D01*
X472125Y214180D01*
X472132Y214175D01*
X472427Y214023D01*
X474123Y213321D01*
X477481Y209963D01*
X479299Y205575D01*
X479299Y200825D01*
X477481Y196437D01*
X474123Y193079D01*
X469735Y191261D01*
X464985Y191261D01*
X460597Y193079D01*
X457239Y196437D01*
X456537Y198133D01*
X456532Y198140D01*
X456530Y198149D01*
X456438Y198317D01*
X456346Y198487D01*
X456341Y198494D01*
X456336Y198502D01*
X456213Y198649D01*
X456090Y198798D01*
X456083Y198803D01*
X456077Y198810D01*
X455927Y198930D01*
X455777Y199052D01*
X455769Y199056D01*
X455763Y199061D01*
X455592Y199149D01*
X455421Y199239D01*
X455412Y199241D01*
X455404Y199245D01*
X455221Y199297D01*
X455035Y199352D01*
X455025Y199352D01*
X455017Y199355D01*
X454826Y199370D01*
X454633Y199386D01*
X454624Y199385D01*
X454616Y199386D01*
X454425Y199363D01*
X454233Y199341D01*
X454225Y199338D01*
X454216Y199337D01*
X454033Y199277D01*
X453850Y199218D01*
X453842Y199214D01*
X453834Y199211D01*
X453666Y199115D01*
X453499Y199022D01*
X453492Y199016D01*
X453484Y199011D01*
X453339Y198885D01*
X453193Y198760D01*
X453187Y198753D01*
X453180Y198747D01*
X453063Y198594D01*
X452944Y198443D01*
X452940Y198435D01*
X452935Y198428D01*
X452783Y198133D01*
X452081Y196437D01*
X448723Y193079D01*
X444335Y191261D01*
X439483Y191261D01*
X439466Y191259D01*
X439448Y191261D01*
X439266Y191240D01*
X439083Y191221D01*
X439066Y191216D01*
X439048Y191214D01*
X438874Y191157D01*
X438698Y191103D01*
X438682Y191095D01*
X438665Y191089D01*
X438505Y190999D01*
X438344Y190911D01*
X438330Y190900D01*
X438315Y190891D01*
X438175Y190771D01*
X438035Y190654D01*
X438023Y190640D01*
X438010Y190628D01*
X437897Y190483D01*
X437782Y190340D01*
X437774Y190324D01*
X437763Y190310D01*
X437681Y190145D01*
X437597Y189983D01*
X437592Y189966D01*
X437584Y189950D01*
X437536Y189771D01*
X437485Y189596D01*
X437484Y189578D01*
X437479Y189561D01*
X437452Y189230D01*
X437452Y167149D01*
X437196Y166531D01*
X437195Y166527D01*
X437193Y166523D01*
X437137Y166333D01*
X437080Y166146D01*
X437080Y166142D01*
X437078Y166137D01*
X437060Y165937D01*
X437042Y165745D01*
X437042Y165741D01*
X437042Y165736D01*
X437064Y165536D01*
X437083Y165345D01*
X437085Y165341D01*
X437085Y165336D01*
X437145Y165146D01*
X437203Y164960D01*
X437205Y164956D01*
X437207Y164952D01*
X437303Y164779D01*
X437397Y164607D01*
X437399Y164604D01*
X437402Y164600D01*
X437530Y164449D01*
X437656Y164299D01*
X437659Y164296D01*
X437662Y164293D01*
X437817Y164171D01*
X437970Y164048D01*
X437974Y164046D01*
X437978Y164043D01*
X438152Y163955D01*
X438329Y163864D01*
X438333Y163863D01*
X438337Y163861D01*
X438526Y163808D01*
X438716Y163754D01*
X438720Y163754D01*
X438725Y163753D01*
X438925Y163738D01*
X439117Y163723D01*
X439122Y163724D01*
X439126Y163723D01*
X439325Y163749D01*
X439517Y163772D01*
X439521Y163773D01*
X439526Y163774D01*
X439714Y163837D01*
X439899Y163898D01*
X439903Y163901D01*
X439907Y163902D01*
X440080Y164001D01*
X440249Y164098D01*
X440252Y164101D01*
X440256Y164103D01*
X440509Y164318D01*
X448865Y172673D01*
X450359Y173292D01*
X479281Y173292D01*
X480775Y172673D01*
X490491Y162957D01*
X491110Y161464D01*
X491110Y120977D01*
X491113Y120946D01*
X491111Y120907D01*
X491137Y120131D01*
X490840Y119414D01*
X490831Y119384D01*
X490815Y119349D01*
X490542Y118621D01*
X489993Y118072D01*
X489974Y118048D01*
X489945Y118022D01*
X475728Y102798D01*
X475622Y102658D01*
X475512Y102522D01*
X475500Y102499D01*
X475484Y102478D01*
X475407Y102320D01*
X475326Y102165D01*
X475319Y102140D01*
X475308Y102116D01*
X475263Y101946D01*
X475215Y101778D01*
X475213Y101752D01*
X475206Y101727D01*
X475196Y101552D01*
X475182Y101376D01*
X475185Y101351D01*
X475184Y101325D01*
X475208Y101151D01*
X475229Y100977D01*
X475237Y100952D01*
X475241Y100926D01*
X475299Y100761D01*
X475354Y100594D01*
X475367Y100571D01*
X475375Y100547D01*
X475465Y100396D01*
X475552Y100243D01*
X475569Y100224D01*
X475582Y100201D01*
X475700Y100071D01*
X475815Y99938D01*
X475835Y99923D01*
X475853Y99903D01*
X475994Y99799D01*
X476133Y99692D01*
X476156Y99680D01*
X476177Y99665D01*
X476336Y99591D01*
X476493Y99512D01*
X476519Y99506D01*
X476542Y99495D01*
X476712Y99454D01*
X476882Y99408D01*
X476911Y99405D01*
X476933Y99400D01*
X477016Y99397D01*
X477213Y99381D01*
X478952Y99381D01*
X480441Y97892D01*
X480441Y72788D01*
X478952Y71299D01*
X460848Y71299D01*
G37*
%LPD*%
G36*
X382864Y263043D02*
X382864Y263043D01*
X382877Y263041D01*
X383064Y263063D01*
X383251Y263083D01*
X383264Y263087D01*
X383277Y263088D01*
X383456Y263147D01*
X383635Y263203D01*
X383647Y263209D01*
X383660Y263213D01*
X383824Y263306D01*
X383988Y263396D01*
X383999Y263404D01*
X384010Y263411D01*
X384153Y263534D01*
X384297Y263655D01*
X384305Y263666D01*
X384315Y263674D01*
X384430Y263822D01*
X384547Y263970D01*
X384554Y263982D01*
X384562Y263992D01*
X384645Y264160D01*
X384731Y264328D01*
X384735Y264341D01*
X384741Y264353D01*
X384790Y264535D01*
X384841Y264715D01*
X384842Y264729D01*
X384846Y264742D01*
X384873Y265072D01*
X384873Y280098D01*
X384871Y280111D01*
X384873Y280124D01*
X384852Y280310D01*
X384833Y280498D01*
X384829Y280511D01*
X384827Y280524D01*
X384770Y280704D01*
X384715Y280883D01*
X384708Y280895D01*
X384704Y280908D01*
X384612Y281072D01*
X384523Y281237D01*
X384514Y281247D01*
X384508Y281259D01*
X384386Y281402D01*
X384265Y281546D01*
X384255Y281555D01*
X384246Y281565D01*
X384098Y281681D01*
X383951Y281799D01*
X383940Y281805D01*
X383929Y281813D01*
X383761Y281898D01*
X383594Y281984D01*
X383581Y281988D01*
X383569Y281994D01*
X383388Y282044D01*
X383207Y282096D01*
X383194Y282097D01*
X383181Y282100D01*
X382993Y282113D01*
X382806Y282129D01*
X382793Y282127D01*
X382779Y282128D01*
X382592Y282103D01*
X382406Y282082D01*
X382393Y282078D01*
X382380Y282076D01*
X382064Y281974D01*
X380600Y281368D01*
X378225Y281368D01*
X376031Y282277D01*
X374352Y283956D01*
X373443Y286150D01*
X373443Y286717D01*
X373440Y286744D01*
X373442Y286771D01*
X373420Y286945D01*
X373403Y287118D01*
X373395Y287144D01*
X373392Y287170D01*
X373336Y287336D01*
X373285Y287503D01*
X373272Y287527D01*
X373263Y287552D01*
X373176Y287704D01*
X373093Y287857D01*
X373076Y287877D01*
X373063Y287901D01*
X372848Y288154D01*
X306117Y354885D01*
X305498Y356379D01*
X305498Y373871D01*
X306117Y375365D01*
X309665Y378914D01*
X309682Y378934D01*
X309703Y378952D01*
X309810Y379090D01*
X309920Y379225D01*
X309933Y379249D01*
X309949Y379270D01*
X310027Y379427D01*
X310109Y379581D01*
X310117Y379606D01*
X310129Y379631D01*
X310174Y379800D01*
X310224Y379967D01*
X310226Y379993D01*
X310233Y380019D01*
X310260Y380350D01*
X310260Y388944D01*
X310259Y388953D01*
X310260Y388962D01*
X310239Y389153D01*
X310220Y389344D01*
X310218Y389353D01*
X310217Y389362D01*
X310159Y389544D01*
X310102Y389729D01*
X310098Y389737D01*
X310095Y389746D01*
X310003Y389913D01*
X309910Y390083D01*
X309905Y390090D01*
X309900Y390098D01*
X309775Y390246D01*
X309653Y390393D01*
X309646Y390398D01*
X309640Y390405D01*
X309489Y390524D01*
X309339Y390645D01*
X309331Y390649D01*
X309324Y390655D01*
X309153Y390742D01*
X308982Y390830D01*
X308973Y390833D01*
X308965Y390837D01*
X308779Y390889D01*
X308595Y390942D01*
X308586Y390943D01*
X308577Y390945D01*
X308385Y390959D01*
X308193Y390975D01*
X308185Y390974D01*
X308176Y390974D01*
X307983Y390950D01*
X307794Y390928D01*
X307785Y390925D01*
X307776Y390924D01*
X307593Y390863D01*
X307411Y390803D01*
X307403Y390799D01*
X307395Y390796D01*
X307229Y390700D01*
X307060Y390605D01*
X307053Y390599D01*
X307046Y390595D01*
X306793Y390380D01*
X306048Y389635D01*
X304291Y389635D01*
X304291Y398780D01*
X304291Y407925D01*
X306048Y407925D01*
X306793Y407180D01*
X306800Y407174D01*
X306805Y407167D01*
X306956Y407046D01*
X307104Y406925D01*
X307112Y406921D01*
X307119Y406915D01*
X307289Y406827D01*
X307460Y406736D01*
X307469Y406734D01*
X307476Y406730D01*
X307661Y406676D01*
X307846Y406621D01*
X307855Y406621D01*
X307863Y406618D01*
X308054Y406602D01*
X308247Y406585D01*
X308256Y406586D01*
X308265Y406585D01*
X308454Y406607D01*
X308647Y406628D01*
X308656Y406631D01*
X308664Y406632D01*
X308846Y406692D01*
X309031Y406750D01*
X309039Y406754D01*
X309047Y406757D01*
X309214Y406851D01*
X309383Y406945D01*
X309390Y406951D01*
X309398Y406955D01*
X309543Y407080D01*
X309690Y407205D01*
X309696Y407212D01*
X309703Y407218D01*
X309819Y407369D01*
X309940Y407521D01*
X309944Y407529D01*
X309949Y407536D01*
X310034Y407707D01*
X310122Y407880D01*
X310125Y407889D01*
X310129Y407897D01*
X310178Y408082D01*
X310230Y408268D01*
X310231Y408277D01*
X310233Y408285D01*
X310260Y408616D01*
X310260Y423433D01*
X310259Y423442D01*
X310260Y423451D01*
X310239Y423644D01*
X310220Y423834D01*
X310218Y423842D01*
X310217Y423851D01*
X310158Y424036D01*
X310102Y424219D01*
X310098Y424226D01*
X310095Y424235D01*
X310002Y424404D01*
X309910Y424573D01*
X309905Y424579D01*
X309900Y424587D01*
X309776Y424734D01*
X309653Y424882D01*
X309646Y424887D01*
X309640Y424894D01*
X309488Y425014D01*
X309339Y425134D01*
X309331Y425138D01*
X309324Y425144D01*
X309151Y425232D01*
X308982Y425320D01*
X308973Y425322D01*
X308965Y425326D01*
X308779Y425378D01*
X308595Y425431D01*
X308586Y425432D01*
X308577Y425434D01*
X308384Y425448D01*
X308193Y425464D01*
X308185Y425463D01*
X308176Y425464D01*
X307983Y425439D01*
X307794Y425417D01*
X307785Y425414D01*
X307776Y425413D01*
X307593Y425352D01*
X307411Y425292D01*
X307403Y425288D01*
X307395Y425285D01*
X307228Y425189D01*
X307060Y425094D01*
X307053Y425089D01*
X307046Y425084D01*
X306793Y424869D01*
X288822Y406899D01*
X288805Y406878D01*
X288785Y406861D01*
X288678Y406723D01*
X288567Y406587D01*
X288555Y406564D01*
X288538Y406542D01*
X288460Y406386D01*
X288378Y406232D01*
X288371Y406206D01*
X288359Y406182D01*
X288313Y406013D01*
X288264Y405846D01*
X288261Y405819D01*
X288254Y405793D01*
X288227Y405462D01*
X288227Y385722D01*
X288229Y385709D01*
X288227Y385696D01*
X288248Y385509D01*
X288267Y385322D01*
X288271Y385309D01*
X288273Y385296D01*
X288330Y385116D01*
X288385Y384937D01*
X288392Y384925D01*
X288396Y384912D01*
X288488Y384748D01*
X288577Y384583D01*
X288586Y384573D01*
X288592Y384561D01*
X288715Y384417D01*
X288835Y384274D01*
X288845Y384265D01*
X288854Y384255D01*
X289003Y384138D01*
X289149Y384021D01*
X289160Y384015D01*
X289171Y384007D01*
X289340Y383922D01*
X289506Y383836D01*
X289519Y383832D01*
X289531Y383826D01*
X289712Y383776D01*
X289893Y383724D01*
X289906Y383723D01*
X289919Y383720D01*
X290106Y383707D01*
X290294Y383691D01*
X290307Y383693D01*
X290321Y383692D01*
X290507Y383716D01*
X290694Y383738D01*
X290707Y383743D01*
X290720Y383744D01*
X290877Y383795D01*
X293288Y383795D01*
X295482Y382886D01*
X297161Y381207D01*
X298070Y379013D01*
X298070Y376638D01*
X297907Y376244D01*
X297898Y376214D01*
X297884Y376186D01*
X297840Y376022D01*
X297790Y375859D01*
X297787Y375828D01*
X297779Y375798D01*
X297752Y375467D01*
X297752Y347013D01*
X297755Y346986D01*
X297753Y346959D01*
X297775Y346785D01*
X297792Y346612D01*
X297800Y346586D01*
X297803Y346560D01*
X297859Y346394D01*
X297910Y346227D01*
X297923Y346203D01*
X297932Y346178D01*
X298019Y346026D01*
X298102Y345873D01*
X298119Y345853D01*
X298132Y345829D01*
X298347Y345576D01*
X380184Y263740D01*
X380204Y263723D01*
X380222Y263702D01*
X380360Y263595D01*
X380495Y263485D01*
X380519Y263472D01*
X380540Y263456D01*
X380697Y263378D01*
X380851Y263296D01*
X380876Y263288D01*
X380901Y263276D01*
X381070Y263231D01*
X381237Y263181D01*
X381263Y263179D01*
X381289Y263172D01*
X381620Y263145D01*
X382231Y263145D01*
X382270Y263134D01*
X382450Y263079D01*
X382463Y263078D01*
X382476Y263074D01*
X382664Y263059D01*
X382850Y263041D01*
X382864Y263043D01*
G37*
%LPC*%
G36*
X411698Y69150D02*
X411698Y69150D01*
X404236Y74136D01*
X399250Y81598D01*
X397499Y90400D01*
X399250Y99202D01*
X404236Y106664D01*
X411698Y111650D01*
X420500Y113401D01*
X429302Y111650D01*
X436764Y106664D01*
X441750Y99202D01*
X443501Y90400D01*
X441750Y81598D01*
X436764Y74136D01*
X429302Y69150D01*
X420500Y67399D01*
X411698Y69150D01*
G37*
%LPD*%
%LPC*%
G36*
X36851Y268669D02*
X36851Y268669D01*
X29849Y271570D01*
X24490Y276929D01*
X21589Y283931D01*
X21589Y291509D01*
X24490Y298511D01*
X29849Y303870D01*
X36851Y306771D01*
X44429Y306771D01*
X51431Y303870D01*
X56790Y298511D01*
X59691Y291509D01*
X59691Y283931D01*
X56790Y276929D01*
X51431Y271570D01*
X48916Y270528D01*
X44429Y268669D01*
X36851Y268669D01*
G37*
%LPD*%
%LPC*%
G36*
X268687Y348043D02*
X268687Y348043D01*
X266493Y348952D01*
X264814Y350631D01*
X263905Y352825D01*
X263905Y355200D01*
X264814Y357394D01*
X265215Y357795D01*
X265232Y357816D01*
X265253Y357834D01*
X265360Y357971D01*
X265470Y358107D01*
X265483Y358130D01*
X265499Y358152D01*
X265577Y358309D01*
X265659Y358463D01*
X265667Y358488D01*
X265679Y358512D01*
X265724Y358682D01*
X265774Y358848D01*
X265776Y358875D01*
X265783Y358901D01*
X265810Y359232D01*
X265810Y413400D01*
X265808Y413427D01*
X265810Y413453D01*
X265788Y413627D01*
X265770Y413801D01*
X265763Y413826D01*
X265759Y413853D01*
X265704Y414018D01*
X265652Y414185D01*
X265639Y414209D01*
X265631Y414234D01*
X265544Y414386D01*
X265460Y414540D01*
X265443Y414560D01*
X265430Y414583D01*
X265215Y414836D01*
X264341Y415710D01*
X264321Y415727D01*
X264303Y415748D01*
X264165Y415855D01*
X264030Y415965D01*
X264006Y415978D01*
X263985Y415994D01*
X263828Y416072D01*
X263674Y416154D01*
X263649Y416162D01*
X263624Y416174D01*
X263455Y416219D01*
X263288Y416269D01*
X263262Y416271D01*
X263236Y416278D01*
X262905Y416305D01*
X262337Y416305D01*
X260143Y417214D01*
X258464Y418893D01*
X257555Y421087D01*
X257555Y423463D01*
X258464Y425657D01*
X260143Y427336D01*
X262337Y428245D01*
X264713Y428245D01*
X266907Y427336D01*
X268586Y425657D01*
X269495Y423463D01*
X269495Y422895D01*
X269497Y422868D01*
X269495Y422842D01*
X269517Y422668D01*
X269535Y422494D01*
X269542Y422469D01*
X269546Y422442D01*
X269602Y422276D01*
X269653Y422110D01*
X269666Y422086D01*
X269674Y422061D01*
X269762Y421908D01*
X269845Y421755D01*
X269862Y421735D01*
X269875Y421712D01*
X270090Y421459D01*
X273321Y418227D01*
X273940Y416734D01*
X273940Y359232D01*
X273942Y359205D01*
X273940Y359178D01*
X273962Y359004D01*
X273980Y358831D01*
X273987Y358806D01*
X273991Y358779D01*
X274046Y358613D01*
X274098Y358446D01*
X274111Y358423D01*
X274119Y358397D01*
X274206Y358246D01*
X274290Y358092D01*
X274307Y358072D01*
X274320Y358048D01*
X274535Y357795D01*
X274936Y357394D01*
X275845Y355200D01*
X275845Y352825D01*
X274936Y350631D01*
X273257Y348952D01*
X271063Y348043D01*
X268687Y348043D01*
G37*
%LPD*%
%LPC*%
G36*
X180859Y252159D02*
X180859Y252159D01*
X177124Y253706D01*
X174266Y256564D01*
X172719Y260299D01*
X172719Y264341D01*
X174266Y268076D01*
X177124Y270934D01*
X180859Y272481D01*
X200141Y272481D01*
X203876Y270934D01*
X206734Y268076D01*
X208281Y264341D01*
X208281Y260299D01*
X206734Y256564D01*
X203876Y253706D01*
X200141Y252159D01*
X180859Y252159D01*
G37*
%LPD*%
%LPC*%
G36*
X28399Y477879D02*
X28399Y477879D01*
X28399Y486421D01*
X35308Y486421D01*
X37103Y486137D01*
X38830Y485575D01*
X40449Y484751D01*
X41918Y483683D01*
X43203Y482398D01*
X44271Y480929D01*
X45095Y479310D01*
X45560Y477879D01*
X28399Y477879D01*
G37*
%LPD*%
%LPC*%
G36*
X460041Y414019D02*
X460041Y414019D01*
X460484Y415380D01*
X461210Y416805D01*
X462150Y418099D01*
X463281Y419230D01*
X464575Y420170D01*
X466000Y420896D01*
X467521Y421391D01*
X469100Y421641D01*
X474981Y421641D01*
X474981Y414019D01*
X460041Y414019D01*
G37*
%LPD*%
%LPC*%
G36*
X469100Y401319D02*
X469100Y401319D01*
X467521Y401569D01*
X466000Y402064D01*
X464575Y402790D01*
X463281Y403730D01*
X462150Y404861D01*
X461210Y406155D01*
X460484Y407580D01*
X460041Y408941D01*
X474981Y408941D01*
X474981Y401319D01*
X469100Y401319D01*
G37*
%LPD*%
%LPC*%
G36*
X414781Y473074D02*
X414781Y473074D01*
X414781Y483490D01*
X415752Y483490D01*
X416398Y483317D01*
X416977Y482982D01*
X417545Y482414D01*
X417576Y482371D01*
X417683Y482271D01*
X417785Y482166D01*
X417830Y482134D01*
X417870Y482097D01*
X417996Y482020D01*
X418116Y481937D01*
X418167Y481915D01*
X418214Y481886D01*
X418351Y481836D01*
X418486Y481778D01*
X418540Y481766D01*
X418591Y481747D01*
X418737Y481725D01*
X418880Y481695D01*
X418935Y481694D01*
X418989Y481686D01*
X419136Y481692D01*
X419283Y481691D01*
X419337Y481701D01*
X419392Y481704D01*
X419534Y481739D01*
X419678Y481767D01*
X419729Y481787D01*
X419782Y481801D01*
X419915Y481863D01*
X420051Y481919D01*
X420097Y481949D01*
X420146Y481973D01*
X420264Y482060D01*
X420386Y482142D01*
X420425Y482181D01*
X420469Y482213D01*
X420567Y482322D01*
X420671Y482426D01*
X420680Y482439D01*
X421223Y482982D01*
X421802Y483317D01*
X422448Y483490D01*
X423419Y483490D01*
X423419Y473074D01*
X414781Y473074D01*
G37*
%LPD*%
%LPC*%
G36*
X402081Y473074D02*
X402081Y473074D01*
X402081Y483490D01*
X403052Y483490D01*
X403698Y483317D01*
X404277Y482982D01*
X404845Y482414D01*
X404876Y482371D01*
X404983Y482271D01*
X405085Y482166D01*
X405130Y482134D01*
X405170Y482097D01*
X405296Y482020D01*
X405416Y481937D01*
X405467Y481915D01*
X405514Y481886D01*
X405651Y481836D01*
X405786Y481778D01*
X405840Y481766D01*
X405891Y481747D01*
X406037Y481725D01*
X406180Y481695D01*
X406235Y481694D01*
X406289Y481686D01*
X406436Y481692D01*
X406583Y481691D01*
X406637Y481701D01*
X406692Y481704D01*
X406834Y481739D01*
X406978Y481767D01*
X407029Y481787D01*
X407082Y481801D01*
X407215Y481863D01*
X407351Y481919D01*
X407397Y481949D01*
X407446Y481973D01*
X407564Y482060D01*
X407686Y482142D01*
X407725Y482181D01*
X407769Y482213D01*
X407867Y482322D01*
X407971Y482426D01*
X407980Y482439D01*
X408523Y482982D01*
X409102Y483317D01*
X409748Y483490D01*
X410719Y483490D01*
X410719Y473074D01*
X402081Y473074D01*
G37*
%LPD*%
%LPC*%
G36*
X376681Y473074D02*
X376681Y473074D01*
X376681Y483490D01*
X377652Y483490D01*
X378298Y483317D01*
X378877Y482982D01*
X379445Y482414D01*
X379476Y482371D01*
X379583Y482271D01*
X379685Y482166D01*
X379730Y482134D01*
X379770Y482097D01*
X379896Y482020D01*
X380016Y481937D01*
X380067Y481915D01*
X380114Y481886D01*
X380251Y481836D01*
X380386Y481778D01*
X380440Y481766D01*
X380491Y481747D01*
X380637Y481725D01*
X380780Y481695D01*
X380835Y481694D01*
X380889Y481686D01*
X381036Y481692D01*
X381183Y481691D01*
X381237Y481701D01*
X381292Y481704D01*
X381434Y481739D01*
X381578Y481767D01*
X381629Y481787D01*
X381682Y481801D01*
X381815Y481863D01*
X381951Y481919D01*
X381997Y481949D01*
X382046Y481973D01*
X382164Y482060D01*
X382286Y482142D01*
X382325Y482181D01*
X382369Y482213D01*
X382467Y482322D01*
X382571Y482426D01*
X382580Y482439D01*
X383123Y482982D01*
X383702Y483317D01*
X384348Y483490D01*
X385319Y483490D01*
X385319Y473074D01*
X376681Y473074D01*
G37*
%LPD*%
%LPC*%
G36*
X389381Y379348D02*
X389381Y379348D01*
X389381Y389764D01*
X390352Y389764D01*
X390998Y389591D01*
X391577Y389256D01*
X392144Y388689D01*
X392175Y388646D01*
X392282Y388546D01*
X392384Y388440D01*
X392429Y388409D01*
X392470Y388372D01*
X392595Y388295D01*
X392715Y388211D01*
X392766Y388190D01*
X392813Y388161D01*
X392951Y388110D01*
X393085Y388052D01*
X393139Y388041D01*
X393190Y388022D01*
X393336Y387999D01*
X393479Y387969D01*
X393534Y387968D01*
X393588Y387960D01*
X393734Y387966D01*
X393882Y387965D01*
X393936Y387975D01*
X393990Y387977D01*
X394132Y388013D01*
X394277Y388040D01*
X394328Y388061D01*
X394381Y388074D01*
X394514Y388137D01*
X394650Y388192D01*
X394696Y388223D01*
X394745Y388246D01*
X394863Y388334D01*
X394985Y388415D01*
X395024Y388454D01*
X395068Y388487D01*
X395167Y388596D01*
X395270Y388699D01*
X395279Y388713D01*
X395823Y389256D01*
X396402Y389591D01*
X397048Y389764D01*
X398019Y389764D01*
X398019Y379348D01*
X389381Y379348D01*
G37*
%LPD*%
%LPC*%
G36*
X414781Y379348D02*
X414781Y379348D01*
X414781Y389764D01*
X415752Y389764D01*
X416398Y389591D01*
X416977Y389256D01*
X417544Y388689D01*
X417575Y388646D01*
X417682Y388546D01*
X417784Y388440D01*
X417829Y388409D01*
X417870Y388372D01*
X417995Y388295D01*
X418115Y388211D01*
X418166Y388190D01*
X418213Y388161D01*
X418351Y388110D01*
X418485Y388052D01*
X418539Y388041D01*
X418590Y388022D01*
X418736Y387999D01*
X418879Y387969D01*
X418934Y387968D01*
X418988Y387960D01*
X419134Y387966D01*
X419282Y387965D01*
X419336Y387975D01*
X419390Y387977D01*
X419532Y388013D01*
X419677Y388040D01*
X419728Y388061D01*
X419781Y388074D01*
X419914Y388137D01*
X420050Y388192D01*
X420096Y388223D01*
X420145Y388246D01*
X420263Y388334D01*
X420385Y388415D01*
X420424Y388454D01*
X420468Y388487D01*
X420567Y388596D01*
X420670Y388699D01*
X420679Y388713D01*
X421223Y389256D01*
X421802Y389591D01*
X422448Y389764D01*
X423419Y389764D01*
X423419Y379348D01*
X414781Y379348D01*
G37*
%LPD*%
%LPC*%
G36*
X402081Y379348D02*
X402081Y379348D01*
X402081Y389764D01*
X403052Y389764D01*
X403698Y389591D01*
X404277Y389256D01*
X404844Y388689D01*
X404875Y388646D01*
X404982Y388546D01*
X405084Y388440D01*
X405129Y388409D01*
X405170Y388372D01*
X405295Y388295D01*
X405415Y388211D01*
X405466Y388190D01*
X405513Y388161D01*
X405651Y388110D01*
X405785Y388052D01*
X405839Y388041D01*
X405890Y388022D01*
X406036Y387999D01*
X406179Y387969D01*
X406234Y387968D01*
X406288Y387960D01*
X406434Y387966D01*
X406582Y387965D01*
X406636Y387975D01*
X406690Y387977D01*
X406832Y388013D01*
X406977Y388040D01*
X407028Y388061D01*
X407081Y388074D01*
X407214Y388137D01*
X407350Y388192D01*
X407396Y388223D01*
X407445Y388246D01*
X407563Y388334D01*
X407685Y388415D01*
X407724Y388454D01*
X407768Y388487D01*
X407867Y388596D01*
X407970Y388699D01*
X407979Y388713D01*
X408523Y389256D01*
X409102Y389591D01*
X409748Y389764D01*
X410719Y389764D01*
X410719Y379348D01*
X402081Y379348D01*
G37*
%LPD*%
%LPC*%
G36*
X389381Y473074D02*
X389381Y473074D01*
X389381Y483490D01*
X390352Y483490D01*
X390998Y483317D01*
X391577Y482982D01*
X392144Y482415D01*
X392175Y482372D01*
X392282Y482272D01*
X392384Y482166D01*
X392429Y482135D01*
X392470Y482098D01*
X392595Y482021D01*
X392715Y481937D01*
X392766Y481916D01*
X392813Y481887D01*
X392951Y481836D01*
X393085Y481778D01*
X393139Y481767D01*
X393190Y481748D01*
X393336Y481725D01*
X393479Y481695D01*
X393534Y481694D01*
X393588Y481686D01*
X393734Y481692D01*
X393882Y481691D01*
X393936Y481701D01*
X393990Y481703D01*
X394132Y481739D01*
X394277Y481766D01*
X394328Y481787D01*
X394381Y481800D01*
X394514Y481863D01*
X394650Y481918D01*
X394696Y481949D01*
X394745Y481972D01*
X394863Y482060D01*
X394985Y482141D01*
X395024Y482180D01*
X395068Y482213D01*
X395167Y482322D01*
X395270Y482425D01*
X395279Y482439D01*
X395823Y482982D01*
X396402Y483317D01*
X397048Y483490D01*
X398019Y483490D01*
X398019Y473074D01*
X389381Y473074D01*
G37*
%LPD*%
%LPC*%
G36*
X376681Y458596D02*
X376681Y458596D01*
X376681Y469012D01*
X385319Y469012D01*
X385319Y458596D01*
X384348Y458596D01*
X383702Y458769D01*
X383123Y459104D01*
X382555Y459672D01*
X382524Y459715D01*
X382417Y459815D01*
X382315Y459920D01*
X382270Y459952D01*
X382230Y459989D01*
X382104Y460066D01*
X381984Y460149D01*
X381933Y460171D01*
X381886Y460200D01*
X381749Y460250D01*
X381614Y460308D01*
X381560Y460320D01*
X381509Y460339D01*
X381363Y460361D01*
X381220Y460391D01*
X381165Y460392D01*
X381111Y460400D01*
X380964Y460394D01*
X380817Y460395D01*
X380763Y460385D01*
X380708Y460382D01*
X380566Y460347D01*
X380422Y460319D01*
X380371Y460299D01*
X380318Y460285D01*
X380185Y460223D01*
X380049Y460167D01*
X380003Y460137D01*
X379954Y460113D01*
X379836Y460026D01*
X379714Y459944D01*
X379675Y459905D01*
X379631Y459873D01*
X379533Y459764D01*
X379429Y459660D01*
X379420Y459647D01*
X378877Y459104D01*
X378298Y458769D01*
X377652Y458596D01*
X376681Y458596D01*
G37*
%LPD*%
%LPC*%
G36*
X402081Y364870D02*
X402081Y364870D01*
X402081Y375286D01*
X410719Y375286D01*
X410719Y364870D01*
X409748Y364870D01*
X409102Y365043D01*
X408523Y365378D01*
X407955Y365946D01*
X407924Y365989D01*
X407817Y366089D01*
X407715Y366194D01*
X407670Y366226D01*
X407630Y366263D01*
X407504Y366340D01*
X407384Y366423D01*
X407333Y366445D01*
X407286Y366474D01*
X407149Y366524D01*
X407014Y366582D01*
X406960Y366594D01*
X406909Y366613D01*
X406763Y366635D01*
X406620Y366665D01*
X406565Y366666D01*
X406511Y366674D01*
X406364Y366668D01*
X406217Y366669D01*
X406163Y366659D01*
X406108Y366656D01*
X405966Y366621D01*
X405822Y366593D01*
X405771Y366573D01*
X405718Y366559D01*
X405585Y366497D01*
X405449Y366441D01*
X405403Y366411D01*
X405354Y366387D01*
X405236Y366300D01*
X405114Y366218D01*
X405075Y366179D01*
X405031Y366147D01*
X404933Y366038D01*
X404829Y365934D01*
X404820Y365921D01*
X404277Y365378D01*
X403698Y365043D01*
X403052Y364870D01*
X402081Y364870D01*
G37*
%LPD*%
%LPC*%
G36*
X414781Y364870D02*
X414781Y364870D01*
X414781Y375286D01*
X423419Y375286D01*
X423419Y364870D01*
X422448Y364870D01*
X421802Y365043D01*
X421223Y365378D01*
X420655Y365946D01*
X420624Y365989D01*
X420517Y366089D01*
X420415Y366194D01*
X420370Y366226D01*
X420330Y366263D01*
X420204Y366340D01*
X420084Y366423D01*
X420033Y366445D01*
X419986Y366474D01*
X419849Y366524D01*
X419714Y366582D01*
X419660Y366594D01*
X419609Y366613D01*
X419463Y366635D01*
X419320Y366665D01*
X419265Y366666D01*
X419211Y366674D01*
X419064Y366668D01*
X418917Y366669D01*
X418863Y366659D01*
X418808Y366656D01*
X418666Y366621D01*
X418522Y366593D01*
X418471Y366573D01*
X418418Y366559D01*
X418285Y366497D01*
X418149Y366441D01*
X418103Y366411D01*
X418054Y366387D01*
X417936Y366300D01*
X417814Y366218D01*
X417775Y366179D01*
X417731Y366147D01*
X417633Y366038D01*
X417529Y365934D01*
X417520Y365921D01*
X416977Y365378D01*
X416398Y365043D01*
X415752Y364870D01*
X414781Y364870D01*
G37*
%LPD*%
%LPC*%
G36*
X389381Y458596D02*
X389381Y458596D01*
X389381Y469012D01*
X398019Y469012D01*
X398019Y458596D01*
X397048Y458596D01*
X396402Y458769D01*
X395823Y459104D01*
X395256Y459671D01*
X395225Y459714D01*
X395118Y459814D01*
X395016Y459920D01*
X394971Y459951D01*
X394930Y459988D01*
X394805Y460065D01*
X394685Y460149D01*
X394634Y460170D01*
X394587Y460199D01*
X394449Y460250D01*
X394315Y460308D01*
X394261Y460319D01*
X394210Y460338D01*
X394064Y460361D01*
X393921Y460391D01*
X393866Y460392D01*
X393812Y460400D01*
X393666Y460394D01*
X393518Y460395D01*
X393464Y460385D01*
X393410Y460383D01*
X393268Y460347D01*
X393123Y460320D01*
X393072Y460299D01*
X393019Y460286D01*
X392886Y460223D01*
X392750Y460168D01*
X392704Y460137D01*
X392655Y460114D01*
X392537Y460026D01*
X392415Y459945D01*
X392376Y459906D01*
X392332Y459873D01*
X392233Y459764D01*
X392130Y459661D01*
X392121Y459647D01*
X391577Y459104D01*
X390998Y458769D01*
X390352Y458596D01*
X389381Y458596D01*
G37*
%LPD*%
%LPC*%
G36*
X414781Y458596D02*
X414781Y458596D01*
X414781Y469012D01*
X423419Y469012D01*
X423419Y458596D01*
X422448Y458596D01*
X421802Y458769D01*
X421223Y459104D01*
X420656Y459671D01*
X420625Y459714D01*
X420518Y459814D01*
X420416Y459920D01*
X420371Y459951D01*
X420330Y459988D01*
X420205Y460065D01*
X420085Y460149D01*
X420034Y460170D01*
X419987Y460199D01*
X419849Y460250D01*
X419715Y460308D01*
X419661Y460319D01*
X419610Y460338D01*
X419464Y460361D01*
X419321Y460391D01*
X419266Y460392D01*
X419212Y460400D01*
X419066Y460394D01*
X418918Y460395D01*
X418864Y460385D01*
X418810Y460383D01*
X418668Y460347D01*
X418523Y460320D01*
X418472Y460299D01*
X418419Y460286D01*
X418286Y460223D01*
X418150Y460168D01*
X418104Y460137D01*
X418055Y460114D01*
X417937Y460026D01*
X417815Y459945D01*
X417776Y459906D01*
X417732Y459873D01*
X417633Y459764D01*
X417530Y459661D01*
X417521Y459647D01*
X416977Y459104D01*
X416398Y458769D01*
X415752Y458596D01*
X414781Y458596D01*
G37*
%LPD*%
%LPC*%
G36*
X389381Y364870D02*
X389381Y364870D01*
X389381Y375286D01*
X398019Y375286D01*
X398019Y364870D01*
X397048Y364870D01*
X396402Y365043D01*
X395823Y365378D01*
X395256Y365945D01*
X395225Y365988D01*
X395118Y366088D01*
X395016Y366194D01*
X394971Y366225D01*
X394930Y366262D01*
X394805Y366339D01*
X394685Y366423D01*
X394634Y366444D01*
X394587Y366473D01*
X394449Y366524D01*
X394315Y366582D01*
X394261Y366593D01*
X394210Y366612D01*
X394064Y366635D01*
X393921Y366665D01*
X393866Y366666D01*
X393812Y366674D01*
X393666Y366668D01*
X393518Y366669D01*
X393464Y366659D01*
X393410Y366657D01*
X393268Y366621D01*
X393123Y366594D01*
X393072Y366573D01*
X393019Y366560D01*
X392886Y366497D01*
X392750Y366442D01*
X392704Y366411D01*
X392655Y366388D01*
X392537Y366300D01*
X392415Y366219D01*
X392376Y366180D01*
X392332Y366147D01*
X392233Y366038D01*
X392130Y365935D01*
X392121Y365921D01*
X391577Y365378D01*
X390998Y365043D01*
X390352Y364870D01*
X389381Y364870D01*
G37*
%LPD*%
%LPC*%
G36*
X402081Y458596D02*
X402081Y458596D01*
X402081Y469012D01*
X410719Y469012D01*
X410719Y458596D01*
X409748Y458596D01*
X409102Y458769D01*
X408523Y459104D01*
X407956Y459671D01*
X407925Y459714D01*
X407818Y459814D01*
X407716Y459920D01*
X407671Y459951D01*
X407630Y459988D01*
X407505Y460065D01*
X407385Y460149D01*
X407334Y460170D01*
X407287Y460199D01*
X407149Y460250D01*
X407015Y460308D01*
X406961Y460319D01*
X406910Y460338D01*
X406764Y460361D01*
X406621Y460391D01*
X406566Y460392D01*
X406512Y460400D01*
X406366Y460394D01*
X406218Y460395D01*
X406164Y460385D01*
X406110Y460383D01*
X405968Y460347D01*
X405823Y460320D01*
X405772Y460299D01*
X405719Y460286D01*
X405586Y460223D01*
X405450Y460168D01*
X405404Y460137D01*
X405355Y460114D01*
X405237Y460026D01*
X405115Y459945D01*
X405076Y459906D01*
X405032Y459873D01*
X404933Y459764D01*
X404830Y459661D01*
X404821Y459647D01*
X404277Y459104D01*
X403698Y458769D01*
X403052Y458596D01*
X402081Y458596D01*
G37*
%LPD*%
%LPC*%
G36*
X74111Y463771D02*
X74111Y463771D01*
X74111Y477281D01*
X74221Y477264D01*
X75590Y476819D01*
X76873Y476165D01*
X78037Y475319D01*
X79055Y474301D01*
X79901Y473137D01*
X80555Y471854D01*
X81000Y470485D01*
X81225Y469064D01*
X81225Y463771D01*
X74111Y463771D01*
G37*
%LPD*%
%LPC*%
G36*
X74111Y459709D02*
X74111Y459709D01*
X81225Y459709D01*
X81225Y454416D01*
X81000Y452995D01*
X80555Y451626D01*
X79901Y450343D01*
X79055Y449179D01*
X78037Y448161D01*
X76873Y447315D01*
X75590Y446661D01*
X74221Y446216D01*
X74111Y446199D01*
X74111Y459709D01*
G37*
%LPD*%
%LPC*%
G36*
X62935Y463771D02*
X62935Y463771D01*
X62935Y469064D01*
X63160Y470485D01*
X63605Y471854D01*
X64259Y473137D01*
X65105Y474301D01*
X66123Y475319D01*
X67287Y476165D01*
X68570Y476819D01*
X69939Y477264D01*
X70049Y477281D01*
X70049Y463771D01*
X62935Y463771D01*
G37*
%LPD*%
%LPC*%
G36*
X69939Y446216D02*
X69939Y446216D01*
X68570Y446661D01*
X67287Y447315D01*
X66123Y448161D01*
X65105Y449179D01*
X64259Y450343D01*
X63605Y451626D01*
X63160Y452995D01*
X62935Y454416D01*
X62935Y459709D01*
X70049Y459709D01*
X70049Y446199D01*
X69939Y446216D01*
G37*
%LPD*%
%LPC*%
G36*
X289269Y38769D02*
X289269Y38769D01*
X289269Y48713D01*
X292070Y48713D01*
X299213Y41570D01*
X299213Y38769D01*
X289269Y38769D01*
G37*
%LPD*%
%LPC*%
G36*
X289269Y24327D02*
X289269Y24327D01*
X289269Y34271D01*
X299213Y34271D01*
X299213Y31470D01*
X292070Y24327D01*
X289269Y24327D01*
G37*
%LPD*%
%LPC*%
G36*
X274827Y38769D02*
X274827Y38769D01*
X274827Y41570D01*
X281970Y48713D01*
X284771Y48713D01*
X284771Y38769D01*
X274827Y38769D01*
G37*
%LPD*%
%LPC*%
G36*
X281970Y24327D02*
X281970Y24327D01*
X274827Y31470D01*
X274827Y34271D01*
X284771Y34271D01*
X284771Y24327D01*
X281970Y24327D01*
G37*
%LPD*%
%LPC*%
G36*
X461565Y134299D02*
X461565Y134299D01*
X460919Y134472D01*
X460340Y134807D01*
X459867Y135280D01*
X459532Y135859D01*
X459359Y136505D01*
X459359Y144341D01*
X465901Y144341D01*
X465901Y134299D01*
X461565Y134299D01*
G37*
%LPD*%
%LPC*%
G36*
X45311Y402731D02*
X45311Y402731D01*
X45311Y411309D01*
X45808Y411230D01*
X47424Y410705D01*
X48938Y409933D01*
X50313Y408935D01*
X51515Y407733D01*
X52513Y406358D01*
X53285Y404844D01*
X53779Y403323D01*
X53812Y403248D01*
X53836Y403169D01*
X53893Y403064D01*
X53893Y403062D01*
X53881Y402949D01*
X53885Y402904D01*
X53883Y402869D01*
X53897Y402744D01*
X53898Y402731D01*
X45311Y402731D01*
G37*
%LPD*%
%LPC*%
G36*
X45311Y398669D02*
X45311Y398669D01*
X53889Y398669D01*
X53810Y398172D01*
X53285Y396556D01*
X52513Y395042D01*
X51515Y393667D01*
X50313Y392465D01*
X48938Y391467D01*
X47424Y390695D01*
X45808Y390170D01*
X45311Y390091D01*
X45311Y398669D01*
G37*
%LPD*%
%LPC*%
G36*
X450509Y36769D02*
X450509Y36769D01*
X450509Y43061D01*
X454595Y43061D01*
X455241Y42888D01*
X455820Y42553D01*
X456293Y42080D01*
X456628Y41501D01*
X456801Y40855D01*
X456801Y36769D01*
X450509Y36769D01*
G37*
%LPD*%
%LPC*%
G36*
X436719Y36769D02*
X436719Y36769D01*
X436719Y40855D01*
X436892Y41501D01*
X437227Y42080D01*
X437700Y42553D01*
X438279Y42888D01*
X438925Y43061D01*
X443011Y43061D01*
X443011Y36769D01*
X436719Y36769D01*
G37*
%LPD*%
%LPC*%
G36*
X450509Y22979D02*
X450509Y22979D01*
X450509Y29271D01*
X456801Y29271D01*
X456801Y25185D01*
X456628Y24539D01*
X456293Y23960D01*
X455820Y23487D01*
X455241Y23152D01*
X454595Y22979D01*
X450509Y22979D01*
G37*
%LPD*%
%LPC*%
G36*
X438925Y22979D02*
X438925Y22979D01*
X438279Y23152D01*
X437700Y23487D01*
X437227Y23960D01*
X436892Y24539D01*
X436719Y25185D01*
X436719Y29271D01*
X443011Y29271D01*
X443011Y22979D01*
X438925Y22979D01*
G37*
%LPD*%
%LPC*%
G36*
X428991Y321671D02*
X428991Y321671D01*
X428991Y328785D01*
X430748Y328785D01*
X436105Y323428D01*
X436105Y321671D01*
X428991Y321671D01*
G37*
%LPD*%
%LPC*%
G36*
X70231Y361551D02*
X70231Y361551D01*
X70231Y368665D01*
X71988Y368665D01*
X77345Y363308D01*
X77345Y361551D01*
X70231Y361551D01*
G37*
%LPD*%
%LPC*%
G36*
X417815Y321671D02*
X417815Y321671D01*
X417815Y323428D01*
X423172Y328785D01*
X424929Y328785D01*
X424929Y321671D01*
X417815Y321671D01*
G37*
%LPD*%
%LPC*%
G36*
X59055Y361551D02*
X59055Y361551D01*
X59055Y363308D01*
X64412Y368665D01*
X66169Y368665D01*
X66169Y361551D01*
X59055Y361551D01*
G37*
%LPD*%
%LPC*%
G36*
X428991Y310495D02*
X428991Y310495D01*
X428991Y317609D01*
X436105Y317609D01*
X436105Y315852D01*
X430748Y310495D01*
X428991Y310495D01*
G37*
%LPD*%
%LPC*%
G36*
X70231Y350375D02*
X70231Y350375D01*
X70231Y357489D01*
X77345Y357489D01*
X77345Y355732D01*
X71988Y350375D01*
X70231Y350375D01*
G37*
%LPD*%
%LPC*%
G36*
X293115Y400811D02*
X293115Y400811D01*
X293115Y402568D01*
X298472Y407925D01*
X300229Y407925D01*
X300229Y400811D01*
X293115Y400811D01*
G37*
%LPD*%
%LPC*%
G36*
X298472Y389635D02*
X298472Y389635D01*
X293115Y394992D01*
X293115Y396749D01*
X300229Y396749D01*
X300229Y389635D01*
X298472Y389635D01*
G37*
%LPD*%
%LPC*%
G36*
X423172Y310495D02*
X423172Y310495D01*
X417815Y315852D01*
X417815Y317609D01*
X424929Y317609D01*
X424929Y310495D01*
X423172Y310495D01*
G37*
%LPD*%
%LPC*%
G36*
X64412Y350375D02*
X64412Y350375D01*
X59055Y355732D01*
X59055Y357489D01*
X66169Y357489D01*
X66169Y350375D01*
X64412Y350375D01*
G37*
%LPD*%
%LPC*%
G36*
X427481Y379348D02*
X427481Y379348D01*
X427481Y389764D01*
X428452Y389764D01*
X429098Y389591D01*
X429520Y389347D01*
X429645Y389290D01*
X429767Y389226D01*
X429828Y389208D01*
X429887Y389181D01*
X430021Y389150D01*
X430034Y389146D01*
X430064Y389059D01*
X430099Y388926D01*
X430130Y388859D01*
X430148Y388807D01*
X430188Y388738D01*
X430241Y388626D01*
X430485Y388204D01*
X430658Y387558D01*
X430658Y379348D01*
X427481Y379348D01*
G37*
%LPD*%
%LPC*%
G36*
X427481Y473074D02*
X427481Y473074D01*
X427481Y483490D01*
X428452Y483490D01*
X429098Y483317D01*
X429677Y482982D01*
X430150Y482509D01*
X430485Y481930D01*
X430658Y481284D01*
X430658Y473074D01*
X427481Y473074D01*
G37*
%LPD*%
%LPC*%
G36*
X427481Y364870D02*
X427481Y364870D01*
X427481Y375286D01*
X430658Y375286D01*
X430658Y367076D01*
X430485Y366430D01*
X430150Y365851D01*
X429677Y365378D01*
X429098Y365043D01*
X428452Y364870D01*
X427481Y364870D01*
G37*
%LPD*%
%LPC*%
G36*
X427481Y458596D02*
X427481Y458596D01*
X427481Y469012D01*
X430658Y469012D01*
X430658Y460802D01*
X430485Y460156D01*
X430150Y459577D01*
X429677Y459104D01*
X429098Y458769D01*
X428452Y458596D01*
X427481Y458596D01*
G37*
%LPD*%
D10*
X27780Y222180D03*
X103980Y222180D03*
D11*
X122880Y455136D02*
X122880Y468344D01*
X72080Y468344D02*
X72080Y455136D01*
X97480Y455136D02*
X97480Y468344D01*
D12*
X401080Y277260D03*
X299480Y277260D03*
X426960Y319640D03*
X299960Y319640D03*
D13*
X58820Y52134D02*
X58820Y34227D01*
X108820Y34227D02*
X108820Y52134D01*
D14*
X27940Y112840D02*
X27940Y125920D01*
X53340Y125920D02*
X53340Y112840D01*
X154940Y189040D02*
X154940Y202120D01*
X27940Y202120D02*
X27940Y189040D01*
X53340Y189040D02*
X53340Y202120D01*
D15*
X182880Y262320D02*
X198120Y262320D01*
X198120Y287720D02*
X182880Y287720D01*
X182880Y313120D02*
X198120Y313120D01*
D16*
X17400Y359520D03*
X68200Y359520D03*
D17*
X34400Y449480D02*
X16400Y449480D01*
X16400Y474880D02*
X34400Y474880D01*
D18*
X17880Y400700D03*
D19*
X43280Y400700D03*
D15*
X469900Y309880D02*
X485140Y309880D01*
X485140Y335280D02*
X469900Y335280D01*
X469900Y360680D02*
X485140Y360680D01*
X485140Y386080D02*
X469900Y386080D01*
X469900Y411480D02*
X485140Y411480D01*
X485140Y436880D02*
X469900Y436880D01*
D20*
X287020Y236520D03*
D21*
X287020Y36520D03*
D22*
X336550Y377317D03*
X349250Y377317D03*
X361950Y377317D03*
X374650Y377317D03*
X387350Y377317D03*
X400050Y377317D03*
X412750Y377317D03*
X425450Y377317D03*
X425450Y471043D03*
X412750Y471043D03*
X400050Y471043D03*
X387350Y471043D03*
X374650Y471043D03*
X361950Y471043D03*
X349250Y471043D03*
X336550Y471043D03*
D23*
X254000Y308860D03*
X254000Y280420D03*
D24*
X446760Y33020D03*
X411760Y33020D03*
D25*
X467360Y203200D03*
X441960Y203200D03*
X467360Y228600D03*
X441960Y228600D03*
X467360Y254000D03*
X441960Y254000D03*
D26*
X469900Y148340D03*
X469900Y85340D03*
D23*
X421640Y128020D03*
X421640Y156460D03*
D27*
X302260Y449580D03*
X302260Y398780D03*
D28*
X301625Y398463D02*
X301625Y361950D01*
X301625Y398463D02*
X302260Y398780D01*
X66675Y377825D02*
X44450Y400050D01*
X66675Y377825D02*
X66675Y360363D01*
X44450Y400050D02*
X43280Y400700D01*
X66675Y360363D02*
X68200Y359520D01*
X447675Y33338D02*
X454025Y39688D01*
X454025Y146653D01*
X447675Y33338D02*
X446760Y33020D01*
X454025Y146653D02*
X469900Y148340D01*
X287338Y36513D02*
X287020Y36520D01*
X446088Y31750D02*
X446760Y33020D01*
X301625Y481013D02*
X312738Y492125D01*
X374650Y492125D01*
X374650Y471488D01*
X387350Y471488D01*
X374650Y471488D02*
X374650Y471043D01*
X387350Y471488D02*
X400050Y471488D01*
X387350Y471488D02*
X387350Y471043D01*
X400050Y471488D02*
X412750Y471488D01*
X400050Y471488D02*
X400050Y471043D01*
X412750Y471488D02*
X425450Y471488D01*
X425450Y471043D01*
X412750Y471043D02*
X412750Y471488D01*
X425450Y463550D02*
X477520Y411480D01*
X425450Y463550D02*
X425450Y471043D01*
X400050Y377825D02*
X387350Y377825D01*
X387350Y377317D01*
X400050Y377825D02*
X412750Y377825D01*
X425450Y377825D01*
X425450Y377317D01*
X412750Y377317D02*
X412750Y377825D01*
X425450Y377317D02*
X425450Y320675D01*
X426960Y319640D01*
X427038Y319088D02*
X439738Y306388D01*
X439738Y266700D01*
X427038Y319088D02*
X426960Y319640D01*
X441960Y263366D02*
X441960Y254000D01*
X441960Y263366D02*
X439738Y266700D01*
X400050Y377825D02*
X400050Y471043D01*
X400050Y377825D02*
X400050Y377317D01*
X92075Y481013D02*
X73025Y461963D01*
X92075Y481013D02*
X301625Y481013D01*
X73025Y461963D02*
X72080Y461740D01*
D29*
X301625Y361950D03*
X301625Y481013D03*
D28*
X287338Y36513D02*
X347028Y36513D01*
X368300Y15240D01*
X441680Y15240D01*
X446760Y33020D01*
X169863Y287338D02*
X104775Y222250D01*
X169863Y287338D02*
X169863Y292100D01*
X190500Y312738D01*
X104775Y222250D02*
X103980Y222180D01*
X190500Y312738D02*
X190500Y313120D01*
X421890Y156460D02*
X433388Y167958D01*
X421890Y156460D02*
X421640Y156460D01*
X433388Y167958D02*
X433388Y194628D01*
X441960Y203200D01*
X354013Y371475D02*
X349250Y376238D01*
X354013Y371475D02*
X354013Y341313D01*
X372269Y323056D02*
X427038Y268288D01*
X372269Y323056D02*
X354013Y341313D01*
X427038Y268288D02*
X427038Y209973D01*
X349250Y376238D02*
X349250Y377317D01*
X441960Y203200D02*
X440937Y202177D01*
X434834Y202177D01*
X427038Y209973D01*
X374650Y323850D02*
X373063Y323850D01*
X372269Y323056D01*
X349250Y377317D02*
X349250Y438150D01*
X190500Y373063D02*
X190500Y313120D01*
D29*
X374650Y323850D03*
X349250Y438150D03*
X190500Y373063D03*
D28*
X263525Y422275D02*
X269875Y415925D01*
X269875Y354013D01*
D29*
X263525Y422275D03*
X269875Y354013D03*
D28*
X344488Y454025D02*
X349250Y458788D01*
X349250Y471043D01*
X346075Y454025D02*
X357188Y442913D01*
X357188Y409575D01*
X346075Y454025D02*
X344488Y454025D01*
D29*
X344488Y454025D03*
X357188Y409575D03*
D28*
X336550Y449263D02*
X317500Y430213D01*
X336550Y449263D02*
X336550Y471043D01*
X457200Y317500D02*
X447675Y307975D01*
X457200Y317500D02*
X457200Y341313D01*
X476250Y360363D01*
X477520Y360680D01*
X317500Y430213D02*
X314325Y427038D01*
X314325Y377825D01*
X309563Y373063D01*
X309563Y357188D01*
X379413Y287338D01*
D29*
X317500Y430213D03*
X447675Y307975D03*
X379413Y287338D03*
D28*
X231775Y388938D02*
X223838Y396875D01*
X231775Y388938D02*
X231775Y320675D01*
D29*
X223838Y396875D03*
X231775Y320675D03*
D28*
X361950Y471488D02*
X357188Y476250D01*
X357188Y482600D01*
X354013Y485775D01*
X314325Y485775D01*
X314325Y438150D01*
X284163Y407988D01*
X284163Y238125D01*
X285750Y236538D01*
X361950Y471043D02*
X361950Y471488D01*
X287020Y236520D02*
X285750Y236538D01*
X17463Y360363D02*
X17463Y400050D01*
X17463Y360363D02*
X17400Y359520D01*
X17463Y400050D02*
X17880Y400700D01*
X19050Y442913D02*
X25400Y449263D01*
X19050Y442913D02*
X19050Y401638D01*
X25400Y449263D02*
X25400Y449480D01*
X19050Y401638D02*
X17880Y400700D01*
X28575Y220663D02*
X28575Y196850D01*
X27940Y195580D01*
X28575Y220663D02*
X27780Y222180D01*
X104775Y442913D02*
X122238Y460375D01*
X104775Y442913D02*
X104775Y298450D01*
X28575Y222250D01*
X122238Y460375D02*
X122880Y461740D01*
X28575Y222250D02*
X27780Y222180D01*
D30*
X109538Y150813D02*
X153988Y195263D01*
X109538Y150813D02*
X109538Y44450D01*
X153988Y195263D02*
X154940Y195580D01*
X109538Y44450D02*
X108820Y43180D01*
X58738Y114300D02*
X53975Y119063D01*
X58738Y114300D02*
X58738Y44450D01*
X53975Y119063D02*
X53340Y119380D01*
X58738Y44450D02*
X58820Y43180D01*
D28*
X361950Y377317D02*
X361950Y393700D01*
X361950Y371475D02*
X373063Y360363D01*
X361950Y371475D02*
X361950Y377317D01*
D29*
X361950Y393700D03*
X373063Y360363D03*
D28*
X293688Y376238D02*
X292100Y377825D01*
X293688Y376238D02*
X293688Y344488D01*
X381000Y257175D01*
D29*
X292100Y377825D03*
X381000Y257175D03*
D28*
X239713Y427038D02*
X196850Y469900D01*
X239713Y427038D02*
X239713Y247650D01*
D29*
X196850Y469900D03*
X239713Y247650D03*
D28*
X254000Y190500D02*
X411163Y33338D01*
X254000Y190500D02*
X254000Y280420D01*
X411163Y33338D02*
X411760Y33020D01*
X215900Y282575D02*
X215900Y439738D01*
X215900Y282575D02*
X231775Y266700D01*
D29*
X215900Y439738D03*
X231775Y266700D03*
D28*
X407988Y422275D02*
X455613Y374650D01*
X455613Y357188D01*
D29*
X407988Y422275D03*
X455613Y357188D03*
D28*
X254000Y395288D02*
X247650Y401638D01*
X254000Y395288D02*
X254000Y308860D01*
D29*
X247650Y401638D03*
D28*
X317500Y369888D02*
X388938Y298450D01*
X388938Y165100D01*
X420082Y133955D01*
X421640Y128020D01*
X442278Y138748D02*
X442278Y160338D01*
X451168Y169228D01*
X478473Y169228D01*
X487045Y160655D01*
X487045Y120873D01*
X442278Y138748D02*
X431550Y128020D01*
X421640Y128020D01*
X469900Y102512D02*
X487045Y120873D01*
X469900Y102512D02*
X469900Y85340D01*
D29*
X317500Y369888D03*
M02*
