M48
;GenerationSoftware,Autodesk,EAGLE,9.3.1*%
;CreationDate,2019-03-26T20:59:31Z*%
FMAT,2
ICI,OFF
METRIC,TZ,000.000
T12C0.381
T11C0.700
T10C0.800
T9C0.813
T8C0.900
T7C0.914
T6C1.000
T5C1.016
T4C1.194
T3C2.000
T2C3.302
%
G90
M71
T2
X17202Y17526
T3
X41968Y9002
X7968Y41002
T4
X5882Y4318
X10882Y4318
T5
X47752Y36068
X19742Y32512
X17202Y32512
X14662Y32512
X47752Y30988
X47752Y33528
X47752Y38608
X47752Y41148
X47752Y43688
X46736Y20320
X44196Y20320
X46736Y22860
X44196Y22860
X46736Y25400
X44196Y25400
T6
X10620Y33274
T7
X38862Y24130
X38862Y21590
T8
X17764Y35680
X25384Y35680
X28702Y3652
X28702Y23652
T9
X12562Y37808
X30226Y44958
X30226Y39878
X40894Y31242
X28194Y31242
X7366Y45974
X12446Y45974
X9906Y45974
X12562Y42888
X30710Y27726
X40870Y27726
T10
X7620Y28474
X9906Y22606
X9906Y25146
X9906Y12446
X2286Y22606
X2286Y25146
X4620Y33274
T11
X1788Y45912
X4328Y45912
T12
X42609Y39395
X20955Y34366
X42469Y42748
X33947Y35903
X26403Y41770
X30315Y35624
X34925Y42888
X26403Y44844
X44285Y29058
X27241Y30315
X29896Y37579
X35065Y35624
X20536Y44704
X22073Y33249
X20396Y39675
X27102Y46380
X39395Y44564
X48196Y23609
X23050Y31153
M30