G75*
%MOIN*%
%OFA0B0*%
%FSLAX25Y25*%
%IPPOS*%
%LPD*%
%AMOC8*
5,1,8,0,0,1.08239X$1,22.5*
%
%ADD10C,0.00000*%
%ADD11C,0.00200*%
%ADD12C,0.00300*%
%ADD13C,0.00394*%
%ADD14C,0.00800*%
%ADD15C,0.00100*%
%ADD16C,0.00500*%
%ADD17C,0.00600*%
%ADD18R,0.03400X0.02400*%
%ADD19C,0.00400*%
%ADD20C,0.00700*%
%ADD21R,0.03500X0.05000*%
%ADD22C,0.00060*%
%ADD23C,0.01200*%
%ADD24C,0.01000*%
%ADD25R,0.01673X0.01280*%
%ADD26R,0.01378X0.01378*%
D10*
X0004541Y0011008D02*
X0201391Y0011008D01*
X0201391Y0207858D01*
X0004541Y0207858D01*
X0004541Y0011008D01*
X0014167Y0124276D02*
X0014169Y0124437D01*
X0014175Y0124597D01*
X0014185Y0124758D01*
X0014199Y0124918D01*
X0014217Y0125078D01*
X0014238Y0125237D01*
X0014264Y0125396D01*
X0014294Y0125554D01*
X0014327Y0125711D01*
X0014365Y0125868D01*
X0014406Y0126023D01*
X0014451Y0126177D01*
X0014500Y0126330D01*
X0014553Y0126482D01*
X0014609Y0126633D01*
X0014670Y0126782D01*
X0014733Y0126930D01*
X0014801Y0127076D01*
X0014872Y0127220D01*
X0014946Y0127362D01*
X0015024Y0127503D01*
X0015106Y0127641D01*
X0015191Y0127778D01*
X0015279Y0127912D01*
X0015371Y0128044D01*
X0015466Y0128174D01*
X0015564Y0128302D01*
X0015665Y0128427D01*
X0015769Y0128549D01*
X0015876Y0128669D01*
X0015986Y0128786D01*
X0016099Y0128901D01*
X0016215Y0129012D01*
X0016334Y0129121D01*
X0016455Y0129226D01*
X0016579Y0129329D01*
X0016705Y0129429D01*
X0016833Y0129525D01*
X0016964Y0129618D01*
X0017098Y0129708D01*
X0017233Y0129795D01*
X0017371Y0129878D01*
X0017510Y0129958D01*
X0017652Y0130034D01*
X0017795Y0130107D01*
X0017940Y0130176D01*
X0018087Y0130242D01*
X0018235Y0130304D01*
X0018385Y0130362D01*
X0018536Y0130417D01*
X0018689Y0130468D01*
X0018843Y0130515D01*
X0018998Y0130558D01*
X0019154Y0130597D01*
X0019310Y0130633D01*
X0019468Y0130664D01*
X0019626Y0130692D01*
X0019785Y0130716D01*
X0019945Y0130736D01*
X0020105Y0130752D01*
X0020265Y0130764D01*
X0020426Y0130772D01*
X0020587Y0130776D01*
X0020747Y0130776D01*
X0020908Y0130772D01*
X0021069Y0130764D01*
X0021229Y0130752D01*
X0021389Y0130736D01*
X0021549Y0130716D01*
X0021708Y0130692D01*
X0021866Y0130664D01*
X0022024Y0130633D01*
X0022180Y0130597D01*
X0022336Y0130558D01*
X0022491Y0130515D01*
X0022645Y0130468D01*
X0022798Y0130417D01*
X0022949Y0130362D01*
X0023099Y0130304D01*
X0023247Y0130242D01*
X0023394Y0130176D01*
X0023539Y0130107D01*
X0023682Y0130034D01*
X0023824Y0129958D01*
X0023963Y0129878D01*
X0024101Y0129795D01*
X0024236Y0129708D01*
X0024370Y0129618D01*
X0024501Y0129525D01*
X0024629Y0129429D01*
X0024755Y0129329D01*
X0024879Y0129226D01*
X0025000Y0129121D01*
X0025119Y0129012D01*
X0025235Y0128901D01*
X0025348Y0128786D01*
X0025458Y0128669D01*
X0025565Y0128549D01*
X0025669Y0128427D01*
X0025770Y0128302D01*
X0025868Y0128174D01*
X0025963Y0128044D01*
X0026055Y0127912D01*
X0026143Y0127778D01*
X0026228Y0127641D01*
X0026310Y0127503D01*
X0026388Y0127362D01*
X0026462Y0127220D01*
X0026533Y0127076D01*
X0026601Y0126930D01*
X0026664Y0126782D01*
X0026725Y0126633D01*
X0026781Y0126482D01*
X0026834Y0126330D01*
X0026883Y0126177D01*
X0026928Y0126023D01*
X0026969Y0125868D01*
X0027007Y0125711D01*
X0027040Y0125554D01*
X0027070Y0125396D01*
X0027096Y0125237D01*
X0027117Y0125078D01*
X0027135Y0124918D01*
X0027149Y0124758D01*
X0027159Y0124597D01*
X0027165Y0124437D01*
X0027167Y0124276D01*
X0027165Y0124115D01*
X0027159Y0123955D01*
X0027149Y0123794D01*
X0027135Y0123634D01*
X0027117Y0123474D01*
X0027096Y0123315D01*
X0027070Y0123156D01*
X0027040Y0122998D01*
X0027007Y0122841D01*
X0026969Y0122684D01*
X0026928Y0122529D01*
X0026883Y0122375D01*
X0026834Y0122222D01*
X0026781Y0122070D01*
X0026725Y0121919D01*
X0026664Y0121770D01*
X0026601Y0121622D01*
X0026533Y0121476D01*
X0026462Y0121332D01*
X0026388Y0121190D01*
X0026310Y0121049D01*
X0026228Y0120911D01*
X0026143Y0120774D01*
X0026055Y0120640D01*
X0025963Y0120508D01*
X0025868Y0120378D01*
X0025770Y0120250D01*
X0025669Y0120125D01*
X0025565Y0120003D01*
X0025458Y0119883D01*
X0025348Y0119766D01*
X0025235Y0119651D01*
X0025119Y0119540D01*
X0025000Y0119431D01*
X0024879Y0119326D01*
X0024755Y0119223D01*
X0024629Y0119123D01*
X0024501Y0119027D01*
X0024370Y0118934D01*
X0024236Y0118844D01*
X0024101Y0118757D01*
X0023963Y0118674D01*
X0023824Y0118594D01*
X0023682Y0118518D01*
X0023539Y0118445D01*
X0023394Y0118376D01*
X0023247Y0118310D01*
X0023099Y0118248D01*
X0022949Y0118190D01*
X0022798Y0118135D01*
X0022645Y0118084D01*
X0022491Y0118037D01*
X0022336Y0117994D01*
X0022180Y0117955D01*
X0022024Y0117919D01*
X0021866Y0117888D01*
X0021708Y0117860D01*
X0021549Y0117836D01*
X0021389Y0117816D01*
X0021229Y0117800D01*
X0021069Y0117788D01*
X0020908Y0117780D01*
X0020747Y0117776D01*
X0020587Y0117776D01*
X0020426Y0117780D01*
X0020265Y0117788D01*
X0020105Y0117800D01*
X0019945Y0117816D01*
X0019785Y0117836D01*
X0019626Y0117860D01*
X0019468Y0117888D01*
X0019310Y0117919D01*
X0019154Y0117955D01*
X0018998Y0117994D01*
X0018843Y0118037D01*
X0018689Y0118084D01*
X0018536Y0118135D01*
X0018385Y0118190D01*
X0018235Y0118248D01*
X0018087Y0118310D01*
X0017940Y0118376D01*
X0017795Y0118445D01*
X0017652Y0118518D01*
X0017510Y0118594D01*
X0017371Y0118674D01*
X0017233Y0118757D01*
X0017098Y0118844D01*
X0016964Y0118934D01*
X0016833Y0119027D01*
X0016705Y0119123D01*
X0016579Y0119223D01*
X0016455Y0119326D01*
X0016334Y0119431D01*
X0016215Y0119540D01*
X0016099Y0119651D01*
X0015986Y0119766D01*
X0015876Y0119883D01*
X0015769Y0120003D01*
X0015665Y0120125D01*
X0015564Y0120250D01*
X0015466Y0120378D01*
X0015371Y0120508D01*
X0015279Y0120640D01*
X0015191Y0120774D01*
X0015106Y0120911D01*
X0015024Y0121049D01*
X0014946Y0121190D01*
X0014872Y0121332D01*
X0014801Y0121476D01*
X0014733Y0121622D01*
X0014670Y0121770D01*
X0014609Y0121919D01*
X0014553Y0122070D01*
X0014500Y0122222D01*
X0014451Y0122375D01*
X0014406Y0122529D01*
X0014365Y0122684D01*
X0014327Y0122841D01*
X0014294Y0122998D01*
X0014264Y0123156D01*
X0014238Y0123315D01*
X0014217Y0123474D01*
X0014199Y0123634D01*
X0014185Y0123794D01*
X0014175Y0123955D01*
X0014169Y0124115D01*
X0014167Y0124276D01*
X0032100Y0172425D02*
X0032102Y0172550D01*
X0032108Y0172675D01*
X0032118Y0172799D01*
X0032132Y0172923D01*
X0032149Y0173047D01*
X0032171Y0173170D01*
X0032197Y0173292D01*
X0032226Y0173414D01*
X0032259Y0173534D01*
X0032297Y0173653D01*
X0032337Y0173772D01*
X0032382Y0173888D01*
X0032430Y0174003D01*
X0032482Y0174117D01*
X0032538Y0174229D01*
X0032597Y0174339D01*
X0032659Y0174447D01*
X0032725Y0174554D01*
X0032794Y0174658D01*
X0032867Y0174759D01*
X0032942Y0174859D01*
X0033021Y0174956D01*
X0033103Y0175050D01*
X0033188Y0175142D01*
X0033275Y0175231D01*
X0033366Y0175317D01*
X0033459Y0175400D01*
X0033555Y0175481D01*
X0033653Y0175558D01*
X0033753Y0175632D01*
X0033856Y0175703D01*
X0033961Y0175770D01*
X0034069Y0175835D01*
X0034178Y0175895D01*
X0034289Y0175953D01*
X0034402Y0176006D01*
X0034516Y0176056D01*
X0034632Y0176103D01*
X0034749Y0176145D01*
X0034868Y0176184D01*
X0034988Y0176220D01*
X0035109Y0176251D01*
X0035231Y0176279D01*
X0035353Y0176302D01*
X0035477Y0176322D01*
X0035601Y0176338D01*
X0035725Y0176350D01*
X0035850Y0176358D01*
X0035975Y0176362D01*
X0036099Y0176362D01*
X0036224Y0176358D01*
X0036349Y0176350D01*
X0036473Y0176338D01*
X0036597Y0176322D01*
X0036721Y0176302D01*
X0036843Y0176279D01*
X0036965Y0176251D01*
X0037086Y0176220D01*
X0037206Y0176184D01*
X0037325Y0176145D01*
X0037442Y0176103D01*
X0037558Y0176056D01*
X0037672Y0176006D01*
X0037785Y0175953D01*
X0037896Y0175895D01*
X0038006Y0175835D01*
X0038113Y0175770D01*
X0038218Y0175703D01*
X0038321Y0175632D01*
X0038421Y0175558D01*
X0038519Y0175481D01*
X0038615Y0175400D01*
X0038708Y0175317D01*
X0038799Y0175231D01*
X0038886Y0175142D01*
X0038971Y0175050D01*
X0039053Y0174956D01*
X0039132Y0174859D01*
X0039207Y0174759D01*
X0039280Y0174658D01*
X0039349Y0174554D01*
X0039415Y0174447D01*
X0039477Y0174339D01*
X0039536Y0174229D01*
X0039592Y0174117D01*
X0039644Y0174003D01*
X0039692Y0173888D01*
X0039737Y0173772D01*
X0039777Y0173653D01*
X0039815Y0173534D01*
X0039848Y0173414D01*
X0039877Y0173292D01*
X0039903Y0173170D01*
X0039925Y0173047D01*
X0039942Y0172923D01*
X0039956Y0172799D01*
X0039966Y0172675D01*
X0039972Y0172550D01*
X0039974Y0172425D01*
X0039972Y0172300D01*
X0039966Y0172175D01*
X0039956Y0172051D01*
X0039942Y0171927D01*
X0039925Y0171803D01*
X0039903Y0171680D01*
X0039877Y0171558D01*
X0039848Y0171436D01*
X0039815Y0171316D01*
X0039777Y0171197D01*
X0039737Y0171078D01*
X0039692Y0170962D01*
X0039644Y0170847D01*
X0039592Y0170733D01*
X0039536Y0170621D01*
X0039477Y0170511D01*
X0039415Y0170403D01*
X0039349Y0170296D01*
X0039280Y0170192D01*
X0039207Y0170091D01*
X0039132Y0169991D01*
X0039053Y0169894D01*
X0038971Y0169800D01*
X0038886Y0169708D01*
X0038799Y0169619D01*
X0038708Y0169533D01*
X0038615Y0169450D01*
X0038519Y0169369D01*
X0038421Y0169292D01*
X0038321Y0169218D01*
X0038218Y0169147D01*
X0038113Y0169080D01*
X0038005Y0169015D01*
X0037896Y0168955D01*
X0037785Y0168897D01*
X0037672Y0168844D01*
X0037558Y0168794D01*
X0037442Y0168747D01*
X0037325Y0168705D01*
X0037206Y0168666D01*
X0037086Y0168630D01*
X0036965Y0168599D01*
X0036843Y0168571D01*
X0036721Y0168548D01*
X0036597Y0168528D01*
X0036473Y0168512D01*
X0036349Y0168500D01*
X0036224Y0168492D01*
X0036099Y0168488D01*
X0035975Y0168488D01*
X0035850Y0168492D01*
X0035725Y0168500D01*
X0035601Y0168512D01*
X0035477Y0168528D01*
X0035353Y0168548D01*
X0035231Y0168571D01*
X0035109Y0168599D01*
X0034988Y0168630D01*
X0034868Y0168666D01*
X0034749Y0168705D01*
X0034632Y0168747D01*
X0034516Y0168794D01*
X0034402Y0168844D01*
X0034289Y0168897D01*
X0034178Y0168955D01*
X0034068Y0169015D01*
X0033961Y0169080D01*
X0033856Y0169147D01*
X0033753Y0169218D01*
X0033653Y0169292D01*
X0033555Y0169369D01*
X0033459Y0169450D01*
X0033366Y0169533D01*
X0033275Y0169619D01*
X0033188Y0169708D01*
X0033103Y0169800D01*
X0033021Y0169894D01*
X0032942Y0169991D01*
X0032867Y0170091D01*
X0032794Y0170192D01*
X0032725Y0170296D01*
X0032659Y0170403D01*
X0032597Y0170511D01*
X0032538Y0170621D01*
X0032482Y0170733D01*
X0032430Y0170847D01*
X0032382Y0170962D01*
X0032337Y0171078D01*
X0032297Y0171197D01*
X0032259Y0171316D01*
X0032226Y0171436D01*
X0032197Y0171558D01*
X0032171Y0171680D01*
X0032149Y0171803D01*
X0032132Y0171927D01*
X0032118Y0172051D01*
X0032108Y0172175D01*
X0032102Y0172300D01*
X0032100Y0172425D01*
X0165958Y0046441D02*
X0165960Y0046566D01*
X0165966Y0046691D01*
X0165976Y0046815D01*
X0165990Y0046939D01*
X0166007Y0047063D01*
X0166029Y0047186D01*
X0166055Y0047308D01*
X0166084Y0047430D01*
X0166117Y0047550D01*
X0166155Y0047669D01*
X0166195Y0047788D01*
X0166240Y0047904D01*
X0166288Y0048019D01*
X0166340Y0048133D01*
X0166396Y0048245D01*
X0166455Y0048355D01*
X0166517Y0048463D01*
X0166583Y0048570D01*
X0166652Y0048674D01*
X0166725Y0048775D01*
X0166800Y0048875D01*
X0166879Y0048972D01*
X0166961Y0049066D01*
X0167046Y0049158D01*
X0167133Y0049247D01*
X0167224Y0049333D01*
X0167317Y0049416D01*
X0167413Y0049497D01*
X0167511Y0049574D01*
X0167611Y0049648D01*
X0167714Y0049719D01*
X0167819Y0049786D01*
X0167927Y0049851D01*
X0168036Y0049911D01*
X0168147Y0049969D01*
X0168260Y0050022D01*
X0168374Y0050072D01*
X0168490Y0050119D01*
X0168607Y0050161D01*
X0168726Y0050200D01*
X0168846Y0050236D01*
X0168967Y0050267D01*
X0169089Y0050295D01*
X0169211Y0050318D01*
X0169335Y0050338D01*
X0169459Y0050354D01*
X0169583Y0050366D01*
X0169708Y0050374D01*
X0169833Y0050378D01*
X0169957Y0050378D01*
X0170082Y0050374D01*
X0170207Y0050366D01*
X0170331Y0050354D01*
X0170455Y0050338D01*
X0170579Y0050318D01*
X0170701Y0050295D01*
X0170823Y0050267D01*
X0170944Y0050236D01*
X0171064Y0050200D01*
X0171183Y0050161D01*
X0171300Y0050119D01*
X0171416Y0050072D01*
X0171530Y0050022D01*
X0171643Y0049969D01*
X0171754Y0049911D01*
X0171864Y0049851D01*
X0171971Y0049786D01*
X0172076Y0049719D01*
X0172179Y0049648D01*
X0172279Y0049574D01*
X0172377Y0049497D01*
X0172473Y0049416D01*
X0172566Y0049333D01*
X0172657Y0049247D01*
X0172744Y0049158D01*
X0172829Y0049066D01*
X0172911Y0048972D01*
X0172990Y0048875D01*
X0173065Y0048775D01*
X0173138Y0048674D01*
X0173207Y0048570D01*
X0173273Y0048463D01*
X0173335Y0048355D01*
X0173394Y0048245D01*
X0173450Y0048133D01*
X0173502Y0048019D01*
X0173550Y0047904D01*
X0173595Y0047788D01*
X0173635Y0047669D01*
X0173673Y0047550D01*
X0173706Y0047430D01*
X0173735Y0047308D01*
X0173761Y0047186D01*
X0173783Y0047063D01*
X0173800Y0046939D01*
X0173814Y0046815D01*
X0173824Y0046691D01*
X0173830Y0046566D01*
X0173832Y0046441D01*
X0173830Y0046316D01*
X0173824Y0046191D01*
X0173814Y0046067D01*
X0173800Y0045943D01*
X0173783Y0045819D01*
X0173761Y0045696D01*
X0173735Y0045574D01*
X0173706Y0045452D01*
X0173673Y0045332D01*
X0173635Y0045213D01*
X0173595Y0045094D01*
X0173550Y0044978D01*
X0173502Y0044863D01*
X0173450Y0044749D01*
X0173394Y0044637D01*
X0173335Y0044527D01*
X0173273Y0044419D01*
X0173207Y0044312D01*
X0173138Y0044208D01*
X0173065Y0044107D01*
X0172990Y0044007D01*
X0172911Y0043910D01*
X0172829Y0043816D01*
X0172744Y0043724D01*
X0172657Y0043635D01*
X0172566Y0043549D01*
X0172473Y0043466D01*
X0172377Y0043385D01*
X0172279Y0043308D01*
X0172179Y0043234D01*
X0172076Y0043163D01*
X0171971Y0043096D01*
X0171863Y0043031D01*
X0171754Y0042971D01*
X0171643Y0042913D01*
X0171530Y0042860D01*
X0171416Y0042810D01*
X0171300Y0042763D01*
X0171183Y0042721D01*
X0171064Y0042682D01*
X0170944Y0042646D01*
X0170823Y0042615D01*
X0170701Y0042587D01*
X0170579Y0042564D01*
X0170455Y0042544D01*
X0170331Y0042528D01*
X0170207Y0042516D01*
X0170082Y0042508D01*
X0169957Y0042504D01*
X0169833Y0042504D01*
X0169708Y0042508D01*
X0169583Y0042516D01*
X0169459Y0042528D01*
X0169335Y0042544D01*
X0169211Y0042564D01*
X0169089Y0042587D01*
X0168967Y0042615D01*
X0168846Y0042646D01*
X0168726Y0042682D01*
X0168607Y0042721D01*
X0168490Y0042763D01*
X0168374Y0042810D01*
X0168260Y0042860D01*
X0168147Y0042913D01*
X0168036Y0042971D01*
X0167926Y0043031D01*
X0167819Y0043096D01*
X0167714Y0043163D01*
X0167611Y0043234D01*
X0167511Y0043308D01*
X0167413Y0043385D01*
X0167317Y0043466D01*
X0167224Y0043549D01*
X0167133Y0043635D01*
X0167046Y0043724D01*
X0166961Y0043816D01*
X0166879Y0043910D01*
X0166800Y0044007D01*
X0166725Y0044107D01*
X0166652Y0044208D01*
X0166583Y0044312D01*
X0166517Y0044419D01*
X0166455Y0044527D01*
X0166396Y0044637D01*
X0166340Y0044749D01*
X0166288Y0044863D01*
X0166240Y0044978D01*
X0166195Y0045094D01*
X0166155Y0045213D01*
X0166117Y0045332D01*
X0166084Y0045452D01*
X0166055Y0045574D01*
X0166029Y0045696D01*
X0166007Y0045819D01*
X0165990Y0045943D01*
X0165976Y0046067D01*
X0165966Y0046191D01*
X0165960Y0046316D01*
X0165958Y0046441D01*
D11*
X0168908Y0092100D02*
X0170376Y0092100D01*
X0171110Y0092834D01*
X0170376Y0093568D01*
X0168908Y0093568D01*
X0169275Y0094310D02*
X0170743Y0094310D01*
X0171110Y0094677D01*
X0171110Y0095411D01*
X0170743Y0095778D01*
X0170743Y0096520D02*
X0171110Y0096887D01*
X0171110Y0097621D01*
X0170743Y0097988D01*
X0169275Y0097988D02*
X0168908Y0097621D01*
X0168908Y0096887D01*
X0169275Y0096520D01*
X0170743Y0096520D01*
X0169275Y0095778D02*
X0168908Y0095411D01*
X0168908Y0094677D01*
X0169275Y0094310D01*
X0168908Y0102100D02*
X0169642Y0102834D01*
X0168908Y0103568D01*
X0171110Y0103568D01*
X0170743Y0104310D02*
X0169275Y0104310D01*
X0168908Y0104677D01*
X0168908Y0105411D01*
X0169275Y0105778D01*
X0170743Y0105778D01*
X0171110Y0105411D01*
X0171110Y0104677D01*
X0170743Y0104310D01*
X0170743Y0106520D02*
X0171110Y0106887D01*
X0171110Y0107621D01*
X0170743Y0107988D01*
X0170376Y0107988D01*
X0170009Y0107621D01*
X0170009Y0106887D01*
X0169642Y0106520D01*
X0169275Y0106520D01*
X0168908Y0106887D01*
X0168908Y0107621D01*
X0169275Y0107988D01*
X0168908Y0108730D02*
X0168908Y0109464D01*
X0168908Y0109097D02*
X0171110Y0109097D01*
X0171110Y0108730D02*
X0171110Y0109464D01*
X0170743Y0112100D02*
X0169275Y0112100D01*
X0168908Y0112467D01*
X0168908Y0113201D01*
X0169275Y0113568D01*
X0170009Y0113568D02*
X0170009Y0112834D01*
X0170009Y0113568D02*
X0170743Y0113568D01*
X0171110Y0113201D01*
X0171110Y0112467D01*
X0170743Y0112100D01*
X0171110Y0114310D02*
X0168908Y0114310D01*
X0171110Y0115778D01*
X0168908Y0115778D01*
X0168908Y0116520D02*
X0168908Y0117621D01*
X0169275Y0117988D01*
X0170743Y0117988D01*
X0171110Y0117621D01*
X0171110Y0116520D01*
X0168908Y0116520D01*
X0168908Y0102100D02*
X0171110Y0102100D01*
X0195908Y0102467D02*
X0196275Y0102100D01*
X0196642Y0102100D01*
X0197009Y0102467D01*
X0197009Y0103201D01*
X0197376Y0103568D01*
X0197743Y0103568D01*
X0198110Y0103201D01*
X0198110Y0102467D01*
X0197743Y0102100D01*
X0195908Y0102467D02*
X0195908Y0103201D01*
X0196275Y0103568D01*
X0196275Y0104310D02*
X0197743Y0104310D01*
X0198110Y0104677D01*
X0198110Y0105411D01*
X0197743Y0105778D01*
X0198110Y0106520D02*
X0195908Y0106520D01*
X0196275Y0105778D02*
X0195908Y0105411D01*
X0195908Y0104677D01*
X0196275Y0104310D01*
X0197376Y0106520D02*
X0195908Y0107988D01*
X0197009Y0106887D02*
X0198110Y0107988D01*
X0198110Y0110494D02*
X0195908Y0110494D01*
X0195908Y0111595D01*
X0196275Y0111962D01*
X0197009Y0111962D01*
X0197376Y0111595D01*
X0197376Y0110494D01*
X0197376Y0111228D02*
X0198110Y0111962D01*
X0198110Y0112704D02*
X0195908Y0112704D01*
X0195908Y0114171D01*
X0196275Y0114913D02*
X0196642Y0114913D01*
X0197009Y0115280D01*
X0197009Y0116014D01*
X0197376Y0116381D01*
X0197743Y0116381D01*
X0198110Y0116014D01*
X0198110Y0115280D01*
X0197743Y0114913D01*
X0198110Y0114171D02*
X0198110Y0112704D01*
X0197009Y0112704D02*
X0197009Y0113438D01*
X0196275Y0114913D02*
X0195908Y0115280D01*
X0195908Y0116014D01*
X0196275Y0116381D01*
X0195908Y0117123D02*
X0198110Y0117123D01*
X0198110Y0118591D01*
X0197009Y0117857D02*
X0197009Y0117123D01*
X0195908Y0117123D02*
X0195908Y0118591D01*
X0195908Y0119333D02*
X0195908Y0120801D01*
X0195908Y0120067D02*
X0198110Y0120067D01*
X0186444Y0132100D02*
X0184977Y0134302D01*
X0184235Y0134302D02*
X0182767Y0134302D01*
X0183501Y0134302D02*
X0183501Y0132100D01*
X0184977Y0132100D02*
X0186444Y0134302D01*
X0186444Y0142100D02*
X0184977Y0144302D01*
X0184235Y0143935D02*
X0184235Y0143201D01*
X0183868Y0142834D01*
X0182767Y0142834D01*
X0183501Y0142834D02*
X0184235Y0142100D01*
X0184977Y0142100D02*
X0186444Y0144302D01*
X0184235Y0143935D02*
X0183868Y0144302D01*
X0182767Y0144302D01*
X0182767Y0142100D01*
X0182261Y0151887D02*
X0181527Y0151887D01*
X0181160Y0152254D01*
X0181527Y0152988D02*
X0182261Y0152988D01*
X0182628Y0152621D01*
X0182628Y0152254D01*
X0182261Y0151887D01*
X0183370Y0152254D02*
X0183370Y0153722D01*
X0183737Y0154089D01*
X0184471Y0154089D01*
X0184838Y0153722D01*
X0185580Y0154089D02*
X0185580Y0151887D01*
X0187048Y0151887D01*
X0184838Y0152254D02*
X0184471Y0151887D01*
X0183737Y0151887D01*
X0183370Y0152254D01*
X0182628Y0153722D02*
X0182261Y0154089D01*
X0181527Y0154089D01*
X0181160Y0153722D01*
X0181160Y0153355D01*
X0181527Y0152988D01*
X0181527Y0161919D02*
X0181160Y0162286D01*
X0181527Y0161919D02*
X0182261Y0161919D01*
X0182628Y0162286D01*
X0182628Y0162653D01*
X0182261Y0163020D01*
X0181527Y0163020D01*
X0181160Y0163387D01*
X0181160Y0163754D01*
X0181527Y0164121D01*
X0182261Y0164121D01*
X0182628Y0163754D01*
X0183370Y0164121D02*
X0183370Y0161919D01*
X0184471Y0161919D01*
X0184838Y0162286D01*
X0184838Y0163754D01*
X0184471Y0164121D01*
X0183370Y0164121D01*
X0185580Y0163387D02*
X0185580Y0161919D01*
X0185580Y0163020D02*
X0187048Y0163020D01*
X0187048Y0163387D02*
X0187048Y0161919D01*
X0187048Y0163387D02*
X0186314Y0164121D01*
X0185580Y0163387D01*
X0185186Y0172100D02*
X0186287Y0172100D01*
X0186654Y0172467D01*
X0186654Y0173935D01*
X0186287Y0174302D01*
X0185186Y0174302D01*
X0185186Y0172100D01*
X0184444Y0172100D02*
X0184444Y0174302D01*
X0182977Y0174302D02*
X0184444Y0172100D01*
X0182977Y0172100D02*
X0182977Y0174302D01*
X0182235Y0173935D02*
X0181868Y0174302D01*
X0181134Y0174302D01*
X0180767Y0173935D01*
X0180767Y0172467D01*
X0181134Y0172100D01*
X0181868Y0172100D01*
X0182235Y0172467D01*
X0182235Y0173201D01*
X0181501Y0173201D01*
X0181501Y0182100D02*
X0182235Y0182834D01*
X0182235Y0184302D01*
X0182977Y0183935D02*
X0182977Y0182467D01*
X0183344Y0182100D01*
X0184077Y0182100D01*
X0184444Y0182467D01*
X0185186Y0182467D02*
X0185186Y0183935D01*
X0185553Y0184302D01*
X0186287Y0184302D01*
X0186654Y0183935D01*
X0186654Y0182467D02*
X0186287Y0182100D01*
X0185553Y0182100D01*
X0185186Y0182467D01*
X0184444Y0183935D02*
X0184077Y0184302D01*
X0183344Y0184302D01*
X0182977Y0183935D01*
X0180767Y0184302D02*
X0180767Y0182834D01*
X0181501Y0182100D01*
X0196275Y0098461D02*
X0195908Y0098094D01*
X0195908Y0097360D01*
X0196275Y0096993D01*
X0197743Y0096993D01*
X0198110Y0097360D01*
X0198110Y0098094D01*
X0197743Y0098461D01*
X0196275Y0098461D01*
X0196275Y0096251D02*
X0195908Y0095884D01*
X0195908Y0095150D01*
X0196275Y0094783D01*
X0196642Y0094783D01*
X0197009Y0095150D01*
X0197009Y0095884D01*
X0197376Y0096251D01*
X0197743Y0096251D01*
X0198110Y0095884D01*
X0198110Y0095150D01*
X0197743Y0094783D01*
X0198110Y0094044D02*
X0198110Y0093310D01*
X0198110Y0093677D02*
X0195908Y0093677D01*
X0195908Y0093310D02*
X0195908Y0094044D01*
X0195908Y0092568D02*
X0198110Y0092568D01*
X0198110Y0091100D02*
X0195908Y0091100D01*
X0196642Y0091834D01*
X0195908Y0092568D01*
X0067167Y0106276D02*
X0034667Y0106276D01*
X0034667Y0142276D01*
X0067167Y0142276D01*
X0067167Y0106276D01*
D12*
X0075817Y0107109D02*
X0077051Y0105874D01*
X0078285Y0107109D01*
X0078285Y0109578D01*
X0079500Y0109578D02*
X0080734Y0109578D01*
X0080117Y0109578D02*
X0080117Y0105874D01*
X0079500Y0105874D02*
X0080734Y0105874D01*
X0081955Y0105874D02*
X0081955Y0109578D01*
X0084424Y0105874D01*
X0084424Y0109578D01*
X0075817Y0109578D02*
X0075817Y0107109D01*
X0088434Y0122874D02*
X0089668Y0122874D01*
X0090285Y0123492D01*
X0090285Y0124726D01*
X0089051Y0124726D01*
X0087817Y0125960D02*
X0087817Y0123492D01*
X0088434Y0122874D01*
X0091500Y0122874D02*
X0091500Y0126578D01*
X0093969Y0122874D01*
X0093969Y0126578D01*
X0095183Y0126578D02*
X0097035Y0126578D01*
X0097652Y0125960D01*
X0097652Y0123492D01*
X0097035Y0122874D01*
X0095183Y0122874D01*
X0095183Y0126578D01*
X0090285Y0125960D02*
X0089668Y0126578D01*
X0088434Y0126578D01*
X0087817Y0125960D01*
X0084035Y0139874D02*
X0082800Y0139874D01*
X0082183Y0140492D01*
X0082183Y0142960D01*
X0082800Y0143578D01*
X0084035Y0143578D01*
X0084652Y0142960D01*
X0084652Y0140492D02*
X0084035Y0139874D01*
X0080969Y0140492D02*
X0080351Y0139874D01*
X0079117Y0139874D01*
X0078500Y0140492D01*
X0078500Y0142960D01*
X0079117Y0143578D01*
X0080351Y0143578D01*
X0080969Y0142960D01*
X0077285Y0143578D02*
X0077285Y0141109D01*
X0076051Y0139874D01*
X0074817Y0141109D01*
X0074817Y0143578D01*
X0045390Y0181087D02*
X0042921Y0181087D01*
X0044155Y0181087D02*
X0044155Y0184790D01*
X0042921Y0183556D01*
X0041707Y0184790D02*
X0039238Y0184790D01*
X0040472Y0184790D02*
X0040472Y0181087D01*
X0030818Y0182363D02*
X0030818Y0186066D01*
X0028349Y0186066D02*
X0028349Y0182363D01*
X0027128Y0182363D02*
X0025894Y0182363D01*
X0026511Y0182363D02*
X0026511Y0186066D01*
X0025894Y0186066D02*
X0027128Y0186066D01*
X0028349Y0186066D02*
X0030818Y0182363D01*
X0024679Y0183597D02*
X0024679Y0186066D01*
X0022210Y0186066D02*
X0022210Y0183597D01*
X0023445Y0182363D01*
X0024679Y0183597D01*
X0020588Y0176609D02*
X0019354Y0175375D01*
X0018140Y0175992D02*
X0017522Y0176609D01*
X0016288Y0176609D01*
X0015671Y0175992D01*
X0015671Y0173523D01*
X0016288Y0172906D01*
X0017522Y0172906D01*
X0018140Y0173523D01*
X0019354Y0172906D02*
X0021823Y0172906D01*
X0020588Y0172906D02*
X0020588Y0176609D01*
X0022828Y0200630D02*
X0024062Y0200630D01*
X0024679Y0201248D01*
X0024679Y0202482D01*
X0023445Y0202482D01*
X0024679Y0203716D02*
X0024062Y0204333D01*
X0022828Y0204333D01*
X0022210Y0203716D01*
X0022210Y0201248D01*
X0022828Y0200630D01*
X0025894Y0200630D02*
X0025894Y0204333D01*
X0028362Y0200630D01*
X0028362Y0204333D01*
X0029577Y0204333D02*
X0031428Y0204333D01*
X0032045Y0203716D01*
X0032045Y0201248D01*
X0031428Y0200630D01*
X0029577Y0200630D01*
X0029577Y0204333D01*
X0021772Y0146790D02*
X0020538Y0146790D01*
X0019921Y0146173D01*
X0018707Y0146173D02*
X0018089Y0146790D01*
X0016855Y0146790D01*
X0016238Y0146173D01*
X0016238Y0143704D01*
X0016855Y0143087D01*
X0018089Y0143087D01*
X0018707Y0143704D01*
X0019921Y0143087D02*
X0022390Y0145556D01*
X0022390Y0146173D01*
X0021772Y0146790D01*
X0022390Y0143087D02*
X0019921Y0143087D01*
X0023721Y0099525D02*
X0023721Y0096622D01*
X0022754Y0096622D02*
X0024689Y0096622D01*
X0025700Y0096622D02*
X0025700Y0099525D01*
X0027635Y0096622D01*
X0027635Y0099525D01*
X0028647Y0098074D02*
X0030582Y0098074D01*
X0031593Y0098557D02*
X0032561Y0099525D01*
X0032561Y0096622D01*
X0033528Y0096622D02*
X0031593Y0096622D01*
X0030098Y0096622D02*
X0030098Y0099525D01*
X0028647Y0098074D01*
X0023721Y0099525D02*
X0022754Y0098557D01*
X0034540Y0098074D02*
X0036475Y0098074D01*
X0037486Y0098557D02*
X0037486Y0099041D01*
X0037970Y0099525D01*
X0038937Y0099525D01*
X0039421Y0099041D01*
X0039421Y0098557D01*
X0038937Y0098074D01*
X0037970Y0098074D01*
X0037486Y0098557D01*
X0037970Y0098074D02*
X0037486Y0097590D01*
X0037486Y0097106D01*
X0037970Y0096622D01*
X0038937Y0096622D01*
X0039421Y0097106D01*
X0039421Y0097590D01*
X0038937Y0098074D01*
X0035991Y0099525D02*
X0035991Y0096622D01*
X0034540Y0098074D02*
X0035991Y0099525D01*
X0109813Y0123784D02*
X0109813Y0125635D01*
X0110431Y0126252D01*
X0111665Y0126252D01*
X0112282Y0125635D01*
X0112282Y0123784D01*
X0112282Y0125018D02*
X0113517Y0126252D01*
X0113517Y0127467D02*
X0112899Y0127467D01*
X0110431Y0129936D01*
X0109813Y0129936D01*
X0109813Y0127467D01*
X0109813Y0123784D02*
X0113517Y0123784D01*
X0139450Y0121853D02*
X0139450Y0118150D01*
X0139450Y0119384D02*
X0141302Y0119384D01*
X0141919Y0120002D01*
X0141919Y0121236D01*
X0141302Y0121853D01*
X0139450Y0121853D01*
X0140685Y0119384D02*
X0141919Y0118150D01*
X0143134Y0118150D02*
X0145602Y0118150D01*
X0144368Y0118150D02*
X0144368Y0121853D01*
X0143134Y0120619D01*
X0144817Y0135150D02*
X0144817Y0138853D01*
X0146668Y0138853D01*
X0147285Y0138236D01*
X0147285Y0137002D01*
X0146668Y0136384D01*
X0144817Y0136384D01*
X0146051Y0136384D02*
X0147285Y0135150D01*
X0148500Y0135150D02*
X0150969Y0137619D01*
X0150969Y0138236D01*
X0150351Y0138853D01*
X0149117Y0138853D01*
X0148500Y0138236D01*
X0148500Y0135150D02*
X0150969Y0135150D01*
X0134633Y0156450D02*
X0131497Y0159586D01*
X0133065Y0159586D02*
X0133065Y0156450D01*
X0131497Y0156450D02*
X0134633Y0159586D01*
X0134633Y0158018D02*
X0131497Y0158018D01*
X0117899Y0175150D02*
X0118517Y0175767D01*
X0118517Y0177002D01*
X0117899Y0177619D01*
X0117899Y0178833D02*
X0118517Y0179450D01*
X0118517Y0180685D01*
X0117899Y0181302D01*
X0117282Y0181302D01*
X0116665Y0180685D01*
X0116665Y0180068D01*
X0116665Y0180685D02*
X0116048Y0181302D01*
X0115431Y0181302D01*
X0114813Y0180685D01*
X0114813Y0179450D01*
X0115431Y0178833D01*
X0115431Y0177619D02*
X0114813Y0177002D01*
X0114813Y0175767D01*
X0115431Y0175150D01*
X0117899Y0175150D01*
X0152313Y0172206D02*
X0152313Y0170638D01*
X0153097Y0169854D01*
X0152313Y0168386D02*
X0156233Y0168386D01*
X0157017Y0167602D01*
X0157017Y0166034D01*
X0156233Y0165250D01*
X0152313Y0165250D01*
X0156233Y0169854D02*
X0157017Y0170638D01*
X0157017Y0172206D01*
X0156233Y0172990D01*
X0155449Y0172990D01*
X0154665Y0172206D01*
X0154665Y0171422D01*
X0154665Y0172206D02*
X0153881Y0172990D01*
X0153097Y0172990D01*
X0152313Y0172206D01*
X0157817Y0084853D02*
X0160285Y0084853D01*
X0161500Y0084853D02*
X0162734Y0084853D01*
X0162117Y0084853D02*
X0162117Y0081150D01*
X0161500Y0081150D02*
X0162734Y0081150D01*
X0163955Y0081150D02*
X0163955Y0084853D01*
X0165190Y0083619D01*
X0166424Y0084853D01*
X0166424Y0081150D01*
X0167638Y0081150D02*
X0170107Y0081150D01*
X0168873Y0083002D02*
X0167638Y0083002D01*
X0167638Y0084853D02*
X0167638Y0081150D01*
X0167638Y0084853D02*
X0170107Y0084853D01*
X0175005Y0084853D02*
X0175005Y0081150D01*
X0177473Y0081150D02*
X0177473Y0084853D01*
X0176239Y0083619D01*
X0175005Y0084853D01*
X0178688Y0084236D02*
X0178688Y0081767D01*
X0179305Y0081150D01*
X0180539Y0081150D01*
X0181157Y0081767D01*
X0181157Y0084236D01*
X0180539Y0084853D01*
X0179305Y0084853D01*
X0178688Y0084236D01*
X0182371Y0084853D02*
X0182371Y0081150D01*
X0184223Y0081150D01*
X0184840Y0081767D01*
X0184840Y0084236D01*
X0184223Y0084853D01*
X0182371Y0084853D01*
X0186054Y0084853D02*
X0186054Y0081150D01*
X0188523Y0081150D01*
X0187288Y0083002D02*
X0186054Y0083002D01*
X0186054Y0084853D02*
X0188523Y0084853D01*
X0193420Y0084236D02*
X0193420Y0083619D01*
X0194038Y0083002D01*
X0195272Y0083002D01*
X0195889Y0082384D01*
X0195889Y0081767D01*
X0195272Y0081150D01*
X0194038Y0081150D01*
X0193420Y0081767D01*
X0193420Y0084236D02*
X0194038Y0084853D01*
X0195272Y0084853D01*
X0195889Y0084236D01*
X0197104Y0084853D02*
X0197104Y0081150D01*
X0198338Y0082384D01*
X0199572Y0081150D01*
X0199572Y0084853D01*
X0164517Y0072685D02*
X0164517Y0071450D01*
X0163899Y0070833D01*
X0163282Y0070833D01*
X0162665Y0071450D01*
X0162665Y0072685D01*
X0163282Y0073302D01*
X0163899Y0073302D01*
X0164517Y0072685D01*
X0162665Y0072685D02*
X0162048Y0073302D01*
X0161431Y0073302D01*
X0160813Y0072685D01*
X0160813Y0071450D01*
X0161431Y0070833D01*
X0162048Y0070833D01*
X0162665Y0071450D01*
X0162665Y0069619D02*
X0161431Y0069619D01*
X0160813Y0069002D01*
X0160813Y0067150D01*
X0164517Y0067150D01*
X0163282Y0067150D02*
X0163282Y0069002D01*
X0162665Y0069619D01*
X0163282Y0068384D02*
X0164517Y0069619D01*
X0159051Y0081150D02*
X0159051Y0084853D01*
X0158447Y0036853D02*
X0158447Y0033150D01*
X0157830Y0030853D02*
X0157213Y0030236D01*
X0157213Y0027767D01*
X0157830Y0027150D01*
X0159064Y0027150D01*
X0159682Y0027767D01*
X0159682Y0030236D01*
X0159064Y0030853D01*
X0157830Y0030853D01*
X0160896Y0030853D02*
X0160896Y0027150D01*
X0163365Y0027150D02*
X0163365Y0030853D01*
X0163351Y0033150D02*
X0163351Y0036853D01*
X0164586Y0035619D01*
X0165820Y0036853D01*
X0165820Y0033150D01*
X0167035Y0033150D02*
X0169503Y0033150D01*
X0168269Y0035002D02*
X0167035Y0035002D01*
X0167035Y0036853D02*
X0167035Y0033150D01*
X0167035Y0036853D02*
X0169503Y0036853D01*
X0174401Y0036853D02*
X0174401Y0033150D01*
X0175635Y0035619D02*
X0176870Y0036853D01*
X0176870Y0033150D01*
X0178084Y0033767D02*
X0178701Y0033150D01*
X0179936Y0033150D01*
X0180553Y0033767D01*
X0180553Y0036236D01*
X0179936Y0036853D01*
X0178701Y0036853D01*
X0178084Y0036236D01*
X0178084Y0033767D01*
X0175635Y0035619D02*
X0174401Y0036853D01*
X0181767Y0036853D02*
X0181767Y0033150D01*
X0183619Y0033150D01*
X0184236Y0033767D01*
X0184236Y0036236D01*
X0183619Y0036853D01*
X0181767Y0036853D01*
X0185450Y0036853D02*
X0185450Y0033150D01*
X0187919Y0033150D01*
X0186685Y0035002D02*
X0185450Y0035002D01*
X0185450Y0036853D02*
X0187919Y0036853D01*
X0163365Y0027150D02*
X0160896Y0030853D01*
X0160896Y0033150D02*
X0162130Y0033150D01*
X0161513Y0033150D02*
X0161513Y0036853D01*
X0160896Y0036853D02*
X0162130Y0036853D01*
X0159682Y0036853D02*
X0157213Y0036853D01*
D13*
X0162344Y0046591D02*
X0162346Y0046784D01*
X0162353Y0046977D01*
X0162365Y0047170D01*
X0162382Y0047363D01*
X0162403Y0047555D01*
X0162429Y0047746D01*
X0162460Y0047937D01*
X0162495Y0048127D01*
X0162535Y0048316D01*
X0162580Y0048504D01*
X0162629Y0048691D01*
X0162683Y0048877D01*
X0162741Y0049061D01*
X0162804Y0049244D01*
X0162872Y0049425D01*
X0162943Y0049604D01*
X0163020Y0049782D01*
X0163100Y0049958D01*
X0163185Y0050131D01*
X0163274Y0050303D01*
X0163367Y0050472D01*
X0163464Y0050639D01*
X0163566Y0050804D01*
X0163671Y0050966D01*
X0163780Y0051125D01*
X0163894Y0051282D01*
X0164011Y0051435D01*
X0164131Y0051586D01*
X0164256Y0051734D01*
X0164384Y0051879D01*
X0164515Y0052020D01*
X0164650Y0052159D01*
X0164789Y0052294D01*
X0164930Y0052425D01*
X0165075Y0052553D01*
X0165223Y0052678D01*
X0165374Y0052798D01*
X0165527Y0052915D01*
X0165684Y0053029D01*
X0165843Y0053138D01*
X0166005Y0053243D01*
X0166170Y0053345D01*
X0166337Y0053442D01*
X0166506Y0053535D01*
X0166678Y0053624D01*
X0166851Y0053709D01*
X0167027Y0053789D01*
X0167205Y0053866D01*
X0167384Y0053937D01*
X0167565Y0054005D01*
X0167748Y0054068D01*
X0167932Y0054126D01*
X0168118Y0054180D01*
X0168305Y0054229D01*
X0168493Y0054274D01*
X0168682Y0054314D01*
X0168872Y0054349D01*
X0169063Y0054380D01*
X0169254Y0054406D01*
X0169446Y0054427D01*
X0169639Y0054444D01*
X0169832Y0054456D01*
X0170025Y0054463D01*
X0170218Y0054465D01*
X0170411Y0054463D01*
X0170604Y0054456D01*
X0170797Y0054444D01*
X0170990Y0054427D01*
X0171182Y0054406D01*
X0171373Y0054380D01*
X0171564Y0054349D01*
X0171754Y0054314D01*
X0171943Y0054274D01*
X0172131Y0054229D01*
X0172318Y0054180D01*
X0172504Y0054126D01*
X0172688Y0054068D01*
X0172871Y0054005D01*
X0173052Y0053937D01*
X0173231Y0053866D01*
X0173409Y0053789D01*
X0173585Y0053709D01*
X0173758Y0053624D01*
X0173930Y0053535D01*
X0174099Y0053442D01*
X0174266Y0053345D01*
X0174431Y0053243D01*
X0174593Y0053138D01*
X0174752Y0053029D01*
X0174909Y0052915D01*
X0175062Y0052798D01*
X0175213Y0052678D01*
X0175361Y0052553D01*
X0175506Y0052425D01*
X0175647Y0052294D01*
X0175786Y0052159D01*
X0175921Y0052020D01*
X0176052Y0051879D01*
X0176180Y0051734D01*
X0176305Y0051586D01*
X0176425Y0051435D01*
X0176542Y0051282D01*
X0176656Y0051125D01*
X0176765Y0050966D01*
X0176870Y0050804D01*
X0176972Y0050639D01*
X0177069Y0050472D01*
X0177162Y0050303D01*
X0177251Y0050131D01*
X0177336Y0049958D01*
X0177416Y0049782D01*
X0177493Y0049604D01*
X0177564Y0049425D01*
X0177632Y0049244D01*
X0177695Y0049061D01*
X0177753Y0048877D01*
X0177807Y0048691D01*
X0177856Y0048504D01*
X0177901Y0048316D01*
X0177941Y0048127D01*
X0177976Y0047937D01*
X0178007Y0047746D01*
X0178033Y0047555D01*
X0178054Y0047363D01*
X0178071Y0047170D01*
X0178083Y0046977D01*
X0178090Y0046784D01*
X0178092Y0046591D01*
X0178090Y0046398D01*
X0178083Y0046205D01*
X0178071Y0046012D01*
X0178054Y0045819D01*
X0178033Y0045627D01*
X0178007Y0045436D01*
X0177976Y0045245D01*
X0177941Y0045055D01*
X0177901Y0044866D01*
X0177856Y0044678D01*
X0177807Y0044491D01*
X0177753Y0044305D01*
X0177695Y0044121D01*
X0177632Y0043938D01*
X0177564Y0043757D01*
X0177493Y0043578D01*
X0177416Y0043400D01*
X0177336Y0043224D01*
X0177251Y0043051D01*
X0177162Y0042879D01*
X0177069Y0042710D01*
X0176972Y0042543D01*
X0176870Y0042378D01*
X0176765Y0042216D01*
X0176656Y0042057D01*
X0176542Y0041900D01*
X0176425Y0041747D01*
X0176305Y0041596D01*
X0176180Y0041448D01*
X0176052Y0041303D01*
X0175921Y0041162D01*
X0175786Y0041023D01*
X0175647Y0040888D01*
X0175506Y0040757D01*
X0175361Y0040629D01*
X0175213Y0040504D01*
X0175062Y0040384D01*
X0174909Y0040267D01*
X0174752Y0040153D01*
X0174593Y0040044D01*
X0174431Y0039939D01*
X0174266Y0039837D01*
X0174099Y0039740D01*
X0173930Y0039647D01*
X0173758Y0039558D01*
X0173585Y0039473D01*
X0173409Y0039393D01*
X0173231Y0039316D01*
X0173052Y0039245D01*
X0172871Y0039177D01*
X0172688Y0039114D01*
X0172504Y0039056D01*
X0172318Y0039002D01*
X0172131Y0038953D01*
X0171943Y0038908D01*
X0171754Y0038868D01*
X0171564Y0038833D01*
X0171373Y0038802D01*
X0171182Y0038776D01*
X0170990Y0038755D01*
X0170797Y0038738D01*
X0170604Y0038726D01*
X0170411Y0038719D01*
X0170218Y0038717D01*
X0170025Y0038719D01*
X0169832Y0038726D01*
X0169639Y0038738D01*
X0169446Y0038755D01*
X0169254Y0038776D01*
X0169063Y0038802D01*
X0168872Y0038833D01*
X0168682Y0038868D01*
X0168493Y0038908D01*
X0168305Y0038953D01*
X0168118Y0039002D01*
X0167932Y0039056D01*
X0167748Y0039114D01*
X0167565Y0039177D01*
X0167384Y0039245D01*
X0167205Y0039316D01*
X0167027Y0039393D01*
X0166851Y0039473D01*
X0166678Y0039558D01*
X0166506Y0039647D01*
X0166337Y0039740D01*
X0166170Y0039837D01*
X0166005Y0039939D01*
X0165843Y0040044D01*
X0165684Y0040153D01*
X0165527Y0040267D01*
X0165374Y0040384D01*
X0165223Y0040504D01*
X0165075Y0040629D01*
X0164930Y0040757D01*
X0164789Y0040888D01*
X0164650Y0041023D01*
X0164515Y0041162D01*
X0164384Y0041303D01*
X0164256Y0041448D01*
X0164131Y0041596D01*
X0164011Y0041747D01*
X0163894Y0041900D01*
X0163780Y0042057D01*
X0163671Y0042216D01*
X0163566Y0042378D01*
X0163464Y0042543D01*
X0163367Y0042710D01*
X0163274Y0042879D01*
X0163185Y0043051D01*
X0163100Y0043224D01*
X0163020Y0043400D01*
X0162943Y0043578D01*
X0162872Y0043757D01*
X0162804Y0043938D01*
X0162741Y0044121D01*
X0162683Y0044305D01*
X0162629Y0044491D01*
X0162580Y0044678D01*
X0162535Y0044866D01*
X0162495Y0045055D01*
X0162460Y0045245D01*
X0162429Y0045436D01*
X0162403Y0045627D01*
X0162382Y0045819D01*
X0162365Y0046012D01*
X0162353Y0046205D01*
X0162346Y0046398D01*
X0162344Y0046591D01*
X0028092Y0172575D02*
X0028094Y0172768D01*
X0028101Y0172961D01*
X0028113Y0173154D01*
X0028130Y0173347D01*
X0028151Y0173539D01*
X0028177Y0173730D01*
X0028208Y0173921D01*
X0028243Y0174111D01*
X0028283Y0174300D01*
X0028328Y0174488D01*
X0028377Y0174675D01*
X0028431Y0174861D01*
X0028489Y0175045D01*
X0028552Y0175228D01*
X0028620Y0175409D01*
X0028691Y0175588D01*
X0028768Y0175766D01*
X0028848Y0175942D01*
X0028933Y0176115D01*
X0029022Y0176287D01*
X0029115Y0176456D01*
X0029212Y0176623D01*
X0029314Y0176788D01*
X0029419Y0176950D01*
X0029528Y0177109D01*
X0029642Y0177266D01*
X0029759Y0177419D01*
X0029879Y0177570D01*
X0030004Y0177718D01*
X0030132Y0177863D01*
X0030263Y0178004D01*
X0030398Y0178143D01*
X0030537Y0178278D01*
X0030678Y0178409D01*
X0030823Y0178537D01*
X0030971Y0178662D01*
X0031122Y0178782D01*
X0031275Y0178899D01*
X0031432Y0179013D01*
X0031591Y0179122D01*
X0031753Y0179227D01*
X0031918Y0179329D01*
X0032085Y0179426D01*
X0032254Y0179519D01*
X0032426Y0179608D01*
X0032599Y0179693D01*
X0032775Y0179773D01*
X0032953Y0179850D01*
X0033132Y0179921D01*
X0033313Y0179989D01*
X0033496Y0180052D01*
X0033680Y0180110D01*
X0033866Y0180164D01*
X0034053Y0180213D01*
X0034241Y0180258D01*
X0034430Y0180298D01*
X0034620Y0180333D01*
X0034811Y0180364D01*
X0035002Y0180390D01*
X0035194Y0180411D01*
X0035387Y0180428D01*
X0035580Y0180440D01*
X0035773Y0180447D01*
X0035966Y0180449D01*
X0036159Y0180447D01*
X0036352Y0180440D01*
X0036545Y0180428D01*
X0036738Y0180411D01*
X0036930Y0180390D01*
X0037121Y0180364D01*
X0037312Y0180333D01*
X0037502Y0180298D01*
X0037691Y0180258D01*
X0037879Y0180213D01*
X0038066Y0180164D01*
X0038252Y0180110D01*
X0038436Y0180052D01*
X0038619Y0179989D01*
X0038800Y0179921D01*
X0038979Y0179850D01*
X0039157Y0179773D01*
X0039333Y0179693D01*
X0039506Y0179608D01*
X0039678Y0179519D01*
X0039847Y0179426D01*
X0040014Y0179329D01*
X0040179Y0179227D01*
X0040341Y0179122D01*
X0040500Y0179013D01*
X0040657Y0178899D01*
X0040810Y0178782D01*
X0040961Y0178662D01*
X0041109Y0178537D01*
X0041254Y0178409D01*
X0041395Y0178278D01*
X0041534Y0178143D01*
X0041669Y0178004D01*
X0041800Y0177863D01*
X0041928Y0177718D01*
X0042053Y0177570D01*
X0042173Y0177419D01*
X0042290Y0177266D01*
X0042404Y0177109D01*
X0042513Y0176950D01*
X0042618Y0176788D01*
X0042720Y0176623D01*
X0042817Y0176456D01*
X0042910Y0176287D01*
X0042999Y0176115D01*
X0043084Y0175942D01*
X0043164Y0175766D01*
X0043241Y0175588D01*
X0043312Y0175409D01*
X0043380Y0175228D01*
X0043443Y0175045D01*
X0043501Y0174861D01*
X0043555Y0174675D01*
X0043604Y0174488D01*
X0043649Y0174300D01*
X0043689Y0174111D01*
X0043724Y0173921D01*
X0043755Y0173730D01*
X0043781Y0173539D01*
X0043802Y0173347D01*
X0043819Y0173154D01*
X0043831Y0172961D01*
X0043838Y0172768D01*
X0043840Y0172575D01*
X0043838Y0172382D01*
X0043831Y0172189D01*
X0043819Y0171996D01*
X0043802Y0171803D01*
X0043781Y0171611D01*
X0043755Y0171420D01*
X0043724Y0171229D01*
X0043689Y0171039D01*
X0043649Y0170850D01*
X0043604Y0170662D01*
X0043555Y0170475D01*
X0043501Y0170289D01*
X0043443Y0170105D01*
X0043380Y0169922D01*
X0043312Y0169741D01*
X0043241Y0169562D01*
X0043164Y0169384D01*
X0043084Y0169208D01*
X0042999Y0169035D01*
X0042910Y0168863D01*
X0042817Y0168694D01*
X0042720Y0168527D01*
X0042618Y0168362D01*
X0042513Y0168200D01*
X0042404Y0168041D01*
X0042290Y0167884D01*
X0042173Y0167731D01*
X0042053Y0167580D01*
X0041928Y0167432D01*
X0041800Y0167287D01*
X0041669Y0167146D01*
X0041534Y0167007D01*
X0041395Y0166872D01*
X0041254Y0166741D01*
X0041109Y0166613D01*
X0040961Y0166488D01*
X0040810Y0166368D01*
X0040657Y0166251D01*
X0040500Y0166137D01*
X0040341Y0166028D01*
X0040179Y0165923D01*
X0040014Y0165821D01*
X0039847Y0165724D01*
X0039678Y0165631D01*
X0039506Y0165542D01*
X0039333Y0165457D01*
X0039157Y0165377D01*
X0038979Y0165300D01*
X0038800Y0165229D01*
X0038619Y0165161D01*
X0038436Y0165098D01*
X0038252Y0165040D01*
X0038066Y0164986D01*
X0037879Y0164937D01*
X0037691Y0164892D01*
X0037502Y0164852D01*
X0037312Y0164817D01*
X0037121Y0164786D01*
X0036930Y0164760D01*
X0036738Y0164739D01*
X0036545Y0164722D01*
X0036352Y0164710D01*
X0036159Y0164703D01*
X0035966Y0164701D01*
X0035773Y0164703D01*
X0035580Y0164710D01*
X0035387Y0164722D01*
X0035194Y0164739D01*
X0035002Y0164760D01*
X0034811Y0164786D01*
X0034620Y0164817D01*
X0034430Y0164852D01*
X0034241Y0164892D01*
X0034053Y0164937D01*
X0033866Y0164986D01*
X0033680Y0165040D01*
X0033496Y0165098D01*
X0033313Y0165161D01*
X0033132Y0165229D01*
X0032953Y0165300D01*
X0032775Y0165377D01*
X0032599Y0165457D01*
X0032426Y0165542D01*
X0032254Y0165631D01*
X0032085Y0165724D01*
X0031918Y0165821D01*
X0031753Y0165923D01*
X0031591Y0166028D01*
X0031432Y0166137D01*
X0031275Y0166251D01*
X0031122Y0166368D01*
X0030971Y0166488D01*
X0030823Y0166613D01*
X0030678Y0166741D01*
X0030537Y0166872D01*
X0030398Y0167007D01*
X0030263Y0167146D01*
X0030132Y0167287D01*
X0030004Y0167432D01*
X0029879Y0167580D01*
X0029759Y0167731D01*
X0029642Y0167884D01*
X0029528Y0168041D01*
X0029419Y0168200D01*
X0029314Y0168362D01*
X0029212Y0168527D01*
X0029115Y0168694D01*
X0029022Y0168863D01*
X0028933Y0169035D01*
X0028848Y0169208D01*
X0028768Y0169384D01*
X0028691Y0169562D01*
X0028620Y0169741D01*
X0028552Y0169922D01*
X0028489Y0170105D01*
X0028431Y0170289D01*
X0028377Y0170475D01*
X0028328Y0170662D01*
X0028283Y0170850D01*
X0028243Y0171039D01*
X0028208Y0171229D01*
X0028177Y0171420D01*
X0028151Y0171611D01*
X0028130Y0171803D01*
X0028113Y0171996D01*
X0028101Y0172189D01*
X0028094Y0172382D01*
X0028092Y0172575D01*
D14*
X0023706Y0163256D02*
X0019706Y0163256D01*
X0006863Y0168756D02*
X0006866Y0168998D01*
X0006875Y0169239D01*
X0006890Y0169480D01*
X0006910Y0169721D01*
X0006937Y0169961D01*
X0006970Y0170200D01*
X0007008Y0170439D01*
X0007052Y0170676D01*
X0007102Y0170913D01*
X0007158Y0171148D01*
X0007220Y0171381D01*
X0007287Y0171613D01*
X0007360Y0171844D01*
X0007438Y0172072D01*
X0007523Y0172298D01*
X0007612Y0172523D01*
X0007707Y0172745D01*
X0007808Y0172964D01*
X0007914Y0173182D01*
X0008025Y0173396D01*
X0008142Y0173608D01*
X0008263Y0173816D01*
X0008390Y0174022D01*
X0008522Y0174224D01*
X0008659Y0174424D01*
X0008800Y0174619D01*
X0008946Y0174812D01*
X0009097Y0175000D01*
X0009253Y0175185D01*
X0009413Y0175366D01*
X0009577Y0175543D01*
X0009746Y0175716D01*
X0009919Y0175885D01*
X0010096Y0176049D01*
X0010277Y0176209D01*
X0010462Y0176365D01*
X0010650Y0176516D01*
X0010843Y0176662D01*
X0011038Y0176803D01*
X0011238Y0176940D01*
X0011440Y0177072D01*
X0011646Y0177199D01*
X0011854Y0177320D01*
X0012066Y0177437D01*
X0012280Y0177548D01*
X0012498Y0177654D01*
X0012717Y0177755D01*
X0012939Y0177850D01*
X0013164Y0177939D01*
X0013390Y0178024D01*
X0013618Y0178102D01*
X0013849Y0178175D01*
X0014081Y0178242D01*
X0014314Y0178304D01*
X0014549Y0178360D01*
X0014786Y0178410D01*
X0015023Y0178454D01*
X0015262Y0178492D01*
X0015501Y0178525D01*
X0015741Y0178552D01*
X0015982Y0178572D01*
X0016223Y0178587D01*
X0016464Y0178596D01*
X0016706Y0178599D01*
X0016948Y0178596D01*
X0017189Y0178587D01*
X0017430Y0178572D01*
X0017671Y0178552D01*
X0017911Y0178525D01*
X0018150Y0178492D01*
X0018389Y0178454D01*
X0018626Y0178410D01*
X0018863Y0178360D01*
X0019098Y0178304D01*
X0019331Y0178242D01*
X0019563Y0178175D01*
X0019794Y0178102D01*
X0020022Y0178024D01*
X0020248Y0177939D01*
X0020473Y0177850D01*
X0020695Y0177755D01*
X0020914Y0177654D01*
X0021132Y0177548D01*
X0021346Y0177437D01*
X0021558Y0177320D01*
X0021766Y0177199D01*
X0021972Y0177072D01*
X0022174Y0176940D01*
X0022374Y0176803D01*
X0022569Y0176662D01*
X0022762Y0176516D01*
X0022950Y0176365D01*
X0023135Y0176209D01*
X0023316Y0176049D01*
X0023493Y0175885D01*
X0023666Y0175716D01*
X0023835Y0175543D01*
X0023999Y0175366D01*
X0024159Y0175185D01*
X0024315Y0175000D01*
X0024466Y0174812D01*
X0024612Y0174619D01*
X0024753Y0174424D01*
X0024890Y0174224D01*
X0025022Y0174022D01*
X0025149Y0173816D01*
X0025270Y0173608D01*
X0025387Y0173396D01*
X0025498Y0173182D01*
X0025604Y0172964D01*
X0025705Y0172745D01*
X0025800Y0172523D01*
X0025889Y0172298D01*
X0025974Y0172072D01*
X0026052Y0171844D01*
X0026125Y0171613D01*
X0026192Y0171381D01*
X0026254Y0171148D01*
X0026310Y0170913D01*
X0026360Y0170676D01*
X0026404Y0170439D01*
X0026442Y0170200D01*
X0026475Y0169961D01*
X0026502Y0169721D01*
X0026522Y0169480D01*
X0026537Y0169239D01*
X0026546Y0168998D01*
X0026549Y0168756D01*
X0026546Y0168514D01*
X0026537Y0168273D01*
X0026522Y0168032D01*
X0026502Y0167791D01*
X0026475Y0167551D01*
X0026442Y0167312D01*
X0026404Y0167073D01*
X0026360Y0166836D01*
X0026310Y0166599D01*
X0026254Y0166364D01*
X0026192Y0166131D01*
X0026125Y0165899D01*
X0026052Y0165668D01*
X0025974Y0165440D01*
X0025889Y0165214D01*
X0025800Y0164989D01*
X0025705Y0164767D01*
X0025604Y0164548D01*
X0025498Y0164330D01*
X0025387Y0164116D01*
X0025270Y0163904D01*
X0025149Y0163696D01*
X0025022Y0163490D01*
X0024890Y0163288D01*
X0024753Y0163088D01*
X0024612Y0162893D01*
X0024466Y0162700D01*
X0024315Y0162512D01*
X0024159Y0162327D01*
X0023999Y0162146D01*
X0023835Y0161969D01*
X0023666Y0161796D01*
X0023493Y0161627D01*
X0023316Y0161463D01*
X0023135Y0161303D01*
X0022950Y0161147D01*
X0022762Y0160996D01*
X0022569Y0160850D01*
X0022374Y0160709D01*
X0022174Y0160572D01*
X0021972Y0160440D01*
X0021766Y0160313D01*
X0021558Y0160192D01*
X0021346Y0160075D01*
X0021132Y0159964D01*
X0020914Y0159858D01*
X0020695Y0159757D01*
X0020473Y0159662D01*
X0020248Y0159573D01*
X0020022Y0159488D01*
X0019794Y0159410D01*
X0019563Y0159337D01*
X0019331Y0159270D01*
X0019098Y0159208D01*
X0018863Y0159152D01*
X0018626Y0159102D01*
X0018389Y0159058D01*
X0018150Y0159020D01*
X0017911Y0158987D01*
X0017671Y0158960D01*
X0017430Y0158940D01*
X0017189Y0158925D01*
X0016948Y0158916D01*
X0016706Y0158913D01*
X0016464Y0158916D01*
X0016223Y0158925D01*
X0015982Y0158940D01*
X0015741Y0158960D01*
X0015501Y0158987D01*
X0015262Y0159020D01*
X0015023Y0159058D01*
X0014786Y0159102D01*
X0014549Y0159152D01*
X0014314Y0159208D01*
X0014081Y0159270D01*
X0013849Y0159337D01*
X0013618Y0159410D01*
X0013390Y0159488D01*
X0013164Y0159573D01*
X0012939Y0159662D01*
X0012717Y0159757D01*
X0012498Y0159858D01*
X0012280Y0159964D01*
X0012066Y0160075D01*
X0011854Y0160192D01*
X0011646Y0160313D01*
X0011440Y0160440D01*
X0011238Y0160572D01*
X0011038Y0160709D01*
X0010843Y0160850D01*
X0010650Y0160996D01*
X0010462Y0161147D01*
X0010277Y0161303D01*
X0010096Y0161463D01*
X0009919Y0161627D01*
X0009746Y0161796D01*
X0009577Y0161969D01*
X0009413Y0162146D01*
X0009253Y0162327D01*
X0009097Y0162512D01*
X0008946Y0162700D01*
X0008800Y0162893D01*
X0008659Y0163088D01*
X0008522Y0163288D01*
X0008390Y0163490D01*
X0008263Y0163696D01*
X0008142Y0163904D01*
X0008025Y0164116D01*
X0007914Y0164330D01*
X0007808Y0164548D01*
X0007707Y0164767D01*
X0007612Y0164989D01*
X0007523Y0165214D01*
X0007438Y0165440D01*
X0007360Y0165668D01*
X0007287Y0165899D01*
X0007220Y0166131D01*
X0007158Y0166364D01*
X0007102Y0166599D01*
X0007052Y0166836D01*
X0007008Y0167073D01*
X0006970Y0167312D01*
X0006937Y0167551D01*
X0006910Y0167791D01*
X0006890Y0168032D01*
X0006875Y0168273D01*
X0006866Y0168514D01*
X0006863Y0168756D01*
X0020604Y0101472D02*
X0020604Y0098472D01*
X0019604Y0098472D01*
X0020604Y0098472D02*
X0020604Y0095472D01*
X0040604Y0095472D01*
X0040604Y0098472D01*
X0041604Y0098472D01*
X0040604Y0098472D02*
X0040604Y0101472D01*
X0020604Y0101472D01*
X0038104Y0100972D02*
X0038104Y0095972D01*
X0173667Y0097500D02*
X0173667Y0092500D01*
X0176167Y0090000D01*
X0191167Y0090000D01*
X0193667Y0092500D01*
X0193667Y0097500D01*
X0191167Y0100000D01*
X0176167Y0100000D01*
X0173667Y0102500D01*
X0173667Y0107500D01*
X0176167Y0110000D01*
X0191167Y0110000D01*
X0193667Y0112500D01*
X0193667Y0117500D01*
X0191167Y0120000D01*
X0176167Y0120000D01*
X0173667Y0117500D01*
X0173667Y0112500D01*
X0176167Y0110000D01*
X0176167Y0100000D02*
X0173667Y0097500D01*
X0191167Y0100000D02*
X0193667Y0102500D01*
X0193667Y0107500D01*
X0191167Y0110000D01*
X0194986Y0097500D02*
X0194986Y0092500D01*
X0194572Y0074811D02*
X0192997Y0074811D01*
X0194572Y0074811D02*
X0194634Y0074809D01*
X0194695Y0074803D01*
X0194756Y0074794D01*
X0194817Y0074780D01*
X0194876Y0074763D01*
X0194934Y0074742D01*
X0194991Y0074717D01*
X0195046Y0074689D01*
X0195099Y0074658D01*
X0195150Y0074623D01*
X0195199Y0074585D01*
X0195246Y0074544D01*
X0195289Y0074501D01*
X0195330Y0074454D01*
X0195368Y0074405D01*
X0195403Y0074354D01*
X0195434Y0074301D01*
X0195462Y0074246D01*
X0195487Y0074189D01*
X0195508Y0074131D01*
X0195525Y0074072D01*
X0195539Y0074011D01*
X0195548Y0073950D01*
X0195554Y0073889D01*
X0195556Y0073827D01*
X0195556Y0052173D01*
X0195554Y0052111D01*
X0195548Y0052050D01*
X0195539Y0051989D01*
X0195525Y0051928D01*
X0195508Y0051869D01*
X0195487Y0051811D01*
X0195462Y0051754D01*
X0195434Y0051699D01*
X0195403Y0051646D01*
X0195368Y0051595D01*
X0195330Y0051546D01*
X0195289Y0051499D01*
X0195246Y0051456D01*
X0195199Y0051415D01*
X0195150Y0051377D01*
X0195099Y0051342D01*
X0195046Y0051311D01*
X0194991Y0051283D01*
X0194934Y0051258D01*
X0194876Y0051237D01*
X0194817Y0051220D01*
X0194756Y0051206D01*
X0194695Y0051197D01*
X0194634Y0051191D01*
X0194572Y0051189D01*
X0192997Y0051189D01*
X0191619Y0057094D02*
X0185714Y0057094D01*
X0185714Y0068906D01*
X0191619Y0068906D01*
X0191619Y0057094D01*
X0184336Y0051189D02*
X0182761Y0051189D01*
X0182699Y0051191D01*
X0182638Y0051197D01*
X0182577Y0051206D01*
X0182516Y0051220D01*
X0182457Y0051237D01*
X0182399Y0051258D01*
X0182342Y0051283D01*
X0182287Y0051311D01*
X0182234Y0051342D01*
X0182183Y0051377D01*
X0182134Y0051415D01*
X0182087Y0051456D01*
X0182044Y0051499D01*
X0182003Y0051546D01*
X0181965Y0051595D01*
X0181930Y0051646D01*
X0181899Y0051699D01*
X0181871Y0051754D01*
X0181846Y0051811D01*
X0181825Y0051869D01*
X0181808Y0051928D01*
X0181794Y0051989D01*
X0181785Y0052050D01*
X0181779Y0052111D01*
X0181777Y0052173D01*
X0181777Y0073827D01*
X0181779Y0073889D01*
X0181785Y0073950D01*
X0181794Y0074011D01*
X0181808Y0074072D01*
X0181825Y0074131D01*
X0181846Y0074189D01*
X0181871Y0074246D01*
X0181899Y0074301D01*
X0181930Y0074354D01*
X0181965Y0074405D01*
X0182003Y0074454D01*
X0182044Y0074501D01*
X0182087Y0074544D01*
X0182134Y0074585D01*
X0182183Y0074623D01*
X0182234Y0074658D01*
X0182287Y0074689D01*
X0182342Y0074717D01*
X0182399Y0074742D01*
X0182457Y0074763D01*
X0182516Y0074780D01*
X0182577Y0074794D01*
X0182638Y0074803D01*
X0182699Y0074809D01*
X0182761Y0074811D01*
X0184336Y0074811D01*
D15*
X0167917Y0201350D02*
X0166417Y0201350D01*
X0166417Y0202350D01*
X0167917Y0202350D01*
X0167917Y0201350D01*
X0167917Y0201422D02*
X0166417Y0201422D01*
X0166417Y0201521D02*
X0167917Y0201521D01*
X0167917Y0201619D02*
X0166417Y0201619D01*
X0166417Y0201718D02*
X0167917Y0201718D01*
X0167917Y0201816D02*
X0166417Y0201816D01*
X0166417Y0201915D02*
X0167917Y0201915D01*
X0167917Y0202013D02*
X0166417Y0202013D01*
X0166417Y0202112D02*
X0167917Y0202112D01*
X0167917Y0202210D02*
X0166417Y0202210D01*
X0166417Y0202309D02*
X0167917Y0202309D01*
X0022627Y0105024D02*
X0022627Y0103522D01*
X0022127Y0103522D02*
X0023128Y0103522D01*
X0022127Y0104523D02*
X0022627Y0105024D01*
X0021655Y0104773D02*
X0021655Y0103773D01*
X0021404Y0103522D01*
X0020654Y0103522D01*
X0020654Y0105024D01*
X0021404Y0105024D01*
X0021655Y0104773D01*
X0019784Y0161206D02*
X0018783Y0161206D01*
X0019283Y0161206D02*
X0019283Y0162707D01*
X0018783Y0162207D01*
X0018310Y0162457D02*
X0018060Y0162707D01*
X0017560Y0162707D01*
X0017310Y0162457D01*
X0017310Y0161456D01*
X0017560Y0161206D01*
X0018060Y0161206D01*
X0018310Y0161456D01*
D16*
X0017871Y0162047D02*
X0018622Y0162797D01*
X0020123Y0162797D01*
X0020874Y0162047D01*
X0020874Y0161296D01*
X0017871Y0158293D01*
X0020874Y0158293D01*
X0016270Y0159044D02*
X0015519Y0158293D01*
X0014018Y0158293D01*
X0013267Y0159044D01*
X0013267Y0162047D01*
X0014018Y0162797D01*
X0015519Y0162797D01*
X0016270Y0162047D01*
X0034797Y0186287D02*
X0051293Y0186287D01*
X0048572Y0192287D02*
X0047517Y0192287D01*
X0052591Y0188410D02*
X0052484Y0188185D01*
X0052372Y0187962D01*
X0052255Y0187742D01*
X0052133Y0187525D01*
X0052005Y0187310D01*
X0051872Y0187099D01*
X0051735Y0186891D01*
X0051592Y0186687D01*
X0051445Y0186485D01*
X0051293Y0186288D01*
X0052545Y0197259D02*
X0052433Y0197489D01*
X0052316Y0197716D01*
X0052194Y0197940D01*
X0052066Y0198161D01*
X0051932Y0198378D01*
X0051794Y0198593D01*
X0051650Y0198804D01*
X0051501Y0199011D01*
X0051347Y0199215D01*
X0051189Y0199415D01*
X0051025Y0199611D01*
X0050857Y0199803D01*
X0050684Y0199991D01*
X0050506Y0200175D01*
X0050325Y0200354D01*
X0050138Y0200529D01*
X0049948Y0200699D01*
X0049754Y0200864D01*
X0049555Y0201025D01*
X0049353Y0201181D01*
X0049147Y0201332D01*
X0048937Y0201478D01*
X0048724Y0201618D01*
X0048508Y0201754D01*
X0048288Y0201884D01*
X0048065Y0202009D01*
X0047840Y0202128D01*
X0047611Y0202242D01*
X0047380Y0202350D01*
X0047146Y0202453D01*
X0046910Y0202550D01*
X0046671Y0202641D01*
X0046431Y0202726D01*
X0046188Y0202806D01*
X0045943Y0202879D01*
X0045697Y0202947D01*
X0045449Y0203008D01*
X0045200Y0203063D01*
X0044950Y0203113D01*
X0044698Y0203156D01*
X0044445Y0203193D01*
X0044192Y0203224D01*
X0043938Y0203249D01*
X0043683Y0203268D01*
X0043428Y0203280D01*
X0043173Y0203286D01*
X0042917Y0203286D01*
X0042662Y0203280D01*
X0042407Y0203268D01*
X0042152Y0203249D01*
X0041898Y0203224D01*
X0041645Y0203193D01*
X0041392Y0203156D01*
X0041140Y0203113D01*
X0040890Y0203063D01*
X0040641Y0203008D01*
X0040393Y0202947D01*
X0040147Y0202879D01*
X0039902Y0202806D01*
X0039659Y0202726D01*
X0039419Y0202641D01*
X0039180Y0202550D01*
X0038944Y0202453D01*
X0038710Y0202350D01*
X0038479Y0202242D01*
X0038250Y0202128D01*
X0038025Y0202009D01*
X0037802Y0201884D01*
X0037582Y0201754D01*
X0037366Y0201618D01*
X0037153Y0201478D01*
X0036943Y0201332D01*
X0036737Y0201181D01*
X0036535Y0201025D01*
X0036336Y0200864D01*
X0036142Y0200699D01*
X0035952Y0200529D01*
X0035765Y0200354D01*
X0035584Y0200175D01*
X0035406Y0199991D01*
X0035233Y0199803D01*
X0035065Y0199611D01*
X0034901Y0199415D01*
X0034743Y0199215D01*
X0034589Y0199011D01*
X0034440Y0198804D01*
X0034296Y0198593D01*
X0034158Y0198378D01*
X0034024Y0198161D01*
X0033896Y0197940D01*
X0033774Y0197716D01*
X0033657Y0197489D01*
X0033545Y0197259D01*
X0037517Y0192287D02*
X0038572Y0192287D01*
X0033543Y0188316D02*
X0033647Y0188101D01*
X0033756Y0187888D01*
X0033870Y0187678D01*
X0033989Y0187471D01*
X0034112Y0187266D01*
X0034240Y0187064D01*
X0034373Y0186865D01*
X0034510Y0186670D01*
X0034651Y0186477D01*
X0034797Y0186288D01*
X0034796Y0205037D02*
X0034796Y0209541D01*
X0033295Y0209541D02*
X0036297Y0209541D01*
X0037899Y0208040D02*
X0039400Y0209541D01*
X0039400Y0205037D01*
X0037899Y0205037D02*
X0040901Y0205037D01*
X0129413Y0184398D02*
X0129413Y0182897D01*
X0130163Y0182146D01*
X0130163Y0180545D02*
X0129413Y0179794D01*
X0129413Y0178293D01*
X0130163Y0177542D01*
X0133166Y0177542D01*
X0133917Y0178293D01*
X0133917Y0179794D01*
X0133166Y0180545D01*
X0133166Y0182146D02*
X0133917Y0182897D01*
X0133917Y0184398D01*
X0133166Y0185149D01*
X0132415Y0185149D01*
X0131665Y0184398D01*
X0131665Y0183647D01*
X0131665Y0184398D02*
X0130914Y0185149D01*
X0130163Y0185149D01*
X0129413Y0184398D01*
X0155303Y0129096D02*
X0157555Y0129096D01*
X0158306Y0128346D01*
X0158306Y0126844D01*
X0157555Y0126094D01*
X0155303Y0126094D01*
X0155303Y0124593D02*
X0155303Y0129096D01*
X0156805Y0126094D02*
X0158306Y0124593D01*
X0159907Y0124593D02*
X0162910Y0127595D01*
X0162910Y0128346D01*
X0162159Y0129096D01*
X0160658Y0129096D01*
X0159907Y0128346D01*
X0159907Y0124593D02*
X0162910Y0124593D01*
X0151720Y0113911D02*
X0150218Y0112410D01*
X0148617Y0113161D02*
X0148617Y0111659D01*
X0147866Y0110909D01*
X0145614Y0110909D01*
X0145614Y0109407D02*
X0145614Y0113911D01*
X0147866Y0113911D01*
X0148617Y0113161D01*
X0147116Y0110909D02*
X0148617Y0109407D01*
X0150218Y0109407D02*
X0153221Y0109407D01*
X0151720Y0109407D02*
X0151720Y0113911D01*
X0130659Y0111992D02*
X0130659Y0099394D01*
X0130462Y0111992D02*
X0104871Y0111992D01*
X0104675Y0111992D02*
X0104675Y0099394D01*
X0107486Y0078400D02*
X0106736Y0077649D01*
X0106736Y0074646D01*
X0107486Y0073896D01*
X0108987Y0073896D01*
X0109738Y0074646D01*
X0109738Y0076148D01*
X0108237Y0076148D01*
X0109738Y0077649D02*
X0108987Y0078400D01*
X0107486Y0078400D01*
X0111339Y0077649D02*
X0112090Y0078400D01*
X0113591Y0078400D01*
X0114342Y0077649D01*
X0114342Y0076898D01*
X0111339Y0073896D01*
X0114342Y0073896D01*
X0114290Y0062455D02*
X0112788Y0060953D01*
X0112788Y0057951D01*
X0111187Y0057951D02*
X0111187Y0062455D01*
X0109686Y0060953D01*
X0108184Y0062455D01*
X0108184Y0057951D01*
X0106583Y0057951D02*
X0106583Y0060953D01*
X0105082Y0062455D01*
X0103580Y0060953D01*
X0103580Y0057951D01*
X0101979Y0057951D02*
X0098976Y0057951D01*
X0101979Y0060953D01*
X0101979Y0061704D01*
X0101228Y0062455D01*
X0099727Y0062455D01*
X0098976Y0061704D01*
X0097375Y0061704D02*
X0097375Y0060953D01*
X0096624Y0060203D01*
X0097375Y0059452D01*
X0097375Y0058701D01*
X0096624Y0057951D01*
X0095123Y0057951D01*
X0094373Y0058701D01*
X0092771Y0058701D02*
X0092021Y0057951D01*
X0090519Y0057951D01*
X0089769Y0058701D01*
X0092771Y0061704D01*
X0092771Y0058701D01*
X0089769Y0058701D02*
X0089769Y0061704D01*
X0090519Y0062455D01*
X0092021Y0062455D01*
X0092771Y0061704D01*
X0094373Y0061704D02*
X0095123Y0062455D01*
X0096624Y0062455D01*
X0097375Y0061704D01*
X0096624Y0060203D02*
X0095874Y0060203D01*
X0103580Y0060203D02*
X0106583Y0060203D01*
X0112788Y0060203D02*
X0115791Y0060203D01*
X0115791Y0060953D02*
X0114290Y0062455D01*
X0115791Y0060953D02*
X0115791Y0057951D01*
X0117392Y0057951D02*
X0120395Y0057951D01*
X0121996Y0058701D02*
X0122747Y0057951D01*
X0124248Y0057951D01*
X0124999Y0058701D01*
X0124999Y0061704D01*
X0124248Y0062455D01*
X0122747Y0062455D01*
X0121996Y0061704D01*
X0121996Y0058701D01*
X0120395Y0061704D02*
X0117392Y0058701D01*
X0117392Y0057951D01*
X0074360Y0057937D02*
X0074373Y0059000D01*
X0074412Y0060062D01*
X0074477Y0061123D01*
X0074569Y0062182D01*
X0074686Y0063238D01*
X0074829Y0064291D01*
X0074998Y0065341D01*
X0075192Y0066386D01*
X0075412Y0067426D01*
X0075658Y0068460D01*
X0075929Y0069488D01*
X0076225Y0070508D01*
X0076546Y0071522D01*
X0076892Y0072527D01*
X0077262Y0073523D01*
X0077657Y0074510D01*
X0078075Y0075487D01*
X0078518Y0076453D01*
X0078984Y0077408D01*
X0079474Y0078352D01*
X0079986Y0079283D01*
X0080521Y0080201D01*
X0081079Y0081106D01*
X0081659Y0081997D01*
X0082260Y0082874D01*
X0082882Y0083735D01*
X0083526Y0084581D01*
X0084190Y0085411D01*
X0084875Y0086224D01*
X0085579Y0087020D01*
X0086302Y0087799D01*
X0087044Y0088560D01*
X0087805Y0089302D01*
X0088584Y0090025D01*
X0089380Y0090729D01*
X0090193Y0091414D01*
X0091023Y0092078D01*
X0091869Y0092722D01*
X0092730Y0093344D01*
X0093607Y0093945D01*
X0094498Y0094525D01*
X0095403Y0095083D01*
X0096321Y0095618D01*
X0097252Y0096130D01*
X0098196Y0096620D01*
X0099151Y0097086D01*
X0100117Y0097529D01*
X0101094Y0097947D01*
X0102081Y0098342D01*
X0103077Y0098712D01*
X0104082Y0099058D01*
X0105096Y0099379D01*
X0106116Y0099675D01*
X0107144Y0099946D01*
X0108178Y0100192D01*
X0109218Y0100412D01*
X0110263Y0100606D01*
X0111313Y0100775D01*
X0112366Y0100918D01*
X0113422Y0101035D01*
X0114481Y0101127D01*
X0115542Y0101192D01*
X0116604Y0101231D01*
X0117667Y0101244D01*
X0118730Y0101231D01*
X0119792Y0101192D01*
X0120853Y0101127D01*
X0121912Y0101035D01*
X0122968Y0100918D01*
X0124021Y0100775D01*
X0125071Y0100606D01*
X0126116Y0100412D01*
X0127156Y0100192D01*
X0128190Y0099946D01*
X0129218Y0099675D01*
X0130238Y0099379D01*
X0131252Y0099058D01*
X0132257Y0098712D01*
X0133253Y0098342D01*
X0134240Y0097947D01*
X0135217Y0097529D01*
X0136183Y0097086D01*
X0137138Y0096620D01*
X0138082Y0096130D01*
X0139013Y0095618D01*
X0139931Y0095083D01*
X0140836Y0094525D01*
X0141727Y0093945D01*
X0142604Y0093344D01*
X0143465Y0092722D01*
X0144311Y0092078D01*
X0145141Y0091414D01*
X0145954Y0090729D01*
X0146750Y0090025D01*
X0147529Y0089302D01*
X0148290Y0088560D01*
X0149032Y0087799D01*
X0149755Y0087020D01*
X0150459Y0086224D01*
X0151144Y0085411D01*
X0151808Y0084581D01*
X0152452Y0083735D01*
X0153074Y0082874D01*
X0153675Y0081997D01*
X0154255Y0081106D01*
X0154813Y0080201D01*
X0155348Y0079283D01*
X0155860Y0078352D01*
X0156350Y0077408D01*
X0156816Y0076453D01*
X0157259Y0075487D01*
X0157677Y0074510D01*
X0158072Y0073523D01*
X0158442Y0072527D01*
X0158788Y0071522D01*
X0159109Y0070508D01*
X0159405Y0069488D01*
X0159676Y0068460D01*
X0159922Y0067426D01*
X0160142Y0066386D01*
X0160336Y0065341D01*
X0160505Y0064291D01*
X0160648Y0063238D01*
X0160765Y0062182D01*
X0160857Y0061123D01*
X0160922Y0060062D01*
X0160961Y0059000D01*
X0160974Y0057937D01*
X0160961Y0056874D01*
X0160922Y0055812D01*
X0160857Y0054751D01*
X0160765Y0053692D01*
X0160648Y0052636D01*
X0160505Y0051583D01*
X0160336Y0050533D01*
X0160142Y0049488D01*
X0159922Y0048448D01*
X0159676Y0047414D01*
X0159405Y0046386D01*
X0159109Y0045366D01*
X0158788Y0044352D01*
X0158442Y0043347D01*
X0158072Y0042351D01*
X0157677Y0041364D01*
X0157259Y0040387D01*
X0156816Y0039421D01*
X0156350Y0038466D01*
X0155860Y0037522D01*
X0155348Y0036591D01*
X0154813Y0035673D01*
X0154255Y0034768D01*
X0153675Y0033877D01*
X0153074Y0033000D01*
X0152452Y0032139D01*
X0151808Y0031293D01*
X0151144Y0030463D01*
X0150459Y0029650D01*
X0149755Y0028854D01*
X0149032Y0028075D01*
X0148290Y0027314D01*
X0147529Y0026572D01*
X0146750Y0025849D01*
X0145954Y0025145D01*
X0145141Y0024460D01*
X0144311Y0023796D01*
X0143465Y0023152D01*
X0142604Y0022530D01*
X0141727Y0021929D01*
X0140836Y0021349D01*
X0139931Y0020791D01*
X0139013Y0020256D01*
X0138082Y0019744D01*
X0137138Y0019254D01*
X0136183Y0018788D01*
X0135217Y0018345D01*
X0134240Y0017927D01*
X0133253Y0017532D01*
X0132257Y0017162D01*
X0131252Y0016816D01*
X0130238Y0016495D01*
X0129218Y0016199D01*
X0128190Y0015928D01*
X0127156Y0015682D01*
X0126116Y0015462D01*
X0125071Y0015268D01*
X0124021Y0015099D01*
X0122968Y0014956D01*
X0121912Y0014839D01*
X0120853Y0014747D01*
X0119792Y0014682D01*
X0118730Y0014643D01*
X0117667Y0014630D01*
X0116604Y0014643D01*
X0115542Y0014682D01*
X0114481Y0014747D01*
X0113422Y0014839D01*
X0112366Y0014956D01*
X0111313Y0015099D01*
X0110263Y0015268D01*
X0109218Y0015462D01*
X0108178Y0015682D01*
X0107144Y0015928D01*
X0106116Y0016199D01*
X0105096Y0016495D01*
X0104082Y0016816D01*
X0103077Y0017162D01*
X0102081Y0017532D01*
X0101094Y0017927D01*
X0100117Y0018345D01*
X0099151Y0018788D01*
X0098196Y0019254D01*
X0097252Y0019744D01*
X0096321Y0020256D01*
X0095403Y0020791D01*
X0094498Y0021349D01*
X0093607Y0021929D01*
X0092730Y0022530D01*
X0091869Y0023152D01*
X0091023Y0023796D01*
X0090193Y0024460D01*
X0089380Y0025145D01*
X0088584Y0025849D01*
X0087805Y0026572D01*
X0087044Y0027314D01*
X0086302Y0028075D01*
X0085579Y0028854D01*
X0084875Y0029650D01*
X0084190Y0030463D01*
X0083526Y0031293D01*
X0082882Y0032139D01*
X0082260Y0033000D01*
X0081659Y0033877D01*
X0081079Y0034768D01*
X0080521Y0035673D01*
X0079986Y0036591D01*
X0079474Y0037522D01*
X0078984Y0038466D01*
X0078518Y0039421D01*
X0078075Y0040387D01*
X0077657Y0041364D01*
X0077262Y0042351D01*
X0076892Y0043347D01*
X0076546Y0044352D01*
X0076225Y0045366D01*
X0075929Y0046386D01*
X0075658Y0047414D01*
X0075412Y0048448D01*
X0075192Y0049488D01*
X0074998Y0050533D01*
X0074829Y0051583D01*
X0074686Y0052636D01*
X0074569Y0053692D01*
X0074477Y0054751D01*
X0074412Y0055812D01*
X0074373Y0056874D01*
X0074360Y0057937D01*
X0075957Y0058701D02*
X0076707Y0057951D01*
X0078209Y0057951D01*
X0078959Y0058701D01*
X0080561Y0057951D02*
X0080561Y0062455D01*
X0082813Y0062455D01*
X0083563Y0061704D01*
X0083563Y0060203D01*
X0082813Y0059452D01*
X0080561Y0059452D01*
X0082062Y0059452D02*
X0083563Y0057951D01*
X0085165Y0057951D02*
X0088167Y0060953D01*
X0088167Y0061704D01*
X0087417Y0062455D01*
X0085915Y0062455D01*
X0085165Y0061704D01*
X0085165Y0057951D02*
X0088167Y0057951D01*
X0078959Y0061704D02*
X0078209Y0062455D01*
X0076707Y0062455D01*
X0075957Y0061704D01*
X0075957Y0058701D01*
X0070194Y0053315D02*
X0070194Y0092685D01*
X0011139Y0092685D01*
X0011139Y0053315D01*
X0070194Y0053315D01*
X0065667Y0070500D02*
X0065667Y0081750D01*
X0065667Y0070500D02*
X0046917Y0070500D01*
X0044417Y0071750D01*
X0044417Y0073000D01*
X0015667Y0073000D01*
X0015667Y0064250D01*
X0025667Y0064250D02*
X0025667Y0068000D01*
X0044417Y0068000D01*
X0044417Y0069250D01*
X0025667Y0078000D02*
X0021917Y0078000D01*
X0021917Y0075500D01*
X0019417Y0075500D01*
X0019417Y0078000D01*
X0015667Y0078000D01*
X0015667Y0081750D01*
X0019417Y0080500D02*
X0019417Y0078000D01*
X0021917Y0078000D02*
X0021917Y0080500D01*
X0019417Y0080500D01*
X0025667Y0081750D02*
X0025667Y0078000D01*
X0021575Y0040254D02*
X0021575Y0035750D01*
X0020074Y0035750D02*
X0023077Y0035750D01*
X0020074Y0038753D02*
X0021575Y0040254D01*
X0039574Y0039503D02*
X0040325Y0040254D01*
X0041826Y0040254D01*
X0042577Y0039503D01*
X0042577Y0038753D01*
X0039574Y0035750D01*
X0042577Y0035750D01*
X0029630Y0018054D02*
X0027378Y0018054D01*
X0027378Y0013550D01*
X0027378Y0015051D02*
X0029630Y0015051D01*
X0030381Y0015802D01*
X0030381Y0017303D01*
X0029630Y0018054D01*
X0025777Y0017303D02*
X0025777Y0015802D01*
X0025026Y0015051D01*
X0022774Y0015051D01*
X0022774Y0013550D02*
X0022774Y0018054D01*
X0025026Y0018054D01*
X0025777Y0017303D01*
X0106810Y0035667D02*
X0109813Y0035667D01*
X0111414Y0035667D02*
X0112916Y0035667D01*
X0112165Y0035667D02*
X0112165Y0038670D01*
X0111414Y0038670D01*
X0112165Y0040171D02*
X0112165Y0040922D01*
X0114484Y0038670D02*
X0115985Y0038670D01*
X0115234Y0039421D02*
X0115234Y0036418D01*
X0115985Y0035667D01*
X0117553Y0035667D02*
X0118303Y0035667D01*
X0118303Y0036418D01*
X0117553Y0036418D01*
X0117553Y0035667D01*
X0119855Y0036418D02*
X0120605Y0035667D01*
X0122107Y0035667D01*
X0122857Y0036418D01*
X0122857Y0037169D01*
X0122107Y0037919D01*
X0121356Y0037919D01*
X0122107Y0037919D02*
X0122857Y0038670D01*
X0122857Y0039421D01*
X0122107Y0040171D01*
X0120605Y0040171D01*
X0119855Y0039421D01*
X0124459Y0040171D02*
X0124459Y0037169D01*
X0125960Y0035667D01*
X0127461Y0037169D01*
X0127461Y0040171D01*
X0126600Y0057951D02*
X0126600Y0062455D01*
X0129603Y0057951D01*
X0129603Y0062455D01*
X0120395Y0062455D02*
X0120395Y0061704D01*
X0120395Y0062455D02*
X0117392Y0062455D01*
X0106810Y0040171D02*
X0106810Y0035667D01*
X0179814Y0120850D02*
X0180448Y0120850D01*
X0180131Y0120850D02*
X0180131Y0122752D01*
X0179814Y0122752D02*
X0180448Y0122752D01*
X0181287Y0122435D02*
X0181287Y0121167D01*
X0181604Y0120850D01*
X0182238Y0120850D01*
X0182555Y0121167D01*
X0183497Y0121167D02*
X0183814Y0120850D01*
X0184448Y0120850D01*
X0184765Y0121167D01*
X0184765Y0121484D01*
X0184448Y0121801D01*
X0183814Y0121801D01*
X0183497Y0122118D01*
X0183497Y0122435D01*
X0183814Y0122752D01*
X0184448Y0122752D01*
X0184765Y0122435D01*
X0185707Y0122752D02*
X0186658Y0122752D01*
X0186974Y0122435D01*
X0186974Y0121801D01*
X0186658Y0121484D01*
X0185707Y0121484D01*
X0185707Y0120850D02*
X0185707Y0122752D01*
X0182555Y0122435D02*
X0182238Y0122752D01*
X0181604Y0122752D01*
X0181287Y0122435D01*
X0184466Y0127950D02*
X0185217Y0128701D01*
X0185217Y0129451D01*
X0184466Y0130202D01*
X0180713Y0130202D01*
X0180713Y0129451D02*
X0180713Y0130953D01*
X0180713Y0132554D02*
X0180713Y0134806D01*
X0181463Y0135556D01*
X0182965Y0135556D01*
X0183715Y0134806D01*
X0183715Y0132554D01*
X0185217Y0132554D02*
X0180713Y0132554D01*
X0182214Y0137158D02*
X0180713Y0138659D01*
X0185217Y0138659D01*
X0185217Y0137158D02*
X0185217Y0140160D01*
D17*
X0187667Y0140500D02*
X0187667Y0145500D01*
X0190167Y0148000D01*
X0195167Y0148000D01*
X0197667Y0145500D01*
X0197667Y0140500D01*
X0195167Y0138000D01*
X0197667Y0135500D01*
X0197667Y0130500D01*
X0195167Y0128000D01*
X0190167Y0128000D01*
X0187667Y0130500D01*
X0187667Y0135500D01*
X0190167Y0138000D01*
X0187667Y0140500D01*
X0190167Y0138000D02*
X0195167Y0138000D01*
X0195167Y0148000D02*
X0197667Y0150500D01*
X0197667Y0155500D01*
X0195167Y0158000D01*
X0197667Y0160500D01*
X0197667Y0165500D01*
X0195167Y0168000D01*
X0197667Y0170500D01*
X0197667Y0175500D01*
X0195167Y0178000D01*
X0197667Y0180500D01*
X0197667Y0185500D01*
X0195167Y0188000D01*
X0190167Y0188000D01*
X0187667Y0185500D01*
X0187667Y0180500D01*
X0190167Y0178000D01*
X0195167Y0178000D01*
X0190167Y0178000D02*
X0187667Y0175500D01*
X0187667Y0170500D01*
X0190167Y0168000D01*
X0195167Y0168000D01*
X0190167Y0168000D02*
X0187667Y0165500D01*
X0187667Y0160500D01*
X0190167Y0158000D01*
X0195167Y0158000D01*
X0190167Y0158000D02*
X0187667Y0155500D01*
X0187667Y0150500D01*
X0190167Y0148000D01*
X0175867Y0162600D02*
X0174567Y0162600D01*
X0175867Y0162600D02*
X0175867Y0193400D01*
X0174567Y0193400D01*
X0134767Y0193400D02*
X0133467Y0193400D01*
X0133467Y0162600D01*
X0134767Y0162600D01*
X0128167Y0171500D02*
X0128167Y0184500D01*
X0123667Y0183000D02*
X0123667Y0179200D01*
X0123667Y0176700D02*
X0123667Y0173000D01*
X0119167Y0171500D02*
X0119167Y0184500D01*
X0131761Y0142843D02*
X0134261Y0142843D01*
X0134761Y0142343D01*
X0160761Y0142343D01*
X0161261Y0142843D01*
X0163761Y0142843D01*
X0163821Y0142841D01*
X0163882Y0142836D01*
X0163941Y0142827D01*
X0164000Y0142814D01*
X0164059Y0142798D01*
X0164116Y0142778D01*
X0164171Y0142755D01*
X0164226Y0142728D01*
X0164278Y0142699D01*
X0164329Y0142666D01*
X0164378Y0142630D01*
X0164424Y0142592D01*
X0164468Y0142550D01*
X0164510Y0142506D01*
X0164548Y0142460D01*
X0164584Y0142411D01*
X0164617Y0142360D01*
X0164646Y0142308D01*
X0164673Y0142253D01*
X0164696Y0142198D01*
X0164716Y0142141D01*
X0164732Y0142082D01*
X0164745Y0142023D01*
X0164754Y0141964D01*
X0164759Y0141903D01*
X0164761Y0141843D01*
X0164761Y0131843D01*
X0164759Y0131783D01*
X0164754Y0131722D01*
X0164745Y0131663D01*
X0164732Y0131604D01*
X0164716Y0131545D01*
X0164696Y0131488D01*
X0164673Y0131433D01*
X0164646Y0131378D01*
X0164617Y0131326D01*
X0164584Y0131275D01*
X0164548Y0131226D01*
X0164510Y0131180D01*
X0164468Y0131136D01*
X0164424Y0131094D01*
X0164378Y0131056D01*
X0164329Y0131020D01*
X0164278Y0130987D01*
X0164226Y0130958D01*
X0164171Y0130931D01*
X0164116Y0130908D01*
X0164059Y0130888D01*
X0164000Y0130872D01*
X0163941Y0130859D01*
X0163882Y0130850D01*
X0163821Y0130845D01*
X0163761Y0130843D01*
X0161261Y0130843D01*
X0160761Y0131343D01*
X0134761Y0131343D01*
X0134261Y0130843D01*
X0131761Y0130843D01*
X0131701Y0130845D01*
X0131640Y0130850D01*
X0131581Y0130859D01*
X0131522Y0130872D01*
X0131463Y0130888D01*
X0131406Y0130908D01*
X0131351Y0130931D01*
X0131296Y0130958D01*
X0131244Y0130987D01*
X0131193Y0131020D01*
X0131144Y0131056D01*
X0131098Y0131094D01*
X0131054Y0131136D01*
X0131012Y0131180D01*
X0130974Y0131226D01*
X0130938Y0131275D01*
X0130905Y0131326D01*
X0130876Y0131378D01*
X0130849Y0131433D01*
X0130826Y0131488D01*
X0130806Y0131545D01*
X0130790Y0131604D01*
X0130777Y0131663D01*
X0130768Y0131722D01*
X0130763Y0131783D01*
X0130761Y0131843D01*
X0130761Y0141843D01*
X0130763Y0141903D01*
X0130768Y0141964D01*
X0130777Y0142023D01*
X0130790Y0142082D01*
X0130806Y0142141D01*
X0130826Y0142198D01*
X0130849Y0142253D01*
X0130876Y0142308D01*
X0130905Y0142360D01*
X0130938Y0142411D01*
X0130974Y0142460D01*
X0131012Y0142506D01*
X0131054Y0142550D01*
X0131098Y0142592D01*
X0131144Y0142630D01*
X0131193Y0142666D01*
X0131244Y0142699D01*
X0131296Y0142728D01*
X0131351Y0142755D01*
X0131406Y0142778D01*
X0131463Y0142798D01*
X0131522Y0142814D01*
X0131581Y0142827D01*
X0131640Y0142836D01*
X0131701Y0142841D01*
X0131761Y0142843D01*
X0131072Y0124657D02*
X0132572Y0124657D01*
X0133072Y0124157D01*
X0152072Y0124157D01*
X0152572Y0124657D01*
X0154072Y0124657D01*
X0154132Y0124655D01*
X0154193Y0124650D01*
X0154252Y0124641D01*
X0154311Y0124628D01*
X0154370Y0124612D01*
X0154427Y0124592D01*
X0154482Y0124569D01*
X0154537Y0124542D01*
X0154589Y0124513D01*
X0154640Y0124480D01*
X0154689Y0124444D01*
X0154735Y0124406D01*
X0154779Y0124364D01*
X0154821Y0124320D01*
X0154859Y0124274D01*
X0154895Y0124225D01*
X0154928Y0124174D01*
X0154957Y0124122D01*
X0154984Y0124067D01*
X0155007Y0124012D01*
X0155027Y0123955D01*
X0155043Y0123896D01*
X0155056Y0123837D01*
X0155065Y0123778D01*
X0155070Y0123717D01*
X0155072Y0123657D01*
X0155072Y0116657D01*
X0155070Y0116597D01*
X0155065Y0116536D01*
X0155056Y0116477D01*
X0155043Y0116418D01*
X0155027Y0116359D01*
X0155007Y0116302D01*
X0154984Y0116247D01*
X0154957Y0116192D01*
X0154928Y0116140D01*
X0154895Y0116089D01*
X0154859Y0116040D01*
X0154821Y0115994D01*
X0154779Y0115950D01*
X0154735Y0115908D01*
X0154689Y0115870D01*
X0154640Y0115834D01*
X0154589Y0115801D01*
X0154537Y0115772D01*
X0154482Y0115745D01*
X0154427Y0115722D01*
X0154370Y0115702D01*
X0154311Y0115686D01*
X0154252Y0115673D01*
X0154193Y0115664D01*
X0154132Y0115659D01*
X0154072Y0115657D01*
X0152572Y0115657D01*
X0152072Y0116157D01*
X0133072Y0116157D01*
X0132572Y0115657D01*
X0131072Y0115657D01*
X0131012Y0115659D01*
X0130951Y0115664D01*
X0130892Y0115673D01*
X0130833Y0115686D01*
X0130774Y0115702D01*
X0130717Y0115722D01*
X0130662Y0115745D01*
X0130607Y0115772D01*
X0130555Y0115801D01*
X0130504Y0115834D01*
X0130455Y0115870D01*
X0130409Y0115908D01*
X0130365Y0115950D01*
X0130323Y0115994D01*
X0130285Y0116040D01*
X0130249Y0116089D01*
X0130216Y0116140D01*
X0130187Y0116192D01*
X0130160Y0116247D01*
X0130137Y0116302D01*
X0130117Y0116359D01*
X0130101Y0116418D01*
X0130088Y0116477D01*
X0130079Y0116536D01*
X0130074Y0116597D01*
X0130072Y0116657D01*
X0130072Y0123657D01*
X0130074Y0123717D01*
X0130079Y0123778D01*
X0130088Y0123837D01*
X0130101Y0123896D01*
X0130117Y0123955D01*
X0130137Y0124012D01*
X0130160Y0124067D01*
X0130187Y0124122D01*
X0130216Y0124174D01*
X0130249Y0124225D01*
X0130285Y0124274D01*
X0130323Y0124320D01*
X0130365Y0124364D01*
X0130409Y0124406D01*
X0130455Y0124444D01*
X0130504Y0124480D01*
X0130555Y0124513D01*
X0130607Y0124542D01*
X0130662Y0124569D01*
X0130717Y0124592D01*
X0130774Y0124612D01*
X0130833Y0124628D01*
X0130892Y0124641D01*
X0130951Y0124650D01*
X0131012Y0124655D01*
X0131072Y0124657D01*
X0069667Y0144776D02*
X0069667Y0103776D01*
X0020667Y0103776D01*
X0020667Y0107276D01*
X0014667Y0107276D01*
X0014667Y0103776D01*
X0007167Y0103776D01*
X0007167Y0144776D01*
X0014667Y0144776D01*
X0014667Y0141276D01*
X0020667Y0141276D01*
X0020667Y0144776D01*
X0069667Y0144776D01*
X0028017Y0148043D02*
X0015017Y0148043D01*
X0016517Y0152543D02*
X0020317Y0152543D01*
X0022817Y0152543D02*
X0026517Y0152543D01*
X0028017Y0157043D02*
X0015017Y0157043D01*
X0010336Y0182882D02*
X0010336Y0203039D01*
X0013567Y0124276D02*
X0013569Y0124450D01*
X0013576Y0124624D01*
X0013586Y0124798D01*
X0013601Y0124972D01*
X0013620Y0125145D01*
X0013644Y0125318D01*
X0013672Y0125490D01*
X0013703Y0125661D01*
X0013740Y0125832D01*
X0013780Y0126001D01*
X0013824Y0126170D01*
X0013873Y0126337D01*
X0013925Y0126503D01*
X0013982Y0126668D01*
X0014043Y0126831D01*
X0014107Y0126993D01*
X0014176Y0127153D01*
X0014249Y0127312D01*
X0014325Y0127468D01*
X0014405Y0127623D01*
X0014489Y0127776D01*
X0014577Y0127926D01*
X0014669Y0128074D01*
X0014764Y0128221D01*
X0014862Y0128364D01*
X0014964Y0128505D01*
X0015070Y0128644D01*
X0015179Y0128780D01*
X0015291Y0128914D01*
X0015406Y0129044D01*
X0015525Y0129172D01*
X0015647Y0129296D01*
X0015771Y0129418D01*
X0015899Y0129537D01*
X0016029Y0129652D01*
X0016163Y0129764D01*
X0016299Y0129873D01*
X0016438Y0129979D01*
X0016579Y0130081D01*
X0016722Y0130179D01*
X0016869Y0130274D01*
X0017017Y0130366D01*
X0017167Y0130454D01*
X0017320Y0130538D01*
X0017475Y0130618D01*
X0017631Y0130694D01*
X0017790Y0130767D01*
X0017950Y0130836D01*
X0018112Y0130900D01*
X0018275Y0130961D01*
X0018440Y0131018D01*
X0018606Y0131070D01*
X0018773Y0131119D01*
X0018942Y0131163D01*
X0019111Y0131203D01*
X0019282Y0131240D01*
X0019453Y0131271D01*
X0019625Y0131299D01*
X0019798Y0131323D01*
X0019971Y0131342D01*
X0020145Y0131357D01*
X0020319Y0131367D01*
X0020493Y0131374D01*
X0020667Y0131376D01*
X0020841Y0131374D01*
X0021015Y0131367D01*
X0021189Y0131357D01*
X0021363Y0131342D01*
X0021536Y0131323D01*
X0021709Y0131299D01*
X0021881Y0131271D01*
X0022052Y0131240D01*
X0022223Y0131203D01*
X0022392Y0131163D01*
X0022561Y0131119D01*
X0022728Y0131070D01*
X0022894Y0131018D01*
X0023059Y0130961D01*
X0023222Y0130900D01*
X0023384Y0130836D01*
X0023544Y0130767D01*
X0023703Y0130694D01*
X0023859Y0130618D01*
X0024014Y0130538D01*
X0024167Y0130454D01*
X0024317Y0130366D01*
X0024465Y0130274D01*
X0024612Y0130179D01*
X0024755Y0130081D01*
X0024896Y0129979D01*
X0025035Y0129873D01*
X0025171Y0129764D01*
X0025305Y0129652D01*
X0025435Y0129537D01*
X0025563Y0129418D01*
X0025687Y0129296D01*
X0025809Y0129172D01*
X0025928Y0129044D01*
X0026043Y0128914D01*
X0026155Y0128780D01*
X0026264Y0128644D01*
X0026370Y0128505D01*
X0026472Y0128364D01*
X0026570Y0128221D01*
X0026665Y0128074D01*
X0026757Y0127926D01*
X0026845Y0127776D01*
X0026929Y0127623D01*
X0027009Y0127468D01*
X0027085Y0127312D01*
X0027158Y0127153D01*
X0027227Y0126993D01*
X0027291Y0126831D01*
X0027352Y0126668D01*
X0027409Y0126503D01*
X0027461Y0126337D01*
X0027510Y0126170D01*
X0027554Y0126001D01*
X0027594Y0125832D01*
X0027631Y0125661D01*
X0027662Y0125490D01*
X0027690Y0125318D01*
X0027714Y0125145D01*
X0027733Y0124972D01*
X0027748Y0124798D01*
X0027758Y0124624D01*
X0027765Y0124450D01*
X0027767Y0124276D01*
X0027765Y0124102D01*
X0027758Y0123928D01*
X0027748Y0123754D01*
X0027733Y0123580D01*
X0027714Y0123407D01*
X0027690Y0123234D01*
X0027662Y0123062D01*
X0027631Y0122891D01*
X0027594Y0122720D01*
X0027554Y0122551D01*
X0027510Y0122382D01*
X0027461Y0122215D01*
X0027409Y0122049D01*
X0027352Y0121884D01*
X0027291Y0121721D01*
X0027227Y0121559D01*
X0027158Y0121399D01*
X0027085Y0121240D01*
X0027009Y0121084D01*
X0026929Y0120929D01*
X0026845Y0120776D01*
X0026757Y0120626D01*
X0026665Y0120478D01*
X0026570Y0120331D01*
X0026472Y0120188D01*
X0026370Y0120047D01*
X0026264Y0119908D01*
X0026155Y0119772D01*
X0026043Y0119638D01*
X0025928Y0119508D01*
X0025809Y0119380D01*
X0025687Y0119256D01*
X0025563Y0119134D01*
X0025435Y0119015D01*
X0025305Y0118900D01*
X0025171Y0118788D01*
X0025035Y0118679D01*
X0024896Y0118573D01*
X0024755Y0118471D01*
X0024612Y0118373D01*
X0024465Y0118278D01*
X0024317Y0118186D01*
X0024167Y0118098D01*
X0024014Y0118014D01*
X0023859Y0117934D01*
X0023703Y0117858D01*
X0023544Y0117785D01*
X0023384Y0117716D01*
X0023222Y0117652D01*
X0023059Y0117591D01*
X0022894Y0117534D01*
X0022728Y0117482D01*
X0022561Y0117433D01*
X0022392Y0117389D01*
X0022223Y0117349D01*
X0022052Y0117312D01*
X0021881Y0117281D01*
X0021709Y0117253D01*
X0021536Y0117229D01*
X0021363Y0117210D01*
X0021189Y0117195D01*
X0021015Y0117185D01*
X0020841Y0117178D01*
X0020667Y0117176D01*
X0020493Y0117178D01*
X0020319Y0117185D01*
X0020145Y0117195D01*
X0019971Y0117210D01*
X0019798Y0117229D01*
X0019625Y0117253D01*
X0019453Y0117281D01*
X0019282Y0117312D01*
X0019111Y0117349D01*
X0018942Y0117389D01*
X0018773Y0117433D01*
X0018606Y0117482D01*
X0018440Y0117534D01*
X0018275Y0117591D01*
X0018112Y0117652D01*
X0017950Y0117716D01*
X0017790Y0117785D01*
X0017631Y0117858D01*
X0017475Y0117934D01*
X0017320Y0118014D01*
X0017167Y0118098D01*
X0017017Y0118186D01*
X0016869Y0118278D01*
X0016722Y0118373D01*
X0016579Y0118471D01*
X0016438Y0118573D01*
X0016299Y0118679D01*
X0016163Y0118788D01*
X0016029Y0118900D01*
X0015899Y0119015D01*
X0015771Y0119134D01*
X0015647Y0119256D01*
X0015525Y0119380D01*
X0015406Y0119508D01*
X0015291Y0119638D01*
X0015179Y0119772D01*
X0015070Y0119908D01*
X0014964Y0120047D01*
X0014862Y0120188D01*
X0014764Y0120331D01*
X0014669Y0120478D01*
X0014577Y0120626D01*
X0014489Y0120776D01*
X0014405Y0120929D01*
X0014325Y0121084D01*
X0014249Y0121240D01*
X0014176Y0121399D01*
X0014107Y0121559D01*
X0014043Y0121721D01*
X0013982Y0121884D01*
X0013925Y0122049D01*
X0013873Y0122215D01*
X0013824Y0122382D01*
X0013780Y0122551D01*
X0013740Y0122720D01*
X0013703Y0122891D01*
X0013672Y0123062D01*
X0013644Y0123234D01*
X0013620Y0123407D01*
X0013601Y0123580D01*
X0013586Y0123754D01*
X0013576Y0123928D01*
X0013569Y0124102D01*
X0013567Y0124276D01*
X0018025Y0047701D02*
X0018025Y0046902D01*
X0057324Y0046902D01*
X0057324Y0020902D01*
X0057324Y0011500D01*
X0018025Y0011500D01*
X0018025Y0020902D01*
X0018025Y0046902D01*
X0018025Y0047701D02*
X0057324Y0047701D01*
X0057324Y0046902D01*
X0045524Y0041700D02*
X0045526Y0041789D01*
X0045532Y0041878D01*
X0045542Y0041967D01*
X0045556Y0042055D01*
X0045573Y0042142D01*
X0045595Y0042228D01*
X0045621Y0042314D01*
X0045650Y0042398D01*
X0045683Y0042481D01*
X0045719Y0042562D01*
X0045760Y0042642D01*
X0045803Y0042719D01*
X0045850Y0042795D01*
X0045901Y0042868D01*
X0045954Y0042939D01*
X0046011Y0043008D01*
X0046071Y0043074D01*
X0046134Y0043138D01*
X0046199Y0043198D01*
X0046267Y0043256D01*
X0046338Y0043310D01*
X0046411Y0043361D01*
X0046486Y0043409D01*
X0046563Y0043454D01*
X0046642Y0043495D01*
X0046723Y0043532D01*
X0046805Y0043566D01*
X0046889Y0043597D01*
X0046974Y0043623D01*
X0047060Y0043646D01*
X0047147Y0043664D01*
X0047235Y0043679D01*
X0047324Y0043690D01*
X0047413Y0043697D01*
X0047502Y0043700D01*
X0047591Y0043699D01*
X0047680Y0043694D01*
X0047768Y0043685D01*
X0047857Y0043672D01*
X0047944Y0043655D01*
X0048031Y0043635D01*
X0048117Y0043610D01*
X0048201Y0043582D01*
X0048284Y0043550D01*
X0048366Y0043514D01*
X0048446Y0043475D01*
X0048524Y0043432D01*
X0048600Y0043386D01*
X0048674Y0043336D01*
X0048746Y0043283D01*
X0048815Y0043227D01*
X0048882Y0043168D01*
X0048946Y0043106D01*
X0049007Y0043042D01*
X0049066Y0042974D01*
X0049121Y0042904D01*
X0049173Y0042832D01*
X0049222Y0042757D01*
X0049267Y0042681D01*
X0049309Y0042602D01*
X0049347Y0042522D01*
X0049382Y0042440D01*
X0049413Y0042356D01*
X0049441Y0042271D01*
X0049464Y0042185D01*
X0049484Y0042098D01*
X0049500Y0042011D01*
X0049512Y0041922D01*
X0049520Y0041834D01*
X0049524Y0041745D01*
X0049524Y0041655D01*
X0049520Y0041566D01*
X0049512Y0041478D01*
X0049500Y0041389D01*
X0049484Y0041302D01*
X0049464Y0041215D01*
X0049441Y0041129D01*
X0049413Y0041044D01*
X0049382Y0040960D01*
X0049347Y0040878D01*
X0049309Y0040798D01*
X0049267Y0040719D01*
X0049222Y0040643D01*
X0049173Y0040568D01*
X0049121Y0040496D01*
X0049066Y0040426D01*
X0049007Y0040358D01*
X0048946Y0040294D01*
X0048882Y0040232D01*
X0048815Y0040173D01*
X0048746Y0040117D01*
X0048674Y0040064D01*
X0048600Y0040014D01*
X0048524Y0039968D01*
X0048446Y0039925D01*
X0048366Y0039886D01*
X0048284Y0039850D01*
X0048201Y0039818D01*
X0048117Y0039790D01*
X0048031Y0039765D01*
X0047944Y0039745D01*
X0047857Y0039728D01*
X0047768Y0039715D01*
X0047680Y0039706D01*
X0047591Y0039701D01*
X0047502Y0039700D01*
X0047413Y0039703D01*
X0047324Y0039710D01*
X0047235Y0039721D01*
X0047147Y0039736D01*
X0047060Y0039754D01*
X0046974Y0039777D01*
X0046889Y0039803D01*
X0046805Y0039834D01*
X0046723Y0039868D01*
X0046642Y0039905D01*
X0046563Y0039946D01*
X0046486Y0039991D01*
X0046411Y0040039D01*
X0046338Y0040090D01*
X0046267Y0040144D01*
X0046199Y0040202D01*
X0046134Y0040262D01*
X0046071Y0040326D01*
X0046011Y0040392D01*
X0045954Y0040461D01*
X0045901Y0040532D01*
X0045850Y0040605D01*
X0045803Y0040681D01*
X0045760Y0040758D01*
X0045719Y0040838D01*
X0045683Y0040919D01*
X0045650Y0041002D01*
X0045621Y0041086D01*
X0045595Y0041172D01*
X0045573Y0041258D01*
X0045556Y0041345D01*
X0045542Y0041433D01*
X0045532Y0041522D01*
X0045526Y0041611D01*
X0045524Y0041700D01*
X0025824Y0041700D02*
X0025826Y0041789D01*
X0025832Y0041878D01*
X0025842Y0041967D01*
X0025856Y0042055D01*
X0025873Y0042142D01*
X0025895Y0042228D01*
X0025921Y0042314D01*
X0025950Y0042398D01*
X0025983Y0042481D01*
X0026019Y0042562D01*
X0026060Y0042642D01*
X0026103Y0042719D01*
X0026150Y0042795D01*
X0026201Y0042868D01*
X0026254Y0042939D01*
X0026311Y0043008D01*
X0026371Y0043074D01*
X0026434Y0043138D01*
X0026499Y0043198D01*
X0026567Y0043256D01*
X0026638Y0043310D01*
X0026711Y0043361D01*
X0026786Y0043409D01*
X0026863Y0043454D01*
X0026942Y0043495D01*
X0027023Y0043532D01*
X0027105Y0043566D01*
X0027189Y0043597D01*
X0027274Y0043623D01*
X0027360Y0043646D01*
X0027447Y0043664D01*
X0027535Y0043679D01*
X0027624Y0043690D01*
X0027713Y0043697D01*
X0027802Y0043700D01*
X0027891Y0043699D01*
X0027980Y0043694D01*
X0028068Y0043685D01*
X0028157Y0043672D01*
X0028244Y0043655D01*
X0028331Y0043635D01*
X0028417Y0043610D01*
X0028501Y0043582D01*
X0028584Y0043550D01*
X0028666Y0043514D01*
X0028746Y0043475D01*
X0028824Y0043432D01*
X0028900Y0043386D01*
X0028974Y0043336D01*
X0029046Y0043283D01*
X0029115Y0043227D01*
X0029182Y0043168D01*
X0029246Y0043106D01*
X0029307Y0043042D01*
X0029366Y0042974D01*
X0029421Y0042904D01*
X0029473Y0042832D01*
X0029522Y0042757D01*
X0029567Y0042681D01*
X0029609Y0042602D01*
X0029647Y0042522D01*
X0029682Y0042440D01*
X0029713Y0042356D01*
X0029741Y0042271D01*
X0029764Y0042185D01*
X0029784Y0042098D01*
X0029800Y0042011D01*
X0029812Y0041922D01*
X0029820Y0041834D01*
X0029824Y0041745D01*
X0029824Y0041655D01*
X0029820Y0041566D01*
X0029812Y0041478D01*
X0029800Y0041389D01*
X0029784Y0041302D01*
X0029764Y0041215D01*
X0029741Y0041129D01*
X0029713Y0041044D01*
X0029682Y0040960D01*
X0029647Y0040878D01*
X0029609Y0040798D01*
X0029567Y0040719D01*
X0029522Y0040643D01*
X0029473Y0040568D01*
X0029421Y0040496D01*
X0029366Y0040426D01*
X0029307Y0040358D01*
X0029246Y0040294D01*
X0029182Y0040232D01*
X0029115Y0040173D01*
X0029046Y0040117D01*
X0028974Y0040064D01*
X0028900Y0040014D01*
X0028824Y0039968D01*
X0028746Y0039925D01*
X0028666Y0039886D01*
X0028584Y0039850D01*
X0028501Y0039818D01*
X0028417Y0039790D01*
X0028331Y0039765D01*
X0028244Y0039745D01*
X0028157Y0039728D01*
X0028068Y0039715D01*
X0027980Y0039706D01*
X0027891Y0039701D01*
X0027802Y0039700D01*
X0027713Y0039703D01*
X0027624Y0039710D01*
X0027535Y0039721D01*
X0027447Y0039736D01*
X0027360Y0039754D01*
X0027274Y0039777D01*
X0027189Y0039803D01*
X0027105Y0039834D01*
X0027023Y0039868D01*
X0026942Y0039905D01*
X0026863Y0039946D01*
X0026786Y0039991D01*
X0026711Y0040039D01*
X0026638Y0040090D01*
X0026567Y0040144D01*
X0026499Y0040202D01*
X0026434Y0040262D01*
X0026371Y0040326D01*
X0026311Y0040392D01*
X0026254Y0040461D01*
X0026201Y0040532D01*
X0026150Y0040605D01*
X0026103Y0040681D01*
X0026060Y0040758D01*
X0026019Y0040838D01*
X0025983Y0040919D01*
X0025950Y0041002D01*
X0025921Y0041086D01*
X0025895Y0041172D01*
X0025873Y0041258D01*
X0025856Y0041345D01*
X0025842Y0041433D01*
X0025832Y0041522D01*
X0025826Y0041611D01*
X0025824Y0041700D01*
X0024324Y0020902D02*
X0018025Y0020902D01*
X0031324Y0020902D02*
X0044025Y0020902D01*
X0051025Y0020902D02*
X0057324Y0020902D01*
D18*
X0128372Y0120157D03*
X0129061Y0136843D03*
X0156772Y0120157D03*
X0166461Y0136843D03*
D19*
X0109332Y0141037D02*
X0106263Y0137967D01*
X0106263Y0137200D01*
X0104728Y0137200D02*
X0103193Y0138735D01*
X0103961Y0138735D02*
X0101659Y0138735D01*
X0101659Y0137200D02*
X0101659Y0141804D01*
X0103961Y0141804D01*
X0104728Y0141037D01*
X0104728Y0139502D01*
X0103961Y0138735D01*
X0106263Y0141804D02*
X0109332Y0141804D01*
X0109332Y0141037D01*
X0034634Y0117749D02*
X0033467Y0118916D01*
X0033467Y0118333D01*
X0032883Y0118333D01*
X0032883Y0118916D01*
X0033467Y0118916D01*
X0033467Y0120143D02*
X0031131Y0122478D01*
X0030548Y0122478D01*
X0029964Y0121894D01*
X0029964Y0120727D01*
X0030548Y0120143D01*
X0033467Y0120143D02*
X0033467Y0122478D01*
X0033467Y0123734D02*
X0031131Y0123734D01*
X0031131Y0124318D01*
X0031715Y0124902D01*
X0031131Y0125485D01*
X0031715Y0126069D01*
X0033467Y0126069D01*
X0033467Y0124902D02*
X0031715Y0124902D01*
X0031131Y0127325D02*
X0031131Y0127909D01*
X0031715Y0128493D01*
X0031131Y0129076D01*
X0031715Y0129660D01*
X0033467Y0129660D01*
X0033467Y0128493D02*
X0031715Y0128493D01*
X0031131Y0127325D02*
X0033467Y0127325D01*
X0032883Y0116493D02*
X0031715Y0116493D01*
X0031131Y0115909D01*
X0031131Y0115325D01*
X0031715Y0114158D01*
X0029964Y0114158D01*
X0029964Y0116493D01*
X0032883Y0116493D02*
X0033467Y0115909D01*
X0033467Y0114742D01*
X0032883Y0114158D01*
X0033467Y0112902D02*
X0033467Y0110567D01*
X0033467Y0111734D02*
X0029964Y0111734D01*
X0031131Y0110567D01*
X0031131Y0109311D02*
X0029964Y0108143D01*
X0031131Y0106976D01*
X0033467Y0106976D01*
X0031715Y0106976D02*
X0031715Y0109311D01*
X0031131Y0109311D02*
X0033467Y0109311D01*
X0023144Y0099450D02*
X0020075Y0099450D01*
X0021609Y0099450D02*
X0021609Y0104054D01*
X0020075Y0102519D01*
X0018540Y0104054D02*
X0015471Y0104054D01*
X0015471Y0099450D01*
X0018540Y0099450D01*
X0017005Y0101752D02*
X0015471Y0101752D01*
X0013936Y0101752D02*
X0013169Y0100985D01*
X0010867Y0100985D01*
X0012401Y0100985D02*
X0013936Y0099450D01*
X0010867Y0099450D02*
X0010867Y0104054D01*
X0013169Y0104054D01*
X0013936Y0103287D01*
X0013936Y0101752D01*
X0007467Y0182161D02*
X0002863Y0185230D01*
X0004397Y0186765D02*
X0002863Y0188299D01*
X0007467Y0188299D01*
X0007467Y0186765D02*
X0007467Y0189834D01*
X0007467Y0185230D02*
X0002863Y0182161D01*
D20*
X0044317Y0124572D02*
X0044317Y0120368D01*
X0044317Y0122470D02*
X0038011Y0122470D01*
X0040113Y0120368D01*
X0039062Y0118126D02*
X0038011Y0117075D01*
X0038011Y0114973D01*
X0039062Y0113923D01*
X0043266Y0113923D01*
X0044317Y0114973D01*
X0044317Y0117075D01*
X0043266Y0118126D01*
X0044317Y0111727D02*
X0044317Y0109626D01*
X0044317Y0110676D02*
X0038011Y0110676D01*
X0038011Y0109626D02*
X0038011Y0111727D01*
D21*
X0071417Y0114276D03*
X0071417Y0124276D03*
X0071417Y0134276D03*
D22*
X0028046Y0147774D02*
X0028046Y0148314D01*
X0028047Y0148313D02*
X0028127Y0148317D01*
X0028208Y0148324D01*
X0028287Y0148334D01*
X0028367Y0148349D01*
X0028445Y0148367D01*
X0028523Y0148389D01*
X0028599Y0148414D01*
X0028674Y0148443D01*
X0028748Y0148475D01*
X0028820Y0148511D01*
X0028891Y0148550D01*
X0028959Y0148592D01*
X0029026Y0148637D01*
X0029090Y0148686D01*
X0029152Y0148737D01*
X0029211Y0148792D01*
X0029268Y0148849D01*
X0029323Y0148908D01*
X0029374Y0148970D01*
X0029423Y0149034D01*
X0029468Y0149101D01*
X0029510Y0149169D01*
X0029549Y0149240D01*
X0029585Y0149312D01*
X0029617Y0149386D01*
X0029646Y0149461D01*
X0029671Y0149537D01*
X0029693Y0149615D01*
X0029711Y0149693D01*
X0029726Y0149773D01*
X0029736Y0149852D01*
X0029743Y0149933D01*
X0029747Y0150013D01*
X0030286Y0150014D01*
X0030287Y0150013D01*
X0030284Y0149918D01*
X0030276Y0149824D01*
X0030265Y0149730D01*
X0030250Y0149636D01*
X0030231Y0149543D01*
X0030209Y0149451D01*
X0030182Y0149360D01*
X0030152Y0149271D01*
X0030118Y0149182D01*
X0030080Y0149095D01*
X0030038Y0149010D01*
X0029994Y0148927D01*
X0029945Y0148845D01*
X0029894Y0148766D01*
X0029839Y0148689D01*
X0029781Y0148614D01*
X0029719Y0148541D01*
X0029655Y0148472D01*
X0029588Y0148405D01*
X0029519Y0148341D01*
X0029446Y0148279D01*
X0029371Y0148221D01*
X0029294Y0148166D01*
X0029215Y0148115D01*
X0029133Y0148066D01*
X0029050Y0148022D01*
X0028965Y0147980D01*
X0028878Y0147942D01*
X0028789Y0147908D01*
X0028700Y0147878D01*
X0028609Y0147851D01*
X0028517Y0147829D01*
X0028424Y0147810D01*
X0028330Y0147795D01*
X0028236Y0147784D01*
X0028142Y0147776D01*
X0028047Y0147773D01*
X0028047Y0147829D01*
X0028139Y0147832D01*
X0028231Y0147839D01*
X0028323Y0147850D01*
X0028414Y0147865D01*
X0028505Y0147883D01*
X0028594Y0147906D01*
X0028683Y0147932D01*
X0028771Y0147961D01*
X0028857Y0147994D01*
X0028941Y0148031D01*
X0029025Y0148072D01*
X0029106Y0148115D01*
X0029185Y0148162D01*
X0029263Y0148213D01*
X0029338Y0148266D01*
X0029411Y0148323D01*
X0029482Y0148383D01*
X0029550Y0148445D01*
X0029615Y0148510D01*
X0029677Y0148578D01*
X0029737Y0148649D01*
X0029794Y0148722D01*
X0029847Y0148797D01*
X0029898Y0148875D01*
X0029945Y0148954D01*
X0029988Y0149035D01*
X0030029Y0149119D01*
X0030066Y0149203D01*
X0030099Y0149289D01*
X0030128Y0149377D01*
X0030154Y0149466D01*
X0030177Y0149555D01*
X0030195Y0149646D01*
X0030210Y0149737D01*
X0030221Y0149829D01*
X0030228Y0149921D01*
X0030231Y0150013D01*
X0030175Y0150013D01*
X0030172Y0149921D01*
X0030164Y0149828D01*
X0030153Y0149737D01*
X0030138Y0149645D01*
X0030119Y0149555D01*
X0030096Y0149465D01*
X0030070Y0149377D01*
X0030039Y0149289D01*
X0030005Y0149203D01*
X0029967Y0149119D01*
X0029926Y0149036D01*
X0029881Y0148955D01*
X0029833Y0148876D01*
X0029781Y0148800D01*
X0029726Y0148725D01*
X0029668Y0148653D01*
X0029607Y0148584D01*
X0029543Y0148517D01*
X0029476Y0148453D01*
X0029407Y0148392D01*
X0029335Y0148334D01*
X0029260Y0148279D01*
X0029184Y0148227D01*
X0029105Y0148179D01*
X0029024Y0148134D01*
X0028941Y0148093D01*
X0028857Y0148055D01*
X0028771Y0148021D01*
X0028683Y0147990D01*
X0028595Y0147964D01*
X0028505Y0147941D01*
X0028415Y0147922D01*
X0028323Y0147907D01*
X0028232Y0147896D01*
X0028139Y0147888D01*
X0028047Y0147885D01*
X0028047Y0147941D01*
X0028137Y0147944D01*
X0028227Y0147951D01*
X0028316Y0147962D01*
X0028405Y0147977D01*
X0028493Y0147996D01*
X0028580Y0148018D01*
X0028667Y0148044D01*
X0028752Y0148074D01*
X0028835Y0148107D01*
X0028917Y0148144D01*
X0028998Y0148184D01*
X0029077Y0148228D01*
X0029153Y0148275D01*
X0029228Y0148325D01*
X0029301Y0148378D01*
X0029371Y0148435D01*
X0029438Y0148494D01*
X0029503Y0148557D01*
X0029566Y0148622D01*
X0029625Y0148689D01*
X0029682Y0148759D01*
X0029735Y0148832D01*
X0029785Y0148907D01*
X0029832Y0148983D01*
X0029876Y0149062D01*
X0029916Y0149143D01*
X0029953Y0149225D01*
X0029986Y0149308D01*
X0030016Y0149393D01*
X0030042Y0149480D01*
X0030064Y0149567D01*
X0030083Y0149655D01*
X0030098Y0149744D01*
X0030109Y0149833D01*
X0030116Y0149923D01*
X0030119Y0150013D01*
X0030063Y0150013D01*
X0030060Y0149925D01*
X0030053Y0149838D01*
X0030042Y0149751D01*
X0030028Y0149665D01*
X0030010Y0149579D01*
X0029988Y0149494D01*
X0029963Y0149410D01*
X0029934Y0149328D01*
X0029901Y0149246D01*
X0029866Y0149166D01*
X0029826Y0149088D01*
X0029784Y0149011D01*
X0029738Y0148937D01*
X0029689Y0148864D01*
X0029637Y0148794D01*
X0029582Y0148725D01*
X0029524Y0148660D01*
X0029464Y0148596D01*
X0029400Y0148536D01*
X0029335Y0148478D01*
X0029266Y0148423D01*
X0029196Y0148371D01*
X0029123Y0148322D01*
X0029049Y0148276D01*
X0028972Y0148234D01*
X0028894Y0148194D01*
X0028814Y0148159D01*
X0028732Y0148126D01*
X0028650Y0148097D01*
X0028566Y0148072D01*
X0028481Y0148050D01*
X0028395Y0148032D01*
X0028309Y0148018D01*
X0028222Y0148007D01*
X0028135Y0148000D01*
X0028047Y0147997D01*
X0028047Y0148053D01*
X0028135Y0148056D01*
X0028222Y0148064D01*
X0028309Y0148075D01*
X0028395Y0148089D01*
X0028481Y0148108D01*
X0028565Y0148130D01*
X0028649Y0148156D01*
X0028731Y0148186D01*
X0028812Y0148219D01*
X0028892Y0148256D01*
X0028970Y0148296D01*
X0029046Y0148340D01*
X0029120Y0148386D01*
X0029192Y0148437D01*
X0029261Y0148490D01*
X0029328Y0148546D01*
X0029393Y0148605D01*
X0029455Y0148667D01*
X0029514Y0148732D01*
X0029570Y0148799D01*
X0029623Y0148868D01*
X0029674Y0148940D01*
X0029720Y0149014D01*
X0029764Y0149090D01*
X0029804Y0149168D01*
X0029841Y0149248D01*
X0029874Y0149329D01*
X0029904Y0149411D01*
X0029930Y0149495D01*
X0029952Y0149579D01*
X0029971Y0149665D01*
X0029985Y0149751D01*
X0029996Y0149838D01*
X0030004Y0149925D01*
X0030007Y0150013D01*
X0029951Y0150013D01*
X0029948Y0149928D01*
X0029941Y0149843D01*
X0029930Y0149759D01*
X0029916Y0149675D01*
X0029898Y0149592D01*
X0029876Y0149510D01*
X0029851Y0149428D01*
X0029822Y0149348D01*
X0029790Y0149270D01*
X0029754Y0149192D01*
X0029715Y0149117D01*
X0029672Y0149043D01*
X0029627Y0148971D01*
X0029578Y0148901D01*
X0029526Y0148834D01*
X0029472Y0148769D01*
X0029414Y0148706D01*
X0029354Y0148646D01*
X0029291Y0148588D01*
X0029226Y0148534D01*
X0029159Y0148482D01*
X0029089Y0148433D01*
X0029017Y0148388D01*
X0028943Y0148345D01*
X0028868Y0148306D01*
X0028790Y0148270D01*
X0028712Y0148238D01*
X0028632Y0148209D01*
X0028550Y0148184D01*
X0028468Y0148162D01*
X0028385Y0148144D01*
X0028301Y0148130D01*
X0028217Y0148119D01*
X0028132Y0148112D01*
X0028047Y0148109D01*
X0028047Y0148165D01*
X0028132Y0148169D01*
X0028217Y0148176D01*
X0028301Y0148187D01*
X0028385Y0148201D01*
X0028468Y0148220D01*
X0028550Y0148242D01*
X0028631Y0148268D01*
X0028710Y0148298D01*
X0028788Y0148331D01*
X0028865Y0148367D01*
X0028940Y0148408D01*
X0029013Y0148451D01*
X0029084Y0148498D01*
X0029153Y0148548D01*
X0029219Y0148600D01*
X0029284Y0148656D01*
X0029345Y0148715D01*
X0029404Y0148776D01*
X0029460Y0148841D01*
X0029512Y0148907D01*
X0029562Y0148976D01*
X0029609Y0149047D01*
X0029652Y0149120D01*
X0029693Y0149195D01*
X0029729Y0149272D01*
X0029762Y0149350D01*
X0029792Y0149429D01*
X0029818Y0149510D01*
X0029840Y0149592D01*
X0029859Y0149675D01*
X0029873Y0149759D01*
X0029884Y0149843D01*
X0029891Y0149928D01*
X0029895Y0150013D01*
X0029839Y0150013D01*
X0029836Y0149931D01*
X0029829Y0149849D01*
X0029818Y0149767D01*
X0029804Y0149686D01*
X0029786Y0149605D01*
X0029764Y0149526D01*
X0029739Y0149447D01*
X0029710Y0149370D01*
X0029678Y0149294D01*
X0029642Y0149220D01*
X0029604Y0149147D01*
X0029561Y0149076D01*
X0029516Y0149008D01*
X0029468Y0148941D01*
X0029416Y0148876D01*
X0029362Y0148814D01*
X0029305Y0148755D01*
X0029246Y0148698D01*
X0029184Y0148644D01*
X0029119Y0148592D01*
X0029052Y0148544D01*
X0028984Y0148499D01*
X0028913Y0148456D01*
X0028840Y0148418D01*
X0028766Y0148382D01*
X0028690Y0148350D01*
X0028613Y0148321D01*
X0028534Y0148296D01*
X0028455Y0148274D01*
X0028374Y0148256D01*
X0028293Y0148242D01*
X0028211Y0148231D01*
X0028129Y0148224D01*
X0028047Y0148221D01*
X0028047Y0148277D01*
X0028129Y0148281D01*
X0028211Y0148288D01*
X0028293Y0148299D01*
X0028374Y0148313D01*
X0028454Y0148332D01*
X0028533Y0148354D01*
X0028611Y0148380D01*
X0028688Y0148409D01*
X0028763Y0148442D01*
X0028837Y0148479D01*
X0028909Y0148519D01*
X0028979Y0148562D01*
X0029047Y0148608D01*
X0029112Y0148658D01*
X0029176Y0148710D01*
X0029236Y0148766D01*
X0029294Y0148824D01*
X0029350Y0148884D01*
X0029402Y0148948D01*
X0029452Y0149013D01*
X0029498Y0149081D01*
X0029541Y0149151D01*
X0029581Y0149223D01*
X0029618Y0149297D01*
X0029651Y0149372D01*
X0029680Y0149449D01*
X0029706Y0149527D01*
X0029728Y0149606D01*
X0029747Y0149686D01*
X0029761Y0149767D01*
X0029772Y0149849D01*
X0029779Y0149931D01*
X0029783Y0150013D01*
X0030286Y0155072D02*
X0029746Y0155072D01*
X0029747Y0155073D02*
X0029743Y0155153D01*
X0029736Y0155234D01*
X0029726Y0155313D01*
X0029711Y0155393D01*
X0029693Y0155471D01*
X0029671Y0155549D01*
X0029646Y0155625D01*
X0029617Y0155700D01*
X0029585Y0155774D01*
X0029549Y0155846D01*
X0029510Y0155917D01*
X0029468Y0155985D01*
X0029423Y0156052D01*
X0029374Y0156116D01*
X0029323Y0156178D01*
X0029268Y0156237D01*
X0029211Y0156294D01*
X0029152Y0156349D01*
X0029090Y0156400D01*
X0029026Y0156449D01*
X0028959Y0156494D01*
X0028891Y0156536D01*
X0028820Y0156575D01*
X0028748Y0156611D01*
X0028674Y0156643D01*
X0028599Y0156672D01*
X0028523Y0156697D01*
X0028445Y0156719D01*
X0028367Y0156737D01*
X0028287Y0156752D01*
X0028208Y0156762D01*
X0028127Y0156769D01*
X0028047Y0156773D01*
X0028046Y0157312D01*
X0028047Y0157313D01*
X0028142Y0157310D01*
X0028236Y0157302D01*
X0028330Y0157291D01*
X0028424Y0157276D01*
X0028517Y0157257D01*
X0028609Y0157235D01*
X0028700Y0157208D01*
X0028789Y0157178D01*
X0028878Y0157144D01*
X0028965Y0157106D01*
X0029050Y0157064D01*
X0029133Y0157020D01*
X0029215Y0156971D01*
X0029294Y0156920D01*
X0029371Y0156865D01*
X0029446Y0156807D01*
X0029519Y0156745D01*
X0029588Y0156681D01*
X0029655Y0156614D01*
X0029719Y0156545D01*
X0029781Y0156472D01*
X0029839Y0156397D01*
X0029894Y0156320D01*
X0029945Y0156241D01*
X0029994Y0156159D01*
X0030038Y0156076D01*
X0030080Y0155991D01*
X0030118Y0155904D01*
X0030152Y0155815D01*
X0030182Y0155726D01*
X0030209Y0155635D01*
X0030231Y0155543D01*
X0030250Y0155450D01*
X0030265Y0155356D01*
X0030276Y0155262D01*
X0030284Y0155168D01*
X0030287Y0155073D01*
X0030231Y0155073D01*
X0030228Y0155165D01*
X0030221Y0155257D01*
X0030210Y0155349D01*
X0030195Y0155440D01*
X0030177Y0155531D01*
X0030154Y0155620D01*
X0030128Y0155709D01*
X0030099Y0155797D01*
X0030066Y0155883D01*
X0030029Y0155967D01*
X0029988Y0156051D01*
X0029945Y0156132D01*
X0029898Y0156211D01*
X0029847Y0156289D01*
X0029794Y0156364D01*
X0029737Y0156437D01*
X0029677Y0156508D01*
X0029615Y0156576D01*
X0029550Y0156641D01*
X0029482Y0156703D01*
X0029411Y0156763D01*
X0029338Y0156820D01*
X0029263Y0156873D01*
X0029185Y0156924D01*
X0029106Y0156971D01*
X0029025Y0157014D01*
X0028941Y0157055D01*
X0028857Y0157092D01*
X0028771Y0157125D01*
X0028683Y0157154D01*
X0028594Y0157180D01*
X0028505Y0157203D01*
X0028414Y0157221D01*
X0028323Y0157236D01*
X0028231Y0157247D01*
X0028139Y0157254D01*
X0028047Y0157257D01*
X0028047Y0157201D01*
X0028139Y0157198D01*
X0028232Y0157190D01*
X0028323Y0157179D01*
X0028415Y0157164D01*
X0028505Y0157145D01*
X0028595Y0157122D01*
X0028683Y0157096D01*
X0028771Y0157065D01*
X0028857Y0157031D01*
X0028941Y0156993D01*
X0029024Y0156952D01*
X0029105Y0156907D01*
X0029184Y0156859D01*
X0029260Y0156807D01*
X0029335Y0156752D01*
X0029407Y0156694D01*
X0029476Y0156633D01*
X0029543Y0156569D01*
X0029607Y0156502D01*
X0029668Y0156433D01*
X0029726Y0156361D01*
X0029781Y0156286D01*
X0029833Y0156210D01*
X0029881Y0156131D01*
X0029926Y0156050D01*
X0029967Y0155967D01*
X0030005Y0155883D01*
X0030039Y0155797D01*
X0030070Y0155709D01*
X0030096Y0155621D01*
X0030119Y0155531D01*
X0030138Y0155441D01*
X0030153Y0155349D01*
X0030164Y0155258D01*
X0030172Y0155165D01*
X0030175Y0155073D01*
X0030119Y0155073D01*
X0030116Y0155163D01*
X0030109Y0155253D01*
X0030098Y0155342D01*
X0030083Y0155431D01*
X0030064Y0155519D01*
X0030042Y0155606D01*
X0030016Y0155693D01*
X0029986Y0155778D01*
X0029953Y0155861D01*
X0029916Y0155943D01*
X0029876Y0156024D01*
X0029832Y0156103D01*
X0029785Y0156179D01*
X0029735Y0156254D01*
X0029682Y0156327D01*
X0029625Y0156397D01*
X0029566Y0156464D01*
X0029503Y0156529D01*
X0029438Y0156592D01*
X0029371Y0156651D01*
X0029301Y0156708D01*
X0029228Y0156761D01*
X0029153Y0156811D01*
X0029077Y0156858D01*
X0028998Y0156902D01*
X0028917Y0156942D01*
X0028835Y0156979D01*
X0028752Y0157012D01*
X0028667Y0157042D01*
X0028580Y0157068D01*
X0028493Y0157090D01*
X0028405Y0157109D01*
X0028316Y0157124D01*
X0028227Y0157135D01*
X0028137Y0157142D01*
X0028047Y0157145D01*
X0028047Y0157089D01*
X0028135Y0157086D01*
X0028222Y0157079D01*
X0028309Y0157068D01*
X0028395Y0157054D01*
X0028481Y0157036D01*
X0028566Y0157014D01*
X0028650Y0156989D01*
X0028732Y0156960D01*
X0028814Y0156927D01*
X0028894Y0156892D01*
X0028972Y0156852D01*
X0029049Y0156810D01*
X0029123Y0156764D01*
X0029196Y0156715D01*
X0029266Y0156663D01*
X0029335Y0156608D01*
X0029400Y0156550D01*
X0029464Y0156490D01*
X0029524Y0156426D01*
X0029582Y0156361D01*
X0029637Y0156292D01*
X0029689Y0156222D01*
X0029738Y0156149D01*
X0029784Y0156075D01*
X0029826Y0155998D01*
X0029866Y0155920D01*
X0029901Y0155840D01*
X0029934Y0155758D01*
X0029963Y0155676D01*
X0029988Y0155592D01*
X0030010Y0155507D01*
X0030028Y0155421D01*
X0030042Y0155335D01*
X0030053Y0155248D01*
X0030060Y0155161D01*
X0030063Y0155073D01*
X0030007Y0155073D01*
X0030004Y0155161D01*
X0029996Y0155248D01*
X0029985Y0155335D01*
X0029971Y0155421D01*
X0029952Y0155507D01*
X0029930Y0155591D01*
X0029904Y0155675D01*
X0029874Y0155757D01*
X0029841Y0155838D01*
X0029804Y0155918D01*
X0029764Y0155996D01*
X0029720Y0156072D01*
X0029674Y0156146D01*
X0029623Y0156218D01*
X0029570Y0156287D01*
X0029514Y0156354D01*
X0029455Y0156419D01*
X0029393Y0156481D01*
X0029328Y0156540D01*
X0029261Y0156596D01*
X0029192Y0156649D01*
X0029120Y0156700D01*
X0029046Y0156746D01*
X0028970Y0156790D01*
X0028892Y0156830D01*
X0028812Y0156867D01*
X0028731Y0156900D01*
X0028649Y0156930D01*
X0028565Y0156956D01*
X0028481Y0156978D01*
X0028395Y0156997D01*
X0028309Y0157011D01*
X0028222Y0157022D01*
X0028135Y0157030D01*
X0028047Y0157033D01*
X0028047Y0156977D01*
X0028132Y0156974D01*
X0028217Y0156967D01*
X0028301Y0156956D01*
X0028385Y0156942D01*
X0028468Y0156924D01*
X0028550Y0156902D01*
X0028632Y0156877D01*
X0028712Y0156848D01*
X0028790Y0156816D01*
X0028868Y0156780D01*
X0028943Y0156741D01*
X0029017Y0156698D01*
X0029089Y0156653D01*
X0029159Y0156604D01*
X0029226Y0156552D01*
X0029291Y0156498D01*
X0029354Y0156440D01*
X0029414Y0156380D01*
X0029472Y0156317D01*
X0029526Y0156252D01*
X0029578Y0156185D01*
X0029627Y0156115D01*
X0029672Y0156043D01*
X0029715Y0155969D01*
X0029754Y0155894D01*
X0029790Y0155816D01*
X0029822Y0155738D01*
X0029851Y0155658D01*
X0029876Y0155576D01*
X0029898Y0155494D01*
X0029916Y0155411D01*
X0029930Y0155327D01*
X0029941Y0155243D01*
X0029948Y0155158D01*
X0029951Y0155073D01*
X0029895Y0155073D01*
X0029891Y0155158D01*
X0029884Y0155243D01*
X0029873Y0155327D01*
X0029859Y0155411D01*
X0029840Y0155494D01*
X0029818Y0155576D01*
X0029792Y0155657D01*
X0029762Y0155736D01*
X0029729Y0155814D01*
X0029693Y0155891D01*
X0029652Y0155966D01*
X0029609Y0156039D01*
X0029562Y0156110D01*
X0029512Y0156179D01*
X0029460Y0156245D01*
X0029404Y0156310D01*
X0029345Y0156371D01*
X0029284Y0156430D01*
X0029219Y0156486D01*
X0029153Y0156538D01*
X0029084Y0156588D01*
X0029013Y0156635D01*
X0028940Y0156678D01*
X0028865Y0156719D01*
X0028788Y0156755D01*
X0028710Y0156788D01*
X0028631Y0156818D01*
X0028550Y0156844D01*
X0028468Y0156866D01*
X0028385Y0156885D01*
X0028301Y0156899D01*
X0028217Y0156910D01*
X0028132Y0156917D01*
X0028047Y0156921D01*
X0028047Y0156865D01*
X0028129Y0156862D01*
X0028211Y0156855D01*
X0028293Y0156844D01*
X0028374Y0156830D01*
X0028455Y0156812D01*
X0028534Y0156790D01*
X0028613Y0156765D01*
X0028690Y0156736D01*
X0028766Y0156704D01*
X0028840Y0156668D01*
X0028913Y0156630D01*
X0028984Y0156587D01*
X0029052Y0156542D01*
X0029119Y0156494D01*
X0029184Y0156442D01*
X0029246Y0156388D01*
X0029305Y0156331D01*
X0029362Y0156272D01*
X0029416Y0156210D01*
X0029468Y0156145D01*
X0029516Y0156078D01*
X0029561Y0156010D01*
X0029604Y0155939D01*
X0029642Y0155866D01*
X0029678Y0155792D01*
X0029710Y0155716D01*
X0029739Y0155639D01*
X0029764Y0155560D01*
X0029786Y0155481D01*
X0029804Y0155400D01*
X0029818Y0155319D01*
X0029829Y0155237D01*
X0029836Y0155155D01*
X0029839Y0155073D01*
X0029783Y0155073D01*
X0029779Y0155155D01*
X0029772Y0155237D01*
X0029761Y0155319D01*
X0029747Y0155400D01*
X0029728Y0155480D01*
X0029706Y0155559D01*
X0029680Y0155637D01*
X0029651Y0155714D01*
X0029618Y0155789D01*
X0029581Y0155863D01*
X0029541Y0155935D01*
X0029498Y0156005D01*
X0029452Y0156073D01*
X0029402Y0156138D01*
X0029350Y0156202D01*
X0029294Y0156262D01*
X0029236Y0156320D01*
X0029176Y0156376D01*
X0029112Y0156428D01*
X0029047Y0156478D01*
X0028979Y0156524D01*
X0028909Y0156567D01*
X0028837Y0156607D01*
X0028763Y0156644D01*
X0028688Y0156677D01*
X0028611Y0156706D01*
X0028533Y0156732D01*
X0028454Y0156754D01*
X0028374Y0156773D01*
X0028293Y0156787D01*
X0028211Y0156798D01*
X0028129Y0156805D01*
X0028047Y0156809D01*
X0014988Y0157312D02*
X0014988Y0156772D01*
X0014987Y0156773D02*
X0014907Y0156769D01*
X0014826Y0156762D01*
X0014747Y0156752D01*
X0014667Y0156737D01*
X0014589Y0156719D01*
X0014511Y0156697D01*
X0014435Y0156672D01*
X0014360Y0156643D01*
X0014286Y0156611D01*
X0014214Y0156575D01*
X0014143Y0156536D01*
X0014075Y0156494D01*
X0014008Y0156449D01*
X0013944Y0156400D01*
X0013882Y0156349D01*
X0013823Y0156294D01*
X0013766Y0156237D01*
X0013711Y0156178D01*
X0013660Y0156116D01*
X0013611Y0156052D01*
X0013566Y0155985D01*
X0013524Y0155917D01*
X0013485Y0155846D01*
X0013449Y0155774D01*
X0013417Y0155700D01*
X0013388Y0155625D01*
X0013363Y0155549D01*
X0013341Y0155471D01*
X0013323Y0155393D01*
X0013308Y0155313D01*
X0013298Y0155234D01*
X0013291Y0155153D01*
X0013287Y0155073D01*
X0012748Y0155072D01*
X0012747Y0155073D01*
X0012750Y0155168D01*
X0012758Y0155262D01*
X0012769Y0155356D01*
X0012784Y0155450D01*
X0012803Y0155543D01*
X0012825Y0155635D01*
X0012852Y0155726D01*
X0012882Y0155815D01*
X0012916Y0155904D01*
X0012954Y0155991D01*
X0012996Y0156076D01*
X0013040Y0156159D01*
X0013089Y0156241D01*
X0013140Y0156320D01*
X0013195Y0156397D01*
X0013253Y0156472D01*
X0013315Y0156545D01*
X0013379Y0156614D01*
X0013446Y0156681D01*
X0013515Y0156745D01*
X0013588Y0156807D01*
X0013663Y0156865D01*
X0013740Y0156920D01*
X0013819Y0156971D01*
X0013901Y0157020D01*
X0013984Y0157064D01*
X0014069Y0157106D01*
X0014156Y0157144D01*
X0014245Y0157178D01*
X0014334Y0157208D01*
X0014425Y0157235D01*
X0014517Y0157257D01*
X0014610Y0157276D01*
X0014704Y0157291D01*
X0014798Y0157302D01*
X0014892Y0157310D01*
X0014987Y0157313D01*
X0014987Y0157257D01*
X0014895Y0157254D01*
X0014803Y0157247D01*
X0014711Y0157236D01*
X0014620Y0157221D01*
X0014529Y0157203D01*
X0014440Y0157180D01*
X0014351Y0157154D01*
X0014263Y0157125D01*
X0014177Y0157092D01*
X0014093Y0157055D01*
X0014009Y0157014D01*
X0013928Y0156971D01*
X0013849Y0156924D01*
X0013771Y0156873D01*
X0013696Y0156820D01*
X0013623Y0156763D01*
X0013552Y0156703D01*
X0013484Y0156641D01*
X0013419Y0156576D01*
X0013357Y0156508D01*
X0013297Y0156437D01*
X0013240Y0156364D01*
X0013187Y0156289D01*
X0013136Y0156211D01*
X0013089Y0156132D01*
X0013046Y0156051D01*
X0013005Y0155967D01*
X0012968Y0155883D01*
X0012935Y0155797D01*
X0012906Y0155709D01*
X0012880Y0155620D01*
X0012857Y0155531D01*
X0012839Y0155440D01*
X0012824Y0155349D01*
X0012813Y0155257D01*
X0012806Y0155165D01*
X0012803Y0155073D01*
X0012859Y0155073D01*
X0012862Y0155165D01*
X0012870Y0155258D01*
X0012881Y0155349D01*
X0012896Y0155441D01*
X0012915Y0155531D01*
X0012938Y0155621D01*
X0012964Y0155709D01*
X0012995Y0155797D01*
X0013029Y0155883D01*
X0013067Y0155967D01*
X0013108Y0156050D01*
X0013153Y0156131D01*
X0013201Y0156210D01*
X0013253Y0156286D01*
X0013308Y0156361D01*
X0013366Y0156433D01*
X0013427Y0156502D01*
X0013491Y0156569D01*
X0013558Y0156633D01*
X0013627Y0156694D01*
X0013699Y0156752D01*
X0013774Y0156807D01*
X0013850Y0156859D01*
X0013929Y0156907D01*
X0014010Y0156952D01*
X0014093Y0156993D01*
X0014177Y0157031D01*
X0014263Y0157065D01*
X0014351Y0157096D01*
X0014439Y0157122D01*
X0014529Y0157145D01*
X0014619Y0157164D01*
X0014711Y0157179D01*
X0014802Y0157190D01*
X0014895Y0157198D01*
X0014987Y0157201D01*
X0014987Y0157145D01*
X0014897Y0157142D01*
X0014807Y0157135D01*
X0014718Y0157124D01*
X0014629Y0157109D01*
X0014541Y0157090D01*
X0014454Y0157068D01*
X0014367Y0157042D01*
X0014282Y0157012D01*
X0014199Y0156979D01*
X0014117Y0156942D01*
X0014036Y0156902D01*
X0013957Y0156858D01*
X0013881Y0156811D01*
X0013806Y0156761D01*
X0013733Y0156708D01*
X0013663Y0156651D01*
X0013596Y0156592D01*
X0013531Y0156529D01*
X0013468Y0156464D01*
X0013409Y0156397D01*
X0013352Y0156327D01*
X0013299Y0156254D01*
X0013249Y0156179D01*
X0013202Y0156103D01*
X0013158Y0156024D01*
X0013118Y0155943D01*
X0013081Y0155861D01*
X0013048Y0155778D01*
X0013018Y0155693D01*
X0012992Y0155606D01*
X0012970Y0155519D01*
X0012951Y0155431D01*
X0012936Y0155342D01*
X0012925Y0155253D01*
X0012918Y0155163D01*
X0012915Y0155073D01*
X0012971Y0155073D01*
X0012974Y0155161D01*
X0012981Y0155248D01*
X0012992Y0155335D01*
X0013006Y0155421D01*
X0013024Y0155507D01*
X0013046Y0155592D01*
X0013071Y0155676D01*
X0013100Y0155758D01*
X0013133Y0155840D01*
X0013168Y0155920D01*
X0013208Y0155998D01*
X0013250Y0156075D01*
X0013296Y0156149D01*
X0013345Y0156222D01*
X0013397Y0156292D01*
X0013452Y0156361D01*
X0013510Y0156426D01*
X0013570Y0156490D01*
X0013634Y0156550D01*
X0013699Y0156608D01*
X0013768Y0156663D01*
X0013838Y0156715D01*
X0013911Y0156764D01*
X0013985Y0156810D01*
X0014062Y0156852D01*
X0014140Y0156892D01*
X0014220Y0156927D01*
X0014302Y0156960D01*
X0014384Y0156989D01*
X0014468Y0157014D01*
X0014553Y0157036D01*
X0014639Y0157054D01*
X0014725Y0157068D01*
X0014812Y0157079D01*
X0014899Y0157086D01*
X0014987Y0157089D01*
X0014987Y0157033D01*
X0014899Y0157030D01*
X0014812Y0157022D01*
X0014725Y0157011D01*
X0014639Y0156997D01*
X0014553Y0156978D01*
X0014469Y0156956D01*
X0014385Y0156930D01*
X0014303Y0156900D01*
X0014222Y0156867D01*
X0014142Y0156830D01*
X0014064Y0156790D01*
X0013988Y0156746D01*
X0013914Y0156700D01*
X0013842Y0156649D01*
X0013773Y0156596D01*
X0013706Y0156540D01*
X0013641Y0156481D01*
X0013579Y0156419D01*
X0013520Y0156354D01*
X0013464Y0156287D01*
X0013411Y0156218D01*
X0013360Y0156146D01*
X0013314Y0156072D01*
X0013270Y0155996D01*
X0013230Y0155918D01*
X0013193Y0155838D01*
X0013160Y0155757D01*
X0013130Y0155675D01*
X0013104Y0155591D01*
X0013082Y0155507D01*
X0013063Y0155421D01*
X0013049Y0155335D01*
X0013038Y0155248D01*
X0013030Y0155161D01*
X0013027Y0155073D01*
X0013083Y0155073D01*
X0013086Y0155158D01*
X0013093Y0155243D01*
X0013104Y0155327D01*
X0013118Y0155411D01*
X0013136Y0155494D01*
X0013158Y0155576D01*
X0013183Y0155658D01*
X0013212Y0155738D01*
X0013244Y0155816D01*
X0013280Y0155894D01*
X0013319Y0155969D01*
X0013362Y0156043D01*
X0013407Y0156115D01*
X0013456Y0156185D01*
X0013508Y0156252D01*
X0013562Y0156317D01*
X0013620Y0156380D01*
X0013680Y0156440D01*
X0013743Y0156498D01*
X0013808Y0156552D01*
X0013875Y0156604D01*
X0013945Y0156653D01*
X0014017Y0156698D01*
X0014091Y0156741D01*
X0014166Y0156780D01*
X0014244Y0156816D01*
X0014322Y0156848D01*
X0014402Y0156877D01*
X0014484Y0156902D01*
X0014566Y0156924D01*
X0014649Y0156942D01*
X0014733Y0156956D01*
X0014817Y0156967D01*
X0014902Y0156974D01*
X0014987Y0156977D01*
X0014987Y0156921D01*
X0014902Y0156917D01*
X0014817Y0156910D01*
X0014733Y0156899D01*
X0014649Y0156885D01*
X0014566Y0156866D01*
X0014484Y0156844D01*
X0014403Y0156818D01*
X0014324Y0156788D01*
X0014246Y0156755D01*
X0014169Y0156719D01*
X0014094Y0156678D01*
X0014021Y0156635D01*
X0013950Y0156588D01*
X0013881Y0156538D01*
X0013815Y0156486D01*
X0013750Y0156430D01*
X0013689Y0156371D01*
X0013630Y0156310D01*
X0013574Y0156245D01*
X0013522Y0156179D01*
X0013472Y0156110D01*
X0013425Y0156039D01*
X0013382Y0155966D01*
X0013341Y0155891D01*
X0013305Y0155814D01*
X0013272Y0155736D01*
X0013242Y0155657D01*
X0013216Y0155576D01*
X0013194Y0155494D01*
X0013175Y0155411D01*
X0013161Y0155327D01*
X0013150Y0155243D01*
X0013143Y0155158D01*
X0013139Y0155073D01*
X0013195Y0155073D01*
X0013198Y0155155D01*
X0013205Y0155237D01*
X0013216Y0155319D01*
X0013230Y0155400D01*
X0013248Y0155481D01*
X0013270Y0155560D01*
X0013295Y0155639D01*
X0013324Y0155716D01*
X0013356Y0155792D01*
X0013392Y0155866D01*
X0013430Y0155939D01*
X0013473Y0156010D01*
X0013518Y0156078D01*
X0013566Y0156145D01*
X0013618Y0156210D01*
X0013672Y0156272D01*
X0013729Y0156331D01*
X0013788Y0156388D01*
X0013850Y0156442D01*
X0013915Y0156494D01*
X0013982Y0156542D01*
X0014050Y0156587D01*
X0014121Y0156630D01*
X0014194Y0156668D01*
X0014268Y0156704D01*
X0014344Y0156736D01*
X0014421Y0156765D01*
X0014500Y0156790D01*
X0014579Y0156812D01*
X0014660Y0156830D01*
X0014741Y0156844D01*
X0014823Y0156855D01*
X0014905Y0156862D01*
X0014987Y0156865D01*
X0014987Y0156809D01*
X0014905Y0156805D01*
X0014823Y0156798D01*
X0014741Y0156787D01*
X0014660Y0156773D01*
X0014580Y0156754D01*
X0014501Y0156732D01*
X0014423Y0156706D01*
X0014346Y0156677D01*
X0014271Y0156644D01*
X0014197Y0156607D01*
X0014125Y0156567D01*
X0014055Y0156524D01*
X0013987Y0156478D01*
X0013922Y0156428D01*
X0013858Y0156376D01*
X0013798Y0156320D01*
X0013740Y0156262D01*
X0013684Y0156202D01*
X0013632Y0156138D01*
X0013582Y0156073D01*
X0013536Y0156005D01*
X0013493Y0155935D01*
X0013453Y0155863D01*
X0013416Y0155789D01*
X0013383Y0155714D01*
X0013354Y0155637D01*
X0013328Y0155559D01*
X0013306Y0155480D01*
X0013287Y0155400D01*
X0013273Y0155319D01*
X0013262Y0155237D01*
X0013255Y0155155D01*
X0013251Y0155073D01*
X0012748Y0150014D02*
X0013288Y0150014D01*
X0013287Y0150013D02*
X0013291Y0149933D01*
X0013298Y0149852D01*
X0013308Y0149773D01*
X0013323Y0149693D01*
X0013341Y0149615D01*
X0013363Y0149537D01*
X0013388Y0149461D01*
X0013417Y0149386D01*
X0013449Y0149312D01*
X0013485Y0149240D01*
X0013524Y0149169D01*
X0013566Y0149101D01*
X0013611Y0149034D01*
X0013660Y0148970D01*
X0013711Y0148908D01*
X0013766Y0148849D01*
X0013823Y0148792D01*
X0013882Y0148737D01*
X0013944Y0148686D01*
X0014008Y0148637D01*
X0014075Y0148592D01*
X0014143Y0148550D01*
X0014214Y0148511D01*
X0014286Y0148475D01*
X0014360Y0148443D01*
X0014435Y0148414D01*
X0014511Y0148389D01*
X0014589Y0148367D01*
X0014667Y0148349D01*
X0014747Y0148334D01*
X0014826Y0148324D01*
X0014907Y0148317D01*
X0014987Y0148313D01*
X0014988Y0147774D01*
X0014987Y0147773D01*
X0014892Y0147776D01*
X0014798Y0147784D01*
X0014704Y0147795D01*
X0014610Y0147810D01*
X0014517Y0147829D01*
X0014425Y0147851D01*
X0014334Y0147878D01*
X0014245Y0147908D01*
X0014156Y0147942D01*
X0014069Y0147980D01*
X0013984Y0148022D01*
X0013901Y0148066D01*
X0013819Y0148115D01*
X0013740Y0148166D01*
X0013663Y0148221D01*
X0013588Y0148279D01*
X0013515Y0148341D01*
X0013446Y0148405D01*
X0013379Y0148472D01*
X0013315Y0148541D01*
X0013253Y0148614D01*
X0013195Y0148689D01*
X0013140Y0148766D01*
X0013089Y0148845D01*
X0013040Y0148927D01*
X0012996Y0149010D01*
X0012954Y0149095D01*
X0012916Y0149182D01*
X0012882Y0149271D01*
X0012852Y0149360D01*
X0012825Y0149451D01*
X0012803Y0149543D01*
X0012784Y0149636D01*
X0012769Y0149730D01*
X0012758Y0149824D01*
X0012750Y0149918D01*
X0012747Y0150013D01*
X0012803Y0150013D01*
X0012806Y0149921D01*
X0012813Y0149829D01*
X0012824Y0149737D01*
X0012839Y0149646D01*
X0012857Y0149555D01*
X0012880Y0149466D01*
X0012906Y0149377D01*
X0012935Y0149289D01*
X0012968Y0149203D01*
X0013005Y0149119D01*
X0013046Y0149035D01*
X0013089Y0148954D01*
X0013136Y0148875D01*
X0013187Y0148797D01*
X0013240Y0148722D01*
X0013297Y0148649D01*
X0013357Y0148578D01*
X0013419Y0148510D01*
X0013484Y0148445D01*
X0013552Y0148383D01*
X0013623Y0148323D01*
X0013696Y0148266D01*
X0013771Y0148213D01*
X0013849Y0148162D01*
X0013928Y0148115D01*
X0014009Y0148072D01*
X0014093Y0148031D01*
X0014177Y0147994D01*
X0014263Y0147961D01*
X0014351Y0147932D01*
X0014440Y0147906D01*
X0014529Y0147883D01*
X0014620Y0147865D01*
X0014711Y0147850D01*
X0014803Y0147839D01*
X0014895Y0147832D01*
X0014987Y0147829D01*
X0014987Y0147885D01*
X0014895Y0147888D01*
X0014802Y0147896D01*
X0014711Y0147907D01*
X0014619Y0147922D01*
X0014529Y0147941D01*
X0014439Y0147964D01*
X0014351Y0147990D01*
X0014263Y0148021D01*
X0014177Y0148055D01*
X0014093Y0148093D01*
X0014010Y0148134D01*
X0013929Y0148179D01*
X0013850Y0148227D01*
X0013774Y0148279D01*
X0013699Y0148334D01*
X0013627Y0148392D01*
X0013558Y0148453D01*
X0013491Y0148517D01*
X0013427Y0148584D01*
X0013366Y0148653D01*
X0013308Y0148725D01*
X0013253Y0148800D01*
X0013201Y0148876D01*
X0013153Y0148955D01*
X0013108Y0149036D01*
X0013067Y0149119D01*
X0013029Y0149203D01*
X0012995Y0149289D01*
X0012964Y0149377D01*
X0012938Y0149465D01*
X0012915Y0149555D01*
X0012896Y0149645D01*
X0012881Y0149737D01*
X0012870Y0149828D01*
X0012862Y0149921D01*
X0012859Y0150013D01*
X0012915Y0150013D01*
X0012918Y0149923D01*
X0012925Y0149833D01*
X0012936Y0149744D01*
X0012951Y0149655D01*
X0012970Y0149567D01*
X0012992Y0149480D01*
X0013018Y0149393D01*
X0013048Y0149308D01*
X0013081Y0149225D01*
X0013118Y0149143D01*
X0013158Y0149062D01*
X0013202Y0148983D01*
X0013249Y0148907D01*
X0013299Y0148832D01*
X0013352Y0148759D01*
X0013409Y0148689D01*
X0013468Y0148622D01*
X0013531Y0148557D01*
X0013596Y0148494D01*
X0013663Y0148435D01*
X0013733Y0148378D01*
X0013806Y0148325D01*
X0013881Y0148275D01*
X0013957Y0148228D01*
X0014036Y0148184D01*
X0014117Y0148144D01*
X0014199Y0148107D01*
X0014282Y0148074D01*
X0014367Y0148044D01*
X0014454Y0148018D01*
X0014541Y0147996D01*
X0014629Y0147977D01*
X0014718Y0147962D01*
X0014807Y0147951D01*
X0014897Y0147944D01*
X0014987Y0147941D01*
X0014987Y0147997D01*
X0014899Y0148000D01*
X0014812Y0148007D01*
X0014725Y0148018D01*
X0014639Y0148032D01*
X0014553Y0148050D01*
X0014468Y0148072D01*
X0014384Y0148097D01*
X0014302Y0148126D01*
X0014220Y0148159D01*
X0014140Y0148194D01*
X0014062Y0148234D01*
X0013985Y0148276D01*
X0013911Y0148322D01*
X0013838Y0148371D01*
X0013768Y0148423D01*
X0013699Y0148478D01*
X0013634Y0148536D01*
X0013570Y0148596D01*
X0013510Y0148660D01*
X0013452Y0148725D01*
X0013397Y0148794D01*
X0013345Y0148864D01*
X0013296Y0148937D01*
X0013250Y0149011D01*
X0013208Y0149088D01*
X0013168Y0149166D01*
X0013133Y0149246D01*
X0013100Y0149328D01*
X0013071Y0149410D01*
X0013046Y0149494D01*
X0013024Y0149579D01*
X0013006Y0149665D01*
X0012992Y0149751D01*
X0012981Y0149838D01*
X0012974Y0149925D01*
X0012971Y0150013D01*
X0013027Y0150013D01*
X0013030Y0149925D01*
X0013038Y0149838D01*
X0013049Y0149751D01*
X0013063Y0149665D01*
X0013082Y0149579D01*
X0013104Y0149495D01*
X0013130Y0149411D01*
X0013160Y0149329D01*
X0013193Y0149248D01*
X0013230Y0149168D01*
X0013270Y0149090D01*
X0013314Y0149014D01*
X0013360Y0148940D01*
X0013411Y0148868D01*
X0013464Y0148799D01*
X0013520Y0148732D01*
X0013579Y0148667D01*
X0013641Y0148605D01*
X0013706Y0148546D01*
X0013773Y0148490D01*
X0013842Y0148437D01*
X0013914Y0148386D01*
X0013988Y0148340D01*
X0014064Y0148296D01*
X0014142Y0148256D01*
X0014222Y0148219D01*
X0014303Y0148186D01*
X0014385Y0148156D01*
X0014469Y0148130D01*
X0014553Y0148108D01*
X0014639Y0148089D01*
X0014725Y0148075D01*
X0014812Y0148064D01*
X0014899Y0148056D01*
X0014987Y0148053D01*
X0014987Y0148109D01*
X0014902Y0148112D01*
X0014817Y0148119D01*
X0014733Y0148130D01*
X0014649Y0148144D01*
X0014566Y0148162D01*
X0014484Y0148184D01*
X0014402Y0148209D01*
X0014322Y0148238D01*
X0014244Y0148270D01*
X0014166Y0148306D01*
X0014091Y0148345D01*
X0014017Y0148388D01*
X0013945Y0148433D01*
X0013875Y0148482D01*
X0013808Y0148534D01*
X0013743Y0148588D01*
X0013680Y0148646D01*
X0013620Y0148706D01*
X0013562Y0148769D01*
X0013508Y0148834D01*
X0013456Y0148901D01*
X0013407Y0148971D01*
X0013362Y0149043D01*
X0013319Y0149117D01*
X0013280Y0149192D01*
X0013244Y0149270D01*
X0013212Y0149348D01*
X0013183Y0149428D01*
X0013158Y0149510D01*
X0013136Y0149592D01*
X0013118Y0149675D01*
X0013104Y0149759D01*
X0013093Y0149843D01*
X0013086Y0149928D01*
X0013083Y0150013D01*
X0013139Y0150013D01*
X0013143Y0149928D01*
X0013150Y0149843D01*
X0013161Y0149759D01*
X0013175Y0149675D01*
X0013194Y0149592D01*
X0013216Y0149510D01*
X0013242Y0149429D01*
X0013272Y0149350D01*
X0013305Y0149272D01*
X0013341Y0149195D01*
X0013382Y0149120D01*
X0013425Y0149047D01*
X0013472Y0148976D01*
X0013522Y0148907D01*
X0013574Y0148841D01*
X0013630Y0148776D01*
X0013689Y0148715D01*
X0013750Y0148656D01*
X0013815Y0148600D01*
X0013881Y0148548D01*
X0013950Y0148498D01*
X0014021Y0148451D01*
X0014094Y0148408D01*
X0014169Y0148367D01*
X0014246Y0148331D01*
X0014324Y0148298D01*
X0014403Y0148268D01*
X0014484Y0148242D01*
X0014566Y0148220D01*
X0014649Y0148201D01*
X0014733Y0148187D01*
X0014817Y0148176D01*
X0014902Y0148169D01*
X0014987Y0148165D01*
X0014987Y0148221D01*
X0014905Y0148224D01*
X0014823Y0148231D01*
X0014741Y0148242D01*
X0014660Y0148256D01*
X0014579Y0148274D01*
X0014500Y0148296D01*
X0014421Y0148321D01*
X0014344Y0148350D01*
X0014268Y0148382D01*
X0014194Y0148418D01*
X0014121Y0148456D01*
X0014050Y0148499D01*
X0013982Y0148544D01*
X0013915Y0148592D01*
X0013850Y0148644D01*
X0013788Y0148698D01*
X0013729Y0148755D01*
X0013672Y0148814D01*
X0013618Y0148876D01*
X0013566Y0148941D01*
X0013518Y0149008D01*
X0013473Y0149076D01*
X0013430Y0149147D01*
X0013392Y0149220D01*
X0013356Y0149294D01*
X0013324Y0149370D01*
X0013295Y0149447D01*
X0013270Y0149526D01*
X0013248Y0149605D01*
X0013230Y0149686D01*
X0013216Y0149767D01*
X0013205Y0149849D01*
X0013198Y0149931D01*
X0013195Y0150013D01*
X0013251Y0150013D01*
X0013255Y0149931D01*
X0013262Y0149849D01*
X0013273Y0149767D01*
X0013287Y0149686D01*
X0013306Y0149606D01*
X0013328Y0149527D01*
X0013354Y0149449D01*
X0013383Y0149372D01*
X0013416Y0149297D01*
X0013453Y0149223D01*
X0013493Y0149151D01*
X0013536Y0149081D01*
X0013582Y0149013D01*
X0013632Y0148948D01*
X0013684Y0148884D01*
X0013740Y0148824D01*
X0013798Y0148766D01*
X0013858Y0148710D01*
X0013922Y0148658D01*
X0013987Y0148608D01*
X0014055Y0148562D01*
X0014125Y0148519D01*
X0014197Y0148479D01*
X0014271Y0148442D01*
X0014346Y0148409D01*
X0014423Y0148380D01*
X0014501Y0148354D01*
X0014580Y0148332D01*
X0014660Y0148313D01*
X0014741Y0148299D01*
X0014823Y0148288D01*
X0014905Y0148281D01*
X0014987Y0148277D01*
X0118898Y0171471D02*
X0119438Y0171471D01*
X0119437Y0171470D02*
X0119441Y0171390D01*
X0119448Y0171309D01*
X0119458Y0171230D01*
X0119473Y0171150D01*
X0119491Y0171072D01*
X0119513Y0170994D01*
X0119538Y0170918D01*
X0119567Y0170843D01*
X0119599Y0170769D01*
X0119635Y0170697D01*
X0119674Y0170626D01*
X0119716Y0170558D01*
X0119761Y0170491D01*
X0119810Y0170427D01*
X0119861Y0170365D01*
X0119916Y0170306D01*
X0119973Y0170249D01*
X0120032Y0170194D01*
X0120094Y0170143D01*
X0120158Y0170094D01*
X0120225Y0170049D01*
X0120293Y0170007D01*
X0120364Y0169968D01*
X0120436Y0169932D01*
X0120510Y0169900D01*
X0120585Y0169871D01*
X0120661Y0169846D01*
X0120739Y0169824D01*
X0120817Y0169806D01*
X0120897Y0169791D01*
X0120976Y0169781D01*
X0121057Y0169774D01*
X0121137Y0169770D01*
X0121138Y0169231D01*
X0121137Y0169230D01*
X0121042Y0169233D01*
X0120948Y0169241D01*
X0120854Y0169252D01*
X0120760Y0169267D01*
X0120667Y0169286D01*
X0120575Y0169308D01*
X0120484Y0169335D01*
X0120395Y0169365D01*
X0120306Y0169399D01*
X0120219Y0169437D01*
X0120134Y0169479D01*
X0120051Y0169523D01*
X0119969Y0169572D01*
X0119890Y0169623D01*
X0119813Y0169678D01*
X0119738Y0169736D01*
X0119665Y0169798D01*
X0119596Y0169862D01*
X0119529Y0169929D01*
X0119465Y0169998D01*
X0119403Y0170071D01*
X0119345Y0170146D01*
X0119290Y0170223D01*
X0119239Y0170302D01*
X0119190Y0170384D01*
X0119146Y0170467D01*
X0119104Y0170552D01*
X0119066Y0170639D01*
X0119032Y0170728D01*
X0119002Y0170817D01*
X0118975Y0170908D01*
X0118953Y0171000D01*
X0118934Y0171093D01*
X0118919Y0171187D01*
X0118908Y0171281D01*
X0118900Y0171375D01*
X0118897Y0171470D01*
X0118953Y0171470D01*
X0118956Y0171378D01*
X0118963Y0171286D01*
X0118974Y0171194D01*
X0118989Y0171103D01*
X0119007Y0171012D01*
X0119030Y0170923D01*
X0119056Y0170834D01*
X0119085Y0170746D01*
X0119118Y0170660D01*
X0119155Y0170576D01*
X0119196Y0170492D01*
X0119239Y0170411D01*
X0119286Y0170332D01*
X0119337Y0170254D01*
X0119390Y0170179D01*
X0119447Y0170106D01*
X0119507Y0170035D01*
X0119569Y0169967D01*
X0119634Y0169902D01*
X0119702Y0169840D01*
X0119773Y0169780D01*
X0119846Y0169723D01*
X0119921Y0169670D01*
X0119999Y0169619D01*
X0120078Y0169572D01*
X0120159Y0169529D01*
X0120243Y0169488D01*
X0120327Y0169451D01*
X0120413Y0169418D01*
X0120501Y0169389D01*
X0120590Y0169363D01*
X0120679Y0169340D01*
X0120770Y0169322D01*
X0120861Y0169307D01*
X0120953Y0169296D01*
X0121045Y0169289D01*
X0121137Y0169286D01*
X0121137Y0169342D01*
X0121045Y0169345D01*
X0120952Y0169353D01*
X0120861Y0169364D01*
X0120769Y0169379D01*
X0120679Y0169398D01*
X0120589Y0169421D01*
X0120501Y0169447D01*
X0120413Y0169478D01*
X0120327Y0169512D01*
X0120243Y0169550D01*
X0120160Y0169591D01*
X0120079Y0169636D01*
X0120000Y0169684D01*
X0119924Y0169736D01*
X0119849Y0169791D01*
X0119777Y0169849D01*
X0119708Y0169910D01*
X0119641Y0169974D01*
X0119577Y0170041D01*
X0119516Y0170110D01*
X0119458Y0170182D01*
X0119403Y0170257D01*
X0119351Y0170333D01*
X0119303Y0170412D01*
X0119258Y0170493D01*
X0119217Y0170576D01*
X0119179Y0170660D01*
X0119145Y0170746D01*
X0119114Y0170834D01*
X0119088Y0170922D01*
X0119065Y0171012D01*
X0119046Y0171102D01*
X0119031Y0171194D01*
X0119020Y0171285D01*
X0119012Y0171378D01*
X0119009Y0171470D01*
X0119065Y0171470D01*
X0119068Y0171380D01*
X0119075Y0171290D01*
X0119086Y0171201D01*
X0119101Y0171112D01*
X0119120Y0171024D01*
X0119142Y0170937D01*
X0119168Y0170850D01*
X0119198Y0170765D01*
X0119231Y0170682D01*
X0119268Y0170600D01*
X0119308Y0170519D01*
X0119352Y0170440D01*
X0119399Y0170364D01*
X0119449Y0170289D01*
X0119502Y0170216D01*
X0119559Y0170146D01*
X0119618Y0170079D01*
X0119681Y0170014D01*
X0119746Y0169951D01*
X0119813Y0169892D01*
X0119883Y0169835D01*
X0119956Y0169782D01*
X0120031Y0169732D01*
X0120107Y0169685D01*
X0120186Y0169641D01*
X0120267Y0169601D01*
X0120349Y0169564D01*
X0120432Y0169531D01*
X0120517Y0169501D01*
X0120604Y0169475D01*
X0120691Y0169453D01*
X0120779Y0169434D01*
X0120868Y0169419D01*
X0120957Y0169408D01*
X0121047Y0169401D01*
X0121137Y0169398D01*
X0121137Y0169454D01*
X0121049Y0169457D01*
X0120962Y0169464D01*
X0120875Y0169475D01*
X0120789Y0169489D01*
X0120703Y0169507D01*
X0120618Y0169529D01*
X0120534Y0169554D01*
X0120452Y0169583D01*
X0120370Y0169616D01*
X0120290Y0169651D01*
X0120212Y0169691D01*
X0120135Y0169733D01*
X0120061Y0169779D01*
X0119988Y0169828D01*
X0119918Y0169880D01*
X0119849Y0169935D01*
X0119784Y0169993D01*
X0119720Y0170053D01*
X0119660Y0170117D01*
X0119602Y0170182D01*
X0119547Y0170251D01*
X0119495Y0170321D01*
X0119446Y0170394D01*
X0119400Y0170468D01*
X0119358Y0170545D01*
X0119318Y0170623D01*
X0119283Y0170703D01*
X0119250Y0170785D01*
X0119221Y0170867D01*
X0119196Y0170951D01*
X0119174Y0171036D01*
X0119156Y0171122D01*
X0119142Y0171208D01*
X0119131Y0171295D01*
X0119124Y0171382D01*
X0119121Y0171470D01*
X0119177Y0171470D01*
X0119180Y0171382D01*
X0119188Y0171295D01*
X0119199Y0171208D01*
X0119213Y0171122D01*
X0119232Y0171036D01*
X0119254Y0170952D01*
X0119280Y0170868D01*
X0119310Y0170786D01*
X0119343Y0170705D01*
X0119380Y0170625D01*
X0119420Y0170547D01*
X0119464Y0170471D01*
X0119510Y0170397D01*
X0119561Y0170325D01*
X0119614Y0170256D01*
X0119670Y0170189D01*
X0119729Y0170124D01*
X0119791Y0170062D01*
X0119856Y0170003D01*
X0119923Y0169947D01*
X0119992Y0169894D01*
X0120064Y0169843D01*
X0120138Y0169797D01*
X0120214Y0169753D01*
X0120292Y0169713D01*
X0120372Y0169676D01*
X0120453Y0169643D01*
X0120535Y0169613D01*
X0120619Y0169587D01*
X0120703Y0169565D01*
X0120789Y0169546D01*
X0120875Y0169532D01*
X0120962Y0169521D01*
X0121049Y0169513D01*
X0121137Y0169510D01*
X0121137Y0169566D01*
X0121052Y0169569D01*
X0120967Y0169576D01*
X0120883Y0169587D01*
X0120799Y0169601D01*
X0120716Y0169619D01*
X0120634Y0169641D01*
X0120552Y0169666D01*
X0120472Y0169695D01*
X0120394Y0169727D01*
X0120316Y0169763D01*
X0120241Y0169802D01*
X0120167Y0169845D01*
X0120095Y0169890D01*
X0120025Y0169939D01*
X0119958Y0169991D01*
X0119893Y0170045D01*
X0119830Y0170103D01*
X0119770Y0170163D01*
X0119712Y0170226D01*
X0119658Y0170291D01*
X0119606Y0170358D01*
X0119557Y0170428D01*
X0119512Y0170500D01*
X0119469Y0170574D01*
X0119430Y0170649D01*
X0119394Y0170727D01*
X0119362Y0170805D01*
X0119333Y0170885D01*
X0119308Y0170967D01*
X0119286Y0171049D01*
X0119268Y0171132D01*
X0119254Y0171216D01*
X0119243Y0171300D01*
X0119236Y0171385D01*
X0119233Y0171470D01*
X0119289Y0171470D01*
X0119293Y0171385D01*
X0119300Y0171300D01*
X0119311Y0171216D01*
X0119325Y0171132D01*
X0119344Y0171049D01*
X0119366Y0170967D01*
X0119392Y0170886D01*
X0119422Y0170807D01*
X0119455Y0170729D01*
X0119491Y0170652D01*
X0119532Y0170577D01*
X0119575Y0170504D01*
X0119622Y0170433D01*
X0119672Y0170364D01*
X0119724Y0170298D01*
X0119780Y0170233D01*
X0119839Y0170172D01*
X0119900Y0170113D01*
X0119965Y0170057D01*
X0120031Y0170005D01*
X0120100Y0169955D01*
X0120171Y0169908D01*
X0120244Y0169865D01*
X0120319Y0169824D01*
X0120396Y0169788D01*
X0120474Y0169755D01*
X0120553Y0169725D01*
X0120634Y0169699D01*
X0120716Y0169677D01*
X0120799Y0169658D01*
X0120883Y0169644D01*
X0120967Y0169633D01*
X0121052Y0169626D01*
X0121137Y0169622D01*
X0121137Y0169678D01*
X0121055Y0169681D01*
X0120973Y0169688D01*
X0120891Y0169699D01*
X0120810Y0169713D01*
X0120729Y0169731D01*
X0120650Y0169753D01*
X0120571Y0169778D01*
X0120494Y0169807D01*
X0120418Y0169839D01*
X0120344Y0169875D01*
X0120271Y0169913D01*
X0120200Y0169956D01*
X0120132Y0170001D01*
X0120065Y0170049D01*
X0120000Y0170101D01*
X0119938Y0170155D01*
X0119879Y0170212D01*
X0119822Y0170271D01*
X0119768Y0170333D01*
X0119716Y0170398D01*
X0119668Y0170465D01*
X0119623Y0170533D01*
X0119580Y0170604D01*
X0119542Y0170677D01*
X0119506Y0170751D01*
X0119474Y0170827D01*
X0119445Y0170904D01*
X0119420Y0170983D01*
X0119398Y0171062D01*
X0119380Y0171143D01*
X0119366Y0171224D01*
X0119355Y0171306D01*
X0119348Y0171388D01*
X0119345Y0171470D01*
X0119401Y0171470D01*
X0119405Y0171388D01*
X0119412Y0171306D01*
X0119423Y0171224D01*
X0119437Y0171143D01*
X0119456Y0171063D01*
X0119478Y0170984D01*
X0119504Y0170906D01*
X0119533Y0170829D01*
X0119566Y0170754D01*
X0119603Y0170680D01*
X0119643Y0170608D01*
X0119686Y0170538D01*
X0119732Y0170470D01*
X0119782Y0170405D01*
X0119834Y0170341D01*
X0119890Y0170281D01*
X0119948Y0170223D01*
X0120008Y0170167D01*
X0120072Y0170115D01*
X0120137Y0170065D01*
X0120205Y0170019D01*
X0120275Y0169976D01*
X0120347Y0169936D01*
X0120421Y0169899D01*
X0120496Y0169866D01*
X0120573Y0169837D01*
X0120651Y0169811D01*
X0120730Y0169789D01*
X0120810Y0169770D01*
X0120891Y0169756D01*
X0120973Y0169745D01*
X0121055Y0169738D01*
X0121137Y0169734D01*
X0126196Y0169231D02*
X0126196Y0169771D01*
X0126197Y0169770D02*
X0126277Y0169774D01*
X0126358Y0169781D01*
X0126437Y0169791D01*
X0126517Y0169806D01*
X0126595Y0169824D01*
X0126673Y0169846D01*
X0126749Y0169871D01*
X0126824Y0169900D01*
X0126898Y0169932D01*
X0126970Y0169968D01*
X0127041Y0170007D01*
X0127109Y0170049D01*
X0127176Y0170094D01*
X0127240Y0170143D01*
X0127302Y0170194D01*
X0127361Y0170249D01*
X0127418Y0170306D01*
X0127473Y0170365D01*
X0127524Y0170427D01*
X0127573Y0170491D01*
X0127618Y0170558D01*
X0127660Y0170626D01*
X0127699Y0170697D01*
X0127735Y0170769D01*
X0127767Y0170843D01*
X0127796Y0170918D01*
X0127821Y0170994D01*
X0127843Y0171072D01*
X0127861Y0171150D01*
X0127876Y0171230D01*
X0127886Y0171309D01*
X0127893Y0171390D01*
X0127897Y0171470D01*
X0128436Y0171471D01*
X0128437Y0171470D01*
X0128434Y0171375D01*
X0128426Y0171281D01*
X0128415Y0171187D01*
X0128400Y0171093D01*
X0128381Y0171000D01*
X0128359Y0170908D01*
X0128332Y0170817D01*
X0128302Y0170728D01*
X0128268Y0170639D01*
X0128230Y0170552D01*
X0128188Y0170467D01*
X0128144Y0170384D01*
X0128095Y0170302D01*
X0128044Y0170223D01*
X0127989Y0170146D01*
X0127931Y0170071D01*
X0127869Y0169998D01*
X0127805Y0169929D01*
X0127738Y0169862D01*
X0127669Y0169798D01*
X0127596Y0169736D01*
X0127521Y0169678D01*
X0127444Y0169623D01*
X0127365Y0169572D01*
X0127283Y0169523D01*
X0127200Y0169479D01*
X0127115Y0169437D01*
X0127028Y0169399D01*
X0126939Y0169365D01*
X0126850Y0169335D01*
X0126759Y0169308D01*
X0126667Y0169286D01*
X0126574Y0169267D01*
X0126480Y0169252D01*
X0126386Y0169241D01*
X0126292Y0169233D01*
X0126197Y0169230D01*
X0126197Y0169286D01*
X0126289Y0169289D01*
X0126381Y0169296D01*
X0126473Y0169307D01*
X0126564Y0169322D01*
X0126655Y0169340D01*
X0126744Y0169363D01*
X0126833Y0169389D01*
X0126921Y0169418D01*
X0127007Y0169451D01*
X0127091Y0169488D01*
X0127175Y0169529D01*
X0127256Y0169572D01*
X0127335Y0169619D01*
X0127413Y0169670D01*
X0127488Y0169723D01*
X0127561Y0169780D01*
X0127632Y0169840D01*
X0127700Y0169902D01*
X0127765Y0169967D01*
X0127827Y0170035D01*
X0127887Y0170106D01*
X0127944Y0170179D01*
X0127997Y0170254D01*
X0128048Y0170332D01*
X0128095Y0170411D01*
X0128138Y0170492D01*
X0128179Y0170576D01*
X0128216Y0170660D01*
X0128249Y0170746D01*
X0128278Y0170834D01*
X0128304Y0170923D01*
X0128327Y0171012D01*
X0128345Y0171103D01*
X0128360Y0171194D01*
X0128371Y0171286D01*
X0128378Y0171378D01*
X0128381Y0171470D01*
X0128325Y0171470D01*
X0128322Y0171378D01*
X0128314Y0171285D01*
X0128303Y0171194D01*
X0128288Y0171102D01*
X0128269Y0171012D01*
X0128246Y0170922D01*
X0128220Y0170834D01*
X0128189Y0170746D01*
X0128155Y0170660D01*
X0128117Y0170576D01*
X0128076Y0170493D01*
X0128031Y0170412D01*
X0127983Y0170333D01*
X0127931Y0170257D01*
X0127876Y0170182D01*
X0127818Y0170110D01*
X0127757Y0170041D01*
X0127693Y0169974D01*
X0127626Y0169910D01*
X0127557Y0169849D01*
X0127485Y0169791D01*
X0127410Y0169736D01*
X0127334Y0169684D01*
X0127255Y0169636D01*
X0127174Y0169591D01*
X0127091Y0169550D01*
X0127007Y0169512D01*
X0126921Y0169478D01*
X0126833Y0169447D01*
X0126745Y0169421D01*
X0126655Y0169398D01*
X0126565Y0169379D01*
X0126473Y0169364D01*
X0126382Y0169353D01*
X0126289Y0169345D01*
X0126197Y0169342D01*
X0126197Y0169398D01*
X0126287Y0169401D01*
X0126377Y0169408D01*
X0126466Y0169419D01*
X0126555Y0169434D01*
X0126643Y0169453D01*
X0126730Y0169475D01*
X0126817Y0169501D01*
X0126902Y0169531D01*
X0126985Y0169564D01*
X0127067Y0169601D01*
X0127148Y0169641D01*
X0127227Y0169685D01*
X0127303Y0169732D01*
X0127378Y0169782D01*
X0127451Y0169835D01*
X0127521Y0169892D01*
X0127588Y0169951D01*
X0127653Y0170014D01*
X0127716Y0170079D01*
X0127775Y0170146D01*
X0127832Y0170216D01*
X0127885Y0170289D01*
X0127935Y0170364D01*
X0127982Y0170440D01*
X0128026Y0170519D01*
X0128066Y0170600D01*
X0128103Y0170682D01*
X0128136Y0170765D01*
X0128166Y0170850D01*
X0128192Y0170937D01*
X0128214Y0171024D01*
X0128233Y0171112D01*
X0128248Y0171201D01*
X0128259Y0171290D01*
X0128266Y0171380D01*
X0128269Y0171470D01*
X0128213Y0171470D01*
X0128210Y0171382D01*
X0128203Y0171295D01*
X0128192Y0171208D01*
X0128178Y0171122D01*
X0128160Y0171036D01*
X0128138Y0170951D01*
X0128113Y0170867D01*
X0128084Y0170785D01*
X0128051Y0170703D01*
X0128016Y0170623D01*
X0127976Y0170545D01*
X0127934Y0170468D01*
X0127888Y0170394D01*
X0127839Y0170321D01*
X0127787Y0170251D01*
X0127732Y0170182D01*
X0127674Y0170117D01*
X0127614Y0170053D01*
X0127550Y0169993D01*
X0127485Y0169935D01*
X0127416Y0169880D01*
X0127346Y0169828D01*
X0127273Y0169779D01*
X0127199Y0169733D01*
X0127122Y0169691D01*
X0127044Y0169651D01*
X0126964Y0169616D01*
X0126882Y0169583D01*
X0126800Y0169554D01*
X0126716Y0169529D01*
X0126631Y0169507D01*
X0126545Y0169489D01*
X0126459Y0169475D01*
X0126372Y0169464D01*
X0126285Y0169457D01*
X0126197Y0169454D01*
X0126197Y0169510D01*
X0126285Y0169513D01*
X0126372Y0169521D01*
X0126459Y0169532D01*
X0126545Y0169546D01*
X0126631Y0169565D01*
X0126715Y0169587D01*
X0126799Y0169613D01*
X0126881Y0169643D01*
X0126962Y0169676D01*
X0127042Y0169713D01*
X0127120Y0169753D01*
X0127196Y0169797D01*
X0127270Y0169843D01*
X0127342Y0169894D01*
X0127411Y0169947D01*
X0127478Y0170003D01*
X0127543Y0170062D01*
X0127605Y0170124D01*
X0127664Y0170189D01*
X0127720Y0170256D01*
X0127773Y0170325D01*
X0127824Y0170397D01*
X0127870Y0170471D01*
X0127914Y0170547D01*
X0127954Y0170625D01*
X0127991Y0170705D01*
X0128024Y0170786D01*
X0128054Y0170868D01*
X0128080Y0170952D01*
X0128102Y0171036D01*
X0128121Y0171122D01*
X0128135Y0171208D01*
X0128146Y0171295D01*
X0128154Y0171382D01*
X0128157Y0171470D01*
X0128101Y0171470D01*
X0128098Y0171385D01*
X0128091Y0171300D01*
X0128080Y0171216D01*
X0128066Y0171132D01*
X0128048Y0171049D01*
X0128026Y0170967D01*
X0128001Y0170885D01*
X0127972Y0170805D01*
X0127940Y0170727D01*
X0127904Y0170649D01*
X0127865Y0170574D01*
X0127822Y0170500D01*
X0127777Y0170428D01*
X0127728Y0170358D01*
X0127676Y0170291D01*
X0127622Y0170226D01*
X0127564Y0170163D01*
X0127504Y0170103D01*
X0127441Y0170045D01*
X0127376Y0169991D01*
X0127309Y0169939D01*
X0127239Y0169890D01*
X0127167Y0169845D01*
X0127093Y0169802D01*
X0127018Y0169763D01*
X0126940Y0169727D01*
X0126862Y0169695D01*
X0126782Y0169666D01*
X0126700Y0169641D01*
X0126618Y0169619D01*
X0126535Y0169601D01*
X0126451Y0169587D01*
X0126367Y0169576D01*
X0126282Y0169569D01*
X0126197Y0169566D01*
X0126197Y0169622D01*
X0126282Y0169626D01*
X0126367Y0169633D01*
X0126451Y0169644D01*
X0126535Y0169658D01*
X0126618Y0169677D01*
X0126700Y0169699D01*
X0126781Y0169725D01*
X0126860Y0169755D01*
X0126938Y0169788D01*
X0127015Y0169824D01*
X0127090Y0169865D01*
X0127163Y0169908D01*
X0127234Y0169955D01*
X0127303Y0170005D01*
X0127369Y0170057D01*
X0127434Y0170113D01*
X0127495Y0170172D01*
X0127554Y0170233D01*
X0127610Y0170298D01*
X0127662Y0170364D01*
X0127712Y0170433D01*
X0127759Y0170504D01*
X0127802Y0170577D01*
X0127843Y0170652D01*
X0127879Y0170729D01*
X0127912Y0170807D01*
X0127942Y0170886D01*
X0127968Y0170967D01*
X0127990Y0171049D01*
X0128009Y0171132D01*
X0128023Y0171216D01*
X0128034Y0171300D01*
X0128041Y0171385D01*
X0128045Y0171470D01*
X0127989Y0171470D01*
X0127986Y0171388D01*
X0127979Y0171306D01*
X0127968Y0171224D01*
X0127954Y0171143D01*
X0127936Y0171062D01*
X0127914Y0170983D01*
X0127889Y0170904D01*
X0127860Y0170827D01*
X0127828Y0170751D01*
X0127792Y0170677D01*
X0127754Y0170604D01*
X0127711Y0170533D01*
X0127666Y0170465D01*
X0127618Y0170398D01*
X0127566Y0170333D01*
X0127512Y0170271D01*
X0127455Y0170212D01*
X0127396Y0170155D01*
X0127334Y0170101D01*
X0127269Y0170049D01*
X0127202Y0170001D01*
X0127134Y0169956D01*
X0127063Y0169913D01*
X0126990Y0169875D01*
X0126916Y0169839D01*
X0126840Y0169807D01*
X0126763Y0169778D01*
X0126684Y0169753D01*
X0126605Y0169731D01*
X0126524Y0169713D01*
X0126443Y0169699D01*
X0126361Y0169688D01*
X0126279Y0169681D01*
X0126197Y0169678D01*
X0126197Y0169734D01*
X0126279Y0169738D01*
X0126361Y0169745D01*
X0126443Y0169756D01*
X0126524Y0169770D01*
X0126604Y0169789D01*
X0126683Y0169811D01*
X0126761Y0169837D01*
X0126838Y0169866D01*
X0126913Y0169899D01*
X0126987Y0169936D01*
X0127059Y0169976D01*
X0127129Y0170019D01*
X0127197Y0170065D01*
X0127262Y0170115D01*
X0127326Y0170167D01*
X0127386Y0170223D01*
X0127444Y0170281D01*
X0127500Y0170341D01*
X0127552Y0170405D01*
X0127602Y0170470D01*
X0127648Y0170538D01*
X0127691Y0170608D01*
X0127731Y0170680D01*
X0127768Y0170754D01*
X0127801Y0170829D01*
X0127830Y0170906D01*
X0127856Y0170984D01*
X0127878Y0171063D01*
X0127897Y0171143D01*
X0127911Y0171224D01*
X0127922Y0171306D01*
X0127929Y0171388D01*
X0127933Y0171470D01*
X0128436Y0184529D02*
X0127896Y0184529D01*
X0127897Y0184530D02*
X0127893Y0184610D01*
X0127886Y0184691D01*
X0127876Y0184770D01*
X0127861Y0184850D01*
X0127843Y0184928D01*
X0127821Y0185006D01*
X0127796Y0185082D01*
X0127767Y0185157D01*
X0127735Y0185231D01*
X0127699Y0185303D01*
X0127660Y0185374D01*
X0127618Y0185442D01*
X0127573Y0185509D01*
X0127524Y0185573D01*
X0127473Y0185635D01*
X0127418Y0185694D01*
X0127361Y0185751D01*
X0127302Y0185806D01*
X0127240Y0185857D01*
X0127176Y0185906D01*
X0127109Y0185951D01*
X0127041Y0185993D01*
X0126970Y0186032D01*
X0126898Y0186068D01*
X0126824Y0186100D01*
X0126749Y0186129D01*
X0126673Y0186154D01*
X0126595Y0186176D01*
X0126517Y0186194D01*
X0126437Y0186209D01*
X0126358Y0186219D01*
X0126277Y0186226D01*
X0126197Y0186230D01*
X0126196Y0186769D01*
X0126197Y0186770D01*
X0126292Y0186767D01*
X0126386Y0186759D01*
X0126480Y0186748D01*
X0126574Y0186733D01*
X0126667Y0186714D01*
X0126759Y0186692D01*
X0126850Y0186665D01*
X0126939Y0186635D01*
X0127028Y0186601D01*
X0127115Y0186563D01*
X0127200Y0186521D01*
X0127283Y0186477D01*
X0127365Y0186428D01*
X0127444Y0186377D01*
X0127521Y0186322D01*
X0127596Y0186264D01*
X0127669Y0186202D01*
X0127738Y0186138D01*
X0127805Y0186071D01*
X0127869Y0186002D01*
X0127931Y0185929D01*
X0127989Y0185854D01*
X0128044Y0185777D01*
X0128095Y0185698D01*
X0128144Y0185616D01*
X0128188Y0185533D01*
X0128230Y0185448D01*
X0128268Y0185361D01*
X0128302Y0185272D01*
X0128332Y0185183D01*
X0128359Y0185092D01*
X0128381Y0185000D01*
X0128400Y0184907D01*
X0128415Y0184813D01*
X0128426Y0184719D01*
X0128434Y0184625D01*
X0128437Y0184530D01*
X0128381Y0184530D01*
X0128378Y0184622D01*
X0128371Y0184714D01*
X0128360Y0184806D01*
X0128345Y0184897D01*
X0128327Y0184988D01*
X0128304Y0185077D01*
X0128278Y0185166D01*
X0128249Y0185254D01*
X0128216Y0185340D01*
X0128179Y0185424D01*
X0128138Y0185508D01*
X0128095Y0185589D01*
X0128048Y0185668D01*
X0127997Y0185746D01*
X0127944Y0185821D01*
X0127887Y0185894D01*
X0127827Y0185965D01*
X0127765Y0186033D01*
X0127700Y0186098D01*
X0127632Y0186160D01*
X0127561Y0186220D01*
X0127488Y0186277D01*
X0127413Y0186330D01*
X0127335Y0186381D01*
X0127256Y0186428D01*
X0127175Y0186471D01*
X0127091Y0186512D01*
X0127007Y0186549D01*
X0126921Y0186582D01*
X0126833Y0186611D01*
X0126744Y0186637D01*
X0126655Y0186660D01*
X0126564Y0186678D01*
X0126473Y0186693D01*
X0126381Y0186704D01*
X0126289Y0186711D01*
X0126197Y0186714D01*
X0126197Y0186658D01*
X0126289Y0186655D01*
X0126382Y0186647D01*
X0126473Y0186636D01*
X0126565Y0186621D01*
X0126655Y0186602D01*
X0126745Y0186579D01*
X0126833Y0186553D01*
X0126921Y0186522D01*
X0127007Y0186488D01*
X0127091Y0186450D01*
X0127174Y0186409D01*
X0127255Y0186364D01*
X0127334Y0186316D01*
X0127410Y0186264D01*
X0127485Y0186209D01*
X0127557Y0186151D01*
X0127626Y0186090D01*
X0127693Y0186026D01*
X0127757Y0185959D01*
X0127818Y0185890D01*
X0127876Y0185818D01*
X0127931Y0185743D01*
X0127983Y0185667D01*
X0128031Y0185588D01*
X0128076Y0185507D01*
X0128117Y0185424D01*
X0128155Y0185340D01*
X0128189Y0185254D01*
X0128220Y0185166D01*
X0128246Y0185078D01*
X0128269Y0184988D01*
X0128288Y0184898D01*
X0128303Y0184806D01*
X0128314Y0184715D01*
X0128322Y0184622D01*
X0128325Y0184530D01*
X0128269Y0184530D01*
X0128266Y0184620D01*
X0128259Y0184710D01*
X0128248Y0184799D01*
X0128233Y0184888D01*
X0128214Y0184976D01*
X0128192Y0185063D01*
X0128166Y0185150D01*
X0128136Y0185235D01*
X0128103Y0185318D01*
X0128066Y0185400D01*
X0128026Y0185481D01*
X0127982Y0185560D01*
X0127935Y0185636D01*
X0127885Y0185711D01*
X0127832Y0185784D01*
X0127775Y0185854D01*
X0127716Y0185921D01*
X0127653Y0185986D01*
X0127588Y0186049D01*
X0127521Y0186108D01*
X0127451Y0186165D01*
X0127378Y0186218D01*
X0127303Y0186268D01*
X0127227Y0186315D01*
X0127148Y0186359D01*
X0127067Y0186399D01*
X0126985Y0186436D01*
X0126902Y0186469D01*
X0126817Y0186499D01*
X0126730Y0186525D01*
X0126643Y0186547D01*
X0126555Y0186566D01*
X0126466Y0186581D01*
X0126377Y0186592D01*
X0126287Y0186599D01*
X0126197Y0186602D01*
X0126197Y0186546D01*
X0126285Y0186543D01*
X0126372Y0186536D01*
X0126459Y0186525D01*
X0126545Y0186511D01*
X0126631Y0186493D01*
X0126716Y0186471D01*
X0126800Y0186446D01*
X0126882Y0186417D01*
X0126964Y0186384D01*
X0127044Y0186349D01*
X0127122Y0186309D01*
X0127199Y0186267D01*
X0127273Y0186221D01*
X0127346Y0186172D01*
X0127416Y0186120D01*
X0127485Y0186065D01*
X0127550Y0186007D01*
X0127614Y0185947D01*
X0127674Y0185883D01*
X0127732Y0185818D01*
X0127787Y0185749D01*
X0127839Y0185679D01*
X0127888Y0185606D01*
X0127934Y0185532D01*
X0127976Y0185455D01*
X0128016Y0185377D01*
X0128051Y0185297D01*
X0128084Y0185215D01*
X0128113Y0185133D01*
X0128138Y0185049D01*
X0128160Y0184964D01*
X0128178Y0184878D01*
X0128192Y0184792D01*
X0128203Y0184705D01*
X0128210Y0184618D01*
X0128213Y0184530D01*
X0128157Y0184530D01*
X0128154Y0184618D01*
X0128146Y0184705D01*
X0128135Y0184792D01*
X0128121Y0184878D01*
X0128102Y0184964D01*
X0128080Y0185048D01*
X0128054Y0185132D01*
X0128024Y0185214D01*
X0127991Y0185295D01*
X0127954Y0185375D01*
X0127914Y0185453D01*
X0127870Y0185529D01*
X0127824Y0185603D01*
X0127773Y0185675D01*
X0127720Y0185744D01*
X0127664Y0185811D01*
X0127605Y0185876D01*
X0127543Y0185938D01*
X0127478Y0185997D01*
X0127411Y0186053D01*
X0127342Y0186106D01*
X0127270Y0186157D01*
X0127196Y0186203D01*
X0127120Y0186247D01*
X0127042Y0186287D01*
X0126962Y0186324D01*
X0126881Y0186357D01*
X0126799Y0186387D01*
X0126715Y0186413D01*
X0126631Y0186435D01*
X0126545Y0186454D01*
X0126459Y0186468D01*
X0126372Y0186479D01*
X0126285Y0186487D01*
X0126197Y0186490D01*
X0126197Y0186434D01*
X0126282Y0186431D01*
X0126367Y0186424D01*
X0126451Y0186413D01*
X0126535Y0186399D01*
X0126618Y0186381D01*
X0126700Y0186359D01*
X0126782Y0186334D01*
X0126862Y0186305D01*
X0126940Y0186273D01*
X0127018Y0186237D01*
X0127093Y0186198D01*
X0127167Y0186155D01*
X0127239Y0186110D01*
X0127309Y0186061D01*
X0127376Y0186009D01*
X0127441Y0185955D01*
X0127504Y0185897D01*
X0127564Y0185837D01*
X0127622Y0185774D01*
X0127676Y0185709D01*
X0127728Y0185642D01*
X0127777Y0185572D01*
X0127822Y0185500D01*
X0127865Y0185426D01*
X0127904Y0185351D01*
X0127940Y0185273D01*
X0127972Y0185195D01*
X0128001Y0185115D01*
X0128026Y0185033D01*
X0128048Y0184951D01*
X0128066Y0184868D01*
X0128080Y0184784D01*
X0128091Y0184700D01*
X0128098Y0184615D01*
X0128101Y0184530D01*
X0128045Y0184530D01*
X0128041Y0184615D01*
X0128034Y0184700D01*
X0128023Y0184784D01*
X0128009Y0184868D01*
X0127990Y0184951D01*
X0127968Y0185033D01*
X0127942Y0185114D01*
X0127912Y0185193D01*
X0127879Y0185271D01*
X0127843Y0185348D01*
X0127802Y0185423D01*
X0127759Y0185496D01*
X0127712Y0185567D01*
X0127662Y0185636D01*
X0127610Y0185702D01*
X0127554Y0185767D01*
X0127495Y0185828D01*
X0127434Y0185887D01*
X0127369Y0185943D01*
X0127303Y0185995D01*
X0127234Y0186045D01*
X0127163Y0186092D01*
X0127090Y0186135D01*
X0127015Y0186176D01*
X0126938Y0186212D01*
X0126860Y0186245D01*
X0126781Y0186275D01*
X0126700Y0186301D01*
X0126618Y0186323D01*
X0126535Y0186342D01*
X0126451Y0186356D01*
X0126367Y0186367D01*
X0126282Y0186374D01*
X0126197Y0186378D01*
X0126197Y0186322D01*
X0126279Y0186319D01*
X0126361Y0186312D01*
X0126443Y0186301D01*
X0126524Y0186287D01*
X0126605Y0186269D01*
X0126684Y0186247D01*
X0126763Y0186222D01*
X0126840Y0186193D01*
X0126916Y0186161D01*
X0126990Y0186125D01*
X0127063Y0186087D01*
X0127134Y0186044D01*
X0127202Y0185999D01*
X0127269Y0185951D01*
X0127334Y0185899D01*
X0127396Y0185845D01*
X0127455Y0185788D01*
X0127512Y0185729D01*
X0127566Y0185667D01*
X0127618Y0185602D01*
X0127666Y0185535D01*
X0127711Y0185467D01*
X0127754Y0185396D01*
X0127792Y0185323D01*
X0127828Y0185249D01*
X0127860Y0185173D01*
X0127889Y0185096D01*
X0127914Y0185017D01*
X0127936Y0184938D01*
X0127954Y0184857D01*
X0127968Y0184776D01*
X0127979Y0184694D01*
X0127986Y0184612D01*
X0127989Y0184530D01*
X0127933Y0184530D01*
X0127929Y0184612D01*
X0127922Y0184694D01*
X0127911Y0184776D01*
X0127897Y0184857D01*
X0127878Y0184937D01*
X0127856Y0185016D01*
X0127830Y0185094D01*
X0127801Y0185171D01*
X0127768Y0185246D01*
X0127731Y0185320D01*
X0127691Y0185392D01*
X0127648Y0185462D01*
X0127602Y0185530D01*
X0127552Y0185595D01*
X0127500Y0185659D01*
X0127444Y0185719D01*
X0127386Y0185777D01*
X0127326Y0185833D01*
X0127262Y0185885D01*
X0127197Y0185935D01*
X0127129Y0185981D01*
X0127059Y0186024D01*
X0126987Y0186064D01*
X0126913Y0186101D01*
X0126838Y0186134D01*
X0126761Y0186163D01*
X0126683Y0186189D01*
X0126604Y0186211D01*
X0126524Y0186230D01*
X0126443Y0186244D01*
X0126361Y0186255D01*
X0126279Y0186262D01*
X0126197Y0186266D01*
X0121138Y0186769D02*
X0121138Y0186229D01*
X0121137Y0186230D02*
X0121057Y0186226D01*
X0120976Y0186219D01*
X0120897Y0186209D01*
X0120817Y0186194D01*
X0120739Y0186176D01*
X0120661Y0186154D01*
X0120585Y0186129D01*
X0120510Y0186100D01*
X0120436Y0186068D01*
X0120364Y0186032D01*
X0120293Y0185993D01*
X0120225Y0185951D01*
X0120158Y0185906D01*
X0120094Y0185857D01*
X0120032Y0185806D01*
X0119973Y0185751D01*
X0119916Y0185694D01*
X0119861Y0185635D01*
X0119810Y0185573D01*
X0119761Y0185509D01*
X0119716Y0185442D01*
X0119674Y0185374D01*
X0119635Y0185303D01*
X0119599Y0185231D01*
X0119567Y0185157D01*
X0119538Y0185082D01*
X0119513Y0185006D01*
X0119491Y0184928D01*
X0119473Y0184850D01*
X0119458Y0184770D01*
X0119448Y0184691D01*
X0119441Y0184610D01*
X0119437Y0184530D01*
X0118898Y0184529D01*
X0118897Y0184530D01*
X0118900Y0184625D01*
X0118908Y0184719D01*
X0118919Y0184813D01*
X0118934Y0184907D01*
X0118953Y0185000D01*
X0118975Y0185092D01*
X0119002Y0185183D01*
X0119032Y0185272D01*
X0119066Y0185361D01*
X0119104Y0185448D01*
X0119146Y0185533D01*
X0119190Y0185616D01*
X0119239Y0185698D01*
X0119290Y0185777D01*
X0119345Y0185854D01*
X0119403Y0185929D01*
X0119465Y0186002D01*
X0119529Y0186071D01*
X0119596Y0186138D01*
X0119665Y0186202D01*
X0119738Y0186264D01*
X0119813Y0186322D01*
X0119890Y0186377D01*
X0119969Y0186428D01*
X0120051Y0186477D01*
X0120134Y0186521D01*
X0120219Y0186563D01*
X0120306Y0186601D01*
X0120395Y0186635D01*
X0120484Y0186665D01*
X0120575Y0186692D01*
X0120667Y0186714D01*
X0120760Y0186733D01*
X0120854Y0186748D01*
X0120948Y0186759D01*
X0121042Y0186767D01*
X0121137Y0186770D01*
X0121137Y0186714D01*
X0121045Y0186711D01*
X0120953Y0186704D01*
X0120861Y0186693D01*
X0120770Y0186678D01*
X0120679Y0186660D01*
X0120590Y0186637D01*
X0120501Y0186611D01*
X0120413Y0186582D01*
X0120327Y0186549D01*
X0120243Y0186512D01*
X0120159Y0186471D01*
X0120078Y0186428D01*
X0119999Y0186381D01*
X0119921Y0186330D01*
X0119846Y0186277D01*
X0119773Y0186220D01*
X0119702Y0186160D01*
X0119634Y0186098D01*
X0119569Y0186033D01*
X0119507Y0185965D01*
X0119447Y0185894D01*
X0119390Y0185821D01*
X0119337Y0185746D01*
X0119286Y0185668D01*
X0119239Y0185589D01*
X0119196Y0185508D01*
X0119155Y0185424D01*
X0119118Y0185340D01*
X0119085Y0185254D01*
X0119056Y0185166D01*
X0119030Y0185077D01*
X0119007Y0184988D01*
X0118989Y0184897D01*
X0118974Y0184806D01*
X0118963Y0184714D01*
X0118956Y0184622D01*
X0118953Y0184530D01*
X0119009Y0184530D01*
X0119012Y0184622D01*
X0119020Y0184715D01*
X0119031Y0184806D01*
X0119046Y0184898D01*
X0119065Y0184988D01*
X0119088Y0185078D01*
X0119114Y0185166D01*
X0119145Y0185254D01*
X0119179Y0185340D01*
X0119217Y0185424D01*
X0119258Y0185507D01*
X0119303Y0185588D01*
X0119351Y0185667D01*
X0119403Y0185743D01*
X0119458Y0185818D01*
X0119516Y0185890D01*
X0119577Y0185959D01*
X0119641Y0186026D01*
X0119708Y0186090D01*
X0119777Y0186151D01*
X0119849Y0186209D01*
X0119924Y0186264D01*
X0120000Y0186316D01*
X0120079Y0186364D01*
X0120160Y0186409D01*
X0120243Y0186450D01*
X0120327Y0186488D01*
X0120413Y0186522D01*
X0120501Y0186553D01*
X0120589Y0186579D01*
X0120679Y0186602D01*
X0120769Y0186621D01*
X0120861Y0186636D01*
X0120952Y0186647D01*
X0121045Y0186655D01*
X0121137Y0186658D01*
X0121137Y0186602D01*
X0121047Y0186599D01*
X0120957Y0186592D01*
X0120868Y0186581D01*
X0120779Y0186566D01*
X0120691Y0186547D01*
X0120604Y0186525D01*
X0120517Y0186499D01*
X0120432Y0186469D01*
X0120349Y0186436D01*
X0120267Y0186399D01*
X0120186Y0186359D01*
X0120107Y0186315D01*
X0120031Y0186268D01*
X0119956Y0186218D01*
X0119883Y0186165D01*
X0119813Y0186108D01*
X0119746Y0186049D01*
X0119681Y0185986D01*
X0119618Y0185921D01*
X0119559Y0185854D01*
X0119502Y0185784D01*
X0119449Y0185711D01*
X0119399Y0185636D01*
X0119352Y0185560D01*
X0119308Y0185481D01*
X0119268Y0185400D01*
X0119231Y0185318D01*
X0119198Y0185235D01*
X0119168Y0185150D01*
X0119142Y0185063D01*
X0119120Y0184976D01*
X0119101Y0184888D01*
X0119086Y0184799D01*
X0119075Y0184710D01*
X0119068Y0184620D01*
X0119065Y0184530D01*
X0119121Y0184530D01*
X0119124Y0184618D01*
X0119131Y0184705D01*
X0119142Y0184792D01*
X0119156Y0184878D01*
X0119174Y0184964D01*
X0119196Y0185049D01*
X0119221Y0185133D01*
X0119250Y0185215D01*
X0119283Y0185297D01*
X0119318Y0185377D01*
X0119358Y0185455D01*
X0119400Y0185532D01*
X0119446Y0185606D01*
X0119495Y0185679D01*
X0119547Y0185749D01*
X0119602Y0185818D01*
X0119660Y0185883D01*
X0119720Y0185947D01*
X0119784Y0186007D01*
X0119849Y0186065D01*
X0119918Y0186120D01*
X0119988Y0186172D01*
X0120061Y0186221D01*
X0120135Y0186267D01*
X0120212Y0186309D01*
X0120290Y0186349D01*
X0120370Y0186384D01*
X0120452Y0186417D01*
X0120534Y0186446D01*
X0120618Y0186471D01*
X0120703Y0186493D01*
X0120789Y0186511D01*
X0120875Y0186525D01*
X0120962Y0186536D01*
X0121049Y0186543D01*
X0121137Y0186546D01*
X0121137Y0186490D01*
X0121049Y0186487D01*
X0120962Y0186479D01*
X0120875Y0186468D01*
X0120789Y0186454D01*
X0120703Y0186435D01*
X0120619Y0186413D01*
X0120535Y0186387D01*
X0120453Y0186357D01*
X0120372Y0186324D01*
X0120292Y0186287D01*
X0120214Y0186247D01*
X0120138Y0186203D01*
X0120064Y0186157D01*
X0119992Y0186106D01*
X0119923Y0186053D01*
X0119856Y0185997D01*
X0119791Y0185938D01*
X0119729Y0185876D01*
X0119670Y0185811D01*
X0119614Y0185744D01*
X0119561Y0185675D01*
X0119510Y0185603D01*
X0119464Y0185529D01*
X0119420Y0185453D01*
X0119380Y0185375D01*
X0119343Y0185295D01*
X0119310Y0185214D01*
X0119280Y0185132D01*
X0119254Y0185048D01*
X0119232Y0184964D01*
X0119213Y0184878D01*
X0119199Y0184792D01*
X0119188Y0184705D01*
X0119180Y0184618D01*
X0119177Y0184530D01*
X0119233Y0184530D01*
X0119236Y0184615D01*
X0119243Y0184700D01*
X0119254Y0184784D01*
X0119268Y0184868D01*
X0119286Y0184951D01*
X0119308Y0185033D01*
X0119333Y0185115D01*
X0119362Y0185195D01*
X0119394Y0185273D01*
X0119430Y0185351D01*
X0119469Y0185426D01*
X0119512Y0185500D01*
X0119557Y0185572D01*
X0119606Y0185642D01*
X0119658Y0185709D01*
X0119712Y0185774D01*
X0119770Y0185837D01*
X0119830Y0185897D01*
X0119893Y0185955D01*
X0119958Y0186009D01*
X0120025Y0186061D01*
X0120095Y0186110D01*
X0120167Y0186155D01*
X0120241Y0186198D01*
X0120316Y0186237D01*
X0120394Y0186273D01*
X0120472Y0186305D01*
X0120552Y0186334D01*
X0120634Y0186359D01*
X0120716Y0186381D01*
X0120799Y0186399D01*
X0120883Y0186413D01*
X0120967Y0186424D01*
X0121052Y0186431D01*
X0121137Y0186434D01*
X0121137Y0186378D01*
X0121052Y0186374D01*
X0120967Y0186367D01*
X0120883Y0186356D01*
X0120799Y0186342D01*
X0120716Y0186323D01*
X0120634Y0186301D01*
X0120553Y0186275D01*
X0120474Y0186245D01*
X0120396Y0186212D01*
X0120319Y0186176D01*
X0120244Y0186135D01*
X0120171Y0186092D01*
X0120100Y0186045D01*
X0120031Y0185995D01*
X0119965Y0185943D01*
X0119900Y0185887D01*
X0119839Y0185828D01*
X0119780Y0185767D01*
X0119724Y0185702D01*
X0119672Y0185636D01*
X0119622Y0185567D01*
X0119575Y0185496D01*
X0119532Y0185423D01*
X0119491Y0185348D01*
X0119455Y0185271D01*
X0119422Y0185193D01*
X0119392Y0185114D01*
X0119366Y0185033D01*
X0119344Y0184951D01*
X0119325Y0184868D01*
X0119311Y0184784D01*
X0119300Y0184700D01*
X0119293Y0184615D01*
X0119289Y0184530D01*
X0119345Y0184530D01*
X0119348Y0184612D01*
X0119355Y0184694D01*
X0119366Y0184776D01*
X0119380Y0184857D01*
X0119398Y0184938D01*
X0119420Y0185017D01*
X0119445Y0185096D01*
X0119474Y0185173D01*
X0119506Y0185249D01*
X0119542Y0185323D01*
X0119580Y0185396D01*
X0119623Y0185467D01*
X0119668Y0185535D01*
X0119716Y0185602D01*
X0119768Y0185667D01*
X0119822Y0185729D01*
X0119879Y0185788D01*
X0119938Y0185845D01*
X0120000Y0185899D01*
X0120065Y0185951D01*
X0120132Y0185999D01*
X0120200Y0186044D01*
X0120271Y0186087D01*
X0120344Y0186125D01*
X0120418Y0186161D01*
X0120494Y0186193D01*
X0120571Y0186222D01*
X0120650Y0186247D01*
X0120729Y0186269D01*
X0120810Y0186287D01*
X0120891Y0186301D01*
X0120973Y0186312D01*
X0121055Y0186319D01*
X0121137Y0186322D01*
X0121137Y0186266D01*
X0121055Y0186262D01*
X0120973Y0186255D01*
X0120891Y0186244D01*
X0120810Y0186230D01*
X0120730Y0186211D01*
X0120651Y0186189D01*
X0120573Y0186163D01*
X0120496Y0186134D01*
X0120421Y0186101D01*
X0120347Y0186064D01*
X0120275Y0186024D01*
X0120205Y0185981D01*
X0120137Y0185935D01*
X0120072Y0185885D01*
X0120008Y0185833D01*
X0119948Y0185777D01*
X0119890Y0185719D01*
X0119834Y0185659D01*
X0119782Y0185595D01*
X0119732Y0185530D01*
X0119686Y0185462D01*
X0119643Y0185392D01*
X0119603Y0185320D01*
X0119566Y0185246D01*
X0119533Y0185171D01*
X0119504Y0185094D01*
X0119478Y0185016D01*
X0119456Y0184937D01*
X0119437Y0184857D01*
X0119423Y0184776D01*
X0119412Y0184694D01*
X0119405Y0184612D01*
X0119401Y0184530D01*
D23*
X0120667Y0179200D02*
X0123667Y0179200D01*
X0126667Y0179200D01*
X0126667Y0176700D02*
X0123667Y0176700D01*
X0120667Y0176700D01*
X0022817Y0155543D02*
X0022817Y0152543D01*
X0022817Y0149543D01*
X0020317Y0149543D02*
X0020317Y0152543D01*
X0020317Y0155543D01*
D24*
X0020375Y0182449D02*
X0008958Y0182449D01*
X0008958Y0203472D01*
X0020375Y0203472D01*
X0020375Y0182449D01*
X0115560Y0091972D02*
X0119773Y0091972D01*
X0117667Y0089866D02*
X0117667Y0094079D01*
X0115560Y0019236D02*
X0119773Y0019236D01*
D25*
X0175881Y0021293D03*
X0175881Y0026707D03*
D26*
X0174356Y0024000D03*
M02*
