G75*
%MOIN*%
%OFA0B0*%
%FSLAX25Y25*%
%IPPOS*%
%LPD*%
%AMOC8*
5,1,8,0,0,1.08239X$1,22.5*
%
%ADD10C,0.00000*%
%ADD11C,0.00300*%
%ADD12C,0.00394*%
%ADD13C,0.00400*%
%ADD14C,0.00600*%
%ADD15C,0.00800*%
D10*
X0004541Y0011008D02*
X0201391Y0011008D01*
X0201391Y0207858D01*
X0004541Y0207858D01*
X0004541Y0011008D01*
X0014167Y0124276D02*
X0014169Y0124437D01*
X0014175Y0124597D01*
X0014185Y0124758D01*
X0014199Y0124918D01*
X0014217Y0125078D01*
X0014238Y0125237D01*
X0014264Y0125396D01*
X0014294Y0125554D01*
X0014327Y0125711D01*
X0014365Y0125868D01*
X0014406Y0126023D01*
X0014451Y0126177D01*
X0014500Y0126330D01*
X0014553Y0126482D01*
X0014609Y0126633D01*
X0014670Y0126782D01*
X0014733Y0126930D01*
X0014801Y0127076D01*
X0014872Y0127220D01*
X0014946Y0127362D01*
X0015024Y0127503D01*
X0015106Y0127641D01*
X0015191Y0127778D01*
X0015279Y0127912D01*
X0015371Y0128044D01*
X0015466Y0128174D01*
X0015564Y0128302D01*
X0015665Y0128427D01*
X0015769Y0128549D01*
X0015876Y0128669D01*
X0015986Y0128786D01*
X0016099Y0128901D01*
X0016215Y0129012D01*
X0016334Y0129121D01*
X0016455Y0129226D01*
X0016579Y0129329D01*
X0016705Y0129429D01*
X0016833Y0129525D01*
X0016964Y0129618D01*
X0017098Y0129708D01*
X0017233Y0129795D01*
X0017371Y0129878D01*
X0017510Y0129958D01*
X0017652Y0130034D01*
X0017795Y0130107D01*
X0017940Y0130176D01*
X0018087Y0130242D01*
X0018235Y0130304D01*
X0018385Y0130362D01*
X0018536Y0130417D01*
X0018689Y0130468D01*
X0018843Y0130515D01*
X0018998Y0130558D01*
X0019154Y0130597D01*
X0019310Y0130633D01*
X0019468Y0130664D01*
X0019626Y0130692D01*
X0019785Y0130716D01*
X0019945Y0130736D01*
X0020105Y0130752D01*
X0020265Y0130764D01*
X0020426Y0130772D01*
X0020587Y0130776D01*
X0020747Y0130776D01*
X0020908Y0130772D01*
X0021069Y0130764D01*
X0021229Y0130752D01*
X0021389Y0130736D01*
X0021549Y0130716D01*
X0021708Y0130692D01*
X0021866Y0130664D01*
X0022024Y0130633D01*
X0022180Y0130597D01*
X0022336Y0130558D01*
X0022491Y0130515D01*
X0022645Y0130468D01*
X0022798Y0130417D01*
X0022949Y0130362D01*
X0023099Y0130304D01*
X0023247Y0130242D01*
X0023394Y0130176D01*
X0023539Y0130107D01*
X0023682Y0130034D01*
X0023824Y0129958D01*
X0023963Y0129878D01*
X0024101Y0129795D01*
X0024236Y0129708D01*
X0024370Y0129618D01*
X0024501Y0129525D01*
X0024629Y0129429D01*
X0024755Y0129329D01*
X0024879Y0129226D01*
X0025000Y0129121D01*
X0025119Y0129012D01*
X0025235Y0128901D01*
X0025348Y0128786D01*
X0025458Y0128669D01*
X0025565Y0128549D01*
X0025669Y0128427D01*
X0025770Y0128302D01*
X0025868Y0128174D01*
X0025963Y0128044D01*
X0026055Y0127912D01*
X0026143Y0127778D01*
X0026228Y0127641D01*
X0026310Y0127503D01*
X0026388Y0127362D01*
X0026462Y0127220D01*
X0026533Y0127076D01*
X0026601Y0126930D01*
X0026664Y0126782D01*
X0026725Y0126633D01*
X0026781Y0126482D01*
X0026834Y0126330D01*
X0026883Y0126177D01*
X0026928Y0126023D01*
X0026969Y0125868D01*
X0027007Y0125711D01*
X0027040Y0125554D01*
X0027070Y0125396D01*
X0027096Y0125237D01*
X0027117Y0125078D01*
X0027135Y0124918D01*
X0027149Y0124758D01*
X0027159Y0124597D01*
X0027165Y0124437D01*
X0027167Y0124276D01*
X0027165Y0124115D01*
X0027159Y0123955D01*
X0027149Y0123794D01*
X0027135Y0123634D01*
X0027117Y0123474D01*
X0027096Y0123315D01*
X0027070Y0123156D01*
X0027040Y0122998D01*
X0027007Y0122841D01*
X0026969Y0122684D01*
X0026928Y0122529D01*
X0026883Y0122375D01*
X0026834Y0122222D01*
X0026781Y0122070D01*
X0026725Y0121919D01*
X0026664Y0121770D01*
X0026601Y0121622D01*
X0026533Y0121476D01*
X0026462Y0121332D01*
X0026388Y0121190D01*
X0026310Y0121049D01*
X0026228Y0120911D01*
X0026143Y0120774D01*
X0026055Y0120640D01*
X0025963Y0120508D01*
X0025868Y0120378D01*
X0025770Y0120250D01*
X0025669Y0120125D01*
X0025565Y0120003D01*
X0025458Y0119883D01*
X0025348Y0119766D01*
X0025235Y0119651D01*
X0025119Y0119540D01*
X0025000Y0119431D01*
X0024879Y0119326D01*
X0024755Y0119223D01*
X0024629Y0119123D01*
X0024501Y0119027D01*
X0024370Y0118934D01*
X0024236Y0118844D01*
X0024101Y0118757D01*
X0023963Y0118674D01*
X0023824Y0118594D01*
X0023682Y0118518D01*
X0023539Y0118445D01*
X0023394Y0118376D01*
X0023247Y0118310D01*
X0023099Y0118248D01*
X0022949Y0118190D01*
X0022798Y0118135D01*
X0022645Y0118084D01*
X0022491Y0118037D01*
X0022336Y0117994D01*
X0022180Y0117955D01*
X0022024Y0117919D01*
X0021866Y0117888D01*
X0021708Y0117860D01*
X0021549Y0117836D01*
X0021389Y0117816D01*
X0021229Y0117800D01*
X0021069Y0117788D01*
X0020908Y0117780D01*
X0020747Y0117776D01*
X0020587Y0117776D01*
X0020426Y0117780D01*
X0020265Y0117788D01*
X0020105Y0117800D01*
X0019945Y0117816D01*
X0019785Y0117836D01*
X0019626Y0117860D01*
X0019468Y0117888D01*
X0019310Y0117919D01*
X0019154Y0117955D01*
X0018998Y0117994D01*
X0018843Y0118037D01*
X0018689Y0118084D01*
X0018536Y0118135D01*
X0018385Y0118190D01*
X0018235Y0118248D01*
X0018087Y0118310D01*
X0017940Y0118376D01*
X0017795Y0118445D01*
X0017652Y0118518D01*
X0017510Y0118594D01*
X0017371Y0118674D01*
X0017233Y0118757D01*
X0017098Y0118844D01*
X0016964Y0118934D01*
X0016833Y0119027D01*
X0016705Y0119123D01*
X0016579Y0119223D01*
X0016455Y0119326D01*
X0016334Y0119431D01*
X0016215Y0119540D01*
X0016099Y0119651D01*
X0015986Y0119766D01*
X0015876Y0119883D01*
X0015769Y0120003D01*
X0015665Y0120125D01*
X0015564Y0120250D01*
X0015466Y0120378D01*
X0015371Y0120508D01*
X0015279Y0120640D01*
X0015191Y0120774D01*
X0015106Y0120911D01*
X0015024Y0121049D01*
X0014946Y0121190D01*
X0014872Y0121332D01*
X0014801Y0121476D01*
X0014733Y0121622D01*
X0014670Y0121770D01*
X0014609Y0121919D01*
X0014553Y0122070D01*
X0014500Y0122222D01*
X0014451Y0122375D01*
X0014406Y0122529D01*
X0014365Y0122684D01*
X0014327Y0122841D01*
X0014294Y0122998D01*
X0014264Y0123156D01*
X0014238Y0123315D01*
X0014217Y0123474D01*
X0014199Y0123634D01*
X0014185Y0123794D01*
X0014175Y0123955D01*
X0014169Y0124115D01*
X0014167Y0124276D01*
X0032100Y0172425D02*
X0032102Y0172550D01*
X0032108Y0172675D01*
X0032118Y0172799D01*
X0032132Y0172923D01*
X0032149Y0173047D01*
X0032171Y0173170D01*
X0032197Y0173292D01*
X0032226Y0173414D01*
X0032259Y0173534D01*
X0032297Y0173653D01*
X0032337Y0173772D01*
X0032382Y0173888D01*
X0032430Y0174003D01*
X0032482Y0174117D01*
X0032538Y0174229D01*
X0032597Y0174339D01*
X0032659Y0174447D01*
X0032725Y0174554D01*
X0032794Y0174658D01*
X0032867Y0174759D01*
X0032942Y0174859D01*
X0033021Y0174956D01*
X0033103Y0175050D01*
X0033188Y0175142D01*
X0033275Y0175231D01*
X0033366Y0175317D01*
X0033459Y0175400D01*
X0033555Y0175481D01*
X0033653Y0175558D01*
X0033753Y0175632D01*
X0033856Y0175703D01*
X0033961Y0175770D01*
X0034069Y0175835D01*
X0034178Y0175895D01*
X0034289Y0175953D01*
X0034402Y0176006D01*
X0034516Y0176056D01*
X0034632Y0176103D01*
X0034749Y0176145D01*
X0034868Y0176184D01*
X0034988Y0176220D01*
X0035109Y0176251D01*
X0035231Y0176279D01*
X0035353Y0176302D01*
X0035477Y0176322D01*
X0035601Y0176338D01*
X0035725Y0176350D01*
X0035850Y0176358D01*
X0035975Y0176362D01*
X0036099Y0176362D01*
X0036224Y0176358D01*
X0036349Y0176350D01*
X0036473Y0176338D01*
X0036597Y0176322D01*
X0036721Y0176302D01*
X0036843Y0176279D01*
X0036965Y0176251D01*
X0037086Y0176220D01*
X0037206Y0176184D01*
X0037325Y0176145D01*
X0037442Y0176103D01*
X0037558Y0176056D01*
X0037672Y0176006D01*
X0037785Y0175953D01*
X0037896Y0175895D01*
X0038006Y0175835D01*
X0038113Y0175770D01*
X0038218Y0175703D01*
X0038321Y0175632D01*
X0038421Y0175558D01*
X0038519Y0175481D01*
X0038615Y0175400D01*
X0038708Y0175317D01*
X0038799Y0175231D01*
X0038886Y0175142D01*
X0038971Y0175050D01*
X0039053Y0174956D01*
X0039132Y0174859D01*
X0039207Y0174759D01*
X0039280Y0174658D01*
X0039349Y0174554D01*
X0039415Y0174447D01*
X0039477Y0174339D01*
X0039536Y0174229D01*
X0039592Y0174117D01*
X0039644Y0174003D01*
X0039692Y0173888D01*
X0039737Y0173772D01*
X0039777Y0173653D01*
X0039815Y0173534D01*
X0039848Y0173414D01*
X0039877Y0173292D01*
X0039903Y0173170D01*
X0039925Y0173047D01*
X0039942Y0172923D01*
X0039956Y0172799D01*
X0039966Y0172675D01*
X0039972Y0172550D01*
X0039974Y0172425D01*
X0039972Y0172300D01*
X0039966Y0172175D01*
X0039956Y0172051D01*
X0039942Y0171927D01*
X0039925Y0171803D01*
X0039903Y0171680D01*
X0039877Y0171558D01*
X0039848Y0171436D01*
X0039815Y0171316D01*
X0039777Y0171197D01*
X0039737Y0171078D01*
X0039692Y0170962D01*
X0039644Y0170847D01*
X0039592Y0170733D01*
X0039536Y0170621D01*
X0039477Y0170511D01*
X0039415Y0170403D01*
X0039349Y0170296D01*
X0039280Y0170192D01*
X0039207Y0170091D01*
X0039132Y0169991D01*
X0039053Y0169894D01*
X0038971Y0169800D01*
X0038886Y0169708D01*
X0038799Y0169619D01*
X0038708Y0169533D01*
X0038615Y0169450D01*
X0038519Y0169369D01*
X0038421Y0169292D01*
X0038321Y0169218D01*
X0038218Y0169147D01*
X0038113Y0169080D01*
X0038005Y0169015D01*
X0037896Y0168955D01*
X0037785Y0168897D01*
X0037672Y0168844D01*
X0037558Y0168794D01*
X0037442Y0168747D01*
X0037325Y0168705D01*
X0037206Y0168666D01*
X0037086Y0168630D01*
X0036965Y0168599D01*
X0036843Y0168571D01*
X0036721Y0168548D01*
X0036597Y0168528D01*
X0036473Y0168512D01*
X0036349Y0168500D01*
X0036224Y0168492D01*
X0036099Y0168488D01*
X0035975Y0168488D01*
X0035850Y0168492D01*
X0035725Y0168500D01*
X0035601Y0168512D01*
X0035477Y0168528D01*
X0035353Y0168548D01*
X0035231Y0168571D01*
X0035109Y0168599D01*
X0034988Y0168630D01*
X0034868Y0168666D01*
X0034749Y0168705D01*
X0034632Y0168747D01*
X0034516Y0168794D01*
X0034402Y0168844D01*
X0034289Y0168897D01*
X0034178Y0168955D01*
X0034068Y0169015D01*
X0033961Y0169080D01*
X0033856Y0169147D01*
X0033753Y0169218D01*
X0033653Y0169292D01*
X0033555Y0169369D01*
X0033459Y0169450D01*
X0033366Y0169533D01*
X0033275Y0169619D01*
X0033188Y0169708D01*
X0033103Y0169800D01*
X0033021Y0169894D01*
X0032942Y0169991D01*
X0032867Y0170091D01*
X0032794Y0170192D01*
X0032725Y0170296D01*
X0032659Y0170403D01*
X0032597Y0170511D01*
X0032538Y0170621D01*
X0032482Y0170733D01*
X0032430Y0170847D01*
X0032382Y0170962D01*
X0032337Y0171078D01*
X0032297Y0171197D01*
X0032259Y0171316D01*
X0032226Y0171436D01*
X0032197Y0171558D01*
X0032171Y0171680D01*
X0032149Y0171803D01*
X0032132Y0171927D01*
X0032118Y0172051D01*
X0032108Y0172175D01*
X0032102Y0172300D01*
X0032100Y0172425D01*
X0165958Y0046441D02*
X0165960Y0046566D01*
X0165966Y0046691D01*
X0165976Y0046815D01*
X0165990Y0046939D01*
X0166007Y0047063D01*
X0166029Y0047186D01*
X0166055Y0047308D01*
X0166084Y0047430D01*
X0166117Y0047550D01*
X0166155Y0047669D01*
X0166195Y0047788D01*
X0166240Y0047904D01*
X0166288Y0048019D01*
X0166340Y0048133D01*
X0166396Y0048245D01*
X0166455Y0048355D01*
X0166517Y0048463D01*
X0166583Y0048570D01*
X0166652Y0048674D01*
X0166725Y0048775D01*
X0166800Y0048875D01*
X0166879Y0048972D01*
X0166961Y0049066D01*
X0167046Y0049158D01*
X0167133Y0049247D01*
X0167224Y0049333D01*
X0167317Y0049416D01*
X0167413Y0049497D01*
X0167511Y0049574D01*
X0167611Y0049648D01*
X0167714Y0049719D01*
X0167819Y0049786D01*
X0167927Y0049851D01*
X0168036Y0049911D01*
X0168147Y0049969D01*
X0168260Y0050022D01*
X0168374Y0050072D01*
X0168490Y0050119D01*
X0168607Y0050161D01*
X0168726Y0050200D01*
X0168846Y0050236D01*
X0168967Y0050267D01*
X0169089Y0050295D01*
X0169211Y0050318D01*
X0169335Y0050338D01*
X0169459Y0050354D01*
X0169583Y0050366D01*
X0169708Y0050374D01*
X0169833Y0050378D01*
X0169957Y0050378D01*
X0170082Y0050374D01*
X0170207Y0050366D01*
X0170331Y0050354D01*
X0170455Y0050338D01*
X0170579Y0050318D01*
X0170701Y0050295D01*
X0170823Y0050267D01*
X0170944Y0050236D01*
X0171064Y0050200D01*
X0171183Y0050161D01*
X0171300Y0050119D01*
X0171416Y0050072D01*
X0171530Y0050022D01*
X0171643Y0049969D01*
X0171754Y0049911D01*
X0171864Y0049851D01*
X0171971Y0049786D01*
X0172076Y0049719D01*
X0172179Y0049648D01*
X0172279Y0049574D01*
X0172377Y0049497D01*
X0172473Y0049416D01*
X0172566Y0049333D01*
X0172657Y0049247D01*
X0172744Y0049158D01*
X0172829Y0049066D01*
X0172911Y0048972D01*
X0172990Y0048875D01*
X0173065Y0048775D01*
X0173138Y0048674D01*
X0173207Y0048570D01*
X0173273Y0048463D01*
X0173335Y0048355D01*
X0173394Y0048245D01*
X0173450Y0048133D01*
X0173502Y0048019D01*
X0173550Y0047904D01*
X0173595Y0047788D01*
X0173635Y0047669D01*
X0173673Y0047550D01*
X0173706Y0047430D01*
X0173735Y0047308D01*
X0173761Y0047186D01*
X0173783Y0047063D01*
X0173800Y0046939D01*
X0173814Y0046815D01*
X0173824Y0046691D01*
X0173830Y0046566D01*
X0173832Y0046441D01*
X0173830Y0046316D01*
X0173824Y0046191D01*
X0173814Y0046067D01*
X0173800Y0045943D01*
X0173783Y0045819D01*
X0173761Y0045696D01*
X0173735Y0045574D01*
X0173706Y0045452D01*
X0173673Y0045332D01*
X0173635Y0045213D01*
X0173595Y0045094D01*
X0173550Y0044978D01*
X0173502Y0044863D01*
X0173450Y0044749D01*
X0173394Y0044637D01*
X0173335Y0044527D01*
X0173273Y0044419D01*
X0173207Y0044312D01*
X0173138Y0044208D01*
X0173065Y0044107D01*
X0172990Y0044007D01*
X0172911Y0043910D01*
X0172829Y0043816D01*
X0172744Y0043724D01*
X0172657Y0043635D01*
X0172566Y0043549D01*
X0172473Y0043466D01*
X0172377Y0043385D01*
X0172279Y0043308D01*
X0172179Y0043234D01*
X0172076Y0043163D01*
X0171971Y0043096D01*
X0171863Y0043031D01*
X0171754Y0042971D01*
X0171643Y0042913D01*
X0171530Y0042860D01*
X0171416Y0042810D01*
X0171300Y0042763D01*
X0171183Y0042721D01*
X0171064Y0042682D01*
X0170944Y0042646D01*
X0170823Y0042615D01*
X0170701Y0042587D01*
X0170579Y0042564D01*
X0170455Y0042544D01*
X0170331Y0042528D01*
X0170207Y0042516D01*
X0170082Y0042508D01*
X0169957Y0042504D01*
X0169833Y0042504D01*
X0169708Y0042508D01*
X0169583Y0042516D01*
X0169459Y0042528D01*
X0169335Y0042544D01*
X0169211Y0042564D01*
X0169089Y0042587D01*
X0168967Y0042615D01*
X0168846Y0042646D01*
X0168726Y0042682D01*
X0168607Y0042721D01*
X0168490Y0042763D01*
X0168374Y0042810D01*
X0168260Y0042860D01*
X0168147Y0042913D01*
X0168036Y0042971D01*
X0167926Y0043031D01*
X0167819Y0043096D01*
X0167714Y0043163D01*
X0167611Y0043234D01*
X0167511Y0043308D01*
X0167413Y0043385D01*
X0167317Y0043466D01*
X0167224Y0043549D01*
X0167133Y0043635D01*
X0167046Y0043724D01*
X0166961Y0043816D01*
X0166879Y0043910D01*
X0166800Y0044007D01*
X0166725Y0044107D01*
X0166652Y0044208D01*
X0166583Y0044312D01*
X0166517Y0044419D01*
X0166455Y0044527D01*
X0166396Y0044637D01*
X0166340Y0044749D01*
X0166288Y0044863D01*
X0166240Y0044978D01*
X0166195Y0045094D01*
X0166155Y0045213D01*
X0166117Y0045332D01*
X0166084Y0045452D01*
X0166055Y0045574D01*
X0166029Y0045696D01*
X0166007Y0045819D01*
X0165990Y0045943D01*
X0165976Y0046067D01*
X0165966Y0046191D01*
X0165960Y0046316D01*
X0165958Y0046441D01*
D11*
X0156883Y0115150D02*
X0156883Y0118853D01*
X0155031Y0118853D01*
X0154414Y0118236D01*
X0154414Y0117002D01*
X0155031Y0116384D01*
X0156883Y0116384D01*
X0155649Y0116384D02*
X0154414Y0115150D01*
X0153200Y0117002D02*
X0150731Y0117002D01*
X0151348Y0118853D02*
X0153200Y0117002D01*
X0151348Y0118853D02*
X0151348Y0115150D01*
X0151348Y0149150D02*
X0152583Y0149150D01*
X0153200Y0149767D01*
X0154414Y0149150D02*
X0155649Y0150384D01*
X0155031Y0150384D02*
X0156883Y0150384D01*
X0156883Y0149150D02*
X0156883Y0152853D01*
X0155031Y0152853D01*
X0154414Y0152236D01*
X0154414Y0151002D01*
X0155031Y0150384D01*
X0153200Y0152236D02*
X0152583Y0152853D01*
X0151348Y0152853D01*
X0150731Y0152236D01*
X0150731Y0151619D01*
X0151348Y0151002D01*
X0150731Y0150384D01*
X0150731Y0149767D01*
X0151348Y0149150D01*
X0151348Y0151002D02*
X0151965Y0151002D01*
X0144520Y0175150D02*
X0140817Y0175150D01*
X0142051Y0175150D02*
X0142051Y0177002D01*
X0142668Y0177619D01*
X0143903Y0177619D01*
X0144520Y0177002D01*
X0144520Y0175150D01*
X0142051Y0176384D02*
X0140817Y0177619D01*
X0141434Y0178833D02*
X0140817Y0179450D01*
X0140817Y0180685D01*
X0141434Y0181302D01*
X0142668Y0181302D01*
X0143285Y0180685D01*
X0143285Y0180068D01*
X0142668Y0178833D01*
X0144520Y0178833D01*
X0144520Y0181302D01*
X0119719Y0175048D02*
X0118268Y0173597D01*
X0118268Y0175531D01*
X0116817Y0175048D02*
X0119719Y0175048D01*
X0119719Y0172585D02*
X0117300Y0172585D01*
X0116817Y0172101D01*
X0116817Y0171134D01*
X0117300Y0170650D01*
X0119719Y0170650D01*
X0114883Y0141853D02*
X0113031Y0141853D01*
X0112414Y0141236D01*
X0112414Y0140002D01*
X0113031Y0139384D01*
X0114883Y0139384D01*
X0114883Y0138150D02*
X0114883Y0141853D01*
X0113649Y0139384D02*
X0112414Y0138150D01*
X0111200Y0138767D02*
X0110583Y0138150D01*
X0109348Y0138150D01*
X0108731Y0138767D01*
X0108731Y0139384D01*
X0109348Y0140002D01*
X0111200Y0140002D01*
X0111200Y0138767D01*
X0111200Y0140002D02*
X0109965Y0141236D01*
X0108731Y0141853D01*
X0073520Y0155767D02*
X0072903Y0155150D01*
X0070434Y0155150D01*
X0069817Y0155767D01*
X0069817Y0157002D01*
X0070434Y0157619D01*
X0070434Y0158833D02*
X0069817Y0159450D01*
X0069817Y0160685D01*
X0070434Y0161302D01*
X0071668Y0161302D01*
X0072285Y0160685D01*
X0072285Y0160068D01*
X0071668Y0158833D01*
X0073520Y0158833D01*
X0073520Y0161302D01*
X0072903Y0157619D02*
X0073520Y0157002D01*
X0073520Y0155767D01*
X0058903Y0183784D02*
X0056434Y0183784D01*
X0055817Y0184401D01*
X0055817Y0185635D01*
X0056434Y0186252D01*
X0057668Y0187467D02*
X0057668Y0189936D01*
X0055817Y0189318D02*
X0059520Y0189318D01*
X0057668Y0187467D01*
X0058903Y0186252D02*
X0059520Y0185635D01*
X0059520Y0184401D01*
X0058903Y0183784D01*
D12*
X0028092Y0172575D02*
X0028094Y0172768D01*
X0028101Y0172961D01*
X0028113Y0173154D01*
X0028130Y0173347D01*
X0028151Y0173539D01*
X0028177Y0173730D01*
X0028208Y0173921D01*
X0028243Y0174111D01*
X0028283Y0174300D01*
X0028328Y0174488D01*
X0028377Y0174675D01*
X0028431Y0174861D01*
X0028489Y0175045D01*
X0028552Y0175228D01*
X0028620Y0175409D01*
X0028691Y0175588D01*
X0028768Y0175766D01*
X0028848Y0175942D01*
X0028933Y0176115D01*
X0029022Y0176287D01*
X0029115Y0176456D01*
X0029212Y0176623D01*
X0029314Y0176788D01*
X0029419Y0176950D01*
X0029528Y0177109D01*
X0029642Y0177266D01*
X0029759Y0177419D01*
X0029879Y0177570D01*
X0030004Y0177718D01*
X0030132Y0177863D01*
X0030263Y0178004D01*
X0030398Y0178143D01*
X0030537Y0178278D01*
X0030678Y0178409D01*
X0030823Y0178537D01*
X0030971Y0178662D01*
X0031122Y0178782D01*
X0031275Y0178899D01*
X0031432Y0179013D01*
X0031591Y0179122D01*
X0031753Y0179227D01*
X0031918Y0179329D01*
X0032085Y0179426D01*
X0032254Y0179519D01*
X0032426Y0179608D01*
X0032599Y0179693D01*
X0032775Y0179773D01*
X0032953Y0179850D01*
X0033132Y0179921D01*
X0033313Y0179989D01*
X0033496Y0180052D01*
X0033680Y0180110D01*
X0033866Y0180164D01*
X0034053Y0180213D01*
X0034241Y0180258D01*
X0034430Y0180298D01*
X0034620Y0180333D01*
X0034811Y0180364D01*
X0035002Y0180390D01*
X0035194Y0180411D01*
X0035387Y0180428D01*
X0035580Y0180440D01*
X0035773Y0180447D01*
X0035966Y0180449D01*
X0036159Y0180447D01*
X0036352Y0180440D01*
X0036545Y0180428D01*
X0036738Y0180411D01*
X0036930Y0180390D01*
X0037121Y0180364D01*
X0037312Y0180333D01*
X0037502Y0180298D01*
X0037691Y0180258D01*
X0037879Y0180213D01*
X0038066Y0180164D01*
X0038252Y0180110D01*
X0038436Y0180052D01*
X0038619Y0179989D01*
X0038800Y0179921D01*
X0038979Y0179850D01*
X0039157Y0179773D01*
X0039333Y0179693D01*
X0039506Y0179608D01*
X0039678Y0179519D01*
X0039847Y0179426D01*
X0040014Y0179329D01*
X0040179Y0179227D01*
X0040341Y0179122D01*
X0040500Y0179013D01*
X0040657Y0178899D01*
X0040810Y0178782D01*
X0040961Y0178662D01*
X0041109Y0178537D01*
X0041254Y0178409D01*
X0041395Y0178278D01*
X0041534Y0178143D01*
X0041669Y0178004D01*
X0041800Y0177863D01*
X0041928Y0177718D01*
X0042053Y0177570D01*
X0042173Y0177419D01*
X0042290Y0177266D01*
X0042404Y0177109D01*
X0042513Y0176950D01*
X0042618Y0176788D01*
X0042720Y0176623D01*
X0042817Y0176456D01*
X0042910Y0176287D01*
X0042999Y0176115D01*
X0043084Y0175942D01*
X0043164Y0175766D01*
X0043241Y0175588D01*
X0043312Y0175409D01*
X0043380Y0175228D01*
X0043443Y0175045D01*
X0043501Y0174861D01*
X0043555Y0174675D01*
X0043604Y0174488D01*
X0043649Y0174300D01*
X0043689Y0174111D01*
X0043724Y0173921D01*
X0043755Y0173730D01*
X0043781Y0173539D01*
X0043802Y0173347D01*
X0043819Y0173154D01*
X0043831Y0172961D01*
X0043838Y0172768D01*
X0043840Y0172575D01*
X0043838Y0172382D01*
X0043831Y0172189D01*
X0043819Y0171996D01*
X0043802Y0171803D01*
X0043781Y0171611D01*
X0043755Y0171420D01*
X0043724Y0171229D01*
X0043689Y0171039D01*
X0043649Y0170850D01*
X0043604Y0170662D01*
X0043555Y0170475D01*
X0043501Y0170289D01*
X0043443Y0170105D01*
X0043380Y0169922D01*
X0043312Y0169741D01*
X0043241Y0169562D01*
X0043164Y0169384D01*
X0043084Y0169208D01*
X0042999Y0169035D01*
X0042910Y0168863D01*
X0042817Y0168694D01*
X0042720Y0168527D01*
X0042618Y0168362D01*
X0042513Y0168200D01*
X0042404Y0168041D01*
X0042290Y0167884D01*
X0042173Y0167731D01*
X0042053Y0167580D01*
X0041928Y0167432D01*
X0041800Y0167287D01*
X0041669Y0167146D01*
X0041534Y0167007D01*
X0041395Y0166872D01*
X0041254Y0166741D01*
X0041109Y0166613D01*
X0040961Y0166488D01*
X0040810Y0166368D01*
X0040657Y0166251D01*
X0040500Y0166137D01*
X0040341Y0166028D01*
X0040179Y0165923D01*
X0040014Y0165821D01*
X0039847Y0165724D01*
X0039678Y0165631D01*
X0039506Y0165542D01*
X0039333Y0165457D01*
X0039157Y0165377D01*
X0038979Y0165300D01*
X0038800Y0165229D01*
X0038619Y0165161D01*
X0038436Y0165098D01*
X0038252Y0165040D01*
X0038066Y0164986D01*
X0037879Y0164937D01*
X0037691Y0164892D01*
X0037502Y0164852D01*
X0037312Y0164817D01*
X0037121Y0164786D01*
X0036930Y0164760D01*
X0036738Y0164739D01*
X0036545Y0164722D01*
X0036352Y0164710D01*
X0036159Y0164703D01*
X0035966Y0164701D01*
X0035773Y0164703D01*
X0035580Y0164710D01*
X0035387Y0164722D01*
X0035194Y0164739D01*
X0035002Y0164760D01*
X0034811Y0164786D01*
X0034620Y0164817D01*
X0034430Y0164852D01*
X0034241Y0164892D01*
X0034053Y0164937D01*
X0033866Y0164986D01*
X0033680Y0165040D01*
X0033496Y0165098D01*
X0033313Y0165161D01*
X0033132Y0165229D01*
X0032953Y0165300D01*
X0032775Y0165377D01*
X0032599Y0165457D01*
X0032426Y0165542D01*
X0032254Y0165631D01*
X0032085Y0165724D01*
X0031918Y0165821D01*
X0031753Y0165923D01*
X0031591Y0166028D01*
X0031432Y0166137D01*
X0031275Y0166251D01*
X0031122Y0166368D01*
X0030971Y0166488D01*
X0030823Y0166613D01*
X0030678Y0166741D01*
X0030537Y0166872D01*
X0030398Y0167007D01*
X0030263Y0167146D01*
X0030132Y0167287D01*
X0030004Y0167432D01*
X0029879Y0167580D01*
X0029759Y0167731D01*
X0029642Y0167884D01*
X0029528Y0168041D01*
X0029419Y0168200D01*
X0029314Y0168362D01*
X0029212Y0168527D01*
X0029115Y0168694D01*
X0029022Y0168863D01*
X0028933Y0169035D01*
X0028848Y0169208D01*
X0028768Y0169384D01*
X0028691Y0169562D01*
X0028620Y0169741D01*
X0028552Y0169922D01*
X0028489Y0170105D01*
X0028431Y0170289D01*
X0028377Y0170475D01*
X0028328Y0170662D01*
X0028283Y0170850D01*
X0028243Y0171039D01*
X0028208Y0171229D01*
X0028177Y0171420D01*
X0028151Y0171611D01*
X0028130Y0171803D01*
X0028113Y0171996D01*
X0028101Y0172189D01*
X0028094Y0172382D01*
X0028092Y0172575D01*
X0162344Y0046591D02*
X0162346Y0046784D01*
X0162353Y0046977D01*
X0162365Y0047170D01*
X0162382Y0047363D01*
X0162403Y0047555D01*
X0162429Y0047746D01*
X0162460Y0047937D01*
X0162495Y0048127D01*
X0162535Y0048316D01*
X0162580Y0048504D01*
X0162629Y0048691D01*
X0162683Y0048877D01*
X0162741Y0049061D01*
X0162804Y0049244D01*
X0162872Y0049425D01*
X0162943Y0049604D01*
X0163020Y0049782D01*
X0163100Y0049958D01*
X0163185Y0050131D01*
X0163274Y0050303D01*
X0163367Y0050472D01*
X0163464Y0050639D01*
X0163566Y0050804D01*
X0163671Y0050966D01*
X0163780Y0051125D01*
X0163894Y0051282D01*
X0164011Y0051435D01*
X0164131Y0051586D01*
X0164256Y0051734D01*
X0164384Y0051879D01*
X0164515Y0052020D01*
X0164650Y0052159D01*
X0164789Y0052294D01*
X0164930Y0052425D01*
X0165075Y0052553D01*
X0165223Y0052678D01*
X0165374Y0052798D01*
X0165527Y0052915D01*
X0165684Y0053029D01*
X0165843Y0053138D01*
X0166005Y0053243D01*
X0166170Y0053345D01*
X0166337Y0053442D01*
X0166506Y0053535D01*
X0166678Y0053624D01*
X0166851Y0053709D01*
X0167027Y0053789D01*
X0167205Y0053866D01*
X0167384Y0053937D01*
X0167565Y0054005D01*
X0167748Y0054068D01*
X0167932Y0054126D01*
X0168118Y0054180D01*
X0168305Y0054229D01*
X0168493Y0054274D01*
X0168682Y0054314D01*
X0168872Y0054349D01*
X0169063Y0054380D01*
X0169254Y0054406D01*
X0169446Y0054427D01*
X0169639Y0054444D01*
X0169832Y0054456D01*
X0170025Y0054463D01*
X0170218Y0054465D01*
X0170411Y0054463D01*
X0170604Y0054456D01*
X0170797Y0054444D01*
X0170990Y0054427D01*
X0171182Y0054406D01*
X0171373Y0054380D01*
X0171564Y0054349D01*
X0171754Y0054314D01*
X0171943Y0054274D01*
X0172131Y0054229D01*
X0172318Y0054180D01*
X0172504Y0054126D01*
X0172688Y0054068D01*
X0172871Y0054005D01*
X0173052Y0053937D01*
X0173231Y0053866D01*
X0173409Y0053789D01*
X0173585Y0053709D01*
X0173758Y0053624D01*
X0173930Y0053535D01*
X0174099Y0053442D01*
X0174266Y0053345D01*
X0174431Y0053243D01*
X0174593Y0053138D01*
X0174752Y0053029D01*
X0174909Y0052915D01*
X0175062Y0052798D01*
X0175213Y0052678D01*
X0175361Y0052553D01*
X0175506Y0052425D01*
X0175647Y0052294D01*
X0175786Y0052159D01*
X0175921Y0052020D01*
X0176052Y0051879D01*
X0176180Y0051734D01*
X0176305Y0051586D01*
X0176425Y0051435D01*
X0176542Y0051282D01*
X0176656Y0051125D01*
X0176765Y0050966D01*
X0176870Y0050804D01*
X0176972Y0050639D01*
X0177069Y0050472D01*
X0177162Y0050303D01*
X0177251Y0050131D01*
X0177336Y0049958D01*
X0177416Y0049782D01*
X0177493Y0049604D01*
X0177564Y0049425D01*
X0177632Y0049244D01*
X0177695Y0049061D01*
X0177753Y0048877D01*
X0177807Y0048691D01*
X0177856Y0048504D01*
X0177901Y0048316D01*
X0177941Y0048127D01*
X0177976Y0047937D01*
X0178007Y0047746D01*
X0178033Y0047555D01*
X0178054Y0047363D01*
X0178071Y0047170D01*
X0178083Y0046977D01*
X0178090Y0046784D01*
X0178092Y0046591D01*
X0178090Y0046398D01*
X0178083Y0046205D01*
X0178071Y0046012D01*
X0178054Y0045819D01*
X0178033Y0045627D01*
X0178007Y0045436D01*
X0177976Y0045245D01*
X0177941Y0045055D01*
X0177901Y0044866D01*
X0177856Y0044678D01*
X0177807Y0044491D01*
X0177753Y0044305D01*
X0177695Y0044121D01*
X0177632Y0043938D01*
X0177564Y0043757D01*
X0177493Y0043578D01*
X0177416Y0043400D01*
X0177336Y0043224D01*
X0177251Y0043051D01*
X0177162Y0042879D01*
X0177069Y0042710D01*
X0176972Y0042543D01*
X0176870Y0042378D01*
X0176765Y0042216D01*
X0176656Y0042057D01*
X0176542Y0041900D01*
X0176425Y0041747D01*
X0176305Y0041596D01*
X0176180Y0041448D01*
X0176052Y0041303D01*
X0175921Y0041162D01*
X0175786Y0041023D01*
X0175647Y0040888D01*
X0175506Y0040757D01*
X0175361Y0040629D01*
X0175213Y0040504D01*
X0175062Y0040384D01*
X0174909Y0040267D01*
X0174752Y0040153D01*
X0174593Y0040044D01*
X0174431Y0039939D01*
X0174266Y0039837D01*
X0174099Y0039740D01*
X0173930Y0039647D01*
X0173758Y0039558D01*
X0173585Y0039473D01*
X0173409Y0039393D01*
X0173231Y0039316D01*
X0173052Y0039245D01*
X0172871Y0039177D01*
X0172688Y0039114D01*
X0172504Y0039056D01*
X0172318Y0039002D01*
X0172131Y0038953D01*
X0171943Y0038908D01*
X0171754Y0038868D01*
X0171564Y0038833D01*
X0171373Y0038802D01*
X0171182Y0038776D01*
X0170990Y0038755D01*
X0170797Y0038738D01*
X0170604Y0038726D01*
X0170411Y0038719D01*
X0170218Y0038717D01*
X0170025Y0038719D01*
X0169832Y0038726D01*
X0169639Y0038738D01*
X0169446Y0038755D01*
X0169254Y0038776D01*
X0169063Y0038802D01*
X0168872Y0038833D01*
X0168682Y0038868D01*
X0168493Y0038908D01*
X0168305Y0038953D01*
X0168118Y0039002D01*
X0167932Y0039056D01*
X0167748Y0039114D01*
X0167565Y0039177D01*
X0167384Y0039245D01*
X0167205Y0039316D01*
X0167027Y0039393D01*
X0166851Y0039473D01*
X0166678Y0039558D01*
X0166506Y0039647D01*
X0166337Y0039740D01*
X0166170Y0039837D01*
X0166005Y0039939D01*
X0165843Y0040044D01*
X0165684Y0040153D01*
X0165527Y0040267D01*
X0165374Y0040384D01*
X0165223Y0040504D01*
X0165075Y0040629D01*
X0164930Y0040757D01*
X0164789Y0040888D01*
X0164650Y0041023D01*
X0164515Y0041162D01*
X0164384Y0041303D01*
X0164256Y0041448D01*
X0164131Y0041596D01*
X0164011Y0041747D01*
X0163894Y0041900D01*
X0163780Y0042057D01*
X0163671Y0042216D01*
X0163566Y0042378D01*
X0163464Y0042543D01*
X0163367Y0042710D01*
X0163274Y0042879D01*
X0163185Y0043051D01*
X0163100Y0043224D01*
X0163020Y0043400D01*
X0162943Y0043578D01*
X0162872Y0043757D01*
X0162804Y0043938D01*
X0162741Y0044121D01*
X0162683Y0044305D01*
X0162629Y0044491D01*
X0162580Y0044678D01*
X0162535Y0044866D01*
X0162495Y0045055D01*
X0162460Y0045245D01*
X0162429Y0045436D01*
X0162403Y0045627D01*
X0162382Y0045819D01*
X0162365Y0046012D01*
X0162353Y0046205D01*
X0162346Y0046398D01*
X0162344Y0046591D01*
D13*
X0157675Y0119200D02*
X0157675Y0123804D01*
X0155373Y0123804D01*
X0154605Y0123037D01*
X0154605Y0121502D01*
X0155373Y0120735D01*
X0157675Y0120735D01*
X0156140Y0120735D02*
X0154605Y0119200D01*
X0153071Y0121502D02*
X0150001Y0121502D01*
X0150769Y0119200D02*
X0150769Y0123804D01*
X0153071Y0121502D01*
X0152303Y0135200D02*
X0150769Y0135200D01*
X0150001Y0135967D01*
X0150001Y0136735D01*
X0150769Y0137502D01*
X0151536Y0137502D01*
X0150769Y0137502D02*
X0150001Y0138269D01*
X0150001Y0139037D01*
X0150769Y0139804D01*
X0152303Y0139804D01*
X0153071Y0139037D01*
X0154605Y0139037D02*
X0154605Y0137502D01*
X0155373Y0136735D01*
X0157675Y0136735D01*
X0157675Y0135200D02*
X0157675Y0139804D01*
X0155373Y0139804D01*
X0154605Y0139037D01*
X0156140Y0136735D02*
X0154605Y0135200D01*
X0153071Y0135967D02*
X0152303Y0135200D01*
X0130471Y0173992D02*
X0125867Y0173992D01*
X0127401Y0173992D02*
X0127401Y0176294D01*
X0128169Y0177061D01*
X0129703Y0177061D01*
X0130471Y0176294D01*
X0130471Y0173992D01*
X0127401Y0175527D02*
X0125867Y0177061D01*
X0126634Y0178596D02*
X0125867Y0179363D01*
X0125867Y0180898D01*
X0126634Y0181665D01*
X0128169Y0181665D01*
X0128936Y0180898D01*
X0128936Y0180131D01*
X0128169Y0178596D01*
X0130471Y0178596D01*
X0130471Y0181665D01*
X0115467Y0154804D02*
X0113165Y0154804D01*
X0112397Y0154037D01*
X0112397Y0152502D01*
X0113165Y0151735D01*
X0115467Y0151735D01*
X0113932Y0151735D02*
X0112397Y0150200D01*
X0110863Y0150967D02*
X0110863Y0152502D01*
X0108561Y0152502D01*
X0107793Y0151735D01*
X0107793Y0150967D01*
X0108561Y0150200D01*
X0110095Y0150200D01*
X0110863Y0150967D01*
X0110863Y0152502D02*
X0109328Y0154037D01*
X0107793Y0154804D01*
X0115467Y0154804D02*
X0115467Y0150200D01*
X0074471Y0182967D02*
X0073703Y0182200D01*
X0070634Y0182200D01*
X0069867Y0182967D01*
X0069867Y0184502D01*
X0070634Y0185269D01*
X0072169Y0186804D02*
X0072169Y0189873D01*
X0074471Y0189106D02*
X0072169Y0186804D01*
X0073703Y0185269D02*
X0074471Y0184502D01*
X0074471Y0182967D01*
X0074471Y0189106D02*
X0069867Y0189106D01*
X0059471Y0160665D02*
X0059471Y0157596D01*
X0057169Y0157596D01*
X0057936Y0159131D01*
X0057936Y0159898D01*
X0057169Y0160665D01*
X0055634Y0160665D01*
X0054867Y0159898D01*
X0054867Y0158363D01*
X0055634Y0157596D01*
X0055634Y0156061D02*
X0054867Y0155294D01*
X0054867Y0153759D01*
X0055634Y0152992D01*
X0058703Y0152992D01*
X0059471Y0153759D01*
X0059471Y0155294D01*
X0058703Y0156061D01*
D14*
X0082867Y0165201D02*
X0109068Y0165201D01*
X0110466Y0166598D01*
X0110466Y0192799D01*
X0082867Y0192799D01*
X0082867Y0165201D01*
X0110553Y0163700D02*
X0110555Y0163775D01*
X0110561Y0163849D01*
X0110571Y0163923D01*
X0110584Y0163996D01*
X0110602Y0164069D01*
X0110623Y0164140D01*
X0110648Y0164211D01*
X0110677Y0164280D01*
X0110710Y0164347D01*
X0110746Y0164412D01*
X0110785Y0164476D01*
X0110827Y0164537D01*
X0110873Y0164596D01*
X0110922Y0164653D01*
X0110974Y0164706D01*
X0111028Y0164757D01*
X0111085Y0164806D01*
X0111145Y0164850D01*
X0111207Y0164892D01*
X0111271Y0164931D01*
X0111337Y0164966D01*
X0111404Y0164997D01*
X0111474Y0165025D01*
X0111544Y0165049D01*
X0111616Y0165070D01*
X0111689Y0165086D01*
X0111762Y0165099D01*
X0111837Y0165108D01*
X0111911Y0165113D01*
X0111986Y0165114D01*
X0112060Y0165111D01*
X0112135Y0165104D01*
X0112208Y0165093D01*
X0112282Y0165079D01*
X0112354Y0165060D01*
X0112425Y0165038D01*
X0112495Y0165012D01*
X0112564Y0164982D01*
X0112630Y0164949D01*
X0112695Y0164912D01*
X0112758Y0164872D01*
X0112819Y0164828D01*
X0112877Y0164782D01*
X0112933Y0164732D01*
X0112986Y0164680D01*
X0113037Y0164625D01*
X0113084Y0164567D01*
X0113128Y0164507D01*
X0113169Y0164444D01*
X0113207Y0164380D01*
X0113241Y0164314D01*
X0113272Y0164245D01*
X0113299Y0164176D01*
X0113322Y0164105D01*
X0113341Y0164033D01*
X0113357Y0163960D01*
X0113369Y0163886D01*
X0113377Y0163812D01*
X0113381Y0163737D01*
X0113381Y0163663D01*
X0113377Y0163588D01*
X0113369Y0163514D01*
X0113357Y0163440D01*
X0113341Y0163367D01*
X0113322Y0163295D01*
X0113299Y0163224D01*
X0113272Y0163155D01*
X0113241Y0163086D01*
X0113207Y0163020D01*
X0113169Y0162956D01*
X0113128Y0162893D01*
X0113084Y0162833D01*
X0113037Y0162775D01*
X0112986Y0162720D01*
X0112933Y0162668D01*
X0112877Y0162618D01*
X0112819Y0162572D01*
X0112758Y0162528D01*
X0112695Y0162488D01*
X0112630Y0162451D01*
X0112564Y0162418D01*
X0112495Y0162388D01*
X0112425Y0162362D01*
X0112354Y0162340D01*
X0112282Y0162321D01*
X0112208Y0162307D01*
X0112135Y0162296D01*
X0112060Y0162289D01*
X0111986Y0162286D01*
X0111911Y0162287D01*
X0111837Y0162292D01*
X0111762Y0162301D01*
X0111689Y0162314D01*
X0111616Y0162330D01*
X0111544Y0162351D01*
X0111474Y0162375D01*
X0111404Y0162403D01*
X0111337Y0162434D01*
X0111271Y0162469D01*
X0111207Y0162508D01*
X0111145Y0162550D01*
X0111085Y0162594D01*
X0111028Y0162643D01*
X0110974Y0162694D01*
X0110922Y0162747D01*
X0110873Y0162804D01*
X0110827Y0162863D01*
X0110785Y0162924D01*
X0110746Y0162988D01*
X0110710Y0163053D01*
X0110677Y0163120D01*
X0110648Y0163189D01*
X0110623Y0163260D01*
X0110602Y0163331D01*
X0110584Y0163404D01*
X0110571Y0163477D01*
X0110561Y0163551D01*
X0110555Y0163625D01*
X0110553Y0163700D01*
D15*
X0194986Y0097500D02*
X0194986Y0092500D01*
M02*
