G04 EAGLE Gerber RS-274X export*
G75*
%MOMM*%
%FSLAX34Y34*%
%LPD*%
%INTop Silkscreen*%
%IPPOS*%
%AMOC8*
5,1,8,0,0,1.08239X$1,22.5*%
G01*
%ADD10C,0.050800*%
%ADD11C,0.076200*%
%ADD12C,0.203200*%
%ADD13C,0.025400*%
%ADD14C,0.127000*%
%ADD15C,0.152400*%
%ADD16R,0.863600X0.609600*%
%ADD17C,0.101600*%
%ADD18R,0.889000X1.270000*%
%ADD19C,0.177800*%
%ADD20C,0.015238*%
%ADD21C,0.304800*%
%ADD22C,0.254000*%
%ADD23R,0.425000X0.325000*%
%ADD24R,0.350000X0.350000*%

G36*
X414657Y483364D02*
X414657Y483364D01*
X414659Y483363D01*
X414702Y483383D01*
X414746Y483401D01*
X414746Y483403D01*
X414748Y483404D01*
X414781Y483489D01*
X414781Y486029D01*
X414780Y486031D01*
X414781Y486033D01*
X414761Y486076D01*
X414743Y486120D01*
X414741Y486120D01*
X414740Y486122D01*
X414655Y486155D01*
X410845Y486155D01*
X410843Y486154D01*
X410841Y486155D01*
X410798Y486135D01*
X410754Y486117D01*
X410754Y486115D01*
X410752Y486114D01*
X410719Y486029D01*
X410719Y483489D01*
X410720Y483487D01*
X410719Y483485D01*
X410739Y483442D01*
X410757Y483398D01*
X410759Y483398D01*
X410760Y483396D01*
X410845Y483363D01*
X414655Y483363D01*
X414657Y483364D01*
G37*
D10*
X447294Y440187D02*
X447294Y436458D01*
X449158Y434594D01*
X451023Y436458D01*
X451023Y440187D01*
X455703Y440187D02*
X456636Y439255D01*
X455703Y440187D02*
X453839Y440187D01*
X452907Y439255D01*
X452907Y435526D01*
X453839Y434594D01*
X455703Y434594D01*
X456636Y435526D01*
X461317Y440187D02*
X462249Y439255D01*
X461317Y440187D02*
X459452Y440187D01*
X458520Y439255D01*
X458520Y435526D01*
X459452Y434594D01*
X461317Y434594D01*
X462249Y435526D01*
X450090Y414787D02*
X451023Y413855D01*
X450090Y414787D02*
X448226Y414787D01*
X447294Y413855D01*
X447294Y410126D01*
X448226Y409194D01*
X450090Y409194D01*
X451023Y410126D01*
X451023Y411990D01*
X449158Y411990D01*
X452907Y409194D02*
X452907Y414787D01*
X456636Y409194D01*
X456636Y414787D01*
X458520Y414787D02*
X458520Y409194D01*
X461317Y409194D01*
X462249Y410126D01*
X462249Y413855D01*
X461317Y414787D01*
X458520Y414787D01*
X451090Y388927D02*
X452023Y387995D01*
X451090Y388927D02*
X449226Y388927D01*
X448294Y387995D01*
X448294Y387063D01*
X449226Y386130D01*
X451090Y386130D01*
X452023Y385198D01*
X452023Y384266D01*
X451090Y383334D01*
X449226Y383334D01*
X448294Y384266D01*
X453907Y383334D02*
X453907Y388927D01*
X453907Y383334D02*
X456703Y383334D01*
X457636Y384266D01*
X457636Y387995D01*
X456703Y388927D01*
X453907Y388927D01*
X459520Y387063D02*
X459520Y383334D01*
X459520Y387063D02*
X461384Y388927D01*
X463249Y387063D01*
X463249Y383334D01*
X463249Y386130D02*
X459520Y386130D01*
X451090Y363447D02*
X452023Y362515D01*
X451090Y363447D02*
X449226Y363447D01*
X448294Y362515D01*
X448294Y361583D01*
X449226Y360650D01*
X451090Y360650D01*
X452023Y359718D01*
X452023Y358786D01*
X451090Y357854D01*
X449226Y357854D01*
X448294Y358786D01*
X456703Y363447D02*
X457636Y362515D01*
X456703Y363447D02*
X454839Y363447D01*
X453907Y362515D01*
X453907Y358786D01*
X454839Y357854D01*
X456703Y357854D01*
X457636Y358786D01*
X459520Y357854D02*
X459520Y363447D01*
X459520Y357854D02*
X463249Y357854D01*
X452374Y338587D02*
X452374Y332994D01*
X452374Y338587D02*
X455170Y338587D01*
X456103Y337655D01*
X456103Y335790D01*
X455170Y334858D01*
X452374Y334858D01*
X454238Y334858D02*
X456103Y332994D01*
X461716Y332994D02*
X457987Y338587D01*
X461716Y338587D02*
X457987Y332994D01*
X454238Y313187D02*
X454238Y307594D01*
X452374Y313187D02*
X456103Y313187D01*
X457987Y313187D02*
X461716Y307594D01*
X457987Y307594D02*
X461716Y313187D01*
X485753Y203454D02*
X491346Y203454D01*
X487618Y205318D02*
X485753Y203454D01*
X487618Y205318D02*
X485753Y207183D01*
X491346Y207183D01*
X491346Y209067D02*
X491346Y210931D01*
X491346Y209999D02*
X485753Y209999D01*
X485753Y209067D02*
X485753Y210931D01*
X485753Y215606D02*
X486685Y216538D01*
X485753Y215606D02*
X485753Y213741D01*
X486685Y212809D01*
X487618Y212809D01*
X488550Y213741D01*
X488550Y215606D01*
X489482Y216538D01*
X490414Y216538D01*
X491346Y215606D01*
X491346Y213741D01*
X490414Y212809D01*
X485753Y219354D02*
X485753Y221219D01*
X485753Y219354D02*
X486685Y218422D01*
X490414Y218422D01*
X491346Y219354D01*
X491346Y221219D01*
X490414Y222151D01*
X486685Y222151D01*
X485753Y221219D01*
X485753Y234190D02*
X486685Y235123D01*
X485753Y234190D02*
X485753Y232326D01*
X486685Y231394D01*
X487618Y231394D01*
X488550Y232326D01*
X488550Y234190D01*
X489482Y235123D01*
X490414Y235123D01*
X491346Y234190D01*
X491346Y232326D01*
X490414Y231394D01*
X485753Y239803D02*
X486685Y240736D01*
X485753Y239803D02*
X485753Y237939D01*
X486685Y237007D01*
X490414Y237007D01*
X491346Y237939D01*
X491346Y239803D01*
X490414Y240736D01*
X491346Y242620D02*
X485753Y242620D01*
X489482Y242620D02*
X485753Y246349D01*
X488550Y243552D02*
X491346Y246349D01*
X491346Y252714D02*
X485753Y252714D01*
X485753Y255510D01*
X486685Y256443D01*
X488550Y256443D01*
X489482Y255510D01*
X489482Y252714D01*
X489482Y254578D02*
X491346Y256443D01*
X485753Y258327D02*
X485753Y262056D01*
X485753Y258327D02*
X491346Y258327D01*
X491346Y262056D01*
X488550Y260191D02*
X488550Y258327D01*
X485753Y266737D02*
X486685Y267669D01*
X485753Y266737D02*
X485753Y264872D01*
X486685Y263940D01*
X487618Y263940D01*
X488550Y264872D01*
X488550Y266737D01*
X489482Y267669D01*
X490414Y267669D01*
X491346Y266737D01*
X491346Y264872D01*
X490414Y263940D01*
X485753Y269553D02*
X485753Y273282D01*
X485753Y269553D02*
X491346Y269553D01*
X491346Y273282D01*
X488550Y271418D02*
X488550Y269553D01*
X491346Y277031D02*
X485753Y277031D01*
X485753Y278895D02*
X485753Y275166D01*
X422766Y231394D02*
X417173Y231394D01*
X419038Y233258D01*
X417173Y235123D01*
X422766Y235123D01*
X417173Y237939D02*
X417173Y239803D01*
X417173Y237939D02*
X418105Y237007D01*
X421834Y237007D01*
X422766Y237939D01*
X422766Y239803D01*
X421834Y240736D01*
X418105Y240736D01*
X417173Y239803D01*
X417173Y245417D02*
X418105Y246349D01*
X417173Y245417D02*
X417173Y243552D01*
X418105Y242620D01*
X419038Y242620D01*
X419970Y243552D01*
X419970Y245417D01*
X420902Y246349D01*
X421834Y246349D01*
X422766Y245417D01*
X422766Y243552D01*
X421834Y242620D01*
X422766Y248233D02*
X422766Y250098D01*
X422766Y249165D02*
X417173Y249165D01*
X417173Y248233D02*
X417173Y250098D01*
X417173Y259590D02*
X418105Y260523D01*
X417173Y259590D02*
X417173Y257726D01*
X418105Y256794D01*
X421834Y256794D01*
X422766Y257726D01*
X422766Y259590D01*
X421834Y260523D01*
X419970Y260523D01*
X419970Y258658D01*
X422766Y262407D02*
X417173Y262407D01*
X422766Y266136D01*
X417173Y266136D01*
X417173Y268020D02*
X422766Y268020D01*
X422766Y270817D01*
X421834Y271749D01*
X418105Y271749D01*
X417173Y270817D01*
X417173Y268020D01*
X417173Y205994D02*
X420902Y205994D01*
X422766Y207858D01*
X420902Y209723D01*
X417173Y209723D01*
X417173Y214403D02*
X418105Y215336D01*
X417173Y214403D02*
X417173Y212539D01*
X418105Y211607D01*
X421834Y211607D01*
X422766Y212539D01*
X422766Y214403D01*
X421834Y215336D01*
X417173Y220017D02*
X418105Y220949D01*
X417173Y220017D02*
X417173Y218152D01*
X418105Y217220D01*
X421834Y217220D01*
X422766Y218152D01*
X422766Y220017D01*
X421834Y220949D01*
D11*
X342351Y272161D02*
X342351Y281567D01*
X347054Y281567D01*
X348621Y279999D01*
X348621Y276864D01*
X347054Y275296D01*
X342351Y275296D01*
X345486Y275296D02*
X348621Y272161D01*
X351706Y278432D02*
X354841Y281567D01*
X354841Y272161D01*
X351706Y272161D02*
X357977Y272161D01*
X355981Y315341D02*
X355981Y324747D01*
X360684Y324747D01*
X362252Y323179D01*
X362252Y320044D01*
X360684Y318476D01*
X355981Y318476D01*
X359116Y318476D02*
X362252Y315341D01*
X365336Y315341D02*
X371607Y315341D01*
X365336Y315341D02*
X371607Y321612D01*
X371607Y323179D01*
X370039Y324747D01*
X366904Y324747D01*
X365336Y323179D01*
X35661Y343339D02*
X34094Y344907D01*
X30958Y344907D01*
X29391Y343339D01*
X29391Y337069D01*
X30958Y335501D01*
X34094Y335501D01*
X35661Y337069D01*
X38746Y335501D02*
X45017Y335501D01*
X38746Y335501D02*
X45017Y341772D01*
X45017Y343339D01*
X43449Y344907D01*
X40313Y344907D01*
X38746Y343339D01*
X34221Y419079D02*
X32654Y420647D01*
X29518Y420647D01*
X27951Y419079D01*
X27951Y412809D01*
X29518Y411241D01*
X32654Y411241D01*
X34221Y412809D01*
X37306Y417512D02*
X40441Y420647D01*
X40441Y411241D01*
X37306Y411241D02*
X43577Y411241D01*
X279773Y421644D02*
X281341Y423212D01*
X279773Y421644D02*
X279773Y418509D01*
X281341Y416941D01*
X287611Y416941D01*
X289179Y418509D01*
X289179Y421644D01*
X287611Y423212D01*
X281341Y426296D02*
X279773Y427864D01*
X279773Y430999D01*
X281341Y432567D01*
X282908Y432567D01*
X284476Y430999D01*
X284476Y429432D01*
X284476Y430999D02*
X286044Y432567D01*
X287611Y432567D01*
X289179Y430999D01*
X289179Y427864D01*
X287611Y426296D01*
X44561Y438396D02*
X44561Y444667D01*
X44561Y438396D02*
X47696Y435261D01*
X50832Y438396D01*
X50832Y444667D01*
X53916Y435261D02*
X57052Y435261D01*
X55484Y435261D02*
X55484Y444667D01*
X53916Y444667D02*
X57052Y444667D01*
X60153Y444667D02*
X60153Y435261D01*
X66424Y435261D02*
X60153Y444667D01*
X66424Y444667D02*
X66424Y435261D01*
X50832Y489499D02*
X49264Y491067D01*
X46129Y491067D01*
X44561Y489499D01*
X44561Y483229D01*
X46129Y481661D01*
X49264Y481661D01*
X50832Y483229D01*
X50832Y486364D01*
X47696Y486364D01*
X53916Y481661D02*
X53916Y491067D01*
X60187Y481661D01*
X60187Y491067D01*
X63271Y491067D02*
X63271Y481661D01*
X67974Y481661D01*
X69542Y483229D01*
X69542Y489499D01*
X67974Y491067D01*
X63271Y491067D01*
X180721Y250387D02*
X180721Y244116D01*
X183856Y240981D01*
X186992Y244116D01*
X186992Y250387D01*
X190076Y240981D02*
X193212Y240981D01*
X191644Y240981D02*
X191644Y250387D01*
X190076Y250387D02*
X193212Y250387D01*
X196313Y250387D02*
X196313Y240981D01*
X202584Y240981D02*
X196313Y250387D01*
X202584Y250387D02*
X202584Y240981D01*
X217472Y291999D02*
X215904Y293567D01*
X212769Y293567D01*
X211201Y291999D01*
X211201Y285729D01*
X212769Y284161D01*
X215904Y284161D01*
X217472Y285729D01*
X217472Y288864D01*
X214336Y288864D01*
X220556Y284161D02*
X220556Y293567D01*
X226827Y284161D01*
X226827Y293567D01*
X229911Y293567D02*
X229911Y284161D01*
X234614Y284161D01*
X236182Y285729D01*
X236182Y291999D01*
X234614Y293567D01*
X229911Y293567D01*
X178181Y330476D02*
X178181Y336747D01*
X178181Y330476D02*
X181316Y327341D01*
X184452Y330476D01*
X184452Y336747D01*
X192239Y336747D02*
X193807Y335179D01*
X192239Y336747D02*
X189104Y336747D01*
X187536Y335179D01*
X187536Y328909D01*
X189104Y327341D01*
X192239Y327341D01*
X193807Y328909D01*
X201594Y336747D02*
X203162Y335179D01*
X201594Y336747D02*
X198459Y336747D01*
X196891Y335179D01*
X196891Y328909D01*
X198459Y327341D01*
X201594Y327341D01*
X203162Y328909D01*
X267073Y286471D02*
X276479Y286471D01*
X267073Y286471D02*
X267073Y291174D01*
X268641Y292741D01*
X271776Y292741D01*
X273344Y291174D01*
X273344Y286471D01*
X273344Y289606D02*
X276479Y292741D01*
X267073Y295826D02*
X267073Y302097D01*
X268641Y302097D01*
X274911Y295826D01*
X276479Y295826D01*
X90946Y432021D02*
X90946Y441427D01*
X87811Y441427D02*
X94081Y441427D01*
X97166Y438292D02*
X100301Y441427D01*
X100301Y432021D01*
X97166Y432021D02*
X103437Y432021D01*
X396613Y142621D02*
X406019Y142621D01*
X396613Y142621D02*
X396613Y147324D01*
X398181Y148892D01*
X401316Y148892D01*
X402884Y147324D01*
X402884Y142621D01*
X402884Y145756D02*
X406019Y148892D01*
X398181Y151976D02*
X396613Y153544D01*
X396613Y156679D01*
X398181Y158247D01*
X399748Y158247D01*
X401316Y156679D01*
X402884Y158247D01*
X404451Y158247D01*
X406019Y156679D01*
X406019Y153544D01*
X404451Y151976D01*
X402884Y151976D01*
X401316Y153544D01*
X399748Y151976D01*
X398181Y151976D01*
X401316Y153544D02*
X401316Y156679D01*
X390603Y65667D02*
X390603Y56261D01*
X393738Y65667D02*
X387467Y65667D01*
X396823Y56261D02*
X399958Y56261D01*
X398390Y56261D02*
X398390Y65667D01*
X396823Y65667D02*
X399958Y65667D01*
X403059Y65667D02*
X403059Y56261D01*
X406195Y62532D02*
X403059Y65667D01*
X406195Y62532D02*
X409330Y65667D01*
X409330Y56261D01*
X412415Y65667D02*
X418685Y65667D01*
X412415Y65667D02*
X412415Y56261D01*
X418685Y56261D01*
X415550Y60964D02*
X412415Y60964D01*
X431125Y56261D02*
X431125Y65667D01*
X434260Y62532D01*
X437396Y65667D01*
X437396Y56261D01*
X442048Y65667D02*
X445183Y65667D01*
X442048Y65667D02*
X440480Y64099D01*
X440480Y57829D01*
X442048Y56261D01*
X445183Y56261D01*
X446751Y57829D01*
X446751Y64099D01*
X445183Y65667D01*
X449835Y65667D02*
X449835Y56261D01*
X454538Y56261D01*
X456106Y57829D01*
X456106Y64099D01*
X454538Y65667D01*
X449835Y65667D01*
X459191Y65667D02*
X465461Y65667D01*
X459191Y65667D02*
X459191Y56261D01*
X465461Y56261D01*
X462326Y60964D02*
X459191Y60964D01*
X392170Y50427D02*
X389035Y50427D01*
X387467Y48859D01*
X387467Y42589D01*
X389035Y41021D01*
X392170Y41021D01*
X393738Y42589D01*
X393738Y48859D01*
X392170Y50427D01*
X396823Y50427D02*
X396823Y41021D01*
X403093Y41021D02*
X396823Y50427D01*
X403093Y50427D02*
X403093Y41021D01*
X392136Y178181D02*
X392136Y187587D01*
X389001Y187587D02*
X395272Y187587D01*
X398356Y178181D02*
X401492Y178181D01*
X399924Y178181D02*
X399924Y187587D01*
X398356Y187587D02*
X401492Y187587D01*
X404593Y187587D02*
X404593Y178181D01*
X407728Y184452D02*
X404593Y187587D01*
X407728Y184452D02*
X410864Y187587D01*
X410864Y178181D01*
X413948Y187587D02*
X420219Y187587D01*
X413948Y187587D02*
X413948Y178181D01*
X420219Y178181D01*
X417084Y182884D02*
X413948Y182884D01*
X432659Y178181D02*
X432659Y187587D01*
X435794Y184452D01*
X438929Y187587D01*
X438929Y178181D01*
X443581Y187587D02*
X446717Y187587D01*
X443581Y187587D02*
X442014Y186019D01*
X442014Y179749D01*
X443581Y178181D01*
X446717Y178181D01*
X448284Y179749D01*
X448284Y186019D01*
X446717Y187587D01*
X451369Y187587D02*
X451369Y178181D01*
X456072Y178181D01*
X457640Y179749D01*
X457640Y186019D01*
X456072Y187587D01*
X451369Y187587D01*
X460724Y187587D02*
X466995Y187587D01*
X460724Y187587D02*
X460724Y178181D01*
X466995Y178181D01*
X463859Y182884D02*
X460724Y182884D01*
X484137Y187587D02*
X485705Y186019D01*
X484137Y187587D02*
X481002Y187587D01*
X479434Y186019D01*
X479434Y184452D01*
X481002Y182884D01*
X484137Y182884D01*
X485705Y181316D01*
X485705Y179749D01*
X484137Y178181D01*
X481002Y178181D01*
X479434Y179749D01*
X488790Y178181D02*
X488790Y187587D01*
X491925Y181316D02*
X488790Y178181D01*
X491925Y181316D02*
X495060Y178181D01*
X495060Y187587D01*
D12*
X91280Y229800D02*
X40480Y229800D01*
X91280Y229800D02*
X91280Y222180D01*
X91280Y214560D01*
X40480Y214560D01*
X40480Y222180D01*
X40480Y229800D01*
X91280Y222180D02*
X93820Y222180D01*
X40480Y222180D02*
X37940Y222180D01*
X84930Y228530D02*
X84930Y215830D01*
D13*
X40607Y235007D02*
X40607Y238820D01*
X40607Y235007D02*
X42514Y235007D01*
X43149Y235643D01*
X43149Y238185D01*
X42514Y238820D01*
X40607Y238820D01*
X44349Y237549D02*
X45620Y238820D01*
X45620Y235007D01*
X44349Y235007D02*
X46891Y235007D01*
D11*
X48398Y224853D02*
X45941Y222396D01*
X48398Y224853D02*
X48398Y217481D01*
X45941Y217481D02*
X50856Y217481D01*
X53425Y217481D02*
X53425Y224853D01*
X58340Y217481D01*
X58340Y224853D01*
X64595Y224853D02*
X64595Y217481D01*
X60909Y221167D02*
X64595Y224853D01*
X65824Y221167D02*
X60909Y221167D01*
X68393Y222396D02*
X70851Y224853D01*
X70851Y217481D01*
X73308Y217481D02*
X68393Y217481D01*
X79564Y217481D02*
X79564Y224853D01*
X75878Y221167D01*
X80792Y221167D01*
X83362Y223625D02*
X84590Y224853D01*
X87048Y224853D01*
X88277Y223625D01*
X88277Y222396D01*
X87048Y221167D01*
X88277Y219938D01*
X88277Y218710D01*
X87048Y217481D01*
X84590Y217481D01*
X83362Y218710D01*
X83362Y219938D01*
X84590Y221167D01*
X83362Y222396D01*
X83362Y223625D01*
X84590Y221167D02*
X87048Y221167D01*
D14*
X76530Y445230D02*
X118430Y445230D01*
X121610Y473099D02*
X121327Y473682D01*
X121029Y474259D01*
X120718Y474828D01*
X120393Y475389D01*
X120054Y475942D01*
X119702Y476487D01*
X119337Y477023D01*
X118959Y477550D01*
X118568Y478067D01*
X118165Y478575D01*
X117749Y479073D01*
X117322Y479561D01*
X116883Y480038D01*
X116432Y480505D01*
X115970Y480960D01*
X115497Y481404D01*
X115014Y481836D01*
X114520Y482257D01*
X114016Y482665D01*
X113502Y483061D01*
X112979Y483444D01*
X112447Y483815D01*
X111906Y484172D01*
X111356Y484516D01*
X110798Y484847D01*
X110232Y485164D01*
X109659Y485467D01*
X109078Y485756D01*
X108491Y486031D01*
X107897Y486292D01*
X107297Y486538D01*
X106691Y486769D01*
X106079Y486986D01*
X105463Y487187D01*
X104842Y487374D01*
X104216Y487545D01*
X103587Y487701D01*
X102954Y487842D01*
X102317Y487968D01*
X101678Y488077D01*
X101037Y488172D01*
X100393Y488250D01*
X99747Y488313D01*
X99100Y488361D01*
X98453Y488392D01*
X97804Y488408D01*
X97156Y488408D01*
X96507Y488392D01*
X95860Y488361D01*
X95213Y488313D01*
X94567Y488250D01*
X93923Y488172D01*
X93282Y488077D01*
X92643Y487968D01*
X92006Y487842D01*
X91373Y487701D01*
X90744Y487545D01*
X90118Y487374D01*
X89497Y487187D01*
X88881Y486986D01*
X88269Y486769D01*
X87663Y486538D01*
X87063Y486292D01*
X86469Y486031D01*
X85882Y485756D01*
X85301Y485467D01*
X84728Y485164D01*
X84162Y484847D01*
X83604Y484516D01*
X83054Y484172D01*
X82513Y483815D01*
X81981Y483444D01*
X81458Y483061D01*
X80944Y482665D01*
X80440Y482257D01*
X79946Y481836D01*
X79463Y481404D01*
X78990Y480960D01*
X78528Y480505D01*
X78077Y480038D01*
X77638Y479561D01*
X77211Y479073D01*
X76795Y478575D01*
X76392Y478067D01*
X76001Y477550D01*
X75623Y477023D01*
X75258Y476487D01*
X74906Y475942D01*
X74567Y475389D01*
X74242Y474828D01*
X73931Y474259D01*
X73633Y473682D01*
X73350Y473099D01*
X73345Y450381D02*
X73610Y449835D01*
X73887Y449295D01*
X74176Y448762D01*
X74478Y448235D01*
X74791Y447715D01*
X75116Y447202D01*
X75453Y446697D01*
X75801Y446200D01*
X76160Y445711D01*
X76530Y445230D01*
X83440Y460470D02*
X86120Y460470D01*
X108840Y460470D02*
X111520Y460470D01*
X121727Y450622D02*
X121456Y450049D01*
X121171Y449483D01*
X120874Y448924D01*
X120563Y448372D01*
X120238Y447828D01*
X119902Y447292D01*
X119552Y446763D01*
X119190Y446243D01*
X118816Y445732D01*
X118430Y445230D01*
X76528Y492855D02*
X76528Y504295D01*
X72715Y504295D02*
X80342Y504295D01*
X84409Y500482D02*
X88222Y504295D01*
X88222Y492855D01*
X84409Y492855D02*
X92035Y492855D01*
D15*
X379490Y265830D02*
X379590Y265832D01*
X379689Y265838D01*
X379789Y265848D01*
X379887Y265861D01*
X379986Y265879D01*
X380083Y265900D01*
X380179Y265925D01*
X380275Y265954D01*
X380369Y265987D01*
X380462Y266023D01*
X380553Y266063D01*
X380643Y266107D01*
X380731Y266154D01*
X380817Y266204D01*
X380901Y266258D01*
X380983Y266315D01*
X381062Y266375D01*
X381140Y266439D01*
X381214Y266505D01*
X381286Y266574D01*
X381355Y266646D01*
X381421Y266720D01*
X381485Y266798D01*
X381545Y266877D01*
X381602Y266959D01*
X381656Y267043D01*
X381706Y267129D01*
X381753Y267217D01*
X381797Y267307D01*
X381837Y267398D01*
X381873Y267491D01*
X381906Y267585D01*
X381935Y267681D01*
X381960Y267777D01*
X381981Y267874D01*
X381999Y267973D01*
X382012Y268071D01*
X382022Y268171D01*
X382028Y268270D01*
X382030Y268370D01*
X382030Y286150D02*
X382028Y286250D01*
X382022Y286349D01*
X382012Y286449D01*
X381999Y286547D01*
X381981Y286646D01*
X381960Y286743D01*
X381935Y286839D01*
X381906Y286935D01*
X381873Y287029D01*
X381837Y287122D01*
X381797Y287213D01*
X381753Y287303D01*
X381706Y287391D01*
X381656Y287477D01*
X381602Y287561D01*
X381545Y287643D01*
X381485Y287722D01*
X381421Y287800D01*
X381355Y287874D01*
X381286Y287946D01*
X381214Y288015D01*
X381140Y288081D01*
X381062Y288145D01*
X380983Y288205D01*
X380901Y288262D01*
X380817Y288316D01*
X380731Y288366D01*
X380643Y288413D01*
X380553Y288457D01*
X380462Y288497D01*
X380369Y288533D01*
X380275Y288566D01*
X380179Y288595D01*
X380083Y288620D01*
X379986Y288641D01*
X379887Y288659D01*
X379789Y288672D01*
X379689Y288682D01*
X379590Y288688D01*
X379490Y288690D01*
X321070Y288690D02*
X320970Y288688D01*
X320871Y288682D01*
X320771Y288672D01*
X320673Y288659D01*
X320574Y288641D01*
X320477Y288620D01*
X320381Y288595D01*
X320285Y288566D01*
X320191Y288533D01*
X320098Y288497D01*
X320007Y288457D01*
X319917Y288413D01*
X319829Y288366D01*
X319743Y288316D01*
X319659Y288262D01*
X319577Y288205D01*
X319498Y288145D01*
X319420Y288081D01*
X319346Y288015D01*
X319274Y287946D01*
X319205Y287874D01*
X319139Y287800D01*
X319075Y287722D01*
X319015Y287643D01*
X318958Y287561D01*
X318904Y287477D01*
X318854Y287391D01*
X318807Y287303D01*
X318763Y287213D01*
X318723Y287122D01*
X318687Y287029D01*
X318654Y286935D01*
X318625Y286839D01*
X318600Y286743D01*
X318579Y286646D01*
X318561Y286547D01*
X318548Y286449D01*
X318538Y286349D01*
X318532Y286250D01*
X318530Y286150D01*
X318530Y268370D02*
X318532Y268270D01*
X318538Y268171D01*
X318548Y268071D01*
X318561Y267973D01*
X318579Y267874D01*
X318600Y267777D01*
X318625Y267681D01*
X318654Y267585D01*
X318687Y267491D01*
X318723Y267398D01*
X318763Y267307D01*
X318807Y267217D01*
X318854Y267129D01*
X318904Y267043D01*
X318958Y266959D01*
X319015Y266877D01*
X319075Y266798D01*
X319139Y266720D01*
X319205Y266646D01*
X319274Y266574D01*
X319346Y266505D01*
X319420Y266439D01*
X319498Y266375D01*
X319577Y266315D01*
X319659Y266258D01*
X319743Y266204D01*
X319829Y266154D01*
X319917Y266107D01*
X320007Y266063D01*
X320098Y266023D01*
X320191Y265987D01*
X320285Y265954D01*
X320381Y265925D01*
X320477Y265900D01*
X320574Y265879D01*
X320673Y265861D01*
X320771Y265848D01*
X320871Y265838D01*
X320970Y265832D01*
X321070Y265830D01*
X382030Y268370D02*
X382030Y286150D01*
X379490Y265830D02*
X375680Y265830D01*
X374410Y267100D01*
X375680Y288690D02*
X379490Y288690D01*
X375680Y288690D02*
X374410Y287420D01*
X326150Y267100D02*
X324880Y265830D01*
X326150Y267100D02*
X374410Y267100D01*
X326150Y287420D02*
X324880Y288690D01*
X326150Y287420D02*
X374410Y287420D01*
X324880Y265830D02*
X321070Y265830D01*
X321070Y288690D02*
X324880Y288690D01*
X318530Y286150D02*
X318530Y268370D01*
D16*
X314212Y277260D03*
X386348Y277260D03*
D14*
X358007Y261395D02*
X358007Y249955D01*
X358007Y261395D02*
X363727Y261395D01*
X365634Y259488D01*
X365634Y255675D01*
X363727Y253768D01*
X358007Y253768D01*
X361820Y253768D02*
X365634Y249955D01*
X369701Y257582D02*
X373514Y261395D01*
X373514Y249955D01*
X369701Y249955D02*
X377328Y249955D01*
D15*
X404100Y304400D02*
X404200Y304402D01*
X404299Y304408D01*
X404399Y304418D01*
X404497Y304431D01*
X404596Y304449D01*
X404693Y304470D01*
X404789Y304495D01*
X404885Y304524D01*
X404979Y304557D01*
X405072Y304593D01*
X405163Y304633D01*
X405253Y304677D01*
X405341Y304724D01*
X405427Y304774D01*
X405511Y304828D01*
X405593Y304885D01*
X405672Y304945D01*
X405750Y305009D01*
X405824Y305075D01*
X405896Y305144D01*
X405965Y305216D01*
X406031Y305290D01*
X406095Y305368D01*
X406155Y305447D01*
X406212Y305529D01*
X406266Y305613D01*
X406316Y305699D01*
X406363Y305787D01*
X406407Y305877D01*
X406447Y305968D01*
X406483Y306061D01*
X406516Y306155D01*
X406545Y306251D01*
X406570Y306347D01*
X406591Y306444D01*
X406609Y306543D01*
X406622Y306641D01*
X406632Y306741D01*
X406638Y306840D01*
X406640Y306940D01*
X406640Y332340D02*
X406638Y332440D01*
X406632Y332539D01*
X406622Y332639D01*
X406609Y332737D01*
X406591Y332836D01*
X406570Y332933D01*
X406545Y333029D01*
X406516Y333125D01*
X406483Y333219D01*
X406447Y333312D01*
X406407Y333403D01*
X406363Y333493D01*
X406316Y333581D01*
X406266Y333667D01*
X406212Y333751D01*
X406155Y333833D01*
X406095Y333912D01*
X406031Y333990D01*
X405965Y334064D01*
X405896Y334136D01*
X405824Y334205D01*
X405750Y334271D01*
X405672Y334335D01*
X405593Y334395D01*
X405511Y334452D01*
X405427Y334506D01*
X405341Y334556D01*
X405253Y334603D01*
X405163Y334647D01*
X405072Y334687D01*
X404979Y334723D01*
X404885Y334756D01*
X404789Y334785D01*
X404693Y334810D01*
X404596Y334831D01*
X404497Y334849D01*
X404399Y334862D01*
X404299Y334872D01*
X404200Y334878D01*
X404100Y334880D01*
X322820Y334880D02*
X322720Y334878D01*
X322621Y334872D01*
X322521Y334862D01*
X322423Y334849D01*
X322324Y334831D01*
X322227Y334810D01*
X322131Y334785D01*
X322035Y334756D01*
X321941Y334723D01*
X321848Y334687D01*
X321757Y334647D01*
X321667Y334603D01*
X321579Y334556D01*
X321493Y334506D01*
X321409Y334452D01*
X321327Y334395D01*
X321248Y334335D01*
X321170Y334271D01*
X321096Y334205D01*
X321024Y334136D01*
X320955Y334064D01*
X320889Y333990D01*
X320825Y333912D01*
X320765Y333833D01*
X320708Y333751D01*
X320654Y333667D01*
X320604Y333581D01*
X320557Y333493D01*
X320513Y333403D01*
X320473Y333312D01*
X320437Y333219D01*
X320404Y333125D01*
X320375Y333029D01*
X320350Y332933D01*
X320329Y332836D01*
X320311Y332737D01*
X320298Y332639D01*
X320288Y332539D01*
X320282Y332440D01*
X320280Y332340D01*
X320280Y306940D02*
X320282Y306840D01*
X320288Y306741D01*
X320298Y306641D01*
X320311Y306543D01*
X320329Y306444D01*
X320350Y306347D01*
X320375Y306251D01*
X320404Y306155D01*
X320437Y306061D01*
X320473Y305968D01*
X320513Y305877D01*
X320557Y305787D01*
X320604Y305699D01*
X320654Y305613D01*
X320708Y305529D01*
X320765Y305447D01*
X320825Y305368D01*
X320889Y305290D01*
X320955Y305216D01*
X321024Y305144D01*
X321096Y305075D01*
X321170Y305009D01*
X321248Y304945D01*
X321327Y304885D01*
X321409Y304828D01*
X321493Y304774D01*
X321579Y304724D01*
X321667Y304677D01*
X321757Y304633D01*
X321848Y304593D01*
X321941Y304557D01*
X322035Y304524D01*
X322131Y304495D01*
X322227Y304470D01*
X322324Y304449D01*
X322423Y304431D01*
X322521Y304418D01*
X322621Y304408D01*
X322720Y304402D01*
X322820Y304400D01*
X406640Y306940D02*
X406640Y332340D01*
X404100Y304400D02*
X397750Y304400D01*
X396480Y305670D01*
X397750Y334880D02*
X404100Y334880D01*
X397750Y334880D02*
X396480Y333610D01*
X330440Y305670D02*
X329170Y304400D01*
X330440Y305670D02*
X396480Y305670D01*
X330440Y333610D02*
X329170Y334880D01*
X330440Y333610D02*
X396480Y333610D01*
X329170Y304400D02*
X322820Y304400D01*
X322820Y334880D02*
X329170Y334880D01*
X320280Y332340D02*
X320280Y306940D01*
D16*
X315962Y319640D03*
X410958Y319640D03*
D14*
X382617Y299965D02*
X382617Y288525D01*
X382617Y299965D02*
X388337Y299965D01*
X390244Y298058D01*
X390244Y294245D01*
X388337Y292338D01*
X382617Y292338D01*
X386430Y292338D02*
X390244Y288525D01*
X394311Y288525D02*
X401938Y288525D01*
X394311Y288525D02*
X401938Y296152D01*
X401938Y298058D01*
X400031Y299965D01*
X396218Y299965D01*
X394311Y298058D01*
D15*
X133750Y1270D02*
X33930Y1270D01*
X133750Y91190D02*
X133750Y93220D01*
X33930Y93220D01*
X33930Y25150D02*
X33930Y1270D01*
X33930Y25150D02*
X49930Y25150D01*
X67710Y25150D02*
X99970Y25150D01*
X117750Y25150D02*
X133750Y25150D01*
X33930Y25150D02*
X33930Y91190D01*
X133750Y25150D02*
X133750Y1270D01*
X133750Y91190D02*
X33930Y91190D01*
X33930Y93220D01*
X133750Y91190D02*
X133750Y25150D01*
X53740Y77978D02*
X53742Y78120D01*
X53748Y78263D01*
X53758Y78405D01*
X53772Y78547D01*
X53790Y78688D01*
X53812Y78829D01*
X53838Y78969D01*
X53867Y79108D01*
X53901Y79247D01*
X53939Y79384D01*
X53980Y79521D01*
X54025Y79656D01*
X54074Y79790D01*
X54127Y79922D01*
X54183Y80053D01*
X54243Y80182D01*
X54307Y80310D01*
X54374Y80435D01*
X54445Y80559D01*
X54519Y80681D01*
X54596Y80800D01*
X54677Y80918D01*
X54761Y81033D01*
X54848Y81145D01*
X54939Y81255D01*
X55032Y81363D01*
X55129Y81468D01*
X55228Y81570D01*
X55330Y81669D01*
X55435Y81766D01*
X55543Y81859D01*
X55653Y81950D01*
X55765Y82037D01*
X55880Y82121D01*
X55998Y82202D01*
X56117Y82279D01*
X56239Y82353D01*
X56363Y82424D01*
X56488Y82491D01*
X56616Y82555D01*
X56745Y82615D01*
X56876Y82671D01*
X57008Y82724D01*
X57142Y82773D01*
X57277Y82818D01*
X57414Y82859D01*
X57551Y82897D01*
X57690Y82931D01*
X57829Y82960D01*
X57969Y82986D01*
X58110Y83008D01*
X58251Y83026D01*
X58393Y83040D01*
X58535Y83050D01*
X58678Y83056D01*
X58820Y83058D01*
X58962Y83056D01*
X59105Y83050D01*
X59247Y83040D01*
X59389Y83026D01*
X59530Y83008D01*
X59671Y82986D01*
X59811Y82960D01*
X59950Y82931D01*
X60089Y82897D01*
X60226Y82859D01*
X60363Y82818D01*
X60498Y82773D01*
X60632Y82724D01*
X60764Y82671D01*
X60895Y82615D01*
X61024Y82555D01*
X61152Y82491D01*
X61277Y82424D01*
X61401Y82353D01*
X61523Y82279D01*
X61642Y82202D01*
X61760Y82121D01*
X61875Y82037D01*
X61987Y81950D01*
X62097Y81859D01*
X62205Y81766D01*
X62310Y81669D01*
X62412Y81570D01*
X62511Y81468D01*
X62608Y81363D01*
X62701Y81255D01*
X62792Y81145D01*
X62879Y81033D01*
X62963Y80918D01*
X63044Y80800D01*
X63121Y80681D01*
X63195Y80559D01*
X63266Y80435D01*
X63333Y80310D01*
X63397Y80182D01*
X63457Y80053D01*
X63513Y79922D01*
X63566Y79790D01*
X63615Y79656D01*
X63660Y79521D01*
X63701Y79384D01*
X63739Y79247D01*
X63773Y79108D01*
X63802Y78969D01*
X63828Y78829D01*
X63850Y78688D01*
X63868Y78547D01*
X63882Y78405D01*
X63892Y78263D01*
X63898Y78120D01*
X63900Y77978D01*
X63898Y77836D01*
X63892Y77693D01*
X63882Y77551D01*
X63868Y77409D01*
X63850Y77268D01*
X63828Y77127D01*
X63802Y76987D01*
X63773Y76848D01*
X63739Y76709D01*
X63701Y76572D01*
X63660Y76435D01*
X63615Y76300D01*
X63566Y76166D01*
X63513Y76034D01*
X63457Y75903D01*
X63397Y75774D01*
X63333Y75646D01*
X63266Y75521D01*
X63195Y75397D01*
X63121Y75275D01*
X63044Y75156D01*
X62963Y75038D01*
X62879Y74923D01*
X62792Y74811D01*
X62701Y74701D01*
X62608Y74593D01*
X62511Y74488D01*
X62412Y74386D01*
X62310Y74287D01*
X62205Y74190D01*
X62097Y74097D01*
X61987Y74006D01*
X61875Y73919D01*
X61760Y73835D01*
X61642Y73754D01*
X61523Y73677D01*
X61401Y73603D01*
X61277Y73532D01*
X61152Y73465D01*
X61024Y73401D01*
X60895Y73341D01*
X60764Y73285D01*
X60632Y73232D01*
X60498Y73183D01*
X60363Y73138D01*
X60226Y73097D01*
X60089Y73059D01*
X59950Y73025D01*
X59811Y72996D01*
X59671Y72970D01*
X59530Y72948D01*
X59389Y72930D01*
X59247Y72916D01*
X59105Y72906D01*
X58962Y72900D01*
X58820Y72898D01*
X58678Y72900D01*
X58535Y72906D01*
X58393Y72916D01*
X58251Y72930D01*
X58110Y72948D01*
X57969Y72970D01*
X57829Y72996D01*
X57690Y73025D01*
X57551Y73059D01*
X57414Y73097D01*
X57277Y73138D01*
X57142Y73183D01*
X57008Y73232D01*
X56876Y73285D01*
X56745Y73341D01*
X56616Y73401D01*
X56488Y73465D01*
X56363Y73532D01*
X56239Y73603D01*
X56117Y73677D01*
X55998Y73754D01*
X55880Y73835D01*
X55765Y73919D01*
X55653Y74006D01*
X55543Y74097D01*
X55435Y74190D01*
X55330Y74287D01*
X55228Y74386D01*
X55129Y74488D01*
X55032Y74593D01*
X54939Y74701D01*
X54848Y74811D01*
X54761Y74923D01*
X54677Y75038D01*
X54596Y75156D01*
X54519Y75275D01*
X54445Y75397D01*
X54374Y75521D01*
X54307Y75646D01*
X54243Y75774D01*
X54183Y75903D01*
X54127Y76034D01*
X54074Y76166D01*
X54025Y76300D01*
X53980Y76435D01*
X53939Y76572D01*
X53901Y76709D01*
X53867Y76848D01*
X53838Y76987D01*
X53812Y77127D01*
X53790Y77268D01*
X53772Y77409D01*
X53758Y77551D01*
X53748Y77693D01*
X53742Y77836D01*
X53740Y77978D01*
X103778Y77978D02*
X103780Y78120D01*
X103786Y78263D01*
X103796Y78405D01*
X103810Y78547D01*
X103828Y78688D01*
X103850Y78829D01*
X103876Y78969D01*
X103905Y79108D01*
X103939Y79247D01*
X103977Y79384D01*
X104018Y79521D01*
X104063Y79656D01*
X104112Y79790D01*
X104165Y79922D01*
X104221Y80053D01*
X104281Y80182D01*
X104345Y80310D01*
X104412Y80435D01*
X104483Y80559D01*
X104557Y80681D01*
X104634Y80800D01*
X104715Y80918D01*
X104799Y81033D01*
X104886Y81145D01*
X104977Y81255D01*
X105070Y81363D01*
X105167Y81468D01*
X105266Y81570D01*
X105368Y81669D01*
X105473Y81766D01*
X105581Y81859D01*
X105691Y81950D01*
X105803Y82037D01*
X105918Y82121D01*
X106036Y82202D01*
X106155Y82279D01*
X106277Y82353D01*
X106401Y82424D01*
X106526Y82491D01*
X106654Y82555D01*
X106783Y82615D01*
X106914Y82671D01*
X107046Y82724D01*
X107180Y82773D01*
X107315Y82818D01*
X107452Y82859D01*
X107589Y82897D01*
X107728Y82931D01*
X107867Y82960D01*
X108007Y82986D01*
X108148Y83008D01*
X108289Y83026D01*
X108431Y83040D01*
X108573Y83050D01*
X108716Y83056D01*
X108858Y83058D01*
X109000Y83056D01*
X109143Y83050D01*
X109285Y83040D01*
X109427Y83026D01*
X109568Y83008D01*
X109709Y82986D01*
X109849Y82960D01*
X109988Y82931D01*
X110127Y82897D01*
X110264Y82859D01*
X110401Y82818D01*
X110536Y82773D01*
X110670Y82724D01*
X110802Y82671D01*
X110933Y82615D01*
X111062Y82555D01*
X111190Y82491D01*
X111315Y82424D01*
X111439Y82353D01*
X111561Y82279D01*
X111680Y82202D01*
X111798Y82121D01*
X111913Y82037D01*
X112025Y81950D01*
X112135Y81859D01*
X112243Y81766D01*
X112348Y81669D01*
X112450Y81570D01*
X112549Y81468D01*
X112646Y81363D01*
X112739Y81255D01*
X112830Y81145D01*
X112917Y81033D01*
X113001Y80918D01*
X113082Y80800D01*
X113159Y80681D01*
X113233Y80559D01*
X113304Y80435D01*
X113371Y80310D01*
X113435Y80182D01*
X113495Y80053D01*
X113551Y79922D01*
X113604Y79790D01*
X113653Y79656D01*
X113698Y79521D01*
X113739Y79384D01*
X113777Y79247D01*
X113811Y79108D01*
X113840Y78969D01*
X113866Y78829D01*
X113888Y78688D01*
X113906Y78547D01*
X113920Y78405D01*
X113930Y78263D01*
X113936Y78120D01*
X113938Y77978D01*
X113936Y77836D01*
X113930Y77693D01*
X113920Y77551D01*
X113906Y77409D01*
X113888Y77268D01*
X113866Y77127D01*
X113840Y76987D01*
X113811Y76848D01*
X113777Y76709D01*
X113739Y76572D01*
X113698Y76435D01*
X113653Y76300D01*
X113604Y76166D01*
X113551Y76034D01*
X113495Y75903D01*
X113435Y75774D01*
X113371Y75646D01*
X113304Y75521D01*
X113233Y75397D01*
X113159Y75275D01*
X113082Y75156D01*
X113001Y75038D01*
X112917Y74923D01*
X112830Y74811D01*
X112739Y74701D01*
X112646Y74593D01*
X112549Y74488D01*
X112450Y74386D01*
X112348Y74287D01*
X112243Y74190D01*
X112135Y74097D01*
X112025Y74006D01*
X111913Y73919D01*
X111798Y73835D01*
X111680Y73754D01*
X111561Y73677D01*
X111439Y73603D01*
X111315Y73532D01*
X111190Y73465D01*
X111062Y73401D01*
X110933Y73341D01*
X110802Y73285D01*
X110670Y73232D01*
X110536Y73183D01*
X110401Y73138D01*
X110264Y73097D01*
X110127Y73059D01*
X109988Y73025D01*
X109849Y72996D01*
X109709Y72970D01*
X109568Y72948D01*
X109427Y72930D01*
X109285Y72916D01*
X109143Y72906D01*
X109000Y72900D01*
X108858Y72898D01*
X108716Y72900D01*
X108573Y72906D01*
X108431Y72916D01*
X108289Y72930D01*
X108148Y72948D01*
X108007Y72970D01*
X107867Y72996D01*
X107728Y73025D01*
X107589Y73059D01*
X107452Y73097D01*
X107315Y73138D01*
X107180Y73183D01*
X107046Y73232D01*
X106914Y73285D01*
X106783Y73341D01*
X106654Y73401D01*
X106526Y73465D01*
X106401Y73532D01*
X106277Y73603D01*
X106155Y73677D01*
X106036Y73754D01*
X105918Y73835D01*
X105803Y73919D01*
X105691Y74006D01*
X105581Y74097D01*
X105473Y74190D01*
X105368Y74287D01*
X105266Y74386D01*
X105167Y74488D01*
X105070Y74593D01*
X104977Y74701D01*
X104886Y74811D01*
X104799Y74923D01*
X104715Y75038D01*
X104634Y75156D01*
X104557Y75275D01*
X104483Y75397D01*
X104412Y75521D01*
X104345Y75646D01*
X104281Y75774D01*
X104221Y75903D01*
X104165Y76034D01*
X104112Y76166D01*
X104063Y76300D01*
X104018Y76435D01*
X103977Y76572D01*
X103939Y76709D01*
X103905Y76848D01*
X103876Y76987D01*
X103850Y77127D01*
X103828Y77268D01*
X103810Y77409D01*
X103796Y77551D01*
X103786Y77693D01*
X103780Y77836D01*
X103778Y77978D01*
D14*
X42948Y74305D02*
X39135Y70492D01*
X42948Y74305D02*
X42948Y62865D01*
X39135Y62865D02*
X46762Y62865D01*
X88665Y62865D02*
X96292Y62865D01*
X88665Y62865D02*
X96292Y70492D01*
X96292Y72398D01*
X94385Y74305D01*
X90572Y74305D01*
X88665Y72398D01*
X45993Y17917D02*
X45993Y6477D01*
X45993Y17917D02*
X51713Y17917D01*
X53620Y16010D01*
X53620Y12197D01*
X51713Y10290D01*
X45993Y10290D01*
X57687Y6477D02*
X57687Y17917D01*
X63407Y17917D01*
X65313Y16010D01*
X65313Y12197D01*
X63407Y10290D01*
X57687Y10290D01*
X16440Y107480D02*
X166440Y107480D01*
X166440Y207480D01*
X16440Y207480D01*
X16440Y107480D01*
X100965Y154305D02*
X100965Y157480D01*
X100965Y154305D02*
X107315Y151130D01*
X43815Y170180D02*
X43815Y176530D01*
X43815Y170180D02*
X43815Y163830D01*
X37465Y163830D01*
X37465Y170180D01*
X37465Y176530D01*
X43815Y176530D01*
X53340Y179705D02*
X53340Y170180D01*
X43815Y170180D01*
X37465Y170180D02*
X27940Y170180D01*
X27940Y179705D01*
X53340Y144780D02*
X53340Y135255D01*
X53340Y144780D02*
X100965Y144780D01*
X100965Y147955D01*
X100965Y157480D02*
X27940Y157480D01*
X27940Y135255D01*
X107315Y151130D02*
X154940Y151130D01*
X154940Y179705D01*
D17*
X15748Y224663D02*
X15748Y236357D01*
X21595Y236357D01*
X23544Y234408D01*
X23544Y230510D01*
X21595Y228561D01*
X15748Y228561D01*
X19646Y228561D02*
X23544Y224663D01*
X27442Y236357D02*
X35238Y236357D01*
X27442Y236357D02*
X27442Y224663D01*
X35238Y224663D01*
X31340Y230510D02*
X27442Y230510D01*
X39136Y232459D02*
X43034Y236357D01*
X43034Y224663D01*
X39136Y224663D02*
X46932Y224663D01*
D15*
X165100Y235650D02*
X165100Y339790D01*
X6350Y339790D02*
X6350Y235650D01*
X40640Y339790D02*
X165100Y339790D01*
X40640Y339790D02*
X40640Y330900D01*
X25400Y330900D01*
X25400Y339790D01*
X6350Y339790D01*
X40640Y235650D02*
X165100Y235650D01*
X40640Y235650D02*
X40640Y244540D01*
X25400Y244540D01*
X25400Y235650D01*
X6350Y235650D01*
D10*
X158750Y242000D02*
X158750Y333440D01*
X76200Y333440D01*
X76200Y242000D01*
X158750Y242000D01*
D15*
X22606Y287720D02*
X22611Y288163D01*
X22628Y288605D01*
X22655Y289047D01*
X22693Y289488D01*
X22742Y289928D01*
X22801Y290366D01*
X22872Y290803D01*
X22953Y291238D01*
X23044Y291671D01*
X23146Y292102D01*
X23259Y292530D01*
X23383Y292955D01*
X23516Y293377D01*
X23660Y293795D01*
X23814Y294210D01*
X23979Y294621D01*
X24153Y295028D01*
X24337Y295431D01*
X24532Y295828D01*
X24735Y296221D01*
X24949Y296609D01*
X25172Y296991D01*
X25404Y297368D01*
X25645Y297739D01*
X25896Y298104D01*
X26155Y298463D01*
X26423Y298815D01*
X26700Y299161D01*
X26984Y299499D01*
X27278Y299831D01*
X27579Y300155D01*
X27888Y300472D01*
X28205Y300781D01*
X28529Y301082D01*
X28861Y301376D01*
X29199Y301660D01*
X29545Y301937D01*
X29897Y302205D01*
X30256Y302464D01*
X30621Y302715D01*
X30992Y302956D01*
X31369Y303188D01*
X31751Y303411D01*
X32139Y303625D01*
X32532Y303828D01*
X32929Y304023D01*
X33332Y304207D01*
X33739Y304381D01*
X34150Y304546D01*
X34565Y304700D01*
X34983Y304844D01*
X35405Y304977D01*
X35830Y305101D01*
X36258Y305214D01*
X36689Y305316D01*
X37122Y305407D01*
X37557Y305488D01*
X37994Y305559D01*
X38432Y305618D01*
X38872Y305667D01*
X39313Y305705D01*
X39755Y305732D01*
X40197Y305749D01*
X40640Y305754D01*
X41083Y305749D01*
X41525Y305732D01*
X41967Y305705D01*
X42408Y305667D01*
X42848Y305618D01*
X43286Y305559D01*
X43723Y305488D01*
X44158Y305407D01*
X44591Y305316D01*
X45022Y305214D01*
X45450Y305101D01*
X45875Y304977D01*
X46297Y304844D01*
X46715Y304700D01*
X47130Y304546D01*
X47541Y304381D01*
X47948Y304207D01*
X48351Y304023D01*
X48748Y303828D01*
X49141Y303625D01*
X49529Y303411D01*
X49911Y303188D01*
X50288Y302956D01*
X50659Y302715D01*
X51024Y302464D01*
X51383Y302205D01*
X51735Y301937D01*
X52081Y301660D01*
X52419Y301376D01*
X52751Y301082D01*
X53075Y300781D01*
X53392Y300472D01*
X53701Y300155D01*
X54002Y299831D01*
X54296Y299499D01*
X54580Y299161D01*
X54857Y298815D01*
X55125Y298463D01*
X55384Y298104D01*
X55635Y297739D01*
X55876Y297368D01*
X56108Y296991D01*
X56331Y296609D01*
X56545Y296221D01*
X56748Y295828D01*
X56943Y295431D01*
X57127Y295028D01*
X57301Y294621D01*
X57466Y294210D01*
X57620Y293795D01*
X57764Y293377D01*
X57897Y292955D01*
X58021Y292530D01*
X58134Y292102D01*
X58236Y291671D01*
X58327Y291238D01*
X58408Y290803D01*
X58479Y290366D01*
X58538Y289928D01*
X58587Y289488D01*
X58625Y289047D01*
X58652Y288605D01*
X58669Y288163D01*
X58674Y287720D01*
X58669Y287277D01*
X58652Y286835D01*
X58625Y286393D01*
X58587Y285952D01*
X58538Y285512D01*
X58479Y285074D01*
X58408Y284637D01*
X58327Y284202D01*
X58236Y283769D01*
X58134Y283338D01*
X58021Y282910D01*
X57897Y282485D01*
X57764Y282063D01*
X57620Y281645D01*
X57466Y281230D01*
X57301Y280819D01*
X57127Y280412D01*
X56943Y280009D01*
X56748Y279612D01*
X56545Y279219D01*
X56331Y278831D01*
X56108Y278449D01*
X55876Y278072D01*
X55635Y277701D01*
X55384Y277336D01*
X55125Y276977D01*
X54857Y276625D01*
X54580Y276279D01*
X54296Y275941D01*
X54002Y275609D01*
X53701Y275285D01*
X53392Y274968D01*
X53075Y274659D01*
X52751Y274358D01*
X52419Y274064D01*
X52081Y273780D01*
X51735Y273503D01*
X51383Y273235D01*
X51024Y272976D01*
X50659Y272725D01*
X50288Y272484D01*
X49911Y272252D01*
X49529Y272029D01*
X49141Y271815D01*
X48748Y271612D01*
X48351Y271417D01*
X47948Y271233D01*
X47541Y271059D01*
X47130Y270894D01*
X46715Y270740D01*
X46297Y270596D01*
X45875Y270463D01*
X45450Y270339D01*
X45022Y270226D01*
X44591Y270124D01*
X44158Y270033D01*
X43723Y269952D01*
X43286Y269881D01*
X42848Y269822D01*
X42408Y269773D01*
X41967Y269735D01*
X41525Y269708D01*
X41083Y269691D01*
X40640Y269686D01*
X40197Y269691D01*
X39755Y269708D01*
X39313Y269735D01*
X38872Y269773D01*
X38432Y269822D01*
X37994Y269881D01*
X37557Y269952D01*
X37122Y270033D01*
X36689Y270124D01*
X36258Y270226D01*
X35830Y270339D01*
X35405Y270463D01*
X34983Y270596D01*
X34565Y270740D01*
X34150Y270894D01*
X33739Y271059D01*
X33332Y271233D01*
X32929Y271417D01*
X32532Y271612D01*
X32139Y271815D01*
X31751Y272029D01*
X31369Y272252D01*
X30992Y272484D01*
X30621Y272725D01*
X30256Y272976D01*
X29897Y273235D01*
X29545Y273503D01*
X29199Y273780D01*
X28861Y274064D01*
X28529Y274358D01*
X28205Y274659D01*
X27888Y274968D01*
X27579Y275285D01*
X27278Y275609D01*
X26984Y275941D01*
X26700Y276279D01*
X26423Y276625D01*
X26155Y276977D01*
X25896Y277336D01*
X25645Y277701D01*
X25404Y278072D01*
X25172Y278449D01*
X24949Y278831D01*
X24735Y279219D01*
X24532Y279612D01*
X24337Y280009D01*
X24153Y280412D01*
X23979Y280819D01*
X23814Y281230D01*
X23660Y281645D01*
X23516Y282063D01*
X23383Y282485D01*
X23259Y282910D01*
X23146Y283338D01*
X23044Y283769D01*
X22953Y284202D01*
X22872Y284637D01*
X22801Y285074D01*
X22742Y285512D01*
X22693Y285952D01*
X22655Y286393D01*
X22628Y286835D01*
X22611Y287277D01*
X22606Y287720D01*
D17*
X67220Y243778D02*
X73152Y243778D01*
X67220Y243778D02*
X64254Y246744D01*
X67220Y249710D01*
X73152Y249710D01*
X68703Y249710D02*
X68703Y243778D01*
X67220Y252899D02*
X64254Y255865D01*
X73152Y255865D01*
X73152Y252899D02*
X73152Y258831D01*
X64254Y262021D02*
X64254Y267952D01*
X64254Y262021D02*
X68703Y262021D01*
X67220Y264986D01*
X67220Y266469D01*
X68703Y267952D01*
X71669Y267952D01*
X73152Y266469D01*
X73152Y263504D01*
X71669Y262021D01*
X76118Y271142D02*
X73152Y274108D01*
X71669Y274108D01*
X71669Y272625D01*
X73152Y272625D01*
X73152Y274108D01*
X73152Y277223D02*
X73152Y283155D01*
X73152Y277223D02*
X67220Y283155D01*
X65737Y283155D01*
X64254Y281672D01*
X64254Y278706D01*
X65737Y277223D01*
X67220Y286344D02*
X73152Y286344D01*
X67220Y286344D02*
X67220Y287827D01*
X68703Y289310D01*
X73152Y289310D01*
X68703Y289310D02*
X67220Y290793D01*
X68703Y292276D01*
X73152Y292276D01*
X73152Y295465D02*
X67220Y295465D01*
X67220Y296948D01*
X68703Y298431D01*
X73152Y298431D01*
X68703Y298431D02*
X67220Y299914D01*
X68703Y301397D01*
X73152Y301397D01*
D18*
X169545Y313120D03*
X169545Y287720D03*
X169545Y262320D03*
D19*
X100711Y255848D02*
X100711Y250509D01*
X100711Y253178D02*
X84695Y253178D01*
X84695Y250509D02*
X84695Y255848D01*
X84695Y269431D02*
X87365Y272101D01*
X84695Y269431D02*
X84695Y264093D01*
X87365Y261423D01*
X98042Y261423D01*
X100711Y264093D01*
X100711Y269431D01*
X98042Y272101D01*
X90034Y277795D02*
X84695Y283134D01*
X100711Y283134D01*
X100711Y288472D02*
X100711Y277795D01*
D20*
X26215Y371635D02*
X26215Y370263D01*
X26214Y370263D02*
X26084Y370259D01*
X25955Y370251D01*
X25825Y370239D01*
X25697Y370224D01*
X25568Y370204D01*
X25441Y370181D01*
X25314Y370154D01*
X25187Y370123D01*
X25062Y370089D01*
X24938Y370051D01*
X24815Y370009D01*
X24694Y369964D01*
X24573Y369915D01*
X24455Y369862D01*
X24338Y369806D01*
X24222Y369747D01*
X24109Y369684D01*
X23997Y369618D01*
X23887Y369549D01*
X23780Y369476D01*
X23674Y369400D01*
X23571Y369322D01*
X23470Y369240D01*
X23372Y369155D01*
X23276Y369067D01*
X23183Y368977D01*
X23093Y368884D01*
X23005Y368788D01*
X22920Y368690D01*
X22838Y368589D01*
X22760Y368486D01*
X22684Y368380D01*
X22611Y368273D01*
X22542Y368163D01*
X22476Y368051D01*
X22413Y367938D01*
X22354Y367822D01*
X22298Y367705D01*
X22245Y367587D01*
X22196Y367466D01*
X22151Y367345D01*
X22109Y367222D01*
X22071Y367098D01*
X22037Y366973D01*
X22006Y366846D01*
X21979Y366719D01*
X21956Y366592D01*
X21936Y366463D01*
X21921Y366335D01*
X21909Y366205D01*
X21901Y366076D01*
X21897Y365946D01*
X20525Y365945D01*
X20525Y365946D01*
X20528Y366097D01*
X20536Y366248D01*
X20548Y366398D01*
X20564Y366548D01*
X20584Y366698D01*
X20607Y366847D01*
X20635Y366995D01*
X20666Y367143D01*
X20702Y367290D01*
X20741Y367435D01*
X20783Y367580D01*
X20830Y367724D01*
X20880Y367866D01*
X20935Y368007D01*
X20992Y368146D01*
X21054Y368284D01*
X21119Y368420D01*
X21187Y368555D01*
X21259Y368688D01*
X21335Y368818D01*
X21414Y368947D01*
X21496Y369074D01*
X21581Y369198D01*
X21670Y369320D01*
X21762Y369440D01*
X21857Y369557D01*
X21955Y369672D01*
X22056Y369784D01*
X22160Y369893D01*
X22267Y370000D01*
X22376Y370104D01*
X22488Y370205D01*
X22603Y370303D01*
X22720Y370398D01*
X22840Y370490D01*
X22962Y370579D01*
X23086Y370664D01*
X23213Y370746D01*
X23342Y370825D01*
X23472Y370901D01*
X23605Y370973D01*
X23740Y371041D01*
X23876Y371106D01*
X24014Y371168D01*
X24153Y371225D01*
X24294Y371280D01*
X24436Y371330D01*
X24580Y371377D01*
X24725Y371419D01*
X24870Y371458D01*
X25017Y371494D01*
X25165Y371525D01*
X25313Y371553D01*
X25462Y371576D01*
X25612Y371596D01*
X25762Y371612D01*
X25912Y371624D01*
X26063Y371632D01*
X26214Y371635D01*
X26214Y371492D01*
X26064Y371488D01*
X25915Y371480D01*
X25766Y371469D01*
X25617Y371453D01*
X25469Y371433D01*
X25321Y371409D01*
X25174Y371381D01*
X25028Y371349D01*
X24882Y371314D01*
X24738Y371275D01*
X24594Y371231D01*
X24452Y371184D01*
X24312Y371133D01*
X24172Y371079D01*
X24034Y371021D01*
X23898Y370959D01*
X23764Y370893D01*
X23631Y370824D01*
X23500Y370752D01*
X23371Y370676D01*
X23244Y370597D01*
X23119Y370514D01*
X22997Y370428D01*
X22877Y370338D01*
X22759Y370246D01*
X22644Y370151D01*
X22531Y370052D01*
X22421Y369950D01*
X22314Y369846D01*
X22210Y369739D01*
X22108Y369629D01*
X22009Y369516D01*
X21914Y369401D01*
X21822Y369283D01*
X21732Y369163D01*
X21646Y369041D01*
X21563Y368916D01*
X21484Y368789D01*
X21408Y368660D01*
X21336Y368529D01*
X21267Y368396D01*
X21201Y368262D01*
X21139Y368126D01*
X21081Y367988D01*
X21027Y367848D01*
X20976Y367708D01*
X20929Y367566D01*
X20885Y367422D01*
X20846Y367278D01*
X20811Y367132D01*
X20779Y366986D01*
X20751Y366839D01*
X20727Y366691D01*
X20707Y366543D01*
X20691Y366394D01*
X20680Y366245D01*
X20672Y366096D01*
X20668Y365946D01*
X20811Y365946D01*
X20814Y366092D01*
X20822Y366237D01*
X20834Y366383D01*
X20850Y366528D01*
X20869Y366672D01*
X20892Y366816D01*
X20919Y366959D01*
X20950Y367102D01*
X20985Y367243D01*
X21023Y367384D01*
X21065Y367524D01*
X21111Y367662D01*
X21161Y367799D01*
X21214Y367935D01*
X21271Y368069D01*
X21331Y368202D01*
X21395Y368333D01*
X21462Y368462D01*
X21533Y368590D01*
X21607Y368715D01*
X21684Y368839D01*
X21765Y368960D01*
X21848Y369080D01*
X21935Y369197D01*
X22025Y369311D01*
X22118Y369424D01*
X22214Y369533D01*
X22313Y369640D01*
X22415Y369745D01*
X22520Y369847D01*
X22627Y369946D01*
X22736Y370042D01*
X22849Y370135D01*
X22963Y370225D01*
X23080Y370312D01*
X23200Y370395D01*
X23321Y370476D01*
X23445Y370553D01*
X23570Y370627D01*
X23698Y370698D01*
X23827Y370765D01*
X23958Y370829D01*
X24091Y370889D01*
X24225Y370946D01*
X24361Y370999D01*
X24498Y371049D01*
X24636Y371095D01*
X24776Y371137D01*
X24917Y371175D01*
X25058Y371210D01*
X25201Y371241D01*
X25344Y371268D01*
X25488Y371291D01*
X25632Y371310D01*
X25777Y371326D01*
X25923Y371338D01*
X26068Y371346D01*
X26214Y371349D01*
X26214Y371206D01*
X26070Y371202D01*
X25925Y371195D01*
X25782Y371183D01*
X25638Y371167D01*
X25495Y371147D01*
X25352Y371124D01*
X25211Y371097D01*
X25070Y371066D01*
X24929Y371031D01*
X24790Y370992D01*
X24652Y370950D01*
X24516Y370903D01*
X24380Y370854D01*
X24246Y370800D01*
X24113Y370743D01*
X23982Y370682D01*
X23853Y370618D01*
X23725Y370550D01*
X23600Y370479D01*
X23476Y370405D01*
X23354Y370327D01*
X23235Y370246D01*
X23117Y370162D01*
X23002Y370074D01*
X22890Y369984D01*
X22780Y369890D01*
X22672Y369794D01*
X22568Y369695D01*
X22465Y369592D01*
X22366Y369488D01*
X22270Y369380D01*
X22176Y369270D01*
X22086Y369158D01*
X21998Y369043D01*
X21914Y368925D01*
X21833Y368806D01*
X21755Y368684D01*
X21681Y368560D01*
X21610Y368435D01*
X21542Y368307D01*
X21478Y368178D01*
X21417Y368047D01*
X21360Y367914D01*
X21306Y367780D01*
X21257Y367644D01*
X21210Y367508D01*
X21168Y367370D01*
X21129Y367231D01*
X21094Y367090D01*
X21063Y366949D01*
X21036Y366808D01*
X21013Y366665D01*
X20993Y366522D01*
X20977Y366378D01*
X20965Y366235D01*
X20958Y366090D01*
X20954Y365946D01*
X21097Y365946D01*
X21101Y366089D01*
X21109Y366232D01*
X21121Y366374D01*
X21136Y366516D01*
X21156Y366658D01*
X21180Y366799D01*
X21207Y366939D01*
X21239Y367079D01*
X21274Y367217D01*
X21313Y367355D01*
X21355Y367491D01*
X21402Y367626D01*
X21452Y367760D01*
X21506Y367893D01*
X21564Y368024D01*
X21625Y368153D01*
X21689Y368280D01*
X21757Y368406D01*
X21829Y368530D01*
X21904Y368652D01*
X21982Y368771D01*
X22063Y368889D01*
X22148Y369004D01*
X22236Y369117D01*
X22327Y369227D01*
X22421Y369335D01*
X22518Y369440D01*
X22617Y369543D01*
X22720Y369642D01*
X22825Y369739D01*
X22933Y369833D01*
X23043Y369924D01*
X23156Y370012D01*
X23271Y370097D01*
X23389Y370178D01*
X23508Y370256D01*
X23630Y370331D01*
X23754Y370403D01*
X23880Y370471D01*
X24007Y370535D01*
X24136Y370596D01*
X24267Y370654D01*
X24400Y370708D01*
X24534Y370758D01*
X24669Y370805D01*
X24805Y370847D01*
X24943Y370886D01*
X25081Y370921D01*
X25221Y370953D01*
X25361Y370980D01*
X25502Y371004D01*
X25644Y371024D01*
X25786Y371039D01*
X25928Y371051D01*
X26071Y371059D01*
X26214Y371063D01*
X26214Y370920D01*
X26073Y370916D01*
X25931Y370908D01*
X25790Y370896D01*
X25650Y370880D01*
X25510Y370860D01*
X25370Y370837D01*
X25231Y370809D01*
X25094Y370777D01*
X24957Y370742D01*
X24821Y370703D01*
X24686Y370659D01*
X24552Y370613D01*
X24420Y370562D01*
X24289Y370508D01*
X24160Y370450D01*
X24033Y370389D01*
X23907Y370324D01*
X23783Y370255D01*
X23662Y370183D01*
X23542Y370108D01*
X23424Y370029D01*
X23309Y369947D01*
X23196Y369862D01*
X23085Y369774D01*
X22977Y369683D01*
X22872Y369588D01*
X22769Y369491D01*
X22669Y369391D01*
X22572Y369288D01*
X22477Y369183D01*
X22386Y369075D01*
X22298Y368964D01*
X22213Y368851D01*
X22131Y368736D01*
X22052Y368618D01*
X21977Y368498D01*
X21905Y368377D01*
X21836Y368253D01*
X21771Y368127D01*
X21710Y368000D01*
X21652Y367871D01*
X21598Y367740D01*
X21547Y367608D01*
X21501Y367474D01*
X21457Y367339D01*
X21418Y367203D01*
X21383Y367066D01*
X21351Y366929D01*
X21323Y366790D01*
X21300Y366650D01*
X21280Y366510D01*
X21264Y366370D01*
X21252Y366229D01*
X21244Y366087D01*
X21240Y365946D01*
X21383Y365946D01*
X21387Y366083D01*
X21395Y366221D01*
X21406Y366357D01*
X21422Y366494D01*
X21441Y366630D01*
X21464Y366765D01*
X21491Y366900D01*
X21522Y367034D01*
X21556Y367167D01*
X21595Y367299D01*
X21637Y367430D01*
X21682Y367560D01*
X21731Y367688D01*
X21784Y367815D01*
X21840Y367940D01*
X21900Y368064D01*
X21963Y368186D01*
X22029Y368306D01*
X22099Y368425D01*
X22172Y368541D01*
X22249Y368655D01*
X22328Y368767D01*
X22411Y368877D01*
X22497Y368984D01*
X22585Y369089D01*
X22677Y369192D01*
X22771Y369292D01*
X22868Y369389D01*
X22968Y369483D01*
X23071Y369575D01*
X23176Y369663D01*
X23283Y369749D01*
X23393Y369832D01*
X23505Y369911D01*
X23619Y369988D01*
X23735Y370061D01*
X23854Y370131D01*
X23974Y370197D01*
X24096Y370260D01*
X24220Y370320D01*
X24345Y370376D01*
X24472Y370429D01*
X24600Y370478D01*
X24730Y370523D01*
X24861Y370565D01*
X24993Y370604D01*
X25126Y370638D01*
X25260Y370669D01*
X25395Y370696D01*
X25530Y370719D01*
X25666Y370738D01*
X25803Y370754D01*
X25939Y370765D01*
X26077Y370773D01*
X26214Y370777D01*
X26214Y370634D01*
X26078Y370630D01*
X25943Y370622D01*
X25807Y370611D01*
X25673Y370595D01*
X25538Y370575D01*
X25404Y370552D01*
X25271Y370525D01*
X25139Y370494D01*
X25008Y370459D01*
X24878Y370421D01*
X24749Y370379D01*
X24621Y370333D01*
X24494Y370284D01*
X24369Y370231D01*
X24246Y370174D01*
X24124Y370114D01*
X24004Y370051D01*
X23886Y369984D01*
X23769Y369914D01*
X23655Y369840D01*
X23543Y369764D01*
X23433Y369684D01*
X23326Y369601D01*
X23221Y369515D01*
X23118Y369426D01*
X23018Y369334D01*
X22921Y369239D01*
X22826Y369142D01*
X22734Y369042D01*
X22645Y368939D01*
X22559Y368834D01*
X22476Y368727D01*
X22396Y368617D01*
X22320Y368505D01*
X22246Y368391D01*
X22176Y368274D01*
X22109Y368156D01*
X22046Y368036D01*
X21986Y367914D01*
X21929Y367791D01*
X21876Y367666D01*
X21827Y367539D01*
X21781Y367411D01*
X21739Y367282D01*
X21701Y367152D01*
X21666Y367021D01*
X21635Y366889D01*
X21608Y366756D01*
X21585Y366622D01*
X21565Y366487D01*
X21549Y366353D01*
X21538Y366217D01*
X21530Y366082D01*
X21526Y365946D01*
X21669Y365946D01*
X21673Y366080D01*
X21681Y366214D01*
X21693Y366347D01*
X21709Y366481D01*
X21728Y366613D01*
X21752Y366745D01*
X21779Y366877D01*
X21810Y367007D01*
X21845Y367137D01*
X21884Y367265D01*
X21926Y367392D01*
X21972Y367518D01*
X22022Y367643D01*
X22075Y367766D01*
X22132Y367887D01*
X22192Y368007D01*
X22256Y368125D01*
X22323Y368241D01*
X22393Y368355D01*
X22467Y368468D01*
X22544Y368577D01*
X22624Y368685D01*
X22707Y368790D01*
X22793Y368893D01*
X22883Y368993D01*
X22975Y369090D01*
X23070Y369185D01*
X23167Y369277D01*
X23267Y369367D01*
X23370Y369453D01*
X23475Y369536D01*
X23583Y369616D01*
X23692Y369693D01*
X23805Y369767D01*
X23919Y369837D01*
X24035Y369904D01*
X24153Y369968D01*
X24273Y370028D01*
X24394Y370085D01*
X24517Y370138D01*
X24642Y370188D01*
X24768Y370234D01*
X24895Y370276D01*
X25023Y370315D01*
X25153Y370350D01*
X25283Y370381D01*
X25415Y370408D01*
X25547Y370432D01*
X25679Y370451D01*
X25813Y370467D01*
X25946Y370479D01*
X26080Y370487D01*
X26214Y370491D01*
X26214Y370348D01*
X26082Y370344D01*
X25950Y370336D01*
X25818Y370324D01*
X25686Y370308D01*
X25555Y370288D01*
X25425Y370265D01*
X25296Y370237D01*
X25167Y370206D01*
X25039Y370171D01*
X24913Y370132D01*
X24788Y370089D01*
X24664Y370043D01*
X24541Y369993D01*
X24420Y369940D01*
X24300Y369883D01*
X24183Y369822D01*
X24067Y369758D01*
X23953Y369691D01*
X23841Y369620D01*
X23731Y369546D01*
X23624Y369469D01*
X23519Y369389D01*
X23416Y369305D01*
X23316Y369219D01*
X23218Y369129D01*
X23123Y369037D01*
X23031Y368942D01*
X22941Y368844D01*
X22855Y368744D01*
X22771Y368641D01*
X22691Y368536D01*
X22614Y368429D01*
X22540Y368319D01*
X22469Y368207D01*
X22402Y368093D01*
X22338Y367977D01*
X22277Y367860D01*
X22220Y367740D01*
X22167Y367619D01*
X22117Y367496D01*
X22071Y367372D01*
X22028Y367247D01*
X21989Y367121D01*
X21954Y366993D01*
X21923Y366864D01*
X21895Y366735D01*
X21872Y366605D01*
X21852Y366474D01*
X21836Y366342D01*
X21824Y366210D01*
X21816Y366078D01*
X21812Y365946D01*
X20525Y353095D02*
X21897Y353095D01*
X21897Y353094D02*
X21901Y352964D01*
X21909Y352835D01*
X21921Y352705D01*
X21936Y352577D01*
X21956Y352448D01*
X21979Y352321D01*
X22006Y352194D01*
X22037Y352067D01*
X22071Y351942D01*
X22109Y351818D01*
X22151Y351695D01*
X22196Y351574D01*
X22245Y351453D01*
X22298Y351335D01*
X22354Y351218D01*
X22413Y351102D01*
X22476Y350989D01*
X22542Y350877D01*
X22611Y350767D01*
X22684Y350660D01*
X22760Y350554D01*
X22838Y350451D01*
X22920Y350350D01*
X23005Y350252D01*
X23093Y350156D01*
X23183Y350063D01*
X23276Y349973D01*
X23372Y349885D01*
X23470Y349800D01*
X23571Y349718D01*
X23674Y349640D01*
X23780Y349564D01*
X23887Y349491D01*
X23997Y349422D01*
X24109Y349356D01*
X24222Y349293D01*
X24338Y349234D01*
X24455Y349178D01*
X24573Y349125D01*
X24694Y349076D01*
X24815Y349031D01*
X24938Y348989D01*
X25062Y348951D01*
X25187Y348917D01*
X25314Y348886D01*
X25441Y348859D01*
X25568Y348836D01*
X25697Y348816D01*
X25825Y348801D01*
X25955Y348789D01*
X26084Y348781D01*
X26214Y348777D01*
X26215Y347405D01*
X26214Y347405D01*
X26063Y347408D01*
X25912Y347416D01*
X25762Y347428D01*
X25612Y347444D01*
X25462Y347464D01*
X25313Y347487D01*
X25165Y347515D01*
X25017Y347546D01*
X24870Y347582D01*
X24725Y347621D01*
X24580Y347663D01*
X24436Y347710D01*
X24294Y347760D01*
X24153Y347815D01*
X24014Y347872D01*
X23876Y347934D01*
X23740Y347999D01*
X23605Y348067D01*
X23472Y348139D01*
X23342Y348215D01*
X23213Y348294D01*
X23086Y348376D01*
X22962Y348461D01*
X22840Y348550D01*
X22720Y348642D01*
X22603Y348737D01*
X22488Y348835D01*
X22376Y348936D01*
X22267Y349040D01*
X22160Y349147D01*
X22056Y349256D01*
X21955Y349368D01*
X21857Y349483D01*
X21762Y349600D01*
X21670Y349720D01*
X21581Y349842D01*
X21496Y349966D01*
X21414Y350093D01*
X21335Y350222D01*
X21259Y350352D01*
X21187Y350485D01*
X21119Y350620D01*
X21054Y350756D01*
X20992Y350894D01*
X20935Y351033D01*
X20880Y351174D01*
X20830Y351316D01*
X20783Y351460D01*
X20741Y351605D01*
X20702Y351750D01*
X20666Y351897D01*
X20635Y352045D01*
X20607Y352193D01*
X20584Y352342D01*
X20564Y352492D01*
X20548Y352642D01*
X20536Y352792D01*
X20528Y352943D01*
X20525Y353094D01*
X20668Y353094D01*
X20672Y352944D01*
X20680Y352795D01*
X20691Y352646D01*
X20707Y352497D01*
X20727Y352349D01*
X20751Y352201D01*
X20779Y352054D01*
X20811Y351908D01*
X20846Y351762D01*
X20885Y351618D01*
X20929Y351474D01*
X20976Y351332D01*
X21027Y351192D01*
X21081Y351052D01*
X21139Y350914D01*
X21201Y350778D01*
X21267Y350644D01*
X21336Y350511D01*
X21408Y350380D01*
X21484Y350251D01*
X21563Y350124D01*
X21646Y349999D01*
X21732Y349877D01*
X21822Y349757D01*
X21914Y349639D01*
X22009Y349524D01*
X22108Y349411D01*
X22210Y349301D01*
X22314Y349194D01*
X22421Y349090D01*
X22531Y348988D01*
X22644Y348889D01*
X22759Y348794D01*
X22877Y348702D01*
X22997Y348612D01*
X23119Y348526D01*
X23244Y348443D01*
X23371Y348364D01*
X23500Y348288D01*
X23631Y348216D01*
X23764Y348147D01*
X23898Y348081D01*
X24034Y348019D01*
X24172Y347961D01*
X24312Y347907D01*
X24452Y347856D01*
X24594Y347809D01*
X24738Y347765D01*
X24882Y347726D01*
X25028Y347691D01*
X25174Y347659D01*
X25321Y347631D01*
X25469Y347607D01*
X25617Y347587D01*
X25766Y347571D01*
X25915Y347560D01*
X26064Y347552D01*
X26214Y347548D01*
X26214Y347691D01*
X26068Y347694D01*
X25923Y347702D01*
X25777Y347714D01*
X25632Y347730D01*
X25488Y347749D01*
X25344Y347772D01*
X25201Y347799D01*
X25058Y347830D01*
X24917Y347865D01*
X24776Y347903D01*
X24636Y347945D01*
X24498Y347991D01*
X24361Y348041D01*
X24225Y348094D01*
X24091Y348151D01*
X23958Y348211D01*
X23827Y348275D01*
X23698Y348342D01*
X23570Y348413D01*
X23445Y348487D01*
X23321Y348564D01*
X23200Y348645D01*
X23080Y348728D01*
X22963Y348815D01*
X22849Y348905D01*
X22736Y348998D01*
X22627Y349094D01*
X22520Y349193D01*
X22415Y349295D01*
X22313Y349400D01*
X22214Y349507D01*
X22118Y349616D01*
X22025Y349729D01*
X21935Y349843D01*
X21848Y349960D01*
X21765Y350080D01*
X21684Y350201D01*
X21607Y350325D01*
X21533Y350450D01*
X21462Y350578D01*
X21395Y350707D01*
X21331Y350838D01*
X21271Y350971D01*
X21214Y351105D01*
X21161Y351241D01*
X21111Y351378D01*
X21065Y351516D01*
X21023Y351656D01*
X20985Y351797D01*
X20950Y351938D01*
X20919Y352081D01*
X20892Y352224D01*
X20869Y352368D01*
X20850Y352512D01*
X20834Y352657D01*
X20822Y352803D01*
X20814Y352948D01*
X20811Y353094D01*
X20954Y353094D01*
X20958Y352950D01*
X20965Y352805D01*
X20977Y352662D01*
X20993Y352518D01*
X21013Y352375D01*
X21036Y352232D01*
X21063Y352091D01*
X21094Y351950D01*
X21129Y351809D01*
X21168Y351670D01*
X21210Y351532D01*
X21257Y351396D01*
X21306Y351260D01*
X21360Y351126D01*
X21417Y350993D01*
X21478Y350862D01*
X21542Y350733D01*
X21610Y350605D01*
X21681Y350480D01*
X21755Y350356D01*
X21833Y350234D01*
X21914Y350115D01*
X21998Y349997D01*
X22086Y349882D01*
X22176Y349770D01*
X22270Y349660D01*
X22366Y349552D01*
X22465Y349448D01*
X22568Y349345D01*
X22672Y349246D01*
X22780Y349150D01*
X22890Y349056D01*
X23002Y348966D01*
X23117Y348878D01*
X23235Y348794D01*
X23354Y348713D01*
X23476Y348635D01*
X23600Y348561D01*
X23725Y348490D01*
X23853Y348422D01*
X23982Y348358D01*
X24113Y348297D01*
X24246Y348240D01*
X24380Y348186D01*
X24516Y348137D01*
X24652Y348090D01*
X24790Y348048D01*
X24929Y348009D01*
X25070Y347974D01*
X25211Y347943D01*
X25352Y347916D01*
X25495Y347893D01*
X25638Y347873D01*
X25782Y347857D01*
X25925Y347845D01*
X26070Y347838D01*
X26214Y347834D01*
X26214Y347977D01*
X26071Y347981D01*
X25928Y347989D01*
X25786Y348001D01*
X25644Y348016D01*
X25502Y348036D01*
X25361Y348060D01*
X25221Y348087D01*
X25081Y348119D01*
X24943Y348154D01*
X24805Y348193D01*
X24669Y348235D01*
X24534Y348282D01*
X24400Y348332D01*
X24267Y348386D01*
X24136Y348444D01*
X24007Y348505D01*
X23880Y348569D01*
X23754Y348637D01*
X23630Y348709D01*
X23508Y348784D01*
X23389Y348862D01*
X23271Y348943D01*
X23156Y349028D01*
X23043Y349116D01*
X22933Y349207D01*
X22825Y349301D01*
X22720Y349398D01*
X22617Y349497D01*
X22518Y349600D01*
X22421Y349705D01*
X22327Y349813D01*
X22236Y349923D01*
X22148Y350036D01*
X22063Y350151D01*
X21982Y350269D01*
X21904Y350388D01*
X21829Y350510D01*
X21757Y350634D01*
X21689Y350760D01*
X21625Y350887D01*
X21564Y351016D01*
X21506Y351147D01*
X21452Y351280D01*
X21402Y351414D01*
X21355Y351549D01*
X21313Y351685D01*
X21274Y351823D01*
X21239Y351961D01*
X21207Y352101D01*
X21180Y352241D01*
X21156Y352382D01*
X21136Y352524D01*
X21121Y352666D01*
X21109Y352808D01*
X21101Y352951D01*
X21097Y353094D01*
X21240Y353094D01*
X21244Y352953D01*
X21252Y352811D01*
X21264Y352670D01*
X21280Y352530D01*
X21300Y352390D01*
X21323Y352250D01*
X21351Y352111D01*
X21383Y351974D01*
X21418Y351837D01*
X21457Y351701D01*
X21501Y351566D01*
X21547Y351432D01*
X21598Y351300D01*
X21652Y351169D01*
X21710Y351040D01*
X21771Y350913D01*
X21836Y350787D01*
X21905Y350663D01*
X21977Y350542D01*
X22052Y350422D01*
X22131Y350304D01*
X22213Y350189D01*
X22298Y350076D01*
X22386Y349965D01*
X22477Y349857D01*
X22572Y349752D01*
X22669Y349649D01*
X22769Y349549D01*
X22872Y349452D01*
X22977Y349357D01*
X23085Y349266D01*
X23196Y349178D01*
X23309Y349093D01*
X23424Y349011D01*
X23542Y348932D01*
X23662Y348857D01*
X23783Y348785D01*
X23907Y348716D01*
X24033Y348651D01*
X24160Y348590D01*
X24289Y348532D01*
X24420Y348478D01*
X24552Y348427D01*
X24686Y348381D01*
X24821Y348337D01*
X24957Y348298D01*
X25094Y348263D01*
X25231Y348231D01*
X25370Y348203D01*
X25510Y348180D01*
X25650Y348160D01*
X25790Y348144D01*
X25931Y348132D01*
X26073Y348124D01*
X26214Y348120D01*
X26214Y348263D01*
X26077Y348267D01*
X25939Y348275D01*
X25803Y348286D01*
X25666Y348302D01*
X25530Y348321D01*
X25395Y348344D01*
X25260Y348371D01*
X25126Y348402D01*
X24993Y348436D01*
X24861Y348475D01*
X24730Y348517D01*
X24600Y348562D01*
X24472Y348611D01*
X24345Y348664D01*
X24220Y348720D01*
X24096Y348780D01*
X23974Y348843D01*
X23854Y348909D01*
X23735Y348979D01*
X23619Y349052D01*
X23505Y349129D01*
X23393Y349208D01*
X23283Y349291D01*
X23176Y349377D01*
X23071Y349465D01*
X22968Y349557D01*
X22868Y349651D01*
X22771Y349748D01*
X22677Y349848D01*
X22585Y349951D01*
X22497Y350056D01*
X22411Y350163D01*
X22328Y350273D01*
X22249Y350385D01*
X22172Y350499D01*
X22099Y350615D01*
X22029Y350734D01*
X21963Y350854D01*
X21900Y350976D01*
X21840Y351100D01*
X21784Y351225D01*
X21731Y351352D01*
X21682Y351480D01*
X21637Y351610D01*
X21595Y351741D01*
X21556Y351873D01*
X21522Y352006D01*
X21491Y352140D01*
X21464Y352275D01*
X21441Y352410D01*
X21422Y352546D01*
X21406Y352683D01*
X21395Y352819D01*
X21387Y352957D01*
X21383Y353094D01*
X21526Y353094D01*
X21530Y352958D01*
X21538Y352823D01*
X21549Y352687D01*
X21565Y352553D01*
X21585Y352418D01*
X21608Y352284D01*
X21635Y352151D01*
X21666Y352019D01*
X21701Y351888D01*
X21739Y351758D01*
X21781Y351629D01*
X21827Y351501D01*
X21876Y351374D01*
X21929Y351249D01*
X21986Y351126D01*
X22046Y351004D01*
X22109Y350884D01*
X22176Y350766D01*
X22246Y350649D01*
X22320Y350535D01*
X22396Y350423D01*
X22476Y350313D01*
X22559Y350206D01*
X22645Y350101D01*
X22734Y349998D01*
X22826Y349898D01*
X22921Y349801D01*
X23018Y349706D01*
X23118Y349614D01*
X23221Y349525D01*
X23326Y349439D01*
X23433Y349356D01*
X23543Y349276D01*
X23655Y349200D01*
X23769Y349126D01*
X23886Y349056D01*
X24004Y348989D01*
X24124Y348926D01*
X24246Y348866D01*
X24369Y348809D01*
X24494Y348756D01*
X24621Y348707D01*
X24749Y348661D01*
X24878Y348619D01*
X25008Y348581D01*
X25139Y348546D01*
X25271Y348515D01*
X25404Y348488D01*
X25538Y348465D01*
X25673Y348445D01*
X25807Y348429D01*
X25943Y348418D01*
X26078Y348410D01*
X26214Y348406D01*
X26214Y348549D01*
X26080Y348553D01*
X25946Y348561D01*
X25813Y348573D01*
X25679Y348589D01*
X25547Y348608D01*
X25415Y348632D01*
X25283Y348659D01*
X25153Y348690D01*
X25023Y348725D01*
X24895Y348764D01*
X24768Y348806D01*
X24642Y348852D01*
X24517Y348902D01*
X24394Y348955D01*
X24273Y349012D01*
X24153Y349072D01*
X24035Y349136D01*
X23919Y349203D01*
X23805Y349273D01*
X23692Y349347D01*
X23583Y349424D01*
X23475Y349504D01*
X23370Y349587D01*
X23267Y349673D01*
X23167Y349763D01*
X23070Y349855D01*
X22975Y349950D01*
X22883Y350047D01*
X22793Y350147D01*
X22707Y350250D01*
X22624Y350355D01*
X22544Y350463D01*
X22467Y350572D01*
X22393Y350685D01*
X22323Y350799D01*
X22256Y350915D01*
X22192Y351033D01*
X22132Y351153D01*
X22075Y351274D01*
X22022Y351397D01*
X21972Y351522D01*
X21926Y351648D01*
X21884Y351775D01*
X21845Y351903D01*
X21810Y352033D01*
X21779Y352163D01*
X21752Y352295D01*
X21728Y352427D01*
X21709Y352559D01*
X21693Y352693D01*
X21681Y352826D01*
X21673Y352960D01*
X21669Y353094D01*
X21812Y353094D01*
X21816Y352962D01*
X21824Y352830D01*
X21836Y352698D01*
X21852Y352566D01*
X21872Y352435D01*
X21895Y352305D01*
X21923Y352176D01*
X21954Y352047D01*
X21989Y351919D01*
X22028Y351793D01*
X22071Y351668D01*
X22117Y351544D01*
X22167Y351421D01*
X22220Y351300D01*
X22277Y351180D01*
X22338Y351063D01*
X22402Y350947D01*
X22469Y350833D01*
X22540Y350721D01*
X22614Y350611D01*
X22691Y350504D01*
X22771Y350399D01*
X22855Y350296D01*
X22941Y350196D01*
X23031Y350098D01*
X23123Y350003D01*
X23218Y349911D01*
X23316Y349821D01*
X23416Y349735D01*
X23519Y349651D01*
X23624Y349571D01*
X23731Y349494D01*
X23841Y349420D01*
X23953Y349349D01*
X24067Y349282D01*
X24183Y349218D01*
X24300Y349157D01*
X24420Y349100D01*
X24541Y349047D01*
X24664Y348997D01*
X24788Y348951D01*
X24913Y348908D01*
X25039Y348869D01*
X25167Y348834D01*
X25296Y348803D01*
X25425Y348775D01*
X25555Y348752D01*
X25686Y348732D01*
X25818Y348716D01*
X25950Y348704D01*
X26082Y348696D01*
X26214Y348692D01*
D15*
X26290Y370950D02*
X59310Y370950D01*
X59310Y348090D02*
X26290Y348090D01*
D20*
X65075Y365945D02*
X63703Y365945D01*
X63703Y365946D02*
X63699Y366076D01*
X63691Y366205D01*
X63679Y366335D01*
X63664Y366463D01*
X63644Y366592D01*
X63621Y366719D01*
X63594Y366846D01*
X63563Y366973D01*
X63529Y367098D01*
X63491Y367222D01*
X63449Y367345D01*
X63404Y367466D01*
X63355Y367587D01*
X63302Y367705D01*
X63246Y367822D01*
X63187Y367938D01*
X63124Y368051D01*
X63058Y368163D01*
X62989Y368273D01*
X62916Y368380D01*
X62840Y368486D01*
X62762Y368589D01*
X62680Y368690D01*
X62595Y368788D01*
X62507Y368884D01*
X62417Y368977D01*
X62324Y369067D01*
X62228Y369155D01*
X62130Y369240D01*
X62029Y369322D01*
X61926Y369400D01*
X61820Y369476D01*
X61713Y369549D01*
X61603Y369618D01*
X61491Y369684D01*
X61378Y369747D01*
X61262Y369806D01*
X61145Y369862D01*
X61027Y369915D01*
X60906Y369964D01*
X60785Y370009D01*
X60662Y370051D01*
X60538Y370089D01*
X60413Y370123D01*
X60286Y370154D01*
X60159Y370181D01*
X60032Y370204D01*
X59903Y370224D01*
X59775Y370239D01*
X59645Y370251D01*
X59516Y370259D01*
X59386Y370263D01*
X59385Y371635D01*
X59386Y371635D01*
X59537Y371632D01*
X59688Y371624D01*
X59838Y371612D01*
X59988Y371596D01*
X60138Y371576D01*
X60287Y371553D01*
X60435Y371525D01*
X60583Y371494D01*
X60730Y371458D01*
X60875Y371419D01*
X61020Y371377D01*
X61164Y371330D01*
X61306Y371280D01*
X61447Y371225D01*
X61586Y371168D01*
X61724Y371106D01*
X61860Y371041D01*
X61995Y370973D01*
X62128Y370901D01*
X62258Y370825D01*
X62387Y370746D01*
X62514Y370664D01*
X62638Y370579D01*
X62760Y370490D01*
X62880Y370398D01*
X62997Y370303D01*
X63112Y370205D01*
X63224Y370104D01*
X63333Y370000D01*
X63440Y369893D01*
X63544Y369784D01*
X63645Y369672D01*
X63743Y369557D01*
X63838Y369440D01*
X63930Y369320D01*
X64019Y369198D01*
X64104Y369074D01*
X64186Y368947D01*
X64265Y368818D01*
X64341Y368688D01*
X64413Y368555D01*
X64481Y368420D01*
X64546Y368284D01*
X64608Y368146D01*
X64665Y368007D01*
X64720Y367866D01*
X64770Y367724D01*
X64817Y367580D01*
X64859Y367435D01*
X64898Y367290D01*
X64934Y367143D01*
X64965Y366995D01*
X64993Y366847D01*
X65016Y366698D01*
X65036Y366548D01*
X65052Y366398D01*
X65064Y366248D01*
X65072Y366097D01*
X65075Y365946D01*
X64932Y365946D01*
X64928Y366096D01*
X64920Y366245D01*
X64909Y366394D01*
X64893Y366543D01*
X64873Y366691D01*
X64849Y366839D01*
X64821Y366986D01*
X64789Y367132D01*
X64754Y367278D01*
X64715Y367422D01*
X64671Y367566D01*
X64624Y367708D01*
X64573Y367848D01*
X64519Y367988D01*
X64461Y368126D01*
X64399Y368262D01*
X64333Y368396D01*
X64264Y368529D01*
X64192Y368660D01*
X64116Y368789D01*
X64037Y368916D01*
X63954Y369041D01*
X63868Y369163D01*
X63778Y369283D01*
X63686Y369401D01*
X63591Y369516D01*
X63492Y369629D01*
X63390Y369739D01*
X63286Y369846D01*
X63179Y369950D01*
X63069Y370052D01*
X62956Y370151D01*
X62841Y370246D01*
X62723Y370338D01*
X62603Y370428D01*
X62481Y370514D01*
X62356Y370597D01*
X62229Y370676D01*
X62100Y370752D01*
X61969Y370824D01*
X61836Y370893D01*
X61702Y370959D01*
X61566Y371021D01*
X61428Y371079D01*
X61288Y371133D01*
X61148Y371184D01*
X61006Y371231D01*
X60862Y371275D01*
X60718Y371314D01*
X60572Y371349D01*
X60426Y371381D01*
X60279Y371409D01*
X60131Y371433D01*
X59983Y371453D01*
X59834Y371469D01*
X59685Y371480D01*
X59536Y371488D01*
X59386Y371492D01*
X59386Y371349D01*
X59532Y371346D01*
X59677Y371338D01*
X59823Y371326D01*
X59968Y371310D01*
X60112Y371291D01*
X60256Y371268D01*
X60399Y371241D01*
X60542Y371210D01*
X60683Y371175D01*
X60824Y371137D01*
X60964Y371095D01*
X61102Y371049D01*
X61239Y370999D01*
X61375Y370946D01*
X61509Y370889D01*
X61642Y370829D01*
X61773Y370765D01*
X61902Y370698D01*
X62030Y370627D01*
X62155Y370553D01*
X62279Y370476D01*
X62400Y370395D01*
X62520Y370312D01*
X62637Y370225D01*
X62751Y370135D01*
X62864Y370042D01*
X62973Y369946D01*
X63080Y369847D01*
X63185Y369745D01*
X63287Y369640D01*
X63386Y369533D01*
X63482Y369424D01*
X63575Y369311D01*
X63665Y369197D01*
X63752Y369080D01*
X63835Y368960D01*
X63916Y368839D01*
X63993Y368715D01*
X64067Y368590D01*
X64138Y368462D01*
X64205Y368333D01*
X64269Y368202D01*
X64329Y368069D01*
X64386Y367935D01*
X64439Y367799D01*
X64489Y367662D01*
X64535Y367524D01*
X64577Y367384D01*
X64615Y367243D01*
X64650Y367102D01*
X64681Y366959D01*
X64708Y366816D01*
X64731Y366672D01*
X64750Y366528D01*
X64766Y366383D01*
X64778Y366237D01*
X64786Y366092D01*
X64789Y365946D01*
X64646Y365946D01*
X64642Y366090D01*
X64635Y366235D01*
X64623Y366378D01*
X64607Y366522D01*
X64587Y366665D01*
X64564Y366808D01*
X64537Y366949D01*
X64506Y367090D01*
X64471Y367231D01*
X64432Y367370D01*
X64390Y367508D01*
X64343Y367644D01*
X64294Y367780D01*
X64240Y367914D01*
X64183Y368047D01*
X64122Y368178D01*
X64058Y368307D01*
X63990Y368435D01*
X63919Y368560D01*
X63845Y368684D01*
X63767Y368806D01*
X63686Y368925D01*
X63602Y369043D01*
X63514Y369158D01*
X63424Y369270D01*
X63330Y369380D01*
X63234Y369488D01*
X63135Y369592D01*
X63032Y369695D01*
X62928Y369794D01*
X62820Y369890D01*
X62710Y369984D01*
X62598Y370074D01*
X62483Y370162D01*
X62365Y370246D01*
X62246Y370327D01*
X62124Y370405D01*
X62000Y370479D01*
X61875Y370550D01*
X61747Y370618D01*
X61618Y370682D01*
X61487Y370743D01*
X61354Y370800D01*
X61220Y370854D01*
X61084Y370903D01*
X60948Y370950D01*
X60810Y370992D01*
X60671Y371031D01*
X60530Y371066D01*
X60389Y371097D01*
X60248Y371124D01*
X60105Y371147D01*
X59962Y371167D01*
X59818Y371183D01*
X59675Y371195D01*
X59530Y371202D01*
X59386Y371206D01*
X59386Y371063D01*
X59529Y371059D01*
X59672Y371051D01*
X59814Y371039D01*
X59956Y371024D01*
X60098Y371004D01*
X60239Y370980D01*
X60379Y370953D01*
X60519Y370921D01*
X60657Y370886D01*
X60795Y370847D01*
X60931Y370805D01*
X61066Y370758D01*
X61200Y370708D01*
X61333Y370654D01*
X61464Y370596D01*
X61593Y370535D01*
X61720Y370471D01*
X61846Y370403D01*
X61970Y370331D01*
X62092Y370256D01*
X62211Y370178D01*
X62329Y370097D01*
X62444Y370012D01*
X62557Y369924D01*
X62667Y369833D01*
X62775Y369739D01*
X62880Y369642D01*
X62983Y369543D01*
X63082Y369440D01*
X63179Y369335D01*
X63273Y369227D01*
X63364Y369117D01*
X63452Y369004D01*
X63537Y368889D01*
X63618Y368771D01*
X63696Y368652D01*
X63771Y368530D01*
X63843Y368406D01*
X63911Y368280D01*
X63975Y368153D01*
X64036Y368024D01*
X64094Y367893D01*
X64148Y367760D01*
X64198Y367626D01*
X64245Y367491D01*
X64287Y367355D01*
X64326Y367217D01*
X64361Y367079D01*
X64393Y366939D01*
X64420Y366799D01*
X64444Y366658D01*
X64464Y366516D01*
X64479Y366374D01*
X64491Y366232D01*
X64499Y366089D01*
X64503Y365946D01*
X64360Y365946D01*
X64356Y366087D01*
X64348Y366229D01*
X64336Y366370D01*
X64320Y366510D01*
X64300Y366650D01*
X64277Y366790D01*
X64249Y366929D01*
X64217Y367066D01*
X64182Y367203D01*
X64143Y367339D01*
X64099Y367474D01*
X64053Y367608D01*
X64002Y367740D01*
X63948Y367871D01*
X63890Y368000D01*
X63829Y368127D01*
X63764Y368253D01*
X63695Y368377D01*
X63623Y368498D01*
X63548Y368618D01*
X63469Y368736D01*
X63387Y368851D01*
X63302Y368964D01*
X63214Y369075D01*
X63123Y369183D01*
X63028Y369288D01*
X62931Y369391D01*
X62831Y369491D01*
X62728Y369588D01*
X62623Y369683D01*
X62515Y369774D01*
X62404Y369862D01*
X62291Y369947D01*
X62176Y370029D01*
X62058Y370108D01*
X61938Y370183D01*
X61817Y370255D01*
X61693Y370324D01*
X61567Y370389D01*
X61440Y370450D01*
X61311Y370508D01*
X61180Y370562D01*
X61048Y370613D01*
X60914Y370659D01*
X60779Y370703D01*
X60643Y370742D01*
X60506Y370777D01*
X60369Y370809D01*
X60230Y370837D01*
X60090Y370860D01*
X59950Y370880D01*
X59810Y370896D01*
X59669Y370908D01*
X59527Y370916D01*
X59386Y370920D01*
X59386Y370777D01*
X59523Y370773D01*
X59661Y370765D01*
X59797Y370754D01*
X59934Y370738D01*
X60070Y370719D01*
X60205Y370696D01*
X60340Y370669D01*
X60474Y370638D01*
X60607Y370604D01*
X60739Y370565D01*
X60870Y370523D01*
X61000Y370478D01*
X61128Y370429D01*
X61255Y370376D01*
X61380Y370320D01*
X61504Y370260D01*
X61626Y370197D01*
X61746Y370131D01*
X61865Y370061D01*
X61981Y369988D01*
X62095Y369911D01*
X62207Y369832D01*
X62317Y369749D01*
X62424Y369663D01*
X62529Y369575D01*
X62632Y369483D01*
X62732Y369389D01*
X62829Y369292D01*
X62923Y369192D01*
X63015Y369089D01*
X63103Y368984D01*
X63189Y368877D01*
X63272Y368767D01*
X63351Y368655D01*
X63428Y368541D01*
X63501Y368425D01*
X63571Y368306D01*
X63637Y368186D01*
X63700Y368064D01*
X63760Y367940D01*
X63816Y367815D01*
X63869Y367688D01*
X63918Y367560D01*
X63963Y367430D01*
X64005Y367299D01*
X64044Y367167D01*
X64078Y367034D01*
X64109Y366900D01*
X64136Y366765D01*
X64159Y366630D01*
X64178Y366494D01*
X64194Y366357D01*
X64205Y366221D01*
X64213Y366083D01*
X64217Y365946D01*
X64074Y365946D01*
X64070Y366082D01*
X64062Y366217D01*
X64051Y366353D01*
X64035Y366487D01*
X64015Y366622D01*
X63992Y366756D01*
X63965Y366889D01*
X63934Y367021D01*
X63899Y367152D01*
X63861Y367282D01*
X63819Y367411D01*
X63773Y367539D01*
X63724Y367666D01*
X63671Y367791D01*
X63614Y367914D01*
X63554Y368036D01*
X63491Y368156D01*
X63424Y368274D01*
X63354Y368391D01*
X63280Y368505D01*
X63204Y368617D01*
X63124Y368727D01*
X63041Y368834D01*
X62955Y368939D01*
X62866Y369042D01*
X62774Y369142D01*
X62679Y369239D01*
X62582Y369334D01*
X62482Y369426D01*
X62379Y369515D01*
X62274Y369601D01*
X62167Y369684D01*
X62057Y369764D01*
X61945Y369840D01*
X61831Y369914D01*
X61714Y369984D01*
X61596Y370051D01*
X61476Y370114D01*
X61354Y370174D01*
X61231Y370231D01*
X61106Y370284D01*
X60979Y370333D01*
X60851Y370379D01*
X60722Y370421D01*
X60592Y370459D01*
X60461Y370494D01*
X60329Y370525D01*
X60196Y370552D01*
X60062Y370575D01*
X59927Y370595D01*
X59793Y370611D01*
X59657Y370622D01*
X59522Y370630D01*
X59386Y370634D01*
X59386Y370491D01*
X59520Y370487D01*
X59654Y370479D01*
X59787Y370467D01*
X59921Y370451D01*
X60053Y370432D01*
X60185Y370408D01*
X60317Y370381D01*
X60447Y370350D01*
X60577Y370315D01*
X60705Y370276D01*
X60832Y370234D01*
X60958Y370188D01*
X61083Y370138D01*
X61206Y370085D01*
X61327Y370028D01*
X61447Y369968D01*
X61565Y369904D01*
X61681Y369837D01*
X61795Y369767D01*
X61908Y369693D01*
X62017Y369616D01*
X62125Y369536D01*
X62230Y369453D01*
X62333Y369367D01*
X62433Y369277D01*
X62530Y369185D01*
X62625Y369090D01*
X62717Y368993D01*
X62807Y368893D01*
X62893Y368790D01*
X62976Y368685D01*
X63056Y368577D01*
X63133Y368468D01*
X63207Y368355D01*
X63277Y368241D01*
X63344Y368125D01*
X63408Y368007D01*
X63468Y367887D01*
X63525Y367766D01*
X63578Y367643D01*
X63628Y367518D01*
X63674Y367392D01*
X63716Y367265D01*
X63755Y367137D01*
X63790Y367007D01*
X63821Y366877D01*
X63848Y366745D01*
X63872Y366613D01*
X63891Y366481D01*
X63907Y366347D01*
X63919Y366214D01*
X63927Y366080D01*
X63931Y365946D01*
X63788Y365946D01*
X63784Y366078D01*
X63776Y366210D01*
X63764Y366342D01*
X63748Y366474D01*
X63728Y366605D01*
X63705Y366735D01*
X63677Y366864D01*
X63646Y366993D01*
X63611Y367121D01*
X63572Y367247D01*
X63529Y367372D01*
X63483Y367496D01*
X63433Y367619D01*
X63380Y367740D01*
X63323Y367860D01*
X63262Y367977D01*
X63198Y368093D01*
X63131Y368207D01*
X63060Y368319D01*
X62986Y368429D01*
X62909Y368536D01*
X62829Y368641D01*
X62745Y368744D01*
X62659Y368844D01*
X62569Y368942D01*
X62477Y369037D01*
X62382Y369129D01*
X62284Y369219D01*
X62184Y369305D01*
X62081Y369389D01*
X61976Y369469D01*
X61869Y369546D01*
X61759Y369620D01*
X61647Y369691D01*
X61533Y369758D01*
X61417Y369822D01*
X61300Y369883D01*
X61180Y369940D01*
X61059Y369993D01*
X60936Y370043D01*
X60812Y370089D01*
X60687Y370132D01*
X60561Y370171D01*
X60433Y370206D01*
X60304Y370237D01*
X60175Y370265D01*
X60045Y370288D01*
X59914Y370308D01*
X59782Y370324D01*
X59650Y370336D01*
X59518Y370344D01*
X59386Y370348D01*
X59385Y347405D02*
X59385Y348777D01*
X59386Y348777D02*
X59516Y348781D01*
X59645Y348789D01*
X59775Y348801D01*
X59903Y348816D01*
X60032Y348836D01*
X60159Y348859D01*
X60286Y348886D01*
X60413Y348917D01*
X60538Y348951D01*
X60662Y348989D01*
X60785Y349031D01*
X60906Y349076D01*
X61027Y349125D01*
X61145Y349178D01*
X61262Y349234D01*
X61378Y349293D01*
X61491Y349356D01*
X61603Y349422D01*
X61713Y349491D01*
X61820Y349564D01*
X61926Y349640D01*
X62029Y349718D01*
X62130Y349800D01*
X62228Y349885D01*
X62324Y349973D01*
X62417Y350063D01*
X62507Y350156D01*
X62595Y350252D01*
X62680Y350350D01*
X62762Y350451D01*
X62840Y350554D01*
X62916Y350660D01*
X62989Y350767D01*
X63058Y350877D01*
X63124Y350989D01*
X63187Y351102D01*
X63246Y351218D01*
X63302Y351335D01*
X63355Y351453D01*
X63404Y351574D01*
X63449Y351695D01*
X63491Y351818D01*
X63529Y351942D01*
X63563Y352067D01*
X63594Y352194D01*
X63621Y352321D01*
X63644Y352448D01*
X63664Y352577D01*
X63679Y352705D01*
X63691Y352835D01*
X63699Y352964D01*
X63703Y353094D01*
X65075Y353095D01*
X65075Y353094D01*
X65072Y352943D01*
X65064Y352792D01*
X65052Y352642D01*
X65036Y352492D01*
X65016Y352342D01*
X64993Y352193D01*
X64965Y352045D01*
X64934Y351897D01*
X64898Y351750D01*
X64859Y351605D01*
X64817Y351460D01*
X64770Y351316D01*
X64720Y351174D01*
X64665Y351033D01*
X64608Y350894D01*
X64546Y350756D01*
X64481Y350620D01*
X64413Y350485D01*
X64341Y350352D01*
X64265Y350222D01*
X64186Y350093D01*
X64104Y349966D01*
X64019Y349842D01*
X63930Y349720D01*
X63838Y349600D01*
X63743Y349483D01*
X63645Y349368D01*
X63544Y349256D01*
X63440Y349147D01*
X63333Y349040D01*
X63224Y348936D01*
X63112Y348835D01*
X62997Y348737D01*
X62880Y348642D01*
X62760Y348550D01*
X62638Y348461D01*
X62514Y348376D01*
X62387Y348294D01*
X62258Y348215D01*
X62128Y348139D01*
X61995Y348067D01*
X61860Y347999D01*
X61724Y347934D01*
X61586Y347872D01*
X61447Y347815D01*
X61306Y347760D01*
X61164Y347710D01*
X61020Y347663D01*
X60875Y347621D01*
X60730Y347582D01*
X60583Y347546D01*
X60435Y347515D01*
X60287Y347487D01*
X60138Y347464D01*
X59988Y347444D01*
X59838Y347428D01*
X59688Y347416D01*
X59537Y347408D01*
X59386Y347405D01*
X59386Y347548D01*
X59536Y347552D01*
X59685Y347560D01*
X59834Y347571D01*
X59983Y347587D01*
X60131Y347607D01*
X60279Y347631D01*
X60426Y347659D01*
X60572Y347691D01*
X60718Y347726D01*
X60862Y347765D01*
X61006Y347809D01*
X61148Y347856D01*
X61288Y347907D01*
X61428Y347961D01*
X61566Y348019D01*
X61702Y348081D01*
X61836Y348147D01*
X61969Y348216D01*
X62100Y348288D01*
X62229Y348364D01*
X62356Y348443D01*
X62481Y348526D01*
X62603Y348612D01*
X62723Y348702D01*
X62841Y348794D01*
X62956Y348889D01*
X63069Y348988D01*
X63179Y349090D01*
X63286Y349194D01*
X63390Y349301D01*
X63492Y349411D01*
X63591Y349524D01*
X63686Y349639D01*
X63778Y349757D01*
X63868Y349877D01*
X63954Y349999D01*
X64037Y350124D01*
X64116Y350251D01*
X64192Y350380D01*
X64264Y350511D01*
X64333Y350644D01*
X64399Y350778D01*
X64461Y350914D01*
X64519Y351052D01*
X64573Y351192D01*
X64624Y351332D01*
X64671Y351474D01*
X64715Y351618D01*
X64754Y351762D01*
X64789Y351908D01*
X64821Y352054D01*
X64849Y352201D01*
X64873Y352349D01*
X64893Y352497D01*
X64909Y352646D01*
X64920Y352795D01*
X64928Y352944D01*
X64932Y353094D01*
X64789Y353094D01*
X64786Y352948D01*
X64778Y352803D01*
X64766Y352657D01*
X64750Y352512D01*
X64731Y352368D01*
X64708Y352224D01*
X64681Y352081D01*
X64650Y351938D01*
X64615Y351797D01*
X64577Y351656D01*
X64535Y351516D01*
X64489Y351378D01*
X64439Y351241D01*
X64386Y351105D01*
X64329Y350971D01*
X64269Y350838D01*
X64205Y350707D01*
X64138Y350578D01*
X64067Y350450D01*
X63993Y350325D01*
X63916Y350201D01*
X63835Y350080D01*
X63752Y349960D01*
X63665Y349843D01*
X63575Y349729D01*
X63482Y349616D01*
X63386Y349507D01*
X63287Y349400D01*
X63185Y349295D01*
X63080Y349193D01*
X62973Y349094D01*
X62864Y348998D01*
X62751Y348905D01*
X62637Y348815D01*
X62520Y348728D01*
X62400Y348645D01*
X62279Y348564D01*
X62155Y348487D01*
X62030Y348413D01*
X61902Y348342D01*
X61773Y348275D01*
X61642Y348211D01*
X61509Y348151D01*
X61375Y348094D01*
X61239Y348041D01*
X61102Y347991D01*
X60964Y347945D01*
X60824Y347903D01*
X60683Y347865D01*
X60542Y347830D01*
X60399Y347799D01*
X60256Y347772D01*
X60112Y347749D01*
X59968Y347730D01*
X59823Y347714D01*
X59677Y347702D01*
X59532Y347694D01*
X59386Y347691D01*
X59386Y347834D01*
X59530Y347838D01*
X59675Y347845D01*
X59818Y347857D01*
X59962Y347873D01*
X60105Y347893D01*
X60248Y347916D01*
X60389Y347943D01*
X60530Y347974D01*
X60671Y348009D01*
X60810Y348048D01*
X60948Y348090D01*
X61084Y348137D01*
X61220Y348186D01*
X61354Y348240D01*
X61487Y348297D01*
X61618Y348358D01*
X61747Y348422D01*
X61875Y348490D01*
X62000Y348561D01*
X62124Y348635D01*
X62246Y348713D01*
X62365Y348794D01*
X62483Y348878D01*
X62598Y348966D01*
X62710Y349056D01*
X62820Y349150D01*
X62928Y349246D01*
X63032Y349345D01*
X63135Y349448D01*
X63234Y349552D01*
X63330Y349660D01*
X63424Y349770D01*
X63514Y349882D01*
X63602Y349997D01*
X63686Y350115D01*
X63767Y350234D01*
X63845Y350356D01*
X63919Y350480D01*
X63990Y350605D01*
X64058Y350733D01*
X64122Y350862D01*
X64183Y350993D01*
X64240Y351126D01*
X64294Y351260D01*
X64343Y351396D01*
X64390Y351532D01*
X64432Y351670D01*
X64471Y351809D01*
X64506Y351950D01*
X64537Y352091D01*
X64564Y352232D01*
X64587Y352375D01*
X64607Y352518D01*
X64623Y352662D01*
X64635Y352805D01*
X64642Y352950D01*
X64646Y353094D01*
X64503Y353094D01*
X64499Y352951D01*
X64491Y352808D01*
X64479Y352666D01*
X64464Y352524D01*
X64444Y352382D01*
X64420Y352241D01*
X64393Y352101D01*
X64361Y351961D01*
X64326Y351823D01*
X64287Y351685D01*
X64245Y351549D01*
X64198Y351414D01*
X64148Y351280D01*
X64094Y351147D01*
X64036Y351016D01*
X63975Y350887D01*
X63911Y350760D01*
X63843Y350634D01*
X63771Y350510D01*
X63696Y350388D01*
X63618Y350269D01*
X63537Y350151D01*
X63452Y350036D01*
X63364Y349923D01*
X63273Y349813D01*
X63179Y349705D01*
X63082Y349600D01*
X62983Y349497D01*
X62880Y349398D01*
X62775Y349301D01*
X62667Y349207D01*
X62557Y349116D01*
X62444Y349028D01*
X62329Y348943D01*
X62211Y348862D01*
X62092Y348784D01*
X61970Y348709D01*
X61846Y348637D01*
X61720Y348569D01*
X61593Y348505D01*
X61464Y348444D01*
X61333Y348386D01*
X61200Y348332D01*
X61066Y348282D01*
X60931Y348235D01*
X60795Y348193D01*
X60657Y348154D01*
X60519Y348119D01*
X60379Y348087D01*
X60239Y348060D01*
X60098Y348036D01*
X59956Y348016D01*
X59814Y348001D01*
X59672Y347989D01*
X59529Y347981D01*
X59386Y347977D01*
X59386Y348120D01*
X59527Y348124D01*
X59669Y348132D01*
X59810Y348144D01*
X59950Y348160D01*
X60090Y348180D01*
X60230Y348203D01*
X60369Y348231D01*
X60506Y348263D01*
X60643Y348298D01*
X60779Y348337D01*
X60914Y348381D01*
X61048Y348427D01*
X61180Y348478D01*
X61311Y348532D01*
X61440Y348590D01*
X61567Y348651D01*
X61693Y348716D01*
X61817Y348785D01*
X61938Y348857D01*
X62058Y348932D01*
X62176Y349011D01*
X62291Y349093D01*
X62404Y349178D01*
X62515Y349266D01*
X62623Y349357D01*
X62728Y349452D01*
X62831Y349549D01*
X62931Y349649D01*
X63028Y349752D01*
X63123Y349857D01*
X63214Y349965D01*
X63302Y350076D01*
X63387Y350189D01*
X63469Y350304D01*
X63548Y350422D01*
X63623Y350542D01*
X63695Y350663D01*
X63764Y350787D01*
X63829Y350913D01*
X63890Y351040D01*
X63948Y351169D01*
X64002Y351300D01*
X64053Y351432D01*
X64099Y351566D01*
X64143Y351701D01*
X64182Y351837D01*
X64217Y351974D01*
X64249Y352111D01*
X64277Y352250D01*
X64300Y352390D01*
X64320Y352530D01*
X64336Y352670D01*
X64348Y352811D01*
X64356Y352953D01*
X64360Y353094D01*
X64217Y353094D01*
X64213Y352957D01*
X64205Y352819D01*
X64194Y352683D01*
X64178Y352546D01*
X64159Y352410D01*
X64136Y352275D01*
X64109Y352140D01*
X64078Y352006D01*
X64044Y351873D01*
X64005Y351741D01*
X63963Y351610D01*
X63918Y351480D01*
X63869Y351352D01*
X63816Y351225D01*
X63760Y351100D01*
X63700Y350976D01*
X63637Y350854D01*
X63571Y350734D01*
X63501Y350615D01*
X63428Y350499D01*
X63351Y350385D01*
X63272Y350273D01*
X63189Y350163D01*
X63103Y350056D01*
X63015Y349951D01*
X62923Y349848D01*
X62829Y349748D01*
X62732Y349651D01*
X62632Y349557D01*
X62529Y349465D01*
X62424Y349377D01*
X62317Y349291D01*
X62207Y349208D01*
X62095Y349129D01*
X61981Y349052D01*
X61865Y348979D01*
X61746Y348909D01*
X61626Y348843D01*
X61504Y348780D01*
X61380Y348720D01*
X61255Y348664D01*
X61128Y348611D01*
X61000Y348562D01*
X60870Y348517D01*
X60739Y348475D01*
X60607Y348436D01*
X60474Y348402D01*
X60340Y348371D01*
X60205Y348344D01*
X60070Y348321D01*
X59934Y348302D01*
X59797Y348286D01*
X59661Y348275D01*
X59523Y348267D01*
X59386Y348263D01*
X59386Y348406D01*
X59522Y348410D01*
X59657Y348418D01*
X59793Y348429D01*
X59927Y348445D01*
X60062Y348465D01*
X60196Y348488D01*
X60329Y348515D01*
X60461Y348546D01*
X60592Y348581D01*
X60722Y348619D01*
X60851Y348661D01*
X60979Y348707D01*
X61106Y348756D01*
X61231Y348809D01*
X61354Y348866D01*
X61476Y348926D01*
X61596Y348989D01*
X61714Y349056D01*
X61831Y349126D01*
X61945Y349200D01*
X62057Y349276D01*
X62167Y349356D01*
X62274Y349439D01*
X62379Y349525D01*
X62482Y349614D01*
X62582Y349706D01*
X62679Y349801D01*
X62774Y349898D01*
X62866Y349998D01*
X62955Y350101D01*
X63041Y350206D01*
X63124Y350313D01*
X63204Y350423D01*
X63280Y350535D01*
X63354Y350649D01*
X63424Y350766D01*
X63491Y350884D01*
X63554Y351004D01*
X63614Y351126D01*
X63671Y351249D01*
X63724Y351374D01*
X63773Y351501D01*
X63819Y351629D01*
X63861Y351758D01*
X63899Y351888D01*
X63934Y352019D01*
X63965Y352151D01*
X63992Y352284D01*
X64015Y352418D01*
X64035Y352553D01*
X64051Y352687D01*
X64062Y352823D01*
X64070Y352958D01*
X64074Y353094D01*
X63931Y353094D01*
X63927Y352960D01*
X63919Y352826D01*
X63907Y352693D01*
X63891Y352559D01*
X63872Y352427D01*
X63848Y352295D01*
X63821Y352163D01*
X63790Y352033D01*
X63755Y351903D01*
X63716Y351775D01*
X63674Y351648D01*
X63628Y351522D01*
X63578Y351397D01*
X63525Y351274D01*
X63468Y351153D01*
X63408Y351033D01*
X63344Y350915D01*
X63277Y350799D01*
X63207Y350685D01*
X63133Y350572D01*
X63056Y350463D01*
X62976Y350355D01*
X62893Y350250D01*
X62807Y350147D01*
X62717Y350047D01*
X62625Y349950D01*
X62530Y349855D01*
X62433Y349763D01*
X62333Y349673D01*
X62230Y349587D01*
X62125Y349504D01*
X62017Y349424D01*
X61908Y349347D01*
X61795Y349273D01*
X61681Y349203D01*
X61565Y349136D01*
X61447Y349072D01*
X61327Y349012D01*
X61206Y348955D01*
X61083Y348902D01*
X60958Y348852D01*
X60832Y348806D01*
X60705Y348764D01*
X60577Y348725D01*
X60447Y348690D01*
X60317Y348659D01*
X60185Y348632D01*
X60053Y348608D01*
X59921Y348589D01*
X59787Y348573D01*
X59654Y348561D01*
X59520Y348553D01*
X59386Y348549D01*
X59386Y348692D01*
X59518Y348696D01*
X59650Y348704D01*
X59782Y348716D01*
X59914Y348732D01*
X60045Y348752D01*
X60175Y348775D01*
X60304Y348803D01*
X60433Y348834D01*
X60561Y348869D01*
X60687Y348908D01*
X60812Y348951D01*
X60936Y348997D01*
X61059Y349047D01*
X61180Y349100D01*
X61300Y349157D01*
X61417Y349218D01*
X61533Y349282D01*
X61647Y349349D01*
X61759Y349420D01*
X61869Y349494D01*
X61976Y349571D01*
X62081Y349651D01*
X62184Y349735D01*
X62284Y349821D01*
X62382Y349911D01*
X62477Y350003D01*
X62569Y350098D01*
X62659Y350196D01*
X62745Y350296D01*
X62829Y350399D01*
X62909Y350504D01*
X62986Y350611D01*
X63060Y350721D01*
X63131Y350833D01*
X63198Y350947D01*
X63262Y351063D01*
X63323Y351180D01*
X63380Y351300D01*
X63433Y351421D01*
X63483Y351544D01*
X63529Y351668D01*
X63572Y351793D01*
X63611Y351919D01*
X63646Y352047D01*
X63677Y352176D01*
X63705Y352305D01*
X63728Y352435D01*
X63748Y352566D01*
X63764Y352698D01*
X63776Y352830D01*
X63784Y352962D01*
X63788Y353094D01*
D21*
X39752Y359520D02*
X39752Y367140D01*
X39752Y359520D02*
X39752Y351900D01*
X46102Y359520D02*
X46102Y367140D01*
X46102Y359520D02*
X46102Y351900D01*
D15*
X46102Y359520D02*
X55500Y359520D01*
X39752Y359520D02*
X30100Y359520D01*
D14*
X29472Y383658D02*
X27565Y385565D01*
X23752Y385565D01*
X21845Y383658D01*
X21845Y376032D01*
X23752Y374125D01*
X27565Y374125D01*
X29472Y376032D01*
X33539Y374125D02*
X41165Y374125D01*
X33539Y374125D02*
X41165Y381752D01*
X41165Y383658D01*
X39259Y385565D01*
X35446Y385565D01*
X33539Y383658D01*
D22*
X39900Y435480D02*
X39900Y488880D01*
X10900Y488880D01*
X10900Y435480D01*
X39900Y435480D01*
D15*
X14400Y436580D02*
X14400Y487780D01*
D17*
X7112Y442544D02*
X-4582Y434748D01*
X-4582Y442544D02*
X7112Y434748D01*
X-684Y446442D02*
X-4582Y450340D01*
X7112Y450340D01*
X7112Y446442D02*
X7112Y454238D01*
D12*
X38200Y386730D02*
X48360Y386730D01*
X5580Y400700D02*
X5588Y401314D01*
X5610Y401927D01*
X5648Y402539D01*
X5700Y403150D01*
X5768Y403760D01*
X5851Y404368D01*
X5948Y404974D01*
X6060Y405577D01*
X6187Y406178D01*
X6329Y406775D01*
X6486Y407368D01*
X6656Y407957D01*
X6842Y408542D01*
X7041Y409122D01*
X7255Y409697D01*
X7483Y410267D01*
X7725Y410831D01*
X7980Y411389D01*
X8249Y411940D01*
X8532Y412485D01*
X8828Y413022D01*
X9137Y413553D01*
X9459Y414075D01*
X9793Y414589D01*
X10140Y415095D01*
X10500Y415592D01*
X10871Y416081D01*
X11255Y416560D01*
X11650Y417029D01*
X12056Y417489D01*
X12474Y417939D01*
X12902Y418378D01*
X13341Y418806D01*
X13791Y419224D01*
X14251Y419630D01*
X14720Y420025D01*
X15199Y420409D01*
X15688Y420780D01*
X16185Y421140D01*
X16691Y421487D01*
X17205Y421821D01*
X17727Y422143D01*
X18258Y422452D01*
X18795Y422748D01*
X19340Y423031D01*
X19891Y423300D01*
X20449Y423555D01*
X21013Y423797D01*
X21583Y424025D01*
X22158Y424239D01*
X22738Y424438D01*
X23323Y424624D01*
X23912Y424794D01*
X24505Y424951D01*
X25102Y425093D01*
X25703Y425220D01*
X26306Y425332D01*
X26912Y425429D01*
X27520Y425512D01*
X28130Y425580D01*
X28741Y425632D01*
X29353Y425670D01*
X29966Y425692D01*
X30580Y425700D01*
X31194Y425692D01*
X31807Y425670D01*
X32419Y425632D01*
X33030Y425580D01*
X33640Y425512D01*
X34248Y425429D01*
X34854Y425332D01*
X35457Y425220D01*
X36058Y425093D01*
X36655Y424951D01*
X37248Y424794D01*
X37837Y424624D01*
X38422Y424438D01*
X39002Y424239D01*
X39577Y424025D01*
X40147Y423797D01*
X40711Y423555D01*
X41269Y423300D01*
X41820Y423031D01*
X42365Y422748D01*
X42902Y422452D01*
X43433Y422143D01*
X43955Y421821D01*
X44469Y421487D01*
X44975Y421140D01*
X45472Y420780D01*
X45961Y420409D01*
X46440Y420025D01*
X46909Y419630D01*
X47369Y419224D01*
X47819Y418806D01*
X48258Y418378D01*
X48686Y417939D01*
X49104Y417489D01*
X49510Y417029D01*
X49905Y416560D01*
X50289Y416081D01*
X50660Y415592D01*
X51020Y415095D01*
X51367Y414589D01*
X51701Y414075D01*
X52023Y413553D01*
X52332Y413022D01*
X52628Y412485D01*
X52911Y411940D01*
X53180Y411389D01*
X53435Y410831D01*
X53677Y410267D01*
X53905Y409697D01*
X54119Y409122D01*
X54318Y408542D01*
X54504Y407957D01*
X54674Y407368D01*
X54831Y406775D01*
X54973Y406178D01*
X55100Y405577D01*
X55212Y404974D01*
X55309Y404368D01*
X55392Y403760D01*
X55460Y403150D01*
X55512Y402539D01*
X55550Y401927D01*
X55572Y401314D01*
X55580Y400700D01*
X55572Y400086D01*
X55550Y399473D01*
X55512Y398861D01*
X55460Y398250D01*
X55392Y397640D01*
X55309Y397032D01*
X55212Y396426D01*
X55100Y395823D01*
X54973Y395222D01*
X54831Y394625D01*
X54674Y394032D01*
X54504Y393443D01*
X54318Y392858D01*
X54119Y392278D01*
X53905Y391703D01*
X53677Y391133D01*
X53435Y390569D01*
X53180Y390011D01*
X52911Y389460D01*
X52628Y388915D01*
X52332Y388378D01*
X52023Y387847D01*
X51701Y387325D01*
X51367Y386811D01*
X51020Y386305D01*
X50660Y385808D01*
X50289Y385319D01*
X49905Y384840D01*
X49510Y384371D01*
X49104Y383911D01*
X48686Y383461D01*
X48258Y383022D01*
X47819Y382594D01*
X47369Y382176D01*
X46909Y381770D01*
X46440Y381375D01*
X45961Y380991D01*
X45472Y380620D01*
X44975Y380260D01*
X44469Y379913D01*
X43955Y379579D01*
X43433Y379257D01*
X42902Y378948D01*
X42365Y378652D01*
X41820Y378369D01*
X41269Y378100D01*
X40711Y377845D01*
X40147Y377603D01*
X39577Y377375D01*
X39002Y377161D01*
X38422Y376962D01*
X37837Y376776D01*
X37248Y376606D01*
X36655Y376449D01*
X36058Y376307D01*
X35457Y376180D01*
X34854Y376068D01*
X34248Y375971D01*
X33640Y375888D01*
X33030Y375820D01*
X32419Y375768D01*
X31807Y375730D01*
X31194Y375708D01*
X30580Y375700D01*
X29966Y375708D01*
X29353Y375730D01*
X28741Y375768D01*
X28130Y375820D01*
X27520Y375888D01*
X26912Y375971D01*
X26306Y376068D01*
X25703Y376180D01*
X25102Y376307D01*
X24505Y376449D01*
X23912Y376606D01*
X23323Y376776D01*
X22738Y376962D01*
X22158Y377161D01*
X21583Y377375D01*
X21013Y377603D01*
X20449Y377845D01*
X19891Y378100D01*
X19340Y378369D01*
X18795Y378652D01*
X18258Y378948D01*
X17727Y379257D01*
X17205Y379579D01*
X16691Y379913D01*
X16185Y380260D01*
X15688Y380620D01*
X15199Y380991D01*
X14720Y381375D01*
X14251Y381770D01*
X13791Y382176D01*
X13341Y382594D01*
X12902Y383022D01*
X12474Y383461D01*
X12056Y383911D01*
X11650Y384371D01*
X11255Y384840D01*
X10871Y385319D01*
X10500Y385808D01*
X10140Y386305D01*
X9793Y386811D01*
X9459Y387325D01*
X9137Y387847D01*
X8828Y388378D01*
X8532Y388915D01*
X8249Y389460D01*
X7980Y390011D01*
X7725Y390569D01*
X7483Y391133D01*
X7255Y391703D01*
X7041Y392278D01*
X6842Y392858D01*
X6656Y393443D01*
X6486Y394032D01*
X6329Y394625D01*
X6187Y395222D01*
X6060Y395823D01*
X5948Y396426D01*
X5851Y397032D01*
X5768Y397640D01*
X5700Y398250D01*
X5648Y398861D01*
X5610Y399473D01*
X5588Y400086D01*
X5580Y400700D01*
D13*
X34019Y385336D02*
X34655Y384701D01*
X34019Y385336D02*
X32748Y385336D01*
X32113Y384701D01*
X32113Y382159D01*
X32748Y381523D01*
X34019Y381523D01*
X34655Y382159D01*
X35855Y384065D02*
X37126Y385336D01*
X37126Y381523D01*
X35855Y381523D02*
X38397Y381523D01*
D15*
X464820Y379730D02*
X464820Y392430D01*
X471170Y398780D01*
X483870Y398780D01*
X490220Y392430D01*
X471170Y398780D02*
X464820Y405130D01*
X464820Y417830D01*
X471170Y424180D01*
X483870Y424180D01*
X490220Y417830D01*
X490220Y405130D01*
X483870Y398780D01*
X464820Y354330D02*
X471170Y347980D01*
X464820Y354330D02*
X464820Y367030D01*
X471170Y373380D01*
X483870Y373380D01*
X490220Y367030D01*
X490220Y354330D01*
X483870Y347980D01*
X471170Y373380D02*
X464820Y379730D01*
X483870Y373380D02*
X490220Y379730D01*
X490220Y392430D01*
X464820Y316230D02*
X464820Y303530D01*
X464820Y316230D02*
X471170Y322580D01*
X483870Y322580D01*
X490220Y316230D01*
X471170Y322580D02*
X464820Y328930D01*
X464820Y341630D01*
X471170Y347980D01*
X483870Y347980D01*
X490220Y341630D01*
X490220Y328930D01*
X483870Y322580D01*
X483870Y297180D02*
X471170Y297180D01*
X464820Y303530D01*
X483870Y297180D02*
X490220Y303530D01*
X490220Y316230D01*
X464820Y430530D02*
X464820Y443230D01*
X471170Y449580D01*
X483870Y449580D01*
X490220Y443230D01*
X471170Y424180D02*
X464820Y430530D01*
X483870Y424180D02*
X490220Y430530D01*
X490220Y443230D01*
D14*
X458597Y298960D02*
X456690Y297053D01*
X458597Y298960D02*
X458597Y300866D01*
X456690Y302773D01*
X447157Y302773D01*
X447157Y300866D02*
X447157Y304680D01*
X447157Y308747D02*
X458597Y308747D01*
X447157Y308747D02*
X447157Y314467D01*
X449064Y316373D01*
X452877Y316373D01*
X454784Y314467D01*
X454784Y308747D01*
X450971Y320441D02*
X447157Y324254D01*
X458597Y324254D01*
X458597Y320441D02*
X458597Y328067D01*
D22*
X292370Y205670D02*
X281670Y205670D01*
X287020Y211020D02*
X287020Y200320D01*
X281670Y20920D02*
X292370Y20920D01*
D14*
X259445Y62655D02*
X259445Y74095D01*
X259445Y62655D02*
X267072Y62655D01*
X271139Y70282D02*
X273046Y70282D01*
X273046Y62655D01*
X274952Y62655D02*
X271139Y62655D01*
X273046Y74095D02*
X273046Y76001D01*
X280842Y72188D02*
X280842Y64562D01*
X282748Y62655D01*
X282748Y70282D02*
X278935Y70282D01*
X286731Y64562D02*
X286731Y62655D01*
X286731Y64562D02*
X288638Y64562D01*
X288638Y62655D01*
X286731Y62655D01*
X292578Y72188D02*
X294485Y74095D01*
X298298Y74095D01*
X300204Y72188D01*
X300204Y70282D01*
X298298Y68375D01*
X296391Y68375D01*
X298298Y68375D02*
X300204Y66468D01*
X300204Y64562D01*
X298298Y62655D01*
X294485Y62655D01*
X292578Y64562D01*
X304272Y66468D02*
X304272Y74095D01*
X304272Y66468D02*
X308085Y62655D01*
X311898Y66468D01*
X311898Y74095D01*
X319520Y256520D02*
X254520Y256520D01*
X177020Y119220D02*
X177053Y121920D01*
X177152Y124617D01*
X177318Y127312D01*
X177550Y130002D01*
X177847Y132685D01*
X178211Y135360D01*
X178639Y138026D01*
X179134Y140680D01*
X179693Y143321D01*
X180317Y145948D01*
X181005Y148558D01*
X181757Y151151D01*
X182572Y153725D01*
X183450Y156278D01*
X184391Y158808D01*
X185393Y161315D01*
X186457Y163797D01*
X187581Y166251D01*
X188765Y168677D01*
X190009Y171074D01*
X191310Y173439D01*
X192670Y175771D01*
X194086Y178070D01*
X195558Y180333D01*
X197086Y182559D01*
X198667Y184747D01*
X200302Y186895D01*
X201989Y189003D01*
X203727Y191069D01*
X205515Y193091D01*
X207353Y195069D01*
X209238Y197002D01*
X211171Y198887D01*
X213149Y200725D01*
X215171Y202513D01*
X217237Y204251D01*
X219345Y205938D01*
X221493Y207573D01*
X223681Y209154D01*
X225907Y210682D01*
X228170Y212154D01*
X230469Y213570D01*
X232801Y214930D01*
X235166Y216231D01*
X237563Y217475D01*
X239989Y218659D01*
X242443Y219783D01*
X244925Y220847D01*
X247432Y221849D01*
X249962Y222790D01*
X252515Y223668D01*
X255089Y224483D01*
X257682Y225235D01*
X260292Y225923D01*
X262919Y226547D01*
X265560Y227106D01*
X268214Y227601D01*
X270880Y228029D01*
X273555Y228393D01*
X276238Y228690D01*
X278928Y228922D01*
X281623Y229088D01*
X284320Y229187D01*
X287020Y229220D01*
X289720Y229187D01*
X292417Y229088D01*
X295112Y228922D01*
X297802Y228690D01*
X300485Y228393D01*
X303160Y228029D01*
X305826Y227601D01*
X308480Y227106D01*
X311121Y226547D01*
X313748Y225923D01*
X316358Y225235D01*
X318951Y224483D01*
X321525Y223668D01*
X324078Y222790D01*
X326608Y221849D01*
X329115Y220847D01*
X331597Y219783D01*
X334051Y218659D01*
X336477Y217475D01*
X338874Y216231D01*
X341239Y214930D01*
X343571Y213570D01*
X345870Y212154D01*
X348133Y210682D01*
X350359Y209154D01*
X352547Y207573D01*
X354695Y205938D01*
X356803Y204251D01*
X358869Y202513D01*
X360891Y200725D01*
X362869Y198887D01*
X364802Y197002D01*
X366687Y195069D01*
X368525Y193091D01*
X370313Y191069D01*
X372051Y189003D01*
X373738Y186895D01*
X375373Y184747D01*
X376954Y182559D01*
X378482Y180333D01*
X379954Y178070D01*
X381370Y175771D01*
X382730Y173439D01*
X384031Y171074D01*
X385275Y168677D01*
X386459Y166251D01*
X387583Y163797D01*
X388647Y161315D01*
X389649Y158808D01*
X390590Y156278D01*
X391468Y153725D01*
X392283Y151151D01*
X393035Y148558D01*
X393723Y145948D01*
X394347Y143321D01*
X394906Y140680D01*
X395401Y138026D01*
X395829Y135360D01*
X396193Y132685D01*
X396490Y130002D01*
X396722Y127312D01*
X396888Y124617D01*
X396987Y121920D01*
X397020Y119220D01*
X396987Y116520D01*
X396888Y113823D01*
X396722Y111128D01*
X396490Y108438D01*
X396193Y105755D01*
X395829Y103080D01*
X395401Y100414D01*
X394906Y97760D01*
X394347Y95119D01*
X393723Y92492D01*
X393035Y89882D01*
X392283Y87289D01*
X391468Y84715D01*
X390590Y82162D01*
X389649Y79632D01*
X388647Y77125D01*
X387583Y74643D01*
X386459Y72189D01*
X385275Y69763D01*
X384031Y67366D01*
X382730Y65001D01*
X381370Y62669D01*
X379954Y60370D01*
X378482Y58107D01*
X376954Y55881D01*
X375373Y53693D01*
X373738Y51545D01*
X372051Y49437D01*
X370313Y47371D01*
X368525Y45349D01*
X366687Y43371D01*
X364802Y41438D01*
X362869Y39553D01*
X360891Y37715D01*
X358869Y35927D01*
X356803Y34189D01*
X354695Y32502D01*
X352547Y30867D01*
X350359Y29286D01*
X348133Y27758D01*
X345870Y26286D01*
X343571Y24870D01*
X341239Y23510D01*
X338874Y22209D01*
X336477Y20965D01*
X334051Y19781D01*
X331597Y18657D01*
X329115Y17593D01*
X326608Y16591D01*
X324078Y15650D01*
X321525Y14772D01*
X318951Y13957D01*
X316358Y13205D01*
X313748Y12517D01*
X311121Y11893D01*
X308480Y11334D01*
X305826Y10839D01*
X303160Y10411D01*
X300485Y10047D01*
X297802Y9750D01*
X295112Y9518D01*
X292417Y9352D01*
X289720Y9253D01*
X287020Y9220D01*
X284320Y9253D01*
X281623Y9352D01*
X278928Y9518D01*
X276238Y9750D01*
X273555Y10047D01*
X270880Y10411D01*
X268214Y10839D01*
X265560Y11334D01*
X262919Y11893D01*
X260292Y12517D01*
X257682Y13205D01*
X255089Y13957D01*
X252515Y14772D01*
X249962Y15650D01*
X247432Y16591D01*
X244925Y17593D01*
X242443Y18657D01*
X239989Y19781D01*
X237563Y20965D01*
X235166Y22209D01*
X232801Y23510D01*
X230469Y24870D01*
X228170Y26286D01*
X225907Y27758D01*
X223681Y29286D01*
X221493Y30867D01*
X219345Y32502D01*
X217237Y34189D01*
X215171Y35927D01*
X213149Y37715D01*
X211171Y39553D01*
X209238Y41438D01*
X207353Y43371D01*
X205515Y45349D01*
X203727Y47371D01*
X201989Y49437D01*
X200302Y51545D01*
X198667Y53693D01*
X197086Y55881D01*
X195558Y58107D01*
X194086Y60370D01*
X192670Y62669D01*
X191310Y65001D01*
X190009Y67366D01*
X188765Y69763D01*
X187581Y72189D01*
X186457Y74643D01*
X185393Y77125D01*
X184391Y79632D01*
X183450Y82162D01*
X182572Y84715D01*
X181757Y87289D01*
X181005Y89882D01*
X180317Y92492D01*
X179693Y95119D01*
X179134Y97760D01*
X178639Y100414D01*
X178211Y103080D01*
X177847Y105755D01*
X177550Y108438D01*
X177318Y111128D01*
X177152Y113823D01*
X177053Y116520D01*
X177020Y119220D01*
X254020Y224520D02*
X254020Y256520D01*
X320020Y256520D02*
X320020Y224520D01*
X264975Y171195D02*
X266882Y169288D01*
X264975Y171195D02*
X261162Y171195D01*
X259255Y169288D01*
X259255Y161662D01*
X261162Y159755D01*
X264975Y159755D01*
X266882Y161662D01*
X266882Y165475D01*
X263068Y165475D01*
X270949Y159755D02*
X278575Y159755D01*
X270949Y159755D02*
X278575Y167382D01*
X278575Y169288D01*
X276669Y171195D01*
X272856Y171195D01*
X270949Y169288D01*
X188704Y128788D02*
X186797Y130695D01*
X182984Y130695D01*
X181077Y128788D01*
X181077Y121162D01*
X182984Y119255D01*
X186797Y119255D01*
X188704Y121162D01*
X192771Y119255D02*
X192771Y130695D01*
X198491Y130695D01*
X200398Y128788D01*
X200398Y124975D01*
X198491Y123068D01*
X192771Y123068D01*
X196584Y123068D02*
X200398Y119255D01*
X204465Y119255D02*
X212092Y119255D01*
X204465Y119255D02*
X212092Y126882D01*
X212092Y128788D01*
X210185Y130695D01*
X206372Y130695D01*
X204465Y128788D01*
X216159Y128788D02*
X216159Y121162D01*
X216159Y128788D02*
X218066Y130695D01*
X221879Y130695D01*
X223785Y128788D01*
X223785Y121162D01*
X221879Y119255D01*
X218066Y119255D01*
X216159Y121162D01*
X223785Y128788D01*
X227853Y128788D02*
X229760Y130695D01*
X233573Y130695D01*
X235479Y128788D01*
X235479Y126882D01*
X233573Y124975D01*
X231666Y124975D01*
X233573Y124975D02*
X235479Y123068D01*
X235479Y121162D01*
X233573Y119255D01*
X229760Y119255D01*
X227853Y121162D01*
X239547Y119255D02*
X247173Y119255D01*
X239547Y119255D02*
X247173Y126882D01*
X247173Y128788D01*
X245267Y130695D01*
X241454Y130695D01*
X239547Y128788D01*
X251241Y126882D02*
X251241Y119255D01*
X251241Y126882D02*
X255054Y130695D01*
X258867Y126882D01*
X258867Y119255D01*
X258867Y124975D02*
X251241Y124975D01*
X262935Y119255D02*
X262935Y130695D01*
X266748Y126882D01*
X270561Y130695D01*
X270561Y119255D01*
X274629Y119255D02*
X274629Y126882D01*
X278442Y130695D01*
X282255Y126882D01*
X282255Y119255D01*
X282255Y124975D02*
X274629Y124975D01*
X286323Y130695D02*
X293949Y130695D01*
X293949Y128788D01*
X286323Y121162D01*
X286323Y119255D01*
X293949Y119255D01*
X299923Y130695D02*
X303737Y130695D01*
X299923Y130695D02*
X298017Y128788D01*
X298017Y121162D01*
X299923Y119255D01*
X303737Y119255D01*
X305643Y121162D01*
X305643Y128788D01*
X303737Y130695D01*
X309711Y130695D02*
X309711Y119255D01*
X317337Y119255D02*
X309711Y130695D01*
X317337Y130695D02*
X317337Y119255D01*
D15*
X434848Y385064D02*
X434848Y463296D01*
X431546Y463296D01*
X327152Y463296D02*
X327152Y385064D01*
X330454Y385064D01*
X431546Y385064D02*
X434848Y385064D01*
X330454Y463296D02*
X327152Y463296D01*
D11*
X330114Y377408D02*
X322148Y369443D01*
X322148Y377408D02*
X330114Y369443D01*
X326131Y369443D02*
X326131Y377408D01*
X330114Y373426D02*
X322148Y373426D01*
X375021Y391795D02*
X384978Y391795D01*
X386969Y393786D01*
X386969Y397769D01*
X384978Y399760D01*
X375021Y399760D01*
X377012Y403489D02*
X375021Y405480D01*
X375021Y409463D01*
X377012Y411454D01*
X379004Y411454D01*
X380995Y409463D01*
X380995Y407472D01*
X380995Y409463D02*
X382986Y411454D01*
X384978Y411454D01*
X386969Y409463D01*
X386969Y405480D01*
X384978Y403489D01*
D17*
X246360Y332242D02*
X246360Y320548D01*
X246360Y332242D02*
X252207Y332242D01*
X254156Y330293D01*
X254156Y326395D01*
X252207Y324446D01*
X246360Y324446D01*
X250258Y324446D02*
X254156Y320548D01*
X258054Y332242D02*
X265850Y332242D01*
X265850Y330293D01*
X258054Y322497D01*
X258054Y320548D01*
D23*
X434885Y39895D03*
X434885Y26145D03*
D24*
X431010Y33020D03*
D12*
X473710Y190500D02*
X480060Y196850D01*
X480060Y209550D02*
X473710Y215900D01*
X480060Y222250D01*
X480060Y234950D02*
X473710Y241300D01*
X480060Y247650D01*
X480060Y260350D02*
X473710Y266700D01*
X473710Y190500D02*
X435610Y190500D01*
X429260Y196850D01*
X429260Y209550D01*
X435610Y215900D01*
X429260Y222250D01*
X429260Y234950D01*
X435610Y241300D01*
X429260Y247650D01*
X429260Y260350D01*
X435610Y266700D01*
X435610Y215900D02*
X473710Y215900D01*
X473710Y241300D02*
X435610Y241300D01*
X435610Y266700D02*
X473710Y266700D01*
X480060Y260350D02*
X480060Y247650D01*
X480060Y234950D02*
X480060Y222250D01*
X480060Y209550D02*
X480060Y196850D01*
X483410Y196850D02*
X483410Y209550D01*
D14*
X446484Y268859D02*
X444874Y268859D01*
X445679Y268859D02*
X445679Y273689D01*
X444874Y273689D02*
X446484Y273689D01*
X451031Y273689D02*
X451836Y272884D01*
X451031Y273689D02*
X449421Y273689D01*
X448616Y272884D01*
X448616Y269664D01*
X449421Y268859D01*
X451031Y268859D01*
X451836Y269664D01*
X456644Y273689D02*
X457449Y272884D01*
X456644Y273689D02*
X455034Y273689D01*
X454229Y272884D01*
X454229Y272079D01*
X455034Y271274D01*
X456644Y271274D01*
X457449Y270469D01*
X457449Y269664D01*
X456644Y268859D01*
X455034Y268859D01*
X454229Y269664D01*
X459842Y268859D02*
X459842Y273689D01*
X462257Y273689D01*
X463062Y272884D01*
X463062Y271274D01*
X462257Y270469D01*
X459842Y270469D01*
D12*
X484900Y146840D02*
X484998Y146838D01*
X485096Y146832D01*
X485194Y146823D01*
X485291Y146809D01*
X485388Y146792D01*
X485484Y146771D01*
X485579Y146746D01*
X485673Y146718D01*
X485765Y146685D01*
X485857Y146650D01*
X485947Y146610D01*
X486035Y146568D01*
X486122Y146521D01*
X486206Y146472D01*
X486289Y146419D01*
X486369Y146363D01*
X486448Y146303D01*
X486524Y146241D01*
X486597Y146176D01*
X486668Y146108D01*
X486736Y146037D01*
X486801Y145964D01*
X486863Y145888D01*
X486923Y145809D01*
X486979Y145729D01*
X487032Y145646D01*
X487081Y145562D01*
X487128Y145475D01*
X487170Y145387D01*
X487210Y145297D01*
X487245Y145205D01*
X487278Y145113D01*
X487306Y145019D01*
X487331Y144924D01*
X487352Y144828D01*
X487369Y144731D01*
X487383Y144634D01*
X487392Y144536D01*
X487398Y144438D01*
X487400Y144340D01*
X487400Y89340D01*
X487398Y89242D01*
X487392Y89144D01*
X487383Y89046D01*
X487369Y88949D01*
X487352Y88852D01*
X487331Y88756D01*
X487306Y88661D01*
X487278Y88567D01*
X487245Y88475D01*
X487210Y88383D01*
X487170Y88293D01*
X487128Y88205D01*
X487081Y88118D01*
X487032Y88034D01*
X486979Y87951D01*
X486923Y87871D01*
X486863Y87792D01*
X486801Y87716D01*
X486736Y87643D01*
X486668Y87572D01*
X486597Y87504D01*
X486524Y87439D01*
X486448Y87377D01*
X486369Y87317D01*
X486289Y87261D01*
X486206Y87208D01*
X486122Y87159D01*
X486035Y87112D01*
X485947Y87070D01*
X485857Y87030D01*
X485765Y86995D01*
X485673Y86962D01*
X485579Y86934D01*
X485484Y86909D01*
X485388Y86888D01*
X485291Y86871D01*
X485194Y86857D01*
X485096Y86848D01*
X484998Y86842D01*
X484900Y86840D01*
X454900Y86840D02*
X454802Y86842D01*
X454704Y86848D01*
X454606Y86857D01*
X454509Y86871D01*
X454412Y86888D01*
X454316Y86909D01*
X454221Y86934D01*
X454127Y86962D01*
X454035Y86995D01*
X453943Y87030D01*
X453853Y87070D01*
X453765Y87112D01*
X453678Y87159D01*
X453594Y87208D01*
X453511Y87261D01*
X453431Y87317D01*
X453352Y87377D01*
X453276Y87439D01*
X453203Y87504D01*
X453132Y87572D01*
X453064Y87643D01*
X452999Y87716D01*
X452937Y87792D01*
X452877Y87871D01*
X452821Y87951D01*
X452768Y88034D01*
X452719Y88118D01*
X452672Y88205D01*
X452630Y88293D01*
X452590Y88383D01*
X452555Y88475D01*
X452522Y88567D01*
X452494Y88661D01*
X452469Y88756D01*
X452448Y88852D01*
X452431Y88949D01*
X452417Y89046D01*
X452408Y89144D01*
X452402Y89242D01*
X452400Y89340D01*
X452400Y144340D01*
X452402Y144438D01*
X452408Y144536D01*
X452417Y144634D01*
X452431Y144731D01*
X452448Y144828D01*
X452469Y144924D01*
X452494Y145019D01*
X452522Y145113D01*
X452555Y145205D01*
X452590Y145297D01*
X452630Y145387D01*
X452672Y145475D01*
X452719Y145562D01*
X452768Y145646D01*
X452821Y145729D01*
X452877Y145809D01*
X452937Y145888D01*
X452999Y145964D01*
X453064Y146037D01*
X453132Y146108D01*
X453203Y146176D01*
X453276Y146241D01*
X453352Y146303D01*
X453431Y146363D01*
X453511Y146419D01*
X453594Y146472D01*
X453678Y146521D01*
X453765Y146568D01*
X453853Y146610D01*
X453943Y146650D01*
X454035Y146685D01*
X454127Y146718D01*
X454221Y146746D01*
X454316Y146771D01*
X454412Y146792D01*
X454509Y146809D01*
X454606Y146823D01*
X454704Y146832D01*
X454802Y146838D01*
X454900Y146840D01*
X458900Y146840D01*
X480900Y146840D02*
X484900Y146840D01*
X484900Y86840D02*
X480900Y86840D01*
X458900Y86840D02*
X454900Y86840D01*
X477400Y101840D02*
X477400Y131840D01*
X462400Y131840D02*
X462400Y101840D01*
X462400Y131840D02*
X477400Y131840D01*
X477400Y101840D02*
X462400Y101840D01*
D20*
X314375Y440765D02*
X313003Y440765D01*
X313003Y440766D02*
X312999Y440896D01*
X312991Y441025D01*
X312979Y441155D01*
X312964Y441283D01*
X312944Y441412D01*
X312921Y441539D01*
X312894Y441666D01*
X312863Y441793D01*
X312829Y441918D01*
X312791Y442042D01*
X312749Y442165D01*
X312704Y442286D01*
X312655Y442407D01*
X312602Y442525D01*
X312546Y442642D01*
X312487Y442758D01*
X312424Y442871D01*
X312358Y442983D01*
X312289Y443093D01*
X312216Y443200D01*
X312140Y443306D01*
X312062Y443409D01*
X311980Y443510D01*
X311895Y443608D01*
X311807Y443704D01*
X311717Y443797D01*
X311624Y443887D01*
X311528Y443975D01*
X311430Y444060D01*
X311329Y444142D01*
X311226Y444220D01*
X311120Y444296D01*
X311013Y444369D01*
X310903Y444438D01*
X310791Y444504D01*
X310678Y444567D01*
X310562Y444626D01*
X310445Y444682D01*
X310327Y444735D01*
X310206Y444784D01*
X310085Y444829D01*
X309962Y444871D01*
X309838Y444909D01*
X309713Y444943D01*
X309586Y444974D01*
X309459Y445001D01*
X309332Y445024D01*
X309203Y445044D01*
X309075Y445059D01*
X308945Y445071D01*
X308816Y445079D01*
X308686Y445083D01*
X308685Y446455D01*
X308686Y446455D01*
X308837Y446452D01*
X308988Y446444D01*
X309138Y446432D01*
X309288Y446416D01*
X309438Y446396D01*
X309587Y446373D01*
X309735Y446345D01*
X309883Y446314D01*
X310030Y446278D01*
X310175Y446239D01*
X310320Y446197D01*
X310464Y446150D01*
X310606Y446100D01*
X310747Y446045D01*
X310886Y445988D01*
X311024Y445926D01*
X311160Y445861D01*
X311295Y445793D01*
X311428Y445721D01*
X311558Y445645D01*
X311687Y445566D01*
X311814Y445484D01*
X311938Y445399D01*
X312060Y445310D01*
X312180Y445218D01*
X312297Y445123D01*
X312412Y445025D01*
X312524Y444924D01*
X312633Y444820D01*
X312740Y444713D01*
X312844Y444604D01*
X312945Y444492D01*
X313043Y444377D01*
X313138Y444260D01*
X313230Y444140D01*
X313319Y444018D01*
X313404Y443894D01*
X313486Y443767D01*
X313565Y443638D01*
X313641Y443508D01*
X313713Y443375D01*
X313781Y443240D01*
X313846Y443104D01*
X313908Y442966D01*
X313965Y442827D01*
X314020Y442686D01*
X314070Y442544D01*
X314117Y442400D01*
X314159Y442255D01*
X314198Y442110D01*
X314234Y441963D01*
X314265Y441815D01*
X314293Y441667D01*
X314316Y441518D01*
X314336Y441368D01*
X314352Y441218D01*
X314364Y441068D01*
X314372Y440917D01*
X314375Y440766D01*
X314232Y440766D01*
X314228Y440916D01*
X314220Y441065D01*
X314209Y441214D01*
X314193Y441363D01*
X314173Y441511D01*
X314149Y441659D01*
X314121Y441806D01*
X314089Y441952D01*
X314054Y442098D01*
X314015Y442242D01*
X313971Y442386D01*
X313924Y442528D01*
X313873Y442668D01*
X313819Y442808D01*
X313761Y442946D01*
X313699Y443082D01*
X313633Y443216D01*
X313564Y443349D01*
X313492Y443480D01*
X313416Y443609D01*
X313337Y443736D01*
X313254Y443861D01*
X313168Y443983D01*
X313078Y444103D01*
X312986Y444221D01*
X312891Y444336D01*
X312792Y444449D01*
X312690Y444559D01*
X312586Y444666D01*
X312479Y444770D01*
X312369Y444872D01*
X312256Y444971D01*
X312141Y445066D01*
X312023Y445158D01*
X311903Y445248D01*
X311781Y445334D01*
X311656Y445417D01*
X311529Y445496D01*
X311400Y445572D01*
X311269Y445644D01*
X311136Y445713D01*
X311002Y445779D01*
X310866Y445841D01*
X310728Y445899D01*
X310588Y445953D01*
X310448Y446004D01*
X310306Y446051D01*
X310162Y446095D01*
X310018Y446134D01*
X309872Y446169D01*
X309726Y446201D01*
X309579Y446229D01*
X309431Y446253D01*
X309283Y446273D01*
X309134Y446289D01*
X308985Y446300D01*
X308836Y446308D01*
X308686Y446312D01*
X308686Y446169D01*
X308832Y446166D01*
X308977Y446158D01*
X309123Y446146D01*
X309268Y446130D01*
X309412Y446111D01*
X309556Y446088D01*
X309699Y446061D01*
X309842Y446030D01*
X309983Y445995D01*
X310124Y445957D01*
X310264Y445915D01*
X310402Y445869D01*
X310539Y445819D01*
X310675Y445766D01*
X310809Y445709D01*
X310942Y445649D01*
X311073Y445585D01*
X311202Y445518D01*
X311330Y445447D01*
X311455Y445373D01*
X311579Y445296D01*
X311700Y445215D01*
X311820Y445132D01*
X311937Y445045D01*
X312051Y444955D01*
X312164Y444862D01*
X312273Y444766D01*
X312380Y444667D01*
X312485Y444565D01*
X312587Y444460D01*
X312686Y444353D01*
X312782Y444244D01*
X312875Y444131D01*
X312965Y444017D01*
X313052Y443900D01*
X313135Y443780D01*
X313216Y443659D01*
X313293Y443535D01*
X313367Y443410D01*
X313438Y443282D01*
X313505Y443153D01*
X313569Y443022D01*
X313629Y442889D01*
X313686Y442755D01*
X313739Y442619D01*
X313789Y442482D01*
X313835Y442344D01*
X313877Y442204D01*
X313915Y442063D01*
X313950Y441922D01*
X313981Y441779D01*
X314008Y441636D01*
X314031Y441492D01*
X314050Y441348D01*
X314066Y441203D01*
X314078Y441057D01*
X314086Y440912D01*
X314089Y440766D01*
X313946Y440766D01*
X313942Y440910D01*
X313935Y441055D01*
X313923Y441198D01*
X313907Y441342D01*
X313887Y441485D01*
X313864Y441628D01*
X313837Y441769D01*
X313806Y441910D01*
X313771Y442051D01*
X313732Y442190D01*
X313690Y442328D01*
X313643Y442464D01*
X313594Y442600D01*
X313540Y442734D01*
X313483Y442867D01*
X313422Y442998D01*
X313358Y443127D01*
X313290Y443255D01*
X313219Y443380D01*
X313145Y443504D01*
X313067Y443626D01*
X312986Y443745D01*
X312902Y443863D01*
X312814Y443978D01*
X312724Y444090D01*
X312630Y444200D01*
X312534Y444308D01*
X312435Y444412D01*
X312332Y444515D01*
X312228Y444614D01*
X312120Y444710D01*
X312010Y444804D01*
X311898Y444894D01*
X311783Y444982D01*
X311665Y445066D01*
X311546Y445147D01*
X311424Y445225D01*
X311300Y445299D01*
X311175Y445370D01*
X311047Y445438D01*
X310918Y445502D01*
X310787Y445563D01*
X310654Y445620D01*
X310520Y445674D01*
X310384Y445723D01*
X310248Y445770D01*
X310110Y445812D01*
X309971Y445851D01*
X309830Y445886D01*
X309689Y445917D01*
X309548Y445944D01*
X309405Y445967D01*
X309262Y445987D01*
X309118Y446003D01*
X308975Y446015D01*
X308830Y446022D01*
X308686Y446026D01*
X308686Y445883D01*
X308829Y445879D01*
X308972Y445871D01*
X309114Y445859D01*
X309256Y445844D01*
X309398Y445824D01*
X309539Y445800D01*
X309679Y445773D01*
X309819Y445741D01*
X309957Y445706D01*
X310095Y445667D01*
X310231Y445625D01*
X310366Y445578D01*
X310500Y445528D01*
X310633Y445474D01*
X310764Y445416D01*
X310893Y445355D01*
X311020Y445291D01*
X311146Y445223D01*
X311270Y445151D01*
X311392Y445076D01*
X311511Y444998D01*
X311629Y444917D01*
X311744Y444832D01*
X311857Y444744D01*
X311967Y444653D01*
X312075Y444559D01*
X312180Y444462D01*
X312283Y444363D01*
X312382Y444260D01*
X312479Y444155D01*
X312573Y444047D01*
X312664Y443937D01*
X312752Y443824D01*
X312837Y443709D01*
X312918Y443591D01*
X312996Y443472D01*
X313071Y443350D01*
X313143Y443226D01*
X313211Y443100D01*
X313275Y442973D01*
X313336Y442844D01*
X313394Y442713D01*
X313448Y442580D01*
X313498Y442446D01*
X313545Y442311D01*
X313587Y442175D01*
X313626Y442037D01*
X313661Y441899D01*
X313693Y441759D01*
X313720Y441619D01*
X313744Y441478D01*
X313764Y441336D01*
X313779Y441194D01*
X313791Y441052D01*
X313799Y440909D01*
X313803Y440766D01*
X313660Y440766D01*
X313656Y440907D01*
X313648Y441049D01*
X313636Y441190D01*
X313620Y441330D01*
X313600Y441470D01*
X313577Y441610D01*
X313549Y441749D01*
X313517Y441886D01*
X313482Y442023D01*
X313443Y442159D01*
X313399Y442294D01*
X313353Y442428D01*
X313302Y442560D01*
X313248Y442691D01*
X313190Y442820D01*
X313129Y442947D01*
X313064Y443073D01*
X312995Y443197D01*
X312923Y443318D01*
X312848Y443438D01*
X312769Y443556D01*
X312687Y443671D01*
X312602Y443784D01*
X312514Y443895D01*
X312423Y444003D01*
X312328Y444108D01*
X312231Y444211D01*
X312131Y444311D01*
X312028Y444408D01*
X311923Y444503D01*
X311815Y444594D01*
X311704Y444682D01*
X311591Y444767D01*
X311476Y444849D01*
X311358Y444928D01*
X311238Y445003D01*
X311117Y445075D01*
X310993Y445144D01*
X310867Y445209D01*
X310740Y445270D01*
X310611Y445328D01*
X310480Y445382D01*
X310348Y445433D01*
X310214Y445479D01*
X310079Y445523D01*
X309943Y445562D01*
X309806Y445597D01*
X309669Y445629D01*
X309530Y445657D01*
X309390Y445680D01*
X309250Y445700D01*
X309110Y445716D01*
X308969Y445728D01*
X308827Y445736D01*
X308686Y445740D01*
X308686Y445597D01*
X308823Y445593D01*
X308961Y445585D01*
X309097Y445574D01*
X309234Y445558D01*
X309370Y445539D01*
X309505Y445516D01*
X309640Y445489D01*
X309774Y445458D01*
X309907Y445424D01*
X310039Y445385D01*
X310170Y445343D01*
X310300Y445298D01*
X310428Y445249D01*
X310555Y445196D01*
X310680Y445140D01*
X310804Y445080D01*
X310926Y445017D01*
X311046Y444951D01*
X311165Y444881D01*
X311281Y444808D01*
X311395Y444731D01*
X311507Y444652D01*
X311617Y444569D01*
X311724Y444483D01*
X311829Y444395D01*
X311932Y444303D01*
X312032Y444209D01*
X312129Y444112D01*
X312223Y444012D01*
X312315Y443909D01*
X312403Y443804D01*
X312489Y443697D01*
X312572Y443587D01*
X312651Y443475D01*
X312728Y443361D01*
X312801Y443245D01*
X312871Y443126D01*
X312937Y443006D01*
X313000Y442884D01*
X313060Y442760D01*
X313116Y442635D01*
X313169Y442508D01*
X313218Y442380D01*
X313263Y442250D01*
X313305Y442119D01*
X313344Y441987D01*
X313378Y441854D01*
X313409Y441720D01*
X313436Y441585D01*
X313459Y441450D01*
X313478Y441314D01*
X313494Y441177D01*
X313505Y441041D01*
X313513Y440903D01*
X313517Y440766D01*
X313374Y440766D01*
X313370Y440902D01*
X313362Y441037D01*
X313351Y441173D01*
X313335Y441307D01*
X313315Y441442D01*
X313292Y441576D01*
X313265Y441709D01*
X313234Y441841D01*
X313199Y441972D01*
X313161Y442102D01*
X313119Y442231D01*
X313073Y442359D01*
X313024Y442486D01*
X312971Y442611D01*
X312914Y442734D01*
X312854Y442856D01*
X312791Y442976D01*
X312724Y443094D01*
X312654Y443211D01*
X312580Y443325D01*
X312504Y443437D01*
X312424Y443547D01*
X312341Y443654D01*
X312255Y443759D01*
X312166Y443862D01*
X312074Y443962D01*
X311979Y444059D01*
X311882Y444154D01*
X311782Y444246D01*
X311679Y444335D01*
X311574Y444421D01*
X311467Y444504D01*
X311357Y444584D01*
X311245Y444660D01*
X311131Y444734D01*
X311014Y444804D01*
X310896Y444871D01*
X310776Y444934D01*
X310654Y444994D01*
X310531Y445051D01*
X310406Y445104D01*
X310279Y445153D01*
X310151Y445199D01*
X310022Y445241D01*
X309892Y445279D01*
X309761Y445314D01*
X309629Y445345D01*
X309496Y445372D01*
X309362Y445395D01*
X309227Y445415D01*
X309093Y445431D01*
X308957Y445442D01*
X308822Y445450D01*
X308686Y445454D01*
X308686Y445311D01*
X308820Y445307D01*
X308954Y445299D01*
X309087Y445287D01*
X309221Y445271D01*
X309353Y445252D01*
X309485Y445228D01*
X309617Y445201D01*
X309747Y445170D01*
X309877Y445135D01*
X310005Y445096D01*
X310132Y445054D01*
X310258Y445008D01*
X310383Y444958D01*
X310506Y444905D01*
X310627Y444848D01*
X310747Y444788D01*
X310865Y444724D01*
X310981Y444657D01*
X311095Y444587D01*
X311208Y444513D01*
X311317Y444436D01*
X311425Y444356D01*
X311530Y444273D01*
X311633Y444187D01*
X311733Y444097D01*
X311830Y444005D01*
X311925Y443910D01*
X312017Y443813D01*
X312107Y443713D01*
X312193Y443610D01*
X312276Y443505D01*
X312356Y443397D01*
X312433Y443288D01*
X312507Y443175D01*
X312577Y443061D01*
X312644Y442945D01*
X312708Y442827D01*
X312768Y442707D01*
X312825Y442586D01*
X312878Y442463D01*
X312928Y442338D01*
X312974Y442212D01*
X313016Y442085D01*
X313055Y441957D01*
X313090Y441827D01*
X313121Y441697D01*
X313148Y441565D01*
X313172Y441433D01*
X313191Y441301D01*
X313207Y441167D01*
X313219Y441034D01*
X313227Y440900D01*
X313231Y440766D01*
X313088Y440766D01*
X313084Y440898D01*
X313076Y441030D01*
X313064Y441162D01*
X313048Y441294D01*
X313028Y441425D01*
X313005Y441555D01*
X312977Y441684D01*
X312946Y441813D01*
X312911Y441941D01*
X312872Y442067D01*
X312829Y442192D01*
X312783Y442316D01*
X312733Y442439D01*
X312680Y442560D01*
X312623Y442680D01*
X312562Y442797D01*
X312498Y442913D01*
X312431Y443027D01*
X312360Y443139D01*
X312286Y443249D01*
X312209Y443356D01*
X312129Y443461D01*
X312045Y443564D01*
X311959Y443664D01*
X311869Y443762D01*
X311777Y443857D01*
X311682Y443949D01*
X311584Y444039D01*
X311484Y444125D01*
X311381Y444209D01*
X311276Y444289D01*
X311169Y444366D01*
X311059Y444440D01*
X310947Y444511D01*
X310833Y444578D01*
X310717Y444642D01*
X310600Y444703D01*
X310480Y444760D01*
X310359Y444813D01*
X310236Y444863D01*
X310112Y444909D01*
X309987Y444952D01*
X309861Y444991D01*
X309733Y445026D01*
X309604Y445057D01*
X309475Y445085D01*
X309345Y445108D01*
X309214Y445128D01*
X309082Y445144D01*
X308950Y445156D01*
X308818Y445164D01*
X308686Y445168D01*
X295835Y446455D02*
X295835Y445083D01*
X295834Y445083D02*
X295704Y445079D01*
X295575Y445071D01*
X295445Y445059D01*
X295317Y445044D01*
X295188Y445024D01*
X295061Y445001D01*
X294934Y444974D01*
X294807Y444943D01*
X294682Y444909D01*
X294558Y444871D01*
X294435Y444829D01*
X294314Y444784D01*
X294193Y444735D01*
X294075Y444682D01*
X293958Y444626D01*
X293842Y444567D01*
X293729Y444504D01*
X293617Y444438D01*
X293507Y444369D01*
X293400Y444296D01*
X293294Y444220D01*
X293191Y444142D01*
X293090Y444060D01*
X292992Y443975D01*
X292896Y443887D01*
X292803Y443797D01*
X292713Y443704D01*
X292625Y443608D01*
X292540Y443510D01*
X292458Y443409D01*
X292380Y443306D01*
X292304Y443200D01*
X292231Y443093D01*
X292162Y442983D01*
X292096Y442871D01*
X292033Y442758D01*
X291974Y442642D01*
X291918Y442525D01*
X291865Y442407D01*
X291816Y442286D01*
X291771Y442165D01*
X291729Y442042D01*
X291691Y441918D01*
X291657Y441793D01*
X291626Y441666D01*
X291599Y441539D01*
X291576Y441412D01*
X291556Y441283D01*
X291541Y441155D01*
X291529Y441025D01*
X291521Y440896D01*
X291517Y440766D01*
X290145Y440765D01*
X290145Y440766D01*
X290148Y440917D01*
X290156Y441068D01*
X290168Y441218D01*
X290184Y441368D01*
X290204Y441518D01*
X290227Y441667D01*
X290255Y441815D01*
X290286Y441963D01*
X290322Y442110D01*
X290361Y442255D01*
X290403Y442400D01*
X290450Y442544D01*
X290500Y442686D01*
X290555Y442827D01*
X290612Y442966D01*
X290674Y443104D01*
X290739Y443240D01*
X290807Y443375D01*
X290879Y443508D01*
X290955Y443638D01*
X291034Y443767D01*
X291116Y443894D01*
X291201Y444018D01*
X291290Y444140D01*
X291382Y444260D01*
X291477Y444377D01*
X291575Y444492D01*
X291676Y444604D01*
X291780Y444713D01*
X291887Y444820D01*
X291996Y444924D01*
X292108Y445025D01*
X292223Y445123D01*
X292340Y445218D01*
X292460Y445310D01*
X292582Y445399D01*
X292706Y445484D01*
X292833Y445566D01*
X292962Y445645D01*
X293092Y445721D01*
X293225Y445793D01*
X293360Y445861D01*
X293496Y445926D01*
X293634Y445988D01*
X293773Y446045D01*
X293914Y446100D01*
X294056Y446150D01*
X294200Y446197D01*
X294345Y446239D01*
X294490Y446278D01*
X294637Y446314D01*
X294785Y446345D01*
X294933Y446373D01*
X295082Y446396D01*
X295232Y446416D01*
X295382Y446432D01*
X295532Y446444D01*
X295683Y446452D01*
X295834Y446455D01*
X295834Y446312D01*
X295684Y446308D01*
X295535Y446300D01*
X295386Y446289D01*
X295237Y446273D01*
X295089Y446253D01*
X294941Y446229D01*
X294794Y446201D01*
X294648Y446169D01*
X294502Y446134D01*
X294358Y446095D01*
X294214Y446051D01*
X294072Y446004D01*
X293932Y445953D01*
X293792Y445899D01*
X293654Y445841D01*
X293518Y445779D01*
X293384Y445713D01*
X293251Y445644D01*
X293120Y445572D01*
X292991Y445496D01*
X292864Y445417D01*
X292739Y445334D01*
X292617Y445248D01*
X292497Y445158D01*
X292379Y445066D01*
X292264Y444971D01*
X292151Y444872D01*
X292041Y444770D01*
X291934Y444666D01*
X291830Y444559D01*
X291728Y444449D01*
X291629Y444336D01*
X291534Y444221D01*
X291442Y444103D01*
X291352Y443983D01*
X291266Y443861D01*
X291183Y443736D01*
X291104Y443609D01*
X291028Y443480D01*
X290956Y443349D01*
X290887Y443216D01*
X290821Y443082D01*
X290759Y442946D01*
X290701Y442808D01*
X290647Y442668D01*
X290596Y442528D01*
X290549Y442386D01*
X290505Y442242D01*
X290466Y442098D01*
X290431Y441952D01*
X290399Y441806D01*
X290371Y441659D01*
X290347Y441511D01*
X290327Y441363D01*
X290311Y441214D01*
X290300Y441065D01*
X290292Y440916D01*
X290288Y440766D01*
X290431Y440766D01*
X290434Y440912D01*
X290442Y441057D01*
X290454Y441203D01*
X290470Y441348D01*
X290489Y441492D01*
X290512Y441636D01*
X290539Y441779D01*
X290570Y441922D01*
X290605Y442063D01*
X290643Y442204D01*
X290685Y442344D01*
X290731Y442482D01*
X290781Y442619D01*
X290834Y442755D01*
X290891Y442889D01*
X290951Y443022D01*
X291015Y443153D01*
X291082Y443282D01*
X291153Y443410D01*
X291227Y443535D01*
X291304Y443659D01*
X291385Y443780D01*
X291468Y443900D01*
X291555Y444017D01*
X291645Y444131D01*
X291738Y444244D01*
X291834Y444353D01*
X291933Y444460D01*
X292035Y444565D01*
X292140Y444667D01*
X292247Y444766D01*
X292356Y444862D01*
X292469Y444955D01*
X292583Y445045D01*
X292700Y445132D01*
X292820Y445215D01*
X292941Y445296D01*
X293065Y445373D01*
X293190Y445447D01*
X293318Y445518D01*
X293447Y445585D01*
X293578Y445649D01*
X293711Y445709D01*
X293845Y445766D01*
X293981Y445819D01*
X294118Y445869D01*
X294256Y445915D01*
X294396Y445957D01*
X294537Y445995D01*
X294678Y446030D01*
X294821Y446061D01*
X294964Y446088D01*
X295108Y446111D01*
X295252Y446130D01*
X295397Y446146D01*
X295543Y446158D01*
X295688Y446166D01*
X295834Y446169D01*
X295834Y446026D01*
X295690Y446022D01*
X295545Y446015D01*
X295402Y446003D01*
X295258Y445987D01*
X295115Y445967D01*
X294972Y445944D01*
X294831Y445917D01*
X294690Y445886D01*
X294549Y445851D01*
X294410Y445812D01*
X294272Y445770D01*
X294136Y445723D01*
X294000Y445674D01*
X293866Y445620D01*
X293733Y445563D01*
X293602Y445502D01*
X293473Y445438D01*
X293345Y445370D01*
X293220Y445299D01*
X293096Y445225D01*
X292974Y445147D01*
X292855Y445066D01*
X292737Y444982D01*
X292622Y444894D01*
X292510Y444804D01*
X292400Y444710D01*
X292292Y444614D01*
X292188Y444515D01*
X292085Y444412D01*
X291986Y444308D01*
X291890Y444200D01*
X291796Y444090D01*
X291706Y443978D01*
X291618Y443863D01*
X291534Y443745D01*
X291453Y443626D01*
X291375Y443504D01*
X291301Y443380D01*
X291230Y443255D01*
X291162Y443127D01*
X291098Y442998D01*
X291037Y442867D01*
X290980Y442734D01*
X290926Y442600D01*
X290877Y442464D01*
X290830Y442328D01*
X290788Y442190D01*
X290749Y442051D01*
X290714Y441910D01*
X290683Y441769D01*
X290656Y441628D01*
X290633Y441485D01*
X290613Y441342D01*
X290597Y441198D01*
X290585Y441055D01*
X290578Y440910D01*
X290574Y440766D01*
X290717Y440766D01*
X290721Y440909D01*
X290729Y441052D01*
X290741Y441194D01*
X290756Y441336D01*
X290776Y441478D01*
X290800Y441619D01*
X290827Y441759D01*
X290859Y441899D01*
X290894Y442037D01*
X290933Y442175D01*
X290975Y442311D01*
X291022Y442446D01*
X291072Y442580D01*
X291126Y442713D01*
X291184Y442844D01*
X291245Y442973D01*
X291309Y443100D01*
X291377Y443226D01*
X291449Y443350D01*
X291524Y443472D01*
X291602Y443591D01*
X291683Y443709D01*
X291768Y443824D01*
X291856Y443937D01*
X291947Y444047D01*
X292041Y444155D01*
X292138Y444260D01*
X292237Y444363D01*
X292340Y444462D01*
X292445Y444559D01*
X292553Y444653D01*
X292663Y444744D01*
X292776Y444832D01*
X292891Y444917D01*
X293009Y444998D01*
X293128Y445076D01*
X293250Y445151D01*
X293374Y445223D01*
X293500Y445291D01*
X293627Y445355D01*
X293756Y445416D01*
X293887Y445474D01*
X294020Y445528D01*
X294154Y445578D01*
X294289Y445625D01*
X294425Y445667D01*
X294563Y445706D01*
X294701Y445741D01*
X294841Y445773D01*
X294981Y445800D01*
X295122Y445824D01*
X295264Y445844D01*
X295406Y445859D01*
X295548Y445871D01*
X295691Y445879D01*
X295834Y445883D01*
X295834Y445740D01*
X295693Y445736D01*
X295551Y445728D01*
X295410Y445716D01*
X295270Y445700D01*
X295130Y445680D01*
X294990Y445657D01*
X294851Y445629D01*
X294714Y445597D01*
X294577Y445562D01*
X294441Y445523D01*
X294306Y445479D01*
X294172Y445433D01*
X294040Y445382D01*
X293909Y445328D01*
X293780Y445270D01*
X293653Y445209D01*
X293527Y445144D01*
X293403Y445075D01*
X293282Y445003D01*
X293162Y444928D01*
X293044Y444849D01*
X292929Y444767D01*
X292816Y444682D01*
X292705Y444594D01*
X292597Y444503D01*
X292492Y444408D01*
X292389Y444311D01*
X292289Y444211D01*
X292192Y444108D01*
X292097Y444003D01*
X292006Y443895D01*
X291918Y443784D01*
X291833Y443671D01*
X291751Y443556D01*
X291672Y443438D01*
X291597Y443318D01*
X291525Y443197D01*
X291456Y443073D01*
X291391Y442947D01*
X291330Y442820D01*
X291272Y442691D01*
X291218Y442560D01*
X291167Y442428D01*
X291121Y442294D01*
X291077Y442159D01*
X291038Y442023D01*
X291003Y441886D01*
X290971Y441749D01*
X290943Y441610D01*
X290920Y441470D01*
X290900Y441330D01*
X290884Y441190D01*
X290872Y441049D01*
X290864Y440907D01*
X290860Y440766D01*
X291003Y440766D01*
X291007Y440903D01*
X291015Y441041D01*
X291026Y441177D01*
X291042Y441314D01*
X291061Y441450D01*
X291084Y441585D01*
X291111Y441720D01*
X291142Y441854D01*
X291176Y441987D01*
X291215Y442119D01*
X291257Y442250D01*
X291302Y442380D01*
X291351Y442508D01*
X291404Y442635D01*
X291460Y442760D01*
X291520Y442884D01*
X291583Y443006D01*
X291649Y443126D01*
X291719Y443245D01*
X291792Y443361D01*
X291869Y443475D01*
X291948Y443587D01*
X292031Y443697D01*
X292117Y443804D01*
X292205Y443909D01*
X292297Y444012D01*
X292391Y444112D01*
X292488Y444209D01*
X292588Y444303D01*
X292691Y444395D01*
X292796Y444483D01*
X292903Y444569D01*
X293013Y444652D01*
X293125Y444731D01*
X293239Y444808D01*
X293355Y444881D01*
X293474Y444951D01*
X293594Y445017D01*
X293716Y445080D01*
X293840Y445140D01*
X293965Y445196D01*
X294092Y445249D01*
X294220Y445298D01*
X294350Y445343D01*
X294481Y445385D01*
X294613Y445424D01*
X294746Y445458D01*
X294880Y445489D01*
X295015Y445516D01*
X295150Y445539D01*
X295286Y445558D01*
X295423Y445574D01*
X295559Y445585D01*
X295697Y445593D01*
X295834Y445597D01*
X295834Y445454D01*
X295698Y445450D01*
X295563Y445442D01*
X295427Y445431D01*
X295293Y445415D01*
X295158Y445395D01*
X295024Y445372D01*
X294891Y445345D01*
X294759Y445314D01*
X294628Y445279D01*
X294498Y445241D01*
X294369Y445199D01*
X294241Y445153D01*
X294114Y445104D01*
X293989Y445051D01*
X293866Y444994D01*
X293744Y444934D01*
X293624Y444871D01*
X293506Y444804D01*
X293389Y444734D01*
X293275Y444660D01*
X293163Y444584D01*
X293053Y444504D01*
X292946Y444421D01*
X292841Y444335D01*
X292738Y444246D01*
X292638Y444154D01*
X292541Y444059D01*
X292446Y443962D01*
X292354Y443862D01*
X292265Y443759D01*
X292179Y443654D01*
X292096Y443547D01*
X292016Y443437D01*
X291940Y443325D01*
X291866Y443211D01*
X291796Y443094D01*
X291729Y442976D01*
X291666Y442856D01*
X291606Y442734D01*
X291549Y442611D01*
X291496Y442486D01*
X291447Y442359D01*
X291401Y442231D01*
X291359Y442102D01*
X291321Y441972D01*
X291286Y441841D01*
X291255Y441709D01*
X291228Y441576D01*
X291205Y441442D01*
X291185Y441307D01*
X291169Y441173D01*
X291158Y441037D01*
X291150Y440902D01*
X291146Y440766D01*
X291289Y440766D01*
X291293Y440900D01*
X291301Y441034D01*
X291313Y441167D01*
X291329Y441301D01*
X291348Y441433D01*
X291372Y441565D01*
X291399Y441697D01*
X291430Y441827D01*
X291465Y441957D01*
X291504Y442085D01*
X291546Y442212D01*
X291592Y442338D01*
X291642Y442463D01*
X291695Y442586D01*
X291752Y442707D01*
X291812Y442827D01*
X291876Y442945D01*
X291943Y443061D01*
X292013Y443175D01*
X292087Y443288D01*
X292164Y443397D01*
X292244Y443505D01*
X292327Y443610D01*
X292413Y443713D01*
X292503Y443813D01*
X292595Y443910D01*
X292690Y444005D01*
X292787Y444097D01*
X292887Y444187D01*
X292990Y444273D01*
X293095Y444356D01*
X293203Y444436D01*
X293312Y444513D01*
X293425Y444587D01*
X293539Y444657D01*
X293655Y444724D01*
X293773Y444788D01*
X293893Y444848D01*
X294014Y444905D01*
X294137Y444958D01*
X294262Y445008D01*
X294388Y445054D01*
X294515Y445096D01*
X294643Y445135D01*
X294773Y445170D01*
X294903Y445201D01*
X295035Y445228D01*
X295167Y445252D01*
X295299Y445271D01*
X295433Y445287D01*
X295566Y445299D01*
X295700Y445307D01*
X295834Y445311D01*
X295834Y445168D01*
X295702Y445164D01*
X295570Y445156D01*
X295438Y445144D01*
X295306Y445128D01*
X295175Y445108D01*
X295045Y445085D01*
X294916Y445057D01*
X294787Y445026D01*
X294659Y444991D01*
X294533Y444952D01*
X294408Y444909D01*
X294284Y444863D01*
X294161Y444813D01*
X294040Y444760D01*
X293920Y444703D01*
X293803Y444642D01*
X293687Y444578D01*
X293573Y444511D01*
X293461Y444440D01*
X293351Y444366D01*
X293244Y444289D01*
X293139Y444209D01*
X293036Y444125D01*
X292936Y444039D01*
X292838Y443949D01*
X292743Y443857D01*
X292651Y443762D01*
X292561Y443664D01*
X292475Y443564D01*
X292391Y443461D01*
X292311Y443356D01*
X292234Y443249D01*
X292160Y443139D01*
X292089Y443027D01*
X292022Y442913D01*
X291958Y442797D01*
X291897Y442680D01*
X291840Y442560D01*
X291787Y442439D01*
X291737Y442316D01*
X291691Y442192D01*
X291648Y442067D01*
X291609Y441941D01*
X291574Y441813D01*
X291543Y441684D01*
X291515Y441555D01*
X291492Y441425D01*
X291472Y441294D01*
X291456Y441162D01*
X291444Y441030D01*
X291436Y440898D01*
X291432Y440766D01*
D15*
X313690Y440690D02*
X313690Y407670D01*
X290830Y407670D02*
X290830Y440690D01*
D20*
X308685Y401905D02*
X308685Y403277D01*
X308686Y403277D02*
X308816Y403281D01*
X308945Y403289D01*
X309075Y403301D01*
X309203Y403316D01*
X309332Y403336D01*
X309459Y403359D01*
X309586Y403386D01*
X309713Y403417D01*
X309838Y403451D01*
X309962Y403489D01*
X310085Y403531D01*
X310206Y403576D01*
X310327Y403625D01*
X310445Y403678D01*
X310562Y403734D01*
X310678Y403793D01*
X310791Y403856D01*
X310903Y403922D01*
X311013Y403991D01*
X311120Y404064D01*
X311226Y404140D01*
X311329Y404218D01*
X311430Y404300D01*
X311528Y404385D01*
X311624Y404473D01*
X311717Y404563D01*
X311807Y404656D01*
X311895Y404752D01*
X311980Y404850D01*
X312062Y404951D01*
X312140Y405054D01*
X312216Y405160D01*
X312289Y405267D01*
X312358Y405377D01*
X312424Y405489D01*
X312487Y405602D01*
X312546Y405718D01*
X312602Y405835D01*
X312655Y405953D01*
X312704Y406074D01*
X312749Y406195D01*
X312791Y406318D01*
X312829Y406442D01*
X312863Y406567D01*
X312894Y406694D01*
X312921Y406821D01*
X312944Y406948D01*
X312964Y407077D01*
X312979Y407205D01*
X312991Y407335D01*
X312999Y407464D01*
X313003Y407594D01*
X314375Y407595D01*
X314375Y407594D01*
X314372Y407443D01*
X314364Y407292D01*
X314352Y407142D01*
X314336Y406992D01*
X314316Y406842D01*
X314293Y406693D01*
X314265Y406545D01*
X314234Y406397D01*
X314198Y406250D01*
X314159Y406105D01*
X314117Y405960D01*
X314070Y405816D01*
X314020Y405674D01*
X313965Y405533D01*
X313908Y405394D01*
X313846Y405256D01*
X313781Y405120D01*
X313713Y404985D01*
X313641Y404852D01*
X313565Y404722D01*
X313486Y404593D01*
X313404Y404466D01*
X313319Y404342D01*
X313230Y404220D01*
X313138Y404100D01*
X313043Y403983D01*
X312945Y403868D01*
X312844Y403756D01*
X312740Y403647D01*
X312633Y403540D01*
X312524Y403436D01*
X312412Y403335D01*
X312297Y403237D01*
X312180Y403142D01*
X312060Y403050D01*
X311938Y402961D01*
X311814Y402876D01*
X311687Y402794D01*
X311558Y402715D01*
X311428Y402639D01*
X311295Y402567D01*
X311160Y402499D01*
X311024Y402434D01*
X310886Y402372D01*
X310747Y402315D01*
X310606Y402260D01*
X310464Y402210D01*
X310320Y402163D01*
X310175Y402121D01*
X310030Y402082D01*
X309883Y402046D01*
X309735Y402015D01*
X309587Y401987D01*
X309438Y401964D01*
X309288Y401944D01*
X309138Y401928D01*
X308988Y401916D01*
X308837Y401908D01*
X308686Y401905D01*
X308686Y402048D01*
X308836Y402052D01*
X308985Y402060D01*
X309134Y402071D01*
X309283Y402087D01*
X309431Y402107D01*
X309579Y402131D01*
X309726Y402159D01*
X309872Y402191D01*
X310018Y402226D01*
X310162Y402265D01*
X310306Y402309D01*
X310448Y402356D01*
X310588Y402407D01*
X310728Y402461D01*
X310866Y402519D01*
X311002Y402581D01*
X311136Y402647D01*
X311269Y402716D01*
X311400Y402788D01*
X311529Y402864D01*
X311656Y402943D01*
X311781Y403026D01*
X311903Y403112D01*
X312023Y403202D01*
X312141Y403294D01*
X312256Y403389D01*
X312369Y403488D01*
X312479Y403590D01*
X312586Y403694D01*
X312690Y403801D01*
X312792Y403911D01*
X312891Y404024D01*
X312986Y404139D01*
X313078Y404257D01*
X313168Y404377D01*
X313254Y404499D01*
X313337Y404624D01*
X313416Y404751D01*
X313492Y404880D01*
X313564Y405011D01*
X313633Y405144D01*
X313699Y405278D01*
X313761Y405414D01*
X313819Y405552D01*
X313873Y405692D01*
X313924Y405832D01*
X313971Y405974D01*
X314015Y406118D01*
X314054Y406262D01*
X314089Y406408D01*
X314121Y406554D01*
X314149Y406701D01*
X314173Y406849D01*
X314193Y406997D01*
X314209Y407146D01*
X314220Y407295D01*
X314228Y407444D01*
X314232Y407594D01*
X314089Y407594D01*
X314086Y407448D01*
X314078Y407303D01*
X314066Y407157D01*
X314050Y407012D01*
X314031Y406868D01*
X314008Y406724D01*
X313981Y406581D01*
X313950Y406438D01*
X313915Y406297D01*
X313877Y406156D01*
X313835Y406016D01*
X313789Y405878D01*
X313739Y405741D01*
X313686Y405605D01*
X313629Y405471D01*
X313569Y405338D01*
X313505Y405207D01*
X313438Y405078D01*
X313367Y404950D01*
X313293Y404825D01*
X313216Y404701D01*
X313135Y404580D01*
X313052Y404460D01*
X312965Y404343D01*
X312875Y404229D01*
X312782Y404116D01*
X312686Y404007D01*
X312587Y403900D01*
X312485Y403795D01*
X312380Y403693D01*
X312273Y403594D01*
X312164Y403498D01*
X312051Y403405D01*
X311937Y403315D01*
X311820Y403228D01*
X311700Y403145D01*
X311579Y403064D01*
X311455Y402987D01*
X311330Y402913D01*
X311202Y402842D01*
X311073Y402775D01*
X310942Y402711D01*
X310809Y402651D01*
X310675Y402594D01*
X310539Y402541D01*
X310402Y402491D01*
X310264Y402445D01*
X310124Y402403D01*
X309983Y402365D01*
X309842Y402330D01*
X309699Y402299D01*
X309556Y402272D01*
X309412Y402249D01*
X309268Y402230D01*
X309123Y402214D01*
X308977Y402202D01*
X308832Y402194D01*
X308686Y402191D01*
X308686Y402334D01*
X308830Y402338D01*
X308975Y402345D01*
X309118Y402357D01*
X309262Y402373D01*
X309405Y402393D01*
X309548Y402416D01*
X309689Y402443D01*
X309830Y402474D01*
X309971Y402509D01*
X310110Y402548D01*
X310248Y402590D01*
X310384Y402637D01*
X310520Y402686D01*
X310654Y402740D01*
X310787Y402797D01*
X310918Y402858D01*
X311047Y402922D01*
X311175Y402990D01*
X311300Y403061D01*
X311424Y403135D01*
X311546Y403213D01*
X311665Y403294D01*
X311783Y403378D01*
X311898Y403466D01*
X312010Y403556D01*
X312120Y403650D01*
X312228Y403746D01*
X312332Y403845D01*
X312435Y403948D01*
X312534Y404052D01*
X312630Y404160D01*
X312724Y404270D01*
X312814Y404382D01*
X312902Y404497D01*
X312986Y404615D01*
X313067Y404734D01*
X313145Y404856D01*
X313219Y404980D01*
X313290Y405105D01*
X313358Y405233D01*
X313422Y405362D01*
X313483Y405493D01*
X313540Y405626D01*
X313594Y405760D01*
X313643Y405896D01*
X313690Y406032D01*
X313732Y406170D01*
X313771Y406309D01*
X313806Y406450D01*
X313837Y406591D01*
X313864Y406732D01*
X313887Y406875D01*
X313907Y407018D01*
X313923Y407162D01*
X313935Y407305D01*
X313942Y407450D01*
X313946Y407594D01*
X313803Y407594D01*
X313799Y407451D01*
X313791Y407308D01*
X313779Y407166D01*
X313764Y407024D01*
X313744Y406882D01*
X313720Y406741D01*
X313693Y406601D01*
X313661Y406461D01*
X313626Y406323D01*
X313587Y406185D01*
X313545Y406049D01*
X313498Y405914D01*
X313448Y405780D01*
X313394Y405647D01*
X313336Y405516D01*
X313275Y405387D01*
X313211Y405260D01*
X313143Y405134D01*
X313071Y405010D01*
X312996Y404888D01*
X312918Y404769D01*
X312837Y404651D01*
X312752Y404536D01*
X312664Y404423D01*
X312573Y404313D01*
X312479Y404205D01*
X312382Y404100D01*
X312283Y403997D01*
X312180Y403898D01*
X312075Y403801D01*
X311967Y403707D01*
X311857Y403616D01*
X311744Y403528D01*
X311629Y403443D01*
X311511Y403362D01*
X311392Y403284D01*
X311270Y403209D01*
X311146Y403137D01*
X311020Y403069D01*
X310893Y403005D01*
X310764Y402944D01*
X310633Y402886D01*
X310500Y402832D01*
X310366Y402782D01*
X310231Y402735D01*
X310095Y402693D01*
X309957Y402654D01*
X309819Y402619D01*
X309679Y402587D01*
X309539Y402560D01*
X309398Y402536D01*
X309256Y402516D01*
X309114Y402501D01*
X308972Y402489D01*
X308829Y402481D01*
X308686Y402477D01*
X308686Y402620D01*
X308827Y402624D01*
X308969Y402632D01*
X309110Y402644D01*
X309250Y402660D01*
X309390Y402680D01*
X309530Y402703D01*
X309669Y402731D01*
X309806Y402763D01*
X309943Y402798D01*
X310079Y402837D01*
X310214Y402881D01*
X310348Y402927D01*
X310480Y402978D01*
X310611Y403032D01*
X310740Y403090D01*
X310867Y403151D01*
X310993Y403216D01*
X311117Y403285D01*
X311238Y403357D01*
X311358Y403432D01*
X311476Y403511D01*
X311591Y403593D01*
X311704Y403678D01*
X311815Y403766D01*
X311923Y403857D01*
X312028Y403952D01*
X312131Y404049D01*
X312231Y404149D01*
X312328Y404252D01*
X312423Y404357D01*
X312514Y404465D01*
X312602Y404576D01*
X312687Y404689D01*
X312769Y404804D01*
X312848Y404922D01*
X312923Y405042D01*
X312995Y405163D01*
X313064Y405287D01*
X313129Y405413D01*
X313190Y405540D01*
X313248Y405669D01*
X313302Y405800D01*
X313353Y405932D01*
X313399Y406066D01*
X313443Y406201D01*
X313482Y406337D01*
X313517Y406474D01*
X313549Y406611D01*
X313577Y406750D01*
X313600Y406890D01*
X313620Y407030D01*
X313636Y407170D01*
X313648Y407311D01*
X313656Y407453D01*
X313660Y407594D01*
X313517Y407594D01*
X313513Y407457D01*
X313505Y407319D01*
X313494Y407183D01*
X313478Y407046D01*
X313459Y406910D01*
X313436Y406775D01*
X313409Y406640D01*
X313378Y406506D01*
X313344Y406373D01*
X313305Y406241D01*
X313263Y406110D01*
X313218Y405980D01*
X313169Y405852D01*
X313116Y405725D01*
X313060Y405600D01*
X313000Y405476D01*
X312937Y405354D01*
X312871Y405234D01*
X312801Y405115D01*
X312728Y404999D01*
X312651Y404885D01*
X312572Y404773D01*
X312489Y404663D01*
X312403Y404556D01*
X312315Y404451D01*
X312223Y404348D01*
X312129Y404248D01*
X312032Y404151D01*
X311932Y404057D01*
X311829Y403965D01*
X311724Y403877D01*
X311617Y403791D01*
X311507Y403708D01*
X311395Y403629D01*
X311281Y403552D01*
X311165Y403479D01*
X311046Y403409D01*
X310926Y403343D01*
X310804Y403280D01*
X310680Y403220D01*
X310555Y403164D01*
X310428Y403111D01*
X310300Y403062D01*
X310170Y403017D01*
X310039Y402975D01*
X309907Y402936D01*
X309774Y402902D01*
X309640Y402871D01*
X309505Y402844D01*
X309370Y402821D01*
X309234Y402802D01*
X309097Y402786D01*
X308961Y402775D01*
X308823Y402767D01*
X308686Y402763D01*
X308686Y402906D01*
X308822Y402910D01*
X308957Y402918D01*
X309093Y402929D01*
X309227Y402945D01*
X309362Y402965D01*
X309496Y402988D01*
X309629Y403015D01*
X309761Y403046D01*
X309892Y403081D01*
X310022Y403119D01*
X310151Y403161D01*
X310279Y403207D01*
X310406Y403256D01*
X310531Y403309D01*
X310654Y403366D01*
X310776Y403426D01*
X310896Y403489D01*
X311014Y403556D01*
X311131Y403626D01*
X311245Y403700D01*
X311357Y403776D01*
X311467Y403856D01*
X311574Y403939D01*
X311679Y404025D01*
X311782Y404114D01*
X311882Y404206D01*
X311979Y404301D01*
X312074Y404398D01*
X312166Y404498D01*
X312255Y404601D01*
X312341Y404706D01*
X312424Y404813D01*
X312504Y404923D01*
X312580Y405035D01*
X312654Y405149D01*
X312724Y405266D01*
X312791Y405384D01*
X312854Y405504D01*
X312914Y405626D01*
X312971Y405749D01*
X313024Y405874D01*
X313073Y406001D01*
X313119Y406129D01*
X313161Y406258D01*
X313199Y406388D01*
X313234Y406519D01*
X313265Y406651D01*
X313292Y406784D01*
X313315Y406918D01*
X313335Y407053D01*
X313351Y407187D01*
X313362Y407323D01*
X313370Y407458D01*
X313374Y407594D01*
X313231Y407594D01*
X313227Y407460D01*
X313219Y407326D01*
X313207Y407193D01*
X313191Y407059D01*
X313172Y406927D01*
X313148Y406795D01*
X313121Y406663D01*
X313090Y406533D01*
X313055Y406403D01*
X313016Y406275D01*
X312974Y406148D01*
X312928Y406022D01*
X312878Y405897D01*
X312825Y405774D01*
X312768Y405653D01*
X312708Y405533D01*
X312644Y405415D01*
X312577Y405299D01*
X312507Y405185D01*
X312433Y405072D01*
X312356Y404963D01*
X312276Y404855D01*
X312193Y404750D01*
X312107Y404647D01*
X312017Y404547D01*
X311925Y404450D01*
X311830Y404355D01*
X311733Y404263D01*
X311633Y404173D01*
X311530Y404087D01*
X311425Y404004D01*
X311317Y403924D01*
X311208Y403847D01*
X311095Y403773D01*
X310981Y403703D01*
X310865Y403636D01*
X310747Y403572D01*
X310627Y403512D01*
X310506Y403455D01*
X310383Y403402D01*
X310258Y403352D01*
X310132Y403306D01*
X310005Y403264D01*
X309877Y403225D01*
X309747Y403190D01*
X309617Y403159D01*
X309485Y403132D01*
X309353Y403108D01*
X309221Y403089D01*
X309087Y403073D01*
X308954Y403061D01*
X308820Y403053D01*
X308686Y403049D01*
X308686Y403192D01*
X308818Y403196D01*
X308950Y403204D01*
X309082Y403216D01*
X309214Y403232D01*
X309345Y403252D01*
X309475Y403275D01*
X309604Y403303D01*
X309733Y403334D01*
X309861Y403369D01*
X309987Y403408D01*
X310112Y403451D01*
X310236Y403497D01*
X310359Y403547D01*
X310480Y403600D01*
X310600Y403657D01*
X310717Y403718D01*
X310833Y403782D01*
X310947Y403849D01*
X311059Y403920D01*
X311169Y403994D01*
X311276Y404071D01*
X311381Y404151D01*
X311484Y404235D01*
X311584Y404321D01*
X311682Y404411D01*
X311777Y404503D01*
X311869Y404598D01*
X311959Y404696D01*
X312045Y404796D01*
X312129Y404899D01*
X312209Y405004D01*
X312286Y405111D01*
X312360Y405221D01*
X312431Y405333D01*
X312498Y405447D01*
X312562Y405563D01*
X312623Y405680D01*
X312680Y405800D01*
X312733Y405921D01*
X312783Y406044D01*
X312829Y406168D01*
X312872Y406293D01*
X312911Y406419D01*
X312946Y406547D01*
X312977Y406676D01*
X313005Y406805D01*
X313028Y406935D01*
X313048Y407066D01*
X313064Y407198D01*
X313076Y407330D01*
X313084Y407462D01*
X313088Y407594D01*
X290145Y407595D02*
X291517Y407595D01*
X291517Y407594D02*
X291521Y407464D01*
X291529Y407335D01*
X291541Y407205D01*
X291556Y407077D01*
X291576Y406948D01*
X291599Y406821D01*
X291626Y406694D01*
X291657Y406567D01*
X291691Y406442D01*
X291729Y406318D01*
X291771Y406195D01*
X291816Y406074D01*
X291865Y405953D01*
X291918Y405835D01*
X291974Y405718D01*
X292033Y405602D01*
X292096Y405489D01*
X292162Y405377D01*
X292231Y405267D01*
X292304Y405160D01*
X292380Y405054D01*
X292458Y404951D01*
X292540Y404850D01*
X292625Y404752D01*
X292713Y404656D01*
X292803Y404563D01*
X292896Y404473D01*
X292992Y404385D01*
X293090Y404300D01*
X293191Y404218D01*
X293294Y404140D01*
X293400Y404064D01*
X293507Y403991D01*
X293617Y403922D01*
X293729Y403856D01*
X293842Y403793D01*
X293958Y403734D01*
X294075Y403678D01*
X294193Y403625D01*
X294314Y403576D01*
X294435Y403531D01*
X294558Y403489D01*
X294682Y403451D01*
X294807Y403417D01*
X294934Y403386D01*
X295061Y403359D01*
X295188Y403336D01*
X295317Y403316D01*
X295445Y403301D01*
X295575Y403289D01*
X295704Y403281D01*
X295834Y403277D01*
X295835Y401905D01*
X295834Y401905D01*
X295683Y401908D01*
X295532Y401916D01*
X295382Y401928D01*
X295232Y401944D01*
X295082Y401964D01*
X294933Y401987D01*
X294785Y402015D01*
X294637Y402046D01*
X294490Y402082D01*
X294345Y402121D01*
X294200Y402163D01*
X294056Y402210D01*
X293914Y402260D01*
X293773Y402315D01*
X293634Y402372D01*
X293496Y402434D01*
X293360Y402499D01*
X293225Y402567D01*
X293092Y402639D01*
X292962Y402715D01*
X292833Y402794D01*
X292706Y402876D01*
X292582Y402961D01*
X292460Y403050D01*
X292340Y403142D01*
X292223Y403237D01*
X292108Y403335D01*
X291996Y403436D01*
X291887Y403540D01*
X291780Y403647D01*
X291676Y403756D01*
X291575Y403868D01*
X291477Y403983D01*
X291382Y404100D01*
X291290Y404220D01*
X291201Y404342D01*
X291116Y404466D01*
X291034Y404593D01*
X290955Y404722D01*
X290879Y404852D01*
X290807Y404985D01*
X290739Y405120D01*
X290674Y405256D01*
X290612Y405394D01*
X290555Y405533D01*
X290500Y405674D01*
X290450Y405816D01*
X290403Y405960D01*
X290361Y406105D01*
X290322Y406250D01*
X290286Y406397D01*
X290255Y406545D01*
X290227Y406693D01*
X290204Y406842D01*
X290184Y406992D01*
X290168Y407142D01*
X290156Y407292D01*
X290148Y407443D01*
X290145Y407594D01*
X290288Y407594D01*
X290292Y407444D01*
X290300Y407295D01*
X290311Y407146D01*
X290327Y406997D01*
X290347Y406849D01*
X290371Y406701D01*
X290399Y406554D01*
X290431Y406408D01*
X290466Y406262D01*
X290505Y406118D01*
X290549Y405974D01*
X290596Y405832D01*
X290647Y405692D01*
X290701Y405552D01*
X290759Y405414D01*
X290821Y405278D01*
X290887Y405144D01*
X290956Y405011D01*
X291028Y404880D01*
X291104Y404751D01*
X291183Y404624D01*
X291266Y404499D01*
X291352Y404377D01*
X291442Y404257D01*
X291534Y404139D01*
X291629Y404024D01*
X291728Y403911D01*
X291830Y403801D01*
X291934Y403694D01*
X292041Y403590D01*
X292151Y403488D01*
X292264Y403389D01*
X292379Y403294D01*
X292497Y403202D01*
X292617Y403112D01*
X292739Y403026D01*
X292864Y402943D01*
X292991Y402864D01*
X293120Y402788D01*
X293251Y402716D01*
X293384Y402647D01*
X293518Y402581D01*
X293654Y402519D01*
X293792Y402461D01*
X293932Y402407D01*
X294072Y402356D01*
X294214Y402309D01*
X294358Y402265D01*
X294502Y402226D01*
X294648Y402191D01*
X294794Y402159D01*
X294941Y402131D01*
X295089Y402107D01*
X295237Y402087D01*
X295386Y402071D01*
X295535Y402060D01*
X295684Y402052D01*
X295834Y402048D01*
X295834Y402191D01*
X295688Y402194D01*
X295543Y402202D01*
X295397Y402214D01*
X295252Y402230D01*
X295108Y402249D01*
X294964Y402272D01*
X294821Y402299D01*
X294678Y402330D01*
X294537Y402365D01*
X294396Y402403D01*
X294256Y402445D01*
X294118Y402491D01*
X293981Y402541D01*
X293845Y402594D01*
X293711Y402651D01*
X293578Y402711D01*
X293447Y402775D01*
X293318Y402842D01*
X293190Y402913D01*
X293065Y402987D01*
X292941Y403064D01*
X292820Y403145D01*
X292700Y403228D01*
X292583Y403315D01*
X292469Y403405D01*
X292356Y403498D01*
X292247Y403594D01*
X292140Y403693D01*
X292035Y403795D01*
X291933Y403900D01*
X291834Y404007D01*
X291738Y404116D01*
X291645Y404229D01*
X291555Y404343D01*
X291468Y404460D01*
X291385Y404580D01*
X291304Y404701D01*
X291227Y404825D01*
X291153Y404950D01*
X291082Y405078D01*
X291015Y405207D01*
X290951Y405338D01*
X290891Y405471D01*
X290834Y405605D01*
X290781Y405741D01*
X290731Y405878D01*
X290685Y406016D01*
X290643Y406156D01*
X290605Y406297D01*
X290570Y406438D01*
X290539Y406581D01*
X290512Y406724D01*
X290489Y406868D01*
X290470Y407012D01*
X290454Y407157D01*
X290442Y407303D01*
X290434Y407448D01*
X290431Y407594D01*
X290574Y407594D01*
X290578Y407450D01*
X290585Y407305D01*
X290597Y407162D01*
X290613Y407018D01*
X290633Y406875D01*
X290656Y406732D01*
X290683Y406591D01*
X290714Y406450D01*
X290749Y406309D01*
X290788Y406170D01*
X290830Y406032D01*
X290877Y405896D01*
X290926Y405760D01*
X290980Y405626D01*
X291037Y405493D01*
X291098Y405362D01*
X291162Y405233D01*
X291230Y405105D01*
X291301Y404980D01*
X291375Y404856D01*
X291453Y404734D01*
X291534Y404615D01*
X291618Y404497D01*
X291706Y404382D01*
X291796Y404270D01*
X291890Y404160D01*
X291986Y404052D01*
X292085Y403948D01*
X292188Y403845D01*
X292292Y403746D01*
X292400Y403650D01*
X292510Y403556D01*
X292622Y403466D01*
X292737Y403378D01*
X292855Y403294D01*
X292974Y403213D01*
X293096Y403135D01*
X293220Y403061D01*
X293345Y402990D01*
X293473Y402922D01*
X293602Y402858D01*
X293733Y402797D01*
X293866Y402740D01*
X294000Y402686D01*
X294136Y402637D01*
X294272Y402590D01*
X294410Y402548D01*
X294549Y402509D01*
X294690Y402474D01*
X294831Y402443D01*
X294972Y402416D01*
X295115Y402393D01*
X295258Y402373D01*
X295402Y402357D01*
X295545Y402345D01*
X295690Y402338D01*
X295834Y402334D01*
X295834Y402477D01*
X295691Y402481D01*
X295548Y402489D01*
X295406Y402501D01*
X295264Y402516D01*
X295122Y402536D01*
X294981Y402560D01*
X294841Y402587D01*
X294701Y402619D01*
X294563Y402654D01*
X294425Y402693D01*
X294289Y402735D01*
X294154Y402782D01*
X294020Y402832D01*
X293887Y402886D01*
X293756Y402944D01*
X293627Y403005D01*
X293500Y403069D01*
X293374Y403137D01*
X293250Y403209D01*
X293128Y403284D01*
X293009Y403362D01*
X292891Y403443D01*
X292776Y403528D01*
X292663Y403616D01*
X292553Y403707D01*
X292445Y403801D01*
X292340Y403898D01*
X292237Y403997D01*
X292138Y404100D01*
X292041Y404205D01*
X291947Y404313D01*
X291856Y404423D01*
X291768Y404536D01*
X291683Y404651D01*
X291602Y404769D01*
X291524Y404888D01*
X291449Y405010D01*
X291377Y405134D01*
X291309Y405260D01*
X291245Y405387D01*
X291184Y405516D01*
X291126Y405647D01*
X291072Y405780D01*
X291022Y405914D01*
X290975Y406049D01*
X290933Y406185D01*
X290894Y406323D01*
X290859Y406461D01*
X290827Y406601D01*
X290800Y406741D01*
X290776Y406882D01*
X290756Y407024D01*
X290741Y407166D01*
X290729Y407308D01*
X290721Y407451D01*
X290717Y407594D01*
X290860Y407594D01*
X290864Y407453D01*
X290872Y407311D01*
X290884Y407170D01*
X290900Y407030D01*
X290920Y406890D01*
X290943Y406750D01*
X290971Y406611D01*
X291003Y406474D01*
X291038Y406337D01*
X291077Y406201D01*
X291121Y406066D01*
X291167Y405932D01*
X291218Y405800D01*
X291272Y405669D01*
X291330Y405540D01*
X291391Y405413D01*
X291456Y405287D01*
X291525Y405163D01*
X291597Y405042D01*
X291672Y404922D01*
X291751Y404804D01*
X291833Y404689D01*
X291918Y404576D01*
X292006Y404465D01*
X292097Y404357D01*
X292192Y404252D01*
X292289Y404149D01*
X292389Y404049D01*
X292492Y403952D01*
X292597Y403857D01*
X292705Y403766D01*
X292816Y403678D01*
X292929Y403593D01*
X293044Y403511D01*
X293162Y403432D01*
X293282Y403357D01*
X293403Y403285D01*
X293527Y403216D01*
X293653Y403151D01*
X293780Y403090D01*
X293909Y403032D01*
X294040Y402978D01*
X294172Y402927D01*
X294306Y402881D01*
X294441Y402837D01*
X294577Y402798D01*
X294714Y402763D01*
X294851Y402731D01*
X294990Y402703D01*
X295130Y402680D01*
X295270Y402660D01*
X295410Y402644D01*
X295551Y402632D01*
X295693Y402624D01*
X295834Y402620D01*
X295834Y402763D01*
X295697Y402767D01*
X295559Y402775D01*
X295423Y402786D01*
X295286Y402802D01*
X295150Y402821D01*
X295015Y402844D01*
X294880Y402871D01*
X294746Y402902D01*
X294613Y402936D01*
X294481Y402975D01*
X294350Y403017D01*
X294220Y403062D01*
X294092Y403111D01*
X293965Y403164D01*
X293840Y403220D01*
X293716Y403280D01*
X293594Y403343D01*
X293474Y403409D01*
X293355Y403479D01*
X293239Y403552D01*
X293125Y403629D01*
X293013Y403708D01*
X292903Y403791D01*
X292796Y403877D01*
X292691Y403965D01*
X292588Y404057D01*
X292488Y404151D01*
X292391Y404248D01*
X292297Y404348D01*
X292205Y404451D01*
X292117Y404556D01*
X292031Y404663D01*
X291948Y404773D01*
X291869Y404885D01*
X291792Y404999D01*
X291719Y405115D01*
X291649Y405234D01*
X291583Y405354D01*
X291520Y405476D01*
X291460Y405600D01*
X291404Y405725D01*
X291351Y405852D01*
X291302Y405980D01*
X291257Y406110D01*
X291215Y406241D01*
X291176Y406373D01*
X291142Y406506D01*
X291111Y406640D01*
X291084Y406775D01*
X291061Y406910D01*
X291042Y407046D01*
X291026Y407183D01*
X291015Y407319D01*
X291007Y407457D01*
X291003Y407594D01*
X291146Y407594D01*
X291150Y407458D01*
X291158Y407323D01*
X291169Y407187D01*
X291185Y407053D01*
X291205Y406918D01*
X291228Y406784D01*
X291255Y406651D01*
X291286Y406519D01*
X291321Y406388D01*
X291359Y406258D01*
X291401Y406129D01*
X291447Y406001D01*
X291496Y405874D01*
X291549Y405749D01*
X291606Y405626D01*
X291666Y405504D01*
X291729Y405384D01*
X291796Y405266D01*
X291866Y405149D01*
X291940Y405035D01*
X292016Y404923D01*
X292096Y404813D01*
X292179Y404706D01*
X292265Y404601D01*
X292354Y404498D01*
X292446Y404398D01*
X292541Y404301D01*
X292638Y404206D01*
X292738Y404114D01*
X292841Y404025D01*
X292946Y403939D01*
X293053Y403856D01*
X293163Y403776D01*
X293275Y403700D01*
X293389Y403626D01*
X293506Y403556D01*
X293624Y403489D01*
X293744Y403426D01*
X293866Y403366D01*
X293989Y403309D01*
X294114Y403256D01*
X294241Y403207D01*
X294369Y403161D01*
X294498Y403119D01*
X294628Y403081D01*
X294759Y403046D01*
X294891Y403015D01*
X295024Y402988D01*
X295158Y402965D01*
X295293Y402945D01*
X295427Y402929D01*
X295563Y402918D01*
X295698Y402910D01*
X295834Y402906D01*
X295834Y403049D01*
X295700Y403053D01*
X295566Y403061D01*
X295433Y403073D01*
X295299Y403089D01*
X295167Y403108D01*
X295035Y403132D01*
X294903Y403159D01*
X294773Y403190D01*
X294643Y403225D01*
X294515Y403264D01*
X294388Y403306D01*
X294262Y403352D01*
X294137Y403402D01*
X294014Y403455D01*
X293893Y403512D01*
X293773Y403572D01*
X293655Y403636D01*
X293539Y403703D01*
X293425Y403773D01*
X293312Y403847D01*
X293203Y403924D01*
X293095Y404004D01*
X292990Y404087D01*
X292887Y404173D01*
X292787Y404263D01*
X292690Y404355D01*
X292595Y404450D01*
X292503Y404547D01*
X292413Y404647D01*
X292327Y404750D01*
X292244Y404855D01*
X292164Y404963D01*
X292087Y405072D01*
X292013Y405185D01*
X291943Y405299D01*
X291876Y405415D01*
X291812Y405533D01*
X291752Y405653D01*
X291695Y405774D01*
X291642Y405897D01*
X291592Y406022D01*
X291546Y406148D01*
X291504Y406275D01*
X291465Y406403D01*
X291430Y406533D01*
X291399Y406663D01*
X291372Y406795D01*
X291348Y406927D01*
X291329Y407059D01*
X291313Y407193D01*
X291301Y407326D01*
X291293Y407460D01*
X291289Y407594D01*
X291432Y407594D01*
X291436Y407462D01*
X291444Y407330D01*
X291456Y407198D01*
X291472Y407066D01*
X291492Y406935D01*
X291515Y406805D01*
X291543Y406676D01*
X291574Y406547D01*
X291609Y406419D01*
X291648Y406293D01*
X291691Y406168D01*
X291737Y406044D01*
X291787Y405921D01*
X291840Y405800D01*
X291897Y405680D01*
X291958Y405563D01*
X292022Y405447D01*
X292089Y405333D01*
X292160Y405221D01*
X292234Y405111D01*
X292311Y405004D01*
X292391Y404899D01*
X292475Y404796D01*
X292561Y404696D01*
X292651Y404598D01*
X292743Y404503D01*
X292838Y404411D01*
X292936Y404321D01*
X293036Y404235D01*
X293139Y404151D01*
X293244Y404071D01*
X293351Y403994D01*
X293461Y403920D01*
X293573Y403849D01*
X293687Y403782D01*
X293803Y403718D01*
X293920Y403657D01*
X294040Y403600D01*
X294161Y403547D01*
X294284Y403497D01*
X294408Y403451D01*
X294533Y403408D01*
X294659Y403369D01*
X294787Y403334D01*
X294916Y403303D01*
X295045Y403275D01*
X295175Y403252D01*
X295306Y403232D01*
X295438Y403216D01*
X295570Y403204D01*
X295702Y403196D01*
X295834Y403192D01*
D21*
X302260Y427228D02*
X309880Y427228D01*
X302260Y427228D02*
X294640Y427228D01*
X302260Y420878D02*
X309880Y420878D01*
X302260Y420878D02*
X294640Y420878D01*
D15*
X302260Y420878D02*
X302260Y411480D01*
X302260Y427228D02*
X302260Y436880D01*
D14*
X316855Y428737D02*
X318762Y430644D01*
X316855Y428737D02*
X316855Y424924D01*
X318762Y423017D01*
X326388Y423017D01*
X328295Y424924D01*
X328295Y428737D01*
X326388Y430644D01*
X318762Y434711D02*
X316855Y436618D01*
X316855Y440431D01*
X318762Y442338D01*
X320669Y442338D01*
X322575Y440431D01*
X322575Y438524D01*
X322575Y440431D02*
X324482Y442338D01*
X326388Y442338D01*
X328295Y440431D01*
X328295Y436618D01*
X326388Y434711D01*
M02*
