G75*
%MOIN*%
%OFA0B0*%
%FSLAX25Y25*%
%IPPOS*%
%LPD*%
%AMOC8*
5,1,8,0,0,1.08239X$1,22.5*
%
%ADD10C,0.00000*%
%ADD11C,0.00394*%
D10*
X0004541Y0011008D02*
X0201391Y0011008D01*
X0201391Y0207858D01*
X0004541Y0207858D01*
X0004541Y0011008D01*
X0067167Y0124724D02*
X0067169Y0124885D01*
X0067175Y0125045D01*
X0067185Y0125206D01*
X0067199Y0125366D01*
X0067217Y0125526D01*
X0067238Y0125685D01*
X0067264Y0125844D01*
X0067294Y0126002D01*
X0067327Y0126159D01*
X0067365Y0126316D01*
X0067406Y0126471D01*
X0067451Y0126625D01*
X0067500Y0126778D01*
X0067553Y0126930D01*
X0067609Y0127081D01*
X0067670Y0127230D01*
X0067733Y0127378D01*
X0067801Y0127524D01*
X0067872Y0127668D01*
X0067946Y0127810D01*
X0068024Y0127951D01*
X0068106Y0128089D01*
X0068191Y0128226D01*
X0068279Y0128360D01*
X0068371Y0128492D01*
X0068466Y0128622D01*
X0068564Y0128750D01*
X0068665Y0128875D01*
X0068769Y0128997D01*
X0068876Y0129117D01*
X0068986Y0129234D01*
X0069099Y0129349D01*
X0069215Y0129460D01*
X0069334Y0129569D01*
X0069455Y0129674D01*
X0069579Y0129777D01*
X0069705Y0129877D01*
X0069833Y0129973D01*
X0069964Y0130066D01*
X0070098Y0130156D01*
X0070233Y0130243D01*
X0070371Y0130326D01*
X0070510Y0130406D01*
X0070652Y0130482D01*
X0070795Y0130555D01*
X0070940Y0130624D01*
X0071087Y0130690D01*
X0071235Y0130752D01*
X0071385Y0130810D01*
X0071536Y0130865D01*
X0071689Y0130916D01*
X0071843Y0130963D01*
X0071998Y0131006D01*
X0072154Y0131045D01*
X0072310Y0131081D01*
X0072468Y0131112D01*
X0072626Y0131140D01*
X0072785Y0131164D01*
X0072945Y0131184D01*
X0073105Y0131200D01*
X0073265Y0131212D01*
X0073426Y0131220D01*
X0073587Y0131224D01*
X0073747Y0131224D01*
X0073908Y0131220D01*
X0074069Y0131212D01*
X0074229Y0131200D01*
X0074389Y0131184D01*
X0074549Y0131164D01*
X0074708Y0131140D01*
X0074866Y0131112D01*
X0075024Y0131081D01*
X0075180Y0131045D01*
X0075336Y0131006D01*
X0075491Y0130963D01*
X0075645Y0130916D01*
X0075798Y0130865D01*
X0075949Y0130810D01*
X0076099Y0130752D01*
X0076247Y0130690D01*
X0076394Y0130624D01*
X0076539Y0130555D01*
X0076682Y0130482D01*
X0076824Y0130406D01*
X0076963Y0130326D01*
X0077101Y0130243D01*
X0077236Y0130156D01*
X0077370Y0130066D01*
X0077501Y0129973D01*
X0077629Y0129877D01*
X0077755Y0129777D01*
X0077879Y0129674D01*
X0078000Y0129569D01*
X0078119Y0129460D01*
X0078235Y0129349D01*
X0078348Y0129234D01*
X0078458Y0129117D01*
X0078565Y0128997D01*
X0078669Y0128875D01*
X0078770Y0128750D01*
X0078868Y0128622D01*
X0078963Y0128492D01*
X0079055Y0128360D01*
X0079143Y0128226D01*
X0079228Y0128089D01*
X0079310Y0127951D01*
X0079388Y0127810D01*
X0079462Y0127668D01*
X0079533Y0127524D01*
X0079601Y0127378D01*
X0079664Y0127230D01*
X0079725Y0127081D01*
X0079781Y0126930D01*
X0079834Y0126778D01*
X0079883Y0126625D01*
X0079928Y0126471D01*
X0079969Y0126316D01*
X0080007Y0126159D01*
X0080040Y0126002D01*
X0080070Y0125844D01*
X0080096Y0125685D01*
X0080117Y0125526D01*
X0080135Y0125366D01*
X0080149Y0125206D01*
X0080159Y0125045D01*
X0080165Y0124885D01*
X0080167Y0124724D01*
X0080165Y0124563D01*
X0080159Y0124403D01*
X0080149Y0124242D01*
X0080135Y0124082D01*
X0080117Y0123922D01*
X0080096Y0123763D01*
X0080070Y0123604D01*
X0080040Y0123446D01*
X0080007Y0123289D01*
X0079969Y0123132D01*
X0079928Y0122977D01*
X0079883Y0122823D01*
X0079834Y0122670D01*
X0079781Y0122518D01*
X0079725Y0122367D01*
X0079664Y0122218D01*
X0079601Y0122070D01*
X0079533Y0121924D01*
X0079462Y0121780D01*
X0079388Y0121638D01*
X0079310Y0121497D01*
X0079228Y0121359D01*
X0079143Y0121222D01*
X0079055Y0121088D01*
X0078963Y0120956D01*
X0078868Y0120826D01*
X0078770Y0120698D01*
X0078669Y0120573D01*
X0078565Y0120451D01*
X0078458Y0120331D01*
X0078348Y0120214D01*
X0078235Y0120099D01*
X0078119Y0119988D01*
X0078000Y0119879D01*
X0077879Y0119774D01*
X0077755Y0119671D01*
X0077629Y0119571D01*
X0077501Y0119475D01*
X0077370Y0119382D01*
X0077236Y0119292D01*
X0077101Y0119205D01*
X0076963Y0119122D01*
X0076824Y0119042D01*
X0076682Y0118966D01*
X0076539Y0118893D01*
X0076394Y0118824D01*
X0076247Y0118758D01*
X0076099Y0118696D01*
X0075949Y0118638D01*
X0075798Y0118583D01*
X0075645Y0118532D01*
X0075491Y0118485D01*
X0075336Y0118442D01*
X0075180Y0118403D01*
X0075024Y0118367D01*
X0074866Y0118336D01*
X0074708Y0118308D01*
X0074549Y0118284D01*
X0074389Y0118264D01*
X0074229Y0118248D01*
X0074069Y0118236D01*
X0073908Y0118228D01*
X0073747Y0118224D01*
X0073587Y0118224D01*
X0073426Y0118228D01*
X0073265Y0118236D01*
X0073105Y0118248D01*
X0072945Y0118264D01*
X0072785Y0118284D01*
X0072626Y0118308D01*
X0072468Y0118336D01*
X0072310Y0118367D01*
X0072154Y0118403D01*
X0071998Y0118442D01*
X0071843Y0118485D01*
X0071689Y0118532D01*
X0071536Y0118583D01*
X0071385Y0118638D01*
X0071235Y0118696D01*
X0071087Y0118758D01*
X0070940Y0118824D01*
X0070795Y0118893D01*
X0070652Y0118966D01*
X0070510Y0119042D01*
X0070371Y0119122D01*
X0070233Y0119205D01*
X0070098Y0119292D01*
X0069964Y0119382D01*
X0069833Y0119475D01*
X0069705Y0119571D01*
X0069579Y0119671D01*
X0069455Y0119774D01*
X0069334Y0119879D01*
X0069215Y0119988D01*
X0069099Y0120099D01*
X0068986Y0120214D01*
X0068876Y0120331D01*
X0068769Y0120451D01*
X0068665Y0120573D01*
X0068564Y0120698D01*
X0068466Y0120826D01*
X0068371Y0120956D01*
X0068279Y0121088D01*
X0068191Y0121222D01*
X0068106Y0121359D01*
X0068024Y0121497D01*
X0067946Y0121638D01*
X0067872Y0121780D01*
X0067801Y0121924D01*
X0067733Y0122070D01*
X0067670Y0122218D01*
X0067609Y0122367D01*
X0067553Y0122518D01*
X0067500Y0122670D01*
X0067451Y0122823D01*
X0067406Y0122977D01*
X0067365Y0123132D01*
X0067327Y0123289D01*
X0067294Y0123446D01*
X0067264Y0123604D01*
X0067238Y0123763D01*
X0067217Y0123922D01*
X0067199Y0124082D01*
X0067185Y0124242D01*
X0067175Y0124403D01*
X0067169Y0124563D01*
X0067167Y0124724D01*
X0032100Y0172425D02*
X0032102Y0172550D01*
X0032108Y0172675D01*
X0032118Y0172799D01*
X0032132Y0172923D01*
X0032149Y0173047D01*
X0032171Y0173170D01*
X0032197Y0173292D01*
X0032226Y0173414D01*
X0032259Y0173534D01*
X0032297Y0173653D01*
X0032337Y0173772D01*
X0032382Y0173888D01*
X0032430Y0174003D01*
X0032482Y0174117D01*
X0032538Y0174229D01*
X0032597Y0174339D01*
X0032659Y0174447D01*
X0032725Y0174554D01*
X0032794Y0174658D01*
X0032867Y0174759D01*
X0032942Y0174859D01*
X0033021Y0174956D01*
X0033103Y0175050D01*
X0033188Y0175142D01*
X0033275Y0175231D01*
X0033366Y0175317D01*
X0033459Y0175400D01*
X0033555Y0175481D01*
X0033653Y0175558D01*
X0033753Y0175632D01*
X0033856Y0175703D01*
X0033961Y0175770D01*
X0034069Y0175835D01*
X0034178Y0175895D01*
X0034289Y0175953D01*
X0034402Y0176006D01*
X0034516Y0176056D01*
X0034632Y0176103D01*
X0034749Y0176145D01*
X0034868Y0176184D01*
X0034988Y0176220D01*
X0035109Y0176251D01*
X0035231Y0176279D01*
X0035353Y0176302D01*
X0035477Y0176322D01*
X0035601Y0176338D01*
X0035725Y0176350D01*
X0035850Y0176358D01*
X0035975Y0176362D01*
X0036099Y0176362D01*
X0036224Y0176358D01*
X0036349Y0176350D01*
X0036473Y0176338D01*
X0036597Y0176322D01*
X0036721Y0176302D01*
X0036843Y0176279D01*
X0036965Y0176251D01*
X0037086Y0176220D01*
X0037206Y0176184D01*
X0037325Y0176145D01*
X0037442Y0176103D01*
X0037558Y0176056D01*
X0037672Y0176006D01*
X0037785Y0175953D01*
X0037896Y0175895D01*
X0038006Y0175835D01*
X0038113Y0175770D01*
X0038218Y0175703D01*
X0038321Y0175632D01*
X0038421Y0175558D01*
X0038519Y0175481D01*
X0038615Y0175400D01*
X0038708Y0175317D01*
X0038799Y0175231D01*
X0038886Y0175142D01*
X0038971Y0175050D01*
X0039053Y0174956D01*
X0039132Y0174859D01*
X0039207Y0174759D01*
X0039280Y0174658D01*
X0039349Y0174554D01*
X0039415Y0174447D01*
X0039477Y0174339D01*
X0039536Y0174229D01*
X0039592Y0174117D01*
X0039644Y0174003D01*
X0039692Y0173888D01*
X0039737Y0173772D01*
X0039777Y0173653D01*
X0039815Y0173534D01*
X0039848Y0173414D01*
X0039877Y0173292D01*
X0039903Y0173170D01*
X0039925Y0173047D01*
X0039942Y0172923D01*
X0039956Y0172799D01*
X0039966Y0172675D01*
X0039972Y0172550D01*
X0039974Y0172425D01*
X0039972Y0172300D01*
X0039966Y0172175D01*
X0039956Y0172051D01*
X0039942Y0171927D01*
X0039925Y0171803D01*
X0039903Y0171680D01*
X0039877Y0171558D01*
X0039848Y0171436D01*
X0039815Y0171316D01*
X0039777Y0171197D01*
X0039737Y0171078D01*
X0039692Y0170962D01*
X0039644Y0170847D01*
X0039592Y0170733D01*
X0039536Y0170621D01*
X0039477Y0170511D01*
X0039415Y0170403D01*
X0039349Y0170296D01*
X0039280Y0170192D01*
X0039207Y0170091D01*
X0039132Y0169991D01*
X0039053Y0169894D01*
X0038971Y0169800D01*
X0038886Y0169708D01*
X0038799Y0169619D01*
X0038708Y0169533D01*
X0038615Y0169450D01*
X0038519Y0169369D01*
X0038421Y0169292D01*
X0038321Y0169218D01*
X0038218Y0169147D01*
X0038113Y0169080D01*
X0038005Y0169015D01*
X0037896Y0168955D01*
X0037785Y0168897D01*
X0037672Y0168844D01*
X0037558Y0168794D01*
X0037442Y0168747D01*
X0037325Y0168705D01*
X0037206Y0168666D01*
X0037086Y0168630D01*
X0036965Y0168599D01*
X0036843Y0168571D01*
X0036721Y0168548D01*
X0036597Y0168528D01*
X0036473Y0168512D01*
X0036349Y0168500D01*
X0036224Y0168492D01*
X0036099Y0168488D01*
X0035975Y0168488D01*
X0035850Y0168492D01*
X0035725Y0168500D01*
X0035601Y0168512D01*
X0035477Y0168528D01*
X0035353Y0168548D01*
X0035231Y0168571D01*
X0035109Y0168599D01*
X0034988Y0168630D01*
X0034868Y0168666D01*
X0034749Y0168705D01*
X0034632Y0168747D01*
X0034516Y0168794D01*
X0034402Y0168844D01*
X0034289Y0168897D01*
X0034178Y0168955D01*
X0034068Y0169015D01*
X0033961Y0169080D01*
X0033856Y0169147D01*
X0033753Y0169218D01*
X0033653Y0169292D01*
X0033555Y0169369D01*
X0033459Y0169450D01*
X0033366Y0169533D01*
X0033275Y0169619D01*
X0033188Y0169708D01*
X0033103Y0169800D01*
X0033021Y0169894D01*
X0032942Y0169991D01*
X0032867Y0170091D01*
X0032794Y0170192D01*
X0032725Y0170296D01*
X0032659Y0170403D01*
X0032597Y0170511D01*
X0032538Y0170621D01*
X0032482Y0170733D01*
X0032430Y0170847D01*
X0032382Y0170962D01*
X0032337Y0171078D01*
X0032297Y0171197D01*
X0032259Y0171316D01*
X0032226Y0171436D01*
X0032197Y0171558D01*
X0032171Y0171680D01*
X0032149Y0171803D01*
X0032132Y0171927D01*
X0032118Y0172051D01*
X0032108Y0172175D01*
X0032102Y0172300D01*
X0032100Y0172425D01*
X0165958Y0046441D02*
X0165960Y0046566D01*
X0165966Y0046691D01*
X0165976Y0046815D01*
X0165990Y0046939D01*
X0166007Y0047063D01*
X0166029Y0047186D01*
X0166055Y0047308D01*
X0166084Y0047430D01*
X0166117Y0047550D01*
X0166155Y0047669D01*
X0166195Y0047788D01*
X0166240Y0047904D01*
X0166288Y0048019D01*
X0166340Y0048133D01*
X0166396Y0048245D01*
X0166455Y0048355D01*
X0166517Y0048463D01*
X0166583Y0048570D01*
X0166652Y0048674D01*
X0166725Y0048775D01*
X0166800Y0048875D01*
X0166879Y0048972D01*
X0166961Y0049066D01*
X0167046Y0049158D01*
X0167133Y0049247D01*
X0167224Y0049333D01*
X0167317Y0049416D01*
X0167413Y0049497D01*
X0167511Y0049574D01*
X0167611Y0049648D01*
X0167714Y0049719D01*
X0167819Y0049786D01*
X0167927Y0049851D01*
X0168036Y0049911D01*
X0168147Y0049969D01*
X0168260Y0050022D01*
X0168374Y0050072D01*
X0168490Y0050119D01*
X0168607Y0050161D01*
X0168726Y0050200D01*
X0168846Y0050236D01*
X0168967Y0050267D01*
X0169089Y0050295D01*
X0169211Y0050318D01*
X0169335Y0050338D01*
X0169459Y0050354D01*
X0169583Y0050366D01*
X0169708Y0050374D01*
X0169833Y0050378D01*
X0169957Y0050378D01*
X0170082Y0050374D01*
X0170207Y0050366D01*
X0170331Y0050354D01*
X0170455Y0050338D01*
X0170579Y0050318D01*
X0170701Y0050295D01*
X0170823Y0050267D01*
X0170944Y0050236D01*
X0171064Y0050200D01*
X0171183Y0050161D01*
X0171300Y0050119D01*
X0171416Y0050072D01*
X0171530Y0050022D01*
X0171643Y0049969D01*
X0171754Y0049911D01*
X0171864Y0049851D01*
X0171971Y0049786D01*
X0172076Y0049719D01*
X0172179Y0049648D01*
X0172279Y0049574D01*
X0172377Y0049497D01*
X0172473Y0049416D01*
X0172566Y0049333D01*
X0172657Y0049247D01*
X0172744Y0049158D01*
X0172829Y0049066D01*
X0172911Y0048972D01*
X0172990Y0048875D01*
X0173065Y0048775D01*
X0173138Y0048674D01*
X0173207Y0048570D01*
X0173273Y0048463D01*
X0173335Y0048355D01*
X0173394Y0048245D01*
X0173450Y0048133D01*
X0173502Y0048019D01*
X0173550Y0047904D01*
X0173595Y0047788D01*
X0173635Y0047669D01*
X0173673Y0047550D01*
X0173706Y0047430D01*
X0173735Y0047308D01*
X0173761Y0047186D01*
X0173783Y0047063D01*
X0173800Y0046939D01*
X0173814Y0046815D01*
X0173824Y0046691D01*
X0173830Y0046566D01*
X0173832Y0046441D01*
X0173830Y0046316D01*
X0173824Y0046191D01*
X0173814Y0046067D01*
X0173800Y0045943D01*
X0173783Y0045819D01*
X0173761Y0045696D01*
X0173735Y0045574D01*
X0173706Y0045452D01*
X0173673Y0045332D01*
X0173635Y0045213D01*
X0173595Y0045094D01*
X0173550Y0044978D01*
X0173502Y0044863D01*
X0173450Y0044749D01*
X0173394Y0044637D01*
X0173335Y0044527D01*
X0173273Y0044419D01*
X0173207Y0044312D01*
X0173138Y0044208D01*
X0173065Y0044107D01*
X0172990Y0044007D01*
X0172911Y0043910D01*
X0172829Y0043816D01*
X0172744Y0043724D01*
X0172657Y0043635D01*
X0172566Y0043549D01*
X0172473Y0043466D01*
X0172377Y0043385D01*
X0172279Y0043308D01*
X0172179Y0043234D01*
X0172076Y0043163D01*
X0171971Y0043096D01*
X0171863Y0043031D01*
X0171754Y0042971D01*
X0171643Y0042913D01*
X0171530Y0042860D01*
X0171416Y0042810D01*
X0171300Y0042763D01*
X0171183Y0042721D01*
X0171064Y0042682D01*
X0170944Y0042646D01*
X0170823Y0042615D01*
X0170701Y0042587D01*
X0170579Y0042564D01*
X0170455Y0042544D01*
X0170331Y0042528D01*
X0170207Y0042516D01*
X0170082Y0042508D01*
X0169957Y0042504D01*
X0169833Y0042504D01*
X0169708Y0042508D01*
X0169583Y0042516D01*
X0169459Y0042528D01*
X0169335Y0042544D01*
X0169211Y0042564D01*
X0169089Y0042587D01*
X0168967Y0042615D01*
X0168846Y0042646D01*
X0168726Y0042682D01*
X0168607Y0042721D01*
X0168490Y0042763D01*
X0168374Y0042810D01*
X0168260Y0042860D01*
X0168147Y0042913D01*
X0168036Y0042971D01*
X0167926Y0043031D01*
X0167819Y0043096D01*
X0167714Y0043163D01*
X0167611Y0043234D01*
X0167511Y0043308D01*
X0167413Y0043385D01*
X0167317Y0043466D01*
X0167224Y0043549D01*
X0167133Y0043635D01*
X0167046Y0043724D01*
X0166961Y0043816D01*
X0166879Y0043910D01*
X0166800Y0044007D01*
X0166725Y0044107D01*
X0166652Y0044208D01*
X0166583Y0044312D01*
X0166517Y0044419D01*
X0166455Y0044527D01*
X0166396Y0044637D01*
X0166340Y0044749D01*
X0166288Y0044863D01*
X0166240Y0044978D01*
X0166195Y0045094D01*
X0166155Y0045213D01*
X0166117Y0045332D01*
X0166084Y0045452D01*
X0166055Y0045574D01*
X0166029Y0045696D01*
X0166007Y0045819D01*
X0165990Y0045943D01*
X0165976Y0046067D01*
X0165966Y0046191D01*
X0165960Y0046316D01*
X0165958Y0046441D01*
D11*
X0162344Y0046591D02*
X0162346Y0046784D01*
X0162353Y0046977D01*
X0162365Y0047170D01*
X0162382Y0047363D01*
X0162403Y0047555D01*
X0162429Y0047746D01*
X0162460Y0047937D01*
X0162495Y0048127D01*
X0162535Y0048316D01*
X0162580Y0048504D01*
X0162629Y0048691D01*
X0162683Y0048877D01*
X0162741Y0049061D01*
X0162804Y0049244D01*
X0162872Y0049425D01*
X0162943Y0049604D01*
X0163020Y0049782D01*
X0163100Y0049958D01*
X0163185Y0050131D01*
X0163274Y0050303D01*
X0163367Y0050472D01*
X0163464Y0050639D01*
X0163566Y0050804D01*
X0163671Y0050966D01*
X0163780Y0051125D01*
X0163894Y0051282D01*
X0164011Y0051435D01*
X0164131Y0051586D01*
X0164256Y0051734D01*
X0164384Y0051879D01*
X0164515Y0052020D01*
X0164650Y0052159D01*
X0164789Y0052294D01*
X0164930Y0052425D01*
X0165075Y0052553D01*
X0165223Y0052678D01*
X0165374Y0052798D01*
X0165527Y0052915D01*
X0165684Y0053029D01*
X0165843Y0053138D01*
X0166005Y0053243D01*
X0166170Y0053345D01*
X0166337Y0053442D01*
X0166506Y0053535D01*
X0166678Y0053624D01*
X0166851Y0053709D01*
X0167027Y0053789D01*
X0167205Y0053866D01*
X0167384Y0053937D01*
X0167565Y0054005D01*
X0167748Y0054068D01*
X0167932Y0054126D01*
X0168118Y0054180D01*
X0168305Y0054229D01*
X0168493Y0054274D01*
X0168682Y0054314D01*
X0168872Y0054349D01*
X0169063Y0054380D01*
X0169254Y0054406D01*
X0169446Y0054427D01*
X0169639Y0054444D01*
X0169832Y0054456D01*
X0170025Y0054463D01*
X0170218Y0054465D01*
X0170411Y0054463D01*
X0170604Y0054456D01*
X0170797Y0054444D01*
X0170990Y0054427D01*
X0171182Y0054406D01*
X0171373Y0054380D01*
X0171564Y0054349D01*
X0171754Y0054314D01*
X0171943Y0054274D01*
X0172131Y0054229D01*
X0172318Y0054180D01*
X0172504Y0054126D01*
X0172688Y0054068D01*
X0172871Y0054005D01*
X0173052Y0053937D01*
X0173231Y0053866D01*
X0173409Y0053789D01*
X0173585Y0053709D01*
X0173758Y0053624D01*
X0173930Y0053535D01*
X0174099Y0053442D01*
X0174266Y0053345D01*
X0174431Y0053243D01*
X0174593Y0053138D01*
X0174752Y0053029D01*
X0174909Y0052915D01*
X0175062Y0052798D01*
X0175213Y0052678D01*
X0175361Y0052553D01*
X0175506Y0052425D01*
X0175647Y0052294D01*
X0175786Y0052159D01*
X0175921Y0052020D01*
X0176052Y0051879D01*
X0176180Y0051734D01*
X0176305Y0051586D01*
X0176425Y0051435D01*
X0176542Y0051282D01*
X0176656Y0051125D01*
X0176765Y0050966D01*
X0176870Y0050804D01*
X0176972Y0050639D01*
X0177069Y0050472D01*
X0177162Y0050303D01*
X0177251Y0050131D01*
X0177336Y0049958D01*
X0177416Y0049782D01*
X0177493Y0049604D01*
X0177564Y0049425D01*
X0177632Y0049244D01*
X0177695Y0049061D01*
X0177753Y0048877D01*
X0177807Y0048691D01*
X0177856Y0048504D01*
X0177901Y0048316D01*
X0177941Y0048127D01*
X0177976Y0047937D01*
X0178007Y0047746D01*
X0178033Y0047555D01*
X0178054Y0047363D01*
X0178071Y0047170D01*
X0178083Y0046977D01*
X0178090Y0046784D01*
X0178092Y0046591D01*
X0178090Y0046398D01*
X0178083Y0046205D01*
X0178071Y0046012D01*
X0178054Y0045819D01*
X0178033Y0045627D01*
X0178007Y0045436D01*
X0177976Y0045245D01*
X0177941Y0045055D01*
X0177901Y0044866D01*
X0177856Y0044678D01*
X0177807Y0044491D01*
X0177753Y0044305D01*
X0177695Y0044121D01*
X0177632Y0043938D01*
X0177564Y0043757D01*
X0177493Y0043578D01*
X0177416Y0043400D01*
X0177336Y0043224D01*
X0177251Y0043051D01*
X0177162Y0042879D01*
X0177069Y0042710D01*
X0176972Y0042543D01*
X0176870Y0042378D01*
X0176765Y0042216D01*
X0176656Y0042057D01*
X0176542Y0041900D01*
X0176425Y0041747D01*
X0176305Y0041596D01*
X0176180Y0041448D01*
X0176052Y0041303D01*
X0175921Y0041162D01*
X0175786Y0041023D01*
X0175647Y0040888D01*
X0175506Y0040757D01*
X0175361Y0040629D01*
X0175213Y0040504D01*
X0175062Y0040384D01*
X0174909Y0040267D01*
X0174752Y0040153D01*
X0174593Y0040044D01*
X0174431Y0039939D01*
X0174266Y0039837D01*
X0174099Y0039740D01*
X0173930Y0039647D01*
X0173758Y0039558D01*
X0173585Y0039473D01*
X0173409Y0039393D01*
X0173231Y0039316D01*
X0173052Y0039245D01*
X0172871Y0039177D01*
X0172688Y0039114D01*
X0172504Y0039056D01*
X0172318Y0039002D01*
X0172131Y0038953D01*
X0171943Y0038908D01*
X0171754Y0038868D01*
X0171564Y0038833D01*
X0171373Y0038802D01*
X0171182Y0038776D01*
X0170990Y0038755D01*
X0170797Y0038738D01*
X0170604Y0038726D01*
X0170411Y0038719D01*
X0170218Y0038717D01*
X0170025Y0038719D01*
X0169832Y0038726D01*
X0169639Y0038738D01*
X0169446Y0038755D01*
X0169254Y0038776D01*
X0169063Y0038802D01*
X0168872Y0038833D01*
X0168682Y0038868D01*
X0168493Y0038908D01*
X0168305Y0038953D01*
X0168118Y0039002D01*
X0167932Y0039056D01*
X0167748Y0039114D01*
X0167565Y0039177D01*
X0167384Y0039245D01*
X0167205Y0039316D01*
X0167027Y0039393D01*
X0166851Y0039473D01*
X0166678Y0039558D01*
X0166506Y0039647D01*
X0166337Y0039740D01*
X0166170Y0039837D01*
X0166005Y0039939D01*
X0165843Y0040044D01*
X0165684Y0040153D01*
X0165527Y0040267D01*
X0165374Y0040384D01*
X0165223Y0040504D01*
X0165075Y0040629D01*
X0164930Y0040757D01*
X0164789Y0040888D01*
X0164650Y0041023D01*
X0164515Y0041162D01*
X0164384Y0041303D01*
X0164256Y0041448D01*
X0164131Y0041596D01*
X0164011Y0041747D01*
X0163894Y0041900D01*
X0163780Y0042057D01*
X0163671Y0042216D01*
X0163566Y0042378D01*
X0163464Y0042543D01*
X0163367Y0042710D01*
X0163274Y0042879D01*
X0163185Y0043051D01*
X0163100Y0043224D01*
X0163020Y0043400D01*
X0162943Y0043578D01*
X0162872Y0043757D01*
X0162804Y0043938D01*
X0162741Y0044121D01*
X0162683Y0044305D01*
X0162629Y0044491D01*
X0162580Y0044678D01*
X0162535Y0044866D01*
X0162495Y0045055D01*
X0162460Y0045245D01*
X0162429Y0045436D01*
X0162403Y0045627D01*
X0162382Y0045819D01*
X0162365Y0046012D01*
X0162353Y0046205D01*
X0162346Y0046398D01*
X0162344Y0046591D01*
X0028092Y0172575D02*
X0028094Y0172768D01*
X0028101Y0172961D01*
X0028113Y0173154D01*
X0028130Y0173347D01*
X0028151Y0173539D01*
X0028177Y0173730D01*
X0028208Y0173921D01*
X0028243Y0174111D01*
X0028283Y0174300D01*
X0028328Y0174488D01*
X0028377Y0174675D01*
X0028431Y0174861D01*
X0028489Y0175045D01*
X0028552Y0175228D01*
X0028620Y0175409D01*
X0028691Y0175588D01*
X0028768Y0175766D01*
X0028848Y0175942D01*
X0028933Y0176115D01*
X0029022Y0176287D01*
X0029115Y0176456D01*
X0029212Y0176623D01*
X0029314Y0176788D01*
X0029419Y0176950D01*
X0029528Y0177109D01*
X0029642Y0177266D01*
X0029759Y0177419D01*
X0029879Y0177570D01*
X0030004Y0177718D01*
X0030132Y0177863D01*
X0030263Y0178004D01*
X0030398Y0178143D01*
X0030537Y0178278D01*
X0030678Y0178409D01*
X0030823Y0178537D01*
X0030971Y0178662D01*
X0031122Y0178782D01*
X0031275Y0178899D01*
X0031432Y0179013D01*
X0031591Y0179122D01*
X0031753Y0179227D01*
X0031918Y0179329D01*
X0032085Y0179426D01*
X0032254Y0179519D01*
X0032426Y0179608D01*
X0032599Y0179693D01*
X0032775Y0179773D01*
X0032953Y0179850D01*
X0033132Y0179921D01*
X0033313Y0179989D01*
X0033496Y0180052D01*
X0033680Y0180110D01*
X0033866Y0180164D01*
X0034053Y0180213D01*
X0034241Y0180258D01*
X0034430Y0180298D01*
X0034620Y0180333D01*
X0034811Y0180364D01*
X0035002Y0180390D01*
X0035194Y0180411D01*
X0035387Y0180428D01*
X0035580Y0180440D01*
X0035773Y0180447D01*
X0035966Y0180449D01*
X0036159Y0180447D01*
X0036352Y0180440D01*
X0036545Y0180428D01*
X0036738Y0180411D01*
X0036930Y0180390D01*
X0037121Y0180364D01*
X0037312Y0180333D01*
X0037502Y0180298D01*
X0037691Y0180258D01*
X0037879Y0180213D01*
X0038066Y0180164D01*
X0038252Y0180110D01*
X0038436Y0180052D01*
X0038619Y0179989D01*
X0038800Y0179921D01*
X0038979Y0179850D01*
X0039157Y0179773D01*
X0039333Y0179693D01*
X0039506Y0179608D01*
X0039678Y0179519D01*
X0039847Y0179426D01*
X0040014Y0179329D01*
X0040179Y0179227D01*
X0040341Y0179122D01*
X0040500Y0179013D01*
X0040657Y0178899D01*
X0040810Y0178782D01*
X0040961Y0178662D01*
X0041109Y0178537D01*
X0041254Y0178409D01*
X0041395Y0178278D01*
X0041534Y0178143D01*
X0041669Y0178004D01*
X0041800Y0177863D01*
X0041928Y0177718D01*
X0042053Y0177570D01*
X0042173Y0177419D01*
X0042290Y0177266D01*
X0042404Y0177109D01*
X0042513Y0176950D01*
X0042618Y0176788D01*
X0042720Y0176623D01*
X0042817Y0176456D01*
X0042910Y0176287D01*
X0042999Y0176115D01*
X0043084Y0175942D01*
X0043164Y0175766D01*
X0043241Y0175588D01*
X0043312Y0175409D01*
X0043380Y0175228D01*
X0043443Y0175045D01*
X0043501Y0174861D01*
X0043555Y0174675D01*
X0043604Y0174488D01*
X0043649Y0174300D01*
X0043689Y0174111D01*
X0043724Y0173921D01*
X0043755Y0173730D01*
X0043781Y0173539D01*
X0043802Y0173347D01*
X0043819Y0173154D01*
X0043831Y0172961D01*
X0043838Y0172768D01*
X0043840Y0172575D01*
X0043838Y0172382D01*
X0043831Y0172189D01*
X0043819Y0171996D01*
X0043802Y0171803D01*
X0043781Y0171611D01*
X0043755Y0171420D01*
X0043724Y0171229D01*
X0043689Y0171039D01*
X0043649Y0170850D01*
X0043604Y0170662D01*
X0043555Y0170475D01*
X0043501Y0170289D01*
X0043443Y0170105D01*
X0043380Y0169922D01*
X0043312Y0169741D01*
X0043241Y0169562D01*
X0043164Y0169384D01*
X0043084Y0169208D01*
X0042999Y0169035D01*
X0042910Y0168863D01*
X0042817Y0168694D01*
X0042720Y0168527D01*
X0042618Y0168362D01*
X0042513Y0168200D01*
X0042404Y0168041D01*
X0042290Y0167884D01*
X0042173Y0167731D01*
X0042053Y0167580D01*
X0041928Y0167432D01*
X0041800Y0167287D01*
X0041669Y0167146D01*
X0041534Y0167007D01*
X0041395Y0166872D01*
X0041254Y0166741D01*
X0041109Y0166613D01*
X0040961Y0166488D01*
X0040810Y0166368D01*
X0040657Y0166251D01*
X0040500Y0166137D01*
X0040341Y0166028D01*
X0040179Y0165923D01*
X0040014Y0165821D01*
X0039847Y0165724D01*
X0039678Y0165631D01*
X0039506Y0165542D01*
X0039333Y0165457D01*
X0039157Y0165377D01*
X0038979Y0165300D01*
X0038800Y0165229D01*
X0038619Y0165161D01*
X0038436Y0165098D01*
X0038252Y0165040D01*
X0038066Y0164986D01*
X0037879Y0164937D01*
X0037691Y0164892D01*
X0037502Y0164852D01*
X0037312Y0164817D01*
X0037121Y0164786D01*
X0036930Y0164760D01*
X0036738Y0164739D01*
X0036545Y0164722D01*
X0036352Y0164710D01*
X0036159Y0164703D01*
X0035966Y0164701D01*
X0035773Y0164703D01*
X0035580Y0164710D01*
X0035387Y0164722D01*
X0035194Y0164739D01*
X0035002Y0164760D01*
X0034811Y0164786D01*
X0034620Y0164817D01*
X0034430Y0164852D01*
X0034241Y0164892D01*
X0034053Y0164937D01*
X0033866Y0164986D01*
X0033680Y0165040D01*
X0033496Y0165098D01*
X0033313Y0165161D01*
X0033132Y0165229D01*
X0032953Y0165300D01*
X0032775Y0165377D01*
X0032599Y0165457D01*
X0032426Y0165542D01*
X0032254Y0165631D01*
X0032085Y0165724D01*
X0031918Y0165821D01*
X0031753Y0165923D01*
X0031591Y0166028D01*
X0031432Y0166137D01*
X0031275Y0166251D01*
X0031122Y0166368D01*
X0030971Y0166488D01*
X0030823Y0166613D01*
X0030678Y0166741D01*
X0030537Y0166872D01*
X0030398Y0167007D01*
X0030263Y0167146D01*
X0030132Y0167287D01*
X0030004Y0167432D01*
X0029879Y0167580D01*
X0029759Y0167731D01*
X0029642Y0167884D01*
X0029528Y0168041D01*
X0029419Y0168200D01*
X0029314Y0168362D01*
X0029212Y0168527D01*
X0029115Y0168694D01*
X0029022Y0168863D01*
X0028933Y0169035D01*
X0028848Y0169208D01*
X0028768Y0169384D01*
X0028691Y0169562D01*
X0028620Y0169741D01*
X0028552Y0169922D01*
X0028489Y0170105D01*
X0028431Y0170289D01*
X0028377Y0170475D01*
X0028328Y0170662D01*
X0028283Y0170850D01*
X0028243Y0171039D01*
X0028208Y0171229D01*
X0028177Y0171420D01*
X0028151Y0171611D01*
X0028130Y0171803D01*
X0028113Y0171996D01*
X0028101Y0172189D01*
X0028094Y0172382D01*
X0028092Y0172575D01*
M02*
