M48
;GenerationSoftware,Autodesk,EAGLE,9.2.2*%
;CreationDate,2019-02-11T22:26:20Z*%
FMAT,2
ICI,OFF
METRIC,TZ,000.000
T11C0.381
T10C0.700
T9C0.800
T8C0.813
T7C0.900
T6C1.016
T5C1.194
T4C1.200
T3C2.000
T2C3.302
%
G90
M71
T2
X4064Y28772
T3
X7968Y41002
X41968Y9002
T4
X2540Y44948
X2540Y47488
T5
X10882Y4318
X5882Y4318
T6
X19050Y28772
X19050Y31312
X19050Y26232
X47752Y30988
X47752Y33528
X47752Y36068
X47752Y38608
X47752Y41148
X47752Y43688
X46736Y20320
X44196Y20320
X46736Y22860
X44196Y22860
X46736Y25400
X44196Y25400
T7
X2778Y22218
X10398Y22218
X28702Y23652
X28702Y3652
T8
X29996Y31964
X42696Y31964
X29948Y27726
X40108Y27726
X1740Y35952
X6820Y35952
X30226Y44958
X30226Y39878
X9748Y46174
X7208Y46174
X12288Y46174
T9
X2794Y11938
X5334Y11938
X15494Y19558
X2794Y19558
X5334Y19558
T10
X4328Y40070
X1788Y40070
T11
X23177Y32067
X30162Y48101
X22384Y39688
X37941Y28734
X44767Y30797
X31750Y43021
X35719Y40958
X34449Y45402
X26987Y35401
X26352Y42228
X19050Y37306
X34925Y43815
X37465Y32385
X36195Y39370
X37306Y36036
X29210Y37783
X38100Y25717
X19685Y46990
X23971Y24765
X21590Y43974
X23177Y26670
X40799Y42228
X45561Y35719
X24765Y40164
X31750Y36989
X30162Y36195
M30