G04 EAGLE Gerber RS-274X export*
G75*
%MOMM*%
%FSLAX34Y34*%
%LPD*%
%INBottom Copper*%
%IPPOS*%
%AMOC8*
5,1,8,0,0,1.08239X$1,22.5*%
G01*
%ADD10C,1.408000*%
%ADD11P,1.429621X8X202.500000*%
%ADD12C,1.790700*%
%ADD13C,1.308000*%
%ADD14C,1.524000*%
%ADD15P,1.429621X8X112.500000*%
%ADD16R,1.651000X1.651000*%
%ADD17C,1.651000*%
%ADD18R,1.600000X1.803000*%
%ADD19R,1.803000X1.600000*%
%ADD20R,1.930400X1.930400*%
%ADD21P,2.089446X8X202.500000*%
%ADD22R,0.558800X1.270000*%
%ADD23R,1.270000X0.558800*%
%ADD24R,1.800000X1.600000*%
%ADD25C,1.879600*%
%ADD26P,1.429621X8X292.500000*%
%ADD27C,1.320800*%
%ADD28C,1.422400*%
%ADD29C,2.184400*%
%ADD30C,0.304800*%
%ADD31C,0.685800*%

G36*
X492787Y6988D02*
X492787Y6988D01*
X492814Y6986D01*
X493038Y7008D01*
X493262Y7026D01*
X493288Y7032D01*
X493316Y7035D01*
X493534Y7092D01*
X493751Y7145D01*
X493776Y7155D01*
X493803Y7162D01*
X494009Y7253D01*
X494216Y7339D01*
X494239Y7354D01*
X494264Y7365D01*
X494453Y7487D01*
X494643Y7605D01*
X494664Y7623D01*
X494687Y7638D01*
X494854Y7788D01*
X495024Y7935D01*
X495041Y7956D01*
X495062Y7974D01*
X495203Y8149D01*
X495347Y8321D01*
X495361Y8344D01*
X495378Y8365D01*
X495490Y8560D01*
X495605Y8753D01*
X495616Y8778D01*
X495629Y8802D01*
X495709Y9012D01*
X495792Y9221D01*
X495798Y9247D01*
X495808Y9273D01*
X495853Y9493D01*
X495902Y9712D01*
X495904Y9739D01*
X495910Y9766D01*
X495934Y10160D01*
X495934Y298641D01*
X495933Y298655D01*
X495934Y298669D01*
X495913Y298906D01*
X495894Y299143D01*
X495891Y299157D01*
X495890Y299170D01*
X495831Y299403D01*
X495776Y299633D01*
X495770Y299645D01*
X495767Y299659D01*
X495672Y299879D01*
X495581Y300097D01*
X495574Y300109D01*
X495568Y300121D01*
X495441Y300322D01*
X495315Y300525D01*
X495306Y300535D01*
X495299Y300547D01*
X495142Y300725D01*
X494985Y300905D01*
X494975Y300914D01*
X494966Y300924D01*
X494782Y301075D01*
X494599Y301229D01*
X494587Y301236D01*
X494577Y301244D01*
X494372Y301365D01*
X494167Y301487D01*
X494154Y301492D01*
X494143Y301499D01*
X493920Y301586D01*
X493699Y301674D01*
X493686Y301677D01*
X493673Y301682D01*
X493440Y301732D01*
X493208Y301784D01*
X493194Y301785D01*
X493181Y301788D01*
X492944Y301800D01*
X492706Y301815D01*
X492692Y301814D01*
X492678Y301815D01*
X492444Y301790D01*
X492204Y301767D01*
X492191Y301763D01*
X492178Y301762D01*
X491949Y301700D01*
X491717Y301640D01*
X491705Y301634D01*
X491691Y301630D01*
X491474Y301533D01*
X491256Y301437D01*
X491245Y301430D01*
X491232Y301424D01*
X491157Y301374D01*
X487161Y299719D01*
X467879Y299719D01*
X467486Y299882D01*
X467359Y299923D01*
X467236Y299973D01*
X467120Y300001D01*
X467007Y300037D01*
X466876Y300058D01*
X466746Y300088D01*
X466627Y300096D01*
X466509Y300115D01*
X466376Y300114D01*
X466244Y300124D01*
X466125Y300113D01*
X466006Y300113D01*
X465875Y300091D01*
X465742Y300079D01*
X465626Y300050D01*
X465509Y300031D01*
X465383Y299989D01*
X465254Y299956D01*
X465144Y299909D01*
X465031Y299872D01*
X464913Y299810D01*
X464791Y299758D01*
X464690Y299694D01*
X464585Y299639D01*
X464478Y299560D01*
X464366Y299488D01*
X464276Y299410D01*
X464181Y299338D01*
X464088Y299243D01*
X463988Y299155D01*
X463913Y299063D01*
X463829Y298978D01*
X463753Y298869D01*
X463668Y298767D01*
X463608Y298664D01*
X463539Y298566D01*
X463481Y298447D01*
X463414Y298332D01*
X463370Y298221D01*
X463318Y298114D01*
X463279Y297987D01*
X463231Y297863D01*
X463206Y297746D01*
X463171Y297632D01*
X463153Y297501D01*
X463125Y297371D01*
X463118Y297252D01*
X463102Y297133D01*
X463105Y297001D01*
X463098Y296868D01*
X463110Y296749D01*
X463113Y296630D01*
X463137Y296499D01*
X463151Y296367D01*
X463182Y296252D01*
X463203Y296135D01*
X463247Y296009D01*
X463282Y295881D01*
X463331Y295772D01*
X463371Y295660D01*
X463434Y295543D01*
X463488Y295422D01*
X463554Y295322D01*
X463611Y295217D01*
X463692Y295112D01*
X463765Y295001D01*
X463864Y294889D01*
X463918Y294819D01*
X463965Y294775D01*
X464026Y294705D01*
X485411Y273320D01*
X486030Y271827D01*
X486030Y241786D01*
X486033Y241745D01*
X486031Y241704D01*
X486053Y241494D01*
X486070Y241284D01*
X486079Y241244D01*
X486084Y241203D01*
X486139Y240999D01*
X486188Y240794D01*
X486204Y240757D01*
X486215Y240717D01*
X486302Y240524D01*
X486383Y240330D01*
X486405Y240295D01*
X486422Y240258D01*
X486538Y240081D01*
X486649Y239902D01*
X486676Y239871D01*
X486698Y239837D01*
X486959Y239541D01*
X487026Y239475D01*
X487935Y237280D01*
X487935Y234906D01*
X487026Y232711D01*
X485347Y231032D01*
X483152Y230123D01*
X482473Y230123D01*
X482446Y230121D01*
X482419Y230123D01*
X482195Y230101D01*
X481971Y230083D01*
X481945Y230077D01*
X481917Y230074D01*
X481699Y230017D01*
X481482Y229965D01*
X481457Y229954D01*
X481430Y229947D01*
X481224Y229856D01*
X481017Y229770D01*
X480994Y229755D01*
X480969Y229744D01*
X480780Y229622D01*
X480590Y229504D01*
X480569Y229486D01*
X480546Y229471D01*
X480379Y229321D01*
X480209Y229174D01*
X480192Y229153D01*
X480171Y229135D01*
X480030Y228960D01*
X479886Y228788D01*
X479872Y228765D01*
X479855Y228744D01*
X479743Y228549D01*
X479628Y228356D01*
X479617Y228331D01*
X479604Y228307D01*
X479524Y228097D01*
X479441Y227888D01*
X479435Y227862D01*
X479425Y227836D01*
X479380Y227616D01*
X479331Y227397D01*
X479329Y227370D01*
X479323Y227343D01*
X479299Y226949D01*
X479299Y226225D01*
X478918Y225307D01*
X478869Y225155D01*
X478811Y225006D01*
X478792Y224916D01*
X478763Y224828D01*
X478739Y224670D01*
X478705Y224513D01*
X478700Y224422D01*
X478686Y224331D01*
X478686Y224170D01*
X478678Y224011D01*
X478687Y223919D01*
X478688Y223827D01*
X478714Y223669D01*
X478731Y223510D01*
X478755Y223421D01*
X478770Y223330D01*
X478820Y223178D01*
X478862Y223024D01*
X478900Y222940D01*
X478929Y222853D01*
X479003Y222710D01*
X479069Y222565D01*
X479119Y222488D01*
X479162Y222406D01*
X479257Y222278D01*
X479345Y222144D01*
X479419Y222061D01*
X479462Y222002D01*
X479521Y221945D01*
X479607Y221848D01*
X485411Y216043D01*
X486030Y214550D01*
X486030Y197565D01*
X485411Y196072D01*
X468900Y179561D01*
X467407Y178942D01*
X363808Y178942D01*
X362315Y179561D01*
X327541Y214335D01*
X327510Y214361D01*
X327483Y214392D01*
X327318Y214524D01*
X327158Y214661D01*
X327123Y214683D01*
X327091Y214708D01*
X326909Y214813D01*
X326728Y214923D01*
X326690Y214939D01*
X326654Y214959D01*
X326458Y215034D01*
X326262Y215114D01*
X326222Y215123D01*
X326184Y215138D01*
X325977Y215180D01*
X325772Y215229D01*
X325731Y215231D01*
X325691Y215240D01*
X325297Y215264D01*
X198398Y215264D01*
X198222Y215250D01*
X198045Y215245D01*
X197971Y215230D01*
X197897Y215224D01*
X197724Y215183D01*
X197551Y215149D01*
X197480Y215123D01*
X197407Y215106D01*
X197244Y215037D01*
X197078Y214976D01*
X197012Y214940D01*
X196943Y214911D01*
X196792Y214817D01*
X196638Y214731D01*
X196579Y214685D01*
X196515Y214645D01*
X196381Y214529D01*
X196242Y214420D01*
X196191Y214364D01*
X196135Y214315D01*
X196021Y214179D01*
X195901Y214049D01*
X195860Y213987D01*
X195811Y213929D01*
X195721Y213777D01*
X195623Y213630D01*
X195592Y213561D01*
X195553Y213497D01*
X195487Y213333D01*
X195414Y213171D01*
X195394Y213099D01*
X195366Y213029D01*
X195328Y212856D01*
X195281Y212686D01*
X195272Y212611D01*
X195256Y212538D01*
X195245Y212361D01*
X195226Y212185D01*
X195229Y212110D01*
X195225Y212036D01*
X195242Y211859D01*
X195251Y211682D01*
X195266Y211609D01*
X195273Y211534D01*
X195318Y211363D01*
X195355Y211190D01*
X195381Y211120D01*
X195400Y211047D01*
X195472Y210885D01*
X195535Y210720D01*
X195573Y210655D01*
X195603Y210586D01*
X195699Y210437D01*
X195788Y210284D01*
X195835Y210226D01*
X195876Y210163D01*
X195995Y210031D01*
X196106Y209894D01*
X196162Y209844D01*
X196212Y209788D01*
X196350Y209677D01*
X196482Y209559D01*
X196556Y209510D01*
X196604Y209472D01*
X196682Y209427D01*
X196811Y209341D01*
X197754Y208797D01*
X205557Y200994D01*
X211075Y191437D01*
X213931Y180778D01*
X213931Y169742D01*
X211075Y159083D01*
X205557Y149526D01*
X197754Y141723D01*
X188197Y136205D01*
X177538Y133349D01*
X172720Y133349D01*
X172693Y133347D01*
X172666Y133349D01*
X172442Y133327D01*
X172218Y133309D01*
X172192Y133303D01*
X172164Y133300D01*
X171946Y133243D01*
X171729Y133191D01*
X171704Y133180D01*
X171677Y133173D01*
X171471Y133082D01*
X171264Y132996D01*
X171241Y132981D01*
X171216Y132970D01*
X171027Y132848D01*
X170837Y132730D01*
X170816Y132712D01*
X170793Y132697D01*
X170626Y132547D01*
X170456Y132400D01*
X170439Y132379D01*
X170418Y132361D01*
X170277Y132186D01*
X170133Y132014D01*
X170119Y131991D01*
X170102Y131970D01*
X169990Y131775D01*
X169875Y131582D01*
X169865Y131557D01*
X169851Y131533D01*
X169771Y131323D01*
X169688Y131114D01*
X169682Y131088D01*
X169672Y131062D01*
X169627Y130842D01*
X169578Y130623D01*
X169576Y130596D01*
X169570Y130569D01*
X169546Y130175D01*
X169546Y10160D01*
X169548Y10133D01*
X169546Y10106D01*
X169568Y9882D01*
X169586Y9658D01*
X169592Y9632D01*
X169595Y9604D01*
X169652Y9386D01*
X169705Y9169D01*
X169715Y9144D01*
X169722Y9117D01*
X169813Y8911D01*
X169899Y8704D01*
X169914Y8681D01*
X169925Y8656D01*
X170047Y8467D01*
X170165Y8277D01*
X170183Y8256D01*
X170198Y8233D01*
X170348Y8066D01*
X170495Y7896D01*
X170516Y7879D01*
X170534Y7858D01*
X170709Y7717D01*
X170881Y7573D01*
X170904Y7559D01*
X170925Y7542D01*
X171120Y7430D01*
X171313Y7315D01*
X171338Y7305D01*
X171362Y7291D01*
X171572Y7211D01*
X171781Y7128D01*
X171807Y7122D01*
X171833Y7112D01*
X172053Y7067D01*
X172272Y7018D01*
X172299Y7016D01*
X172326Y7010D01*
X172720Y6986D01*
X492760Y6986D01*
X492787Y6988D01*
G37*
G36*
X43080Y271148D02*
X43080Y271148D01*
X43107Y271146D01*
X43331Y271168D01*
X43555Y271186D01*
X43581Y271192D01*
X43609Y271195D01*
X43827Y271252D01*
X44044Y271305D01*
X44069Y271315D01*
X44096Y271322D01*
X44302Y271413D01*
X44509Y271499D01*
X44532Y271514D01*
X44557Y271525D01*
X44746Y271647D01*
X44936Y271765D01*
X44957Y271783D01*
X44980Y271798D01*
X45147Y271948D01*
X45317Y272095D01*
X45334Y272116D01*
X45355Y272134D01*
X45496Y272309D01*
X45640Y272481D01*
X45654Y272504D01*
X45671Y272525D01*
X45783Y272720D01*
X45898Y272913D01*
X45909Y272938D01*
X45922Y272962D01*
X46002Y273172D01*
X46085Y273381D01*
X46091Y273407D01*
X46101Y273433D01*
X46146Y273653D01*
X46195Y273872D01*
X46197Y273899D01*
X46203Y273926D01*
X46227Y274320D01*
X46227Y292782D01*
X46846Y294275D01*
X56474Y303903D01*
X56500Y303934D01*
X56531Y303961D01*
X56663Y304126D01*
X56800Y304286D01*
X56822Y304321D01*
X56847Y304353D01*
X56952Y304535D01*
X57062Y304716D01*
X57078Y304754D01*
X57098Y304790D01*
X57173Y304986D01*
X57253Y305182D01*
X57262Y305222D01*
X57277Y305260D01*
X57319Y305467D01*
X57368Y305672D01*
X57370Y305713D01*
X57379Y305753D01*
X57403Y306147D01*
X57403Y307243D01*
X57395Y307345D01*
X57397Y307447D01*
X57375Y307595D01*
X57363Y307745D01*
X57339Y307844D01*
X57325Y307945D01*
X57280Y308089D01*
X57245Y308234D01*
X57205Y308328D01*
X57175Y308426D01*
X57108Y308560D01*
X57050Y308698D01*
X56996Y308785D01*
X56950Y308877D01*
X56863Y308999D01*
X56784Y309126D01*
X56717Y309203D01*
X56658Y309287D01*
X56552Y309393D01*
X56454Y309507D01*
X56376Y309572D01*
X56304Y309645D01*
X56183Y309734D01*
X56068Y309830D01*
X55980Y309882D01*
X55898Y309943D01*
X55765Y310011D01*
X55636Y310088D01*
X55541Y310126D01*
X55450Y310173D01*
X55307Y310219D01*
X55168Y310275D01*
X55069Y310297D01*
X54971Y310329D01*
X54823Y310352D01*
X54677Y310385D01*
X54575Y310392D01*
X54474Y310408D01*
X54324Y310407D01*
X54175Y310417D01*
X54073Y310407D01*
X53970Y310407D01*
X53822Y310383D01*
X53673Y310368D01*
X53574Y310342D01*
X53473Y310326D01*
X53331Y310279D01*
X53186Y310241D01*
X53092Y310200D01*
X52995Y310168D01*
X52813Y310077D01*
X52725Y310038D01*
X52691Y310016D01*
X52642Y309992D01*
X52167Y309718D01*
X50537Y309042D01*
X49374Y308731D01*
X49374Y332740D01*
X49374Y357958D01*
X49508Y358074D01*
X49525Y358095D01*
X49546Y358113D01*
X49687Y358288D01*
X49831Y358460D01*
X49845Y358483D01*
X49862Y358504D01*
X49974Y358699D01*
X50089Y358892D01*
X50100Y358917D01*
X50113Y358941D01*
X50193Y359151D01*
X50276Y359360D01*
X50282Y359386D01*
X50292Y359412D01*
X50337Y359632D01*
X50386Y359851D01*
X50388Y359878D01*
X50394Y359905D01*
X50418Y360299D01*
X50418Y417115D01*
X51057Y418657D01*
X51075Y418680D01*
X51212Y418840D01*
X51234Y418875D01*
X51259Y418907D01*
X51364Y419089D01*
X51474Y419270D01*
X51490Y419308D01*
X51510Y419344D01*
X51585Y419540D01*
X51665Y419736D01*
X51674Y419776D01*
X51689Y419814D01*
X51731Y420021D01*
X51780Y420226D01*
X51782Y420267D01*
X51791Y420307D01*
X51815Y420701D01*
X51815Y446173D01*
X51814Y446195D01*
X51815Y446217D01*
X51794Y446444D01*
X51775Y446675D01*
X51770Y446696D01*
X51768Y446718D01*
X51711Y446941D01*
X51657Y447164D01*
X51648Y447184D01*
X51643Y447206D01*
X51551Y447417D01*
X51462Y447629D01*
X51450Y447647D01*
X51442Y447667D01*
X51319Y447859D01*
X51196Y448056D01*
X51182Y448073D01*
X51170Y448091D01*
X51018Y448262D01*
X50866Y448437D01*
X50849Y448451D01*
X50835Y448467D01*
X50657Y448612D01*
X50480Y448760D01*
X50462Y448771D01*
X50445Y448785D01*
X50245Y448901D01*
X50048Y449018D01*
X50028Y449026D01*
X50009Y449037D01*
X49794Y449120D01*
X49580Y449205D01*
X49559Y449210D01*
X49539Y449218D01*
X49314Y449265D01*
X49089Y449315D01*
X49067Y449317D01*
X49046Y449321D01*
X48816Y449332D01*
X48587Y449347D01*
X48565Y449345D01*
X48543Y449346D01*
X48314Y449320D01*
X48085Y449298D01*
X48064Y449293D01*
X48042Y449290D01*
X47660Y449192D01*
X46454Y448800D01*
X46454Y459120D01*
X46454Y469440D01*
X47424Y469125D01*
X48938Y468353D01*
X50071Y467530D01*
X50097Y467515D01*
X50120Y467495D01*
X50311Y467383D01*
X50501Y467268D01*
X50528Y467256D01*
X50554Y467241D01*
X50761Y467160D01*
X50966Y467076D01*
X50995Y467069D01*
X51024Y467058D01*
X51240Y467012D01*
X51456Y466961D01*
X51486Y466958D01*
X51516Y466952D01*
X51736Y466940D01*
X51959Y466924D01*
X51989Y466927D01*
X52019Y466925D01*
X52238Y466948D01*
X52460Y466967D01*
X52490Y466975D01*
X52519Y466978D01*
X52733Y467036D01*
X52949Y467090D01*
X52976Y467101D01*
X53005Y467109D01*
X53208Y467200D01*
X53412Y467287D01*
X53437Y467303D01*
X53465Y467316D01*
X53650Y467438D01*
X53838Y467556D01*
X53860Y467576D01*
X53885Y467592D01*
X54181Y467854D01*
X67548Y481220D01*
X69041Y481839D01*
X160067Y481839D01*
X161560Y481220D01*
X166997Y475783D01*
X167028Y475757D01*
X167055Y475726D01*
X167220Y475594D01*
X167380Y475457D01*
X167415Y475435D01*
X167447Y475410D01*
X167629Y475305D01*
X167810Y475195D01*
X167848Y475179D01*
X167884Y475159D01*
X168080Y475084D01*
X168276Y475004D01*
X168316Y474995D01*
X168354Y474980D01*
X168561Y474938D01*
X168766Y474889D01*
X168807Y474887D01*
X168847Y474878D01*
X169241Y474854D01*
X197171Y474854D01*
X197198Y474856D01*
X197225Y474854D01*
X197449Y474876D01*
X197673Y474894D01*
X197699Y474900D01*
X197727Y474903D01*
X197945Y474960D01*
X198162Y475012D01*
X198187Y475023D01*
X198214Y475030D01*
X198420Y475121D01*
X198627Y475207D01*
X198650Y475222D01*
X198675Y475233D01*
X198864Y475355D01*
X199054Y475473D01*
X199075Y475491D01*
X199098Y475506D01*
X199265Y475656D01*
X199435Y475803D01*
X199452Y475824D01*
X199473Y475842D01*
X199614Y476017D01*
X199758Y476189D01*
X199772Y476212D01*
X199789Y476233D01*
X199901Y476428D01*
X200016Y476621D01*
X200027Y476646D01*
X200040Y476670D01*
X200085Y476788D01*
X201834Y478537D01*
X234526Y478537D01*
X234537Y478473D01*
X234546Y478370D01*
X234549Y478356D01*
X234550Y478343D01*
X234583Y478214D01*
X234606Y478079D01*
X234640Y477981D01*
X234664Y477881D01*
X234670Y477868D01*
X234673Y477855D01*
X234726Y477732D01*
X234771Y477603D01*
X234819Y477512D01*
X234859Y477417D01*
X234866Y477405D01*
X234872Y477392D01*
X234944Y477279D01*
X235008Y477159D01*
X235082Y477057D01*
X235125Y476989D01*
X235134Y476979D01*
X235141Y476967D01*
X235184Y476918D01*
X235241Y476840D01*
X235351Y476728D01*
X235455Y476609D01*
X235465Y476600D01*
X235474Y476589D01*
X235537Y476538D01*
X235593Y476480D01*
X235720Y476386D01*
X235841Y476285D01*
X235852Y476278D01*
X235863Y476269D01*
X235933Y476228D01*
X235998Y476180D01*
X236139Y476107D01*
X236273Y476027D01*
X236285Y476022D01*
X236297Y476015D01*
X236373Y475986D01*
X236445Y475948D01*
X236596Y475898D01*
X236740Y475840D01*
X236753Y475838D01*
X236767Y475832D01*
X236846Y475815D01*
X236923Y475790D01*
X237080Y475764D01*
X237232Y475730D01*
X237245Y475729D01*
X237259Y475726D01*
X237340Y475722D01*
X237420Y475709D01*
X237580Y475708D01*
X237735Y475699D01*
X237747Y475700D01*
X237762Y475699D01*
X237842Y475708D01*
X237923Y475707D01*
X238081Y475732D01*
X238236Y475747D01*
X238248Y475750D01*
X238262Y475752D01*
X238341Y475773D01*
X238421Y475786D01*
X238572Y475835D01*
X238723Y475874D01*
X238735Y475880D01*
X238749Y475883D01*
X238823Y475916D01*
X238899Y475942D01*
X239041Y476014D01*
X239184Y476077D01*
X239195Y476084D01*
X239208Y476090D01*
X239276Y476134D01*
X239348Y476171D01*
X239475Y476265D01*
X239607Y476350D01*
X239617Y476359D01*
X239628Y476366D01*
X239701Y476430D01*
X239754Y476469D01*
X239815Y476531D01*
X239925Y476628D01*
X239951Y476659D01*
X239982Y476686D01*
X240041Y476760D01*
X240108Y476827D01*
X240175Y476922D01*
X240251Y477011D01*
X240273Y477046D01*
X240298Y477078D01*
X240346Y477160D01*
X240400Y477237D01*
X240452Y477340D01*
X240513Y477441D01*
X240529Y477479D01*
X240549Y477514D01*
X240583Y477603D01*
X240625Y477687D01*
X240659Y477798D01*
X240704Y477907D01*
X240713Y477947D01*
X240728Y477985D01*
X240747Y478079D01*
X240775Y478168D01*
X240792Y478282D01*
X240819Y478397D01*
X240822Y478438D01*
X240830Y478478D01*
X240833Y478537D01*
X265526Y478537D01*
X267015Y477048D01*
X267015Y472948D01*
X267017Y472921D01*
X267015Y472894D01*
X267037Y472670D01*
X267055Y472446D01*
X267061Y472420D01*
X267064Y472392D01*
X267121Y472174D01*
X267173Y471957D01*
X267184Y471932D01*
X267191Y471905D01*
X267282Y471699D01*
X267368Y471492D01*
X267383Y471469D01*
X267394Y471444D01*
X267516Y471255D01*
X267634Y471065D01*
X267652Y471044D01*
X267667Y471021D01*
X267817Y470854D01*
X267964Y470684D01*
X267985Y470667D01*
X268003Y470646D01*
X268178Y470505D01*
X268350Y470361D01*
X268373Y470347D01*
X268394Y470330D01*
X268589Y470218D01*
X268782Y470103D01*
X268807Y470092D01*
X268831Y470079D01*
X269041Y469999D01*
X269250Y469916D01*
X269276Y469910D01*
X269302Y469900D01*
X269522Y469855D01*
X269741Y469806D01*
X269768Y469804D01*
X269795Y469798D01*
X270189Y469774D01*
X272205Y469774D01*
X274400Y468865D01*
X274466Y468798D01*
X274497Y468772D01*
X274525Y468741D01*
X274689Y468609D01*
X274849Y468472D01*
X274884Y468450D01*
X274916Y468425D01*
X275098Y468320D01*
X275279Y468210D01*
X275317Y468194D01*
X275353Y468174D01*
X275549Y468099D01*
X275745Y468019D01*
X275785Y468010D01*
X275823Y467995D01*
X276030Y467953D01*
X276236Y467904D01*
X276276Y467902D01*
X276316Y467893D01*
X276711Y467869D01*
X376602Y467869D01*
X378095Y467250D01*
X392803Y452542D01*
X392834Y452516D01*
X392861Y452485D01*
X393026Y452353D01*
X393186Y452216D01*
X393221Y452194D01*
X393253Y452169D01*
X393435Y452064D01*
X393616Y451954D01*
X393654Y451938D01*
X393689Y451918D01*
X393886Y451843D01*
X394082Y451763D01*
X394122Y451754D01*
X394160Y451739D01*
X394367Y451697D01*
X394572Y451648D01*
X394613Y451646D01*
X394653Y451637D01*
X395047Y451613D01*
X395141Y451613D01*
X397336Y450704D01*
X399015Y449025D01*
X399924Y446830D01*
X399924Y444500D01*
X399926Y444473D01*
X399924Y444446D01*
X399946Y444222D01*
X399964Y443998D01*
X399970Y443972D01*
X399973Y443944D01*
X400030Y443726D01*
X400082Y443509D01*
X400093Y443484D01*
X400100Y443457D01*
X400191Y443251D01*
X400277Y443044D01*
X400292Y443021D01*
X400303Y442996D01*
X400425Y442807D01*
X400543Y442617D01*
X400561Y442596D01*
X400576Y442573D01*
X400726Y442406D01*
X400873Y442236D01*
X400894Y442219D01*
X400912Y442198D01*
X401087Y442057D01*
X401259Y441913D01*
X401282Y441899D01*
X401303Y441882D01*
X401498Y441770D01*
X401691Y441655D01*
X401716Y441644D01*
X401740Y441631D01*
X401950Y441551D01*
X402159Y441468D01*
X402185Y441462D01*
X402211Y441452D01*
X402431Y441407D01*
X402650Y441358D01*
X402677Y441356D01*
X402704Y441350D01*
X403098Y441326D01*
X458661Y441326D01*
X458702Y441329D01*
X458743Y441327D01*
X458953Y441349D01*
X459163Y441366D01*
X459203Y441375D01*
X459244Y441380D01*
X459448Y441435D01*
X459653Y441484D01*
X459690Y441500D01*
X459730Y441511D01*
X459923Y441598D01*
X460117Y441679D01*
X460152Y441701D01*
X460189Y441718D01*
X460366Y441834D01*
X460545Y441945D01*
X460576Y441972D01*
X460610Y441994D01*
X460906Y442255D01*
X464144Y445494D01*
X467879Y447041D01*
X487161Y447041D01*
X491179Y445376D01*
X491329Y445285D01*
X491341Y445280D01*
X491353Y445273D01*
X491572Y445186D01*
X491795Y445095D01*
X491808Y445091D01*
X491821Y445086D01*
X492053Y445034D01*
X492285Y444980D01*
X492299Y444979D01*
X492312Y444976D01*
X492551Y444961D01*
X492787Y444944D01*
X492801Y444946D01*
X492814Y444945D01*
X493052Y444968D01*
X493289Y444989D01*
X493302Y444992D01*
X493316Y444993D01*
X493546Y445053D01*
X493777Y445112D01*
X493790Y445117D01*
X493803Y445120D01*
X494021Y445216D01*
X494240Y445310D01*
X494251Y445318D01*
X494264Y445323D01*
X494465Y445453D01*
X494665Y445580D01*
X494675Y445589D01*
X494687Y445596D01*
X494864Y445755D01*
X495043Y445913D01*
X495051Y445923D01*
X495062Y445932D01*
X495212Y446118D01*
X495363Y446302D01*
X495370Y446313D01*
X495378Y446324D01*
X495497Y446530D01*
X495617Y446736D01*
X495622Y446749D01*
X495629Y446761D01*
X495713Y446982D01*
X495800Y447205D01*
X495803Y447219D01*
X495808Y447231D01*
X495856Y447465D01*
X495906Y447697D01*
X495907Y447711D01*
X495910Y447724D01*
X495934Y448119D01*
X495934Y490220D01*
X495932Y490247D01*
X495934Y490274D01*
X495912Y490498D01*
X495894Y490722D01*
X495888Y490748D01*
X495885Y490776D01*
X495828Y490994D01*
X495776Y491211D01*
X495765Y491236D01*
X495758Y491263D01*
X495667Y491469D01*
X495581Y491676D01*
X495566Y491699D01*
X495555Y491724D01*
X495433Y491913D01*
X495315Y492103D01*
X495297Y492124D01*
X495282Y492147D01*
X495132Y492314D01*
X494985Y492484D01*
X494964Y492501D01*
X494946Y492522D01*
X494771Y492663D01*
X494599Y492807D01*
X494576Y492821D01*
X494555Y492838D01*
X494360Y492950D01*
X494167Y493065D01*
X494142Y493076D01*
X494118Y493089D01*
X493908Y493169D01*
X493699Y493252D01*
X493673Y493258D01*
X493647Y493268D01*
X493427Y493313D01*
X493208Y493362D01*
X493181Y493364D01*
X493154Y493370D01*
X492760Y493394D01*
X7620Y493394D01*
X7593Y493392D01*
X7566Y493394D01*
X7342Y493372D01*
X7118Y493354D01*
X7092Y493348D01*
X7064Y493345D01*
X6846Y493288D01*
X6629Y493236D01*
X6604Y493225D01*
X6577Y493218D01*
X6371Y493127D01*
X6164Y493041D01*
X6141Y493026D01*
X6116Y493015D01*
X5927Y492893D01*
X5737Y492775D01*
X5716Y492757D01*
X5693Y492742D01*
X5526Y492592D01*
X5356Y492445D01*
X5339Y492424D01*
X5318Y492406D01*
X5177Y492231D01*
X5033Y492059D01*
X5019Y492036D01*
X5002Y492015D01*
X4890Y491820D01*
X4775Y491627D01*
X4765Y491602D01*
X4751Y491578D01*
X4671Y491368D01*
X4588Y491159D01*
X4582Y491133D01*
X4572Y491107D01*
X4527Y490887D01*
X4478Y490668D01*
X4476Y490641D01*
X4470Y490614D01*
X4446Y490220D01*
X4446Y473090D01*
X4448Y473063D01*
X4446Y473036D01*
X4468Y472812D01*
X4486Y472588D01*
X4492Y472562D01*
X4495Y472534D01*
X4552Y472315D01*
X4604Y472099D01*
X4615Y472074D01*
X4622Y472047D01*
X4713Y471841D01*
X4799Y471634D01*
X4814Y471611D01*
X4825Y471586D01*
X4947Y471397D01*
X5065Y471207D01*
X5083Y471186D01*
X5098Y471163D01*
X5248Y470995D01*
X5395Y470826D01*
X5416Y470809D01*
X5434Y470788D01*
X5609Y470647D01*
X5781Y470503D01*
X5804Y470489D01*
X5825Y470472D01*
X6020Y470360D01*
X6213Y470245D01*
X6238Y470234D01*
X6262Y470221D01*
X6472Y470141D01*
X6681Y470058D01*
X6707Y470052D01*
X6733Y470042D01*
X6953Y469997D01*
X7172Y469948D01*
X7199Y469946D01*
X7226Y469940D01*
X7620Y469916D01*
X27187Y469916D01*
X28676Y468427D01*
X28676Y467155D01*
X28677Y467144D01*
X28676Y467133D01*
X28697Y466893D01*
X28716Y466653D01*
X28718Y466642D01*
X28719Y466632D01*
X28778Y466395D01*
X28834Y466164D01*
X28839Y466154D01*
X28841Y466143D01*
X28936Y465922D01*
X29029Y465699D01*
X29035Y465690D01*
X29039Y465680D01*
X29167Y465477D01*
X29295Y465272D01*
X29302Y465263D01*
X29308Y465254D01*
X29466Y465075D01*
X29625Y464891D01*
X29633Y464884D01*
X29640Y464876D01*
X29825Y464723D01*
X30011Y464568D01*
X30020Y464562D01*
X30029Y464555D01*
X30236Y464433D01*
X30443Y464310D01*
X30453Y464306D01*
X30463Y464300D01*
X30687Y464212D01*
X30911Y464123D01*
X30921Y464121D01*
X30931Y464117D01*
X31166Y464066D01*
X31402Y464013D01*
X31413Y464012D01*
X31423Y464010D01*
X31665Y463996D01*
X31904Y463981D01*
X31915Y463982D01*
X31926Y463982D01*
X32165Y464007D01*
X32406Y464030D01*
X32416Y464033D01*
X32427Y464034D01*
X32657Y464096D01*
X32893Y464157D01*
X32903Y464161D01*
X32913Y464164D01*
X33131Y464262D01*
X33354Y464360D01*
X33363Y464366D01*
X33373Y464370D01*
X33573Y464501D01*
X33777Y464633D01*
X33785Y464640D01*
X33794Y464646D01*
X33972Y464807D01*
X34152Y464969D01*
X34158Y464978D01*
X34166Y464985D01*
X34418Y465289D01*
X35046Y466153D01*
X36247Y467355D01*
X37622Y468353D01*
X39136Y469125D01*
X40106Y469440D01*
X40106Y459120D01*
X40106Y448800D01*
X39136Y449115D01*
X37622Y449887D01*
X36247Y450885D01*
X35046Y452087D01*
X34418Y452951D01*
X34411Y452959D01*
X34405Y452968D01*
X34248Y453149D01*
X34091Y453333D01*
X34082Y453340D01*
X34075Y453349D01*
X33891Y453503D01*
X33707Y453659D01*
X33698Y453665D01*
X33689Y453672D01*
X33483Y453795D01*
X33276Y453921D01*
X33266Y453925D01*
X33257Y453930D01*
X33035Y454019D01*
X32810Y454110D01*
X32799Y454113D01*
X32789Y454117D01*
X32555Y454170D01*
X32320Y454224D01*
X32309Y454225D01*
X32298Y454227D01*
X32058Y454242D01*
X31817Y454259D01*
X31806Y454258D01*
X31796Y454259D01*
X31555Y454235D01*
X31316Y454214D01*
X31305Y454211D01*
X31294Y454210D01*
X31060Y454149D01*
X30828Y454090D01*
X30818Y454086D01*
X30807Y454083D01*
X30587Y453986D01*
X30365Y453891D01*
X30356Y453885D01*
X30346Y453880D01*
X30142Y453749D01*
X29940Y453621D01*
X29932Y453613D01*
X29923Y453607D01*
X29742Y453445D01*
X29563Y453287D01*
X29557Y453278D01*
X29548Y453271D01*
X29397Y453084D01*
X29244Y452897D01*
X29239Y452888D01*
X29232Y452879D01*
X29111Y452669D01*
X28990Y452463D01*
X28986Y452452D01*
X28981Y452443D01*
X28896Y452219D01*
X28808Y451993D01*
X28806Y451982D01*
X28802Y451972D01*
X28753Y451734D01*
X28703Y451501D01*
X28703Y451490D01*
X28700Y451479D01*
X28676Y451085D01*
X28676Y449813D01*
X27187Y448324D01*
X7620Y448324D01*
X7593Y448322D01*
X7566Y448324D01*
X7342Y448302D01*
X7118Y448284D01*
X7092Y448278D01*
X7064Y448275D01*
X6846Y448218D01*
X6629Y448166D01*
X6604Y448155D01*
X6577Y448148D01*
X6371Y448057D01*
X6164Y447971D01*
X6141Y447956D01*
X6116Y447945D01*
X5927Y447823D01*
X5737Y447705D01*
X5716Y447687D01*
X5693Y447672D01*
X5526Y447522D01*
X5356Y447375D01*
X5339Y447354D01*
X5318Y447336D01*
X5177Y447161D01*
X5033Y446989D01*
X5019Y446966D01*
X5002Y446945D01*
X4890Y446750D01*
X4775Y446557D01*
X4765Y446532D01*
X4751Y446508D01*
X4671Y446298D01*
X4588Y446089D01*
X4582Y446063D01*
X4572Y446037D01*
X4527Y445817D01*
X4478Y445598D01*
X4476Y445571D01*
X4470Y445544D01*
X4446Y445150D01*
X4446Y274320D01*
X4448Y274293D01*
X4446Y274266D01*
X4468Y274042D01*
X4486Y273818D01*
X4492Y273792D01*
X4495Y273764D01*
X4552Y273546D01*
X4605Y273329D01*
X4615Y273304D01*
X4622Y273277D01*
X4713Y273071D01*
X4799Y272864D01*
X4814Y272841D01*
X4825Y272816D01*
X4947Y272627D01*
X5065Y272437D01*
X5083Y272416D01*
X5098Y272393D01*
X5248Y272226D01*
X5395Y272056D01*
X5416Y272039D01*
X5434Y272018D01*
X5609Y271877D01*
X5781Y271733D01*
X5804Y271719D01*
X5825Y271702D01*
X6020Y271590D01*
X6213Y271475D01*
X6238Y271465D01*
X6262Y271451D01*
X6472Y271371D01*
X6681Y271288D01*
X6707Y271282D01*
X6733Y271272D01*
X6953Y271227D01*
X7172Y271178D01*
X7199Y271176D01*
X7226Y271170D01*
X7620Y271146D01*
X43053Y271146D01*
X43080Y271148D01*
G37*
G36*
X369822Y233184D02*
X369822Y233184D01*
X369968Y233186D01*
X370072Y233204D01*
X370178Y233213D01*
X370320Y233247D01*
X370464Y233272D01*
X370565Y233307D01*
X370667Y233331D01*
X370802Y233388D01*
X370941Y233436D01*
X371034Y233485D01*
X371131Y233526D01*
X371256Y233603D01*
X371385Y233672D01*
X371469Y233736D01*
X371559Y233792D01*
X371670Y233888D01*
X371787Y233976D01*
X371860Y234052D01*
X371939Y234122D01*
X372034Y234234D01*
X372135Y234340D01*
X372195Y234427D01*
X372263Y234508D01*
X372338Y234633D01*
X372421Y234754D01*
X372467Y234849D01*
X372521Y234940D01*
X372575Y235076D01*
X372639Y235208D01*
X372669Y235309D01*
X372708Y235408D01*
X372740Y235551D01*
X372781Y235691D01*
X372795Y235796D01*
X372818Y235899D01*
X372827Y236045D01*
X372846Y236190D01*
X372843Y236296D01*
X372850Y236401D01*
X372835Y236547D01*
X372831Y236694D01*
X372811Y236797D01*
X372801Y236903D01*
X372764Y237045D01*
X372737Y237188D01*
X372694Y237311D01*
X372674Y237390D01*
X372644Y237457D01*
X372608Y237562D01*
X371855Y239380D01*
X371855Y243220D01*
X373325Y246768D01*
X376040Y249483D01*
X379588Y250953D01*
X397652Y250953D01*
X401200Y249483D01*
X403915Y246768D01*
X405385Y243220D01*
X405385Y239380D01*
X404632Y237562D01*
X404586Y237422D01*
X404532Y237286D01*
X404509Y237183D01*
X404476Y237083D01*
X404454Y236938D01*
X404422Y236795D01*
X404415Y236690D01*
X404399Y236585D01*
X404400Y236439D01*
X404390Y236293D01*
X404401Y236187D01*
X404401Y236082D01*
X404425Y235937D01*
X404439Y235791D01*
X404466Y235689D01*
X404483Y235585D01*
X404529Y235446D01*
X404566Y235304D01*
X404609Y235207D01*
X404642Y235107D01*
X404710Y234977D01*
X404769Y234843D01*
X404826Y234754D01*
X404875Y234661D01*
X404962Y234543D01*
X405042Y234420D01*
X405112Y234341D01*
X405175Y234257D01*
X405280Y234154D01*
X405378Y234045D01*
X405460Y233979D01*
X405536Y233905D01*
X405656Y233821D01*
X405770Y233729D01*
X405861Y233676D01*
X405948Y233615D01*
X406079Y233551D01*
X406206Y233478D01*
X406305Y233440D01*
X406400Y233394D01*
X406540Y233351D01*
X406677Y233299D01*
X406781Y233278D01*
X406882Y233247D01*
X407027Y233227D01*
X407170Y233197D01*
X407300Y233189D01*
X407380Y233178D01*
X407454Y233180D01*
X407564Y233173D01*
X428811Y233173D01*
X428970Y233185D01*
X429130Y233189D01*
X429221Y233205D01*
X429313Y233213D01*
X429468Y233250D01*
X429626Y233279D01*
X429713Y233310D01*
X429802Y233331D01*
X429950Y233393D01*
X430101Y233447D01*
X430182Y233491D01*
X430266Y233526D01*
X430402Y233611D01*
X430543Y233687D01*
X430616Y233743D01*
X430694Y233792D01*
X430815Y233897D01*
X430942Y233994D01*
X431005Y234061D01*
X431074Y234122D01*
X431177Y234245D01*
X431287Y234361D01*
X431339Y234437D01*
X431398Y234508D01*
X431480Y234645D01*
X431570Y234778D01*
X431619Y234877D01*
X431656Y234940D01*
X431686Y235016D01*
X431743Y235132D01*
X431839Y235363D01*
X435359Y238883D01*
X435411Y238916D01*
X435493Y238988D01*
X435580Y239051D01*
X435681Y239154D01*
X435789Y239249D01*
X435858Y239332D01*
X435935Y239409D01*
X436019Y239526D01*
X436110Y239637D01*
X436165Y239730D01*
X436228Y239818D01*
X436293Y239947D01*
X436365Y240071D01*
X436405Y240172D01*
X436453Y240268D01*
X436496Y240406D01*
X436549Y240540D01*
X436572Y240646D01*
X436604Y240749D01*
X436625Y240891D01*
X436656Y241032D01*
X436662Y241140D01*
X436678Y241247D01*
X436676Y241391D01*
X436684Y241535D01*
X436673Y241642D01*
X436671Y241750D01*
X436647Y241892D01*
X436632Y242035D01*
X436604Y242140D01*
X436585Y242247D01*
X436539Y242383D01*
X436501Y242522D01*
X436457Y242621D01*
X436422Y242723D01*
X436354Y242850D01*
X436296Y242981D01*
X436236Y243072D01*
X436185Y243167D01*
X436099Y243282D01*
X436020Y243402D01*
X435947Y243483D01*
X435881Y243569D01*
X435778Y243668D01*
X435681Y243775D01*
X435578Y243860D01*
X435518Y243917D01*
X435459Y243958D01*
X435376Y244026D01*
X434182Y244894D01*
X432854Y246222D01*
X431749Y247743D01*
X430896Y249417D01*
X430438Y250826D01*
X441960Y250826D01*
X441987Y250828D01*
X442014Y250826D01*
X442238Y250848D01*
X442462Y250866D01*
X442488Y250872D01*
X442515Y250875D01*
X442733Y250932D01*
X442951Y250984D01*
X442976Y250995D01*
X443003Y251002D01*
X443209Y251092D01*
X443415Y251179D01*
X443438Y251193D01*
X443463Y251204D01*
X443653Y251326D01*
X443843Y251445D01*
X443864Y251463D01*
X443887Y251477D01*
X444054Y251628D01*
X444223Y251775D01*
X444224Y251775D01*
X444241Y251796D01*
X444261Y251814D01*
X444262Y251814D01*
X444403Y251989D01*
X444547Y252161D01*
X444561Y252185D01*
X444578Y252206D01*
X444690Y252400D01*
X444806Y252593D01*
X444816Y252619D01*
X444829Y252642D01*
X444909Y252852D01*
X444992Y253061D01*
X444998Y253088D01*
X445008Y253113D01*
X445053Y253333D01*
X445103Y253552D01*
X445104Y253580D01*
X445110Y253606D01*
X445134Y254000D01*
X445134Y265522D01*
X446543Y265064D01*
X448217Y264211D01*
X449738Y263106D01*
X451066Y261778D01*
X451934Y260584D01*
X452027Y260474D01*
X452113Y260359D01*
X452191Y260283D01*
X452261Y260201D01*
X452371Y260108D01*
X452474Y260008D01*
X452562Y259945D01*
X452645Y259875D01*
X452768Y259800D01*
X452885Y259718D01*
X452982Y259670D01*
X453075Y259614D01*
X453209Y259560D01*
X453338Y259496D01*
X453441Y259465D01*
X453542Y259424D01*
X453682Y259392D01*
X453819Y259349D01*
X453927Y259335D01*
X454032Y259310D01*
X454176Y259300D01*
X454318Y259281D01*
X454426Y259283D01*
X454534Y259275D01*
X454678Y259288D01*
X454822Y259291D01*
X454928Y259311D01*
X455036Y259321D01*
X455175Y259356D01*
X455317Y259382D01*
X455419Y259418D01*
X455524Y259444D01*
X455656Y259501D01*
X455792Y259549D01*
X455887Y259601D01*
X455986Y259644D01*
X456108Y259721D01*
X456234Y259790D01*
X456320Y259856D01*
X456411Y259914D01*
X456519Y260009D01*
X456633Y260097D01*
X456707Y260176D01*
X456788Y260248D01*
X456879Y260359D01*
X456978Y260464D01*
X457039Y260553D01*
X457083Y260607D01*
X460602Y264126D01*
X460716Y264184D01*
X460863Y264249D01*
X460940Y264299D01*
X461022Y264340D01*
X461151Y264435D01*
X461286Y264522D01*
X461355Y264583D01*
X461429Y264637D01*
X461541Y264751D01*
X461661Y264858D01*
X461718Y264930D01*
X461783Y264995D01*
X461877Y265125D01*
X461977Y265249D01*
X462023Y265329D01*
X462077Y265404D01*
X462148Y265547D01*
X462228Y265686D01*
X462261Y265772D01*
X462302Y265854D01*
X462350Y266007D01*
X462407Y266157D01*
X462425Y266247D01*
X462453Y266335D01*
X462476Y266493D01*
X462509Y266650D01*
X462516Y266761D01*
X462526Y266833D01*
X462525Y266914D01*
X462533Y267044D01*
X462533Y275005D01*
X462530Y275045D01*
X462532Y275086D01*
X462510Y275296D01*
X462493Y275506D01*
X462484Y275546D01*
X462479Y275587D01*
X462424Y275791D01*
X462375Y275996D01*
X462359Y276033D01*
X462348Y276073D01*
X462261Y276266D01*
X462180Y276460D01*
X462158Y276495D01*
X462141Y276532D01*
X462026Y276709D01*
X461914Y276888D01*
X461887Y276919D01*
X461865Y276953D01*
X461604Y277249D01*
X452029Y286824D01*
X452008Y286842D01*
X451990Y286862D01*
X451816Y287005D01*
X451645Y287151D01*
X451622Y287165D01*
X451601Y287182D01*
X451407Y287296D01*
X451215Y287413D01*
X451190Y287423D01*
X451167Y287437D01*
X450958Y287518D01*
X450749Y287603D01*
X450723Y287610D01*
X450697Y287620D01*
X450478Y287667D01*
X450259Y287718D01*
X450232Y287720D01*
X450205Y287726D01*
X449981Y287738D01*
X449757Y287754D01*
X449730Y287751D01*
X449702Y287753D01*
X449480Y287729D01*
X449255Y287709D01*
X449229Y287703D01*
X449202Y287700D01*
X448986Y287641D01*
X448767Y287586D01*
X448742Y287576D01*
X448715Y287569D01*
X448510Y287476D01*
X448304Y287388D01*
X448281Y287373D01*
X448256Y287362D01*
X448069Y287239D01*
X447879Y287118D01*
X447858Y287100D01*
X447836Y287085D01*
X447539Y286824D01*
X446231Y285515D01*
X444036Y284606D01*
X441662Y284606D01*
X439467Y285515D01*
X437788Y287194D01*
X437725Y287346D01*
X437653Y287488D01*
X437588Y287635D01*
X437538Y287712D01*
X437496Y287794D01*
X437402Y287923D01*
X437315Y288058D01*
X437254Y288126D01*
X437199Y288201D01*
X437086Y288313D01*
X436979Y288433D01*
X436907Y288491D01*
X436842Y288555D01*
X436712Y288649D01*
X436587Y288749D01*
X436508Y288795D01*
X436433Y288849D01*
X436289Y288920D01*
X436151Y289000D01*
X436065Y289033D01*
X435982Y289074D01*
X435830Y289122D01*
X435680Y289179D01*
X435590Y289197D01*
X435502Y289225D01*
X435344Y289248D01*
X435187Y289281D01*
X435076Y289288D01*
X435004Y289298D01*
X434922Y289297D01*
X434793Y289305D01*
X417251Y289305D01*
X417237Y289304D01*
X417223Y289305D01*
X416987Y289284D01*
X416749Y289265D01*
X416735Y289262D01*
X416722Y289261D01*
X416492Y289203D01*
X416259Y289147D01*
X416247Y289141D01*
X416234Y289138D01*
X416015Y289044D01*
X415795Y288952D01*
X415783Y288945D01*
X415771Y288939D01*
X415570Y288812D01*
X415367Y288686D01*
X415357Y288677D01*
X415345Y288670D01*
X415167Y288513D01*
X414987Y288356D01*
X414978Y288346D01*
X414968Y288337D01*
X414817Y288153D01*
X414664Y287970D01*
X414656Y287958D01*
X414648Y287948D01*
X414528Y287743D01*
X414405Y287538D01*
X414400Y287525D01*
X414393Y287514D01*
X414307Y287291D01*
X414219Y287070D01*
X414216Y287057D01*
X414211Y287044D01*
X414160Y286811D01*
X414108Y286579D01*
X414107Y286565D01*
X414104Y286552D01*
X414092Y286316D01*
X414077Y286077D01*
X414078Y286063D01*
X414077Y286049D01*
X414102Y285814D01*
X414125Y285575D01*
X414129Y285562D01*
X414130Y285549D01*
X414192Y285320D01*
X414253Y285088D01*
X414258Y285076D01*
X414262Y285062D01*
X414359Y284846D01*
X414455Y284627D01*
X414463Y284616D01*
X414468Y284603D01*
X414598Y284405D01*
X414728Y284204D01*
X414737Y284194D01*
X414745Y284183D01*
X415006Y283886D01*
X417845Y281048D01*
X417845Y273472D01*
X412488Y268115D01*
X404912Y268115D01*
X400019Y273009D01*
X399988Y273035D01*
X399960Y273066D01*
X399796Y273198D01*
X399636Y273335D01*
X399601Y273357D01*
X399569Y273382D01*
X399386Y273487D01*
X399206Y273597D01*
X399168Y273613D01*
X399132Y273633D01*
X398936Y273708D01*
X398740Y273788D01*
X398700Y273797D01*
X398662Y273812D01*
X398455Y273854D01*
X398249Y273903D01*
X398209Y273905D01*
X398168Y273914D01*
X397774Y273938D01*
X359617Y273938D01*
X358124Y274557D01*
X356534Y276147D01*
X350526Y282155D01*
X350495Y282181D01*
X350468Y282212D01*
X350303Y282344D01*
X350143Y282481D01*
X350108Y282503D01*
X350076Y282528D01*
X349894Y282633D01*
X349713Y282743D01*
X349675Y282759D01*
X349640Y282779D01*
X349443Y282854D01*
X349247Y282934D01*
X349207Y282943D01*
X349169Y282958D01*
X348962Y283000D01*
X348757Y283049D01*
X348716Y283051D01*
X348676Y283060D01*
X348282Y283084D01*
X329788Y283084D01*
X328299Y284573D01*
X328299Y287528D01*
X328297Y287555D01*
X328299Y287582D01*
X328277Y287806D01*
X328259Y288030D01*
X328253Y288056D01*
X328250Y288084D01*
X328193Y288302D01*
X328141Y288519D01*
X328130Y288544D01*
X328123Y288571D01*
X328032Y288777D01*
X327946Y288984D01*
X327931Y289007D01*
X327920Y289032D01*
X327798Y289221D01*
X327680Y289411D01*
X327662Y289432D01*
X327647Y289455D01*
X327497Y289622D01*
X327350Y289792D01*
X327329Y289809D01*
X327311Y289830D01*
X327136Y289971D01*
X326964Y290115D01*
X326941Y290129D01*
X326920Y290146D01*
X326725Y290258D01*
X326532Y290373D01*
X326507Y290384D01*
X326483Y290397D01*
X326273Y290477D01*
X326064Y290560D01*
X326038Y290566D01*
X326012Y290576D01*
X325792Y290621D01*
X325573Y290670D01*
X325546Y290672D01*
X325519Y290678D01*
X325125Y290702D01*
X320501Y290702D01*
X319008Y291321D01*
X296504Y313825D01*
X296493Y313834D01*
X296484Y313844D01*
X296301Y313998D01*
X296120Y314152D01*
X296109Y314159D01*
X296098Y314168D01*
X295895Y314289D01*
X295690Y314414D01*
X295678Y314419D01*
X295666Y314426D01*
X295447Y314514D01*
X295224Y314604D01*
X295211Y314608D01*
X295198Y314613D01*
X294966Y314665D01*
X294734Y314719D01*
X294720Y314720D01*
X294707Y314723D01*
X294468Y314738D01*
X294232Y314755D01*
X294218Y314754D01*
X294205Y314754D01*
X293967Y314731D01*
X293730Y314710D01*
X293717Y314707D01*
X293703Y314706D01*
X293473Y314646D01*
X293242Y314587D01*
X293229Y314582D01*
X293216Y314579D01*
X292998Y314483D01*
X292779Y314389D01*
X292768Y314382D01*
X292755Y314376D01*
X292554Y314246D01*
X292354Y314119D01*
X292344Y314110D01*
X292332Y314103D01*
X292154Y313943D01*
X291976Y313786D01*
X291968Y313776D01*
X291957Y313767D01*
X291807Y313581D01*
X291656Y313398D01*
X291649Y313386D01*
X291641Y313375D01*
X291522Y313169D01*
X291402Y312963D01*
X291397Y312950D01*
X291390Y312939D01*
X291306Y312717D01*
X291219Y312494D01*
X291216Y312480D01*
X291211Y312468D01*
X291163Y312235D01*
X291113Y312002D01*
X291112Y311988D01*
X291109Y311975D01*
X291085Y311581D01*
X291085Y308632D01*
X285728Y303275D01*
X281050Y303275D01*
X280890Y303263D01*
X280730Y303259D01*
X280640Y303243D01*
X280548Y303235D01*
X280392Y303198D01*
X280235Y303169D01*
X280148Y303138D01*
X280059Y303117D01*
X279911Y303055D01*
X279760Y303001D01*
X279679Y302957D01*
X279594Y302922D01*
X279458Y302837D01*
X279318Y302761D01*
X279245Y302705D01*
X279166Y302656D01*
X279045Y302551D01*
X278919Y302454D01*
X278856Y302387D01*
X278786Y302326D01*
X278683Y302203D01*
X278574Y302087D01*
X278522Y302011D01*
X278463Y301940D01*
X278381Y301803D01*
X278291Y301670D01*
X278242Y301571D01*
X278204Y301508D01*
X278174Y301432D01*
X278117Y301316D01*
X277476Y299767D01*
X276167Y298459D01*
X276149Y298438D01*
X276129Y298420D01*
X275986Y298247D01*
X275840Y298075D01*
X275826Y298052D01*
X275809Y298031D01*
X275695Y297838D01*
X275578Y297645D01*
X275568Y297620D01*
X275554Y297596D01*
X275473Y297387D01*
X275388Y297179D01*
X275381Y297153D01*
X275371Y297127D01*
X275324Y296908D01*
X275273Y296689D01*
X275271Y296662D01*
X275265Y296635D01*
X275253Y296411D01*
X275237Y296187D01*
X275240Y296160D01*
X275238Y296132D01*
X275262Y295910D01*
X275282Y295685D01*
X275288Y295659D01*
X275291Y295632D01*
X275350Y295415D01*
X275405Y295197D01*
X275415Y295172D01*
X275422Y295145D01*
X275515Y294941D01*
X275603Y294734D01*
X275618Y294711D01*
X275629Y294686D01*
X275753Y294498D01*
X275873Y294309D01*
X275891Y294288D01*
X275906Y294265D01*
X276167Y293969D01*
X292536Y277600D01*
X292547Y277591D01*
X292556Y277581D01*
X292739Y277427D01*
X292920Y277273D01*
X292931Y277266D01*
X292942Y277257D01*
X293145Y277136D01*
X293350Y277011D01*
X293362Y277006D01*
X293374Y276999D01*
X293593Y276911D01*
X293816Y276821D01*
X293829Y276817D01*
X293842Y276812D01*
X294074Y276760D01*
X294306Y276706D01*
X294320Y276705D01*
X294333Y276702D01*
X294572Y276687D01*
X294808Y276670D01*
X294822Y276671D01*
X294835Y276671D01*
X295073Y276694D01*
X295310Y276715D01*
X295323Y276718D01*
X295337Y276719D01*
X295567Y276779D01*
X295798Y276838D01*
X295811Y276843D01*
X295824Y276846D01*
X296042Y276942D01*
X296261Y277036D01*
X296272Y277043D01*
X296285Y277049D01*
X296486Y277179D01*
X296686Y277306D01*
X296696Y277315D01*
X296708Y277322D01*
X296886Y277482D01*
X297064Y277639D01*
X297072Y277649D01*
X297083Y277658D01*
X297233Y277844D01*
X297384Y278027D01*
X297391Y278039D01*
X297399Y278050D01*
X297518Y278256D01*
X297638Y278462D01*
X297643Y278475D01*
X297650Y278486D01*
X297734Y278708D01*
X297821Y278931D01*
X297824Y278945D01*
X297829Y278957D01*
X297877Y279189D01*
X297927Y279423D01*
X297928Y279437D01*
X297931Y279450D01*
X297955Y279844D01*
X297955Y281048D01*
X303312Y286405D01*
X310888Y286405D01*
X316245Y281048D01*
X316245Y273472D01*
X310888Y268115D01*
X309684Y268115D01*
X309671Y268114D01*
X309657Y268115D01*
X309419Y268094D01*
X309182Y268075D01*
X309169Y268072D01*
X309156Y268071D01*
X308922Y268012D01*
X308693Y267957D01*
X308681Y267951D01*
X308667Y267948D01*
X308447Y267853D01*
X308229Y267762D01*
X308217Y267755D01*
X308205Y267749D01*
X308003Y267622D01*
X307801Y267496D01*
X307791Y267487D01*
X307779Y267480D01*
X307601Y267323D01*
X307421Y267166D01*
X307412Y267156D01*
X307402Y267147D01*
X307251Y266963D01*
X307097Y266780D01*
X307090Y266768D01*
X307082Y266758D01*
X306961Y266553D01*
X306839Y266348D01*
X306834Y266335D01*
X306827Y266324D01*
X306740Y266101D01*
X306652Y265880D01*
X306649Y265867D01*
X306644Y265854D01*
X306594Y265621D01*
X306542Y265389D01*
X306541Y265375D01*
X306538Y265362D01*
X306526Y265125D01*
X306511Y264887D01*
X306512Y264873D01*
X306511Y264859D01*
X306536Y264625D01*
X306559Y264385D01*
X306563Y264372D01*
X306564Y264359D01*
X306626Y264130D01*
X306686Y263898D01*
X306692Y263886D01*
X306695Y263872D01*
X306793Y263655D01*
X306889Y263437D01*
X306896Y263426D01*
X306902Y263413D01*
X307033Y263214D01*
X307162Y263014D01*
X307171Y263004D01*
X307179Y262993D01*
X307440Y262696D01*
X336034Y234102D01*
X336065Y234076D01*
X336092Y234045D01*
X336257Y233913D01*
X336417Y233776D01*
X336452Y233754D01*
X336484Y233729D01*
X336666Y233624D01*
X336847Y233514D01*
X336885Y233498D01*
X336921Y233478D01*
X337117Y233403D01*
X337313Y233323D01*
X337353Y233314D01*
X337391Y233299D01*
X337598Y233257D01*
X337803Y233208D01*
X337844Y233206D01*
X337884Y233197D01*
X338278Y233173D01*
X369676Y233173D01*
X369822Y233184D01*
G37*
G36*
X173015Y384508D02*
X173015Y384508D01*
X173028Y384508D01*
X173266Y384531D01*
X173503Y384552D01*
X173516Y384555D01*
X173530Y384556D01*
X173760Y384616D01*
X173991Y384675D01*
X174004Y384680D01*
X174017Y384683D01*
X174235Y384779D01*
X174454Y384873D01*
X174465Y384880D01*
X174478Y384886D01*
X174679Y385016D01*
X174879Y385143D01*
X174889Y385151D01*
X174901Y385159D01*
X175080Y385319D01*
X175257Y385476D01*
X175265Y385486D01*
X175276Y385495D01*
X175425Y385680D01*
X175577Y385864D01*
X175584Y385876D01*
X175592Y385887D01*
X175710Y386092D01*
X175831Y386299D01*
X175836Y386312D01*
X175843Y386323D01*
X175927Y386546D01*
X176014Y386768D01*
X176017Y386781D01*
X176022Y386794D01*
X176070Y387028D01*
X176120Y387260D01*
X176121Y387274D01*
X176124Y387287D01*
X176148Y387681D01*
X176148Y445055D01*
X176767Y446548D01*
X179308Y449089D01*
X179904Y449336D01*
X180046Y449409D01*
X180193Y449473D01*
X180270Y449523D01*
X180352Y449565D01*
X180481Y449659D01*
X180616Y449746D01*
X180685Y449808D01*
X180759Y449862D01*
X180871Y449975D01*
X180991Y450082D01*
X181048Y450154D01*
X181113Y450219D01*
X181207Y450350D01*
X181307Y450474D01*
X181353Y450554D01*
X181407Y450629D01*
X181478Y450772D01*
X181558Y450911D01*
X181591Y450997D01*
X181632Y451079D01*
X181680Y451232D01*
X181737Y451381D01*
X181755Y451472D01*
X181783Y451559D01*
X181806Y451717D01*
X181839Y451874D01*
X181846Y451985D01*
X181856Y452058D01*
X181855Y452139D01*
X181863Y452269D01*
X181863Y458566D01*
X183352Y460055D01*
X197171Y460055D01*
X197198Y460057D01*
X197225Y460055D01*
X197449Y460077D01*
X197673Y460095D01*
X197699Y460101D01*
X197727Y460104D01*
X197945Y460161D01*
X198162Y460213D01*
X198187Y460224D01*
X198214Y460231D01*
X198420Y460322D01*
X198627Y460408D01*
X198650Y460423D01*
X198675Y460434D01*
X198864Y460556D01*
X199054Y460674D01*
X199075Y460692D01*
X199098Y460707D01*
X199265Y460857D01*
X199435Y461004D01*
X199452Y461025D01*
X199473Y461043D01*
X199614Y461218D01*
X199758Y461390D01*
X199772Y461413D01*
X199789Y461434D01*
X199901Y461629D01*
X200016Y461822D01*
X200027Y461847D01*
X200040Y461871D01*
X200120Y462081D01*
X200203Y462290D01*
X200209Y462316D01*
X200219Y462342D01*
X200264Y462562D01*
X200313Y462781D01*
X200315Y462808D01*
X200321Y462835D01*
X200345Y463229D01*
X200345Y463550D01*
X200343Y463577D01*
X200345Y463604D01*
X200323Y463828D01*
X200305Y464052D01*
X200299Y464078D01*
X200296Y464106D01*
X200239Y464324D01*
X200187Y464541D01*
X200176Y464566D01*
X200169Y464593D01*
X200078Y464799D01*
X199992Y465006D01*
X199977Y465029D01*
X199966Y465054D01*
X199844Y465243D01*
X199726Y465433D01*
X199708Y465454D01*
X199693Y465477D01*
X199543Y465644D01*
X199396Y465814D01*
X199375Y465831D01*
X199357Y465852D01*
X199182Y465993D01*
X199010Y466137D01*
X198987Y466151D01*
X198966Y466168D01*
X198771Y466280D01*
X198578Y466395D01*
X198553Y466406D01*
X198529Y466419D01*
X198319Y466499D01*
X198110Y466582D01*
X198084Y466588D01*
X198058Y466598D01*
X197838Y466643D01*
X197619Y466692D01*
X197592Y466694D01*
X197565Y466700D01*
X197171Y466724D01*
X167115Y466724D01*
X167088Y466722D01*
X167061Y466724D01*
X166837Y466702D01*
X166613Y466684D01*
X166587Y466678D01*
X166559Y466675D01*
X166341Y466618D01*
X166124Y466566D01*
X166099Y466555D01*
X166072Y466548D01*
X165866Y466457D01*
X165659Y466371D01*
X165636Y466356D01*
X165611Y466345D01*
X165422Y466223D01*
X165232Y466105D01*
X165211Y466087D01*
X165188Y466072D01*
X165021Y465922D01*
X164851Y465775D01*
X164834Y465754D01*
X164813Y465736D01*
X164672Y465561D01*
X164528Y465389D01*
X164514Y465366D01*
X164497Y465345D01*
X164385Y465150D01*
X164319Y465039D01*
X153225Y465039D01*
X153198Y465037D01*
X153171Y465039D01*
X152947Y465017D01*
X152723Y464999D01*
X152697Y464993D01*
X152670Y464990D01*
X152451Y464933D01*
X152411Y464923D01*
X152242Y464958D01*
X152023Y465007D01*
X151996Y465009D01*
X151969Y465015D01*
X151575Y465039D01*
X140859Y465039D01*
X140859Y469374D01*
X140950Y469713D01*
X140985Y469901D01*
X141026Y470087D01*
X141030Y470148D01*
X141041Y470209D01*
X141046Y470399D01*
X141058Y470589D01*
X141052Y470651D01*
X141053Y470712D01*
X141028Y470901D01*
X141009Y471091D01*
X140994Y471150D01*
X140985Y471211D01*
X140930Y471393D01*
X140882Y471578D01*
X140857Y471634D01*
X140840Y471693D01*
X140756Y471864D01*
X140679Y472039D01*
X140646Y472091D01*
X140619Y472146D01*
X140510Y472301D01*
X140406Y472462D01*
X140365Y472508D01*
X140330Y472558D01*
X140198Y472694D01*
X140070Y472837D01*
X140022Y472875D01*
X139980Y472919D01*
X139827Y473033D01*
X139679Y473153D01*
X139625Y473184D01*
X139576Y473221D01*
X139407Y473309D01*
X139242Y473404D01*
X139185Y473426D01*
X139130Y473454D01*
X138949Y473515D01*
X138771Y473583D01*
X138711Y473595D01*
X138653Y473615D01*
X138465Y473646D01*
X138278Y473685D01*
X138207Y473689D01*
X138156Y473698D01*
X138062Y473698D01*
X137884Y473709D01*
X136051Y473709D01*
X136029Y473708D01*
X136008Y473709D01*
X135779Y473688D01*
X135549Y473669D01*
X135528Y473664D01*
X135506Y473662D01*
X135283Y473605D01*
X135060Y473551D01*
X135040Y473542D01*
X135019Y473537D01*
X134807Y473444D01*
X134596Y473356D01*
X134577Y473344D01*
X134557Y473336D01*
X134363Y473212D01*
X134168Y473090D01*
X134151Y473076D01*
X134133Y473064D01*
X133961Y472911D01*
X133787Y472760D01*
X133774Y472744D01*
X133757Y472729D01*
X133612Y472550D01*
X133464Y472374D01*
X133453Y472355D01*
X133439Y472339D01*
X133324Y472139D01*
X133206Y471942D01*
X133198Y471922D01*
X133187Y471903D01*
X133104Y471688D01*
X133019Y471474D01*
X133014Y471453D01*
X133007Y471433D01*
X132959Y471207D01*
X132909Y470983D01*
X132907Y470961D01*
X132903Y470940D01*
X132892Y470710D01*
X132877Y470481D01*
X132880Y470459D01*
X132878Y470437D01*
X132904Y470209D01*
X132926Y469979D01*
X132932Y469958D01*
X132934Y469937D01*
X133032Y469554D01*
X133380Y468485D01*
X133605Y467064D01*
X133605Y462914D01*
X124460Y462914D01*
X115315Y462914D01*
X115315Y467064D01*
X115540Y468485D01*
X115888Y469554D01*
X115893Y469575D01*
X115901Y469596D01*
X115951Y469819D01*
X116005Y470044D01*
X116006Y470066D01*
X116011Y470087D01*
X116026Y470317D01*
X116043Y470546D01*
X116041Y470568D01*
X116043Y470589D01*
X116020Y470819D01*
X116001Y471048D01*
X115996Y471069D01*
X115994Y471091D01*
X115936Y471314D01*
X115881Y471537D01*
X115872Y471557D01*
X115867Y471578D01*
X115774Y471788D01*
X115685Y472000D01*
X115673Y472019D01*
X115664Y472039D01*
X115539Y472233D01*
X115417Y472427D01*
X115403Y472443D01*
X115391Y472462D01*
X115237Y472634D01*
X115086Y472806D01*
X115069Y472820D01*
X115055Y472837D01*
X114876Y472981D01*
X114699Y473128D01*
X114680Y473140D01*
X114663Y473153D01*
X114465Y473267D01*
X114266Y473385D01*
X114246Y473393D01*
X114227Y473404D01*
X114013Y473485D01*
X113798Y473570D01*
X113776Y473575D01*
X113756Y473583D01*
X113531Y473629D01*
X113306Y473679D01*
X113284Y473680D01*
X113263Y473685D01*
X112869Y473709D01*
X110658Y473709D01*
X110512Y473698D01*
X110365Y473696D01*
X110261Y473678D01*
X110156Y473669D01*
X110014Y473635D01*
X109869Y473610D01*
X109769Y473575D01*
X109667Y473551D01*
X109532Y473494D01*
X109393Y473446D01*
X109300Y473397D01*
X109202Y473356D01*
X109078Y473279D01*
X108949Y473210D01*
X108864Y473146D01*
X108775Y473090D01*
X108664Y472994D01*
X108547Y472906D01*
X108474Y472829D01*
X108394Y472760D01*
X108300Y472648D01*
X108199Y472542D01*
X108139Y472455D01*
X108071Y472374D01*
X107996Y472249D01*
X107912Y472128D01*
X107867Y472033D01*
X107813Y471942D01*
X107758Y471806D01*
X107695Y471674D01*
X107665Y471572D01*
X107626Y471474D01*
X107594Y471331D01*
X107552Y471191D01*
X107539Y471086D01*
X107516Y470983D01*
X107506Y470837D01*
X107488Y470692D01*
X107491Y470586D01*
X107484Y470481D01*
X107498Y470335D01*
X107503Y470188D01*
X107523Y470085D01*
X107533Y469979D01*
X107570Y469838D01*
X107597Y469694D01*
X107639Y469571D01*
X107660Y469492D01*
X107689Y469425D01*
X107725Y469320D01*
X108205Y468163D01*
X108205Y451317D01*
X106813Y447956D01*
X104240Y445383D01*
X100879Y443991D01*
X97241Y443991D01*
X94552Y445105D01*
X94425Y445146D01*
X94302Y445197D01*
X94186Y445224D01*
X94073Y445260D01*
X93941Y445281D01*
X93812Y445311D01*
X93693Y445320D01*
X93575Y445338D01*
X93442Y445337D01*
X93310Y445347D01*
X93191Y445336D01*
X93071Y445336D01*
X92940Y445314D01*
X92808Y445303D01*
X92692Y445273D01*
X92575Y445254D01*
X92449Y445212D01*
X92320Y445180D01*
X92210Y445132D01*
X92097Y445095D01*
X91979Y445033D01*
X91857Y444981D01*
X91756Y444917D01*
X91650Y444862D01*
X91544Y444783D01*
X91432Y444712D01*
X91342Y444633D01*
X91246Y444561D01*
X91154Y444466D01*
X91054Y444378D01*
X90978Y444286D01*
X90895Y444201D01*
X90818Y444092D01*
X90734Y443990D01*
X90674Y443887D01*
X90605Y443789D01*
X90547Y443670D01*
X90479Y443555D01*
X90436Y443444D01*
X90384Y443337D01*
X90345Y443210D01*
X90297Y443086D01*
X90272Y442969D01*
X90237Y442855D01*
X90219Y442724D01*
X90191Y442594D01*
X90184Y442475D01*
X90168Y442357D01*
X90171Y442224D01*
X90164Y442091D01*
X90176Y441972D01*
X90179Y441853D01*
X90203Y441722D01*
X90216Y441590D01*
X90247Y441475D01*
X90269Y441358D01*
X90313Y441232D01*
X90348Y441104D01*
X90397Y440995D01*
X90436Y440883D01*
X90500Y440766D01*
X90554Y440645D01*
X90620Y440545D01*
X90677Y440440D01*
X90758Y440335D01*
X90831Y440224D01*
X90930Y440112D01*
X90984Y440042D01*
X91031Y439998D01*
X91092Y439928D01*
X136749Y394271D01*
X136770Y394253D01*
X136788Y394233D01*
X136961Y394091D01*
X137132Y393945D01*
X137156Y393930D01*
X137177Y393913D01*
X137370Y393800D01*
X137562Y393683D01*
X137588Y393672D01*
X137611Y393658D01*
X137820Y393577D01*
X138028Y393492D01*
X138055Y393486D01*
X138080Y393476D01*
X138300Y393428D01*
X138519Y393377D01*
X138546Y393375D01*
X138573Y393370D01*
X138797Y393358D01*
X139021Y393342D01*
X139048Y393344D01*
X139075Y393343D01*
X139298Y393366D01*
X139522Y393386D01*
X139549Y393393D01*
X139576Y393395D01*
X139792Y393454D01*
X140011Y393509D01*
X140036Y393520D01*
X140062Y393527D01*
X140267Y393619D01*
X140473Y393708D01*
X140497Y393722D01*
X140521Y393733D01*
X140709Y393857D01*
X140899Y393977D01*
X140919Y393995D01*
X140942Y394010D01*
X141238Y394271D01*
X142348Y395381D01*
X145034Y395381D01*
X145061Y395383D01*
X145088Y395381D01*
X145312Y395403D01*
X145536Y395421D01*
X145562Y395427D01*
X145590Y395430D01*
X145808Y395487D01*
X146025Y395539D01*
X146050Y395550D01*
X146077Y395557D01*
X146283Y395648D01*
X146490Y395734D01*
X146513Y395749D01*
X146538Y395760D01*
X146727Y395882D01*
X146917Y396000D01*
X146938Y396018D01*
X146961Y396033D01*
X147128Y396183D01*
X147298Y396330D01*
X147315Y396351D01*
X147336Y396369D01*
X147477Y396544D01*
X147621Y396716D01*
X147635Y396739D01*
X147652Y396760D01*
X147764Y396955D01*
X147879Y397148D01*
X147890Y397173D01*
X147903Y397197D01*
X147983Y397407D01*
X148066Y397616D01*
X148072Y397642D01*
X148082Y397668D01*
X148127Y397888D01*
X148176Y398107D01*
X148178Y398134D01*
X148184Y398161D01*
X148208Y398555D01*
X148208Y419325D01*
X148206Y419352D01*
X148208Y419379D01*
X148186Y419603D01*
X148168Y419827D01*
X148162Y419853D01*
X148159Y419881D01*
X148102Y420099D01*
X148050Y420316D01*
X148039Y420341D01*
X148032Y420368D01*
X147941Y420574D01*
X147855Y420781D01*
X147840Y420804D01*
X147829Y420829D01*
X147707Y421018D01*
X147589Y421208D01*
X147571Y421229D01*
X147556Y421252D01*
X147406Y421419D01*
X147259Y421589D01*
X147238Y421606D01*
X147220Y421627D01*
X147045Y421768D01*
X146873Y421912D01*
X146850Y421926D01*
X146829Y421943D01*
X146634Y422055D01*
X146441Y422170D01*
X146416Y422181D01*
X146392Y422194D01*
X146182Y422274D01*
X145973Y422357D01*
X145947Y422363D01*
X145921Y422373D01*
X145701Y422418D01*
X145482Y422467D01*
X145455Y422469D01*
X145428Y422475D01*
X145034Y422499D01*
X142348Y422499D01*
X140819Y424028D01*
X140816Y424039D01*
X140815Y424052D01*
X140757Y424282D01*
X140701Y424515D01*
X140695Y424527D01*
X140692Y424540D01*
X140598Y424759D01*
X140506Y424979D01*
X140499Y424991D01*
X140493Y425003D01*
X140366Y425204D01*
X140240Y425407D01*
X140231Y425417D01*
X140224Y425429D01*
X140067Y425607D01*
X139910Y425787D01*
X139900Y425796D01*
X139891Y425806D01*
X139707Y425957D01*
X139524Y426110D01*
X139512Y426118D01*
X139502Y426126D01*
X139297Y426246D01*
X139092Y426369D01*
X139079Y426374D01*
X139068Y426381D01*
X138845Y426467D01*
X138624Y426555D01*
X138611Y426558D01*
X138598Y426563D01*
X138365Y426614D01*
X138133Y426666D01*
X138119Y426667D01*
X138106Y426670D01*
X137869Y426682D01*
X137631Y426697D01*
X137617Y426696D01*
X137603Y426697D01*
X137369Y426672D01*
X137129Y426649D01*
X137116Y426645D01*
X137103Y426644D01*
X136874Y426582D01*
X136642Y426521D01*
X136630Y426516D01*
X136616Y426512D01*
X136400Y426415D01*
X136181Y426319D01*
X136170Y426311D01*
X136157Y426306D01*
X135959Y426176D01*
X135758Y426046D01*
X135748Y426037D01*
X135737Y426029D01*
X135440Y425768D01*
X129408Y419735D01*
X128794Y419735D01*
X128794Y428880D01*
X128792Y428907D01*
X128794Y428934D01*
X128772Y429158D01*
X128754Y429382D01*
X128748Y429408D01*
X128745Y429435D01*
X128688Y429653D01*
X128636Y429871D01*
X128625Y429896D01*
X128618Y429923D01*
X128527Y430129D01*
X128441Y430335D01*
X128427Y430358D01*
X128416Y430383D01*
X128294Y430573D01*
X128175Y430763D01*
X128157Y430784D01*
X128143Y430807D01*
X127992Y430974D01*
X127845Y431143D01*
X127845Y431144D01*
X127824Y431161D01*
X127806Y431181D01*
X127806Y431182D01*
X127631Y431323D01*
X127459Y431467D01*
X127435Y431481D01*
X127414Y431498D01*
X127220Y431610D01*
X127027Y431726D01*
X127001Y431736D01*
X126978Y431749D01*
X126768Y431829D01*
X126559Y431912D01*
X126532Y431918D01*
X126507Y431928D01*
X126287Y431973D01*
X126068Y432023D01*
X126040Y432024D01*
X126014Y432030D01*
X125620Y432054D01*
X116475Y432054D01*
X116475Y432668D01*
X121883Y438075D01*
X122086Y438125D01*
X122325Y438183D01*
X122330Y438186D01*
X122335Y438187D01*
X122563Y438283D01*
X122789Y438378D01*
X122794Y438381D01*
X122799Y438383D01*
X123008Y438514D01*
X123217Y438644D01*
X123221Y438647D01*
X123226Y438650D01*
X123411Y438812D01*
X123597Y438974D01*
X123601Y438978D01*
X123605Y438982D01*
X123763Y439172D01*
X123920Y439360D01*
X123923Y439364D01*
X123927Y439369D01*
X124054Y439584D01*
X124179Y439792D01*
X124181Y439797D01*
X124184Y439802D01*
X124273Y440028D01*
X124365Y440260D01*
X124367Y440265D01*
X124369Y440270D01*
X124422Y440510D01*
X124458Y440671D01*
X124459Y440654D01*
X124461Y440649D01*
X124461Y440643D01*
X124523Y440407D01*
X124585Y440166D01*
X124587Y440161D01*
X124589Y440156D01*
X124686Y439934D01*
X124786Y439705D01*
X124789Y439700D01*
X124791Y439695D01*
X124922Y439492D01*
X125057Y439281D01*
X125061Y439277D01*
X125064Y439272D01*
X125227Y439091D01*
X125393Y438905D01*
X125397Y438901D01*
X125401Y438897D01*
X125590Y438744D01*
X125783Y438587D01*
X125788Y438584D01*
X125792Y438581D01*
X126004Y438459D01*
X126219Y438335D01*
X126224Y438333D01*
X126229Y438330D01*
X126461Y438242D01*
X126689Y438154D01*
X126694Y438153D01*
X126699Y438151D01*
X126941Y438101D01*
X127182Y438051D01*
X127187Y438050D01*
X127193Y438049D01*
X127587Y438025D01*
X129408Y438025D01*
X135440Y431992D01*
X135451Y431983D01*
X135460Y431973D01*
X135643Y431820D01*
X135824Y431665D01*
X135835Y431658D01*
X135846Y431650D01*
X136049Y431528D01*
X136254Y431403D01*
X136266Y431398D01*
X136278Y431391D01*
X136497Y431304D01*
X136720Y431213D01*
X136733Y431210D01*
X136746Y431205D01*
X136978Y431152D01*
X137210Y431098D01*
X137224Y431097D01*
X137237Y431094D01*
X137476Y431079D01*
X137712Y431062D01*
X137726Y431064D01*
X137739Y431063D01*
X137977Y431086D01*
X138214Y431107D01*
X138227Y431110D01*
X138241Y431111D01*
X138471Y431171D01*
X138702Y431230D01*
X138715Y431235D01*
X138728Y431239D01*
X138947Y431335D01*
X139165Y431428D01*
X139176Y431436D01*
X139189Y431441D01*
X139391Y431571D01*
X139590Y431698D01*
X139600Y431707D01*
X139612Y431714D01*
X139790Y431874D01*
X139968Y432031D01*
X139976Y432041D01*
X139987Y432051D01*
X140137Y432236D01*
X140288Y432420D01*
X140295Y432431D01*
X140303Y432442D01*
X140422Y432649D01*
X140542Y432854D01*
X140547Y432867D01*
X140554Y432879D01*
X140638Y433101D01*
X140725Y433323D01*
X140728Y433337D01*
X140733Y433349D01*
X140781Y433582D01*
X140831Y433815D01*
X140832Y433829D01*
X140835Y433843D01*
X140859Y434237D01*
X140859Y442092D01*
X142348Y443581D01*
X162452Y443581D01*
X163941Y442092D01*
X163941Y423988D01*
X162452Y422499D01*
X159512Y422499D01*
X159485Y422497D01*
X159458Y422499D01*
X159234Y422477D01*
X159010Y422459D01*
X158984Y422453D01*
X158956Y422450D01*
X158738Y422393D01*
X158521Y422341D01*
X158496Y422330D01*
X158469Y422323D01*
X158263Y422232D01*
X158056Y422146D01*
X158033Y422131D01*
X158008Y422120D01*
X157819Y421998D01*
X157629Y421880D01*
X157608Y421862D01*
X157585Y421847D01*
X157418Y421697D01*
X157248Y421550D01*
X157231Y421529D01*
X157210Y421511D01*
X157069Y421336D01*
X156925Y421164D01*
X156911Y421141D01*
X156894Y421120D01*
X156782Y420925D01*
X156667Y420732D01*
X156656Y420707D01*
X156643Y420683D01*
X156563Y420473D01*
X156480Y420264D01*
X156474Y420238D01*
X156464Y420212D01*
X156419Y419992D01*
X156370Y419773D01*
X156368Y419746D01*
X156362Y419719D01*
X156338Y419325D01*
X156338Y398555D01*
X156340Y398528D01*
X156338Y398501D01*
X156360Y398277D01*
X156378Y398053D01*
X156384Y398027D01*
X156387Y397999D01*
X156444Y397781D01*
X156496Y397564D01*
X156507Y397539D01*
X156514Y397512D01*
X156605Y397306D01*
X156691Y397099D01*
X156706Y397076D01*
X156717Y397051D01*
X156839Y396862D01*
X156957Y396672D01*
X156975Y396651D01*
X156990Y396628D01*
X157140Y396461D01*
X157287Y396291D01*
X157308Y396274D01*
X157326Y396253D01*
X157501Y396112D01*
X157673Y395968D01*
X157696Y395954D01*
X157717Y395937D01*
X157912Y395825D01*
X158105Y395710D01*
X158130Y395699D01*
X158154Y395686D01*
X158364Y395606D01*
X158573Y395523D01*
X158599Y395517D01*
X158625Y395507D01*
X158845Y395462D01*
X159064Y395413D01*
X159091Y395411D01*
X159118Y395405D01*
X159512Y395381D01*
X162452Y395381D01*
X163941Y393892D01*
X163941Y391414D01*
X163943Y391387D01*
X163941Y391360D01*
X163963Y391136D01*
X163981Y390912D01*
X163987Y390886D01*
X163990Y390858D01*
X164047Y390640D01*
X164099Y390423D01*
X164110Y390398D01*
X164117Y390371D01*
X164208Y390165D01*
X164294Y389958D01*
X164309Y389935D01*
X164320Y389910D01*
X164442Y389721D01*
X164560Y389531D01*
X164578Y389510D01*
X164593Y389487D01*
X164743Y389320D01*
X164890Y389150D01*
X164911Y389133D01*
X164929Y389112D01*
X165104Y388971D01*
X165276Y388827D01*
X165299Y388813D01*
X165320Y388796D01*
X165515Y388684D01*
X165708Y388569D01*
X165733Y388558D01*
X165757Y388545D01*
X165967Y388465D01*
X166176Y388382D01*
X166202Y388376D01*
X166228Y388366D01*
X166448Y388321D01*
X166667Y388272D01*
X166694Y388270D01*
X166721Y388264D01*
X167040Y388244D01*
X168545Y387621D01*
X170729Y385437D01*
X170740Y385428D01*
X170749Y385418D01*
X170931Y385265D01*
X171113Y385110D01*
X171124Y385103D01*
X171135Y385094D01*
X171339Y384972D01*
X171543Y384848D01*
X171555Y384843D01*
X171567Y384836D01*
X171787Y384748D01*
X172009Y384658D01*
X172022Y384654D01*
X172035Y384649D01*
X172266Y384597D01*
X172499Y384543D01*
X172513Y384542D01*
X172526Y384539D01*
X172764Y384524D01*
X173001Y384507D01*
X173015Y384508D01*
G37*
G36*
X458414Y389649D02*
X458414Y389649D01*
X458574Y389653D01*
X458665Y389669D01*
X458756Y389677D01*
X458912Y389714D01*
X459069Y389743D01*
X459156Y389774D01*
X459246Y389795D01*
X459393Y389857D01*
X459544Y389911D01*
X459625Y389955D01*
X459710Y389990D01*
X459846Y390075D01*
X459987Y390151D01*
X460060Y390207D01*
X460138Y390256D01*
X460259Y390361D01*
X460385Y390458D01*
X460449Y390526D01*
X460518Y390586D01*
X460621Y390708D01*
X460731Y390825D01*
X460782Y390901D01*
X460841Y390972D01*
X460924Y391109D01*
X461014Y391242D01*
X461062Y391341D01*
X461100Y391404D01*
X461130Y391479D01*
X461187Y391596D01*
X461286Y391836D01*
X464144Y394694D01*
X466982Y395869D01*
X467105Y395932D01*
X467232Y395986D01*
X467329Y396046D01*
X467430Y396098D01*
X467542Y396180D01*
X467659Y396253D01*
X467745Y396328D01*
X467837Y396395D01*
X467934Y396493D01*
X468038Y396584D01*
X468111Y396672D01*
X468191Y396753D01*
X468272Y396865D01*
X468360Y396971D01*
X468418Y397069D01*
X468485Y397162D01*
X468547Y397285D01*
X468617Y397405D01*
X468659Y397510D01*
X468710Y397612D01*
X468751Y397744D01*
X468802Y397873D01*
X468827Y397984D01*
X468861Y398092D01*
X468881Y398229D01*
X468911Y398364D01*
X468918Y398478D01*
X468934Y398591D01*
X468932Y398729D01*
X468940Y398867D01*
X468929Y398980D01*
X468928Y399094D01*
X468904Y399231D01*
X468890Y399368D01*
X468861Y399478D01*
X468842Y399590D01*
X468797Y399721D01*
X468761Y399855D01*
X468715Y399959D01*
X468678Y400067D01*
X468613Y400189D01*
X468557Y400315D01*
X468495Y400411D01*
X468442Y400511D01*
X468358Y400621D01*
X468283Y400737D01*
X468206Y400822D01*
X468138Y400912D01*
X468038Y401008D01*
X467945Y401111D01*
X467856Y401182D01*
X467774Y401261D01*
X467660Y401340D01*
X467552Y401426D01*
X467454Y401482D01*
X467360Y401547D01*
X467235Y401607D01*
X467115Y401675D01*
X466983Y401728D01*
X466906Y401765D01*
X466841Y401784D01*
X466748Y401821D01*
X466000Y402064D01*
X464575Y402790D01*
X463281Y403730D01*
X462150Y404861D01*
X461210Y406155D01*
X460484Y407580D01*
X460248Y408306D01*
X477520Y408306D01*
X477547Y408308D01*
X477574Y408306D01*
X477798Y408328D01*
X478022Y408346D01*
X478048Y408352D01*
X478075Y408355D01*
X478293Y408412D01*
X478511Y408464D01*
X478536Y408475D01*
X478563Y408482D01*
X478769Y408572D01*
X478975Y408659D01*
X478998Y408673D01*
X479023Y408684D01*
X479213Y408806D01*
X479403Y408925D01*
X479424Y408943D01*
X479447Y408957D01*
X479614Y409108D01*
X479783Y409255D01*
X479801Y409276D01*
X479821Y409294D01*
X479962Y409468D01*
X480107Y409641D01*
X480121Y409664D01*
X480138Y409685D01*
X480250Y409880D01*
X480365Y410073D01*
X480375Y410098D01*
X480389Y410122D01*
X480468Y410332D01*
X480552Y410540D01*
X480558Y410567D01*
X480567Y410593D01*
X480613Y410813D01*
X480662Y411032D01*
X480664Y411059D01*
X480669Y411086D01*
X480694Y411480D01*
X480692Y411507D01*
X480693Y411534D01*
X480693Y411535D01*
X480672Y411758D01*
X480654Y411982D01*
X480648Y412009D01*
X480645Y412036D01*
X480588Y412254D01*
X480535Y412471D01*
X480525Y412496D01*
X480518Y412523D01*
X480427Y412729D01*
X480340Y412936D01*
X480326Y412959D01*
X480315Y412984D01*
X480193Y413173D01*
X480075Y413364D01*
X480057Y413384D01*
X480042Y413407D01*
X479892Y413574D01*
X479745Y413744D01*
X479724Y413761D01*
X479706Y413782D01*
X479531Y413923D01*
X479359Y414067D01*
X479335Y414081D01*
X479314Y414098D01*
X479120Y414210D01*
X478927Y414326D01*
X478901Y414336D01*
X478878Y414349D01*
X478668Y414429D01*
X478459Y414512D01*
X478432Y414518D01*
X478407Y414528D01*
X478187Y414573D01*
X477968Y414623D01*
X477940Y414624D01*
X477914Y414630D01*
X477520Y414654D01*
X460248Y414654D01*
X460484Y415380D01*
X461210Y416805D01*
X462150Y418099D01*
X463281Y419230D01*
X464575Y420170D01*
X466000Y420896D01*
X466748Y421139D01*
X466876Y421192D01*
X467007Y421236D01*
X467108Y421289D01*
X467213Y421332D01*
X467330Y421405D01*
X467453Y421469D01*
X467545Y421537D01*
X467641Y421597D01*
X467746Y421687D01*
X467857Y421770D01*
X467937Y421851D01*
X468023Y421925D01*
X468112Y422031D01*
X468209Y422130D01*
X468274Y422223D01*
X468348Y422310D01*
X468419Y422429D01*
X468499Y422542D01*
X468549Y422644D01*
X468607Y422741D01*
X468659Y422870D01*
X468720Y422994D01*
X468753Y423103D01*
X468796Y423208D01*
X468827Y423343D01*
X468867Y423476D01*
X468882Y423588D01*
X468908Y423699D01*
X468917Y423837D01*
X468936Y423974D01*
X468933Y424089D01*
X468941Y424202D01*
X468928Y424339D01*
X468925Y424478D01*
X468905Y424590D01*
X468894Y424703D01*
X468860Y424837D01*
X468835Y424973D01*
X468797Y425081D01*
X468769Y425191D01*
X468713Y425318D01*
X468667Y425448D01*
X468613Y425548D01*
X468568Y425652D01*
X468493Y425769D01*
X468427Y425891D01*
X468357Y425981D01*
X468296Y426077D01*
X468204Y426180D01*
X468119Y426289D01*
X468037Y426367D01*
X467961Y426452D01*
X467854Y426540D01*
X467753Y426635D01*
X467659Y426699D01*
X467571Y426770D01*
X467451Y426840D01*
X467336Y426917D01*
X467209Y426980D01*
X467135Y427023D01*
X467071Y427047D01*
X466982Y427091D01*
X464144Y428266D01*
X461286Y431124D01*
X461240Y431237D01*
X461167Y431379D01*
X461102Y431526D01*
X461052Y431603D01*
X461011Y431685D01*
X460916Y431814D01*
X460829Y431949D01*
X460768Y432018D01*
X460714Y432092D01*
X460600Y432204D01*
X460493Y432324D01*
X460421Y432381D01*
X460356Y432446D01*
X460226Y432540D01*
X460102Y432640D01*
X460022Y432686D01*
X459947Y432740D01*
X459803Y432812D01*
X459665Y432891D01*
X459579Y432924D01*
X459497Y432965D01*
X459344Y433013D01*
X459194Y433070D01*
X459104Y433088D01*
X459016Y433116D01*
X458858Y433139D01*
X458701Y433172D01*
X458590Y433179D01*
X458518Y433189D01*
X458437Y433188D01*
X458307Y433196D01*
X359741Y433196D01*
X359728Y433195D01*
X359714Y433196D01*
X359476Y433175D01*
X359239Y433156D01*
X359226Y433153D01*
X359213Y433152D01*
X358979Y433093D01*
X358750Y433038D01*
X358738Y433032D01*
X358724Y433029D01*
X358504Y432934D01*
X358286Y432843D01*
X358274Y432836D01*
X358262Y432830D01*
X358060Y432703D01*
X357858Y432577D01*
X357848Y432568D01*
X357836Y432561D01*
X357658Y432404D01*
X357478Y432247D01*
X357469Y432237D01*
X357459Y432228D01*
X357308Y432044D01*
X357154Y431861D01*
X357147Y431849D01*
X357139Y431839D01*
X357018Y431634D01*
X356896Y431429D01*
X356891Y431416D01*
X356884Y431405D01*
X356797Y431181D01*
X356709Y430961D01*
X356706Y430948D01*
X356701Y430935D01*
X356651Y430702D01*
X356599Y430470D01*
X356598Y430456D01*
X356595Y430443D01*
X356583Y430206D01*
X356568Y429968D01*
X356569Y429954D01*
X356568Y429940D01*
X356593Y429706D01*
X356616Y429466D01*
X356620Y429453D01*
X356621Y429440D01*
X356683Y429211D01*
X356743Y428979D01*
X356749Y428967D01*
X356752Y428953D01*
X356850Y428736D01*
X356946Y428518D01*
X356953Y428507D01*
X356959Y428494D01*
X357090Y428295D01*
X357219Y428095D01*
X357228Y428085D01*
X357236Y428074D01*
X357497Y427777D01*
X394708Y390566D01*
X394739Y390540D01*
X394766Y390509D01*
X394931Y390377D01*
X395091Y390240D01*
X395126Y390218D01*
X395158Y390193D01*
X395340Y390088D01*
X395521Y389978D01*
X395559Y389962D01*
X395595Y389942D01*
X395791Y389867D01*
X395987Y389787D01*
X396027Y389778D01*
X396065Y389763D01*
X396272Y389721D01*
X396477Y389672D01*
X396518Y389670D01*
X396558Y389661D01*
X396952Y389637D01*
X458254Y389637D01*
X458414Y389649D01*
G37*
%LPC*%
G36*
X414210Y68292D02*
X414210Y68292D01*
X406648Y72057D01*
X400957Y78300D01*
X397906Y86176D01*
X397906Y94624D01*
X400957Y102500D01*
X406648Y108743D01*
X414210Y112508D01*
X422621Y113288D01*
X430746Y110976D01*
X437487Y105885D01*
X441934Y98703D01*
X443486Y90400D01*
X441934Y82097D01*
X437487Y74915D01*
X430746Y69824D01*
X422621Y67512D01*
X414210Y68292D01*
G37*
%LPD*%
%LPC*%
G36*
X124459Y441755D02*
X124459Y441755D01*
X124457Y441760D01*
X124457Y441765D01*
X124394Y442000D01*
X124331Y442242D01*
X124329Y442247D01*
X124328Y442252D01*
X124229Y442474D01*
X124129Y442703D01*
X124126Y442708D01*
X124124Y442712D01*
X123990Y442917D01*
X123856Y443126D01*
X123852Y443130D01*
X123849Y443135D01*
X123685Y443317D01*
X123519Y443501D01*
X123515Y443504D01*
X123511Y443508D01*
X123321Y443661D01*
X123128Y443817D01*
X123123Y443820D01*
X123119Y443823D01*
X122904Y443946D01*
X122691Y444068D01*
X122686Y444070D01*
X122681Y444073D01*
X122314Y444218D01*
X120950Y444661D01*
X119667Y445315D01*
X118503Y446161D01*
X117485Y447179D01*
X116639Y448343D01*
X115985Y449626D01*
X115540Y450995D01*
X115315Y452416D01*
X115315Y456566D01*
X124460Y456566D01*
X133605Y456566D01*
X133605Y452416D01*
X133380Y450995D01*
X132935Y449626D01*
X132281Y448343D01*
X131435Y447179D01*
X130417Y446161D01*
X129253Y445315D01*
X127970Y444661D01*
X126606Y444218D01*
X126601Y444216D01*
X126595Y444214D01*
X126368Y444119D01*
X126141Y444025D01*
X126136Y444022D01*
X126131Y444020D01*
X125923Y443891D01*
X125712Y443761D01*
X125708Y443757D01*
X125703Y443754D01*
X125521Y443596D01*
X125331Y443432D01*
X125327Y443428D01*
X125323Y443424D01*
X125164Y443235D01*
X125006Y443047D01*
X125003Y443042D01*
X124999Y443038D01*
X124872Y442825D01*
X124746Y442616D01*
X124744Y442611D01*
X124741Y442606D01*
X124648Y442373D01*
X124558Y442149D01*
X124557Y442144D01*
X124554Y442138D01*
X124500Y441895D01*
X124461Y441726D01*
X124459Y441755D01*
G37*
%LPD*%
%LPC*%
G36*
X32737Y335914D02*
X32737Y335914D01*
X32737Y344544D01*
X32968Y346294D01*
X33424Y347999D01*
X34100Y349629D01*
X34982Y351158D01*
X36056Y352558D01*
X37304Y353806D01*
X38704Y354880D01*
X40233Y355762D01*
X41863Y356438D01*
X43026Y356749D01*
X43026Y335914D01*
X32737Y335914D01*
G37*
%LPD*%
%LPC*%
G36*
X41863Y309042D02*
X41863Y309042D01*
X40233Y309718D01*
X38704Y310600D01*
X37304Y311674D01*
X36056Y312922D01*
X34982Y314322D01*
X34100Y315851D01*
X33424Y317481D01*
X32968Y319186D01*
X32737Y320936D01*
X32737Y329566D01*
X43026Y329566D01*
X43026Y308731D01*
X41863Y309042D01*
G37*
%LPD*%
G36*
X164912Y352843D02*
X164912Y352843D01*
X164939Y352841D01*
X165163Y352863D01*
X165387Y352881D01*
X165413Y352887D01*
X165441Y352890D01*
X165659Y352947D01*
X165876Y352999D01*
X165901Y353010D01*
X165928Y353017D01*
X166134Y353108D01*
X166341Y353194D01*
X166364Y353208D01*
X166389Y353220D01*
X166578Y353342D01*
X166768Y353460D01*
X166789Y353478D01*
X166812Y353492D01*
X166979Y353643D01*
X167149Y353790D01*
X167166Y353811D01*
X167187Y353829D01*
X167328Y354003D01*
X167472Y354176D01*
X167486Y354199D01*
X167503Y354220D01*
X167615Y354415D01*
X167730Y354608D01*
X167741Y354633D01*
X167754Y354657D01*
X167834Y354867D01*
X167917Y355076D01*
X167923Y355102D01*
X167933Y355128D01*
X167978Y355348D01*
X168027Y355567D01*
X168029Y355594D01*
X168035Y355621D01*
X168059Y356015D01*
X168059Y357665D01*
X168057Y357692D01*
X168059Y357719D01*
X168037Y357943D01*
X168019Y358167D01*
X168013Y358193D01*
X168010Y358221D01*
X167953Y358439D01*
X167901Y358656D01*
X167890Y358681D01*
X167883Y358708D01*
X167792Y358914D01*
X167706Y359121D01*
X167691Y359144D01*
X167680Y359169D01*
X167558Y359358D01*
X167440Y359548D01*
X167422Y359569D01*
X167407Y359592D01*
X167257Y359759D01*
X167110Y359929D01*
X167089Y359946D01*
X167071Y359967D01*
X166896Y360108D01*
X166724Y360252D01*
X166701Y360266D01*
X166680Y360283D01*
X166485Y360395D01*
X166292Y360510D01*
X166267Y360521D01*
X166243Y360534D01*
X166033Y360614D01*
X165824Y360697D01*
X165798Y360703D01*
X165772Y360713D01*
X165552Y360758D01*
X165333Y360807D01*
X165306Y360809D01*
X165279Y360815D01*
X164885Y360839D01*
X153225Y360839D01*
X153198Y360837D01*
X153171Y360839D01*
X152947Y360817D01*
X152723Y360799D01*
X152697Y360793D01*
X152670Y360790D01*
X152451Y360733D01*
X152234Y360681D01*
X152209Y360670D01*
X152182Y360663D01*
X151976Y360572D01*
X151770Y360486D01*
X151746Y360471D01*
X151721Y360460D01*
X151532Y360338D01*
X151342Y360220D01*
X151321Y360202D01*
X151298Y360187D01*
X151131Y360037D01*
X150961Y359890D01*
X150944Y359869D01*
X150924Y359851D01*
X150782Y359676D01*
X150638Y359504D01*
X150624Y359481D01*
X150607Y359460D01*
X150495Y359265D01*
X150380Y359072D01*
X150370Y359047D01*
X150356Y359023D01*
X150276Y358813D01*
X150193Y358604D01*
X150187Y358578D01*
X150177Y358552D01*
X150132Y358332D01*
X150083Y358113D01*
X150081Y358086D01*
X150076Y358059D01*
X150051Y357665D01*
X150051Y356015D01*
X150053Y355988D01*
X150051Y355960D01*
X150073Y355736D01*
X150091Y355513D01*
X150097Y355487D01*
X150100Y355459D01*
X150157Y355241D01*
X150210Y355024D01*
X150220Y354999D01*
X150227Y354972D01*
X150318Y354766D01*
X150404Y354559D01*
X150419Y354536D01*
X150430Y354511D01*
X150552Y354322D01*
X150670Y354132D01*
X150688Y354111D01*
X150703Y354088D01*
X150853Y353921D01*
X151000Y353751D01*
X151021Y353734D01*
X151039Y353713D01*
X151214Y353572D01*
X151386Y353428D01*
X151409Y353414D01*
X151431Y353397D01*
X151625Y353285D01*
X151818Y353170D01*
X151844Y353159D01*
X151867Y353146D01*
X152077Y353066D01*
X152286Y352983D01*
X152312Y352977D01*
X152338Y352967D01*
X152558Y352922D01*
X152777Y352872D01*
X152804Y352871D01*
X152831Y352865D01*
X153225Y352841D01*
X164885Y352841D01*
X164912Y352843D01*
G37*
%LPC*%
G36*
X290194Y39694D02*
X290194Y39694D01*
X290194Y48713D01*
X292070Y48713D01*
X299213Y41570D01*
X299213Y39694D01*
X290194Y39694D01*
G37*
%LPD*%
%LPC*%
G36*
X274827Y39694D02*
X274827Y39694D01*
X274827Y41570D01*
X281970Y48713D01*
X283846Y48713D01*
X283846Y39694D01*
X274827Y39694D01*
G37*
%LPD*%
%LPC*%
G36*
X290194Y24327D02*
X290194Y24327D01*
X290194Y33346D01*
X299213Y33346D01*
X299213Y31470D01*
X292070Y24327D01*
X290194Y24327D01*
G37*
%LPD*%
%LPC*%
G36*
X281970Y24327D02*
X281970Y24327D01*
X274827Y31470D01*
X274827Y33346D01*
X283846Y33346D01*
X283846Y24327D01*
X281970Y24327D01*
G37*
%LPD*%
%LPC*%
G36*
X156399Y457041D02*
X156399Y457041D01*
X163941Y457041D01*
X163941Y452706D01*
X163768Y452059D01*
X163433Y451480D01*
X162960Y451007D01*
X162381Y450672D01*
X161734Y450499D01*
X156399Y450499D01*
X156399Y457041D01*
G37*
%LPD*%
%LPC*%
G36*
X143066Y450499D02*
X143066Y450499D01*
X142419Y450672D01*
X141840Y451007D01*
X141367Y451480D01*
X141032Y452059D01*
X140859Y452706D01*
X140859Y457041D01*
X148401Y457041D01*
X148401Y450499D01*
X143066Y450499D01*
G37*
%LPD*%
%LPC*%
G36*
X430438Y257174D02*
X430438Y257174D01*
X430896Y258583D01*
X431749Y260257D01*
X432854Y261778D01*
X434182Y263106D01*
X435703Y264211D01*
X437377Y265064D01*
X438786Y265522D01*
X438786Y257174D01*
X430438Y257174D01*
G37*
%LPD*%
%LPC*%
G36*
X121832Y419735D02*
X121832Y419735D01*
X116475Y425092D01*
X116475Y425706D01*
X122446Y425706D01*
X122446Y419735D01*
X121832Y419735D01*
G37*
%LPD*%
D10*
X177640Y356800D03*
X253840Y356800D03*
D11*
X408700Y277260D03*
X307100Y277260D03*
D12*
X58820Y52134D02*
X58820Y34227D01*
X108820Y34227D02*
X108820Y52134D01*
D13*
X29400Y251460D02*
X16320Y251460D01*
X16320Y226060D02*
X29400Y226060D01*
X92520Y124460D02*
X105600Y124460D01*
X105600Y251460D02*
X92520Y251460D01*
X92520Y226060D02*
X105600Y226060D01*
D14*
X197420Y317500D02*
X197420Y332740D01*
X172020Y332740D02*
X172020Y317500D01*
X146620Y317500D02*
X146620Y332740D01*
D15*
X125620Y378080D03*
X125620Y428880D03*
D16*
X17880Y459120D03*
D17*
X43280Y459120D03*
D14*
X469900Y309880D02*
X485140Y309880D01*
X485140Y335280D02*
X469900Y335280D01*
X469900Y360680D02*
X485140Y360680D01*
X485140Y386080D02*
X469900Y386080D01*
X469900Y411480D02*
X485140Y411480D01*
X485140Y436880D02*
X469900Y436880D01*
D18*
X367280Y294640D03*
X338840Y294640D03*
D19*
X332740Y409960D03*
X332740Y438400D03*
D20*
X287020Y236520D03*
D21*
X287020Y36520D03*
D18*
X367280Y340360D03*
X338840Y340360D03*
X275340Y340360D03*
X303780Y340360D03*
D22*
X261680Y383794D03*
X253680Y383794D03*
X245680Y383794D03*
X237680Y383794D03*
X229680Y383794D03*
X221680Y383794D03*
X213680Y383794D03*
X205680Y383794D03*
D23*
X190754Y398720D03*
X190754Y406720D03*
X190754Y414720D03*
X190754Y422720D03*
X190754Y430720D03*
X190754Y438720D03*
X190754Y446720D03*
X190754Y454720D03*
D22*
X205680Y469646D03*
X213680Y469646D03*
X221680Y469646D03*
X229680Y469646D03*
X237680Y469646D03*
X245680Y469646D03*
X253680Y469646D03*
X261680Y469646D03*
D23*
X276606Y454720D03*
X276606Y446720D03*
X276606Y438720D03*
X276606Y430720D03*
X276606Y422720D03*
X276606Y414720D03*
X276606Y406720D03*
X276606Y398720D03*
D24*
X152400Y433040D03*
X152400Y461040D03*
X152400Y384840D03*
X152400Y356840D03*
D25*
X467360Y203200D03*
X441960Y203200D03*
X467360Y228600D03*
X441960Y228600D03*
X467360Y254000D03*
X441960Y254000D03*
D26*
X302260Y449580D03*
X302260Y398780D03*
D11*
X408940Y312420D03*
X281940Y312420D03*
D27*
X73660Y453136D02*
X73660Y466344D01*
X124460Y466344D02*
X124460Y453136D01*
X99060Y453136D02*
X99060Y466344D01*
D28*
X381508Y215900D02*
X395732Y215900D01*
X395732Y241300D02*
X381508Y241300D01*
D29*
X87122Y284740D02*
X65278Y284740D01*
X46200Y321818D02*
X46200Y343662D01*
X106200Y343662D02*
X106200Y321818D01*
D30*
X442849Y410718D02*
X476377Y410718D01*
X442849Y410718D02*
X426085Y393954D01*
X476377Y410718D02*
X477520Y411480D01*
X441452Y410718D02*
X424688Y427482D01*
X441452Y410718D02*
X442849Y410718D01*
X230505Y392557D02*
X230505Y384175D01*
X230505Y392557D02*
X233299Y395351D01*
X237490Y395351D02*
X241681Y395351D01*
X237490Y395351D02*
X233299Y395351D01*
X241681Y395351D02*
X245872Y391160D01*
X245872Y384175D01*
X230505Y384175D02*
X229680Y383794D01*
X245680Y383794D02*
X245872Y384175D01*
X237490Y395351D02*
X237490Y469392D01*
X237680Y469646D01*
X153670Y356235D02*
X153670Y343662D01*
X171831Y325501D01*
X153670Y356235D02*
X152400Y356840D01*
X171831Y325501D02*
X172020Y325120D01*
X152273Y461010D02*
X125730Y461010D01*
X152273Y461010D02*
X152400Y461040D01*
X125730Y461010D02*
X124460Y459740D01*
X46101Y455422D02*
X46101Y333883D01*
X46101Y455422D02*
X43307Y458216D01*
X46101Y333883D02*
X46200Y332740D01*
X43307Y458216D02*
X43280Y459120D01*
X237490Y470789D02*
X237490Y477774D01*
X231902Y483362D01*
X67056Y483362D01*
X43307Y459613D01*
X237490Y470789D02*
X237680Y469646D01*
X43307Y459613D02*
X43280Y459120D01*
D31*
X426085Y393954D03*
X424688Y427482D03*
D30*
X339471Y359029D02*
X339471Y340868D01*
X338840Y340360D01*
X332486Y438658D02*
X312928Y438658D01*
X303149Y448437D01*
X332486Y438658D02*
X332740Y438400D01*
X303149Y448437D02*
X302260Y449580D01*
X333883Y437261D02*
X476377Y437261D01*
X477520Y436880D01*
X333883Y437261D02*
X332740Y438400D01*
X152273Y431673D02*
X152273Y385572D01*
X152400Y384840D01*
X152273Y431673D02*
X152400Y433040D01*
X99187Y229108D02*
X99187Y226314D01*
X99187Y229108D02*
X145288Y275209D01*
X145288Y304546D02*
X145288Y324104D01*
X145288Y304546D02*
X145288Y275209D01*
X99187Y226314D02*
X99060Y226060D01*
X145288Y324104D02*
X146620Y325120D01*
X153670Y384175D02*
X166243Y384175D01*
X189992Y360426D01*
X189992Y342265D01*
X184404Y336677D01*
X184404Y312928D01*
X176022Y304546D01*
X145288Y304546D01*
X153670Y384175D02*
X152400Y384840D01*
X389763Y215138D02*
X430276Y215138D01*
X441452Y203962D01*
X389763Y215138D02*
X388620Y215900D01*
X441452Y203962D02*
X441960Y203200D01*
X345059Y293370D02*
X339471Y293370D01*
X345059Y293370D02*
X360426Y278003D01*
X407924Y278003D01*
X339471Y293370D02*
X338840Y294640D01*
X407924Y278003D02*
X408700Y277260D01*
X275209Y340868D02*
X269621Y340868D01*
X254254Y356235D01*
X275209Y340868D02*
X275340Y340360D01*
X254254Y356235D02*
X253840Y356800D01*
X222123Y375793D02*
X222123Y382778D01*
X222123Y375793D02*
X224917Y372999D01*
X234696Y372999D01*
X236093Y374396D02*
X237490Y375793D01*
X236093Y374396D02*
X234696Y372999D01*
X237490Y375793D02*
X237490Y382778D01*
X222123Y382778D02*
X221680Y383794D01*
X237490Y382778D02*
X237680Y383794D01*
X213741Y399542D02*
X213741Y469392D01*
X213741Y399542D02*
X220726Y392557D01*
X220726Y384175D01*
X213741Y469392D02*
X213680Y469646D01*
X220726Y384175D02*
X221680Y383794D01*
X236093Y374396D02*
X252857Y357632D01*
X253840Y356800D01*
X321310Y294767D02*
X338074Y294767D01*
X321310Y294767D02*
X276606Y339471D01*
X338074Y294767D02*
X338840Y294640D01*
X276606Y339471D02*
X275340Y340360D01*
D31*
X339471Y359029D03*
D30*
X276606Y421894D02*
X268224Y421894D01*
X264033Y417703D01*
X303149Y356235D02*
X303149Y340868D01*
X276606Y421894D02*
X276606Y422720D01*
X303149Y340868D02*
X303780Y340360D01*
X466598Y278003D02*
X466598Y254254D01*
X466598Y278003D02*
X417703Y326898D01*
X317119Y326898D01*
X304546Y339471D01*
X466598Y254254D02*
X467360Y254000D01*
X304546Y339471D02*
X303780Y340360D01*
D31*
X264033Y417703D03*
X303149Y356235D03*
D30*
X304546Y438658D02*
X276606Y438658D01*
X304546Y438658D02*
X332486Y410718D01*
X276606Y438658D02*
X276606Y438720D01*
X332486Y410718D02*
X332740Y409960D01*
X332486Y412115D02*
X349250Y428879D01*
X332486Y412115D02*
X332740Y409960D01*
X393954Y385572D02*
X476377Y385572D01*
X393954Y385572D02*
X350647Y428879D01*
X476377Y385572D02*
X477520Y386080D01*
X350647Y428879D02*
X349250Y428879D01*
D31*
X349250Y428879D03*
D30*
X276606Y431673D02*
X268224Y431673D01*
X264033Y435864D01*
X264033Y448437D01*
X276606Y431673D02*
X276606Y430720D01*
X367411Y293370D02*
X440055Y293370D01*
X442849Y290576D01*
X367411Y293370D02*
X367280Y294640D01*
D31*
X264033Y448437D03*
X442849Y290576D03*
D30*
X191389Y382778D02*
X191389Y398145D01*
X191389Y382778D02*
X271018Y303149D01*
X272415Y303149D01*
X191389Y398145D02*
X190754Y398720D01*
D31*
X272415Y303149D03*
D30*
X124333Y350647D02*
X124333Y377190D01*
X124333Y350647D02*
X107569Y333883D01*
X124333Y377190D02*
X125620Y378080D01*
X107569Y333883D02*
X106200Y332740D01*
X99187Y275209D02*
X99187Y251460D01*
X99187Y275209D02*
X134112Y310134D01*
X134112Y361823D01*
X142494Y370205D01*
X164846Y370205D01*
X177419Y357632D01*
X99187Y251460D02*
X99060Y251460D01*
X177640Y356800D02*
X177419Y357632D01*
X74041Y451231D02*
X74041Y459613D01*
X74041Y451231D02*
X138303Y386969D01*
X138303Y375793D01*
X142494Y371602D01*
X74041Y459613D02*
X73660Y459740D01*
X142494Y371602D02*
X142494Y370205D01*
X276606Y398145D02*
X298958Y375793D01*
X276606Y398145D02*
X276606Y398720D01*
X350647Y356235D02*
X366014Y340868D01*
X367280Y340360D01*
D31*
X298958Y375793D03*
X350647Y356235D03*
D30*
X189992Y445643D02*
X181610Y445643D01*
X180213Y444246D01*
X180213Y384175D01*
X335280Y229108D01*
X441452Y229108D01*
X189992Y445643D02*
X190754Y446720D01*
X441452Y229108D02*
X441960Y228600D01*
X205359Y470789D02*
X166243Y470789D01*
X159258Y477774D01*
X69850Y477774D01*
X55880Y463804D01*
X55880Y417703D01*
X54483Y416306D01*
X54483Y357632D01*
X61468Y350647D01*
X61468Y303149D01*
X50292Y291973D01*
X50292Y252857D01*
X88011Y215138D01*
X153670Y215138D01*
X157861Y219329D01*
X328295Y219329D01*
X364617Y183007D01*
X466598Y183007D01*
X481965Y198374D01*
X481965Y213741D01*
X467995Y227711D01*
X205680Y469646D02*
X205359Y470789D01*
X467360Y228600D02*
X467995Y227711D01*
X198374Y454025D02*
X191389Y454025D01*
X198374Y454025D02*
X205359Y447040D01*
X220726Y332486D02*
X223520Y332486D01*
X367411Y188595D01*
X452628Y188595D01*
X466598Y202565D01*
X191389Y454025D02*
X190754Y454720D01*
X466598Y202565D02*
X467360Y203200D01*
D31*
X205359Y447040D03*
X220726Y332486D03*
D30*
X276606Y414909D02*
X304546Y414909D01*
X340868Y378587D01*
X433070Y378587D01*
X476377Y335280D01*
X276606Y414720D02*
X276606Y414909D01*
X476377Y335280D02*
X477520Y335280D01*
X284988Y406527D02*
X276606Y406527D01*
X284988Y406527D02*
X290576Y400939D01*
X290576Y395351D01*
X312928Y372999D01*
X413512Y372999D01*
X476377Y310134D01*
X276606Y406527D02*
X276606Y406720D01*
X476377Y310134D02*
X477520Y309880D01*
X198374Y414909D02*
X191389Y414909D01*
X198374Y414909D02*
X203962Y409321D01*
X203962Y396748D01*
X271018Y463804D02*
X375793Y463804D01*
X393954Y445643D01*
X191389Y414909D02*
X190754Y414720D01*
D31*
X203962Y396748D03*
X271018Y463804D03*
X393954Y445643D03*
D30*
X254254Y382778D02*
X254254Y375793D01*
X262636Y367411D01*
X385572Y367411D01*
X481965Y271018D01*
X481965Y236093D01*
X254254Y382778D02*
X253680Y383794D01*
D31*
X481965Y236093D03*
D30*
X230505Y311531D02*
X209550Y332486D01*
X209550Y343662D01*
D31*
X230505Y311531D03*
X209550Y343662D03*
M02*
