G04 EAGLE Gerber RS-274X export*
G75*
%MOMM*%
%FSLAX34Y34*%
%LPD*%
%INMechanical*%
%IPPOS*%
%AMOC8*
5,1,8,0,0,1.08239X$1,22.5*%
G01*
%ADD10C,0.000000*%
%ADD11C,0.100000*%
%ADD12R,0.762000X2.311400*%
%ADD13R,0.812800X0.685800*%
%ADD14R,0.050800X2.336800*%
%ADD15R,0.990600X3.479800*%
%ADD16R,0.990600X0.025400*%
%ADD17R,0.050800X1.244600*%
%ADD18R,0.025400X1.905000*%
%ADD19R,0.025400X1.600200*%
%ADD20R,2.997200X0.812800*%
%ADD21C,0.127000*%
%ADD22C,0.050800*%
%ADD23C,0.254000*%


D10*
X-320Y500020D02*
X-320Y20D01*
X499680Y20D01*
X499680Y500020D01*
X-320Y500020D01*
X409680Y90020D02*
X409683Y90265D01*
X409692Y90511D01*
X409707Y90756D01*
X409728Y91000D01*
X409755Y91244D01*
X409788Y91487D01*
X409827Y91730D01*
X409872Y91971D01*
X409923Y92211D01*
X409980Y92450D01*
X410042Y92687D01*
X410111Y92923D01*
X410185Y93157D01*
X410265Y93389D01*
X410350Y93619D01*
X410441Y93847D01*
X410538Y94072D01*
X410640Y94296D01*
X410748Y94516D01*
X410861Y94734D01*
X410979Y94949D01*
X411103Y95161D01*
X411231Y95370D01*
X411365Y95576D01*
X411504Y95778D01*
X411648Y95977D01*
X411797Y96172D01*
X411950Y96364D01*
X412108Y96552D01*
X412270Y96736D01*
X412438Y96915D01*
X412609Y97091D01*
X412785Y97262D01*
X412964Y97430D01*
X413148Y97592D01*
X413336Y97750D01*
X413528Y97903D01*
X413723Y98052D01*
X413922Y98196D01*
X414124Y98335D01*
X414330Y98469D01*
X414539Y98597D01*
X414751Y98721D01*
X414966Y98839D01*
X415184Y98952D01*
X415404Y99060D01*
X415628Y99162D01*
X415853Y99259D01*
X416081Y99350D01*
X416311Y99435D01*
X416543Y99515D01*
X416777Y99589D01*
X417013Y99658D01*
X417250Y99720D01*
X417489Y99777D01*
X417729Y99828D01*
X417970Y99873D01*
X418213Y99912D01*
X418456Y99945D01*
X418700Y99972D01*
X418944Y99993D01*
X419189Y100008D01*
X419435Y100017D01*
X419680Y100020D01*
X419925Y100017D01*
X420171Y100008D01*
X420416Y99993D01*
X420660Y99972D01*
X420904Y99945D01*
X421147Y99912D01*
X421390Y99873D01*
X421631Y99828D01*
X421871Y99777D01*
X422110Y99720D01*
X422347Y99658D01*
X422583Y99589D01*
X422817Y99515D01*
X423049Y99435D01*
X423279Y99350D01*
X423507Y99259D01*
X423732Y99162D01*
X423956Y99060D01*
X424176Y98952D01*
X424394Y98839D01*
X424609Y98721D01*
X424821Y98597D01*
X425030Y98469D01*
X425236Y98335D01*
X425438Y98196D01*
X425637Y98052D01*
X425832Y97903D01*
X426024Y97750D01*
X426212Y97592D01*
X426396Y97430D01*
X426575Y97262D01*
X426751Y97091D01*
X426922Y96915D01*
X427090Y96736D01*
X427252Y96552D01*
X427410Y96364D01*
X427563Y96172D01*
X427712Y95977D01*
X427856Y95778D01*
X427995Y95576D01*
X428129Y95370D01*
X428257Y95161D01*
X428381Y94949D01*
X428499Y94734D01*
X428612Y94516D01*
X428720Y94296D01*
X428822Y94072D01*
X428919Y93847D01*
X429010Y93619D01*
X429095Y93389D01*
X429175Y93157D01*
X429249Y92923D01*
X429318Y92687D01*
X429380Y92450D01*
X429437Y92211D01*
X429488Y91971D01*
X429533Y91730D01*
X429572Y91487D01*
X429605Y91244D01*
X429632Y91000D01*
X429653Y90756D01*
X429668Y90511D01*
X429677Y90265D01*
X429680Y90020D01*
X429677Y89775D01*
X429668Y89529D01*
X429653Y89284D01*
X429632Y89040D01*
X429605Y88796D01*
X429572Y88553D01*
X429533Y88310D01*
X429488Y88069D01*
X429437Y87829D01*
X429380Y87590D01*
X429318Y87353D01*
X429249Y87117D01*
X429175Y86883D01*
X429095Y86651D01*
X429010Y86421D01*
X428919Y86193D01*
X428822Y85968D01*
X428720Y85744D01*
X428612Y85524D01*
X428499Y85306D01*
X428381Y85091D01*
X428257Y84879D01*
X428129Y84670D01*
X427995Y84464D01*
X427856Y84262D01*
X427712Y84063D01*
X427563Y83868D01*
X427410Y83676D01*
X427252Y83488D01*
X427090Y83304D01*
X426922Y83125D01*
X426751Y82949D01*
X426575Y82778D01*
X426396Y82610D01*
X426212Y82448D01*
X426024Y82290D01*
X425832Y82137D01*
X425637Y81988D01*
X425438Y81844D01*
X425236Y81705D01*
X425030Y81571D01*
X424821Y81443D01*
X424609Y81319D01*
X424394Y81201D01*
X424176Y81088D01*
X423956Y80980D01*
X423732Y80878D01*
X423507Y80781D01*
X423279Y80690D01*
X423049Y80605D01*
X422817Y80525D01*
X422583Y80451D01*
X422347Y80382D01*
X422110Y80320D01*
X421871Y80263D01*
X421631Y80212D01*
X421390Y80167D01*
X421147Y80128D01*
X420904Y80095D01*
X420660Y80068D01*
X420416Y80047D01*
X420171Y80032D01*
X419925Y80023D01*
X419680Y80020D01*
X419435Y80023D01*
X419189Y80032D01*
X418944Y80047D01*
X418700Y80068D01*
X418456Y80095D01*
X418213Y80128D01*
X417970Y80167D01*
X417729Y80212D01*
X417489Y80263D01*
X417250Y80320D01*
X417013Y80382D01*
X416777Y80451D01*
X416543Y80525D01*
X416311Y80605D01*
X416081Y80690D01*
X415853Y80781D01*
X415628Y80878D01*
X415404Y80980D01*
X415184Y81088D01*
X414966Y81201D01*
X414751Y81319D01*
X414539Y81443D01*
X414330Y81571D01*
X414124Y81705D01*
X413922Y81844D01*
X413723Y81988D01*
X413528Y82137D01*
X413336Y82290D01*
X413148Y82448D01*
X412964Y82610D01*
X412785Y82778D01*
X412609Y82949D01*
X412438Y83125D01*
X412270Y83304D01*
X412108Y83488D01*
X411950Y83676D01*
X411797Y83868D01*
X411648Y84063D01*
X411504Y84262D01*
X411365Y84464D01*
X411231Y84670D01*
X411103Y84879D01*
X410979Y85091D01*
X410861Y85306D01*
X410748Y85524D01*
X410640Y85744D01*
X410538Y85968D01*
X410441Y86193D01*
X410350Y86421D01*
X410265Y86651D01*
X410185Y86883D01*
X410111Y87117D01*
X410042Y87353D01*
X409980Y87590D01*
X409923Y87829D01*
X409872Y88069D01*
X409827Y88310D01*
X409788Y88553D01*
X409755Y88796D01*
X409728Y89040D01*
X409707Y89284D01*
X409692Y89529D01*
X409683Y89775D01*
X409680Y90020D01*
X69680Y410020D02*
X69683Y410265D01*
X69692Y410511D01*
X69707Y410756D01*
X69728Y411000D01*
X69755Y411244D01*
X69788Y411487D01*
X69827Y411730D01*
X69872Y411971D01*
X69923Y412211D01*
X69980Y412450D01*
X70042Y412687D01*
X70111Y412923D01*
X70185Y413157D01*
X70265Y413389D01*
X70350Y413619D01*
X70441Y413847D01*
X70538Y414072D01*
X70640Y414296D01*
X70748Y414516D01*
X70861Y414734D01*
X70979Y414949D01*
X71103Y415161D01*
X71231Y415370D01*
X71365Y415576D01*
X71504Y415778D01*
X71648Y415977D01*
X71797Y416172D01*
X71950Y416364D01*
X72108Y416552D01*
X72270Y416736D01*
X72438Y416915D01*
X72609Y417091D01*
X72785Y417262D01*
X72964Y417430D01*
X73148Y417592D01*
X73336Y417750D01*
X73528Y417903D01*
X73723Y418052D01*
X73922Y418196D01*
X74124Y418335D01*
X74330Y418469D01*
X74539Y418597D01*
X74751Y418721D01*
X74966Y418839D01*
X75184Y418952D01*
X75404Y419060D01*
X75628Y419162D01*
X75853Y419259D01*
X76081Y419350D01*
X76311Y419435D01*
X76543Y419515D01*
X76777Y419589D01*
X77013Y419658D01*
X77250Y419720D01*
X77489Y419777D01*
X77729Y419828D01*
X77970Y419873D01*
X78213Y419912D01*
X78456Y419945D01*
X78700Y419972D01*
X78944Y419993D01*
X79189Y420008D01*
X79435Y420017D01*
X79680Y420020D01*
X79925Y420017D01*
X80171Y420008D01*
X80416Y419993D01*
X80660Y419972D01*
X80904Y419945D01*
X81147Y419912D01*
X81390Y419873D01*
X81631Y419828D01*
X81871Y419777D01*
X82110Y419720D01*
X82347Y419658D01*
X82583Y419589D01*
X82817Y419515D01*
X83049Y419435D01*
X83279Y419350D01*
X83507Y419259D01*
X83732Y419162D01*
X83956Y419060D01*
X84176Y418952D01*
X84394Y418839D01*
X84609Y418721D01*
X84821Y418597D01*
X85030Y418469D01*
X85236Y418335D01*
X85438Y418196D01*
X85637Y418052D01*
X85832Y417903D01*
X86024Y417750D01*
X86212Y417592D01*
X86396Y417430D01*
X86575Y417262D01*
X86751Y417091D01*
X86922Y416915D01*
X87090Y416736D01*
X87252Y416552D01*
X87410Y416364D01*
X87563Y416172D01*
X87712Y415977D01*
X87856Y415778D01*
X87995Y415576D01*
X88129Y415370D01*
X88257Y415161D01*
X88381Y414949D01*
X88499Y414734D01*
X88612Y414516D01*
X88720Y414296D01*
X88822Y414072D01*
X88919Y413847D01*
X89010Y413619D01*
X89095Y413389D01*
X89175Y413157D01*
X89249Y412923D01*
X89318Y412687D01*
X89380Y412450D01*
X89437Y412211D01*
X89488Y411971D01*
X89533Y411730D01*
X89572Y411487D01*
X89605Y411244D01*
X89632Y411000D01*
X89653Y410756D01*
X89668Y410511D01*
X89677Y410265D01*
X89680Y410020D01*
X89677Y409775D01*
X89668Y409529D01*
X89653Y409284D01*
X89632Y409040D01*
X89605Y408796D01*
X89572Y408553D01*
X89533Y408310D01*
X89488Y408069D01*
X89437Y407829D01*
X89380Y407590D01*
X89318Y407353D01*
X89249Y407117D01*
X89175Y406883D01*
X89095Y406651D01*
X89010Y406421D01*
X88919Y406193D01*
X88822Y405968D01*
X88720Y405744D01*
X88612Y405524D01*
X88499Y405306D01*
X88381Y405091D01*
X88257Y404879D01*
X88129Y404670D01*
X87995Y404464D01*
X87856Y404262D01*
X87712Y404063D01*
X87563Y403868D01*
X87410Y403676D01*
X87252Y403488D01*
X87090Y403304D01*
X86922Y403125D01*
X86751Y402949D01*
X86575Y402778D01*
X86396Y402610D01*
X86212Y402448D01*
X86024Y402290D01*
X85832Y402137D01*
X85637Y401988D01*
X85438Y401844D01*
X85236Y401705D01*
X85030Y401571D01*
X84821Y401443D01*
X84609Y401319D01*
X84394Y401201D01*
X84176Y401088D01*
X83956Y400980D01*
X83732Y400878D01*
X83507Y400781D01*
X83279Y400690D01*
X83049Y400605D01*
X82817Y400525D01*
X82583Y400451D01*
X82347Y400382D01*
X82110Y400320D01*
X81871Y400263D01*
X81631Y400212D01*
X81390Y400167D01*
X81147Y400128D01*
X80904Y400095D01*
X80660Y400068D01*
X80416Y400047D01*
X80171Y400032D01*
X79925Y400023D01*
X79680Y400020D01*
X79435Y400023D01*
X79189Y400032D01*
X78944Y400047D01*
X78700Y400068D01*
X78456Y400095D01*
X78213Y400128D01*
X77970Y400167D01*
X77729Y400212D01*
X77489Y400263D01*
X77250Y400320D01*
X77013Y400382D01*
X76777Y400451D01*
X76543Y400525D01*
X76311Y400605D01*
X76081Y400690D01*
X75853Y400781D01*
X75628Y400878D01*
X75404Y400980D01*
X75184Y401088D01*
X74966Y401201D01*
X74751Y401319D01*
X74539Y401443D01*
X74330Y401571D01*
X74124Y401705D01*
X73922Y401844D01*
X73723Y401988D01*
X73528Y402137D01*
X73336Y402290D01*
X73148Y402448D01*
X72964Y402610D01*
X72785Y402778D01*
X72609Y402949D01*
X72438Y403125D01*
X72270Y403304D01*
X72108Y403488D01*
X71950Y403676D01*
X71797Y403868D01*
X71648Y404063D01*
X71504Y404262D01*
X71365Y404464D01*
X71231Y404670D01*
X71103Y404879D01*
X70979Y405091D01*
X70861Y405306D01*
X70748Y405524D01*
X70640Y405744D01*
X70538Y405968D01*
X70441Y406193D01*
X70350Y406421D01*
X70265Y406651D01*
X70185Y406883D01*
X70111Y407117D01*
X70042Y407353D01*
X69980Y407590D01*
X69923Y407829D01*
X69872Y408069D01*
X69827Y408310D01*
X69788Y408553D01*
X69755Y408796D01*
X69728Y409040D01*
X69707Y409284D01*
X69692Y409529D01*
X69683Y409775D01*
X69680Y410020D01*
D11*
X59500Y410400D02*
X59506Y410891D01*
X59524Y411381D01*
X59554Y411871D01*
X59596Y412360D01*
X59650Y412848D01*
X59716Y413335D01*
X59794Y413819D01*
X59884Y414302D01*
X59986Y414782D01*
X60099Y415260D01*
X60224Y415734D01*
X60361Y416206D01*
X60509Y416674D01*
X60669Y417138D01*
X60840Y417598D01*
X61022Y418054D01*
X61216Y418505D01*
X61420Y418951D01*
X61636Y419392D01*
X61862Y419828D01*
X62098Y420258D01*
X62345Y420682D01*
X62603Y421100D01*
X62871Y421511D01*
X63148Y421916D01*
X63436Y422314D01*
X63733Y422705D01*
X64040Y423088D01*
X64356Y423463D01*
X64681Y423831D01*
X65015Y424191D01*
X65358Y424542D01*
X65709Y424885D01*
X66069Y425219D01*
X66437Y425544D01*
X66812Y425860D01*
X67195Y426167D01*
X67586Y426464D01*
X67984Y426752D01*
X68389Y427029D01*
X68800Y427297D01*
X69218Y427555D01*
X69642Y427802D01*
X70072Y428038D01*
X70508Y428264D01*
X70949Y428480D01*
X71395Y428684D01*
X71846Y428878D01*
X72302Y429060D01*
X72762Y429231D01*
X73226Y429391D01*
X73694Y429539D01*
X74166Y429676D01*
X74640Y429801D01*
X75118Y429914D01*
X75598Y430016D01*
X76081Y430106D01*
X76565Y430184D01*
X77052Y430250D01*
X77540Y430304D01*
X78029Y430346D01*
X78519Y430376D01*
X79009Y430394D01*
X79500Y430400D01*
X79991Y430394D01*
X80481Y430376D01*
X80971Y430346D01*
X81460Y430304D01*
X81948Y430250D01*
X82435Y430184D01*
X82919Y430106D01*
X83402Y430016D01*
X83882Y429914D01*
X84360Y429801D01*
X84834Y429676D01*
X85306Y429539D01*
X85774Y429391D01*
X86238Y429231D01*
X86698Y429060D01*
X87154Y428878D01*
X87605Y428684D01*
X88051Y428480D01*
X88492Y428264D01*
X88928Y428038D01*
X89358Y427802D01*
X89782Y427555D01*
X90200Y427297D01*
X90611Y427029D01*
X91016Y426752D01*
X91414Y426464D01*
X91805Y426167D01*
X92188Y425860D01*
X92563Y425544D01*
X92931Y425219D01*
X93291Y424885D01*
X93642Y424542D01*
X93985Y424191D01*
X94319Y423831D01*
X94644Y423463D01*
X94960Y423088D01*
X95267Y422705D01*
X95564Y422314D01*
X95852Y421916D01*
X96129Y421511D01*
X96397Y421100D01*
X96655Y420682D01*
X96902Y420258D01*
X97138Y419828D01*
X97364Y419392D01*
X97580Y418951D01*
X97784Y418505D01*
X97978Y418054D01*
X98160Y417598D01*
X98331Y417138D01*
X98491Y416674D01*
X98639Y416206D01*
X98776Y415734D01*
X98901Y415260D01*
X99014Y414782D01*
X99116Y414302D01*
X99206Y413819D01*
X99284Y413335D01*
X99350Y412848D01*
X99404Y412360D01*
X99446Y411871D01*
X99476Y411381D01*
X99494Y410891D01*
X99500Y410400D01*
X99494Y409909D01*
X99476Y409419D01*
X99446Y408929D01*
X99404Y408440D01*
X99350Y407952D01*
X99284Y407465D01*
X99206Y406981D01*
X99116Y406498D01*
X99014Y406018D01*
X98901Y405540D01*
X98776Y405066D01*
X98639Y404594D01*
X98491Y404126D01*
X98331Y403662D01*
X98160Y403202D01*
X97978Y402746D01*
X97784Y402295D01*
X97580Y401849D01*
X97364Y401408D01*
X97138Y400972D01*
X96902Y400542D01*
X96655Y400118D01*
X96397Y399700D01*
X96129Y399289D01*
X95852Y398884D01*
X95564Y398486D01*
X95267Y398095D01*
X94960Y397712D01*
X94644Y397337D01*
X94319Y396969D01*
X93985Y396609D01*
X93642Y396258D01*
X93291Y395915D01*
X92931Y395581D01*
X92563Y395256D01*
X92188Y394940D01*
X91805Y394633D01*
X91414Y394336D01*
X91016Y394048D01*
X90611Y393771D01*
X90200Y393503D01*
X89782Y393245D01*
X89358Y392998D01*
X88928Y392762D01*
X88492Y392536D01*
X88051Y392320D01*
X87605Y392116D01*
X87154Y391922D01*
X86698Y391740D01*
X86238Y391569D01*
X85774Y391409D01*
X85306Y391261D01*
X84834Y391124D01*
X84360Y390999D01*
X83882Y390886D01*
X83402Y390784D01*
X82919Y390694D01*
X82435Y390616D01*
X81948Y390550D01*
X81460Y390496D01*
X80971Y390454D01*
X80481Y390424D01*
X79991Y390406D01*
X79500Y390400D01*
X79009Y390406D01*
X78519Y390424D01*
X78029Y390454D01*
X77540Y390496D01*
X77052Y390550D01*
X76565Y390616D01*
X76081Y390694D01*
X75598Y390784D01*
X75118Y390886D01*
X74640Y390999D01*
X74166Y391124D01*
X73694Y391261D01*
X73226Y391409D01*
X72762Y391569D01*
X72302Y391740D01*
X71846Y391922D01*
X71395Y392116D01*
X70949Y392320D01*
X70508Y392536D01*
X70072Y392762D01*
X69642Y392998D01*
X69218Y393245D01*
X68800Y393503D01*
X68389Y393771D01*
X67984Y394048D01*
X67586Y394336D01*
X67195Y394633D01*
X66812Y394940D01*
X66437Y395256D01*
X66069Y395581D01*
X65709Y395915D01*
X65358Y396258D01*
X65015Y396609D01*
X64681Y396969D01*
X64356Y397337D01*
X64040Y397712D01*
X63733Y398095D01*
X63436Y398486D01*
X63148Y398884D01*
X62871Y399289D01*
X62603Y399700D01*
X62345Y400118D01*
X62098Y400542D01*
X61862Y400972D01*
X61636Y401408D01*
X61420Y401849D01*
X61216Y402295D01*
X61022Y402746D01*
X60840Y403202D01*
X60669Y403662D01*
X60509Y404126D01*
X60361Y404594D01*
X60224Y405066D01*
X60099Y405540D01*
X59986Y406018D01*
X59884Y406498D01*
X59794Y406981D01*
X59716Y407465D01*
X59650Y407952D01*
X59596Y408440D01*
X59554Y408929D01*
X59524Y409419D01*
X59506Y409909D01*
X59500Y410400D01*
X400500Y90400D02*
X400506Y90891D01*
X400524Y91381D01*
X400554Y91871D01*
X400596Y92360D01*
X400650Y92848D01*
X400716Y93335D01*
X400794Y93819D01*
X400884Y94302D01*
X400986Y94782D01*
X401099Y95260D01*
X401224Y95734D01*
X401361Y96206D01*
X401509Y96674D01*
X401669Y97138D01*
X401840Y97598D01*
X402022Y98054D01*
X402216Y98505D01*
X402420Y98951D01*
X402636Y99392D01*
X402862Y99828D01*
X403098Y100258D01*
X403345Y100682D01*
X403603Y101100D01*
X403871Y101511D01*
X404148Y101916D01*
X404436Y102314D01*
X404733Y102705D01*
X405040Y103088D01*
X405356Y103463D01*
X405681Y103831D01*
X406015Y104191D01*
X406358Y104542D01*
X406709Y104885D01*
X407069Y105219D01*
X407437Y105544D01*
X407812Y105860D01*
X408195Y106167D01*
X408586Y106464D01*
X408984Y106752D01*
X409389Y107029D01*
X409800Y107297D01*
X410218Y107555D01*
X410642Y107802D01*
X411072Y108038D01*
X411508Y108264D01*
X411949Y108480D01*
X412395Y108684D01*
X412846Y108878D01*
X413302Y109060D01*
X413762Y109231D01*
X414226Y109391D01*
X414694Y109539D01*
X415166Y109676D01*
X415640Y109801D01*
X416118Y109914D01*
X416598Y110016D01*
X417081Y110106D01*
X417565Y110184D01*
X418052Y110250D01*
X418540Y110304D01*
X419029Y110346D01*
X419519Y110376D01*
X420009Y110394D01*
X420500Y110400D01*
X420991Y110394D01*
X421481Y110376D01*
X421971Y110346D01*
X422460Y110304D01*
X422948Y110250D01*
X423435Y110184D01*
X423919Y110106D01*
X424402Y110016D01*
X424882Y109914D01*
X425360Y109801D01*
X425834Y109676D01*
X426306Y109539D01*
X426774Y109391D01*
X427238Y109231D01*
X427698Y109060D01*
X428154Y108878D01*
X428605Y108684D01*
X429051Y108480D01*
X429492Y108264D01*
X429928Y108038D01*
X430358Y107802D01*
X430782Y107555D01*
X431200Y107297D01*
X431611Y107029D01*
X432016Y106752D01*
X432414Y106464D01*
X432805Y106167D01*
X433188Y105860D01*
X433563Y105544D01*
X433931Y105219D01*
X434291Y104885D01*
X434642Y104542D01*
X434985Y104191D01*
X435319Y103831D01*
X435644Y103463D01*
X435960Y103088D01*
X436267Y102705D01*
X436564Y102314D01*
X436852Y101916D01*
X437129Y101511D01*
X437397Y101100D01*
X437655Y100682D01*
X437902Y100258D01*
X438138Y99828D01*
X438364Y99392D01*
X438580Y98951D01*
X438784Y98505D01*
X438978Y98054D01*
X439160Y97598D01*
X439331Y97138D01*
X439491Y96674D01*
X439639Y96206D01*
X439776Y95734D01*
X439901Y95260D01*
X440014Y94782D01*
X440116Y94302D01*
X440206Y93819D01*
X440284Y93335D01*
X440350Y92848D01*
X440404Y92360D01*
X440446Y91871D01*
X440476Y91381D01*
X440494Y90891D01*
X440500Y90400D01*
X440494Y89909D01*
X440476Y89419D01*
X440446Y88929D01*
X440404Y88440D01*
X440350Y87952D01*
X440284Y87465D01*
X440206Y86981D01*
X440116Y86498D01*
X440014Y86018D01*
X439901Y85540D01*
X439776Y85066D01*
X439639Y84594D01*
X439491Y84126D01*
X439331Y83662D01*
X439160Y83202D01*
X438978Y82746D01*
X438784Y82295D01*
X438580Y81849D01*
X438364Y81408D01*
X438138Y80972D01*
X437902Y80542D01*
X437655Y80118D01*
X437397Y79700D01*
X437129Y79289D01*
X436852Y78884D01*
X436564Y78486D01*
X436267Y78095D01*
X435960Y77712D01*
X435644Y77337D01*
X435319Y76969D01*
X434985Y76609D01*
X434642Y76258D01*
X434291Y75915D01*
X433931Y75581D01*
X433563Y75256D01*
X433188Y74940D01*
X432805Y74633D01*
X432414Y74336D01*
X432016Y74048D01*
X431611Y73771D01*
X431200Y73503D01*
X430782Y73245D01*
X430358Y72998D01*
X429928Y72762D01*
X429492Y72536D01*
X429051Y72320D01*
X428605Y72116D01*
X428154Y71922D01*
X427698Y71740D01*
X427238Y71569D01*
X426774Y71409D01*
X426306Y71261D01*
X425834Y71124D01*
X425360Y70999D01*
X424882Y70886D01*
X424402Y70784D01*
X423919Y70694D01*
X423435Y70616D01*
X422948Y70550D01*
X422460Y70496D01*
X421971Y70454D01*
X421481Y70424D01*
X420991Y70406D01*
X420500Y70400D01*
X420009Y70406D01*
X419519Y70424D01*
X419029Y70454D01*
X418540Y70496D01*
X418052Y70550D01*
X417565Y70616D01*
X417081Y70694D01*
X416598Y70784D01*
X416118Y70886D01*
X415640Y70999D01*
X415166Y71124D01*
X414694Y71261D01*
X414226Y71409D01*
X413762Y71569D01*
X413302Y71740D01*
X412846Y71922D01*
X412395Y72116D01*
X411949Y72320D01*
X411508Y72536D01*
X411072Y72762D01*
X410642Y72998D01*
X410218Y73245D01*
X409800Y73503D01*
X409389Y73771D01*
X408984Y74048D01*
X408586Y74336D01*
X408195Y74633D01*
X407812Y74940D01*
X407437Y75256D01*
X407069Y75581D01*
X406709Y75915D01*
X406358Y76258D01*
X406015Y76609D01*
X405681Y76969D01*
X405356Y77337D01*
X405040Y77712D01*
X404733Y78095D01*
X404436Y78486D01*
X404148Y78884D01*
X403871Y79289D01*
X403603Y79700D01*
X403345Y80118D01*
X403098Y80542D01*
X402862Y80972D01*
X402636Y81408D01*
X402420Y81849D01*
X402216Y82295D01*
X402022Y82746D01*
X401840Y83202D01*
X401669Y83662D01*
X401509Y84126D01*
X401361Y84594D01*
X401224Y85066D01*
X401099Y85540D01*
X400986Y86018D01*
X400884Y86498D01*
X400794Y86981D01*
X400716Y87465D01*
X400650Y87952D01*
X400596Y88440D01*
X400554Y88929D01*
X400524Y89419D01*
X400506Y89909D01*
X400500Y90400D01*
D10*
X155510Y175260D02*
X155515Y175665D01*
X155530Y176070D01*
X155555Y176475D01*
X155590Y176878D01*
X155634Y177281D01*
X155689Y177683D01*
X155753Y178083D01*
X155827Y178481D01*
X155911Y178877D01*
X156005Y179272D01*
X156108Y179663D01*
X156221Y180053D01*
X156343Y180439D01*
X156475Y180822D01*
X156616Y181202D01*
X156767Y181578D01*
X156926Y181951D01*
X157095Y182319D01*
X157273Y182683D01*
X157459Y183043D01*
X157655Y183398D01*
X157859Y183748D01*
X158071Y184093D01*
X158292Y184432D01*
X158522Y184767D01*
X158759Y185095D01*
X159004Y185417D01*
X159258Y185734D01*
X159518Y186044D01*
X159787Y186347D01*
X160063Y186644D01*
X160346Y186934D01*
X160636Y187217D01*
X160933Y187493D01*
X161236Y187762D01*
X161546Y188022D01*
X161863Y188276D01*
X162185Y188521D01*
X162513Y188758D01*
X162848Y188988D01*
X163187Y189209D01*
X163532Y189421D01*
X163882Y189625D01*
X164237Y189821D01*
X164597Y190007D01*
X164961Y190185D01*
X165329Y190354D01*
X165702Y190513D01*
X166078Y190664D01*
X166458Y190805D01*
X166841Y190937D01*
X167227Y191059D01*
X167617Y191172D01*
X168008Y191275D01*
X168403Y191369D01*
X168799Y191453D01*
X169197Y191527D01*
X169597Y191591D01*
X169999Y191646D01*
X170402Y191690D01*
X170805Y191725D01*
X171210Y191750D01*
X171615Y191765D01*
X172020Y191770D01*
X172425Y191765D01*
X172830Y191750D01*
X173235Y191725D01*
X173638Y191690D01*
X174041Y191646D01*
X174443Y191591D01*
X174843Y191527D01*
X175241Y191453D01*
X175637Y191369D01*
X176032Y191275D01*
X176423Y191172D01*
X176813Y191059D01*
X177199Y190937D01*
X177582Y190805D01*
X177962Y190664D01*
X178338Y190513D01*
X178711Y190354D01*
X179079Y190185D01*
X179443Y190007D01*
X179803Y189821D01*
X180158Y189625D01*
X180508Y189421D01*
X180853Y189209D01*
X181192Y188988D01*
X181527Y188758D01*
X181855Y188521D01*
X182177Y188276D01*
X182494Y188022D01*
X182804Y187762D01*
X183107Y187493D01*
X183404Y187217D01*
X183694Y186934D01*
X183977Y186644D01*
X184253Y186347D01*
X184522Y186044D01*
X184782Y185734D01*
X185036Y185417D01*
X185281Y185095D01*
X185518Y184767D01*
X185748Y184432D01*
X185969Y184093D01*
X186181Y183748D01*
X186385Y183398D01*
X186581Y183043D01*
X186767Y182683D01*
X186945Y182319D01*
X187114Y181951D01*
X187273Y181578D01*
X187424Y181202D01*
X187565Y180822D01*
X187697Y180439D01*
X187819Y180053D01*
X187932Y179663D01*
X188035Y179272D01*
X188129Y178877D01*
X188213Y178481D01*
X188287Y178083D01*
X188351Y177683D01*
X188406Y177281D01*
X188450Y176878D01*
X188485Y176475D01*
X188510Y176070D01*
X188525Y175665D01*
X188530Y175260D01*
X188525Y174855D01*
X188510Y174450D01*
X188485Y174045D01*
X188450Y173642D01*
X188406Y173239D01*
X188351Y172837D01*
X188287Y172437D01*
X188213Y172039D01*
X188129Y171643D01*
X188035Y171248D01*
X187932Y170857D01*
X187819Y170467D01*
X187697Y170081D01*
X187565Y169698D01*
X187424Y169318D01*
X187273Y168942D01*
X187114Y168569D01*
X186945Y168201D01*
X186767Y167837D01*
X186581Y167477D01*
X186385Y167122D01*
X186181Y166772D01*
X185969Y166427D01*
X185748Y166088D01*
X185518Y165753D01*
X185281Y165425D01*
X185036Y165103D01*
X184782Y164786D01*
X184522Y164476D01*
X184253Y164173D01*
X183977Y163876D01*
X183694Y163586D01*
X183404Y163303D01*
X183107Y163027D01*
X182804Y162758D01*
X182494Y162498D01*
X182177Y162244D01*
X181855Y161999D01*
X181527Y161762D01*
X181192Y161532D01*
X180853Y161311D01*
X180508Y161099D01*
X180158Y160895D01*
X179803Y160699D01*
X179443Y160513D01*
X179079Y160335D01*
X178711Y160166D01*
X178338Y160007D01*
X177962Y159856D01*
X177582Y159715D01*
X177199Y159583D01*
X176813Y159461D01*
X176423Y159348D01*
X176032Y159245D01*
X175637Y159151D01*
X175241Y159067D01*
X174843Y158993D01*
X174443Y158929D01*
X174041Y158874D01*
X173638Y158830D01*
X173235Y158795D01*
X172830Y158770D01*
X172425Y158755D01*
X172020Y158750D01*
X171615Y158755D01*
X171210Y158770D01*
X170805Y158795D01*
X170402Y158830D01*
X169999Y158874D01*
X169597Y158929D01*
X169197Y158993D01*
X168799Y159067D01*
X168403Y159151D01*
X168008Y159245D01*
X167617Y159348D01*
X167227Y159461D01*
X166841Y159583D01*
X166458Y159715D01*
X166078Y159856D01*
X165702Y160007D01*
X165329Y160166D01*
X164961Y160335D01*
X164597Y160513D01*
X164237Y160699D01*
X163882Y160895D01*
X163532Y161099D01*
X163187Y161311D01*
X162848Y161532D01*
X162513Y161762D01*
X162185Y161999D01*
X161863Y162244D01*
X161546Y162498D01*
X161236Y162758D01*
X160933Y163027D01*
X160636Y163303D01*
X160346Y163586D01*
X160063Y163876D01*
X159787Y164173D01*
X159518Y164476D01*
X159258Y164786D01*
X159004Y165103D01*
X158759Y165425D01*
X158522Y165753D01*
X158292Y166088D01*
X158071Y166427D01*
X157859Y166772D01*
X157655Y167122D01*
X157459Y167477D01*
X157273Y167837D01*
X157095Y168201D01*
X156926Y168569D01*
X156767Y168942D01*
X156616Y169318D01*
X156475Y169698D01*
X156343Y170081D01*
X156221Y170467D01*
X156108Y170857D01*
X156005Y171248D01*
X155911Y171643D01*
X155827Y172039D01*
X155753Y172437D01*
X155689Y172837D01*
X155634Y173239D01*
X155590Y173642D01*
X155555Y174045D01*
X155530Y174450D01*
X155515Y174855D01*
X155510Y175260D01*
X111200Y350240D02*
X101200Y350240D01*
X111200Y350240D02*
X111200Y315240D01*
X101200Y315240D01*
X101200Y350240D01*
X50200Y347740D02*
X42200Y347740D01*
X50200Y347740D02*
X50200Y317740D01*
X42200Y317740D01*
X42200Y347740D01*
X61200Y288740D02*
X91200Y288740D01*
X91200Y280740D01*
X61200Y280740D01*
X61200Y288740D01*
D12*
X45974Y336169D03*
D13*
X46228Y321183D03*
D14*
X50038Y336042D03*
D15*
X106299Y332613D03*
D16*
X106299Y350139D03*
D17*
X101600Y344043D03*
D18*
X101219Y340741D03*
D19*
X101219Y323215D03*
D20*
X76200Y284734D03*
D21*
X76200Y313690D02*
X76200Y332740D01*
X58420Y332740D01*
X63500Y335280D01*
X63500Y330200D02*
X58420Y332740D01*
X76200Y332740D02*
X95250Y332740D01*
X90170Y335280D01*
X90170Y330200D02*
X95250Y332740D01*
X76200Y306070D02*
X76200Y295910D01*
X73660Y300990D01*
X78740Y300990D02*
X76200Y295910D01*
D22*
X20236Y313187D02*
X19304Y312255D01*
X20236Y313187D02*
X22100Y313187D01*
X23033Y312255D01*
X23033Y311323D01*
X22100Y310390D01*
X21168Y310390D01*
X22100Y310390D02*
X23033Y309458D01*
X23033Y308526D01*
X22100Y307594D01*
X20236Y307594D01*
X19304Y308526D01*
X33327Y313187D02*
X34259Y312255D01*
X33327Y313187D02*
X31462Y313187D01*
X30530Y312255D01*
X30530Y311323D01*
X31462Y310390D01*
X33327Y310390D01*
X34259Y309458D01*
X34259Y308526D01*
X33327Y307594D01*
X31462Y307594D01*
X30530Y308526D01*
X36143Y313187D02*
X37075Y313187D01*
X37075Y307594D01*
X36143Y307594D02*
X38008Y307594D01*
X40817Y307594D02*
X42682Y307594D01*
X43614Y308526D01*
X43614Y310390D01*
X42682Y311323D01*
X40817Y311323D01*
X39885Y310390D01*
X39885Y308526D01*
X40817Y307594D01*
X46431Y308526D02*
X46431Y312255D01*
X46431Y308526D02*
X47363Y307594D01*
X47363Y311323D02*
X45498Y311323D01*
X54854Y313187D02*
X54854Y307594D01*
X57650Y307594D01*
X58582Y308526D01*
X58582Y312255D01*
X57650Y313187D01*
X54854Y313187D01*
X60467Y311323D02*
X60467Y307594D01*
X60467Y309458D02*
X62331Y311323D01*
X63263Y311323D01*
X65144Y311323D02*
X66076Y311323D01*
X66076Y307594D01*
X65144Y307594D02*
X67009Y307594D01*
X66076Y313187D02*
X66076Y314119D01*
X68886Y313187D02*
X69818Y313187D01*
X69818Y307594D01*
X68886Y307594D02*
X70751Y307594D01*
X72628Y313187D02*
X73561Y313187D01*
X73561Y307594D01*
X74493Y307594D02*
X72628Y307594D01*
X76370Y307594D02*
X79167Y307594D01*
X80099Y308526D01*
X79167Y309458D01*
X77303Y309458D01*
X76370Y310390D01*
X77303Y311323D01*
X80099Y311323D01*
X87597Y311323D02*
X87597Y308526D01*
X88529Y307594D01*
X89461Y308526D01*
X90393Y307594D01*
X91325Y308526D01*
X91325Y311323D01*
X93210Y311323D02*
X94142Y311323D01*
X94142Y307594D01*
X93210Y307594D02*
X95074Y307594D01*
X94142Y313187D02*
X94142Y314119D01*
X97884Y312255D02*
X97884Y308526D01*
X98816Y307594D01*
X98816Y311323D02*
X96952Y311323D01*
X100694Y313187D02*
X100694Y307594D01*
X100694Y310390D02*
X101626Y311323D01*
X103490Y311323D01*
X104422Y310390D01*
X104422Y307594D01*
X112852Y311323D02*
X115649Y311323D01*
X112852Y311323D02*
X111920Y310390D01*
X111920Y308526D01*
X112852Y307594D01*
X115649Y307594D01*
X118465Y307594D02*
X120330Y307594D01*
X121262Y308526D01*
X121262Y310390D01*
X120330Y311323D01*
X118465Y311323D01*
X117533Y310390D01*
X117533Y308526D01*
X118465Y307594D01*
X123146Y305730D02*
X123146Y311323D01*
X125943Y311323D01*
X126875Y310390D01*
X126875Y308526D01*
X125943Y307594D01*
X123146Y307594D01*
X128759Y305730D02*
X128759Y311323D01*
X131556Y311323D01*
X132488Y310390D01*
X132488Y308526D01*
X131556Y307594D01*
X128759Y307594D01*
X135305Y307594D02*
X137169Y307594D01*
X135305Y307594D02*
X134372Y308526D01*
X134372Y310390D01*
X135305Y311323D01*
X137169Y311323D01*
X138101Y310390D01*
X138101Y309458D01*
X134372Y309458D01*
X139986Y307594D02*
X139986Y311323D01*
X141850Y311323D02*
X139986Y309458D01*
X141850Y311323D02*
X142782Y311323D01*
D23*
X-320Y20D02*
X499680Y20D01*
X499680Y500020D01*
X-320Y500020D01*
X-320Y20D01*
X42200Y317740D02*
X50200Y317740D01*
X50200Y347740D01*
X42200Y347740D01*
X42200Y317740D01*
X101200Y315240D02*
X111200Y315240D01*
X111200Y350240D01*
X101200Y350240D01*
X101200Y315240D01*
X61200Y280740D02*
X91200Y280740D01*
X91200Y288740D01*
X61200Y288740D01*
X61200Y280740D01*
X99500Y409796D02*
X99500Y411004D01*
X99427Y412211D01*
X99281Y413411D01*
X99063Y414600D01*
X98774Y415773D01*
X98415Y416927D01*
X97986Y418057D01*
X97490Y419159D01*
X96928Y420230D01*
X96303Y421264D01*
X95616Y422259D01*
X94871Y423210D01*
X94069Y424115D01*
X93215Y424969D01*
X92310Y425771D01*
X91359Y426516D01*
X90364Y427203D01*
X89330Y427828D01*
X88259Y428390D01*
X87157Y428886D01*
X86027Y429315D01*
X84873Y429674D01*
X83700Y429963D01*
X82511Y430181D01*
X81311Y430327D01*
X80104Y430400D01*
X78896Y430400D01*
X77689Y430327D01*
X76489Y430181D01*
X75300Y429963D01*
X74127Y429674D01*
X72973Y429315D01*
X71843Y428886D01*
X70741Y428390D01*
X69670Y427828D01*
X68636Y427203D01*
X67641Y426516D01*
X66690Y425771D01*
X65785Y424969D01*
X64931Y424115D01*
X64129Y423210D01*
X63384Y422259D01*
X62697Y421264D01*
X62072Y420230D01*
X61510Y419159D01*
X61014Y418057D01*
X60585Y416927D01*
X60226Y415773D01*
X59937Y414600D01*
X59719Y413411D01*
X59573Y412211D01*
X59500Y411004D01*
X59500Y409796D01*
X59573Y408589D01*
X59719Y407389D01*
X59937Y406200D01*
X60226Y405027D01*
X60585Y403873D01*
X61014Y402743D01*
X61510Y401641D01*
X62072Y400570D01*
X62697Y399536D01*
X63384Y398541D01*
X64129Y397590D01*
X64931Y396685D01*
X65785Y395831D01*
X66690Y395029D01*
X67641Y394284D01*
X68636Y393597D01*
X69670Y392972D01*
X70741Y392410D01*
X71843Y391914D01*
X72973Y391485D01*
X74127Y391126D01*
X75300Y390837D01*
X76489Y390619D01*
X77689Y390473D01*
X78896Y390400D01*
X80104Y390400D01*
X81311Y390473D01*
X82511Y390619D01*
X83700Y390837D01*
X84873Y391126D01*
X86027Y391485D01*
X87157Y391914D01*
X88259Y392410D01*
X89330Y392972D01*
X90364Y393597D01*
X91359Y394284D01*
X92310Y395029D01*
X93215Y395831D01*
X94069Y396685D01*
X94871Y397590D01*
X95616Y398541D01*
X96303Y399536D01*
X96928Y400570D01*
X97490Y401641D01*
X97986Y402743D01*
X98415Y403873D01*
X98774Y405027D01*
X99063Y406200D01*
X99281Y407389D01*
X99427Y408589D01*
X99500Y409796D01*
X440500Y89796D02*
X440500Y91004D01*
X440427Y92211D01*
X440281Y93411D01*
X440063Y94600D01*
X439774Y95773D01*
X439415Y96927D01*
X438986Y98057D01*
X438490Y99159D01*
X437928Y100230D01*
X437303Y101264D01*
X436616Y102259D01*
X435871Y103210D01*
X435069Y104115D01*
X434215Y104969D01*
X433310Y105771D01*
X432359Y106516D01*
X431364Y107203D01*
X430330Y107828D01*
X429259Y108390D01*
X428157Y108886D01*
X427027Y109315D01*
X425873Y109674D01*
X424700Y109963D01*
X423511Y110181D01*
X422311Y110327D01*
X421104Y110400D01*
X419896Y110400D01*
X418689Y110327D01*
X417489Y110181D01*
X416300Y109963D01*
X415127Y109674D01*
X413973Y109315D01*
X412843Y108886D01*
X411741Y108390D01*
X410670Y107828D01*
X409636Y107203D01*
X408641Y106516D01*
X407690Y105771D01*
X406785Y104969D01*
X405931Y104115D01*
X405129Y103210D01*
X404384Y102259D01*
X403697Y101264D01*
X403072Y100230D01*
X402510Y99159D01*
X402014Y98057D01*
X401585Y96927D01*
X401226Y95773D01*
X400937Y94600D01*
X400719Y93411D01*
X400573Y92211D01*
X400500Y91004D01*
X400500Y89796D01*
X400573Y88589D01*
X400719Y87389D01*
X400937Y86200D01*
X401226Y85027D01*
X401585Y83873D01*
X402014Y82743D01*
X402510Y81641D01*
X403072Y80570D01*
X403697Y79536D01*
X404384Y78541D01*
X405129Y77590D01*
X405931Y76685D01*
X406785Y75831D01*
X407690Y75029D01*
X408641Y74284D01*
X409636Y73597D01*
X410670Y72972D01*
X411741Y72410D01*
X412843Y71914D01*
X413973Y71485D01*
X415127Y71126D01*
X416300Y70837D01*
X417489Y70619D01*
X418689Y70473D01*
X419896Y70400D01*
X421104Y70400D01*
X422311Y70473D01*
X423511Y70619D01*
X424700Y70837D01*
X425873Y71126D01*
X427027Y71485D01*
X428157Y71914D01*
X429259Y72410D01*
X430330Y72972D01*
X431364Y73597D01*
X432359Y74284D01*
X433310Y75029D01*
X434215Y75831D01*
X435069Y76685D01*
X435871Y77590D01*
X436616Y78541D01*
X437303Y79536D01*
X437928Y80570D01*
X438490Y81641D01*
X438986Y82743D01*
X439415Y83873D01*
X439774Y85027D01*
X440063Y86200D01*
X440281Y87389D01*
X440427Y88589D01*
X440500Y89796D01*
X429680Y89583D02*
X429604Y88714D01*
X429452Y87854D01*
X429226Y87010D01*
X428928Y86190D01*
X428559Y85398D01*
X428122Y84642D01*
X427621Y83927D01*
X427060Y83258D01*
X426442Y82640D01*
X425773Y82079D01*
X425058Y81578D01*
X424302Y81141D01*
X423510Y80772D01*
X422690Y80474D01*
X421846Y80248D01*
X420987Y80096D01*
X420117Y80020D01*
X419243Y80020D01*
X418374Y80096D01*
X417514Y80248D01*
X416670Y80474D01*
X415850Y80772D01*
X415058Y81141D01*
X414302Y81578D01*
X413587Y82079D01*
X412918Y82640D01*
X412300Y83258D01*
X411739Y83927D01*
X411238Y84642D01*
X410801Y85398D01*
X410432Y86190D01*
X410134Y87010D01*
X409908Y87854D01*
X409756Y88714D01*
X409680Y89583D01*
X409680Y90457D01*
X409756Y91327D01*
X409908Y92186D01*
X410134Y93030D01*
X410432Y93850D01*
X410801Y94642D01*
X411238Y95398D01*
X411739Y96113D01*
X412300Y96782D01*
X412918Y97400D01*
X413587Y97961D01*
X414302Y98462D01*
X415058Y98899D01*
X415850Y99268D01*
X416670Y99566D01*
X417514Y99792D01*
X418374Y99944D01*
X419243Y100020D01*
X420117Y100020D01*
X420987Y99944D01*
X421846Y99792D01*
X422690Y99566D01*
X423510Y99268D01*
X424302Y98899D01*
X425058Y98462D01*
X425773Y97961D01*
X426442Y97400D01*
X427060Y96782D01*
X427621Y96113D01*
X428122Y95398D01*
X428559Y94642D01*
X428928Y93850D01*
X429226Y93030D01*
X429452Y92186D01*
X429604Y91327D01*
X429680Y90457D01*
X429680Y89583D01*
X89680Y409583D02*
X89604Y408714D01*
X89452Y407854D01*
X89226Y407010D01*
X88928Y406190D01*
X88559Y405398D01*
X88122Y404642D01*
X87621Y403927D01*
X87060Y403258D01*
X86442Y402640D01*
X85773Y402079D01*
X85058Y401578D01*
X84302Y401141D01*
X83510Y400772D01*
X82690Y400474D01*
X81846Y400248D01*
X80987Y400096D01*
X80117Y400020D01*
X79243Y400020D01*
X78374Y400096D01*
X77514Y400248D01*
X76670Y400474D01*
X75850Y400772D01*
X75058Y401141D01*
X74302Y401578D01*
X73587Y402079D01*
X72918Y402640D01*
X72300Y403258D01*
X71739Y403927D01*
X71238Y404642D01*
X70801Y405398D01*
X70432Y406190D01*
X70134Y407010D01*
X69908Y407854D01*
X69756Y408714D01*
X69680Y409583D01*
X69680Y410457D01*
X69756Y411327D01*
X69908Y412186D01*
X70134Y413030D01*
X70432Y413850D01*
X70801Y414642D01*
X71238Y415398D01*
X71739Y416113D01*
X72300Y416782D01*
X72918Y417400D01*
X73587Y417961D01*
X74302Y418462D01*
X75058Y418899D01*
X75850Y419268D01*
X76670Y419566D01*
X77514Y419792D01*
X78374Y419944D01*
X79243Y420020D01*
X80117Y420020D01*
X80987Y419944D01*
X81846Y419792D01*
X82690Y419566D01*
X83510Y419268D01*
X84302Y418899D01*
X85058Y418462D01*
X85773Y417961D01*
X86442Y417400D01*
X87060Y416782D01*
X87621Y416113D01*
X88122Y415398D01*
X88559Y414642D01*
X88928Y413850D01*
X89226Y413030D01*
X89452Y412186D01*
X89604Y411327D01*
X89680Y410457D01*
X89680Y409583D01*
X155510Y175800D02*
X155581Y176879D01*
X155722Y177951D01*
X155933Y179011D01*
X156212Y180055D01*
X156560Y181079D01*
X156974Y182077D01*
X157452Y183047D01*
X157992Y183983D01*
X158593Y184882D01*
X159251Y185739D01*
X159964Y186552D01*
X160728Y187317D01*
X161541Y188029D01*
X162398Y188687D01*
X163297Y189288D01*
X164233Y189828D01*
X165203Y190306D01*
X166201Y190720D01*
X167225Y191068D01*
X168269Y191347D01*
X169329Y191558D01*
X170401Y191699D01*
X171480Y191770D01*
X172560Y191770D01*
X173639Y191699D01*
X174711Y191558D01*
X175771Y191347D01*
X176815Y191068D01*
X177839Y190720D01*
X178837Y190306D01*
X179807Y189828D01*
X180743Y189288D01*
X181642Y188687D01*
X182499Y188029D01*
X183312Y187317D01*
X184077Y186552D01*
X184789Y185739D01*
X185447Y184882D01*
X186048Y183983D01*
X186588Y183047D01*
X187066Y182077D01*
X187480Y181079D01*
X187828Y180055D01*
X188107Y179011D01*
X188318Y177951D01*
X188459Y176879D01*
X188530Y175800D01*
X188530Y174720D01*
X188459Y173641D01*
X188318Y172569D01*
X188107Y171509D01*
X187828Y170465D01*
X187480Y169441D01*
X187066Y168443D01*
X186588Y167473D01*
X186048Y166537D01*
X185447Y165638D01*
X184789Y164781D01*
X184077Y163968D01*
X183312Y163204D01*
X182499Y162491D01*
X181642Y161833D01*
X180743Y161232D01*
X179807Y160692D01*
X178837Y160214D01*
X177839Y159800D01*
X176815Y159452D01*
X175771Y159173D01*
X174711Y158962D01*
X173639Y158821D01*
X172560Y158750D01*
X171480Y158750D01*
X170401Y158821D01*
X169329Y158962D01*
X168269Y159173D01*
X167225Y159452D01*
X166201Y159800D01*
X165203Y160214D01*
X164233Y160692D01*
X163297Y161232D01*
X162398Y161833D01*
X161541Y162491D01*
X160728Y163204D01*
X159964Y163968D01*
X159251Y164781D01*
X158593Y165638D01*
X157992Y166537D01*
X157452Y167473D01*
X156974Y168443D01*
X156560Y169441D01*
X156212Y170465D01*
X155933Y171509D01*
X155722Y172569D01*
X155581Y173641D01*
X155510Y174720D01*
X155510Y175800D01*
M02*
