%
M48
M72
T01C0.01500
T02C0.02756
T03C0.03150
T04C0.03200
T05C0.03543
T06C0.04000
T07C0.04700
T08C0.04724
T09C0.07874
T10C0.13000
%
T01
X99042Y108500
X95917Y116000
X95917Y137250
X110917Y150375
X119667Y159750
X123417Y153500
X129667Y156625
X145292Y172250
X147167Y166000
X151542Y152875
X152167Y138500
X154042Y124125
X154667Y112250
X180917Y132250
X184042Y151625
X165292Y177250
X142167Y183500
X140292Y189750
X129667Y180375
X123417Y200375
X108417Y177250
X102167Y169125
X92792Y167250
X79667Y157875
X89667Y184125
X82167Y196000
T02
X21706Y168756
X11706Y168756
T03
X15667Y58000
X25667Y58000
X25667Y88000
X15667Y88000
X65667Y88000
T04
X162572Y120157
X172761Y136843
X122761Y136843
X122572Y120157
X123667Y168000
X123667Y188000
X53045Y192787
X43045Y192787
X33045Y192787
X31517Y152543
X11517Y152543
T05
X15604Y98472
X45604Y98472
X117667Y104118
X117667Y25378
T06
X178667Y95000
X188667Y95000
X188667Y105000
X178667Y105000
X178667Y115000
X188667Y115000
X192667Y133000
X192667Y143000
X192667Y153000
X192667Y163000
X192667Y173000
X192667Y183000
X79667Y134276
X79667Y124276
X79667Y114276
T07
X27824Y28000
X47509Y28000
T08
X14667Y187961
X14667Y197961
T09
X36037Y172425
X169895Y46441
T10
X20667Y124276
M30
